<?xml version="1.0" encoding="UTF-8" standalone="no"?><!DOCTYPE svg PUBLIC "-//W3C//DTD SVG 1.1//EN" "http://www.w3.org/Graphics/SVG/1.1/DTD/svg11.dtd"><svg viewBox="0 0 600 315" version="1.1" xmlns="http://www.w3.org/2000/svg" xmlns:xlink="http://www.w3.org/1999/xlink" xml:space="preserve" xmlns:serif="http://www.serif.com/" style="fill-rule:evenodd;clip-rule:evenodd;stroke-linejoin:round;stroke-miterlimit:1.41421;"><path d="M337.362,143.049l0,-10.775c0.013,-1.64 1.426,-2.737 3.136,-2.737l55.227,0c1.779,0 3.189,1.128 3.189,2.727l0,9.258c-0.021,1.528 -1.514,3.561 -4.159,6.779l-28.631,35.738c10.624,-0.218 21.866,1.171 31.521,5.922c2.175,1.075 2.766,2.642 2.931,4.199l0,11.524c0,1.593 -1.988,3.433 -4.057,2.474c-17.017,-7.81 -39.578,-8.659 -58.373,0.094c-1.925,0.9 -3.929,-0.903 -3.929,-2.495l0,-10.963c0,-1.747 0.032,-4.743 2.051,-7.409l33.142,-41.61l-28.851,0c-1.763,-0.001 -3.177,-1.101 -3.197,-2.726Zm-201.469,67.378l-16.805,0c-1.599,-0.085 -2.888,-1.138 -3.007,-2.482l0.016,-75.487c0,-1.505 1.439,-2.719 3.238,-2.719l15.649,-0.005c1.639,0.079 2.95,1.162 3.057,2.54l0,9.859l0.308,0c4.069,-9.533 11.766,-13.988 22.109,-13.988c10.517,0 17.086,4.455 21.805,13.988c4.082,-9.533 13.328,-13.988 23.22,-13.988c7.062,0 14.74,2.547 19.453,8.266c5.34,6.336 4.236,15.564 4.236,23.648l-0.007,47.647c0,1.514 -1.465,2.72 -3.248,2.72l-16.778,0c-1.694,-0.085 -3.018,-1.258 -3.018,-2.705l-0.006,-40.029c0,-3.174 0.307,-11.107 -0.479,-14.139c-1.264,-5.08 -5.026,-6.509 -9.888,-6.509c-4.06,0 -8.305,2.384 -10.036,6.197c-1.717,3.815 -1.567,10.155 -1.567,14.451l0,40.012c0,1.514 -1.453,2.721 -3.242,2.721l-16.783,0c-1.689,-0.085 -3.021,-1.259 -3.021,-2.705l-0.021,-40.03c0,-8.424 1.577,-20.806 -10.339,-20.806c-12.089,0 -11.615,12.083 -11.615,20.806l-0.007,40.013c-0.002,1.517 -1.425,2.724 -3.224,2.724Zm310.584,-82.281c24.917,0 38.435,18.742 38.435,42.566c0,23.019 -14.931,41.309 -38.435,41.309c-24.48,0 -37.823,-18.776 -37.823,-42.113c0,-23.493 13.494,-41.762 37.823,-41.762Zm0.159,15.4c-12.409,0 -13.196,14.789 -13.196,23.973c0,9.217 -0.158,28.904 13.036,28.904c12.991,0 13.609,-15.877 13.609,-25.541c0,-6.362 -0.306,-13.982 -2.508,-20.023c-1.877,-5.25 -5.643,-7.313 -10.941,-7.313Zm70.605,66.881l-16.755,0c-1.693,-0.085 -3.015,-1.259 -3.015,-2.705l-0.036,-75.515c0.148,-1.385 1.539,-2.468 3.235,-2.468l15.604,-0.006c1.476,0.069 2.683,0.947 2.988,2.121l0,11.538l0.316,0c4.704,-10.315 11.265,-15.248 22.874,-15.248c7.54,0 14.928,2.387 19.633,8.907c4.366,6.016 4.366,16.191 4.366,23.493l0,47.499c-0.194,1.352 -1.572,2.383 -3.187,2.383l-16.873,0c-1.533,-0.079 -2.805,-1.095 -2.999,-2.383l0,-40.984c0,-8.245 1.115,-20.334 -10.514,-20.334c-4.086,0 -7.81,2.389 -9.703,6.045c-2.349,4.609 -2.657,9.201 -2.657,14.29l0,40.646c-0.042,1.514 -1.488,2.721 -3.277,2.721Zm-414.281,-13.85c-3.057,-3.725 -6.327,-6.732 -6.327,-13.623l0,-22.913c0,-9.695 0.793,-18.604 -7.393,-25.29c-6.452,-5.42 -17.138,-7.329 -25.321,-7.329c-15.993,0 -33.828,5.222 -37.575,22.513c-0.398,1.849 1.132,2.809 2.511,3.08l16.288,1.545c1.514,-0.069 2.626,-1.389 2.918,-2.711c1.401,-5.963 7.104,-8.834 13.513,-8.834c3.446,0 7.376,1.12 9.43,3.825c2.357,3.017 2.041,7.166 2.041,10.668l0,1.894c-9.753,0.959 -22.489,1.593 -31.594,5.099c-10.534,3.988 -17.914,12.092 -17.914,24.042c0,15.292 10.996,22.932 25.133,22.932c11.973,0 18.485,-2.471 27.718,-10.695c3.054,3.865 4.051,5.73 9.629,9.807c1.254,0.581 2.856,0.535 3.973,-0.347l0.037,0.036c3.358,-2.619 9.466,-7.258 12.881,-9.772c1.363,-0.99 1.122,-2.594 0.052,-3.927Zm-33.064,-6.606c-2.677,4.118 -6.911,6.669 -11.625,6.669c-6.45,0 -10.221,-4.301 -10.221,-10.652c0,-12.517 12.845,-14.788 24.997,-14.788l0,3.176c0,5.714 0.154,10.496 -3.151,15.595Zm253.36,6.606c-3.08,-3.725 -6.344,-6.732 -6.344,-13.623l0,-22.913c0,-9.695 0.787,-18.604 -7.4,-25.29c-6.424,-5.42 -17.124,-7.329 -25.291,-7.329c-15.99,0 -33.835,5.222 -37.579,22.513c-0.398,1.849 1.132,2.809 2.509,3.08l16.277,1.545c1.538,-0.069 2.642,-1.389 2.928,-2.711c1.41,-5.963 7.088,-8.834 13.507,-8.834c3.454,0 7.393,1.12 9.426,3.825c2.351,3.017 2.037,7.166 2.037,10.668l0,1.894c-9.74,0.959 -22.469,1.593 -31.579,5.099c-10.534,3.988 -17.925,12.092 -17.925,24.042c0,15.292 10.99,22.932 25.146,22.932c11.941,0 18.488,-2.471 27.712,-10.695c3.046,3.865 4.051,5.73 9.628,9.807c1.264,0.581 2.849,0.535 3.96,-0.347l0.037,0.036c3.366,-2.619 9.472,-7.258 12.904,-9.772c1.367,-0.99 1.133,-2.594 0.047,-3.927Zm-33.076,-6.606c-2.655,4.118 -6.907,6.669 -11.625,6.669c-6.45,0 -10.205,-4.301 -10.205,-10.652c0,-12.517 12.829,-14.788 24.978,-14.788l0,3.176c0,5.714 0.163,10.496 -3.148,15.595Z" style="fill:#231f20;fill-rule:nonzero;"/><path d="M359.809,239.538c-32.057,20.021 -76.71,30.833 -116.106,30.833c-55.183,0 -104.37,-17.477 -142.266,-47.419c-3.505,-2.77 -1.242,-6.018 3.116,-3.827c41.226,20.861 90.633,33.065 142.474,33.065c34.96,0 72.093,-6.091 107.38,-19.226c7.716,-2.878 10.913,3.128 5.402,6.574Z" style="fill:#f9a51b;fill-rule:nonzero;"/><path d="M373.508,226.025c-4.055,-4.531 -26.694,-2.142 -36.865,-1.091c-3.062,0.328 -3.561,-2.028 -0.77,-3.731c18.057,-11.044 47.658,-7.829 51.081,-4.184c3.461,3.75 -0.915,29.736 -17.832,42.14c-2.608,1.92 -5.057,0.878 -3.908,-1.635c3.796,-8.333 12.328,-26.983 8.294,-31.499Z" style="fill:#f9a51b;fill-rule:nonzero;"/><path d="M585.574,197.878c1.893,0 3.503,0.582 4.83,1.748c1.326,1.154 1.995,2.559 1.995,4.203c0,1.654 -0.667,3.06 -1.995,4.223c-1.323,1.165 -2.931,1.75 -4.83,1.75c-1.894,0 -3.502,-0.585 -4.825,-1.75c-1.319,-1.163 -1.981,-2.571 -1.981,-4.223c0,-1.644 0.662,-3.049 1.995,-4.203c1.328,-1.166 2.937,-1.748 4.811,-1.748Zm7.894,5.936c0,-1.902 -0.775,-3.524 -2.312,-4.863c-1.538,-1.34 -3.409,-2.011 -5.589,-2.011c-2.171,0 -4.019,0.671 -5.561,2.011c-1.536,1.346 -2.309,2.965 -2.309,4.863c0,1.915 0.763,3.547 2.29,4.891c1.531,1.356 3.396,2.034 5.577,2.034c2.182,0 4.05,-0.678 5.591,-2.034c1.538,-1.347 2.313,-2.978 2.313,-4.891Zm-5.805,-1.489c0,0.568 -0.3,0.955 -0.901,1.163c-0.335,0.114 -0.825,0.165 -1.476,0.165l-1.397,0l0,-2.7l1.316,0c0.864,0 1.483,0.086 1.878,0.274c0.384,0.188 0.58,0.549 0.58,1.098Zm-5.265,-2.31l0,7.55l1.49,0l0,-2.976l1.22,0c0.824,0 1.399,0.084 1.723,0.241c0.558,0.288 0.831,0.858 0.831,1.733l0,0.599l0.033,0.241l0.018,0.085c0.014,0.022 0.019,0.051 0.026,0.077l1.416,0l-0.055,-0.097c-0.042,-0.065 -0.066,-0.191 -0.079,-0.39c-0.018,-0.201 -0.018,-0.387 -0.018,-0.564l0,-0.548c0,-0.381 -0.164,-0.773 -0.471,-1.176c-0.316,-0.398 -0.806,-0.645 -1.484,-0.736c0.534,-0.074 0.95,-0.194 1.252,-0.365c0.57,-0.324 0.856,-0.819 0.856,-1.491c0,-0.947 -0.454,-1.584 -1.351,-1.912c-0.503,-0.179 -1.293,-0.269 -2.37,-0.269l-3.037,-0.002Z" style="fill:#fff;fill-rule:nonzero;"/><g><path d="M29.786,99.863l16.036,-41.756l5.953,0l17.089,41.756l-6.294,0l-4.871,-12.647l-17.46,0l-4.586,12.647l-5.867,0Zm12.048,-17.147l14.156,0l-4.358,-11.564c-1.329,-3.513 -2.316,-6.399 -2.962,-8.659c-0.532,2.677 -1.282,5.336 -2.25,7.975l-4.586,12.248Z" style="fill-rule:nonzero;"/><path d="M79.973,99.863l-11.507,-30.249l5.411,0l6.495,18.115c0.702,1.956 1.348,3.988 1.936,6.095c0.456,-1.595 1.092,-3.513 1.909,-5.753l6.722,-18.457l5.269,0l-11.45,30.249l-4.785,0Z" style="fill-rule:nonzero;"/><path d="M120.476,96.132c-1.899,1.614 -3.727,2.753 -5.483,3.417c-1.757,0.665 -3.641,0.997 -5.654,0.997c-3.323,0 -5.877,-0.811 -7.662,-2.435c-1.785,-1.623 -2.677,-3.698 -2.677,-6.223c0,-1.482 0.337,-2.835 1.011,-4.059c0.674,-1.225 1.557,-2.208 2.649,-2.948c1.091,-0.741 2.321,-1.301 3.688,-1.681c1.007,-0.266 2.526,-0.522 4.557,-0.769c4.14,-0.494 7.188,-1.082 9.144,-1.766c0.019,-0.702 0.028,-1.149 0.028,-1.338c0,-2.089 -0.484,-3.561 -1.453,-4.415c-1.31,-1.159 -3.256,-1.738 -5.839,-1.738c-2.411,0 -4.191,0.423 -5.34,1.268c-1.149,0.845 -1.999,2.34 -2.549,4.486l-5.014,-0.684c0.456,-2.146 1.206,-3.878 2.251,-5.198c1.044,-1.32 2.554,-2.336 4.528,-3.048c1.975,-0.712 4.263,-1.068 6.865,-1.068c2.582,0 4.681,0.304 6.295,0.912c1.614,0.607 2.8,1.372 3.56,2.293c0.76,0.92 1.291,2.084 1.595,3.489c0.171,0.873 0.256,2.449 0.256,4.728l0,6.836c0,4.766 0.11,7.78 0.328,9.043c0.218,1.263 0.65,2.473 1.296,3.632l-5.355,0c-0.532,-1.064 -0.873,-2.307 -1.025,-3.731Zm-0.427,-11.451c-1.861,0.76 -4.653,1.405 -8.375,1.937c-2.107,0.304 -3.598,0.646 -4.471,1.026c-0.874,0.379 -1.548,0.935 -2.023,1.666c-0.474,0.731 -0.712,1.543 -0.712,2.435c0,1.367 0.518,2.507 1.553,3.418c1.034,0.912 2.549,1.367 4.543,1.367c1.974,0 3.731,-0.432 5.269,-1.296c1.538,-0.864 2.668,-2.046 3.39,-3.546c0.55,-1.158 0.826,-2.867 0.826,-5.127l0,-1.88Z" style="fill-rule:nonzero;"/><path d="M133.208,64.003l0,-5.896l5.127,0l0,5.896l-5.127,0Zm0,35.86l0,-30.249l5.127,0l0,30.249l-5.127,0Z" style="fill-rule:nonzero;"/><rect x="146.025" y="58.107" width="5.127" height="41.756" style="fill-rule:nonzero;"/><path d="M178.838,96.132c-1.899,1.614 -3.727,2.753 -5.483,3.417c-1.757,0.665 -3.642,0.997 -5.654,0.997c-3.323,0 -5.877,-0.811 -7.662,-2.435c-1.785,-1.623 -2.678,-3.698 -2.678,-6.223c0,-1.482 0.337,-2.835 1.011,-4.059c0.675,-1.225 1.558,-2.208 2.649,-2.948c1.092,-0.741 2.322,-1.301 3.689,-1.681c1.006,-0.266 2.525,-0.522 4.557,-0.769c4.14,-0.494 7.187,-1.082 9.143,-1.766c0.019,-0.702 0.029,-1.149 0.029,-1.338c0,-2.089 -0.484,-3.561 -1.453,-4.415c-1.31,-1.159 -3.256,-1.738 -5.839,-1.738c-2.411,0 -4.192,0.423 -5.34,1.268c-1.149,0.845 -1.999,2.34 -2.55,4.486l-5.013,-0.684c0.456,-2.146 1.206,-3.878 2.25,-5.198c1.045,-1.32 2.554,-2.336 4.529,-3.048c1.975,-0.712 4.263,-1.068 6.865,-1.068c2.582,0 4.68,0.304 6.294,0.912c1.615,0.607 2.801,1.372 3.561,2.293c0.759,0.92 1.291,2.084 1.595,3.489c0.171,0.873 0.256,2.449 0.256,4.728l0,6.836c0,4.766 0.109,7.78 0.328,9.043c0.218,1.263 0.65,2.473 1.296,3.632l-5.355,0c-0.532,-1.064 -0.874,-2.307 -1.025,-3.731Zm-0.428,-11.451c-1.861,0.76 -4.652,1.405 -8.374,1.937c-2.107,0.304 -3.598,0.646 -4.472,1.026c-0.873,0.379 -1.547,0.935 -2.022,1.666c-0.475,0.731 -0.712,1.543 -0.712,2.435c0,1.367 0.518,2.507 1.552,3.418c1.035,0.912 2.55,1.367 4.543,1.367c1.975,0 3.732,-0.432 5.27,-1.296c1.538,-0.864 2.668,-2.046 3.389,-3.546c0.551,-1.158 0.826,-2.867 0.826,-5.127l0,-1.88Z" style="fill-rule:nonzero;"/><path d="M196.269,99.863l-4.756,0l0,-41.756l5.126,0l0,14.896c2.165,-2.715 4.928,-4.073 8.289,-4.073c1.861,0 3.622,0.375 5.284,1.125c1.661,0.75 3.028,1.804 4.101,3.162c1.073,1.358 1.913,2.995 2.521,4.913c0.608,1.918 0.911,3.969 0.911,6.153c0,5.183 -1.281,9.19 -3.845,12.019c-2.563,2.83 -5.639,4.244 -9.228,4.244c-3.57,0 -6.371,-1.49 -8.403,-4.471l0,3.788Zm-0.057,-15.353c0,3.627 0.494,6.248 1.481,7.862c1.614,2.639 3.798,3.959 6.551,3.959c2.241,0 4.178,-0.973 5.811,-2.92c1.633,-1.946 2.45,-4.846 2.45,-8.701c0,-3.95 -0.784,-6.865 -2.35,-8.745c-1.567,-1.879 -3.461,-2.819 -5.683,-2.819c-2.24,0 -4.177,0.973 -5.81,2.919c-1.633,1.947 -2.45,4.762 -2.45,8.445Z" style="fill-rule:nonzero;"/><rect x="223.869" y="58.107" width="5.127" height="41.756" style="fill-rule:nonzero;"/><path d="M257.65,90.122l5.298,0.655c-0.835,3.095 -2.383,5.497 -4.643,7.206c-2.259,1.709 -5.146,2.563 -8.659,2.563c-4.424,0 -7.932,-1.362 -10.524,-4.087c-2.592,-2.725 -3.888,-6.546 -3.888,-11.464c0,-5.089 1.31,-9.039 3.931,-11.849c2.62,-2.811 6.019,-4.216 10.197,-4.216c4.044,0 7.348,1.377 9.912,4.13c2.563,2.754 3.845,6.627 3.845,11.621c0,0.304 -0.01,0.76 -0.028,1.368l-22.559,0c0.19,3.323 1.13,5.867 2.82,7.633c1.69,1.766 3.797,2.649 6.323,2.649c1.88,0 3.484,-0.494 4.814,-1.481c1.329,-0.988 2.383,-2.564 3.161,-4.728Zm-16.833,-8.289l16.89,0c-0.228,-2.544 -0.873,-4.453 -1.937,-5.725c-1.633,-1.975 -3.75,-2.962 -6.351,-2.962c-2.355,0 -4.335,0.788 -5.939,2.364c-1.605,1.576 -2.492,3.684 -2.663,6.323Z" style="fill-rule:nonzero;"/><path d="M305.331,96.132c-1.899,1.614 -3.727,2.753 -5.483,3.417c-1.757,0.665 -3.641,0.997 -5.654,0.997c-3.323,0 -5.877,-0.811 -7.662,-2.435c-1.785,-1.623 -2.677,-3.698 -2.677,-6.223c0,-1.482 0.337,-2.835 1.011,-4.059c0.674,-1.225 1.557,-2.208 2.649,-2.948c1.092,-0.741 2.321,-1.301 3.688,-1.681c1.007,-0.266 2.526,-0.522 4.558,-0.769c4.139,-0.494 7.187,-1.082 9.143,-1.766c0.019,-0.702 0.028,-1.149 0.028,-1.338c0,-2.089 -0.484,-3.561 -1.452,-4.415c-1.311,-1.159 -3.257,-1.738 -5.84,-1.738c-2.411,0 -4.191,0.423 -5.34,1.268c-1.149,0.845 -1.999,2.34 -2.549,4.486l-5.013,-0.684c0.455,-2.146 1.205,-3.878 2.25,-5.198c1.044,-1.32 2.554,-2.336 4.529,-3.048c1.974,-0.712 4.263,-1.068 6.864,-1.068c2.582,0 4.681,0.304 6.295,0.912c1.614,0.607 2.801,1.372 3.56,2.293c0.76,0.92 1.291,2.084 1.595,3.489c0.171,0.873 0.257,2.449 0.257,4.728l0,6.836c0,4.766 0.109,7.78 0.327,9.043c0.219,1.263 0.65,2.473 1.296,3.632l-5.355,0c-0.531,-1.064 -0.873,-2.307 -1.025,-3.731Zm-0.427,-11.451c-1.861,0.76 -4.653,1.405 -8.374,1.937c-2.108,0.304 -3.599,0.646 -4.472,1.026c-0.874,0.379 -1.548,0.935 -2.023,1.666c-0.474,0.731 -0.712,1.543 -0.712,2.435c0,1.367 0.518,2.507 1.553,3.418c1.035,0.912 2.549,1.367 4.543,1.367c1.975,0 3.731,-0.432 5.269,-1.296c1.538,-0.864 2.668,-2.046 3.39,-3.546c0.55,-1.158 0.826,-2.867 0.826,-5.127l0,-1.88Z" style="fill-rule:nonzero;"/><path d="M329.228,95.277l0.741,4.529c-1.443,0.304 -2.735,0.456 -3.874,0.456c-1.861,0 -3.304,-0.295 -4.329,-0.883c-1.026,-0.589 -1.747,-1.363 -2.165,-2.322c-0.418,-0.959 -0.627,-2.976 -0.627,-6.052l0,-17.404l-3.759,0l0,-3.987l3.759,0l0,-7.491l5.099,-3.076l0,10.567l5.155,0l0,3.987l-5.155,0l0,17.688c0,1.463 0.09,2.402 0.27,2.82c0.181,0.418 0.475,0.75 0.883,0.997c0.409,0.247 0.992,0.37 1.752,0.37c0.57,0 1.32,-0.066 2.25,-0.199Z" style="fill-rule:nonzero;"/></g></svg>