<?xml version="1.0" encoding="UTF-8" standalone="no"?><!DOCTYPE svg PUBLIC "-//W3C//DTD SVG 1.1//EN" "http://www.w3.org/Graphics/SVG/1.1/DTD/svg11.dtd"><svg width="100%" height="100%" viewBox="0 0 2200 375" version="1.1" xmlns="http://www.w3.org/2000/svg" xmlns:xlink="http://www.w3.org/1999/xlink" xml:space="preserve" style="fill-rule:evenodd;clip-rule:evenodd;stroke-linejoin:round;stroke-miterlimit:1.41421;"><g><path d="M920.371,36.672l-125.559,0l0,161.357l51.841,0l0,-63.799l73.42,0l0,-30.249l-73.42,0l0,-39.218l73.718,0l0,-28.091Z" style="fill:#fff;fill-opacity:0.81;fill-rule:nonzero;"/><path d="M1330.05,37.393l-51.841,0l0,161.357l123.461,0l0,-27.011l-71.62,0l0,-134.346Z" style="fill:#fff;fill-rule:nonzero;"/><path d="M898.679,198.697l49.405,0l41.002,-117.443l45.164,117.443l49.969,0l-67.127,-161.615l-51.02,0l-67.393,161.615Z" style="fill:#fff;fill-opacity:0.873659;"/><path d="M1087.42,198.95l49.404,0l41.003,-117.443l45.163,117.443l49.97,0l-67.128,-161.616l-51.019,0l-67.393,161.616Z" style="fill:#fff;fill-opacity:0.937643;"/></g><g><path d="M631.152,251.214c0,-3.327 0.638,-6.268 1.915,-8.821c1.277,-2.553 2.958,-4.662 5.043,-6.325c2.085,-1.664 4.426,-2.921 7.022,-3.772c2.596,-0.852 5.213,-1.277 7.851,-1.277c2.639,0 5.256,0.425 7.852,1.277c2.596,0.851 4.937,2.108 7.022,3.772c2.085,1.663 3.766,3.772 5.043,6.325c1.276,2.553 1.915,5.494 1.915,8.821l0,43.64c0,3.404 -0.639,6.364 -1.915,8.878c-1.277,2.515 -2.958,4.604 -5.043,6.268c-2.085,1.663 -4.426,2.921 -7.022,3.772c-2.596,0.851 -5.213,1.276 -7.852,1.276c-2.638,0 -5.255,-0.425 -7.851,-1.276c-2.596,-0.851 -4.937,-2.109 -7.022,-3.772c-2.085,-1.664 -3.766,-3.753 -5.043,-6.268c-1.277,-2.514 -1.915,-5.474 -1.915,-8.878l0,-43.64Zm13.022,43.64c0,2.862 0.873,4.971 2.617,6.325c1.745,1.354 3.809,2.031 6.192,2.031c2.383,0 4.447,-0.677 6.192,-2.031c1.745,-1.354 2.618,-3.463 2.618,-6.325l0,-43.64c0,-2.863 -0.873,-4.972 -2.618,-6.326c-1.745,-1.354 -3.809,-2.031 -6.192,-2.031c-2.383,0 -4.447,0.677 -6.192,2.031c-1.744,1.354 -2.617,3.463 -2.617,6.326l0,43.64Z" style="fill:#ff582f;fill-rule:nonzero;"/><path d="M761.63,295.898c0,2.553 -0.532,4.991 -1.596,7.312c-1.064,2.321 -2.532,4.352 -4.405,6.093c-1.872,1.741 -4.064,3.134 -6.575,4.179c-2.51,1.044 -5.213,1.566 -8.107,1.566c-2.468,0 -4.979,-0.309 -7.532,-0.928c-2.553,-0.619 -4.851,-1.683 -6.894,-3.192c-2.043,-1.509 -3.724,-3.501 -5.043,-5.977c-1.319,-2.476 -1.979,-5.61 -1.979,-9.401l0,-45.497c0,-2.708 0.511,-5.223 1.532,-7.544c1.021,-2.321 2.468,-4.333 4.341,-6.035c1.872,-1.702 4.106,-3.037 6.702,-4.004c2.596,-0.967 5.469,-1.451 8.618,-1.451c2.979,0 5.745,0.484 8.299,1.451c2.553,0.967 4.766,2.321 6.638,4.062c1.873,1.741 3.341,3.83 4.405,6.267c1.064,2.438 1.596,5.088 1.596,7.951l0,4.642l-13.022,0l0,-3.946c0,-2.321 -0.724,-4.333 -2.171,-6.035c-1.447,-1.703 -3.404,-2.554 -5.873,-2.554c-3.234,0 -5.383,0.909 -6.447,2.728c-1.064,1.818 -1.596,4.12 -1.596,6.906l0,42.246c0,2.399 0.575,4.411 1.724,6.036c1.149,1.625 3.213,2.437 6.192,2.437c0.851,0 1.766,-0.135 2.745,-0.406c0.978,-0.271 1.872,-0.716 2.681,-1.335c0.808,-0.619 1.468,-1.47 1.979,-2.553c0.51,-1.084 0.766,-2.438 0.766,-4.062l0,-4.063l13.022,0l0,5.107Z" style="fill:#ff582f;fill-rule:nonzero;"/><path d="M814.74,242.857l-15.065,0l0,-11.142l43.152,0l0,11.142l-15.064,0l0,71.495l-13.023,0l0,-71.495Z" style="fill:#ff582f;fill-rule:nonzero;"/><path d="M924.663,295.782c0,2.708 -0.553,5.223 -1.659,7.544c-1.107,2.321 -2.617,4.352 -4.532,6.093c-1.916,1.741 -4.15,3.115 -6.703,4.121c-2.553,1.006 -5.277,1.508 -8.171,1.508c-2.894,0 -5.617,-0.502 -8.171,-1.508c-2.553,-1.006 -4.787,-2.38 -6.702,-4.121c-1.915,-1.741 -3.426,-3.772 -4.533,-6.093c-1.106,-2.321 -1.659,-4.836 -1.659,-7.544l0,-64.067l13.022,0l0,62.906c0,2.941 0.766,5.107 2.298,6.5c1.532,1.393 3.447,2.089 5.745,2.089c2.298,0 4.213,-0.696 5.745,-2.089c1.532,-1.393 2.298,-3.559 2.298,-6.5l0,-62.906l13.022,0l0,64.067Z" style="fill:#ff582f;fill-rule:nonzero;"/><path d="M970.88,231.715l19.022,0c4.171,0 7.724,0.581 10.661,1.741c2.936,1.161 5.341,2.708 7.213,4.643c1.873,1.934 3.213,4.159 4.022,6.673c0.808,2.515 1.213,5.126 1.213,7.835l0,3.017c0,2.244 -0.192,4.14 -0.575,5.687c-0.383,1.548 -0.957,2.902 -1.723,4.063c-0.766,1.16 -1.703,2.185 -2.809,3.075c-1.107,0.89 -2.383,1.722 -3.83,2.496c3.064,1.315 5.319,3.269 6.766,5.861c1.447,2.592 2.171,6.054 2.171,10.387l0,4.643c0,7.273 -1.937,12.844 -5.809,16.713c-3.873,3.869 -10.065,5.803 -18.576,5.803l-17.746,0l0,-82.637Zm13.022,70.799l5.617,0c2.639,0 4.703,-0.349 6.192,-1.045c1.49,-0.696 2.618,-1.663 3.384,-2.901c0.766,-1.238 1.234,-2.709 1.404,-4.411c0.17,-1.702 0.255,-3.559 0.255,-5.571c0,-2.089 -0.127,-3.907 -0.383,-5.455c-0.255,-1.547 -0.787,-2.843 -1.596,-3.888c-0.808,-1.045 -1.936,-1.838 -3.383,-2.379c-1.447,-0.542 -3.362,-0.813 -5.745,-0.813l-5.745,0l0,26.463Zm0,-36.908l5.873,0c4.341,0 7.256,-0.987 8.745,-2.96c1.49,-1.973 2.234,-4.855 2.234,-8.647c0,-3.714 -0.829,-6.499 -2.489,-8.356c-1.66,-1.857 -4.66,-2.786 -9.001,-2.786l-5.362,0l0,22.749Z" style="fill:#ff582f;fill-rule:nonzero;"/><path d="M1072.25,268.623l7.405,0c2.298,0 4.128,-0.29 5.49,-0.87c1.362,-0.58 2.404,-1.412 3.128,-2.496c0.723,-1.083 1.212,-2.418 1.468,-4.004c0.255,-1.586 0.383,-3.424 0.383,-5.513c0,-2.089 -0.128,-3.926 -0.383,-5.513c-0.256,-1.586 -0.787,-2.94 -1.596,-4.062c-0.809,-1.122 -1.936,-1.954 -3.383,-2.495c-1.447,-0.542 -3.362,-0.813 -5.745,-0.813l-6.767,0l0,25.766Zm-13.022,-36.908l20.938,0c15.32,0 22.98,8.086 22.98,24.257c0,4.798 -0.83,8.918 -2.489,12.361c-1.66,3.443 -4.575,6.21 -8.746,8.299l14.044,37.72l-13.788,0l-12.129,-35.283l-7.788,0l0,35.283l-13.022,0l0,-82.637Z" style="fill:#ff582f;fill-rule:nonzero;"/><path d="M1147.57,231.715l38.811,0l0,11.142l-25.789,0l0,24.257l22.47,0l0,11.143l-22.47,0l0,24.257l25.789,0l0,11.838l-38.811,0l0,-82.637Z" style="fill:#ff582f;fill-rule:nonzero;"/><path d="M1284.69,303.21l23.491,-40.274c1.191,-2.012 1.872,-3.772 2.043,-5.281c0.17,-1.508 0.255,-3.385 0.255,-5.629c0,-1.006 -0.043,-2.069 -0.128,-3.191c-0.085,-1.122 -0.319,-2.109 -0.702,-2.96c-0.383,-0.851 -1,-1.567 -1.851,-2.147c-0.851,-0.581 -2.085,-0.871 -3.703,-0.871c-1.957,0 -3.51,0.503 -4.659,1.509c-1.149,1.006 -1.724,2.476 -1.724,4.411l0,6.731l-13.022,0l0,-6.499c0,-2.476 0.51,-4.798 1.532,-6.964c1.021,-2.167 2.404,-4.062 4.149,-5.687c1.745,-1.625 3.809,-2.921 6.192,-3.888c2.383,-0.967 4.937,-1.451 7.66,-1.451c3.405,0 6.32,0.561 8.745,1.683c2.426,1.122 4.426,2.65 6.001,4.584c1.575,1.935 2.724,4.14 3.447,6.616c0.723,2.476 1.085,5.107 1.085,7.892c0,2.012 -0.042,3.695 -0.127,5.049c-0.086,1.354 -0.256,2.65 -0.511,3.888c-0.255,1.238 -0.681,2.476 -1.277,3.714c-0.596,1.238 -1.404,2.747 -2.426,4.526l-19.15,33.543l23.491,0l0,11.838l-38.811,0l0,-11.142Z" style="fill:#ff582f;fill-rule:nonzero;"/><path d="M1366.14,248.777c0,-2.786 0.532,-5.262 1.596,-7.428c1.064,-2.167 2.489,-4.024 4.277,-5.572c1.787,-1.547 3.851,-2.727 6.191,-3.539c2.341,-0.813 4.788,-1.219 7.341,-1.219c2.554,0 5.001,0.406 7.341,1.219c2.341,0.812 4.405,1.992 6.192,3.539c1.788,1.548 3.213,3.405 4.277,5.572c1.064,2.166 1.596,4.642 1.596,7.428l0,48.514c0,2.785 -0.532,5.261 -1.596,7.428c-1.064,2.166 -2.489,4.023 -4.277,5.571c-1.787,1.547 -3.851,2.727 -6.192,3.54c-2.34,0.812 -4.787,1.218 -7.341,1.218c-2.553,0 -5,-0.406 -7.341,-1.218c-2.34,-0.813 -4.404,-1.993 -6.191,-3.54c-1.788,-1.548 -3.213,-3.405 -4.277,-5.571c-1.064,-2.167 -1.596,-4.643 -1.596,-7.428l0,-48.514Zm13.022,48.514c0,1.702 0.596,3.114 1.787,4.236c1.192,1.122 2.724,1.683 4.596,1.683c1.873,0 3.405,-0.561 4.597,-1.683c1.191,-1.122 1.787,-2.534 1.787,-4.236l0,-48.514c0,-1.703 -0.596,-3.115 -1.787,-4.237c-1.192,-1.122 -2.724,-1.683 -4.597,-1.683c-1.872,0 -3.404,0.561 -4.596,1.683c-1.191,1.122 -1.787,2.534 -1.787,4.237l0,48.514Z" style="fill:#ff582f;fill-rule:nonzero;"/><path d="M1463.05,244.25l-13.023,8.705l0,-12.535l13.023,-8.705l13.022,0l0,82.637l-13.022,0l0,-70.102Z" style="fill:#ff582f;fill-rule:nonzero;"/><path d="M1554.84,242.857l-14.299,0l0,9.517l-11.49,0l0,-20.659l38.811,0l0,11.839l-22.087,70.798l-13.788,0l22.853,-71.495Z" style="fill:#ff582f;fill-rule:nonzero;"/></g></svg>