<?xml version="1.0" encoding="UTF-8" standalone="no"?><!DOCTYPE svg PUBLIC "-//W3C//DTD SVG 1.1//EN" "http://www.w3.org/Graphics/SVG/1.1/DTD/svg11.dtd"><svg width="100%" height="100%" viewBox="0 0 232 230" version="1.1" xmlns="http://www.w3.org/2000/svg" xmlns:xlink="http://www.w3.org/1999/xlink" xml:space="preserve" xmlns:serif="http://www.serif.com/" style="fill-rule:evenodd;clip-rule:evenodd;stroke-linecap:round;stroke-linejoin:round;stroke-miterlimit:1.5;"><g><path d="M81.642,197.003l-0.726,0l-3.675,2.312l0.454,0.715l3.07,-1.953l0,9.962l0.877,0l0,-11.036Z" style="fill:#e93d43;fill-rule:nonzero;"/><path d="M86.77,207.889c3.101,0 4.326,-2.863 4.326,-5.577c0,-0.761 -0.091,-1.536 -0.257,-2.162c-0.424,-1.626 -1.604,-3.043 -3.57,-3.043c-2.057,0 -3.63,1.387 -3.63,3.445c0,2.014 1.346,3.4 3.418,3.4c1.18,0 2.209,-0.387 2.889,-1.073c0.106,-0.105 0.212,-0.239 0.318,-0.373c-0.046,2.222 -1.165,4.533 -3.494,4.533c-0.741,0 -1.513,-0.179 -2.223,-0.522l-0.363,0.746c0.831,0.433 1.724,0.626 2.586,0.626Zm0.499,-9.932c1.392,0 2.299,1.134 2.707,2.416c0.046,1.193 -0.499,1.745 -0.665,1.909c-0.499,0.522 -1.346,0.82 -2.254,0.82c-1.558,0 -2.556,-1.029 -2.556,-2.55c0,-1.551 1.21,-2.595 2.768,-2.595Z" style="fill:#e93d43;fill-rule:nonzero;"/><path d="M96.798,197.003l-0.726,0l-3.675,2.312l0.453,0.715l3.071,-1.953l0,9.962l0.877,0l0,-11.036Z" style="fill:#e93d43;fill-rule:nonzero;"/><path d="M102.455,208.098c1.754,0 3.675,-0.895 3.675,-2.908c0,-1.506 -1.028,-2.341 -2.238,-2.893c0.968,-0.522 1.754,-1.327 1.754,-2.52c0,-1.834 -1.527,-2.684 -3.176,-2.684c-1.573,0 -3.237,0.85 -3.237,2.639c0,1.253 0.726,1.939 1.694,2.401c-1.255,0.552 -2.132,1.491 -2.132,3.027c0,1.999 1.936,2.938 3.66,2.938Zm2.798,-2.908c0,1.462 -1.482,2.043 -2.798,2.043c-1.407,0 -2.798,-0.671 -2.798,-2.207c0,-1.327 1.255,-2.073 2.495,-2.401c1.407,0.343 3.101,0.925 3.101,2.565Zm-2.783,-7.247c1.195,0 2.314,0.566 2.314,1.834c0,1.133 -1.013,1.745 -2.057,2.058c-1.149,-0.254 -2.632,-0.805 -2.632,-2.103c0,-1.238 1.241,-1.789 2.375,-1.789Z" style="fill:#e93d43;fill-rule:nonzero;"/><rect x="111.167" y="203.788" width="5.808" height="0.85" style="fill:#e93d43;fill-rule:nonzero;"/><path d="M128.712,207.144l-5.248,0l3.206,-2.849c1.21,-1.073 2.027,-2.222 2.027,-3.951c0,-2.044 -1.376,-3.296 -3.418,-3.296c-1.134,0 -2.299,0.417 -3.343,1.208l0.53,0.686c0.862,-0.686 1.86,-1.029 2.813,-1.029c1.528,0 2.571,0.894 2.571,2.431c0,1.506 -0.665,2.371 -1.769,3.325l-4.115,3.639l0,0.686l6.746,0l0,-0.85Z" style="fill:#e93d43;fill-rule:nonzero;"/><path d="M133.855,208.113c3.176,0 3.887,-3.176 3.887,-5.607c0,-2.312 -0.711,-5.399 -3.721,-5.399c-3.025,0 -3.887,3.192 -3.887,5.533c0,2.252 0.787,5.473 3.721,5.473Zm0.166,-10.156c2.36,0 2.859,2.655 2.859,4.549c0,2.028 -0.514,4.742 -3.025,4.742c-2.269,0 -2.859,-2.774 -2.859,-4.608c0,-1.939 0.636,-4.683 3.025,-4.683Z" style="fill:#e93d43;fill-rule:nonzero;"/><path d="M143.444,197.003l-0.726,0l-3.675,2.312l0.454,0.715l3.07,-1.953l0,9.962l0.877,0l0,-11.036Z" style="fill:#e93d43;fill-rule:nonzero;"/><path d="M149.101,208.098c1.755,0 3.676,-0.895 3.676,-2.908c0,-1.506 -1.029,-2.341 -2.239,-2.893c0.968,-0.522 1.755,-1.327 1.755,-2.52c0,-1.834 -1.528,-2.684 -3.177,-2.684c-1.573,0 -3.236,0.85 -3.236,2.639c0,1.253 0.726,1.939 1.694,2.401c-1.256,0.552 -2.133,1.491 -2.133,3.027c0,1.999 1.936,2.938 3.66,2.938Zm2.798,-2.908c0,1.462 -1.482,2.043 -2.798,2.043c-1.406,0 -2.798,-0.671 -2.798,-2.207c0,-1.327 1.255,-2.073 2.496,-2.401c1.406,0.343 3.1,0.925 3.1,2.565Zm-2.783,-7.247c1.195,0 2.315,0.566 2.315,1.834c0,1.133 -1.014,1.745 -2.057,2.058c-1.15,-0.254 -2.632,-0.805 -2.632,-2.103c0,-1.238 1.24,-1.789 2.374,-1.789Z" style="fill:#e93d43;fill-rule:nonzero;"/></g><g><ellipse cx="119.135" cy="90.883" rx="54.651" ry="53.756" style="fill:#fff;"/><path d="M118.938,38.993l0,104.467c0,0 -49.231,1.093 -53.749,-52.233c-2.438,-28.772 53.749,-52.234 53.749,-52.234Z" style="fill:#33476b;"/><path d="M119.814,39.38l0,104.012c0,0 49.231,1.548 53.749,-51.779c2.438,-28.771 -53.749,-52.233 -53.749,-52.233Z" style="fill:#3c6a9e;"/><path d="M165.675,113.799c4.733,-8.358 7.225,-10.839 7.225,-20.489c0,-30.343 -24.165,-54.978 -53.928,-54.978c-29.764,0 -53.929,24.635 -53.929,54.978c0,9.65 2.492,12.131 7.225,20.489l93.407,0Z" style="fill:#ffc835;"/><path d="M162.936,46.397l1.815,18.703l20.982,0l-22.797,-18.703Z" style="fill:#6d2926;stroke:#fff;stroke-width:0.75px;"/><path d="M172.103,123.257l0,-35.831l-15.516,8.275c0,0 15.003,27.526 15.516,27.556Z" style="fill:#e93d43;stroke:#fff;stroke-width:0.75px;"/><path d="M175.79,90.742l0,5.367l-3.806,5.253l-10.83,-10.62l6.881,-3.334l7.755,3.334Z" style="fill:#6d2926;stroke:#fff;stroke-width:0.75px;"/><path d="M141.751,69.308c0,0 21.667,-23.157 21.667,-23.059c0,0.099 3.113,43.297 3.157,43.296c0.044,-0.001 -10.278,5.6 -10.278,5.6c0,0 -15.299,-26.393 -14.546,-25.837Z" style="fill:#e93d43;stroke:#fff;stroke-width:0.75px;"/><path d="M88.358,84.734l-22.684,40.646c0,0 13.214,13.912 13.135,13.986c-0.08,0.074 40.139,-23.133 40.139,-23.133l-30.59,-31.499Z" style="fill:#a73339;stroke:#fff;stroke-width:0.75px;"/><path d="M150.422,85.077l22.683,40.646c0,0 -13.213,13.911 -13.134,13.985c0.08,0.075 -40.139,-23.132 -40.139,-23.132l30.59,-31.499Z" style="fill:#a73339;stroke:#fff;stroke-width:0.75px;"/><path d="M83.928,46.932l14.151,21.218l-16.7,28.885l2.549,-50.103Z" style="fill:#6d2926;stroke:#fff;stroke-width:0.75px;"/><path d="M119.458,29.716c0.008,-0.144 0,87.164 0,87.164l-30.871,-32.126c0,0 30.832,-54.328 30.871,-55.038Z" style="fill:#e93d43;stroke:#ebebeb;stroke-width:0.75px;"/><path d="M119.673,29.707c-0.008,-0.144 0,87.164 0,87.164l30.871,-32.126c0,0 -30.832,-54.328 -30.871,-55.038Z" style="fill:#e93d43;stroke:#ebebeb;stroke-width:0.75px;"/><path d="M48.979,63.091l7.455,0l27.471,29.633l-18.41,32.369l-16.516,-62.002Z" style="fill:#e93d43;stroke:#fff;stroke-width:0.75px;"/><path d="M165.948,73.573l15.461,0l18.206,19.095c0,0 -4.064,8.956 -3.942,8.905c0.123,-0.051 -7.082,-8.905 -7.082,-8.905l-21.643,-3.289l-1,-15.806Z" style="fill:#a73339;stroke:#fff;stroke-width:0.75px;"/><path d="M190.279,82.409l-6.063,10.239l15.57,0l-9.507,-10.239Z" style="fill:#e93d43;stroke:#fff;stroke-width:0.75px;"/><path d="M33.605,76.102l17.706,-4.865l0,-7.938l-4.439,0l-13.267,12.803Z" style="fill:#6d2926;stroke:#fff;stroke-width:0.75px;"/></g><g><path d="M74.173,147.778l6.395,0l0,11.805c0,2.478 -0.209,4.364 -0.627,5.657c-0.418,1.294 -1.259,2.39 -2.521,3.288c-1.263,0.899 -2.881,1.348 -4.853,1.348c-2.084,0 -3.699,-0.296 -4.845,-0.888c-1.145,-0.593 -2.03,-1.459 -2.655,-2.6c-0.624,-1.14 -0.993,-2.55 -1.106,-4.228l6.099,-0.874c0.01,0.958 0.089,1.669 0.24,2.133c0.15,0.464 0.403,0.839 0.76,1.125c0.244,0.188 0.592,0.282 1.042,0.282c0.714,0 1.238,-0.279 1.571,-0.837c0.333,-0.558 0.5,-1.499 0.5,-2.822l0,-13.389Z" style="fill:#1a1a1a;fill-rule:nonzero;"/><path d="M96.779,165.907l-7.268,0l-1,3.584l-6.521,0l7.761,-21.713l6.958,0l7.761,21.713l-6.677,0l-1.014,-3.584Zm-1.338,-4.695l-2.282,-7.806l-2.267,7.806l4.549,0Z" style="fill:#1a1a1a;fill-rule:nonzero;"/><path d="M106.484,147.778l10.606,0c2.31,0 4.04,0.578 5.19,1.733c1.15,1.155 1.725,2.799 1.725,4.932c0,2.192 -0.626,3.905 -1.88,5.14c-1.254,1.234 -3.167,1.851 -5.74,1.851l-3.493,0l0,8.057l-6.408,0l0,-21.713Zm6.408,9.257l1.564,0c1.23,0 2.094,-0.225 2.591,-0.674c0.498,-0.449 0.747,-1.024 0.747,-1.725c0,-0.682 -0.216,-1.259 -0.648,-1.733c-0.432,-0.474 -1.244,-0.711 -2.437,-0.711l-1.817,0l0,4.843Z" style="fill:#1a1a1a;fill-rule:nonzero;"/><path d="M126.541,158.649c0,-3.544 0.939,-6.304 2.817,-8.279c1.878,-1.975 4.493,-2.962 7.845,-2.962c3.437,0 6.085,0.97 7.944,2.91c1.859,1.94 2.789,4.658 2.789,8.154c0,2.537 -0.407,4.618 -1.219,6.243c-0.812,1.624 -1.986,2.888 -3.521,3.791c-1.535,0.904 -3.448,1.355 -5.74,1.355c-2.328,0 -4.256,-0.39 -5.781,-1.17c-1.526,-0.78 -2.763,-2.014 -3.712,-3.702c-0.948,-1.689 -1.422,-3.802 -1.422,-6.34Zm6.38,0.03c0,2.192 0.387,3.767 1.162,4.725c0.775,0.958 1.829,1.436 3.162,1.436c1.371,0 2.432,-0.469 3.183,-1.407c0.752,-0.938 1.127,-2.621 1.127,-5.05c0,-2.044 -0.392,-3.538 -1.176,-4.48c-0.784,-0.943 -1.847,-1.415 -3.19,-1.415c-1.287,0 -2.319,0.479 -3.099,1.437c-0.779,0.958 -1.169,2.542 -1.169,4.754Zm4.183,-16.648l4.93,0l-4.549,4.429l-2.747,0l2.366,-4.429Z" style="fill:#1a1a1a;fill-rule:nonzero;"/><path d="M151.415,147.778l5.957,0l7.775,12.012l0,-12.012l6.015,0l0,21.713l-6.015,0l-7.732,-11.923l0,11.923l-6,0l0,-21.713Z" style="fill:#1a1a1a;fill-rule:nonzero;"/></g><g><path d="M40.643,171.581l16.559,0l0,4.807l-10.367,0l0,3.579l9.617,0l0,4.592l-9.617,0l0,4.438l10.667,0l0,5.099l-16.859,0l0,-22.515Z" style="fill-rule:nonzero;"/><path d="M74.144,184.897l5.415,1.843c-0.364,1.71 -0.937,3.138 -1.719,4.285c-0.782,1.146 -1.753,2.011 -2.912,2.595c-1.16,0.584 -2.635,0.875 -4.426,0.875c-2.174,0 -3.949,-0.355 -5.327,-1.067c-1.378,-0.712 -2.567,-1.963 -3.567,-3.755c-1,-1.792 -1.5,-4.085 -1.5,-6.88c0,-3.727 0.879,-6.591 2.639,-8.593c1.76,-2.002 4.249,-3.003 7.468,-3.003c2.519,0 4.499,0.574 5.94,1.721c1.442,1.146 2.513,2.907 3.213,5.283l-5.456,1.367c-0.191,-0.686 -0.391,-1.188 -0.601,-1.506c-0.345,-0.532 -0.768,-0.941 -1.268,-1.228c-0.5,-0.287 -1.06,-0.43 -1.678,-0.43c-1.4,0 -2.473,0.635 -3.219,1.904c-0.564,0.942 -0.846,2.422 -0.846,4.439c0,2.498 0.337,4.21 1.01,5.137c0.673,0.926 1.618,1.39 2.837,1.39c1.182,0 2.075,-0.374 2.68,-1.121c0.605,-0.748 1.044,-1.833 1.317,-3.256Z" style="fill-rule:nonzero;"/><path d="M95.573,171.581l6.165,0l0,13.423c0,1.331 -0.184,2.588 -0.552,3.771c-0.369,1.182 -0.946,2.216 -1.733,3.102c-0.786,0.886 -1.612,1.508 -2.475,1.866c-1.201,0.502 -2.642,0.752 -4.324,0.752c-0.974,0 -2.035,-0.076 -3.186,-0.23c-1.15,-0.154 -2.112,-0.458 -2.884,-0.914c-0.773,-0.455 -1.48,-1.103 -2.122,-1.943c-0.641,-0.839 -1.079,-1.704 -1.316,-2.595c-0.382,-1.433 -0.573,-2.703 -0.573,-3.809l0,-13.423l6.166,0l0,13.746c0,1.228 0.302,2.188 0.907,2.879c0.605,0.691 1.443,1.037 2.516,1.037c1.064,0 1.899,-0.34 2.503,-1.021c0.605,-0.681 0.908,-1.646 0.908,-2.895l0,-13.746Z" style="fill-rule:nonzero;"/><path d="M117.179,190.379l-7.039,0l-0.968,3.717l-6.315,0l7.515,-22.515l6.739,0l7.516,22.515l-6.466,0l-0.982,-3.717Zm-1.296,-4.868l-2.21,-8.094l-2.196,8.094l4.406,0Z" style="fill-rule:nonzero;"/><path d="M126.686,171.581l9.18,0c1.81,0 3.272,0.277 4.386,0.83c1.114,0.553 2.034,1.346 2.762,2.38c0.727,1.034 1.255,2.237 1.582,3.609c0.327,1.372 0.491,2.826 0.491,4.362c0,2.406 -0.243,4.272 -0.73,5.598c-0.486,1.326 -1.161,2.437 -2.025,3.333c-0.864,0.895 -1.792,1.492 -2.783,1.789c-1.355,0.409 -2.582,0.614 -3.683,0.614l-9.18,0l0,-22.515Zm6.179,5.099l0,12.302l1.514,0c1.292,0 2.21,-0.161 2.756,-0.484c0.545,-0.322 0.973,-0.885 1.282,-1.689c0.309,-0.804 0.464,-2.107 0.464,-3.909c0,-2.385 -0.346,-4.018 -1.037,-4.899c-0.691,-0.88 -1.837,-1.321 -3.437,-1.321l-1.542,0Z" style="fill-rule:nonzero;"/><path d="M147.556,182.854c0,-3.676 0.909,-6.537 2.728,-8.585c1.819,-2.048 4.351,-3.072 7.598,-3.072c3.328,0 5.892,1.006 7.693,3.018c1.801,2.012 2.701,4.83 2.701,8.455c0,2.631 -0.394,4.789 -1.18,6.473c-0.787,1.684 -1.923,2.995 -3.41,3.932c-1.487,0.937 -3.34,1.405 -5.559,1.405c-2.255,0 -4.121,-0.404 -5.599,-1.213c-1.478,-0.809 -2.676,-2.089 -3.594,-3.84c-0.919,-1.75 -1.378,-3.942 -1.378,-6.573Zm6.179,0.031c0,2.273 0.375,3.906 1.125,4.899c0.751,0.993 1.771,1.49 3.063,1.49c1.327,0 2.355,-0.487 3.082,-1.459c0.728,-0.973 1.092,-2.719 1.092,-5.237c0,-2.12 -0.38,-3.668 -1.139,-4.646c-0.76,-0.978 -1.789,-1.467 -3.09,-1.467c-1.246,0 -2.246,0.497 -3.001,1.49c-0.754,0.993 -1.132,2.636 -1.132,4.93Z" style="fill-rule:nonzero;"/><path d="M171.686,194.096l0,-22.515l10.298,0c1.91,0 3.37,0.185 4.379,0.553c1.009,0.369 1.823,1.052 2.442,2.051c0.618,0.998 0.927,2.214 0.927,3.647c0,1.249 -0.236,2.327 -0.709,3.233c-0.473,0.906 -1.123,1.641 -1.951,2.204c-0.527,0.358 -1.25,0.655 -2.169,0.891c0.737,0.276 1.274,0.552 1.61,0.829c0.227,0.184 0.557,0.578 0.989,1.182c0.432,0.605 0.721,1.07 0.866,1.398l2.987,6.527l-6.984,0l-3.301,-6.88c-0.418,-0.891 -0.791,-1.469 -1.118,-1.736c-0.446,-0.348 -0.95,-0.522 -1.514,-0.522l-0.546,0l0,9.138l-6.206,0Zm6.206,-13.392l2.606,0c0.281,0 0.827,-0.102 1.636,-0.307c0.41,-0.092 0.744,-0.328 1.003,-0.707c0.259,-0.378 0.389,-0.814 0.389,-1.305c0,-0.727 -0.205,-1.285 -0.614,-1.674c-0.409,-0.389 -1.178,-0.584 -2.305,-0.584l-2.715,0l0,4.577Z" style="fill-rule:nonzero;"/></g></svg>