<?xml version="1.0" encoding="UTF-8" standalone="no"?><!DOCTYPE svg PUBLIC "-//W3C//DTD SVG 1.1//EN" "http://www.w3.org/Graphics/SVG/1.1/DTD/svg11.dtd"><svg width="100%" height="100%" viewBox="0 0 1000 1000" version="1.1" xmlns="http://www.w3.org/2000/svg" xmlns:xlink="http://www.w3.org/1999/xlink" xml:space="preserve" xmlns:serif="http://www.serif.com/" style="fill-rule:evenodd;clip-rule:evenodd;stroke-linejoin:round;stroke-miterlimit:1.41421;"><path d="M256.744,668.518l-0.384,-7.941c-0.083,-1.946 -0.029,-4.154 0,-6.021l-0.083,0c-0.983,1.867 -2.075,4.117 -3.175,6.021l-4.629,7.941l8.271,0Zm-10.429,4.446l-5.259,9.121l-6.054,0l19.046,-32.212l7.5,0l1.746,32.212l-6.317,0l-0.442,-9.121l-10.22,0Z" style="fill:#11489f;fill-rule:nonzero;"/><path d="M275.547,648.161l5.916,0l-9.196,33.925l-5.933,0l9.213,-33.925Z" style="fill:#11489f;fill-rule:nonzero;"/><path d="M294.98,681.381c-1.4,0.558 -4.02,1.233 -6.941,1.233c-7.263,0 -10.725,-4.683 -8.767,-11.896c1.892,-6.975 8.15,-12.425 16.317,-12.425c2.146,0 4.216,0.483 5.383,1.1l-2.233,4.383c-0.854,-0.42 -2.1,-0.9 -4.204,-0.9c-4.484,0 -8.059,3.3 -9.175,7.555c-1.28,4.779 1.083,7.5 5.104,7.5c2.05,0 3.583,-0.417 4.866,-0.9l-0.35,4.35Z" style="fill:#11489f;fill-rule:nonzero;"/><path d="M313.584,670.72c-4.134,-0.092 -8.354,0.808 -9.304,4.341c-0.625,2.305 0.566,3.338 2.437,3.338c2.342,0 4.483,-1.521 5.458,-3.188c0.255,-0.425 0.43,-0.916 0.546,-1.291l0.863,-3.2Zm4.162,5.779c-0.579,2.104 -1.021,4.167 -1.179,5.587l-5.312,0l0.329,-2.57l-0.142,0c-1.937,1.808 -4.717,3.095 -7.725,3.095c-4.692,0 -6.392,-3.383 -5.45,-6.929c1.604,-5.866 7.613,-8.837 16.204,-8.796l0.117,-0.366c0.412,-1.542 0.471,-4.071 -3.638,-4.071c-2.291,0 -4.883,0.721 -6.737,1.725l-0.1,-3.825c2.008,-1.05 5.296,-2.054 8.967,-2.054c7.458,0 8.325,4.737 6.954,9.791l-2.288,8.413Z" style="fill:#11489f;fill-rule:nonzero;"/><path d="M330.682,648.161l5.925,0l-9.192,33.925l-5.929,0l9.196,-33.925Z" style="fill:#11489f;fill-rule:nonzero;"/><path d="M352.065,668.518c0.137,-0.483 0.25,-1.05 0.275,-1.525c0.095,-2.304 -1.255,-4.158 -3.938,-4.158c-3.775,0 -6.783,3.342 -7.975,7.692c-1.142,4.258 0.125,7.362 3.846,7.362c2.396,0 4.933,-1.629 6.192,-4.162c0.291,-0.529 0.487,-1.104 0.67,-1.713l0.93,-3.496Zm11.4,-20.358l-7.417,27.383c-0.65,2.388 -1.258,4.967 -1.596,6.542l-5.246,0l0.754,-3.683l-0.091,0c-2.079,2.587 -5.342,4.212 -8.742,4.212c-5.537,0 -8.654,-4.725 -6.721,-11.896c2.071,-7.791 8.209,-12.425 13.792,-12.425c3.212,0 5.133,1.338 5.712,3.055l0.113,0l3.567,-13.188l5.875,0Z" style="fill:#11489f;fill-rule:nonzero;"/><path d="M378.794,648.731l-7.796,7.071l-4.067,0l6.084,-7.071l5.779,0Zm-19.175,33.354l6.312,-23.267l5.929,0l-6.312,23.267l-5.929,0Z" style="fill:#11489f;fill-rule:nonzero;"/><path d="M386.313,670.72c-4.121,-0.092 -8.358,0.808 -9.3,4.341c-0.637,2.305 0.567,3.338 2.434,3.338c2.341,0 4.479,-1.521 5.45,-3.188c0.27,-0.425 0.45,-0.916 0.533,-1.291l0.883,-3.2Zm4.167,5.779c-0.571,2.104 -1.029,4.167 -1.179,5.587l-5.313,0l0.313,-2.57l-0.125,0c-1.934,1.808 -4.729,3.095 -7.734,3.095c-4.687,0 -6.391,-3.383 -5.441,-6.929c1.596,-5.866 7.604,-8.837 16.2,-8.796l0.104,-0.366c0.421,-1.542 0.483,-4.071 -3.629,-4.071c-2.3,0 -4.884,0.721 -6.721,1.725l-0.121,-3.825c2.004,-1.05 5.283,-2.054 8.967,-2.054c7.458,0 8.329,4.737 6.954,9.791l-2.275,8.413Z" style="fill:#11489f;fill-rule:nonzero;"/><path d="M422.41,668.518c0.137,-0.483 0.233,-1.05 0.275,-1.525c0.087,-2.304 -1.259,-4.158 -3.938,-4.158c-3.779,0 -6.783,3.342 -7.967,7.692c-1.158,4.258 0.109,7.362 3.842,7.362c2.383,0 4.925,-1.629 6.171,-4.162c0.283,-0.529 0.504,-1.104 0.671,-1.713l0.946,-3.496Zm11.391,-20.358l-7.408,27.383c-0.642,2.388 -1.263,4.967 -1.588,6.542l-5.258,0l0.75,-3.683l-0.083,0c-2.088,2.587 -5.354,4.212 -8.738,4.212c-5.55,0 -8.658,-4.725 -6.733,-11.896c2.087,-7.791 8.208,-12.425 13.792,-12.425c3.212,0 5.141,1.338 5.72,3.055l0.096,0l3.563,-13.188l5.887,0Z" style="fill:#11489f;fill-rule:nonzero;"/><path d="M448.158,667.998c0.642,-2.155 0.642,-5.696 -3.275,-5.696c-3.629,0 -6.058,3.3 -6.937,5.696l10.212,0Zm-11.333,4.104c-1.004,4.2 1.812,6.012 5.537,6.012c2.734,0 4.788,-0.371 6.738,-1.041l-0.242,4.066c-2.229,0.8 -5.179,1.475 -8.521,1.475c-7.566,0 -10.741,-4.683 -8.8,-11.812c1.755,-6.438 7.317,-12.509 14.755,-12.509c7.616,0 8.362,6.213 6.975,11.33c-0.296,1.095 -0.63,1.945 -0.859,2.479l-15.583,0Z" style="fill:#11489f;fill-rule:nonzero;"/><path d="M489.048,680.612c-2.271,0.771 -6.571,1.816 -10.871,1.816c-5.446,0 -9.179,-1.387 -11.442,-4.316c-2.133,-2.717 -2.654,-6.967 -1.283,-11.842c2.746,-10.162 11.808,-16.717 22.471,-16.717c3.954,0 6.837,0.805 8.125,1.525l-2.575,4.725c-1.563,-0.762 -3.542,-1.391 -6.938,-1.391c-6.879,0 -12.804,4.083 -14.85,11.575c-1.97,7.312 1.346,11.662 8.03,11.662c2.1,0 3.75,-0.283 4.608,-0.675l2.204,-8.016l-5.704,0l1.271,-4.646l11.371,0l-4.417,16.3Z" style="fill:#11489f;fill-rule:nonzero;"/><path d="M516.335,675.114c-0.746,2.775 -1.271,5.071 -1.696,6.971l-5.171,0l0.675,-3.537l-0.088,0c-1.454,1.679 -4.404,4.066 -8.558,4.066c-4.275,0 -7.437,-2.529 -5.387,-10.125l3.708,-13.671l5.887,0l-3.433,12.667c-1.062,3.871 -0.483,6.363 2.621,6.363c2.333,0 4.325,-1.68 5.337,-3.159c0.346,-0.521 0.646,-1.15 0.842,-1.825l3.796,-14.046l5.887,0l-4.42,16.296Z" style="fill:#11489f;fill-rule:nonzero;"/><path d="M535.264,670.72c-4.142,-0.092 -8.346,0.808 -9.313,4.341c-0.629,2.305 0.567,3.338 2.446,3.338c2.333,0 4.479,-1.521 5.446,-3.188c0.275,-0.425 0.442,-0.916 0.546,-1.291l0.875,-3.2Zm4.154,5.779c-0.55,2.104 -1.029,4.167 -1.175,5.587l-5.288,0l0.313,-2.57l-0.158,0c-1.917,1.808 -4.713,3.095 -7.721,3.095c-4.684,0 -6.379,-3.383 -5.429,-6.929c1.587,-5.866 7.595,-8.837 16.183,-8.796l0.117,-0.366c0.412,-1.542 0.475,-4.071 -3.638,-4.071c-2.304,0 -4.879,0.721 -6.729,1.725l-0.108,-3.825c2.004,-1.05 5.291,-2.054 8.975,-2.054c7.458,0 8.325,4.737 6.954,9.791l-2.296,8.413Z" style="fill:#11489f;fill-rule:nonzero;"/><path d="M552.679,658.82l0.804,12.463c0.121,1.437 0.121,3.208 0.067,4.545l0.154,0c0.733,-1.337 1.654,-3.054 2.467,-4.579l7.016,-12.429l6.309,0l-10.125,15.871c-5.567,8.696 -8.754,12.554 -12.179,14.95c-2.863,2.058 -5.459,2.817 -6.988,3l0.008,-4.971c1.071,-0.217 2.467,-0.75 3.888,-1.612c1.279,-0.709 2.95,-2.096 4.192,-3.675c0.354,-0.442 0.583,-0.775 0.67,-1.059c0.071,-0.246 0.117,-0.571 -0.016,-1.141l-2.725,-21.363l6.458,0Z" style="fill:#11489f;fill-rule:nonzero;"/><path d="M580.743,670.72c-4.121,-0.092 -8.342,0.808 -9.292,4.341c-0.621,2.305 0.575,3.338 2.442,3.338c2.325,0 4.467,-1.521 5.45,-3.188c0.258,-0.425 0.442,-0.916 0.533,-1.291l0.867,-3.2Zm4.183,5.779c-0.579,2.104 -1.046,4.167 -1.191,5.587l-5.296,0l0.304,-2.57l-0.129,0c-1.942,1.808 -4.721,3.095 -7.734,3.095c-4.683,0 -6.4,-3.383 -5.433,-6.929c1.596,-5.866 7.596,-8.837 16.196,-8.796l0.108,-0.366c0.425,-1.542 0.475,-4.071 -3.637,-4.071c-2.288,0 -4.875,0.721 -6.721,1.725l-0.117,-3.825c2.013,-1.05 5.296,-2.054 8.959,-2.054c7.466,0 8.333,4.737 6.958,9.791l-2.267,8.413Z" style="fill:#11489f;fill-rule:nonzero;"/><path d="M607.944,668.417c0.117,-0.475 0.221,-0.988 0.242,-1.425c0.075,-2.2 -1.288,-4.063 -3.904,-4.063c-3.788,0 -6.813,3.2 -7.988,7.596c-1.158,4.258 0.021,7.446 3.738,7.446c2.395,0 4.775,-1.517 6.075,-3.858c0.345,-0.575 0.629,-1.25 0.791,-1.817l1.046,-3.879Zm-2.842,10.462l-0.091,0c-2.009,2.263 -4.825,3.734 -8.234,3.734c-5.208,0 -8.52,-4.538 -6.541,-11.813c2.3,-8.5 8.837,-12.508 13.804,-12.508c3.267,0 5.183,1.391 5.825,3.583l0.075,0.054l1,-3.108l5.675,0c-0.667,2.096 -1.367,4.292 -2.025,6.737l-7.042,25.996l-5.887,0l3.441,-12.675Z" style="fill:#11489f;fill-rule:nonzero;"/><path d="M638.189,675.114c-0.746,2.775 -1.271,5.071 -1.704,6.971l-5.154,0l0.666,-3.537l-0.095,0c-1.455,1.679 -4.405,4.066 -8.555,4.066c-4.25,0 -7.429,-2.529 -5.375,-10.125l3.696,-13.671l5.892,0l-3.433,12.667c-1.059,3.871 -0.484,6.363 2.62,6.363c2.342,0 4.33,-1.68 5.35,-3.159c0.325,-0.521 0.642,-1.15 0.821,-1.825l3.825,-14.046l5.867,0l-4.421,16.296Z" style="fill:#11489f;fill-rule:nonzero;"/><path d="M656.02,652.32c-0.459,1.771 -2.142,3.154 -4.184,3.154c-1.962,0 -2.875,-1.383 -2.416,-3.154c0.504,-1.821 2.22,-3.2 4.191,-3.2c1.996,0 2.863,1.379 2.409,3.2m-14.321,29.766l6.308,-23.266l5.921,0l-6.304,23.266l-5.925,0Z" style="fill:#11489f;fill-rule:nonzero;"/><path d="M662.176,648.161l5.921,0l-9.187,33.925l-5.925,0l9.191,-33.925Z" style="fill:#11489f;fill-rule:nonzero;"/><path d="M734.328,399.922c1.717,0.65 3.213,-0.321 3.3,-2.154l1.729,-32.75c0.1,-1.838 -0.683,-2.109 -1.745,-0.6l-18.446,26.308c-1.05,1.496 -0.513,3.263 1.204,3.913l13.958,5.283Z" style="fill:#00b6ed;fill-rule:nonzero;"/><path d="M745.359,410.506c-1.746,-0.575 -3.283,0.454 -3.417,2.287l-0.55,7.417c-0.141,1.829 1.225,3.116 3.042,2.854l24.063,-3.429c1.812,-0.254 1.879,-0.938 0.129,-1.513l-23.267,-7.616Z" style="fill:#7acaf1;fill-rule:nonzero;"/><path d="M702.313,399.244c0.642,-1.72 -0.225,-3.679 -1.929,-4.362l-31.046,-12.392c-1.712,-0.683 -2.012,-0.2 -0.696,1.067l26.717,25.492c1.325,1.266 2.942,0.895 3.583,-0.821l3.371,-8.984Z" style="fill:#7acaf1;fill-rule:nonzero;"/><path d="M696.096,427.75c-1.142,-1.438 -3.096,-1.517 -4.338,-0.163l-30.646,33.15c-1.254,1.35 -0.92,1.792 0.73,0.992l41.133,-20c1.646,-0.796 2.062,-2.633 0.925,-4.075l-7.804,-9.904Z" style="fill:#11489f;fill-rule:nonzero;"/><path d="M724.099,442.107c-1.617,0.879 -2.379,2.996 -1.7,4.709l13.358,33.945c0.671,1.713 1.204,1.613 1.192,-0.229l-0.413,-41.866c-0.025,-1.842 -1.362,-2.621 -2.975,-1.738l-9.462,5.179Z" style="fill:#00b6ed;fill-rule:nonzero;"/><path d="M534.865,608.351c-0.137,-8.25 0.525,-15.921 1.984,-22.992c1.096,-5.304 3.087,-12.016 5.966,-20.158c9.98,-29.971 23.675,-63.617 41.113,-100.933l1.933,-4.213c0.225,-0.254 0.209,-0.504 -0.054,-0.746c-0.279,-0.237 -0.429,-0.608 -0.467,-1.112l-9.637,1.929c-0.742,0.033 -2.104,0.342 -4.071,0.925c-1.492,0.067 -2.904,-0.304 -4.221,-1.133c-1.316,-0.813 -2.154,-1.838 -2.491,-3.079l-0.496,-1.484c-0.192,-2.487 0.912,-4.412 3.316,-5.775c1.671,-1.071 4.617,-1.95 8.83,-2.637c2.687,-0.867 7.016,-1.679 12.979,-2.446c3.437,-0.896 5.696,-2.5 6.779,-4.796c2.729,-6.879 5.917,-12.65 9.575,-17.321c2.267,-3.104 3.758,-4.916 4.467,-5.45c2.133,-1.6 4.195,-2.433 6.2,-2.521c1.745,-0.079 3.154,0.234 4.216,0.942c3.634,1.596 5.629,4.633 5.975,9.125c-0.279,3.017 -0.604,5.283 -0.983,6.8c-0.829,2.288 -1.508,4.829 -2.042,7.604c0.788,0.471 1.617,0.675 2.488,0.638c0.875,-0.038 1.437,-0.063 1.687,-0.075c6.963,-0.8 12.421,-1.538 16.388,-2.217c2.258,-0.096 3.891,0.088 4.929,0.538c3.025,0.12 4.654,1.808 4.908,5.05l0.059,0.741c0.158,2 -1.096,3.684 -3.755,5.046c-0.958,0.55 -2.687,0.871 -5.183,0.979c-7.679,1.338 -15.375,2.425 -23.079,3.259c-2.713,0.625 -4.5,1.829 -5.367,3.608c-7.187,17.346 -12.704,30.358 -16.55,39.029c-1.696,4.083 -5.187,12.429 -10.475,25.054c-5.304,12.625 -9.904,24.409 -13.833,35.342c-2.067,5.596 -4.917,14.233 -8.525,25.904l-5.367,13.375c-3.787,9.425 -6.729,15.938 -8.837,19.533c-2.109,3.596 -4.654,5.467 -7.654,5.596c-1.005,0.046 -2.284,-0.283 -3.838,-0.958c-4.692,-2.3 -6.983,-5.963 -6.867,-10.971" style="fill:#11489f;fill-rule:nonzero;"/><path d="M647.638,588.041l-0.117,-1.5c-0.196,-2.492 0.034,-6.009 0.688,-10.542c2.862,-14.896 7.625,-31.125 14.296,-48.688l1.816,-5.712c-1.208,0.554 -2.362,1.858 -3.454,3.904c-6.825,9.067 -13.929,19.379 -21.317,30.971c-3.808,5.925 -7.45,10.596 -10.958,13.996c-3.004,3.387 -5.817,5.887 -8.45,7.504c-2.883,1.625 -5.575,2.5 -8.079,2.608c-3.746,0.163 -7.096,-0.946 -10.033,-3.321c-2.95,-2.366 -4.959,-5.662 -6.034,-9.879c-0.733,-2.966 -1.162,-5.325 -1.296,-7.071c-0.254,-3.245 -0.125,-6.383 0.396,-9.412c2.279,-22.371 9.688,-43.35 22.229,-62.925c3.138,-4.892 6.713,-8.8 10.763,-11.733c2.587,-2.117 5.387,-3.242 8.387,-3.371c3.538,0.35 6.171,1.862 7.88,4.537c0.829,0.967 1.295,2.2 1.412,3.692c0.117,1.496 -0.387,3.15 -1.5,4.946c-6.767,9.812 -12.158,20.379 -16.171,31.687c-4.021,11.321 -7.483,24.167 -10.387,38.563c-0.588,2.037 -0.609,3.412 -0.046,4.137c1.454,-0.562 3.087,-2.133 4.896,-4.721c9.204,-10.662 19.941,-24.395 32.183,-41.204c5.879,-8.271 10.425,-14.354 13.642,-18.246l22.725,-32.162c2.458,-3.858 5.496,-5.117 9.121,-3.771c3.841,1.083 5.695,4.008 5.566,8.767c-0.112,1.758 -0.741,5.046 -1.875,9.846c-5.6,21.775 -11.296,42.045 -17.129,60.829c-4.433,13.962 -8.167,27.391 -11.171,40.287l-2.687,9.134c-0.829,2.287 -2.184,4.225 -4.067,5.808c-2.329,2.354 -4.992,3.596 -7.983,3.729c-2.009,0.083 -3.521,-0.096 -4.563,-0.554c-4.658,-1.8 -7.554,-5.183 -8.683,-10.133" style="fill:#11489f;fill-rule:nonzero;"/><path d="M281.496,489.33l0,9.459l32.909,-0.005c1.245,0 2.354,0.484 3.325,1.455c0.975,0.979 1.466,2.2 1.466,3.675l0,10.154c0,1.325 -0.491,2.512 -1.458,3.562c-0.971,1.05 -2.088,1.575 -3.325,1.575l-32.917,0.004l0,10.388l34.546,-0.004c1.325,0 2.475,0.487 3.442,1.462c0.975,0.971 1.466,2.234 1.466,3.788l0,10.041c0,1.4 -0.483,2.625 -1.458,3.675c-0.975,1.055 -2.125,1.58 -3.442,1.58l-55.095,0.008c-1.321,0 -2.467,-0.529 -3.446,-1.579c-0.967,-1.05 -1.454,-2.275 -1.454,-3.675l0,-0.354l0,-9.688l0,-50.658l0,-10.15c0,-1.479 0.479,-2.704 1.454,-3.679c0.975,-0.971 2.112,-1.459 3.437,-1.459l55.088,-0.004c1.329,0 2.479,0.483 3.45,1.458c0.975,0.971 1.458,2.2 1.458,3.675l0,10.159c0,1.325 -0.504,2.504 -1.512,3.554c-1.013,1.054 -2.146,1.583 -3.388,1.583l-34.546,0Z" style="fill:#00b6ed;fill-rule:nonzero;"/><path d="M358.571,506.591c3.584,0 6.867,-0.637 9.867,-1.921c2.996,-1.287 4.487,-4.258 4.487,-8.929c0,-3.267 -0.987,-5.754 -2.97,-7.467c-1.984,-1.712 -4.85,-2.57 -8.575,-2.57l-9.575,0l0,20.895l0.812,-0.008l5.954,0Zm17.4,36.538c-0.858,-5.292 -2.625,-8.967 -5.312,-11.034c-2.688,-2.058 -6.013,-3.287 -9.979,-3.675c-0.542,-0.075 -1.209,-0.112 -1.988,-0.112c-0.779,0 -1.442,0.075 -1.983,0.237l-0.117,0.113l0,14.941c0,1.475 -0.137,2.663 -0.408,3.559c-0.275,0.896 -1.009,1.633 -2.213,2.216c-1.208,0.58 -3.091,0.875 -5.658,0.875l-10.858,0.005c-2.409,0.075 -4.321,-0.367 -5.721,-1.346c-1.4,-0.967 -2.1,-2.313 -2.1,-4.029l0.108,-31.509l0,-40.621c0,-1.162 0.588,-2.195 1.746,-3.091c1.167,-0.892 2.575,-1.342 4.208,-1.342l26.496,-0.004c11.675,-0.079 20.308,1.887 25.908,5.896c5.605,4 8.642,10.287 9.109,18.846c0.075,0.775 0.096,1.383 0.05,1.808c-0.038,0.429 -0.05,0.796 -0.05,1.108l0,2.45c-0.388,4.517 -1.575,8.096 -3.563,10.738c-1.987,2.65 -4.608,5.1 -7.871,7.358l0.117,0.113c3.808,1.87 6.846,4.554 9.104,8.054c2.25,3.504 3.792,7.162 4.609,10.975c0.816,3.812 1.145,7.233 0.987,10.266c0,1.325 -0.458,2.38 -1.4,3.155c-0.929,0.775 -2.258,1.166 -3.958,1.166l-14.242,0.004c-2.025,0 -3.325,-0.512 -3.912,-1.52c-0.588,-1.009 -0.896,-2.075 -0.934,-3.213c-0.046,-1.121 -0.104,-1.925 -0.175,-2.387" style="fill:#00b6ed;fill-rule:nonzero;"/><path d="M432.77,489.314l0,9.458l32.916,0c1.242,-0.008 2.354,0.479 3.325,1.454c0.975,0.971 1.459,2.196 1.459,3.671l0,10.154c0,1.33 -0.484,2.513 -1.459,3.563c-0.971,1.05 -2.075,1.575 -3.325,1.575l-32.908,0.008l0,10.388l34.537,-0.004c1.33,0 2.48,0.483 3.45,1.458c0.975,0.971 1.459,2.237 1.459,3.796l0,10.037c0,1.4 -0.484,2.625 -1.459,3.675c-0.97,1.046 -2.12,1.575 -3.441,1.575l-55.088,0.004c-1.325,0 -2.471,-0.525 -3.45,-1.575c-0.971,-1.05 -1.454,-2.275 -1.454,-3.679l0,-0.35l0,-9.683l-0.004,-50.658l0,-10.155c0,-1.479 0.479,-2.704 1.454,-3.679c0.975,-0.971 2.121,-1.458 3.446,-1.458l55.087,0c1.321,0 2.471,0.487 3.442,1.454c0.975,0.975 1.467,2.204 1.467,3.675l0,10.154c0,1.325 -0.513,2.513 -1.521,3.559c-1.013,1.058 -2.138,1.579 -3.388,1.579l-34.545,0.004Z" style="fill:#00b6ed;fill-rule:nonzero;"/><path d="M476.507,535.534c0,-1.4 0.7,-3.042 2.1,-4.904l4.321,-5.604c1.242,-1.788 2.229,-3.059 2.975,-3.792c0.742,-0.742 1.534,-1.113 2.392,-1.113c0.7,0 1.55,0.234 2.567,0.7c1.012,0.471 2.412,1.246 4.2,2.334c0.241,0.158 2.22,1.521 5.962,4.087c3.725,2.567 8.392,3.692 14,3.384c1.858,-0.08 3.325,-0.605 4.379,-1.575c1.046,-0.975 1.575,-2.163 1.575,-3.563c0,-1.867 -0.933,-3.583 -2.8,-5.142c-1.866,-1.55 -4.516,-2.441 -7.933,-2.675l0.112,0c-6.854,-1.404 -12.187,-3.17 -15.995,-5.312c-3.817,-2.138 -6.534,-4.688 -8.171,-7.642c-1.629,-2.954 -2.604,-6.612 -2.917,-10.975c-0.308,-5.133 0.775,-9.821 3.267,-14.062c2.491,-4.238 6.066,-7.588 10.737,-10.038c4.667,-2.45 10.038,-3.679 16.113,-3.679c4.508,0 9.025,0.658 13.537,1.983c3.729,1.009 7.134,2.355 10.209,4.021c3.07,1.675 5.504,3.604 7.295,5.784c1.084,1.091 1.634,2.095 1.634,3.033c0,0.779 -0.296,1.617 -0.879,2.512c-0.575,0.892 -1.575,2.121 -2.971,3.675l-3.384,3.617c-1.1,1.167 -1.929,1.971 -2.512,2.396c-0.583,0.425 -1.146,0.637 -1.696,0.637c-0.542,0 -1.242,-0.233 -2.1,-0.7c-0.858,-0.466 -1.687,-0.95 -2.508,-1.458c-0.817,-0.504 -1.534,-0.954 -2.159,-1.337c-5.366,-3.43 -10.079,-5.142 -14.12,-5.138c-2.492,0 -4.455,0.604 -5.896,1.808c-1.438,1.209 -2.159,2.667 -2.159,4.38c0,1.716 0.7,3.245 2.1,4.608c1.4,1.362 3.388,2.237 5.955,2.629c11.125,1.704 19.433,5.013 24.92,9.921c5.484,4.896 8.234,10.5 8.234,16.804c0,4.667 -1.467,9.158 -4.379,13.479c-2.913,4.317 -6.963,7.821 -12.134,10.504c-5.179,2.684 -10.958,4.03 -17.337,4.03c-10.421,0 -20.892,-3.65 -31.396,-10.971c-3.429,-2.329 -5.138,-4.55 -5.138,-6.646" style="fill:#00b6ed;fill-rule:nonzero;"/><path d="M269.643,438.301l-0.067,-0.746c-0.087,-1.241 0.004,-2.962 0.304,-5.191c1.284,-7.321 3.455,-15.259 6.484,-23.834l0.829,-2.791c-0.554,0.262 -1.088,0.879 -1.592,1.875c-3.125,4.375 -6.391,9.37 -9.775,14.975c-1.746,2.87 -3.421,5.125 -5.037,6.754c-1.384,1.621 -2.671,2.821 -3.884,3.583c-1.333,0.75 -2.57,1.133 -3.725,1.154c-1.741,0.025 -3.291,-0.562 -4.645,-1.787c-1.375,-1.217 -2.313,-2.867 -2.825,-4.963c-0.342,-1.483 -0.546,-2.658 -0.613,-3.516c-0.129,-1.609 -0.071,-3.155 0.158,-4.646c1.009,-11.009 4.38,-21.271 10.13,-30.742c1.437,-2.367 3.075,-4.254 4.945,-5.637c1.188,-1.009 2.48,-1.521 3.863,-1.53c1.637,0.23 2.867,1.005 3.65,2.35c0.392,0.5 0.617,1.105 0.671,1.842c0.05,0.758 -0.171,1.558 -0.684,2.421c-3.104,4.746 -5.566,9.887 -7.404,15.417c-1.821,5.52 -3.387,11.829 -4.691,18.887c-0.267,1 -0.292,1.671 -0.025,2.046c0.675,-0.254 1.429,-1.013 2.258,-2.258c4.229,-5.134 9.158,-11.75 14.775,-19.871c2.7,-3.992 4.792,-6.934 6.262,-8.809l10.434,-15.545c1.125,-1.867 2.521,-2.446 4.204,-1.734c1.779,0.604 2.642,2.079 2.592,4.425c-0.055,0.863 -0.325,2.479 -0.83,4.838c-2.541,10.675 -5.133,20.591 -7.779,29.783c-2.021,6.829 -3.716,13.4 -5.071,19.721l-1.216,4.479c-0.379,1.113 -1,2.054 -1.867,2.8c-1.071,1.133 -2.296,1.717 -3.683,1.717c-0.925,0.029 -1.634,-0.096 -2.113,-0.338c-2.154,-0.954 -3.5,-2.662 -4.033,-5.129" style="fill:#11489f;fill-rule:nonzero;"/><path d="M302.594,420.951c3.479,-2.763 6.708,-5.9 9.675,-9.405c2.966,-3.504 6.341,-7.825 10.108,-12.95c0.317,-0.362 0.404,-0.8 0.246,-1.287c-0.421,-0.988 -0.658,-2.25 -0.721,-3.804c-0.067,-1.538 -0.125,-2.738 -0.196,-3.604c-0.158,-2.109 -0.525,-3.771 -1.075,-4.992c-1.862,1.504 -5.375,7.271 -10.554,17.3c-5.179,10.025 -7.9,16.4 -8.15,19.125l0.667,-0.383Zm14.775,16.208c-0.646,-0.913 -1.021,-2.058 -1.125,-3.408c-0.296,-3.834 0.066,-7.305 1.104,-10.413l4.012,-10.996l1.009,-2.616c-0.234,0.016 -0.363,-0.105 -0.375,-0.355l-2.209,2.805c-5.245,7.008 -11.295,13.395 -18.129,19.191c-2.291,1.884 -3.937,3.017 -4.941,3.392c-0.892,0.508 -1.909,0.779 -3.071,0.792c-1.504,0.016 -2.804,-0.484 -3.934,-1.525c-1.116,-1.034 -1.858,-2.471 -2.237,-4.325c-0.142,-0.371 -0.25,-0.921 -0.3,-1.667c-0.054,-0.613 -0.021,-1.354 0.083,-2.221c0.113,-0.871 0.15,-1.492 0.117,-1.858c0.375,-2.725 1.237,-5.829 2.583,-9.304c3.525,-9.705 8.679,-19.417 15.454,-29.163c1.763,-2.617 3.88,-4.987 6.384,-7.133c1.408,-1.254 3.183,-2.209 5.329,-2.859c0.458,-0.129 1.017,-0.195 1.725,-0.208c3.225,-0.046 5.658,1.463 7.287,4.533c0.946,1.842 1.517,3.88 1.688,6.092c0.079,1.113 0.096,1.983 0.025,2.6c0.017,0.25 0.017,0.583 -0.008,1.013c-0.021,0.441 0.045,0.962 0.204,1.575c0.333,-0.25 1.137,-1.096 2.412,-2.53c1.275,-1.441 2.325,-2.908 3.125,-4.4c1.621,-2.991 2.909,-5.17 3.829,-6.554c1.046,-1.5 2.113,-2.616 3.213,-3.383c0.771,-0.508 1.625,-0.771 2.546,-0.775c0.808,-0.017 1.637,0.225 2.487,0.7c1.584,1.1 2.342,2.687 2.275,4.796c0.121,1.479 -0.166,3.1 -0.837,4.837c-1.55,3.984 -2.763,6.959 -3.65,8.946c-5.834,14.3 -10.325,25.871 -13.471,34.696c-0.65,1.987 -1.538,3.946 -2.658,5.883c-1.13,1.934 -1.85,3.142 -2.155,3.638c-0.625,0.875 -1.412,1.504 -2.37,1.887c-0.955,0.379 -1.896,0.454 -2.846,0.229c-1.067,-0.354 -1.925,-0.991 -2.575,-1.912" style="fill:#11489f;fill-rule:nonzero;"/><path d="M352.769,470.924c2.454,-2.62 4.796,-5.995 7.033,-10.104c3.667,-6.362 7.267,-14.446 10.792,-24.271c-0.013,-0.116 0.062,-0.333 0.204,-0.658c0.15,-0.292 0.15,-0.579 0.037,-0.817l-0.716,-0.187c-0.346,0.012 -0.859,0.142 -1.534,0.4c-4.191,1.171 -7.8,3.083 -10.837,5.712c-7.163,6.038 -12.892,13.667 -17.154,22.867c-1.204,2.375 -1.784,5.292 -1.746,8.746c0.125,1.733 0.387,2.9 0.796,3.521c0.383,0.616 1.046,0.904 1.971,0.9c0.925,-0.017 1.725,-0.154 2.395,-0.4c3.167,-0.917 6.088,-2.817 8.759,-5.709m-16.613,11.834c-1.875,-1.888 -3,-4.488 -3.375,-7.838c-0.479,-4.558 0.188,-8.837 1.954,-12.821c5.18,-10.833 11.571,-19.391 19.188,-25.679c5.325,-4.396 11.204,-6.896 17.642,-7.483c1.154,-0.013 1.92,-0.583 2.304,-1.704c2.754,-7.829 5.554,-17.075 8.437,-27.754c0.104,-0.117 0.142,-0.43 0.104,-0.925l-1.933,2.075c-2.717,3.629 -4.029,5.362 -3.929,5.237c-6.321,8.008 -11.071,13.833 -14.271,17.454c-1.483,1.634 -3.733,3.954 -6.746,6.963c-1.412,1.25 -2.783,2.191 -4.116,2.833c-1.009,0.388 -1.98,0.583 -2.905,0.604c-2.304,0.029 -4.312,-1.121 -5.991,-3.446c-1.429,-1.95 -2.371,-4.541 -2.85,-7.741c-0.463,-2.971 -0.246,-6.8 0.675,-11.517c2.471,-9.921 6.412,-19.492 11.825,-28.725c0.637,-0.867 1.054,-1.437 1.271,-1.687c0.295,-0.621 0.67,-0.996 1.129,-1.134c1.091,-0.754 1.987,-1.141 2.679,-1.146c0.812,-0.008 1.529,0.225 2.129,0.713c1.583,0.837 2.446,2.317 2.613,4.408c0.079,1 -0.075,2.229 -0.413,3.721c-0.792,3.221 -1.867,6.504 -3.229,9.871c-3.229,9.2 -5.404,16.15 -6.542,20.867c-0.529,2.237 -0.787,4.025 -0.804,5.387c0.579,-0.008 1.063,-0.196 1.438,-0.571c0.375,-0.375 0.616,-0.625 0.72,-0.754c3.255,-2.762 6.205,-5.717 8.859,-8.85c4.812,-5.129 11.529,-13.2 20.166,-24.208l4.434,-5.438c1.508,-1.621 2.658,-3.121 3.471,-4.504l0.454,-0.933c1.562,-2.246 3.241,-3.017 5.025,-2.288c1.071,0.35 1.904,1.05 2.508,2.092c0.6,1.042 0.888,2.242 0.888,3.604c0.091,1.229 -0.13,3.588 -0.671,7.054c-0.784,3.35 -2.463,10.059 -5.046,20.104c-1.971,7.45 -3.888,14.034 -5.771,19.755c-0.279,0.733 -0.412,1.237 -0.396,1.483c0.021,0.367 0.575,0.721 1.654,1.087c2.363,0.825 4.284,1.721 5.755,2.692c2.787,1.704 4.67,4.388 5.654,8.079c0.279,0.617 0.333,1.296 0.154,2.038c0.079,1.116 -0.433,1.804 -1.583,2.075l-0.346,0c-0.692,0.012 -1.363,-0.417 -2.004,-1.275l-0.638,-1.659c-0.683,-2.712 -2.4,-4.666 -5.142,-5.858l-0.541,-0.183c-2.154,-0.954 -3.409,-1.429 -3.75,-1.429c-0.575,0.016 -1.075,0.387 -1.479,1.137c-0.4,0.742 -0.784,1.742 -1.146,2.983c-2.671,7.455 -5.179,13.917 -7.542,19.392c-2.892,5.979 -6.196,11.096 -9.908,15.358c-3.738,4.134 -7.546,7.146 -11.45,9.055c-3.804,1.8 -7.496,2.637 -11.084,2.566c-3.145,-0.2 -5.654,-1.25 -7.529,-3.137" style="fill:#11489f;fill-rule:nonzero;"/><path d="M409.345,417.284c3.483,-2.766 6.72,-5.9 9.679,-9.412c2.966,-3.5 6.346,-7.804 10.108,-12.933c0.317,-0.38 0.4,-0.813 0.246,-1.305c-0.417,-0.983 -0.667,-2.254 -0.729,-3.8c-0.05,-1.533 -0.129,-2.741 -0.188,-3.612c-0.158,-2.092 -0.525,-3.754 -1.083,-4.983c-1.85,1.504 -5.367,7.275 -10.546,17.304c-5.183,10.021 -7.9,16.4 -8.158,19.129l0.671,-0.388Zm14.783,16.213c-0.658,-0.921 -1.025,-2.063 -1.138,-3.425c-0.291,-3.825 0.075,-7.296 1.113,-10.392l4.004,-11.004l1.025,-2.612c-0.233,0 -0.358,-0.113 -0.383,-0.363l-2.204,2.808c-5.255,7 -11.292,13.388 -18.142,19.171c-2.283,1.892 -3.938,3.029 -4.929,3.417c-0.896,0.504 -1.921,0.758 -3.075,0.787c-1.5,0.009 -2.804,-0.495 -3.942,-1.52c-1.108,-1.034 -1.858,-2.484 -2.233,-4.325c-0.138,-0.384 -0.246,-0.93 -0.304,-1.675c-0.042,-0.609 -0.013,-1.355 0.091,-2.225c0.113,-0.863 0.146,-1.48 0.121,-1.855c0.367,-2.733 1.225,-5.82 2.579,-9.316c3.525,-9.684 8.679,-19.409 15.446,-29.146c1.763,-2.629 3.888,-5.004 6.392,-7.142c1.408,-1.241 3.183,-2.2 5.329,-2.85c0.458,-0.129 1.033,-0.2 1.717,-0.216c3.241,-0.042 5.666,1.475 7.295,4.537c0.963,1.838 1.517,3.871 1.684,6.1c0.079,1.108 0.091,1.971 0.029,2.6c0.017,0.233 0.017,0.583 -0.013,1.017c-0.016,0.437 0.038,0.954 0.213,1.566c0.321,-0.254 1.133,-1.091 2.408,-2.529c1.284,-1.446 2.317,-2.912 3.129,-4.404c1.621,-2.996 2.896,-5.179 3.825,-6.554c1.038,-1.5 2.117,-2.625 3.221,-3.383c0.763,-0.5 1.617,-0.759 2.538,-0.771c0.816,-0.021 1.646,0.221 2.487,0.704c1.584,1.083 2.346,2.679 2.275,4.796c0.121,1.471 -0.175,3.096 -0.841,4.829c-1.546,3.979 -2.75,6.958 -3.638,8.95c-5.854,14.308 -10.333,25.871 -13.471,34.692c-0.662,1.983 -1.55,3.954 -2.666,5.879c-1.13,1.937 -1.85,3.137 -2.159,3.641c-0.612,0.884 -1.416,1.496 -2.366,1.9c-0.946,0.38 -1.905,0.45 -2.842,0.225c-1.071,-0.354 -1.929,-1.008 -2.575,-1.912" style="fill:#11489f;fill-rule:nonzero;"/><path d="M503.115,372.843c-0.121,-1.617 -0.909,-2.775 -2.359,-3.5c-0.7,-0.234 -1.3,-0.35 -1.754,-0.346c-0.817,0.008 -1.479,0.275 -2.021,0.767l-1.108,1.329c-1.038,1.6 -2.717,3.921 -5.021,6.921c-2.929,4 -5.067,7.125 -6.4,9.379c-4.529,7.229 -9.887,14.283 -16.058,21.171c-2.254,2.379 -4.029,4.083 -5.334,5.083c-0.125,0 -0.304,0.167 -0.575,0.479c-0.266,0.308 -0.579,0.346 -0.95,0.104l-0.037,-0.554c-0.025,-0.375 0.029,-1.175 0.162,-2.421c1.784,-9.791 4.517,-18.675 8.184,-26.629c0.558,-1.742 1.371,-3.237 2.429,-4.492c0.175,-0.745 0.621,-0.995 1.321,-0.758l-0.129,5.004c0.15,1.854 0.362,3.213 0.662,4.071c0.708,1.608 1.575,2.396 2.613,2.375l0.345,0c1.271,-0.017 2.017,-0.958 2.213,-2.817c0.054,-0.862 0.175,-1.883 0.379,-3.07c0.192,-1.167 0.317,-2.196 0.367,-3.059c0.325,-1.746 0.437,-3.221 0.346,-4.454l-0.059,-0.925c-0.308,-2.354 -1.175,-4.158 -2.596,-5.437c-1.425,-1.284 -3.125,-1.9 -5.091,-1.875c-0.813,0.012 -1.446,0.083 -1.896,0.212c-1.363,0.392 -2.629,1.088 -3.829,2.1c-1.313,1 -2.596,2.254 -3.871,3.758c-7.104,9.871 -11.4,20.875 -12.9,33.005c-0.225,1.616 -0.258,3.287 -0.129,5.02c0.05,0.734 0.266,1.971 0.625,3.688c0.65,2.346 1.708,4.192 3.212,5.525c1.484,1.337 3.217,1.996 5.179,1.967c1.617,-0.025 3.138,-0.484 4.584,-1.363c1.537,-1.008 2.833,-2.15 3.891,-3.392l4.284,-5.262c2.521,-3.367 3.825,-5.108 3.937,-5.246c1.242,-1.867 1.917,-2.871 2.025,-2.992c0.109,-0.12 0.238,-0.312 0.392,-0.558c0.158,-0.258 0.396,-0.446 0.742,-0.571c0.012,0.363 -0.005,0.709 -0.105,1.021c-0.091,0.304 -0.191,0.533 -0.291,0.65c-3.592,8.958 -6.596,18.308 -9.025,28.038c-2.8,11.233 -6.242,22.608 -7.009,34.275c-0.287,4.225 -0.504,9.504 2.184,13.17c7.308,9.984 10.558,-10.37 11.254,-14.133c2.633,-14.35 3.2,-19.608 7.337,-33.596c1.446,-5.221 3.163,-10.771 5.125,-16.671c1.98,-5.9 3.246,-9.716 3.809,-11.458l3.404,-9.875l6.842,-19.204c0.554,-1.742 0.812,-3.038 0.745,-3.904l-0.045,-0.55Z" style="fill:#11489f;fill-rule:nonzero;"/><path d="M522.829,427.245l-0.05,-0.741c-0.1,-1.246 0,-2.98 0.292,-5.2c1.287,-7.313 3.454,-15.259 6.491,-23.834l0.821,-2.796c-0.554,0.263 -1.079,0.888 -1.591,1.875c-3.134,4.38 -6.388,9.375 -9.78,14.984c-1.745,2.875 -3.416,5.121 -5.025,6.754c-1.379,1.617 -2.679,2.812 -3.891,3.575c-1.334,0.767 -2.575,1.146 -3.729,1.158c-1.721,0.029 -3.271,-0.566 -4.65,-1.783c-1.367,-1.233 -2.305,-2.867 -2.809,-4.967c-0.346,-1.479 -0.554,-2.654 -0.621,-3.516c-0.12,-1.609 -0.062,-3.159 0.167,-4.646c1.004,-11.017 4.363,-21.263 10.121,-30.742c1.446,-2.362 3.087,-4.25 4.95,-5.642c1.2,-1.004 2.487,-1.516 3.867,-1.525c1.629,0.221 2.858,1 3.65,2.355c0.387,0.491 0.612,1.1 0.658,1.837c0.071,0.754 -0.171,1.567 -0.675,2.425c-3.108,4.738 -5.575,9.892 -7.392,15.404c-1.829,5.538 -3.404,11.825 -4.704,18.9c-0.267,0.992 -0.287,1.663 -0.029,2.038c0.675,-0.263 1.437,-1.004 2.267,-2.259c4.22,-5.129 9.145,-11.75 14.775,-19.87c2.691,-3.992 4.783,-6.93 6.258,-8.809l10.425,-15.546c1.125,-1.862 2.525,-2.437 4.208,-1.716c1.788,0.596 2.646,2.058 2.596,4.408c-0.042,0.871 -0.317,2.479 -0.842,4.842c-2.541,10.666 -5.125,20.596 -7.758,29.779c-2.025,6.833 -3.712,13.404 -5.083,19.729l-1.213,4.479c-0.383,1.109 -1.004,2.046 -1.862,2.796c-1.075,1.142 -2.3,1.708 -3.692,1.725c-0.917,0.017 -1.617,-0.104 -2.108,-0.333c-2.15,-0.963 -3.504,-2.684 -4.042,-5.138" style="fill:#11489f;fill-rule:nonzero;"/><path d="M565.192,356.782l-0.28,-1.291c-0.05,-0.755 0,-1.542 0.167,-2.421c0.167,-0.859 0.288,-1.484 0.371,-1.863c0.35,-1.483 0.954,-2.571 1.833,-3.266c0.875,-0.688 1.892,-0.925 3.075,-0.7c1.163,0.112 2.129,0.691 2.904,1.733c0.784,1.042 1.23,2.354 1.355,3.967c-0.055,2.35 -0.542,4.333 -1.459,5.954c-1.25,1.754 -2.712,2.396 -4.358,1.912c-1.9,-0.466 -3.088,-1.816 -3.608,-4.025m-16.663,53.842l-0.296,-1.492c-0.087,-4.071 0.242,-7.225 1.009,-9.466c2.395,-7.942 4.375,-13.792 5.933,-17.517c1.558,-3.742 3.129,-6.783 4.679,-9.154c0.821,-1.259 1.583,-2.063 2.229,-2.45c0.534,-0.492 1.279,-0.754 2.2,-0.767c0.925,-0.017 1.767,0.35 2.521,1.079c0.738,0.738 1.225,1.642 1.425,2.759l0.067,0.933c0.096,1.233 0.108,2.1 0.029,2.587c-0.158,0.996 -0.354,2.225 -0.596,3.717c-0.212,1.492 -0.475,2.667 -0.754,3.538l-5.779,21.783c-0.559,1.862 -1.992,4.292 -4.304,7.287c-0.846,1.009 -1.909,1.509 -3.18,1.538c-0.45,0 -1.045,-0.113 -1.758,-0.35c-1.779,-0.592 -2.921,-1.938 -3.425,-4.025" style="fill:#11489f;fill-rule:nonzero;"/><path d="M567.421,437.288c-1.025,-1.217 -1.791,-2.534 -2.3,-3.946c-0.512,-1.413 -0.816,-2.671 -0.904,-3.8c-0.279,-3.575 -0.05,-7.35 0.688,-11.317c0.966,-3.966 2.058,-7.875 3.262,-11.733c5.113,-16.267 11.692,-35.088 19.758,-56.475l3.742,-10.067c5.929,-16.033 10.275,-27.225 13.021,-33.575c0.383,-0.987 1.083,-2.483 2.092,-4.471c0.708,-1.25 1.512,-2.129 2.391,-2.633c0.671,-0.387 1.342,-0.579 2.042,-0.596c0.792,0 1.55,0.271 2.229,0.809c0.675,0.55 1.167,1.32 1.483,2.3c0.142,0.37 0.246,0.929 0.3,1.67c0.046,0.746 0.046,1.3 -0.037,1.655c-0.104,3.233 -0.829,7.32 -2.188,12.287c-0.7,2.971 -1.975,7.325 -3.85,13.038l-1.27,3.72c-8.234,22.38 -14.342,39.15 -18.33,50.342c-5.683,16.396 -9.77,29.317 -12.283,38.742l-1.612,6.15c-0.263,1.121 -0.346,2.229 -0.271,3.346c0.062,0.737 0.166,1.345 0.325,1.845c0.471,1.6 0.204,2.934 -0.813,3.992c-1.016,1.067 -2.304,1.429 -3.825,1.075c-1.058,-0.225 -2.279,-1.017 -3.65,-2.358" style="fill:#11489f;fill-rule:nonzero;"/><path d="M250.653,336.329c-0.446,-4.233 -1.867,-7.425 -4.229,-9.47c-1.95,-1.705 -4.471,-2.613 -7.5,-2.7c-0.654,-0.021 -1.338,0.008 -2.113,0.062l-2.071,0.408c-1.87,0.4 -4.416,1.392 -7.591,2.95c-8.596,4.721 -15.659,11 -21.009,18.68c-13.066,19.337 -21.287,39.95 -24.379,61.262c-1.383,10.533 -1.679,19.754 -0.846,27.454c1.009,7.629 3.63,16.075 10.555,20.475c11.562,7.342 26.441,0.871 34.979,-7.433c2.412,-2.35 4.633,-5.071 6.458,-7.908c1.817,-2.83 3.354,-6.055 4.388,-9.275c2.162,-6.809 2.708,-15.246 0.058,-22.125c-0.233,-0.571 -1.571,-5.925 -1.792,-5.925c0.65,-0.03 2.259,-0.359 2.967,-0.455c1.225,-0.108 2.225,-0.683 2.9,-1.666c0.8,-1.159 1.025,-2.784 0.596,-4.342c-1.134,-4.187 -5.529,-4.333 -7.042,-4.379c-0.504,-0.008 -1.008,0 -1.483,0.008c-0.829,0.034 -1.913,0.034 -3.138,0.038c-4.583,0.016 -10.837,0.021 -13.679,1.304c-2.317,1.033 -3.737,3.425 -3.325,5.55c0.179,0.908 0.963,3.037 4.529,3.367c8.404,0.77 12.179,11.504 12.054,17.545c-0.15,7.642 -3.525,16.184 -9.312,21.08c-4.063,3.441 -10.575,7.312 -16.196,6.745c-12.075,-1.241 -10.246,-18.425 -9.6,-26.491l0.113,-1.5c1.083,-14.204 4.179,-27.421 9.237,-39.254c5.104,-12.434 10.588,-22.834 16.288,-30.888c3.666,-5.392 8.05,-9.767 13.016,-12.987c2.804,-1.821 8.204,-5.084 9.434,0.145c0.162,0.717 0.291,1.742 0.395,3.05c0.18,2.38 -0.037,4.675 -0.65,6.83c-0.879,3.195 -6.508,10.416 -2.254,13.22c0.179,0.088 3.904,1.825 6.2,-2.82c0.529,-0.95 1.034,-1.909 1.504,-2.913c2.517,-5.45 3.375,-11.387 2.538,-17.642" style="fill:#11489f;fill-rule:nonzero;"/><path d="M278.782,352.347c-0.333,0 -0.612,-0.121 -0.858,-0.362c-0.242,-0.242 -0.363,-0.542 -0.363,-0.913l0,-17.671c0,-0.37 0.121,-0.675 0.363,-0.929c0.246,-0.246 0.525,-0.375 0.858,-0.375l3.896,0c0.325,0 0.604,0.129 0.854,0.375c0.233,0.254 0.358,0.559 0.358,0.929l0,12.938l7.942,0c0.371,0 0.679,0.112 0.938,0.35c0.258,0.225 0.387,0.517 0.387,0.862l0,3.638c0,0.329 -0.129,0.608 -0.387,0.837c-0.259,0.234 -0.567,0.35 -0.938,0.35l-12.3,0l-0.75,-0.029Z" style="fill:#00b6ed;fill-rule:nonzero;"/><path d="M315.79,342.122c0,-0.829 -0.209,-1.592 -0.634,-2.283c-0.421,-0.692 -0.983,-1.246 -1.691,-1.659c-0.7,-0.416 -1.455,-0.621 -2.263,-0.621c-0.846,0 -1.621,0.205 -2.321,0.621c-0.7,0.413 -1.258,0.967 -1.662,1.659c-0.409,0.691 -0.604,1.454 -0.604,2.283c0,0.825 0.195,1.596 0.604,2.296c0.404,0.704 0.962,1.262 1.662,1.675c0.7,0.416 1.475,0.625 2.321,0.625c0.808,0 1.563,-0.209 2.263,-0.625c0.708,-0.413 1.27,-0.971 1.691,-1.675c0.425,-0.7 0.634,-1.471 0.634,-2.296m-15.071,0.258c0,-1.908 0.475,-3.662 1.433,-5.283c0.95,-1.621 2.233,-2.904 3.846,-3.854c1.625,-0.954 3.387,-1.438 5.292,-1.438c1.904,0 3.67,0.484 5.3,1.438c1.625,0.95 2.916,2.233 3.866,3.854c0.954,1.621 1.429,3.375 1.429,5.283c0,1.904 -0.475,3.671 -1.429,5.288c-0.95,1.621 -2.241,2.9 -3.866,3.854c-1.63,0.954 -3.396,1.433 -5.3,1.433c-1.905,0 -3.667,-0.479 -5.292,-1.433c-1.613,-0.954 -2.896,-2.233 -3.846,-3.854c-0.958,-1.617 -1.433,-3.384 -1.433,-5.288" style="fill:#00b6ed;fill-rule:nonzero;"/><path d="M344.993,351.334l0,-18.167c0,-0.266 0.1,-0.5 0.304,-0.704c0.2,-0.2 0.45,-0.312 0.733,-0.312l4.48,0c0.191,0 0.391,0.05 0.608,0.137c0.212,0.083 0.354,0.179 0.425,0.271l5.375,5.896l5.637,-5.867c0.23,-0.208 0.48,-0.333 0.759,-0.371c0.287,-0.041 0.616,-0.066 1,-0.066l3.9,0c0.271,0 0.504,0.112 0.708,0.312c0.204,0.204 0.3,0.438 0.3,0.704l0,18.167c0,0.287 -0.092,0.537 -0.283,0.737c-0.196,0.205 -0.434,0.305 -0.725,0.305l-3.871,0c-0.292,0 -0.542,-0.1 -0.767,-0.305c-0.225,-0.2 -0.329,-0.45 -0.329,-0.737l0,-10.629l-4.646,5.891c-0.391,0.521 -0.879,0.784 -1.483,0.784c-0.279,0 -0.563,-0.063 -0.821,-0.192c-0.258,-0.121 -0.467,-0.287 -0.621,-0.5l-4.766,-5.983l0.037,10.629c0,0.287 -0.104,0.537 -0.292,0.737c-0.195,0.205 -0.429,0.305 -0.716,0.305l-3.909,0c-0.283,0 -0.533,-0.109 -0.733,-0.321c-0.204,-0.213 -0.304,-0.45 -0.304,-0.721" style="fill:#00b6ed;fill-rule:nonzero;"/><path d="M385.394,337.326l0,2.342l8.142,0c0.312,0 0.587,0.117 0.825,0.358c0.237,0.246 0.358,0.542 0.358,0.913l0,2.512c0,0.321 -0.121,0.621 -0.358,0.88c-0.238,0.258 -0.513,0.387 -0.825,0.387l-8.142,0l0,2.575l8.554,0c0.325,0 0.604,0.117 0.846,0.358c0.242,0.246 0.363,0.55 0.363,0.938l0,2.483c0,0.346 -0.121,0.65 -0.363,0.913c-0.242,0.262 -0.521,0.391 -0.846,0.391l-13.633,0c-0.333,0 -0.613,-0.129 -0.854,-0.391c-0.242,-0.263 -0.359,-0.567 -0.359,-0.913l0,-0.083l0,-2.4l0,-12.533l0,-2.513c0,-0.367 0.117,-0.671 0.359,-0.904c0.241,-0.242 0.521,-0.367 0.854,-0.367l13.633,0c0.325,0 0.604,0.125 0.846,0.367c0.242,0.233 0.363,0.537 0.363,0.904l0,2.513c0,0.329 -0.125,0.62 -0.38,0.883c-0.245,0.254 -0.525,0.387 -0.829,0.387l-8.554,0Z" style="fill:#00b6ed;fill-rule:nonzero;"/><path d="M399.282,358.442l0,-2.025c0,-0.421 0.133,-0.858 0.42,-1.312c0.28,-0.454 0.663,-0.679 1.138,-0.679c1.333,0 2.325,-0.296 2.979,-0.884c0.646,-0.583 1.054,-1.254 1.204,-1.987c0.159,-0.746 0.246,-1.617 0.267,-2.617l0.029,-0.692l0,-14.845c0,-0.4 0.096,-0.709 0.292,-0.913c0.183,-0.2 0.408,-0.308 0.662,-0.308l4.584,0c0.233,0 0.45,0.121 0.637,0.337c0.196,0.225 0.288,0.525 0.288,0.913l-0.113,16.512c0,0.025 -0.008,0.038 -0.008,0.038c0,3.771 -0.963,6.425 -2.909,7.954c-1.937,1.533 -4.225,2.325 -6.845,2.383c-0.821,0.017 -1.467,-0.133 -1.921,-0.462c-0.446,-0.325 -0.684,-0.804 -0.704,-1.413" style="fill:#00b6ed;fill-rule:nonzero;"/><path d="M436.196,342.122c0,-0.829 -0.209,-1.592 -0.634,-2.283c-0.42,-0.692 -0.983,-1.246 -1.691,-1.659c-0.7,-0.416 -1.454,-0.621 -2.267,-0.621c-0.85,0 -1.621,0.205 -2.325,0.621c-0.7,0.413 -1.25,0.967 -1.654,1.659c-0.408,0.691 -0.613,1.454 -0.613,2.283c0,0.825 0.205,1.596 0.613,2.296c0.404,0.704 0.954,1.262 1.654,1.675c0.704,0.416 1.475,0.625 2.325,0.625c0.813,0 1.567,-0.209 2.267,-0.625c0.708,-0.413 1.271,-0.971 1.691,-1.675c0.425,-0.7 0.634,-1.471 0.634,-2.296m-15.071,0.258c0,-1.908 0.475,-3.662 1.429,-5.283c0.95,-1.621 2.238,-2.904 3.85,-3.854c1.625,-0.954 3.388,-1.438 5.292,-1.438c1.904,0 3.671,0.484 5.291,1.438c1.634,0.95 2.925,2.233 3.875,3.854c0.955,1.621 1.43,3.375 1.43,5.283c0,1.904 -0.475,3.671 -1.43,5.288c-0.95,1.621 -2.241,2.9 -3.875,3.854c-1.62,0.954 -3.387,1.433 -5.291,1.433c-1.904,0 -3.667,-0.479 -5.292,-1.433c-1.612,-0.954 -2.9,-2.233 -3.85,-3.854c-0.954,-1.617 -1.429,-3.384 -1.429,-5.288" style="fill:#00b6ed;fill-rule:nonzero;"/><path d="M458.482,341.603c0.879,0 1.691,-0.159 2.437,-0.479c0.742,-0.317 1.113,-1.055 1.113,-2.209c0,-0.808 -0.246,-1.429 -0.738,-1.846c-0.492,-0.425 -1.196,-0.637 -2.121,-0.637l-2.375,0l0,5.171l1.684,0Zm4.295,9.037c-0.208,-1.308 -0.645,-2.221 -1.308,-2.733c-0.667,-0.504 -1.492,-0.804 -2.471,-0.904c-0.133,-0.017 -0.3,-0.025 -0.487,-0.025c-0.196,0 -0.363,0.012 -0.492,0.05l-0.037,0.033l0,3.7c0,0.363 -0.03,0.654 -0.096,0.879c-0.071,0.217 -0.25,0.396 -0.546,0.546c-0.304,0.146 -0.771,0.217 -1.404,0.217l-2.688,0c-0.596,0.016 -1.066,-0.092 -1.412,-0.334c-0.346,-0.237 -0.521,-0.57 -0.521,-0.995l0.029,-7.796l0,-10.05c0,-0.292 0.146,-0.546 0.433,-0.767c0.288,-0.225 0.634,-0.329 1.042,-0.329l6.554,0c2.888,-0.025 5.021,0.462 6.409,1.458c1.391,0.988 2.141,2.546 2.258,4.663c0.012,0.191 0.021,0.341 0.004,0.441c-0.004,0.113 -0.004,0.205 -0.004,0.28l0,0.604c-0.1,1.121 -0.392,2.004 -0.888,2.658c-0.483,0.658 -1.133,1.263 -1.95,1.817l0.03,0.033c0.945,0.463 1.695,1.129 2.258,1.996c0.554,0.867 0.937,1.771 1.142,2.708c0.2,0.95 0.279,1.792 0.241,2.542c0,0.333 -0.112,0.592 -0.346,0.779c-0.229,0.2 -0.562,0.292 -0.979,0.292l-3.529,0c-0.496,0 -0.821,-0.121 -0.962,-0.375c-0.15,-0.25 -0.225,-0.517 -0.234,-0.792c-0.016,-0.279 -0.021,-0.475 -0.046,-0.596" style="fill:#00b6ed;fill-rule:nonzero;"/><path d="M501.483,346.164c0.633,0 1.229,-0.183 1.775,-0.55c0.55,-0.362 0.987,-0.87 1.329,-1.516c0.329,-0.642 0.504,-1.354 0.504,-2.117c0,-0.754 -0.166,-1.45 -0.491,-2.083c-0.325,-0.638 -0.767,-1.142 -1.313,-1.517c-0.546,-0.375 -1.142,-0.558 -1.775,-0.558l-2.692,0c-0.137,0 -0.241,0.041 -0.333,0.137c-0.083,0.096 -0.129,0.221 -0.129,0.379l0,7.305c0,0.158 0.046,0.279 0.129,0.379c0.092,0.096 0.196,0.141 0.333,0.141l2.663,0Zm-9.129,4.942l0,-17.675c0,-0.35 0.129,-0.646 0.371,-0.896c0.254,-0.258 0.55,-0.383 0.9,-0.383l7.8,0c1.829,0 3.545,0.462 5.154,1.379c1.604,0.913 2.891,2.142 3.837,3.696c0.959,1.55 1.434,3.229 1.434,5.037c0,1.817 -0.484,3.492 -1.442,5.042c-0.967,1.55 -2.258,2.783 -3.875,3.7c-1.617,0.913 -3.342,1.371 -5.171,1.371l-7.737,0c-0.35,0 -0.646,-0.129 -0.9,-0.379c-0.242,-0.25 -0.371,-0.55 -0.371,-0.892" style="fill:#00b6ed;fill-rule:nonzero;"/><path d="M526.915,337.326l0,2.342l8.15,0c0.304,0 0.579,0.117 0.82,0.358c0.242,0.246 0.363,0.542 0.363,0.913l0,2.512c0,0.321 -0.121,0.621 -0.363,0.88c-0.241,0.258 -0.516,0.387 -0.82,0.387l-8.15,0l0,2.575l8.558,0c0.321,0 0.604,0.117 0.85,0.358c0.233,0.246 0.358,0.55 0.358,0.938l0,2.483c0,0.346 -0.125,0.65 -0.358,0.913c-0.246,0.262 -0.529,0.391 -0.85,0.391l-13.638,0c-0.325,0 -0.612,-0.129 -0.854,-0.391c-0.233,-0.263 -0.358,-0.567 -0.358,-0.913l0,-0.083l0,-2.4l0,-12.533l0,-2.513c0,-0.367 0.125,-0.671 0.358,-0.904c0.242,-0.242 0.529,-0.367 0.854,-0.367l13.638,0c0.321,0 0.604,0.125 0.85,0.367c0.233,0.233 0.358,0.537 0.358,0.904l0,2.513c0,0.329 -0.129,0.62 -0.375,0.883c-0.254,0.254 -0.533,0.387 -0.833,0.387l-8.558,0Z" style="fill:#00b6ed;fill-rule:nonzero;"/></svg>