<?xml version="1.0" encoding="UTF-8" standalone="no"?><!DOCTYPE svg PUBLIC "-//W3C//DTD SVG 1.1//EN" "http://www.w3.org/Graphics/SVG/1.1/DTD/svg11.dtd"><svg width="100%" height="100%" viewBox="0 0 256 256" version="1.1" xmlns="http://www.w3.org/2000/svg" xmlns:xlink="http://www.w3.org/1999/xlink" xml:space="preserve" xmlns:serif="http://www.serif.com/" style="fill-rule:evenodd;clip-rule:evenodd;stroke-linejoin:round;stroke-miterlimit:1.41421;"><path d="M149.287,102.661c0.109,14.719 5.35,28.966 14.845,40.354c7.722,9.733 23.766,26.395 49.542,26.603c26.763,0 35.754,-17.32 29.936,-30.587c-5.113,-11.742 -25.247,-21.995 -47.391,-19.778c7.085,-4.524 14.892,-7.849 23.096,-9.838c0.494,0 0.494,-0.519 0,-0.485c-19.5,2.249 -38.159,9.107 -54.372,19.987c-0.423,0.242 -0.247,0.554 0,0.52c4.548,-0.693 31.241,-4.885 46.368,3.221c17.278,9.248 6.1,30.967 -16.502,23.139c-13.62,-4.675 -25.241,-13.735 -32.969,-25.702c-8.11,-13.579 -5.572,-37.341 -1.27,-47.282c7.053,-15.692 19.464,-16.558 24.401,-11.743c4.937,4.815 3.209,13.613 -5.818,25.529c-7.934,10.392 -22.144,28.023 -29.02,38.103c-6.876,10.079 -11.883,18.912 -9.556,32.283c2.856,16.349 18.653,23.104 23.449,2.39c2.108,-10.265 0.313,-20.942 -5.042,-29.997c-3.456,-6.82 -7.872,-13.129 -13.118,-18.74c-8.85,-9.906 -18.617,-14.34 -27.256,-9.075c-3.027,2.132 -4.826,5.574 -4.826,9.233c0,4.165 2.331,8.009 6.06,9.991c10.225,6.72 22.99,4.85 28.596,3.222c0.424,0 0.424,-0.589 0,-0.52c-7.75,0.662 -15.517,-1.11 -22.179,-5.057c-8.286,-6.374 -1.939,-18.947 14.563,-6.72c11.636,8.625 21.968,25.39 15.057,44.026c-3.209,8.694 -9.133,6.581 -11.143,-2.875c-1.115,-5.862 -0.325,-11.922 2.257,-17.319c3.984,-9.145 11.812,-15.345 24.683,-24.248c16.96,-11.708 35.261,-26.117 43.018,-45.03c6.488,-16.176 -0.705,-35.02 -17.066,-35.02c-28.421,0 -48.343,29.235 -48.343,61.415Z" style="fill:#7b59a2;fill-rule:nonzero;"/><path d="M17.304,214.925c0,2.425 0.282,10.08 -7.052,10.08c-1.591,0.065 -3.174,-0.244 -4.619,-0.901l0,-5.854c0.728,1 1.888,1.615 3.138,1.663c2.786,0 2.609,-2.979 2.609,-4.953l0,-20.056l5.924,0l0,20.021Z" style="fill:#717071;fill-rule:nonzero;"/><path d="M32.854,194.904l7.229,29.651l-6.241,0l-1.129,-4.988l-6.17,0l-1.093,4.988l-5.889,0l7.052,-29.651l6.241,0Zm-2.538,12.089l-0.67,-4.469l-0.635,4.469l-1.269,7.897l3.984,0l-1.41,-7.897Z" style="fill:#717071;fill-rule:nonzero;"/><path d="M42.481,224.52l0,-29.616l6.206,0c0.538,-0.102 1.085,-0.153 1.633,-0.153c4.739,0 8.639,3.831 8.639,8.486c0,0.144 -0.004,0.287 -0.011,0.43c0.013,0.187 0.019,0.374 0.019,0.561c0,4.503 -3.772,8.209 -8.357,8.209c-0.277,0 -0.554,-0.013 -0.83,-0.041l-1.305,0l0,12.228l-5.994,-0.104Zm5.959,-17.008c2.891,0 4.513,-0.935 4.513,-3.983c0,-2.113 -0.846,-3.845 -3.526,-3.845l-1.128,0l0.141,7.828Z" style="fill:#717071;fill-rule:nonzero;"/><path d="M70.372,194.904l7.229,29.651l-6.347,0l-1.129,-4.988l-6.029,0l-1.093,4.988l-5.924,0l7.052,-29.651l6.241,0Zm-2.644,12.089l-0.67,-4.469l-0.635,4.469l-1.269,7.897l3.949,0l-1.375,-7.897Z" style="fill:#717071;fill-rule:nonzero;"/><path d="M84.935,194.904l7.44,17.873c-0.347,-1.464 -0.513,-2.964 -0.493,-4.468l0,-13.405l5.959,0l0,29.651l-5.642,0l-7.37,-17.874l0.282,2.979l0,14.825l-5.888,0l0,-29.581l5.712,0Z" style="fill:#717071;fill-rule:nonzero;"/><path d="M112.086,197.398l-6.84,0l0,10.391l6.488,0l0,2.529l-6.488,0l0,14.167l-2.786,0l0,-29.581l9.661,0l-0.035,2.494Z" style="fill:#717071;fill-rule:nonzero;"/><path d="M129.294,209.729c0,5.542 -0.247,15.103 -7.299,15.103c-7.053,0 -7.405,-8.314 -7.405,-15.207c0,-7.516 0.987,-15.206 7.405,-15.206c6.417,0 7.299,8.764 7.299,15.31Zm-11.919,0c0,5.231 0.212,12.54 4.514,12.54c4.302,0 4.513,-7.309 4.513,-12.54c0,-5.23 -0.211,-12.608 -4.407,-12.608c-4.196,0 -4.655,7.343 -4.655,12.608l0.035,0Z" style="fill:#717071;fill-rule:nonzero;"/><path d="M144.914,215.133c0,5.473 -0.423,9.803 -6.311,9.803c-5.889,0 -6.312,-4.469 -6.312,-9.803l0,-20.229l2.786,0l0,20.09c0,4.919 0.282,7.275 3.526,7.275c3.244,0 3.526,-2.356 3.526,-7.275l0,-20.09l2.785,0l0,20.229Z" style="fill:#717071;fill-rule:nonzero;"/><path d="M161.381,224.52l-2.433,0l-6.805,-19.917c-0.423,-1.213 -0.67,-2.564 -1.023,-3.811c0,1.94 0.318,3.811 0.318,5.75l0,18.013l-2.645,0l0,-29.651l2.433,0l7.052,20.61c0.353,1.039 0.635,2.044 0.917,3.083c0,-1.282 -0.282,-2.633 -0.282,-3.914l0,-19.745l2.433,0l0.035,29.582Z" style="fill:#717071;fill-rule:nonzero;"/><path d="M165.401,194.904l3.033,0c5.747,0 9.52,0.693 9.52,14.825c0,11.604 -1.904,14.826 -9.309,14.826l-3.244,0l0,-29.651Zm2.786,27.122l0.811,0c5.395,0 6.065,-3.741 6.065,-12.297c0,-10.184 -1.093,-12.297 -6.418,-12.297l-0.494,0l0.036,24.594Z" style="fill:#717071;fill-rule:nonzero;"/><path d="M193.434,224.52l-2.997,0l-1.129,-6.096l-6.417,0l-0.952,6.096l-2.998,0l5.924,-29.651l2.645,0l5.924,29.651Zm-4.443,-8.486l-2.01,-11.362c-0.353,-2.009 -0.529,-4.053 -0.776,-6.062c-0.282,2.009 -0.493,4.053 -0.811,6.062l-1.763,11.362l5.36,0Z" style="fill:#717071;fill-rule:nonzero;"/><path d="M204.576,197.398l-4.513,0l0,27.122l-2.786,0l0,-27.122l-4.549,0l0,-2.529l11.848,0l0,2.529Z" style="fill:#717071;fill-rule:nonzero;"/><rect x="208.102" y="194.904" width="2.786" height="29.616" style="fill:#717071;fill-rule:nonzero;"/><path d="M228.801,209.729c0,5.542 -0.388,15.207 -7.405,15.207c-7.017,0 -7.405,-8.314 -7.405,-15.207c0,-7.516 0.987,-15.206 7.405,-15.206c6.417,0 7.405,8.66 7.405,15.206Zm-11.919,0c0,5.231 0.212,12.54 4.514,12.54c4.302,0 4.513,-7.309 4.513,-12.54c0,-5.23 -0.176,-12.608 -4.513,-12.608c-4.337,0 -4.514,7.343 -4.514,12.608Z" style="fill:#717071;fill-rule:nonzero;"/><path d="M243.822,224.52l-2.433,0l-6.806,-19.917c-0.423,-1.213 -0.669,-2.564 -1.022,-3.811c0,1.94 0.317,3.811 0.317,5.75l0,18.013l-2.574,0l0,-29.651l2.433,0l7.052,20.61c0.353,1.039 0.635,2.044 0.917,3.083c0,-1.282 -0.282,-2.633 -0.282,-3.914l0,-19.745l2.433,0l-0.035,29.582Z" style="fill:#717071;fill-rule:nonzero;"/></svg>