<?xml version="1.0" encoding="UTF-8" standalone="no"?><!DOCTYPE svg PUBLIC "-//W3C//DTD SVG 1.1//EN" "http://www.w3.org/Graphics/SVG/1.1/DTD/svg11.dtd"><svg width="100%" height="100%" viewBox="0 0 256 256" version="1.1" xmlns="http://www.w3.org/2000/svg" xmlns:xlink="http://www.w3.org/1999/xlink" xml:space="preserve" xmlns:serif="http://www.serif.com/" style="fill-rule:evenodd;clip-rule:evenodd;stroke-linejoin:round;stroke-miterlimit:1.41421;"><rect x="1.15" y="45.433" width="252.141" height="163.326" style="fill:#fff;"/><ellipse cx="127.221" cy="127.096" rx="50.428" ry="48.998" style="fill:#bc002d;"/><g><path d="M25.009,242.402l0,-21.36l9.12,0l0,2.88l-6.06,0l0,6.27l5.28,0l0,2.88l-5.28,0l0,6.27l6.06,0l0,3.06l-9.12,0Z" style="fill:#223a76;fill-rule:nonzero;"/><path d="M36.109,242.402l0,-21.36l2.94,0l3.93,11.31l0.06,0l3.9,-11.31l2.97,0l0,21.36l-3.06,0l0,-12.99l-0.06,0l-3.03,9.18l-1.53,0l-3,-9.18l-0.06,0l0,12.99l-3.06,0Z" style="fill:#223a76;fill-rule:nonzero;"/><path d="M52.789,242.402l0,-21.36l4.47,0c0.98,0 1.815,0.15 2.505,0.45c0.69,0.3 1.255,0.7 1.695,1.2c0.44,0.5 0.755,1.075 0.945,1.725c0.19,0.65 0.285,1.325 0.285,2.025l0,0.78c0,0.58 -0.045,1.07 -0.135,1.47c-0.09,0.4 -0.225,0.75 -0.405,1.05c-0.34,0.56 -0.86,1.04 -1.56,1.44c0.72,0.34 1.25,0.84 1.59,1.5c0.34,0.66 0.51,1.56 0.51,2.7l0,1.2c0,1.88 -0.455,3.32 -1.365,4.32c-0.91,1 -2.365,1.5 -4.365,1.5l-4.17,0Zm3.06,-9.9l0,6.84l1.32,0c0.62,0 1.105,-0.09 1.455,-0.27c0.35,-0.18 0.615,-0.43 0.795,-0.75c0.18,-0.32 0.29,-0.7 0.33,-1.14c0.04,-0.44 0.06,-0.92 0.06,-1.44c0,-0.54 -0.03,-1.01 -0.09,-1.41c-0.06,-0.4 -0.18,-0.74 -0.36,-1.02c-0.2,-0.28 -0.47,-0.485 -0.81,-0.615c-0.34,-0.13 -0.79,-0.195 -1.35,-0.195l-1.35,0Zm0,-8.58l0,5.88l1.38,0c1.02,0 1.705,-0.255 2.055,-0.765c0.35,-0.51 0.525,-1.255 0.525,-2.235c0,-0.96 -0.195,-1.68 -0.585,-2.16c-0.39,-0.48 -1.095,-0.72 -2.115,-0.72l-1.26,0Z" style="fill:#223a76;fill-rule:nonzero;"/><path d="M71.389,234.932l-1.5,-7.74l-0.06,0l-1.5,7.74l3.06,0Zm-7.56,7.47l4.77,-21.36l2.55,0l4.77,21.36l-3.06,0l-0.9,-4.59l-4.17,0l-0.9,4.59l-3.06,0Z" style="fill:#223a76;fill-rule:nonzero;"/><path d="M84.529,221.042l0,16.32c0,1.46 -0.46,2.68 -1.38,3.66c-0.46,0.48 -1.005,0.86 -1.635,1.14c-0.63,0.28 -1.365,0.42 -2.205,0.42c-0.98,0 -1.795,-0.215 -2.445,-0.645c-0.65,-0.43 -1.165,-0.855 -1.545,-1.275l2.4,-1.92c0.22,0.22 0.475,0.405 0.765,0.555c0.29,0.15 0.595,0.225 0.915,0.225c0.18,0 0.39,-0.035 0.63,-0.105c0.24,-0.07 0.47,-0.205 0.69,-0.405c0.22,-0.18 0.4,-0.435 0.54,-0.765c0.14,-0.33 0.21,-0.765 0.21,-1.305l0,-15.9l3.06,0Z" style="fill:#223a76;fill-rule:nonzero;"/><path d="M93.589,234.932l-1.5,-7.74l-0.06,0l-1.5,7.74l3.06,0Zm-7.56,7.47l4.77,-21.36l2.55,0l4.77,21.36l-3.06,0l-0.9,-4.59l-4.17,0l-0.9,4.59l-3.06,0Z" style="fill:#223a76;fill-rule:nonzero;"/><path d="M99.619,242.402l0,-21.36l4.53,0c1.76,0 3.095,0.48 4.005,1.44c0.91,0.96 1.365,2.32 1.365,4.08l0,9.99c0,2 -0.485,3.475 -1.455,4.425c-0.97,0.95 -2.365,1.425 -4.185,1.425l-4.26,0Zm3.06,-18.48l0,15.6l1.41,0c0.86,0 1.47,-0.215 1.83,-0.645c0.36,-0.43 0.54,-1.105 0.54,-2.025l0,-10.29c0,-0.84 -0.17,-1.49 -0.51,-1.95c-0.34,-0.46 -0.96,-0.69 -1.86,-0.69l-1.41,0Z" style="fill:#223a76;fill-rule:nonzero;"/><path d="M118.219,234.932l-1.5,-7.74l-0.06,0l-1.5,7.74l3.06,0Zm-7.56,7.47l4.77,-21.36l2.55,0l4.77,21.36l-3.06,0l-0.9,-4.59l-4.17,0l-0.9,4.59l-3.06,0Z" style="fill:#223a76;fill-rule:nonzero;"/><path d="M129.829,242.402l0,-21.36l4.53,0c1.76,0 3.095,0.48 4.005,1.44c0.91,0.96 1.365,2.32 1.365,4.08l0,9.99c0,2 -0.485,3.475 -1.455,4.425c-0.97,0.95 -2.365,1.425 -4.185,1.425l-4.26,0Zm3.06,-18.48l0,15.6l1.41,0c0.86,0 1.47,-0.215 1.83,-0.645c0.36,-0.43 0.54,-1.105 0.54,-2.025l0,-10.29c0,-0.84 -0.17,-1.49 -0.51,-1.95c-0.34,-0.46 -0.96,-0.69 -1.86,-0.69l-1.41,0Z" style="fill:#223a76;fill-rule:nonzero;"/><path d="M142.609,242.402l0,-21.36l9.12,0l0,2.88l-6.06,0l0,6.27l5.28,0l0,2.88l-5.28,0l0,6.27l6.06,0l0,3.06l-9.12,0Z" style="fill:#223a76;fill-rule:nonzero;"/><path d="M153.709,242.402l0,-21.36l3.06,0l0,18.3l6.06,0l0,3.06l-9.12,0Z" style="fill:#223a76;fill-rule:nonzero;"/><path d="M177.499,221.042l0,16.32c0,1.46 -0.46,2.68 -1.38,3.66c-0.46,0.48 -1.005,0.86 -1.635,1.14c-0.63,0.28 -1.365,0.42 -2.205,0.42c-0.98,0 -1.795,-0.215 -2.445,-0.645c-0.65,-0.43 -1.165,-0.855 -1.545,-1.275l2.4,-1.92c0.22,0.22 0.475,0.405 0.765,0.555c0.29,0.15 0.595,0.225 0.915,0.225c0.18,0 0.39,-0.035 0.63,-0.105c0.24,-0.07 0.47,-0.205 0.69,-0.405c0.22,-0.18 0.4,-0.435 0.54,-0.765c0.14,-0.33 0.21,-0.765 0.21,-1.305l0,-15.9l3.06,0Z" style="fill:#223a76;fill-rule:nonzero;"/><path d="M186.559,234.932l-1.5,-7.74l-0.06,0l-1.5,7.74l3.06,0Zm-7.56,7.47l4.77,-21.36l2.55,0l4.77,21.36l-3.06,0l-0.9,-4.59l-4.17,0l-0.9,4.59l-3.06,0Z" style="fill:#223a76;fill-rule:nonzero;"/><path d="M192.589,242.402l0,-21.36l4.59,0c0.84,0 1.58,0.11 2.22,0.33c0.64,0.22 1.22,0.61 1.74,1.17c0.52,0.56 0.88,1.215 1.08,1.965c0.2,0.75 0.3,1.765 0.3,3.045c0,0.96 -0.055,1.77 -0.165,2.43c-0.11,0.66 -0.345,1.28 -0.705,1.86c-0.42,0.7 -0.98,1.245 -1.68,1.635c-0.7,0.39 -1.62,0.585 -2.76,0.585l-1.56,0l0,8.34l-3.06,0Zm3.06,-18.48l0,7.26l1.47,0c0.62,0 1.1,-0.09 1.44,-0.27c0.34,-0.18 0.59,-0.43 0.75,-0.75c0.16,-0.3 0.255,-0.67 0.285,-1.11c0.03,-0.44 0.045,-0.93 0.045,-1.47c0,-0.5 -0.01,-0.975 -0.03,-1.425c-0.02,-0.45 -0.11,-0.845 -0.27,-1.185c-0.16,-0.34 -0.4,-0.6 -0.72,-0.78c-0.32,-0.18 -0.78,-0.27 -1.38,-0.27l-1.59,0Z" style="fill:#223a76;fill-rule:nonzero;"/><path d="M204.619,226.082c0,-0.86 0.15,-1.62 0.45,-2.28c0.3,-0.66 0.7,-1.21 1.2,-1.65c0.48,-0.42 1.025,-0.74 1.635,-0.96c0.61,-0.22 1.225,-0.33 1.845,-0.33c0.62,0 1.235,0.11 1.845,0.33c0.61,0.22 1.165,0.54 1.665,0.96c0.48,0.44 0.87,0.99 1.17,1.65c0.3,0.66 0.45,1.42 0.45,2.28l0,11.28c0,0.9 -0.15,1.67 -0.45,2.31c-0.3,0.64 -0.69,1.17 -1.17,1.59c-0.5,0.44 -1.055,0.77 -1.665,0.99c-0.61,0.22 -1.225,0.33 -1.845,0.33c-0.62,0 -1.235,-0.11 -1.845,-0.33c-0.61,-0.22 -1.155,-0.55 -1.635,-0.99c-0.5,-0.42 -0.9,-0.95 -1.2,-1.59c-0.3,-0.64 -0.45,-1.41 -0.45,-2.31l0,-11.28Zm3.06,11.28c0,0.74 0.205,1.285 0.615,1.635c0.41,0.35 0.895,0.525 1.455,0.525c0.56,0 1.045,-0.175 1.455,-0.525c0.41,-0.35 0.615,-0.895 0.615,-1.635l0,-11.28c0,-0.74 -0.205,-1.285 -0.615,-1.635c-0.41,-0.35 -0.895,-0.525 -1.455,-0.525c-0.56,0 -1.045,0.175 -1.455,0.525c-0.41,0.35 -0.615,0.895 -0.615,1.635l0,11.28Zm0.12,-17.28l2.7,-4.23l3.24,0l-3.96,4.23l-1.98,0Z" style="fill:#223a76;fill-rule:nonzero;"/><path d="M217.459,242.402l0,-21.36l2.94,0l4.62,12.87l0.06,0l0,-12.87l3.06,0l0,21.36l-2.88,0l-4.68,-12.84l-0.06,0l0,12.84l-3.06,0Z" style="fill:#223a76;fill-rule:nonzero;"/></g></svg>