<?xml version="1.0" encoding="UTF-8" standalone="no"?><!DOCTYPE svg PUBLIC "-//W3C//DTD SVG 1.1//EN" "http://www.w3.org/Graphics/SVG/1.1/DTD/svg11.dtd"><svg viewBox="0 0 600 315" version="1.1" xmlns="http://www.w3.org/2000/svg" xmlns:xlink="http://www.w3.org/1999/xlink" xml:space="preserve" xmlns:serif="http://www.serif.com/" style="fill-rule:evenodd;clip-rule:evenodd;stroke-linejoin:round;stroke-miterlimit:1.41421;"><path d="M99.183,240.838l-51.417,-58.741l-0.54,0l0,58.743l-23.96,0l0,-175.483l23.957,0l0,99.14l0.54,0l44.69,-40.894l29.614,0l-54.649,48.58l61.112,68.655l-29.347,0Zm53.443,-164.326c3.136,2.807 4.711,6.197 4.711,10.161c0,3.964 -1.572,7.396 -4.711,10.285c-3.142,2.893 -6.866,4.34 -11.175,4.34c-4.489,0 -8.255,-1.403 -11.306,-4.216c-3.058,-2.809 -4.576,-6.276 -4.576,-10.409c0,-3.798 1.521,-7.141 4.576,-10.036c3.051,-2.887 6.814,-4.34 11.306,-4.34c4.309,0 8.033,1.406 11.175,4.215Zm-23.021,164.326l0,-117.235l23.96,0l0,117.237l-23.96,0l0,-0.002Zm125.723,0l0,-71.136c0.001,-3.44 -0.225,-6.876 -0.675,-10.291c-0.444,-3.384 -1.383,-6.481 -2.815,-9.293c-1.385,-2.757 -3.564,-5.114 -6.298,-6.815c-2.77,-1.732 -6.476,-2.602 -11.118,-2.602c-6.967,0 -13.623,1.737 -19.963,5.207c-6.344,3.47 -12.015,7.188 -17.014,11.155l0,83.772l-23.961,0l0,-117.232l20.159,0l2.997,13.382c7.331,-4.953 14.443,-8.923 21.329,-11.898c6.887,-2.976 14.803,-4.459 23.751,-4.459c4.651,0 9.212,0.743 13.683,2.232c4.471,1.486 8.498,3.926 12.078,7.31c3.574,3.389 6.44,7.724 8.585,13.011c2.146,5.293 3.22,11.65 3.22,19.084l0,78.567l-23.961,0l0,0.006l0.003,0Zm125.724,-0.125c-7.361,1.732 -15.883,2.6 -25.572,2.6c-9.152,0 -17.767,-1.24 -25.845,-3.721c-8.072,-2.476 -15.124,-6.197 -21.134,-11.15c-6.014,-4.961 -10.815,-11.155 -14.404,-18.589c-3.592,-7.437 -5.383,-16.194 -5.383,-26.278c0,-9.086 1.701,-17.47 5.116,-25.153c3.406,-7.68 8.165,-14.332 14.269,-19.948c6.1,-5.616 13.233,-10.001 21.401,-13.142c8.165,-3.135 17.005,-4.707 26.517,-4.707c4.126,0 7.715,0.169 10.769,0.494c3.055,0.335 5.831,0.744 8.345,1.244l0,-57.006l23.961,0l0,169.284c-4.672,2.315 -10.68,4.337 -18.04,6.072Zm-5.924,-99.258c-2.514,-0.829 -5.026,-1.448 -7.537,-1.862c-2.515,-0.415 -6.017,-0.625 -10.5,-0.625c-6.103,0 -11.847,0.995 -17.23,2.981c-5.299,1.939 -10.109,4.859 -14.133,8.578c-4.036,3.727 -7.226,8.288 -9.561,13.672c-2.334,5.384 -3.501,11.393 -3.501,18.014c0,12.432 3.859,22.662 11.576,30.698c7.715,8.039 19.202,12.059 34.46,12.059c3.025,0.001 6.043,-0.25 9.018,-0.749c2.958,-0.5 5.428,-1.166 7.402,-1.995l0.006,-80.771Zm74.304,100.866c-3.177,0.675 -6.429,1.008 -9.689,0.992c-8.889,0 -15.241,-2.194 -19.055,-6.572c-3.814,-4.373 -5.713,-9.868 -5.713,-16.482l0,-154.902l23.957,0l0,145.242c0,5.121 0.763,8.553 2.293,10.287c1.521,1.738 4.075,2.6 7.67,2.6c0.897,0 1.929,-0.039 3.096,-0.122c1.165,-0.08 2.647,-0.375 4.438,-0.864l2.959,16.111c-3.586,1.812 -6.904,3.05 -9.956,3.71Zm33.38,-55.27c0,5.293 0.897,10.207 2.691,14.752c1.724,4.439 4.377,8.524 7.808,12.022c3.409,3.47 7.58,6.194 12.519,8.18c4.939,1.981 10.635,2.976 17.095,2.976c5.563,0 11.04,-0.785 16.423,-2.36c5.389,-1.566 10.229,-3.505 14.541,-5.82l6.731,14.539c-5.563,3.746 -12.114,6.688 -19.655,8.804c-7.54,2.122 -15.072,3.18 -22.616,3.18c-10.412,0 -19.43,-1.713 -27.057,-5.133c-7.631,-3.425 -13.912,-8.006 -18.845,-13.757c-4.939,-5.744 -8.615,-12.374 -11.039,-19.896c-2.422,-7.514 -3.634,-15.402 -3.634,-23.667c0,-8.423 1.254,-16.274 3.769,-23.543c2.511,-7.271 6.145,-13.636 10.904,-19.083c4.753,-5.454 10.452,-9.708 17.095,-12.763c6.638,-3.061 13.999,-4.589 22.073,-4.589c8.255,0 15.658,1.445 22.206,4.334c6.509,2.862 12.22,7.059 16.693,12.269c4.576,5.293 8.032,11.65 10.367,19.089c2.326,7.431 3.502,15.694 3.502,24.783l0,5.696l-81.577,0l0,-0.013l0.006,0Zm54.519,-28.626c-1.173,-3.716 -2.874,-7.061 -5.119,-10.036c-2.244,-2.976 -5.116,-5.368 -8.615,-7.188c-3.499,-1.821 -7.58,-2.727 -12.249,-2.727c-4.483,0 -8.477,0.829 -11.975,2.478c-3.501,1.651 -6.576,3.976 -9.018,6.815c-2.52,2.893 -4.441,6.238 -5.794,10.039c-1.354,3.843 -2.036,7.859 -2.019,11.899l56.539,0c-0.005,-3.817 -0.594,-7.614 -1.75,-11.28Z" style="fill:url(#_Linear1);fill-rule:nonzero;"/><defs><linearGradient id="_Linear1" x1="0" y1="0" x2="1" y2="0" gradientUnits="userSpaceOnUse" gradientTransform="matrix(541.117,0,0,177.967,23.2656,154.341)"><stop offset="0" style="stop-color:#f78c20;stop-opacity:1"/><stop offset="0.52" style="stop-color:#f6811c;stop-opacity:1"/><stop offset="1" style="stop-color:#f25e0d;stop-opacity:1"/></linearGradient></defs></svg>