<?xml version="1.0" encoding="UTF-8" standalone="no"?><!DOCTYPE svg PUBLIC "-//W3C//DTD SVG 1.1//EN" "http://www.w3.org/Graphics/SVG/1.1/DTD/svg11.dtd"><svg width="100%" height="100%" viewBox="0 0 500 48" version="1.1" xmlns="http://www.w3.org/2000/svg" xmlns:xlink="http://www.w3.org/1999/xlink" xml:space="preserve" xmlns:serif="http://www.serif.com/" style="fill-rule:evenodd;clip-rule:evenodd;stroke-linejoin:round;stroke-miterlimit:1.41421;"><g><path d="M159.228,10.996l0,17.392l-3.953,0l0,-11.741l-1.58,11.741l-2.803,0l-1.665,-11.473l0,11.473l-3.953,0l0,-17.392l5.854,0c0.172,1.046 0.355,2.278 0.548,3.696l0.623,4.425l1.031,-8.121l5.898,0Z" style="fill-rule:nonzero;"/><path d="M170.851,14.133l0,14.255l-4.415,0l0.075,-1.182c-0.301,0.48 -0.671,0.84 -1.112,1.08c-0.44,0.24 -0.947,0.36 -1.52,0.36c-0.652,0 -1.192,-0.115 -1.622,-0.344c-0.43,-0.229 -0.747,-0.534 -0.951,-0.913c-0.204,-0.38 -0.331,-0.775 -0.381,-1.187c-0.05,-0.412 -0.075,-1.23 -0.075,-2.455l0,-9.614l4.34,0l0,9.7c0,1.11 0.034,1.769 0.102,1.977c0.068,0.208 0.252,0.311 0.553,0.311c0.322,0 0.514,-0.107 0.575,-0.322c0.06,-0.215 0.091,-0.906 0.091,-2.073l0,-9.593l4.34,0Z" style="fill-rule:nonzero;"/><path d="M181.271,18.688l-3.846,0l0,-0.774c0,-0.659 -0.038,-1.076 -0.113,-1.251c-0.075,-0.176 -0.263,-0.263 -0.564,-0.263c-0.243,0 -0.426,0.08 -0.548,0.241c-0.121,0.162 -0.182,0.403 -0.182,0.725c0,0.437 0.03,0.758 0.091,0.962c0.061,0.204 0.244,0.428 0.548,0.671c0.304,0.244 0.929,0.598 1.874,1.064c1.261,0.616 2.088,1.196 2.482,1.74c0.394,0.544 0.591,1.336 0.591,2.374c0,1.16 -0.151,2.036 -0.451,2.626c-0.301,0.591 -0.804,1.046 -1.51,1.365c-0.705,0.318 -1.556,0.478 -2.551,0.478c-1.103,0 -2.046,-0.172 -2.831,-0.516c-0.784,-0.344 -1.323,-0.809 -1.616,-1.396c-0.294,-0.588 -0.441,-1.476 -0.441,-2.664l0,-0.688l3.846,0l0,0.902c0,0.767 0.048,1.264 0.145,1.494c0.097,0.229 0.288,0.343 0.575,0.343c0.308,0 0.523,-0.077 0.644,-0.231c0.122,-0.154 0.183,-0.478 0.183,-0.972c0,-0.68 -0.079,-1.106 -0.236,-1.278c-0.165,-0.172 -1.007,-0.68 -2.525,-1.525c-1.275,-0.717 -2.052,-1.367 -2.331,-1.95c-0.279,-0.584 -0.419,-1.277 -0.419,-2.079c0,-1.138 0.151,-1.978 0.451,-2.519c0.301,-0.541 0.811,-0.958 1.531,-1.251c0.72,-0.294 1.556,-0.441 2.508,-0.441c0.946,0 1.75,0.12 2.412,0.36c0.662,0.24 1.171,0.557 1.525,0.951c0.355,0.394 0.57,0.759 0.645,1.096c0.075,0.336 0.113,0.862 0.113,1.579l0,0.827Z" style="fill-rule:nonzero;"/><path d="M192.593,21.513l-5.618,0l0,3.083c0,0.645 0.046,1.06 0.139,1.246c0.094,0.186 0.273,0.279 0.538,0.279c0.329,0 0.549,-0.123 0.66,-0.37c0.111,-0.247 0.167,-0.725 0.167,-1.434l0,-1.88l4.114,0l0,1.053c0,0.88 -0.056,1.557 -0.167,2.03c-0.111,0.472 -0.37,0.977 -0.778,1.514c-0.409,0.538 -0.926,0.94 -1.553,1.209c-0.626,0.268 -1.412,0.403 -2.358,0.403c-0.916,0 -1.725,-0.133 -2.427,-0.398c-0.702,-0.265 -1.248,-0.628 -1.638,-1.09c-0.391,-0.462 -0.661,-0.97 -0.811,-1.525c-0.151,-0.555 -0.226,-1.363 -0.226,-2.423l0,-4.157c0,-1.246 0.168,-2.229 0.505,-2.949c0.336,-0.719 0.888,-1.271 1.654,-1.654c0.766,-0.383 1.647,-0.575 2.643,-0.575c1.217,0 2.222,0.231 3.013,0.693c0.791,0.462 1.346,1.074 1.665,1.837c0.319,0.763 0.478,1.835 0.478,3.217l0,1.891Zm-4.351,-2.32l0,-1.042c0,-0.738 -0.039,-1.214 -0.118,-1.429c-0.079,-0.215 -0.24,-0.322 -0.483,-0.322c-0.301,0 -0.487,0.091 -0.559,0.274c-0.071,0.182 -0.107,0.675 -0.107,1.477l0,1.042l1.267,0Z" style="fill-rule:nonzero;"/><path d="M203.829,19.139l0,3.491c0,1.282 -0.064,2.222 -0.193,2.82c-0.129,0.598 -0.405,1.157 -0.827,1.676c-0.423,0.519 -0.965,0.902 -1.628,1.149c-0.662,0.247 -1.423,0.371 -2.282,0.371c-0.96,0 -1.773,-0.106 -2.439,-0.317c-0.666,-0.211 -1.183,-0.53 -1.552,-0.956c-0.369,-0.426 -0.632,-0.942 -0.79,-1.547c-0.157,-0.605 -0.236,-1.513 -0.236,-2.723l0,-3.653c0,-1.324 0.143,-2.359 0.43,-3.104c0.286,-0.745 0.802,-1.343 1.547,-1.794c0.744,-0.451 1.697,-0.677 2.857,-0.677c0.974,0 1.81,0.145 2.508,0.435c0.699,0.29 1.237,0.668 1.617,1.134c0.38,0.465 0.639,0.945 0.779,1.439c0.139,0.494 0.209,1.246 0.209,2.256Zm-4.34,-1.074c0,-0.731 -0.039,-1.191 -0.118,-1.381c-0.078,-0.189 -0.247,-0.284 -0.505,-0.284c-0.257,0 -0.429,0.095 -0.515,0.284c-0.086,0.19 -0.129,0.65 -0.129,1.381l0,6.434c0,0.673 0.043,1.112 0.129,1.316c0.086,0.204 0.254,0.306 0.505,0.306c0.257,0 0.428,-0.093 0.51,-0.279c0.082,-0.186 0.123,-0.587 0.123,-1.203l0,-6.574Z" style="fill-rule:nonzero;"/><path d="M217.074,10.996l2.589,17.392l-4.63,0l-0.225,-3.126l-1.622,0l-0.269,3.126l-4.683,0l2.298,-17.392l6.542,0Zm-2.395,11.183c-0.229,-1.969 -0.458,-4.401 -0.688,-7.294c-0.458,3.323 -0.744,5.754 -0.859,7.294l1.547,0Z" style="fill-rule:nonzero;"/><path d="M224.648,14.133l-0.172,1.869c0.63,-1.339 1.543,-2.048 2.739,-2.127l0,5.017c-0.795,0 -1.379,0.107 -1.751,0.322c-0.372,0.215 -0.602,0.514 -0.687,0.897c-0.086,0.383 -0.129,1.266 -0.129,2.648l0,5.629l-4.34,0l0,-14.255l4.34,0Z" style="fill-rule:nonzero;"/><path d="M233.155,12.232l0,2.245l1.171,0l0,2.256l-1.171,0l0,7.627c0,0.938 0.049,1.461 0.145,1.568c0.097,0.107 0.5,0.161 1.209,0.161l0,2.299l-1.751,0c-0.988,0 -1.694,-0.041 -2.116,-0.124c-0.423,-0.082 -0.795,-0.272 -1.117,-0.569c-0.323,-0.297 -0.523,-0.637 -0.602,-1.02c-0.079,-0.384 -0.118,-1.284 -0.118,-2.702l0,-7.24l-0.935,0l0,-2.256l0.935,0l0,-2.245l4.35,0Z" style="fill-rule:nonzero;"/><path d="M245.112,21.513l-5.619,0l0,3.083c0,0.645 0.047,1.06 0.14,1.246c0.093,0.186 0.272,0.279 0.537,0.279c0.33,0 0.55,-0.123 0.661,-0.37c0.111,-0.247 0.166,-0.725 0.166,-1.434l0,-1.88l4.115,0l0,1.053c0,0.88 -0.056,1.557 -0.167,2.03c-0.111,0.472 -0.371,0.977 -0.779,1.514c-0.408,0.538 -0.925,0.94 -1.552,1.209c-0.627,0.268 -1.413,0.403 -2.358,0.403c-0.917,0 -1.726,-0.133 -2.428,-0.398c-0.702,-0.265 -1.248,-0.628 -1.638,-1.09c-0.39,-0.462 -0.661,-0.97 -0.811,-1.525c-0.15,-0.555 -0.225,-1.363 -0.225,-2.423l0,-4.157c0,-1.246 0.168,-2.229 0.504,-2.949c0.337,-0.719 0.888,-1.271 1.655,-1.654c0.766,-0.383 1.647,-0.575 2.642,-0.575c1.218,0 2.222,0.231 3.013,0.693c0.792,0.462 1.347,1.074 1.665,1.837c0.319,0.763 0.479,1.835 0.479,3.217l0,1.891Zm-4.351,-2.32l0,-1.042c0,-0.738 -0.039,-1.214 -0.118,-1.429c-0.079,-0.215 -0.24,-0.322 -0.484,-0.322c-0.3,0 -0.487,0.091 -0.558,0.274c-0.072,0.182 -0.108,0.675 -0.108,1.477l0,1.042l1.268,0Z" style="fill-rule:nonzero;"/><path d="M259.495,14.133l-1.246,10.313c-0.193,1.632 -0.356,2.746 -0.489,3.34c-0.132,0.595 -0.352,1.085 -0.66,1.472c-0.308,0.387 -0.736,0.671 -1.284,0.854c-0.548,0.183 -1.423,0.274 -2.626,0.274l-2.632,0l0,-2.277c0.673,0 1.106,-0.034 1.3,-0.102c0.193,-0.068 0.29,-0.221 0.29,-0.457c0,-0.115 -0.09,-0.612 -0.269,-1.493l-2.374,-11.924l3.942,0l1.418,9.614l0.688,-9.614l3.942,0Z" style="fill-rule:nonzero;"/><path d="M274.835,18.58l-4.522,0l0,-3.029c0,-0.881 -0.049,-1.43 -0.145,-1.649c-0.097,-0.218 -0.31,-0.328 -0.639,-0.328c-0.373,0 -0.609,0.133 -0.709,0.398c-0.101,0.265 -0.151,0.838 -0.151,1.719l0,8.078c0,0.845 0.05,1.396 0.151,1.654c0.1,0.258 0.325,0.387 0.676,0.387c0.337,0 0.557,-0.129 0.661,-0.387c0.104,-0.258 0.156,-0.863 0.156,-1.815l0,-2.181l4.522,0l0,0.677c0,1.797 -0.127,3.072 -0.381,3.824c-0.254,0.752 -0.817,1.411 -1.687,1.977c-0.87,0.565 -1.942,0.848 -3.217,0.848c-1.325,0 -2.417,-0.24 -3.276,-0.72c-0.86,-0.479 -1.429,-1.144 -1.708,-1.992c-0.28,-0.849 -0.419,-2.125 -0.419,-3.83l0,-5.081c0,-1.253 0.043,-2.193 0.129,-2.82c0.086,-0.626 0.342,-1.23 0.768,-1.81c0.426,-0.58 1.017,-1.036 1.772,-1.369c0.756,-0.333 1.624,-0.5 2.605,-0.5c1.332,0 2.431,0.258 3.298,0.774c0.866,0.515 1.436,1.158 1.708,1.928c0.272,0.77 0.408,1.967 0.408,3.593l0,1.654Z" style="fill-rule:nonzero;"/><path d="M280.797,10.996l0,2.267l-4.469,0l0,-2.267l4.469,0Zm0,3.137l0,14.255l-4.469,0l0,-14.255l4.469,0Z" style="fill-rule:nonzero;"/><path d="M292.291,14.133l0,14.255l-4.415,0l0.075,-1.182c-0.3,0.48 -0.671,0.84 -1.111,1.08c-0.441,0.24 -0.948,0.36 -1.52,0.36c-0.652,0 -1.193,-0.115 -1.623,-0.344c-0.429,-0.229 -0.746,-0.534 -0.95,-0.913c-0.204,-0.38 -0.331,-0.775 -0.382,-1.187c-0.05,-0.412 -0.075,-1.23 -0.075,-2.455l0,-9.614l4.34,0l0,9.7c0,1.11 0.034,1.769 0.102,1.977c0.068,0.208 0.253,0.311 0.553,0.311c0.323,0 0.514,-0.107 0.575,-0.322c0.061,-0.215 0.091,-0.906 0.091,-2.073l0,-9.593l4.34,0Z" style="fill-rule:nonzero;"/><path d="M303.721,10.996l0,17.392l-4.34,0l0,-1.031c-0.415,0.429 -0.852,0.752 -1.311,0.967c-0.458,0.214 -0.938,0.322 -1.439,0.322c-0.673,0 -1.257,-0.177 -1.751,-0.532c-0.494,-0.354 -0.811,-0.764 -0.951,-1.23c-0.139,-0.465 -0.209,-1.225 -0.209,-2.277l0,-6.671c0,-1.096 0.07,-1.873 0.209,-2.331c0.14,-0.459 0.461,-0.861 0.962,-1.209c0.501,-0.347 1.099,-0.521 1.794,-0.521c0.537,0 1.029,0.097 1.477,0.29c0.447,0.194 0.854,0.484 1.219,0.87l0,-4.039l4.34,0Zm-4.34,6.725c0,-0.523 -0.045,-0.874 -0.134,-1.053c-0.09,-0.179 -0.267,-0.268 -0.532,-0.268c-0.258,0 -0.431,0.08 -0.521,0.241c-0.089,0.162 -0.134,0.521 -0.134,1.08l0,6.982c0,0.58 0.043,0.962 0.129,1.144c0.086,0.183 0.25,0.274 0.494,0.274c0.279,0 0.465,-0.102 0.558,-0.306c0.093,-0.204 0.14,-0.703 0.14,-1.498l0,-6.596Z" style="fill-rule:nonzero;"/><path d="M309.156,19.655l-4.071,0l0,-0.956c0,-1.103 0.127,-1.954 0.381,-2.552c0.255,-0.598 0.765,-1.126 1.531,-1.584c0.767,-0.459 1.762,-0.688 2.987,-0.688c1.468,0 2.574,0.26 3.319,0.779c0.745,0.519 1.192,1.157 1.343,1.912c0.15,0.756 0.225,2.312 0.225,4.668l0,7.154l-4.221,0l0,-1.268c-0.265,0.509 -0.607,0.89 -1.026,1.144c-0.419,0.255 -0.919,0.382 -1.499,0.382c-0.759,0 -1.455,-0.213 -2.089,-0.639c-0.634,-0.426 -0.951,-1.359 -0.951,-2.799l0,-1.171c0,-1.067 0.168,-1.794 0.505,-2.18c0.337,-0.387 1.171,-0.838 2.503,-1.354c1.425,-0.558 2.188,-0.934 2.288,-1.128c0.1,-0.193 0.15,-0.587 0.15,-1.181c0,-0.745 -0.055,-1.23 -0.166,-1.456c-0.111,-0.226 -0.295,-0.338 -0.553,-0.338c-0.294,0 -0.477,0.095 -0.548,0.284c-0.072,0.19 -0.108,0.682 -0.108,1.477l0,1.494Zm1.375,1.955c-0.694,0.508 -1.097,0.934 -1.208,1.278c-0.111,0.344 -0.167,0.838 -0.167,1.482c0,0.738 0.049,1.214 0.145,1.429c0.097,0.215 0.289,0.322 0.575,0.322c0.272,0 0.45,-0.084 0.532,-0.252c0.082,-0.168 0.123,-0.611 0.123,-1.327l0,-2.932Z" style="fill-rule:nonzero;"/><path d="M326.237,10.996l0,17.392l-4.34,0l0,-1.031c-0.416,0.429 -0.853,0.752 -1.311,0.967c-0.458,0.214 -0.938,0.322 -1.439,0.322c-0.674,0 -1.257,-0.177 -1.751,-0.532c-0.494,-0.354 -0.811,-0.764 -0.951,-1.23c-0.14,-0.465 -0.209,-1.225 -0.209,-2.277l0,-6.671c0,-1.096 0.069,-1.873 0.209,-2.331c0.14,-0.459 0.46,-0.861 0.961,-1.209c0.502,-0.347 1.1,-0.521 1.794,-0.521c0.537,0 1.03,0.097 1.477,0.29c0.448,0.194 0.854,0.484 1.22,0.87l0,-4.039l4.34,0Zm-4.34,6.725c0,-0.523 -0.045,-0.874 -0.135,-1.053c-0.089,-0.179 -0.266,-0.268 -0.531,-0.268c-0.258,0 -0.432,0.08 -0.521,0.241c-0.09,0.162 -0.135,0.521 -0.135,1.08l0,6.982c0,0.58 0.043,0.962 0.129,1.144c0.086,0.183 0.251,0.274 0.494,0.274c0.28,0 0.466,-0.102 0.559,-0.306c0.093,-0.204 0.14,-0.703 0.14,-1.498l0,-6.596Z" style="fill-rule:nonzero;"/></g><g><path d="M249.372,39.718c-0.224,0.206 -0.509,0.364 -0.854,0.476c-0.345,0.112 -0.709,0.168 -1.092,0.168c-0.439,0 -0.819,-0.086 -1.141,-0.259c-0.322,-0.172 -0.588,-0.42 -0.798,-0.742c-0.21,-0.322 -0.364,-0.707 -0.462,-1.155c-0.098,-0.448 -0.147,-0.952 -0.147,-1.512c0,-1.194 0.219,-2.104 0.658,-2.73c0.439,-0.625 1.059,-0.938 1.862,-0.938c0.261,0 0.52,0.033 0.777,0.098c0.257,0.066 0.488,0.196 0.693,0.392c0.205,0.196 0.371,0.472 0.497,0.826c0.126,0.355 0.189,0.817 0.189,1.386c0,0.159 -0.007,0.329 -0.021,0.511c-0.014,0.182 -0.03,0.371 -0.049,0.567l-3.556,0c0,0.402 0.033,0.766 0.098,1.092c0.065,0.327 0.168,0.605 0.308,0.833c0.14,0.229 0.32,0.406 0.539,0.532c0.219,0.126 0.492,0.189 0.819,0.189c0.252,0 0.502,-0.046 0.749,-0.14c0.247,-0.093 0.436,-0.205 0.567,-0.336l0.364,0.742Zm-0.784,-3.752c0.019,-0.7 -0.079,-1.213 -0.294,-1.54c-0.215,-0.326 -0.509,-0.49 -0.882,-0.49c-0.429,0 -0.77,0.164 -1.022,0.49c-0.252,0.327 -0.401,0.84 -0.448,1.54l2.646,0Z" style="fill-rule:nonzero;"/><path d="M254.552,40.194l0,-4.27c0,-0.7 -0.082,-1.206 -0.245,-1.519c-0.163,-0.312 -0.455,-0.469 -0.875,-0.469c-0.373,0 -0.681,0.112 -0.924,0.336c-0.243,0.224 -0.42,0.5 -0.532,0.826l0,5.096l-1.008,0l0,-7l0.728,0l0.182,0.742l0.042,0c0.177,-0.252 0.418,-0.466 0.721,-0.644c0.303,-0.177 0.665,-0.266 1.085,-0.266c0.299,0 0.562,0.042 0.791,0.126c0.229,0.084 0.42,0.227 0.574,0.427c0.154,0.201 0.271,0.469 0.35,0.805c0.079,0.336 0.119,0.761 0.119,1.274l0,4.536l-1.008,0Z" style="fill-rule:nonzero;"/><path d="M261.16,38.528c0,0.327 0.044,0.56 0.133,0.7c0.089,0.14 0.212,0.21 0.371,0.21c0.196,0 0.425,-0.051 0.686,-0.154l0.098,0.812c-0.121,0.075 -0.292,0.136 -0.511,0.182c-0.219,0.047 -0.418,0.07 -0.595,0.07c-0.355,0 -0.642,-0.109 -0.861,-0.329c-0.219,-0.219 -0.329,-0.604 -0.329,-1.155l0,-8.47l1.008,0l0,8.134Z" style="fill-rule:nonzero;"/><path d="M263.036,36.694c0,-1.26 0.217,-2.186 0.651,-2.779c0.434,-0.592 1.052,-0.889 1.855,-0.889c0.859,0 1.491,0.304 1.897,0.91c0.406,0.607 0.609,1.526 0.609,2.758c0,1.27 -0.219,2.198 -0.658,2.786c-0.439,0.588 -1.055,0.882 -1.848,0.882c-0.859,0 -1.491,-0.303 -1.897,-0.91c-0.406,-0.606 -0.609,-1.526 -0.609,-2.758Zm1.05,0c0,0.411 0.026,0.784 0.077,1.12c0.051,0.336 0.135,0.626 0.252,0.868c0.117,0.243 0.268,0.432 0.455,0.567c0.187,0.136 0.411,0.203 0.672,0.203c0.485,0 0.849,-0.217 1.092,-0.651c0.243,-0.434 0.364,-1.136 0.364,-2.107c0,-0.401 -0.026,-0.772 -0.077,-1.113c-0.051,-0.34 -0.135,-0.632 -0.252,-0.875c-0.117,-0.242 -0.268,-0.431 -0.455,-0.567c-0.187,-0.135 -0.411,-0.203 -0.672,-0.203c-0.476,0 -0.838,0.22 -1.085,0.658c-0.247,0.439 -0.371,1.139 -0.371,2.1Z" style="fill-rule:nonzero;"/><path d="M269.28,39.046c0.187,0.112 0.408,0.208 0.665,0.287c0.257,0.08 0.52,0.119 0.791,0.119c0.308,0 0.569,-0.077 0.784,-0.231c0.215,-0.154 0.322,-0.403 0.322,-0.749c0,-0.289 -0.065,-0.527 -0.196,-0.714c-0.131,-0.186 -0.296,-0.354 -0.497,-0.504c-0.201,-0.149 -0.418,-0.287 -0.651,-0.413c-0.233,-0.126 -0.45,-0.277 -0.651,-0.455c-0.201,-0.177 -0.366,-0.387 -0.497,-0.63c-0.131,-0.242 -0.196,-0.55 -0.196,-0.924c0,-0.597 0.161,-1.047 0.483,-1.351c0.322,-0.303 0.777,-0.455 1.365,-0.455c0.383,0 0.714,0.035 0.994,0.105c0.28,0.07 0.523,0.166 0.728,0.287l-0.266,0.84c-0.177,-0.093 -0.383,-0.17 -0.616,-0.231c-0.233,-0.06 -0.471,-0.091 -0.714,-0.091c-0.336,0 -0.581,0.07 -0.735,0.21c-0.154,0.14 -0.231,0.36 -0.231,0.658c0,0.234 0.065,0.432 0.196,0.595c0.131,0.164 0.296,0.313 0.497,0.448c0.201,0.136 0.418,0.273 0.651,0.413c0.233,0.14 0.45,0.306 0.651,0.497c0.201,0.192 0.366,0.42 0.497,0.686c0.131,0.266 0.196,0.6 0.196,1.001c0,0.262 -0.042,0.509 -0.126,0.742c-0.084,0.234 -0.212,0.437 -0.385,0.609c-0.173,0.173 -0.387,0.311 -0.644,0.413c-0.257,0.103 -0.558,0.154 -0.903,0.154c-0.411,0 -0.765,-0.039 -1.064,-0.119c-0.299,-0.079 -0.551,-0.184 -0.756,-0.315l0.308,-0.882Z" style="fill-rule:nonzero;"/><path d="M280.368,40.194l0,-4.158c0,-0.373 -0.012,-0.693 -0.035,-0.959c-0.023,-0.266 -0.072,-0.483 -0.147,-0.651c-0.075,-0.168 -0.177,-0.291 -0.308,-0.371c-0.131,-0.079 -0.303,-0.119 -0.518,-0.119c-0.317,0 -0.586,0.124 -0.805,0.371c-0.219,0.248 -0.371,0.53 -0.455,0.847l0,5.04l-1.008,0l0,-7l0.714,0l0.182,0.742l0.042,0c0.196,-0.27 0.429,-0.49 0.7,-0.658c0.271,-0.168 0.616,-0.252 1.036,-0.252c0.355,0 0.646,0.077 0.875,0.231c0.229,0.154 0.408,0.427 0.539,0.819c0.168,-0.326 0.408,-0.583 0.721,-0.77c0.313,-0.186 0.656,-0.28 1.029,-0.28c0.308,0 0.572,0.04 0.791,0.119c0.219,0.08 0.397,0.22 0.532,0.42c0.135,0.201 0.236,0.467 0.301,0.798c0.065,0.332 0.098,0.749 0.098,1.253l0,4.578l-1.008,0l0,-4.452c0,-0.606 -0.058,-1.059 -0.175,-1.358c-0.117,-0.298 -0.385,-0.448 -0.805,-0.448c-0.355,0 -0.637,0.11 -0.847,0.329c-0.21,0.22 -0.357,0.516 -0.441,0.889l0,5.04l-1.008,0Z" style="fill-rule:nonzero;"/><path d="M290.392,39.718c-0.224,0.206 -0.509,0.364 -0.854,0.476c-0.345,0.112 -0.709,0.168 -1.092,0.168c-0.439,0 -0.819,-0.086 -1.141,-0.259c-0.322,-0.172 -0.588,-0.42 -0.798,-0.742c-0.21,-0.322 -0.364,-0.707 -0.462,-1.155c-0.098,-0.448 -0.147,-0.952 -0.147,-1.512c0,-1.194 0.219,-2.104 0.658,-2.73c0.439,-0.625 1.059,-0.938 1.862,-0.938c0.261,0 0.52,0.033 0.777,0.098c0.257,0.066 0.488,0.196 0.693,0.392c0.205,0.196 0.371,0.472 0.497,0.826c0.126,0.355 0.189,0.817 0.189,1.386c0,0.159 -0.007,0.329 -0.021,0.511c-0.014,0.182 -0.03,0.371 -0.049,0.567l-3.556,0c0,0.402 0.033,0.766 0.098,1.092c0.065,0.327 0.168,0.605 0.308,0.833c0.14,0.229 0.32,0.406 0.539,0.532c0.219,0.126 0.492,0.189 0.819,0.189c0.252,0 0.502,-0.046 0.749,-0.14c0.247,-0.093 0.436,-0.205 0.567,-0.336l0.364,0.742Zm-0.784,-3.752c0.019,-0.7 -0.079,-1.213 -0.294,-1.54c-0.215,-0.326 -0.509,-0.49 -0.882,-0.49c-0.429,0 -0.77,0.164 -1.022,0.49c-0.252,0.327 -0.401,0.84 -0.448,1.54l2.646,0Z" style="fill-rule:nonzero;"/><path d="M296.398,37.786c0,0.476 0.005,0.908 0.014,1.295c0.009,0.388 0.042,0.768 0.098,1.141l-0.686,0l-0.224,-0.84l-0.056,0c-0.131,0.28 -0.336,0.514 -0.616,0.7c-0.28,0.187 -0.616,0.28 -1.008,0.28c-0.756,0 -1.318,-0.294 -1.687,-0.882c-0.369,-0.588 -0.553,-1.512 -0.553,-2.772c0,-1.194 0.226,-2.1 0.679,-2.716c0.453,-0.616 1.076,-0.924 1.869,-0.924c0.271,0 0.485,0.017 0.644,0.049c0.159,0.033 0.331,0.087 0.518,0.161l0,-2.884l1.008,0l0,7.392Zm-1.008,-3.486c-0.131,-0.112 -0.278,-0.193 -0.441,-0.245c-0.163,-0.051 -0.38,-0.077 -0.651,-0.077c-0.495,0 -0.88,0.224 -1.155,0.672c-0.275,0.448 -0.413,1.139 -0.413,2.072c0,0.411 0.026,0.782 0.077,1.113c0.051,0.332 0.131,0.619 0.238,0.861c0.107,0.243 0.247,0.43 0.42,0.56c0.173,0.131 0.385,0.196 0.637,0.196c0.672,0 1.101,-0.396 1.288,-1.19l0,-3.962Z" style="fill-rule:nonzero;"/><path d="M298.218,33.194l1.008,0l0,7l-1.008,0l0,-7Zm-0.182,-2.128c0,-0.224 0.063,-0.406 0.189,-0.546c0.126,-0.14 0.292,-0.21 0.497,-0.21c0.205,0 0.376,0.068 0.511,0.203c0.135,0.136 0.203,0.32 0.203,0.553c0,0.224 -0.068,0.399 -0.203,0.525c-0.135,0.126 -0.306,0.189 -0.511,0.189c-0.205,0 -0.371,-0.065 -0.497,-0.196c-0.126,-0.13 -0.189,-0.303 -0.189,-0.518Z" style="fill-rule:nonzero;"/><path d="M300.78,36.694c0,-1.26 0.217,-2.186 0.651,-2.779c0.434,-0.592 1.052,-0.889 1.855,-0.889c0.859,0 1.491,0.304 1.897,0.91c0.406,0.607 0.609,1.526 0.609,2.758c0,1.27 -0.219,2.198 -0.658,2.786c-0.439,0.588 -1.055,0.882 -1.848,0.882c-0.859,0 -1.491,-0.303 -1.897,-0.91c-0.406,-0.606 -0.609,-1.526 -0.609,-2.758Zm1.05,0c0,0.411 0.026,0.784 0.077,1.12c0.051,0.336 0.135,0.626 0.252,0.868c0.117,0.243 0.268,0.432 0.455,0.567c0.187,0.136 0.411,0.203 0.672,0.203c0.485,0 0.849,-0.217 1.092,-0.651c0.243,-0.434 0.364,-1.136 0.364,-2.107c0,-0.401 -0.026,-0.772 -0.077,-1.113c-0.051,-0.34 -0.135,-0.632 -0.252,-0.875c-0.117,-0.242 -0.268,-0.431 -0.455,-0.567c-0.187,-0.135 -0.411,-0.203 -0.672,-0.203c-0.476,0 -0.838,0.22 -1.085,0.658c-0.247,0.439 -0.371,1.139 -0.371,2.1Z" style="fill-rule:nonzero;"/><path d="M307.024,39.046c0.187,0.112 0.408,0.208 0.665,0.287c0.257,0.08 0.52,0.119 0.791,0.119c0.308,0 0.569,-0.077 0.784,-0.231c0.215,-0.154 0.322,-0.403 0.322,-0.749c0,-0.289 -0.065,-0.527 -0.196,-0.714c-0.131,-0.186 -0.296,-0.354 -0.497,-0.504c-0.201,-0.149 -0.418,-0.287 -0.651,-0.413c-0.233,-0.126 -0.45,-0.277 -0.651,-0.455c-0.201,-0.177 -0.366,-0.387 -0.497,-0.63c-0.131,-0.242 -0.196,-0.55 -0.196,-0.924c0,-0.597 0.161,-1.047 0.483,-1.351c0.322,-0.303 0.777,-0.455 1.365,-0.455c0.383,0 0.714,0.035 0.994,0.105c0.28,0.07 0.523,0.166 0.728,0.287l-0.266,0.84c-0.177,-0.093 -0.383,-0.17 -0.616,-0.231c-0.233,-0.06 -0.471,-0.091 -0.714,-0.091c-0.336,0 -0.581,0.07 -0.735,0.21c-0.154,0.14 -0.231,0.36 -0.231,0.658c0,0.234 0.065,0.432 0.196,0.595c0.131,0.164 0.296,0.313 0.497,0.448c0.201,0.136 0.418,0.273 0.651,0.413c0.233,0.14 0.45,0.306 0.651,0.497c0.201,0.192 0.366,0.42 0.497,0.686c0.131,0.266 0.196,0.6 0.196,1.001c0,0.262 -0.042,0.509 -0.126,0.742c-0.084,0.234 -0.212,0.437 -0.385,0.609c-0.173,0.173 -0.387,0.311 -0.644,0.413c-0.257,0.103 -0.558,0.154 -0.903,0.154c-0.411,0 -0.765,-0.039 -1.064,-0.119c-0.299,-0.079 -0.551,-0.184 -0.756,-0.315l0.308,-0.882Z" style="fill-rule:nonzero;"/><path d="M319.246,37.786c0,0.476 0.005,0.908 0.014,1.295c0.009,0.388 0.042,0.768 0.098,1.141l-0.686,0l-0.224,-0.84l-0.056,0c-0.131,0.28 -0.336,0.514 -0.616,0.7c-0.28,0.187 -0.616,0.28 -1.008,0.28c-0.756,0 -1.318,-0.294 -1.687,-0.882c-0.369,-0.588 -0.553,-1.512 -0.553,-2.772c0,-1.194 0.226,-2.1 0.679,-2.716c0.453,-0.616 1.076,-0.924 1.869,-0.924c0.271,0 0.485,0.017 0.644,0.049c0.159,0.033 0.331,0.087 0.518,0.161l0,-2.884l1.008,0l0,7.392Zm-1.008,-3.486c-0.131,-0.112 -0.278,-0.193 -0.441,-0.245c-0.163,-0.051 -0.38,-0.077 -0.651,-0.077c-0.495,0 -0.88,0.224 -1.155,0.672c-0.275,0.448 -0.413,1.139 -0.413,2.072c0,0.411 0.026,0.782 0.077,1.113c0.051,0.332 0.131,0.619 0.238,0.861c0.107,0.243 0.247,0.43 0.42,0.56c0.173,0.131 0.385,0.196 0.637,0.196c0.672,0 1.101,-0.396 1.288,-1.19l0,-3.962Z" style="fill-rule:nonzero;"/><path d="M321.066,33.194l1.008,0l0,7l-1.008,0l0,-7Zm-0.182,-2.128c0,-0.224 0.063,-0.406 0.189,-0.546c0.126,-0.14 0.292,-0.21 0.497,-0.21c0.205,0 0.376,0.068 0.511,0.203c0.135,0.136 0.203,0.32 0.203,0.553c0,0.224 -0.068,0.399 -0.203,0.525c-0.135,0.126 -0.306,0.189 -0.511,0.189c-0.205,0 -0.371,-0.065 -0.497,-0.196c-0.126,-0.13 -0.189,-0.303 -0.189,-0.518Z" style="fill-rule:nonzero;"/><path d="M328.346,40.516c0,0.906 -0.201,1.573 -0.602,2.002c-0.401,0.43 -0.985,0.644 -1.75,0.644c-0.467,0 -0.849,-0.039 -1.148,-0.119c-0.299,-0.079 -0.541,-0.17 -0.728,-0.273l0.294,-0.868c0.187,0.084 0.392,0.164 0.616,0.238c0.224,0.075 0.499,0.112 0.826,0.112c0.569,0 0.959,-0.158 1.169,-0.476c0.21,-0.317 0.315,-0.849 0.315,-1.596l0,-0.518l-0.042,0c-0.149,0.215 -0.341,0.383 -0.574,0.504c-0.233,0.122 -0.532,0.182 -0.896,0.182c-0.756,0 -1.311,-0.291 -1.666,-0.875c-0.355,-0.583 -0.532,-1.5 -0.532,-2.751c0,-1.204 0.231,-2.114 0.693,-2.73c0.462,-0.616 1.146,-0.924 2.051,-0.924c0.439,0 0.817,0.042 1.134,0.126c0.317,0.084 0.597,0.182 0.84,0.294l0,7.028Zm-1.008,-6.314c-0.28,-0.149 -0.639,-0.224 -1.078,-0.224c-0.476,0 -0.859,0.217 -1.148,0.651c-0.289,0.434 -0.434,1.127 -0.434,2.079c0,0.392 0.023,0.754 0.07,1.085c0.047,0.332 0.126,0.621 0.238,0.868c0.112,0.248 0.254,0.439 0.427,0.574c0.173,0.136 0.385,0.203 0.637,0.203c0.355,0 0.635,-0.093 0.84,-0.28c0.205,-0.186 0.355,-0.466 0.448,-0.84l0,-4.116Z" style="fill-rule:nonzero;"/><path d="M330.152,33.194l1.008,0l0,7l-1.008,0l0,-7Zm-0.182,-2.128c0,-0.224 0.063,-0.406 0.189,-0.546c0.126,-0.14 0.292,-0.21 0.497,-0.21c0.205,0 0.376,0.068 0.511,0.203c0.135,0.136 0.203,0.32 0.203,0.553c0,0.224 -0.068,0.399 -0.203,0.525c-0.135,0.126 -0.306,0.189 -0.511,0.189c-0.205,0 -0.371,-0.065 -0.497,-0.196c-0.126,-0.13 -0.189,-0.303 -0.189,-0.518Z" style="fill-rule:nonzero;"/><path d="M332.322,33.194l0.854,0l0,-1.386l1.008,-0.322l0,1.708l1.512,0l0,0.91l-1.512,0l0,4.172c0,0.411 0.049,0.707 0.147,0.889c0.098,0.182 0.259,0.273 0.483,0.273c0.187,0 0.348,-0.021 0.483,-0.063c0.135,-0.042 0.282,-0.095 0.441,-0.161l0.196,0.798c-0.205,0.103 -0.432,0.185 -0.679,0.245c-0.247,0.061 -0.506,0.091 -0.777,0.091c-0.467,0 -0.8,-0.151 -1.001,-0.455c-0.201,-0.303 -0.301,-0.795 -0.301,-1.477l0,-4.312l-0.854,0l0,-0.91Z" style="fill-rule:nonzero;"/><path d="M336.802,33.614c0.271,-0.168 0.6,-0.298 0.987,-0.392c0.387,-0.093 0.796,-0.14 1.225,-0.14c0.392,0 0.707,0.059 0.945,0.175c0.238,0.117 0.425,0.276 0.56,0.476c0.135,0.201 0.224,0.43 0.266,0.686c0.042,0.257 0.063,0.525 0.063,0.805c0,0.56 -0.012,1.106 -0.035,1.638c-0.023,0.532 -0.035,1.036 -0.035,1.512c0,0.355 0.012,0.684 0.035,0.987c0.023,0.304 0.068,0.591 0.133,0.861l-0.77,0l-0.238,-0.826l-0.056,0c-0.14,0.243 -0.345,0.453 -0.616,0.63c-0.271,0.178 -0.635,0.266 -1.092,0.266c-0.504,0 -0.917,-0.175 -1.239,-0.525c-0.322,-0.35 -0.483,-0.833 -0.483,-1.449c0,-0.401 0.068,-0.737 0.203,-1.008c0.135,-0.27 0.327,-0.49 0.574,-0.658c0.247,-0.168 0.541,-0.287 0.882,-0.357c0.341,-0.07 0.721,-0.105 1.141,-0.105c0.093,0 0.187,0 0.28,0c0.093,0 0.191,0.005 0.294,0.014c0.028,-0.289 0.042,-0.546 0.042,-0.77c0,-0.532 -0.079,-0.905 -0.238,-1.12c-0.159,-0.214 -0.448,-0.322 -0.868,-0.322c-0.261,0 -0.546,0.04 -0.854,0.119c-0.308,0.08 -0.565,0.18 -0.77,0.301l-0.336,-0.798Zm3.038,3.388c-0.093,-0.009 -0.187,-0.016 -0.28,-0.021c-0.093,-0.004 -0.187,-0.007 -0.28,-0.007c-0.224,0 -0.443,0.019 -0.658,0.056c-0.215,0.038 -0.406,0.103 -0.574,0.196c-0.168,0.094 -0.301,0.22 -0.399,0.378c-0.098,0.159 -0.147,0.36 -0.147,0.602c0,0.374 0.091,0.663 0.273,0.868c0.182,0.206 0.418,0.308 0.707,0.308c0.392,0 0.695,-0.093 0.91,-0.28c0.215,-0.186 0.364,-0.392 0.448,-0.616l0,-1.484Z" style="fill-rule:nonzero;"/><path d="M343.55,38.528c0,0.327 0.044,0.56 0.133,0.7c0.089,0.14 0.212,0.21 0.371,0.21c0.196,0 0.425,-0.051 0.686,-0.154l0.098,0.812c-0.121,0.075 -0.292,0.136 -0.511,0.182c-0.219,0.047 -0.418,0.07 -0.595,0.07c-0.355,0 -0.642,-0.109 -0.861,-0.329c-0.219,-0.219 -0.329,-0.604 -0.329,-1.155l0,-8.47l1.008,0l0,8.134Z" style="fill-rule:nonzero;"/><path d="M349.92,39.718c-0.224,0.206 -0.509,0.364 -0.854,0.476c-0.345,0.112 -0.709,0.168 -1.092,0.168c-0.439,0 -0.819,-0.086 -1.141,-0.259c-0.322,-0.172 -0.588,-0.42 -0.798,-0.742c-0.21,-0.322 -0.364,-0.707 -0.462,-1.155c-0.098,-0.448 -0.147,-0.952 -0.147,-1.512c0,-1.194 0.219,-2.104 0.658,-2.73c0.439,-0.625 1.059,-0.938 1.862,-0.938c0.261,0 0.52,0.033 0.777,0.098c0.257,0.066 0.488,0.196 0.693,0.392c0.205,0.196 0.371,0.472 0.497,0.826c0.126,0.355 0.189,0.817 0.189,1.386c0,0.159 -0.007,0.329 -0.021,0.511c-0.014,0.182 -0.03,0.371 -0.049,0.567l-3.556,0c0,0.402 0.033,0.766 0.098,1.092c0.065,0.327 0.168,0.605 0.308,0.833c0.14,0.229 0.32,0.406 0.539,0.532c0.219,0.126 0.492,0.189 0.819,0.189c0.252,0 0.502,-0.046 0.749,-0.14c0.247,-0.093 0.436,-0.205 0.567,-0.336l0.364,0.742Zm-0.784,-3.752c0.019,-0.7 -0.079,-1.213 -0.294,-1.54c-0.215,-0.326 -0.509,-0.49 -0.882,-0.49c-0.429,0 -0.77,0.164 -1.022,0.49c-0.252,0.327 -0.401,0.84 -0.448,1.54l2.646,0Z" style="fill-rule:nonzero;"/><path d="M351.404,39.046c0.187,0.112 0.408,0.208 0.665,0.287c0.257,0.08 0.52,0.119 0.791,0.119c0.308,0 0.569,-0.077 0.784,-0.231c0.215,-0.154 0.322,-0.403 0.322,-0.749c0,-0.289 -0.065,-0.527 -0.196,-0.714c-0.131,-0.186 -0.296,-0.354 -0.497,-0.504c-0.201,-0.149 -0.418,-0.287 -0.651,-0.413c-0.233,-0.126 -0.45,-0.277 -0.651,-0.455c-0.201,-0.177 -0.366,-0.387 -0.497,-0.63c-0.131,-0.242 -0.196,-0.55 -0.196,-0.924c0,-0.597 0.161,-1.047 0.483,-1.351c0.322,-0.303 0.777,-0.455 1.365,-0.455c0.383,0 0.714,0.035 0.994,0.105c0.28,0.07 0.523,0.166 0.728,0.287l-0.266,0.84c-0.177,-0.093 -0.383,-0.17 -0.616,-0.231c-0.233,-0.06 -0.471,-0.091 -0.714,-0.091c-0.336,0 -0.581,0.07 -0.735,0.21c-0.154,0.14 -0.231,0.36 -0.231,0.658c0,0.234 0.065,0.432 0.196,0.595c0.131,0.164 0.296,0.313 0.497,0.448c0.201,0.136 0.418,0.273 0.651,0.413c0.233,0.14 0.45,0.306 0.651,0.497c0.201,0.192 0.366,0.42 0.497,0.686c0.131,0.266 0.196,0.6 0.196,1.001c0,0.262 -0.042,0.509 -0.126,0.742c-0.084,0.234 -0.212,0.437 -0.385,0.609c-0.173,0.173 -0.387,0.311 -0.644,0.413c-0.257,0.103 -0.558,0.154 -0.903,0.154c-0.411,0 -0.765,-0.039 -1.064,-0.119c-0.299,-0.079 -0.551,-0.184 -0.756,-0.315l0.308,-0.882Z" style="fill-rule:nonzero;"/></g></svg>