<?xml version="1.0" encoding="UTF-8" standalone="no"?><!DOCTYPE svg PUBLIC "-//W3C//DTD SVG 1.1//EN" "http://www.w3.org/Graphics/SVG/1.1/DTD/svg11.dtd"><svg width="100%" height="100%" viewBox="0 0 528 60" version="1.1" xmlns="http://www.w3.org/2000/svg" xmlns:xlink="http://www.w3.org/1999/xlink" xml:space="preserve" xmlns:serif="http://www.serif.com/" style="fill-rule:evenodd;clip-rule:evenodd;stroke-linejoin:round;stroke-miterlimit:1.41421;"><text x="157.843px" y="29.988px" style="font-family:'Impact', sans-serif;font-stretch:condensed;font-size:23.256px;">Museo Ar<tspan x="246.041px 253.126px " y="29.988px 29.988px ">te</tspan> y Ciudad</text><text x="168.912px" y="47.83px" style="font-family:'Impact', sans-serif;font-stretch:condensed;font-size:17.442px;fill-opacity:0.25;">en los medios impresos</text><path d="M348.008,29.155c5.136,-5.136 12.12,-7.272 18.552,-6.288c2.184,-5.208 2.856,-9.984 2.856,-9.984c0,0 -12.048,1.704 -18.792,8.424c-5.832,5.856 -8.976,12.456 -7.824,15.984c1.08,-2.952 2.808,-5.736 5.208,-8.136" style="fill:#0087d1;fill-rule:nonzero;"/><g><clipPath id="_clip1"><path d="M357.72,42.704c5.136,-5.136 12.12,-7.272 18.552,-6.288c2.184,-5.208 2.856,-9.984 2.856,-9.984c0,0 -12.048,1.704 -18.792,8.424c-5.832,5.856 -8.976,12.456 -7.824,15.984c1.08,-2.952 2.808,-5.736 5.208,-8.136"/></clipPath><g clip-path="url(#_clip1)"><path d="M354.74,16.88c-1.008,1.01 -1.633,2.409 -1.633,3.957c0,1.547 0.625,2.944 1.633,3.955c1.007,1.01 2.39,1.63 3.921,1.63c1.528,0 2.914,-0.62 3.921,-1.63c1.007,-1.011 1.633,-2.408 1.633,-3.955c0,-1.548 -0.626,-2.947 -1.633,-3.957c-1.007,-1.009 -2.393,-1.629 -3.921,-1.631c-1.531,0.002 -2.914,0.622 -3.921,1.631m-2.079,3.957c0.006,-3.302 2.671,-5.998 6,-6.001c3.327,0.003 5.994,2.699 6,6.001c-0.006,3.3 -2.673,5.996 -6,5.999c-3.329,-0.003 -5.994,-2.699 -6,-5.999" style="fill:#0094d6;fill-rule:nonzero;"/><path d="M363.641,20.841c0,2.756 -2.227,4.991 -4.979,4.991c-2.748,0 -4.978,-2.235 -4.978,-4.991c0,-2.758 2.23,-4.995 4.978,-4.995c2.752,0 4.979,2.237 4.979,4.995" style="fill:#0094d6;fill-rule:nonzero;"/><path d="M358.637,15.859l1.116,3.442l3.613,0l-2.922,2.126l1.115,3.443l-2.922,-2.127l-2.919,2.127l1.116,-3.443l-2.923,-2.126l3.613,0l1.113,-3.442Z" style="fill:#fff;fill-rule:nonzero;"/></g></g><path d="M368.168,18.331c-1.032,1.44 -2.232,2.88 -3.576,4.224c-4.848,4.848 -10.56,7.68 -15.432,8.112c0.672,1.848 1.728,3.552 3.168,4.992c0.552,0.552 1.152,1.056 1.752,1.488c2.256,-1.368 4.632,-3.216 6.888,-5.448c3.792,-3.816 6,-9.312 7.2,-13.368" style="fill:#3578ca;fill-rule:nonzero;"/><path d="M359.48,16.075c3.36,3.36 4.56,8.112 3.768,12.912c4.872,-6.816 6.168,-16.08 6.168,-16.08c0,0 -4.896,0.696 -10.2,2.928c0.096,0.072 0.168,0.144 0.264,0.24" style="fill:#355d9b;fill-rule:nonzero;"/><path d="M341.864,40.939c-0.024,0 -0.024,0 -0.048,-0.024l-0.096,-0.048l-1.248,1.344l-0.048,0.048l-6.096,6l8.856,-5.544c0.96,-0.168 2.064,-0.576 3.216,-1.176c-1.896,0.408 -3.48,0.24 -4.536,-0.6" style="fill:#fe5233;fill-rule:nonzero;"/><path d="M341.144,40.147c-0.504,-0.792 -0.696,-1.848 -0.576,-3.072l-13.128,17.424l13.32,-13.92l0.384,-0.432Z" style="fill:#ffae26;fill-rule:nonzero;"/><path d="M364.592,22.555c-0.432,0.432 -0.864,0.816 -1.296,1.224c0.264,1.68 0.24,3.432 -0.048,5.208c0.048,-0.072 0.12,-0.168 0.168,-0.24c0.072,-0.096 0.12,-0.192 0.192,-0.288c0.12,-0.192 0.264,-0.384 0.384,-0.576c0.048,-0.048 0.072,-0.12 0.12,-0.168c0.144,-0.24 0.312,-0.504 0.456,-0.744c0.048,-0.096 0.12,-0.192 0.168,-0.288c0.096,-0.168 0.192,-0.336 0.288,-0.504c0.048,-0.096 0.12,-0.216 0.168,-0.312c0.096,-0.168 0.192,-0.336 0.264,-0.528c0.048,-0.096 0.096,-0.192 0.144,-0.288c0.12,-0.264 0.24,-0.504 0.36,-0.768c0.024,-0.072 0.072,-0.144 0.096,-0.24c0.096,-0.192 0.168,-0.384 0.264,-0.576c0.048,-0.096 0.096,-0.216 0.144,-0.312c0.072,-0.168 0.144,-0.336 0.216,-0.504c0.048,-0.096 0.072,-0.192 0.12,-0.312c0.072,-0.192 0.144,-0.384 0.24,-0.6c0.024,-0.072 0.048,-0.12 0.072,-0.192c0.096,-0.24 0.192,-0.504 0.264,-0.744c0.024,-0.096 0.072,-0.192 0.096,-0.264c0.048,-0.168 0.12,-0.336 0.168,-0.48c0.024,-0.096 0.072,-0.192 0.096,-0.288c0.048,-0.168 0.096,-0.336 0.168,-0.48c0.024,-0.072 0.048,-0.168 0.072,-0.24c0.072,-0.24 0.144,-0.456 0.216,-0.672l0,-0.024c-1.056,1.416 -2.256,2.832 -3.6,4.2" style="fill:#66c4ec;fill-rule:nonzero;"/><path d="M353.336,37.843c-2.472,2.76 -6.528,6 -9,7.2c2.568,0.312 7.872,-1.056 8.928,-3.192c0.672,-1.392 0.456,-2.928 0.072,-4.008m-5.4,-10.536c-3.648,2.544 -10.344,9.192 -12.12,11.976c0,-3.072 4.632,-11.52 7.344,-12.456c1.728,-0.624 3.528,-0.144 4.776,0.48" style="fill:#355d9b;fill-rule:nonzero;"/></svg>