<?xml version="1.0" encoding="UTF-8" standalone="no"?><!DOCTYPE svg PUBLIC "-//W3C//DTD SVG 1.1//EN" "http://www.w3.org/Graphics/SVG/1.1/DTD/svg11.dtd"><svg viewBox="0 0 2000 450" version="1.1" xmlns="http://www.w3.org/2000/svg" xmlns:xlink="http://www.w3.org/1999/xlink" xml:space="preserve" style="fill-rule:evenodd;clip-rule:evenodd;stroke-linejoin:round;stroke-miterlimit:1.41421;"><path d="M1060.15,156.393c1.523,0.58 2.862,-0.302 2.934,-1.962l1.543,-29.756c0.087,-1.669 -0.606,-1.912 -1.547,-0.55l-16.415,23.906c-0.936,1.363 -0.46,2.963 1.067,3.562l12.418,4.8Z" style="fill:#00b6ed;fill-rule:nonzero;"/><path d="M1069.97,166c-1.552,-0.515 -2.924,0.421 -3.041,2.081l-0.49,6.736c-0.126,1.66 1.092,2.839 2.712,2.596l21.4,-3.116c1.611,-0.232 1.669,-0.857 0.122,-1.377l-20.703,-6.92Z" style="fill:#7acaf1;fill-rule:nonzero;"/><path d="M1031.67,155.769c0.572,-1.556 -0.199,-3.344 -1.717,-3.963l-27.619,-11.25c-1.523,-0.624 -1.79,-0.183 -0.621,0.961l23.772,23.163c1.174,1.145 2.62,0.813 3.192,-0.753l2.993,-8.158Z" style="fill:#7acaf1;fill-rule:nonzero;"/><path d="M1026.14,181.664c-1.018,-1.298 -2.75,-1.367 -3.856,-0.139l-27.265,30.113c-1.116,1.224 -0.82,1.625 0.65,0.902l36.593,-18.17c1.46,-0.723 1.838,-2.398 0.819,-3.705l-6.941,-9.001Z" style="fill:#11489f;fill-rule:nonzero;"/><path d="M1051.06,194.706c-1.445,0.802 -2.12,2.734 -1.518,4.285l11.889,30.841c0.591,1.56 1.062,1.461 1.052,-0.213l-0.359,-38.029c-0.029,-1.679 -1.212,-2.383 -2.648,-1.58l-8.416,4.696Z" style="fill:#00b6ed;fill-rule:nonzero;"/><path d="M882.709,345.743c-0.116,-7.5 0.471,-14.465 1.766,-20.884c0.975,-4.815 2.745,-10.918 5.306,-18.314c8.877,-27.23 21.062,-57.794 36.579,-91.701l1.721,-3.82c0.194,-0.232 0.185,-0.465 -0.058,-0.683c-0.242,-0.218 -0.378,-0.555 -0.412,-1.006l-8.576,1.749c-0.655,0.025 -1.867,0.312 -3.618,0.837c-1.32,0.059 -2.581,-0.272 -3.75,-1.015c-1.169,-0.748 -1.921,-1.685 -2.221,-2.814l-0.442,-1.347c-0.165,-2.264 0.82,-4.003 2.954,-5.236c1.484,-0.976 4.109,-1.784 7.848,-2.408c2.397,-0.783 6.248,-1.521 11.55,-2.219c3.065,-0.813 5.068,-2.274 6.034,-4.354c2.425,-6.252 5.258,-11.493 8.512,-15.738c2.018,-2.819 3.347,-4.468 3.978,-4.949c1.896,-1.456 3.735,-2.209 5.515,-2.293c1.552,-0.07 2.808,0.218 3.754,0.857c3.231,1.446 5.006,4.21 5.312,8.287c-0.243,2.749 -0.534,4.8 -0.869,6.177c-0.747,2.081 -1.348,4.389 -1.819,6.916c0.694,0.421 1.436,0.609 2.212,0.574c0.776,-0.034 1.281,-0.059 1.499,-0.064c6.194,-0.738 11.055,-1.402 14.576,-2.016c2.008,-0.089 3.468,0.079 4.39,0.495c2.687,0.104 4.142,1.64 4.37,4.582l0.044,0.669c0.14,1.823 -0.97,3.349 -3.337,4.582c-0.849,0.505 -2.387,0.793 -4.613,0.902c-6.825,1.208 -13.679,2.199 -20.528,2.952c-2.411,0.575 -4.006,1.654 -4.773,3.284c-6.393,15.753 -11.306,27.572 -14.721,35.463c-1.509,3.7 -4.618,11.284 -9.323,22.757c-4.715,11.468 -8.813,22.172 -12.306,32.094c-1.843,5.088 -4.375,12.939 -7.581,23.54l-4.778,12.151c-3.371,8.57 -5.981,14.485 -7.858,17.749c-1.877,3.274 -4.137,4.964 -6.81,5.082c-0.898,0.04 -2.033,-0.252 -3.41,-0.871c-4.176,-2.091 -6.219,-5.41 -6.117,-9.967" style="fill:#11489f;fill-rule:nonzero;"/><path d="M983.036,327.293l-0.102,-1.363c-0.179,-2.258 0.03,-5.453 0.607,-9.575c2.546,-13.528 6.786,-28.28 12.723,-44.236l1.615,-5.191c-1.082,0.505 -2.105,1.694 -3.075,3.547c-6.073,8.238 -12.393,17.605 -18.966,28.141c-3.39,5.385 -6.631,9.625 -9.75,12.716c-2.667,3.076 -5.175,5.345 -7.513,6.816c-2.566,1.472 -4.957,2.269 -7.189,2.373c-3.327,0.144 -6.31,-0.862 -8.925,-3.022c-2.624,-2.149 -4.409,-5.146 -5.364,-8.976c-0.66,-2.694 -1.043,-4.834 -1.16,-6.419c-0.223,-2.948 -0.106,-5.801 0.35,-8.55c2.027,-20.325 8.629,-39.392 19.78,-57.17c2.789,-4.448 5.976,-8 9.575,-10.66c2.299,-1.927 4.788,-2.953 7.46,-3.066c3.153,0.317 5.496,1.694 7.009,4.121c0.743,0.882 1.16,2.001 1.257,3.363c0.106,1.353 -0.345,2.854 -1.329,4.488c-6.02,8.912 -10.822,18.512 -14.392,28.781c-3.57,10.289 -6.655,21.964 -9.235,35.047c-0.529,1.847 -0.544,3.096 -0.044,3.76c1.295,-0.521 2.745,-1.942 4.356,-4.295c8.192,-9.69 17.743,-22.163 28.633,-37.43c5.228,-7.514 9.274,-13.043 12.136,-16.584l20.212,-29.217c2.188,-3.507 4.889,-4.646 8.115,-3.428c3.42,0.986 5.069,3.646 4.952,7.976c-0.102,1.585 -0.664,4.572 -1.668,8.941c-4.982,19.78 -10.051,38.197 -15.236,55.252c-3.943,12.692 -7.261,24.892 -9.934,36.608l-2.396,8.302c-0.742,2.075 -1.945,3.834 -3.618,5.271c-2.072,2.139 -4.439,3.274 -7.107,3.393c-1.775,0.069 -3.128,-0.094 -4.055,-0.51c-4.147,-1.63 -6.718,-4.706 -7.722,-9.204" style="fill:#11489f;fill-rule:nonzero;"/><path d="M657.31,237.614l0,8.59l29.278,-0.005c1.111,0 2.096,0.441 2.959,1.323c0.864,0.886 1.305,2.001 1.305,3.343l0,9.224c0,1.199 -0.441,2.284 -1.3,3.235c-0.863,0.951 -1.853,1.431 -2.954,1.431l-29.288,0l0,9.442l30.733,-0.005c1.184,0 2.203,0.446 3.071,1.328c0.858,0.881 1.295,2.035 1.295,3.447l0,9.115c0,1.268 -0.432,2.392 -1.295,3.339c-0.868,0.961 -1.887,1.436 -3.061,1.436l-49.01,0.005c-1.183,0 -2.202,-0.47 -3.065,-1.431c-0.864,-0.952 -1.305,-2.071 -1.305,-3.339l0,-0.322l0,-8.793l0,-46.029l0,-9.228c0,-1.333 0.436,-2.452 1.305,-3.334c0.863,-0.882 1.872,-1.328 3.051,-1.328l49.01,-0.01c1.188,0 2.207,0.451 3.075,1.333c0.858,0.882 1.285,1.996 1.285,3.334l0,9.233c0,1.199 -0.441,2.274 -1.343,3.225c-0.903,0.956 -1.907,1.441 -3.013,1.441l-30.733,0Z" style="fill:#00b6ed;fill-rule:nonzero;"/><path d="M725.876,253.298c3.187,0 6.117,-0.584 8.785,-1.749c2.663,-1.164 3.987,-3.868 3.987,-8.104c0,-2.977 -0.878,-5.236 -2.639,-6.786c-1.765,-1.56 -4.317,-2.338 -7.63,-2.338l-8.517,0l0,18.982l0.722,-0.005l5.292,0Zm15.478,33.189c-0.761,-4.8 -2.333,-8.143 -4.719,-10.016c-2.391,-1.872 -5.35,-2.982 -8.881,-3.339c-0.481,-0.074 -1.072,-0.109 -1.771,-0.109c-0.689,0 -1.276,0.075 -1.766,0.208l-0.097,0.114l0,13.573c0,1.343 -0.126,2.418 -0.363,3.23c-0.243,0.817 -0.903,1.481 -1.975,2.016c-1.062,0.535 -2.745,0.793 -5.03,0.793l-9.662,0.01c-2.139,0.064 -3.841,-0.337 -5.083,-1.224c-1.247,-0.882 -1.873,-2.1 -1.873,-3.666l0.102,-28.622l0,-36.904c0,-1.055 0.514,-1.991 1.552,-2.809c1.039,-0.807 2.29,-1.218 3.745,-1.218l23.564,-0.005c10.385,-0.075 18.073,1.719 23.045,5.355c4.986,3.636 7.693,9.347 8.11,17.129c0.068,0.699 0.088,1.253 0.049,1.64c-0.034,0.386 -0.049,0.723 -0.049,1.005l0,2.225c-0.344,4.101 -1.402,7.356 -3.167,9.758c-1.771,2.403 -4.104,4.627 -7,6.688l0.097,0.099c3.386,1.699 6.093,4.136 8.101,7.311c2.003,3.19 3.376,6.509 4.094,9.972c0.732,3.462 1.023,6.573 0.883,9.332c0,1.199 -0.403,2.15 -1.247,2.864c-0.825,0.703 -2.008,1.055 -3.512,1.055l-12.679,0.005c-1.8,0 -2.959,-0.461 -3.473,-1.377c-0.524,-0.917 -0.81,-1.888 -0.839,-2.923c-0.029,-1.015 -0.088,-1.744 -0.156,-2.17" style="fill:#00b6ed;fill-rule:nonzero;"/><path d="M791.885,237.595l0,8.59l29.282,0c1.106,-0.005 2.096,0.441 2.959,1.332c0.869,0.877 1.3,1.992 1.3,3.334l0,9.224c0,1.203 -0.431,2.283 -1.3,3.234c-0.863,0.961 -1.838,1.432 -2.959,1.432l-29.268,0.005l0,9.437l30.724,0c1.178,0 2.197,0.445 3.065,1.317c0.864,0.897 1.295,2.041 1.295,3.453l0,9.119c0,1.274 -0.431,2.383 -1.295,3.334c-0.868,0.961 -1.887,1.432 -3.061,1.432l-49.01,0.015c-1.178,0 -2.197,-0.481 -3.065,-1.437c-0.868,-0.956 -1.295,-2.07 -1.295,-3.344l0,-0.317l0,-8.792l-0.005,-46.024l0,-9.234c0,-1.337 0.427,-2.457 1.295,-3.339c0.863,-0.881 1.887,-1.322 3.066,-1.322l49.01,0c1.173,0 2.192,0.441 3.06,1.318c0.864,0.886 1.3,2.001 1.3,3.343l0,9.224c0,1.204 -0.451,2.283 -1.348,3.235c-0.902,0.956 -1.906,1.426 -3.012,1.426l-30.738,0.005Z" style="fill:#00b6ed;fill-rule:nonzero;"/><path d="M830.793,279.59c0,-1.273 0.631,-2.764 1.873,-4.453l3.841,-5.098c1.106,-1.624 1.984,-2.769 2.649,-3.437c0.655,-0.679 1.363,-1.016 2.124,-1.016c0.626,0 1.383,0.218 2.285,0.644c0.897,0.421 2.144,1.124 3.74,2.11c0.208,0.154 1.974,1.387 5.301,3.715c3.318,2.334 7.47,3.354 12.452,3.077c1.654,-0.07 2.963,-0.555 3.895,-1.432c0.936,-0.887 1.402,-1.967 1.402,-3.24c0,-1.694 -0.83,-3.249 -2.484,-4.666c-1.664,-1.407 -4.026,-2.214 -7.062,-2.432l0.101,0c-6.092,-1.273 -10.841,-2.878 -14.231,-4.825c-3.395,-1.942 -5.816,-4.26 -7.266,-6.94c-1.451,-2.69 -2.319,-6.009 -2.6,-9.977c-0.272,-4.661 0.694,-8.921 2.91,-12.775c2.217,-3.849 5.394,-6.89 9.556,-9.115c4.152,-2.224 8.92,-3.338 14.333,-3.338c4.007,0 8.018,0.594 12.039,1.793c3.323,0.921 6.345,2.14 9.081,3.661c2.735,1.51 4.894,3.269 6.49,5.25c0.96,0.996 1.45,1.903 1.45,2.76c0,0.703 -0.262,1.461 -0.776,2.273c-0.514,0.813 -1.402,1.932 -2.649,3.344l-3.002,3.284c-0.985,1.06 -1.722,1.789 -2.231,2.175c-0.529,0.381 -1.029,0.584 -1.514,0.584c-0.48,0 -1.106,-0.213 -1.872,-0.634c-0.757,-0.426 -1.499,-0.867 -2.236,-1.332c-0.723,-0.461 -1.363,-0.862 -1.916,-1.209c-4.768,-3.121 -8.964,-4.676 -12.563,-4.671c-2.212,0 -3.958,0.545 -5.248,1.644c-1.276,1.09 -1.916,2.423 -1.916,3.978c0,1.556 0.625,2.948 1.867,4.186c1.247,1.243 3.017,2.036 5.297,2.388c9.895,1.55 17.292,4.552 22.167,9.015c4.885,4.449 7.329,9.536 7.329,15.267c0,4.231 -1.305,8.322 -3.9,12.241c-2.59,3.923 -6.194,7.108 -10.787,9.545c-4.608,2.437 -9.755,3.656 -15.43,3.656c-9.264,0 -18.578,-3.304 -27.925,-9.962c-3.051,-2.115 -4.574,-4.131 -4.574,-6.038" style="fill:#00b6ed;fill-rule:nonzero;"/><path d="M646.766,191.252l-0.058,-0.674c-0.073,-1.119 0.005,-2.689 0.272,-4.715c1.14,-6.658 3.075,-13.871 5.762,-21.648l0.742,-2.546c-0.495,0.233 -0.965,0.798 -1.416,1.704c-2.78,3.973 -5.685,8.515 -8.692,13.608c-1.557,2.605 -3.046,4.656 -4.482,6.132c-1.232,1.476 -2.377,2.561 -3.454,3.26c-1.188,0.678 -2.289,1.03 -3.318,1.055c-1.542,0.015 -2.929,-0.525 -4.137,-1.635c-1.213,-1.109 -2.047,-2.6 -2.508,-4.508c-0.305,-1.347 -0.485,-2.407 -0.543,-3.19c-0.112,-1.461 -0.063,-2.868 0.141,-4.23c0.892,-9.987 3.899,-19.314 9.007,-27.919c1.281,-2.155 2.741,-3.868 4.399,-5.127c1.063,-0.916 2.212,-1.377 3.44,-1.387c1.46,0.208 2.546,0.907 3.249,2.135c0.345,0.451 0.544,1.006 0.597,1.675c0.044,0.683 -0.15,1.416 -0.611,2.199c-2.76,4.31 -4.953,8.976 -6.587,13.999c-1.615,5.023 -3.017,10.749 -4.177,17.159c-0.237,0.917 -0.257,1.526 -0.019,1.868c0.606,-0.238 1.276,-0.927 2.013,-2.051c3.759,-4.671 8.144,-10.68 13.14,-18.061c2.401,-3.631 4.259,-6.296 5.573,-8l9.28,-14.123c0.999,-1.694 2.245,-2.224 3.739,-1.575c1.586,0.55 2.353,1.887 2.309,4.022c-0.053,0.778 -0.296,2.254 -0.742,4.394c-2.26,9.689 -4.564,18.71 -6.917,27.057c-1.799,6.207 -3.313,12.171 -4.516,17.922l-1.081,4.067c-0.34,1.01 -0.883,1.872 -1.659,2.541c-0.956,1.031 -2.037,1.561 -3.274,1.566c-0.825,0.024 -1.456,-0.09 -1.882,-0.313c-1.911,-0.861 -3.114,-2.422 -3.59,-4.661" style="fill:#11489f;fill-rule:nonzero;"/><path d="M676.082,175.487c3.095,-2.507 5.967,-5.355 8.61,-8.54c2.634,-3.176 5.641,-7.114 8.988,-11.765c0.286,-0.327 0.359,-0.728 0.219,-1.169c-0.369,-0.902 -0.587,-2.046 -0.641,-3.453c-0.058,-1.397 -0.106,-2.492 -0.174,-3.279c-0.136,-1.917 -0.466,-3.423 -0.951,-4.528c-1.659,1.362 -4.783,6.598 -9.391,15.713c-4.613,9.1 -7.028,14.896 -7.251,17.372l0.591,-0.351Zm13.145,14.727c-0.577,-0.822 -0.916,-1.868 -0.999,-3.091c-0.267,-3.483 0.054,-6.633 0.975,-9.467l3.57,-9.986l0.902,-2.378c-0.213,0.015 -0.315,-0.094 -0.329,-0.322l-1.975,2.551c-4.661,6.366 -10.045,12.166 -16.118,17.432c-2.047,1.714 -3.512,2.749 -4.404,3.076c-0.791,0.471 -1.698,0.719 -2.731,0.728c-1.334,0.015 -2.493,-0.44 -3.493,-1.392c-0.999,-0.931 -1.654,-2.239 -1.988,-3.923c-0.136,-0.337 -0.228,-0.837 -0.277,-1.516c-0.043,-0.554 -0.014,-1.233 0.078,-2.016c0.097,-0.792 0.136,-1.362 0.102,-1.684c0.334,-2.477 1.106,-5.3 2.299,-8.461c3.138,-8.812 7.722,-17.645 13.751,-26.492c1.562,-2.377 3.449,-4.527 5.675,-6.484c1.252,-1.139 2.833,-2.006 4.744,-2.596c0.408,-0.114 0.907,-0.178 1.533,-0.188c2.867,-0.039 5.04,1.333 6.48,4.117c0.844,1.679 1.354,3.527 1.504,5.538c0.073,1.01 0.087,1.803 0.024,2.363c0.015,0.227 0.015,0.53 -0.014,0.916c-0.015,0.401 0.048,0.877 0.184,1.437c0.301,-0.228 1.009,-0.996 2.149,-2.299c1.14,-1.308 2.071,-2.65 2.774,-3.997c1.446,-2.715 2.591,-4.701 3.415,-5.955c0.931,-1.367 1.872,-2.382 2.852,-3.076c0.689,-0.461 1.446,-0.693 2.261,-0.703c0.727,-0.025 1.46,0.198 2.211,0.634c1.417,1.005 2.096,2.442 2.028,4.359c0.112,1.342 -0.15,2.814 -0.747,4.389c-1.373,3.626 -2.454,6.331 -3.24,8.129c-5.19,12.993 -9.182,23.505 -11.986,31.52c-0.577,1.813 -1.368,3.586 -2.367,5.349c-1.004,1.754 -1.644,2.859 -1.911,3.305c-0.563,0.797 -1.256,1.367 -2.11,1.713c-0.849,0.352 -1.693,0.417 -2.527,0.209c-0.956,-0.322 -1.717,-0.897 -2.295,-1.739" style="fill:#11489f;fill-rule:nonzero;"/><path d="M720.718,220.892c2.183,-2.378 4.274,-5.444 6.253,-9.18c3.264,-5.78 6.47,-13.117 9.609,-22.043c-0.01,-0.109 0.053,-0.312 0.179,-0.604c0.131,-0.268 0.131,-0.526 0.029,-0.743l-0.63,-0.164c-0.311,0.005 -0.777,0.119 -1.373,0.357c-3.725,1.07 -6.932,2.799 -9.633,5.191c-6.374,5.484 -11.477,12.414 -15.26,20.776c-1.077,2.159 -1.591,4.805 -1.557,7.95c0.111,1.57 0.344,2.63 0.708,3.19c0.34,0.56 0.931,0.827 1.756,0.823c0.82,-0.02 1.533,-0.139 2.134,-0.372c2.809,-0.827 5.413,-2.556 7.785,-5.181m-14.775,10.754c-1.673,-1.724 -2.677,-4.077 -3.002,-7.119c-0.432,-4.146 0.16,-8.039 1.732,-11.65c4.608,-9.843 10.297,-17.62 17.074,-23.332c4.729,-3.993 9.963,-6.261 15.686,-6.796c1.029,-0.015 1.713,-0.535 2.062,-1.556c2.444,-7.108 4.938,-15.51 7.499,-25.214c0.097,-0.099 0.126,-0.386 0.097,-0.832l-1.722,1.878c-2.416,3.294 -3.585,4.874 -3.497,4.76c-5.622,7.277 -9.847,12.567 -12.694,15.866c-1.32,1.472 -3.318,3.587 -6.001,6.321c-1.256,1.13 -2.483,1.987 -3.662,2.576c-0.902,0.352 -1.76,0.525 -2.585,0.54c-2.047,0.035 -3.832,-1.015 -5.331,-3.131c-1.271,-1.763 -2.11,-4.121 -2.532,-7.029c-0.412,-2.695 -0.218,-6.177 0.597,-10.462c2.197,-9.015 5.699,-17.709 10.526,-26.095c0.562,-0.793 0.936,-1.308 1.125,-1.531c0.267,-0.56 0.597,-0.912 0.999,-1.035c0.975,-0.689 1.775,-1.036 2.391,-1.036c0.718,-0.005 1.359,0.198 1.887,0.639c1.412,0.768 2.178,2.106 2.329,4.008c0.067,0.911 -0.059,2.026 -0.364,3.383c-0.704,2.923 -1.664,5.915 -2.877,8.966c-2.866,8.362 -4.807,14.678 -5.82,18.953c-0.466,2.041 -0.699,3.665 -0.713,4.899c0.514,-0.005 0.941,-0.179 1.275,-0.52c0.34,-0.332 0.558,-0.565 0.641,-0.684c2.895,-2.507 5.52,-5.191 7.882,-8.04c4.283,-4.656 10.259,-11.992 17.947,-21.994l3.943,-4.938c1.339,-1.482 2.358,-2.839 3.09,-4.097l0.398,-0.842c1.387,-2.041 2.881,-2.745 4.477,-2.081c0.946,0.317 1.693,0.956 2.226,1.907c0.529,0.942 0.791,2.031 0.791,3.275c0.078,1.109 -0.121,3.249 -0.597,6.4c-0.693,3.046 -2.192,9.144 -4.486,18.274c-1.761,6.761 -3.464,12.74 -5.142,17.937c-0.252,0.673 -0.364,1.124 -0.344,1.347c0.014,0.342 0.504,0.659 1.469,0.991c2.101,0.743 3.808,1.565 5.113,2.442c2.478,1.555 4.157,3.988 5.035,7.346c0.242,0.555 0.296,1.174 0.136,1.853c0.067,1.015 -0.384,1.635 -1.407,1.882l-0.311,0c-0.616,0.015 -1.217,-0.386 -1.785,-1.164l-0.567,-1.501c-0.606,-2.472 -2.134,-4.24 -4.569,-5.325l-0.48,-0.163c-1.921,-0.867 -3.037,-1.298 -3.343,-1.298c-0.509,0.01 -0.955,0.351 -1.309,1.03c-0.359,0.679 -0.704,1.585 -1.019,2.71c-2.372,6.771 -4.608,12.646 -6.713,17.625c-2.571,5.429 -5.515,10.07 -8.818,13.944c-3.323,3.76 -6.709,6.499 -10.186,8.233c-3.381,1.63 -6.665,2.398 -9.852,2.333c-2.799,-0.188 -5.035,-1.134 -6.699,-2.853" style="fill:#11489f;fill-rule:nonzero;"/><path d="M771.052,172.163c3.095,-2.516 5.971,-5.364 8.605,-8.56c2.639,-3.17 5.646,-7.083 8.993,-11.749c0.286,-0.332 0.354,-0.734 0.218,-1.179c-0.369,-0.897 -0.592,-2.051 -0.645,-3.448c-0.044,-1.402 -0.116,-2.492 -0.17,-3.284c-0.136,-1.903 -0.47,-3.418 -0.96,-4.528c-1.645,1.362 -4.778,6.608 -9.386,15.718c-4.608,9.105 -7.024,14.895 -7.256,17.377l0.601,-0.347Zm13.15,14.727c-0.587,-0.837 -0.912,-1.877 -1.009,-3.105c-0.267,-3.473 0.068,-6.633 0.985,-9.457l3.555,-9.986l0.917,-2.378c-0.204,0 -0.315,-0.099 -0.34,-0.332l-1.964,2.561c-4.671,6.36 -10.041,12.161 -16.138,17.407c-2.032,1.729 -3.502,2.749 -4.38,3.116c-0.8,0.451 -1.717,0.683 -2.741,0.708c-1.334,0.01 -2.498,-0.451 -3.507,-1.387c-0.984,-0.931 -1.654,-2.249 -1.979,-3.923c-0.131,-0.352 -0.218,-0.847 -0.276,-1.511c-0.039,-0.56 -0.01,-1.243 0.082,-2.026c0.097,-0.793 0.131,-1.352 0.102,-1.694c0.325,-2.477 1.096,-5.291 2.299,-8.461c3.139,-8.802 7.718,-17.63 13.742,-26.482c1.567,-2.383 3.463,-4.547 5.685,-6.479c1.251,-1.14 2.833,-2.006 4.744,-2.596c0.407,-0.119 0.916,-0.178 1.523,-0.198c2.881,-0.04 5.044,1.342 6.49,4.126c0.858,1.67 1.348,3.512 1.499,5.538c0.072,1.006 0.082,1.799 0.024,2.368c0.019,0.208 0.019,0.52 -0.015,0.922c-0.009,0.396 0.039,0.866 0.199,1.421c0.282,-0.228 1.004,-0.99 2.144,-2.298c1.14,-1.308 2.062,-2.645 2.784,-3.998c1.431,-2.724 2.571,-4.706 3.396,-5.959c0.926,-1.367 1.882,-2.388 2.871,-3.071c0.675,-0.456 1.431,-0.689 2.256,-0.704c0.723,-0.014 1.465,0.199 2.212,0.644c1.406,0.981 2.085,2.433 2.018,4.355c0.111,1.337 -0.156,2.818 -0.752,4.393c-1.368,3.607 -2.445,6.316 -3.231,8.124c-5.2,12.999 -9.187,23.5 -11.986,31.515c-0.586,1.808 -1.377,3.597 -2.371,5.35c-1.005,1.754 -1.645,2.848 -1.916,3.309c-0.549,0.803 -1.266,1.362 -2.11,1.719c-0.835,0.352 -1.693,0.411 -2.523,0.203c-0.96,-0.312 -1.717,-0.911 -2.289,-1.734" style="fill:#11489f;fill-rule:nonzero;"/><path d="M854.464,131.784c-0.107,-1.466 -0.806,-2.526 -2.101,-3.18c-0.621,-0.213 -1.149,-0.317 -1.557,-0.317c-0.722,0.01 -1.309,0.253 -1.794,0.699l-0.99,1.213c-0.926,1.457 -2.416,3.557 -4.467,6.286c-2.6,3.631 -4.506,6.47 -5.695,8.521c-4.031,6.563 -8.789,12.973 -14.28,19.235c-2.003,2.149 -3.58,3.705 -4.744,4.616c-0.111,0 -0.267,0.159 -0.514,0.436c-0.238,0.278 -0.519,0.312 -0.839,0.094l-0.039,-0.505c-0.024,-0.342 0.024,-1.075 0.146,-2.199c1.586,-8.897 4.021,-16.966 7.271,-24.194c0.504,-1.58 1.227,-2.942 2.168,-4.077c0.155,-0.683 0.558,-0.911 1.174,-0.693l-0.112,4.542c0.136,1.69 0.32,2.928 0.592,3.706c0.626,1.461 1.397,2.174 2.318,2.159l0.311,0c1.13,-0.019 1.795,-0.876 1.964,-2.566c0.049,-0.777 0.156,-1.704 0.335,-2.784c0.175,-1.06 0.286,-2.001 0.33,-2.783c0.291,-1.581 0.393,-2.928 0.31,-4.043l-0.053,-0.842c-0.267,-2.135 -1.048,-3.779 -2.309,-4.938c-1.266,-1.165 -2.784,-1.729 -4.53,-1.704c-0.723,0.004 -1.291,0.074 -1.683,0.193c-1.213,0.351 -2.338,0.981 -3.41,1.902c-1.165,0.916 -2.304,2.051 -3.449,3.423c-6.316,8.966 -10.138,18.957 -11.472,29.984c-0.194,1.461 -0.228,2.987 -0.111,4.557c0.039,0.669 0.237,1.794 0.558,3.349c0.572,2.135 1.513,3.804 2.852,5.023c1.319,1.219 2.866,1.808 4.608,1.788c1.44,-0.025 2.794,-0.441 4.074,-1.233c1.368,-0.922 2.522,-1.967 3.468,-3.086l3.813,-4.781c2.236,-3.061 3.4,-4.651 3.502,-4.77c1.096,-1.699 1.703,-2.605 1.804,-2.719c0.093,-0.099 0.204,-0.283 0.345,-0.506c0.14,-0.237 0.344,-0.396 0.659,-0.52c0.015,0.332 -0.009,0.644 -0.097,0.936c-0.082,0.268 -0.164,0.471 -0.262,0.58c-3.196,8.139 -5.864,16.644 -8.027,25.476c-2.489,10.21 -5.549,20.543 -6.228,31.139c-0.257,3.844 -0.451,8.639 1.935,11.963c6.5,9.075 9.396,-9.417 10.016,-12.835c2.338,-13.038 2.853,-17.813 6.524,-30.524c1.291,-4.736 2.819,-9.779 4.565,-15.138c1.756,-5.365 2.886,-8.828 3.386,-10.418l3.031,-8.966l6.083,-17.451c0.494,-1.581 0.722,-2.76 0.659,-3.542l-0.038,-0.506Z" style="fill:#11489f;fill-rule:nonzero;"/><path d="M872.004,181.214l-0.043,-0.679c-0.088,-1.124 0,-2.709 0.257,-4.72c1.144,-6.648 3.075,-13.866 5.777,-21.653l0.732,-2.546c-0.495,0.238 -0.96,0.808 -1.421,1.709c-2.784,3.973 -5.675,8.515 -8.697,13.603c-1.557,2.62 -3.037,4.666 -4.468,6.137c-1.227,1.477 -2.386,2.561 -3.463,3.26c-1.188,0.688 -2.294,1.035 -3.322,1.05c-1.533,0.025 -2.906,-0.52 -4.133,-1.625c-1.213,-1.119 -2.047,-2.61 -2.503,-4.513c-0.306,-1.337 -0.485,-2.412 -0.548,-3.185c-0.107,-1.471 -0.063,-2.873 0.145,-4.22c0.898,-10.021 3.881,-19.324 9.013,-27.939c1.275,-2.149 2.74,-3.858 4.399,-5.122c1.062,-0.916 2.212,-1.382 3.434,-1.382c1.455,0.194 2.547,0.902 3.255,2.135c0.34,0.446 0.538,0.996 0.577,1.67c0.068,0.683 -0.145,1.421 -0.596,2.199c-2.76,4.31 -4.962,8.981 -6.578,13.994c-1.625,5.033 -3.031,10.744 -4.181,17.174c-0.238,0.897 -0.262,1.511 -0.029,1.848c0.601,-0.233 1.276,-0.911 2.018,-2.041c3.759,-4.666 8.139,-10.68 13.145,-18.061c2.391,-3.631 4.249,-6.296 5.568,-8l9.275,-14.128c1.004,-1.689 2.245,-2.219 3.739,-1.555c1.591,0.54 2.358,1.867 2.309,4.007c-0.034,0.788 -0.281,2.249 -0.747,4.394c-2.255,9.69 -4.554,18.71 -6.902,27.052c-1.805,6.212 -3.299,12.176 -4.526,17.932l-1.077,4.067c-0.344,1.006 -0.887,1.858 -1.654,2.541c-0.955,1.036 -2.046,1.556 -3.283,1.561c-0.815,0.019 -1.436,-0.095 -1.878,-0.298c-1.906,-0.871 -3.114,-2.437 -3.594,-4.666" style="fill:#11489f;fill-rule:nonzero;"/><path d="M909.691,117.195l-0.248,-1.174c-0.043,-0.689 0,-1.397 0.146,-2.205c0.15,-0.773 0.252,-1.342 0.33,-1.684c0.31,-1.352 0.848,-2.338 1.629,-2.967c0.781,-0.629 1.688,-0.842 2.741,-0.639c1.028,0.104 1.892,0.624 2.576,1.57c0.698,0.951 1.101,2.145 1.207,3.611c-0.043,2.135 -0.475,3.938 -1.295,5.41c-1.115,1.585 -2.41,2.169 -3.875,1.728c-1.693,-0.421 -2.746,-1.644 -3.211,-3.65m-14.824,48.916l-0.262,-1.352c-0.077,-3.705 0.214,-6.578 0.898,-8.609c2.129,-7.213 3.89,-12.523 5.277,-15.906c1.383,-3.403 2.779,-6.168 4.162,-8.317c0.727,-1.15 1.407,-1.878 1.984,-2.23c0.47,-0.445 1.135,-0.683 1.955,-0.688c0.824,-0.025 1.571,0.312 2.24,0.971c0.665,0.674 1.092,1.496 1.271,2.511l0.059,0.842c0.082,1.12 0.092,1.908 0.029,2.353c-0.141,0.907 -0.316,2.026 -0.534,3.379c-0.189,1.352 -0.422,2.417 -0.669,3.21l-5.137,19.799c-0.504,1.685 -1.775,3.894 -3.832,6.613c-0.757,0.917 -1.698,1.373 -2.823,1.392c-0.407,0 -0.936,-0.099 -1.572,-0.317c-1.586,-0.535 -2.595,-1.758 -3.046,-3.651" style="fill:#11489f;fill-rule:nonzero;"/><path d="M911.675,190.333c-0.911,-1.105 -1.591,-2.304 -2.047,-3.587c-0.455,-1.273 -0.727,-2.422 -0.805,-3.452c-0.247,-3.245 -0.048,-6.678 0.611,-10.279c0.859,-3.606 1.829,-7.148 2.906,-10.655c4.545,-14.782 10.4,-31.887 17.574,-51.315l3.327,-9.149c5.277,-14.559 9.143,-24.724 11.588,-30.495c0.34,-0.896 0.96,-2.254 1.858,-4.067c0.635,-1.134 1.343,-1.927 2.124,-2.387c0.602,-0.352 1.198,-0.53 1.814,-0.54c0.709,0 1.383,0.243 1.984,0.733c0.607,0.495 1.043,1.199 1.324,2.09c0.122,0.337 0.219,0.843 0.267,1.516c0.039,0.679 0.039,1.179 -0.034,1.501c-0.092,2.943 -0.742,6.658 -1.95,11.161c-0.616,2.709 -1.751,6.657 -3.424,11.849l-1.125,3.388c-7.33,20.32 -12.757,35.557 -16.308,45.727c-5.049,14.9 -8.687,26.64 -10.923,35.195l-1.441,5.588c-0.228,1.02 -0.306,2.026 -0.238,3.041c0.054,0.669 0.151,1.229 0.291,1.675c0.408,1.456 0.18,2.665 -0.727,3.626c-0.903,0.976 -2.047,1.298 -3.401,0.981c-0.936,-0.203 -2.027,-0.927 -3.245,-2.145" style="fill:#11489f;fill-rule:nonzero;"/><path d="M629.872,98.614c-0.398,-3.849 -1.659,-6.742 -3.759,-8.605c-1.736,-1.55 -3.982,-2.378 -6.674,-2.452c-0.582,-0.02 -1.189,0.01 -1.882,0.06l-1.844,0.361c-1.658,0.367 -3.924,1.263 -6.747,2.685c-7.649,4.29 -13.93,9.991 -18.684,16.971c-11.632,17.571 -18.941,36.29 -21.697,55.654c-1.227,9.575 -1.489,17.952 -0.751,24.946c0.902,6.925 3.23,14.604 9.39,18.606c10.288,6.663 23.521,0.788 31.121,-6.767c2.144,-2.125 4.119,-4.601 5.744,-7.177c1.615,-2.571 2.983,-5.494 3.904,-8.421c1.926,-6.188 2.411,-13.861 0.054,-20.107c-0.204,-0.515 -1.402,-5.38 -1.596,-5.38c0.577,-0.02 2.003,-0.327 2.634,-0.411c1.096,-0.104 1.988,-0.624 2.58,-1.521c0.718,-1.05 0.917,-2.531 0.534,-3.943c-1.009,-3.799 -4.924,-3.943 -6.262,-3.973c-0.452,-0.014 -0.903,0 -1.325,0.005c-0.732,0.025 -1.702,0.025 -2.789,0.025c-4.079,0.025 -9.638,0.025 -12.17,1.194c-2.056,0.941 -3.322,3.111 -2.954,5.043c0.151,0.822 0.859,2.754 4.021,3.061c7.48,0.699 10.841,10.442 10.735,15.931c-0.141,6.945 -3.144,14.707 -8.295,19.156c-3.609,3.125 -9.405,6.652 -14.401,6.127c-10.744,-1.124 -9.114,-16.738 -8.547,-24.065l0.107,-1.362c0.96,-12.909 3.72,-24.916 8.217,-35.661c4.545,-11.299 9.415,-20.746 14.484,-28.067c3.264,-4.904 7.164,-8.872 11.583,-11.8c2.493,-1.649 7.3,-4.611 8.391,0.134c0.146,0.654 0.262,1.58 0.354,2.769c0.16,2.165 -0.034,4.25 -0.577,6.207c-0.781,2.908 -5.792,9.462 -2.003,12.008c0.155,0.084 3.468,1.659 5.515,-2.556c0.465,-0.867 0.917,-1.739 1.334,-2.651c2.241,-4.953 3.002,-10.343 2.255,-16.024" style="fill:#11489f;fill-rule:nonzero;"/><path d="M654.899,113.17c-0.301,0 -0.548,-0.119 -0.766,-0.332c-0.209,-0.218 -0.32,-0.491 -0.32,-0.827l0,-16.065c0,-0.327 0.111,-0.614 0.32,-0.837c0.218,-0.223 0.465,-0.347 0.766,-0.347l3.463,0c0.291,0 0.539,0.124 0.757,0.347c0.214,0.223 0.325,0.51 0.325,0.837l0,11.76l7.067,0c0.33,0 0.602,0.099 0.83,0.317c0.228,0.208 0.344,0.471 0.344,0.783l0,3.304c0,0.307 -0.116,0.554 -0.344,0.758c-0.228,0.213 -0.5,0.326 -0.83,0.326l-10.942,0l-0.67,-0.024Z" style="fill:#00b6ed;fill-rule:nonzero;"/><path d="M687.82,103.877c0,-0.753 -0.184,-1.447 -0.562,-2.076c-0.374,-0.629 -0.873,-1.129 -1.504,-1.511c-0.621,-0.371 -1.295,-0.554 -2.013,-0.554c-0.747,0 -1.445,0.183 -2.066,0.554c-0.626,0.382 -1.121,0.882 -1.48,1.511c-0.364,0.629 -0.538,1.323 -0.538,2.076c0,0.743 0.174,1.451 0.538,2.085c0.359,0.639 0.854,1.14 1.48,1.526c0.621,0.376 1.319,0.565 2.066,0.565c0.718,0 1.392,-0.189 2.013,-0.565c0.631,-0.386 1.13,-0.887 1.504,-1.526c0.378,-0.634 0.562,-1.342 0.562,-2.085m-13.407,0.238c0,-1.734 0.427,-3.339 1.271,-4.805c0.849,-1.467 1.989,-2.636 3.425,-3.498c1.445,-0.872 3.017,-1.307 4.71,-1.307c1.692,0 3.259,0.435 4.71,1.307c1.45,0.862 2.595,2.031 3.443,3.498c0.844,1.466 1.276,3.071 1.276,4.805c0,1.723 -0.432,3.333 -1.276,4.795c-0.848,1.471 -1.993,2.64 -3.443,3.507c-1.451,0.862 -3.018,1.298 -4.71,1.298c-1.693,0 -3.265,-0.436 -4.71,-1.298c-1.436,-0.867 -2.576,-2.036 -3.425,-3.507c-0.844,-1.462 -1.271,-3.072 -1.271,-4.795" style="fill:#00b6ed;fill-rule:nonzero;"/><path d="M713.802,112.245l0,-16.5c0,-0.248 0.088,-0.461 0.272,-0.649c0.175,-0.183 0.403,-0.277 0.645,-0.277l3.992,0c0.17,0 0.349,0.044 0.539,0.123c0.189,0.075 0.31,0.154 0.378,0.243l4.783,5.365l5.015,-5.335c0.204,-0.193 0.427,-0.307 0.674,-0.342c0.252,-0.035 0.548,-0.054 0.883,-0.054l3.478,0c0.238,0 0.451,0.094 0.635,0.277c0.17,0.188 0.253,0.401 0.253,0.649l0,16.5c0,0.263 -0.073,0.491 -0.243,0.669c-0.179,0.188 -0.393,0.278 -0.645,0.278l-3.444,0c-0.262,0 -0.49,-0.09 -0.684,-0.278c-0.199,-0.178 -0.291,-0.406 -0.291,-0.669l0,-9.659l-4.138,5.355c-0.344,0.47 -0.78,0.708 -1.314,0.708c-0.252,0 -0.5,-0.054 -0.737,-0.168c-0.228,-0.109 -0.417,-0.263 -0.544,-0.461l-4.244,-5.434l0.034,9.659c0,0.263 -0.097,0.491 -0.257,0.669c-0.175,0.188 -0.388,0.278 -0.64,0.278l-3.483,0c-0.242,0 -0.47,-0.1 -0.645,-0.288c-0.184,-0.198 -0.272,-0.416 -0.272,-0.659" style="fill:#00b6ed;fill-rule:nonzero;"/><path d="M749.736,99.518l0,2.12l7.247,0c0.281,0 0.524,0.114 0.737,0.332c0.204,0.228 0.32,0.495 0.32,0.827l0,2.284c0,0.297 -0.116,0.56 -0.32,0.798c-0.213,0.237 -0.456,0.351 -0.737,0.351l-7.247,0l0,2.343l7.611,0c0.296,0 0.543,0.109 0.761,0.327c0.219,0.213 0.316,0.501 0.316,0.852l0,2.254c0,0.317 -0.097,0.595 -0.316,0.827c-0.218,0.233 -0.465,0.362 -0.761,0.362l-12.127,0c-0.296,0 -0.543,-0.129 -0.756,-0.362c-0.219,-0.232 -0.316,-0.51 -0.316,-0.827l0,-0.069l0,-2.185l0,-11.388l0,-2.279c0,-0.337 0.097,-0.609 0.316,-0.822c0.213,-0.223 0.46,-0.347 0.756,-0.347l12.127,0c0.296,0 0.543,0.124 0.761,0.347c0.219,0.213 0.316,0.485 0.316,0.822l0,2.279c0,0.297 -0.107,0.565 -0.335,0.802c-0.218,0.233 -0.471,0.352 -0.742,0.352l-7.611,0Z" style="fill:#00b6ed;fill-rule:nonzero;"/><path d="M762.094,118.699l0,-1.838c0,-0.381 0.122,-0.778 0.369,-1.194c0.257,-0.401 0.597,-0.614 1.019,-0.614c1.183,0 2.066,-0.267 2.648,-0.802c0.573,-0.535 0.941,-1.135 1.072,-1.808c0.141,-0.669 0.218,-1.467 0.243,-2.378l0.019,-0.624l0,-13.494c0,-0.357 0.087,-0.634 0.257,-0.817c0.17,-0.189 0.369,-0.288 0.592,-0.288l4.084,0c0.204,0 0.398,0.109 0.563,0.307c0.169,0.204 0.257,0.486 0.257,0.828l-0.107,14.999l0,0.035c0,3.428 -0.854,5.84 -2.59,7.227c-1.722,1.387 -3.759,2.115 -6.097,2.17c-0.723,0.015 -1.295,-0.129 -1.698,-0.421c-0.403,-0.297 -0.611,-0.728 -0.631,-1.288" style="fill:#00b6ed;fill-rule:nonzero;"/><path d="M794.935,103.877c0,-0.753 -0.184,-1.447 -0.567,-2.076c-0.364,-0.629 -0.873,-1.129 -1.499,-1.511c-0.626,-0.371 -1.295,-0.554 -2.018,-0.554c-0.752,0 -1.45,0.183 -2.071,0.554c-0.621,0.382 -1.111,0.882 -1.465,1.511c-0.369,0.629 -0.553,1.323 -0.553,2.076c0,0.743 0.184,1.451 0.553,2.085c0.354,0.639 0.844,1.14 1.465,1.526c0.621,0.376 1.319,0.565 2.071,0.565c0.723,0 1.392,-0.189 2.018,-0.565c0.626,-0.386 1.135,-0.887 1.499,-1.526c0.383,-0.634 0.567,-1.342 0.567,-2.085m-13.412,0.238c0,-1.734 0.427,-3.339 1.271,-4.805c0.854,-1.467 1.989,-2.636 3.434,-3.498c1.441,-0.872 3.008,-1.307 4.705,-1.307c1.688,0 3.265,0.435 4.705,1.307c1.451,0.862 2.605,2.031 3.444,3.498c0.849,1.466 1.271,3.071 1.271,4.805c0,1.723 -0.422,3.333 -1.271,4.795c-0.839,1.471 -1.993,2.64 -3.444,3.507c-1.44,0.862 -3.017,1.298 -4.705,1.298c-1.697,0 -3.264,-0.436 -4.705,-1.298c-1.445,-0.867 -2.58,-2.036 -3.434,-3.507c-0.844,-1.462 -1.271,-3.072 -1.271,-4.795" style="fill:#00b6ed;fill-rule:nonzero;"/><path d="M814.759,103.398c0.781,0 1.509,-0.134 2.169,-0.431c0.664,-0.292 0.984,-0.956 0.984,-2.001c0,-0.739 -0.213,-1.298 -0.645,-1.685c-0.446,-0.381 -1.067,-0.574 -1.887,-0.574l-2.115,0l0,4.691l1.494,0Zm3.823,8.213c-0.185,-1.189 -0.573,-2.011 -1.165,-2.482c-0.596,-0.456 -1.324,-0.728 -2.192,-0.822c-0.131,-0.015 -0.272,-0.025 -0.441,-0.025c-0.175,0 -0.325,0.015 -0.437,0.05l-0.029,0.034l0,3.359c0,0.327 -0.029,0.594 -0.087,0.792c-0.068,0.208 -0.223,0.372 -0.49,0.496c-0.267,0.133 -0.684,0.198 -1.247,0.198l-2.391,0c-0.529,0.025 -0.946,-0.079 -1.252,-0.297c-0.31,-0.218 -0.46,-0.521 -0.46,-0.907l0.014,-7.084l0,-9.129c0,-0.263 0.136,-0.495 0.393,-0.699c0.252,-0.198 0.568,-0.297 0.922,-0.297l5.83,0c2.571,-0.02 4.467,0.421 5.704,1.323c1.237,0.901 1.907,2.313 2.008,4.24c0.01,0.174 0.02,0.307 0.01,0.406c-0.01,0.094 -0.01,0.179 -0.01,0.248l0,0.555c-0.092,1.01 -0.349,1.818 -0.785,2.412c-0.432,0.595 -1.009,1.145 -1.742,1.65l0.029,0.03c0.844,0.416 1.509,1.02 2.008,1.803c0.5,0.792 0.835,1.61 1.019,2.467c0.175,0.861 0.247,1.624 0.214,2.313c0,0.307 -0.097,0.54 -0.306,0.703c-0.199,0.184 -0.505,0.263 -0.873,0.263l-3.138,0c-0.437,0 -0.733,-0.104 -0.859,-0.342c-0.131,-0.223 -0.199,-0.466 -0.209,-0.708c-0.009,-0.258 -0.014,-0.436 -0.038,-0.55" style="fill:#00b6ed;fill-rule:nonzero;"/><path d="M853.019,107.553c0.562,0 1.091,-0.173 1.571,-0.51c0.495,-0.327 0.883,-0.788 1.184,-1.372c0.296,-0.585 0.451,-1.229 0.451,-1.932c0,-0.674 -0.151,-1.308 -0.442,-1.882c-0.281,-0.585 -0.674,-1.036 -1.164,-1.382c-0.49,-0.342 -1.018,-0.511 -1.581,-0.511l-2.391,0c-0.126,0 -0.219,0.045 -0.296,0.129c-0.073,0.094 -0.117,0.198 -0.117,0.342l0,6.638c0,0.148 0.044,0.257 0.117,0.352c0.077,0.079 0.17,0.128 0.296,0.128l2.372,0Zm-8.13,4.478l0,-16.054c0,-0.312 0.117,-0.585 0.335,-0.813c0.223,-0.228 0.485,-0.341 0.805,-0.341l6.931,0c1.63,0 3.158,0.421 4.589,1.253c1.431,0.827 2.571,1.942 3.415,3.348c0.849,1.417 1.271,2.933 1.271,4.583c0,1.644 -0.427,3.175 -1.281,4.582c-0.858,1.401 -2.003,2.521 -3.449,3.353c-1.435,0.837 -2.973,1.253 -4.593,1.253l-6.883,0c-0.32,0 -0.582,-0.128 -0.805,-0.346c-0.218,-0.228 -0.335,-0.491 -0.335,-0.818" style="fill:#00b6ed;fill-rule:nonzero;"/><path d="M875.642,99.518l0,2.12l7.247,0c0.271,0 0.519,0.114 0.732,0.332c0.209,0.228 0.325,0.495 0.325,0.827l0,2.284c0,0.297 -0.116,0.56 -0.325,0.798c-0.213,0.237 -0.461,0.351 -0.732,0.351l-7.247,0l0,2.343l7.611,0c0.281,0 0.538,0.109 0.761,0.327c0.204,0.213 0.311,0.501 0.311,0.852l0,2.254c0,0.317 -0.107,0.595 -0.311,0.827c-0.223,0.233 -0.48,0.362 -0.761,0.362l-12.132,0c-0.291,0 -0.548,-0.129 -0.761,-0.362c-0.209,-0.232 -0.315,-0.51 -0.315,-0.827l0,-0.069l0,-2.185l0,-11.388l0,-2.279c0,-0.337 0.106,-0.609 0.315,-0.822c0.213,-0.223 0.47,-0.347 0.761,-0.347l12.132,0c0.281,0 0.538,0.124 0.761,0.347c0.204,0.213 0.311,0.485 0.311,0.822l0,2.279c0,0.297 -0.107,0.565 -0.335,0.802c-0.223,0.233 -0.471,0.352 -0.737,0.352l-7.611,0Z" style="fill:#00b6ed;fill-rule:nonzero;"/><path d="M1337.47,107.539c-21.765,-3.413 -22.381,-4.874 -32.378,-4.612c-14.158,0.387 -36.67,6.801 -48.869,10.066l-2.032,0.381l-8.697,-32.243l-19.742,37.648l-34.221,7.44l21.93,15.921l-28.721,54.653l49.869,-38.321l40.619,31.272l-3.105,-11.294l-1.179,-4.731c0,0 -3.312,-8.604 4.487,-11.433c7.805,-2.838 19.946,0.728 32.242,-0.208c7.392,-0.569 18.684,-4.483 32.096,-14.42c-3.07,1.085 -6.432,2.15 -10.079,3.136c-17.496,4.696 -32.543,-5.216 -46.26,-4.998c-22.167,0.351 -22.948,15.618 -22.686,18.868c-0.054,-0.054 0.771,3.428 0.771,3.428l-25.475,-18.606l-32.154,24.486l17.753,-34.992l-15.988,-10.651l24.2,-5.592l13.746,-27.062l5.729,23.708l37.349,-8.431l-6.383,4.79l-12.234,9.353c3.148,-1.581 6.767,-3.022 10.803,-4.127c0.228,-0.059 0.456,-0.119 0.684,-0.173c0.334,-0.094 0.679,-0.174 1.028,-0.263c0.291,-0.074 0.572,-0.133 0.878,-0.193c0.305,-0.074 0.626,-0.144 0.951,-0.213c0.392,-0.079 0.795,-0.144 1.183,-0.223c0.325,-0.059 0.65,-0.124 0.99,-0.168c0.538,-0.099 1.081,-0.174 1.634,-0.253c0.248,-0.035 0.519,-0.069 0.781,-0.094c0.437,-0.05 0.864,-0.094 1.31,-0.149c0.271,-0.024 0.543,-0.044 0.824,-0.074c0.466,-0.04 0.937,-0.064 1.407,-0.094c0.252,-0.02 0.49,-0.035 0.742,-0.045c0.723,-0.029 1.436,-0.054 2.188,-0.069c21.881,-0.228 32.368,2.992 47.948,0.555c18.019,-2.809 37.198,-17.174 43.849,-23.446c0,-0.019 0.014,-0.029 0.014,-0.034c0,0 -23.452,15.321 -47.802,11.507" style="fill:#11489f;fill-rule:nonzero;"/><path d="M1313.02,140.245l-2.784,-2.412l-4.632,1.947l3.211,-3.354l-1.955,-2.318l3.73,0.302l2.818,-3.433l-0.528,3.586l3.909,0.184l-3.997,1.927l0.228,3.571Zm-13.887,-1.833l-3.177,-2.496l-4.802,2.452l3.196,-3.904l-2.25,-2.457l4.045,0.104l2.76,-3.977l-0.315,3.997l4.22,-0.039l-4.167,2.402l0.49,3.918Zm-15.905,-3.834l1.305,3.537l-3.633,-1.59l-4.264,3.368l2.377,-4.359l-2.741,-1.758l4.007,-0.818l1.93,-4.329l0.49,3.785l4.162,-0.996l-3.633,3.16Zm-0.999,-8.208c-0.286,0.025 -0.582,0.05 -0.883,0.084c-0.044,0.005 -0.092,0.02 -0.136,0.025c-0.257,0.03 -0.528,0.069 -0.8,0.104c-0.063,0.01 -0.116,0.025 -0.184,0.035c-0.257,0.044 -0.51,0.084 -0.781,0.129c-0.068,0.01 -0.141,0.034 -0.219,0.044c-0.247,0.045 -0.494,0.104 -0.756,0.154c-0.088,0.025 -0.17,0.039 -0.248,0.064c-0.262,0.055 -0.509,0.119 -0.771,0.174c-0.102,0.024 -0.184,0.054 -0.272,0.074c-0.247,0.069 -0.494,0.139 -0.756,0.208c-0.097,0.03 -0.199,0.054 -0.301,0.089c-0.252,0.069 -0.49,0.144 -0.742,0.218c-0.107,0.035 -0.228,0.074 -0.335,0.099c-0.237,0.084 -0.48,0.168 -0.718,0.248c-0.116,0.039 -0.232,0.079 -0.359,0.124c-0.237,0.079 -0.47,0.153 -0.698,0.247c-0.136,0.05 -0.277,0.094 -0.403,0.149c-0.218,0.089 -0.436,0.173 -0.664,0.262c-0.136,0.05 -0.282,0.109 -0.432,0.174c-0.208,0.089 -0.412,0.173 -0.63,0.262l-0.456,0.203c-0.194,0.09 -0.388,0.179 -0.587,0.273c-0.17,0.079 -0.32,0.153 -0.495,0.218c-0.184,0.094 -0.354,0.188 -0.553,0.277c-0.175,0.089 -0.349,0.174 -0.519,0.268c-0.165,0.074 -0.325,0.168 -0.5,0.267c-0.184,0.089 -0.373,0.193 -0.553,0.288c-0.15,0.094 -0.291,0.168 -0.441,0.257c-0.199,0.114 -0.403,0.228 -0.602,0.342c-0.116,0.079 -0.247,0.153 -0.368,0.228c-0.218,0.134 -0.437,0.267 -0.645,0.396c-0.092,0.069 -0.189,0.124 -0.272,0.183c-0.242,0.159 -0.48,0.322 -0.723,0.476c-0.038,0.035 -0.082,0.059 -0.126,0.084c-2.765,1.932 -5.19,4.24 -6.795,6.856c-0.01,0.005 -0.01,0.015 -0.01,0.02c-0.184,0.287 -0.349,0.579 -0.514,0.867c-0.01,0.019 -0.01,0.024 -0.01,0.034c-0.16,0.298 -0.301,0.585 -0.437,0.887c0,0.025 -0.014,0.03 -0.014,0.05c-0.136,0.287 -0.252,0.594 -0.374,0.901c0,0.02 0,0.03 -0.009,0.045c-0.107,0.302 -0.209,0.614 -0.301,0.926c0,0.02 -0.01,0.025 -0.01,0.03c-0.087,0.327 -0.165,0.654 -0.233,0.981l0.165,0.619l0.878,3.581l1.344,5.444c0,-0.034 0.019,-0.059 0.044,-0.084c0.16,-0.391 0.368,-0.807 0.606,-1.243c0.024,-0.055 0.058,-0.094 0.087,-0.144c0.073,-0.144 0.151,-0.287 0.238,-0.421c0.019,-0.035 0.044,-0.059 0.053,-0.084c0.16,-0.263 0.359,-0.55 0.563,-0.837c0.034,-0.06 0.078,-0.114 0.121,-0.184c0.097,-0.128 0.209,-0.272 0.315,-0.416c0.054,-0.074 0.112,-0.139 0.17,-0.208c0.189,-0.252 0.393,-0.495 0.611,-0.748c0.063,-0.074 0.131,-0.134 0.194,-0.208c0.131,-0.139 0.248,-0.277 0.384,-0.406c0.082,-0.084 0.169,-0.183 0.266,-0.273c0.131,-0.123 0.253,-0.252 0.388,-0.391c0.146,-0.119 0.296,-0.257 0.437,-0.386c0.184,-0.174 0.403,-0.347 0.597,-0.525c0.131,-0.099 0.262,-0.203 0.388,-0.307c0.155,-0.119 0.305,-0.238 0.456,-0.352c0.165,-0.119 0.315,-0.228 0.48,-0.352c0.238,-0.173 0.485,-0.342 0.747,-0.505c0.174,-0.119 0.354,-0.243 0.538,-0.357c0.185,-0.114 0.354,-0.213 0.539,-0.322c0.169,-0.109 0.363,-0.223 0.557,-0.317c0.175,-0.109 0.359,-0.208 0.544,-0.307c0.33,-0.178 0.684,-0.357 1.043,-0.525c0.194,-0.094 0.397,-0.193 0.591,-0.282c0.233,-0.099 0.461,-0.208 0.699,-0.303c0.218,-0.099 0.422,-0.188 0.635,-0.272c0.34,-0.139 0.674,-0.272 1.029,-0.401c0.276,-0.104 0.557,-0.198 0.839,-0.293c0.291,-0.104 0.596,-0.213 0.902,-0.302c0.238,-0.074 0.47,-0.153 0.713,-0.223c0.34,-0.104 0.66,-0.198 1.004,-0.292c0.262,-0.074 0.524,-0.148 0.796,-0.213c0.465,-0.114 0.955,-0.228 1.45,-0.347c0.252,-0.059 0.499,-0.114 0.757,-0.163c0.397,-0.079 0.795,-0.159 1.198,-0.233c0.247,-0.045 0.485,-0.094 0.737,-0.139c0.616,-0.104 1.256,-0.198 1.896,-0.287c0.214,-0.025 0.432,-0.054 0.65,-0.084c0.519,-0.065 1.038,-0.124 1.582,-0.183c0.237,-0.025 0.475,-0.05 0.727,-0.08c0.757,-0.069 1.514,-0.133 2.309,-0.193c14.906,-0.926 26.47,5.063 42.535,1.684c20.1,-4.21 37.247,-20.062 39.493,-22.97l-0.131,0.228c0.339,-0.401 0.66,-0.802 0.985,-1.208c-7.587,4.606 -20.62,11.284 -33.77,12.319c-23.147,1.813 -34.628,-5.34 -53.744,-3.829" style="fill:#11489f;fill-rule:nonzero;"/><path d="M1157.99,237.943l-0.553,-11.725c-0.131,-2.908 -0.029,-6.162 0.015,-8.916l-0.141,0c-1.426,2.754 -2.998,6.083 -4.579,8.916l-6.723,11.725l11.981,0Zm-15.105,6.584l-7.601,13.503l-8.789,0l27.59,-47.658l10.875,0l2.518,47.658l-9.149,0l-0.625,-13.503l-14.819,0Z" style="fill:#11489f;fill-rule:nonzero;"/><path d="M1185.23,207.825l8.59,0l-13.334,50.205l-8.571,0l13.315,-50.205Z" style="fill:#11489f;fill-rule:nonzero;"/><path d="M1213.38,256.96c-2.028,0.852 -5.821,1.838 -10.05,1.838c-10.516,0 -15.527,-6.916 -12.704,-17.601c2.75,-10.328 11.811,-18.387 23.642,-18.387c3.119,0 6.116,0.708 7.814,1.629l-3.25,6.504c-1.218,-0.629 -3.036,-1.342 -6.083,-1.342c-6.519,0 -11.685,4.879 -13.285,11.165c-1.877,7.074 1.557,11.116 7.377,11.116c2.979,0 5.22,-0.649 7.068,-1.357l-0.529,6.435Z" style="fill:#11489f;fill-rule:nonzero;"/><path d="M1240.34,241.199c-5.98,-0.133 -12.087,1.204 -13.479,6.435c-0.907,3.388 0.829,4.944 3.531,4.944c3.395,0 6.48,-2.259 7.911,-4.736c0.369,-0.634 0.631,-1.337 0.781,-1.907l1.256,-4.736Zm6.039,8.555c-0.834,3.106 -1.494,6.143 -1.712,8.273l-7.683,0l0.451,-3.824l-0.199,0c-2.794,2.684 -6.834,4.597 -11.205,4.597c-6.776,0 -9.245,-5.018 -7.858,-10.249c2.3,-8.694 11.016,-13.078 23.462,-13.014l0.151,-0.564c0.606,-2.259 0.689,-6.009 -5.258,-6.009c-3.328,0 -7.077,1.065 -9.75,2.546l-0.155,-5.657c2.901,-1.55 7.659,-3.041 12.99,-3.041c10.797,0 12.053,6.999 10.07,14.499l-3.304,12.443Z" style="fill:#11489f;fill-rule:nonzero;"/><path d="M1265.11,207.825l8.585,0l-13.324,50.205l-8.581,0l13.32,-50.205Z" style="fill:#11489f;fill-rule:nonzero;"/><path d="M1296.09,237.943c0.184,-0.708 0.334,-1.545 0.393,-2.254c0.126,-3.403 -1.834,-6.157 -5.705,-6.157c-5.476,0 -9.832,4.949 -11.534,11.388c-1.679,6.287 0.155,10.884 5.554,10.884c3.468,0 7.144,-2.403 8.963,-6.148c0.422,-0.783 0.713,-1.625 0.956,-2.546l1.373,-5.167Zm16.511,-30.118l-10.754,40.511c-0.941,3.542 -1.814,7.356 -2.284,9.694l-7.621,0l1.092,-5.454l-0.126,0c-3.027,3.82 -7.756,6.222 -12.68,6.222c-8.018,0 -12.529,-6.994 -9.72,-17.6c2.993,-11.522 11.884,-18.388 19.979,-18.388c4.642,0 7.436,1.986 8.285,4.528l0.136,0l5.18,-19.513l8.513,0Z" style="fill:#11489f;fill-rule:nonzero;"/><path d="M1334.8,208.672l-11.287,10.462l-5.884,0l8.799,-10.462l8.372,0Zm-27.784,49.358l9.153,-34.443l8.581,0l-9.134,34.443l-8.6,0Z" style="fill:#11489f;fill-rule:nonzero;"/><path d="M1345.7,241.199c-5.981,-0.133 -12.097,1.204 -13.475,6.435c-0.902,3.388 0.825,4.944 3.522,4.944c3.39,0 6.48,-2.259 7.916,-4.736c0.378,-0.634 0.64,-1.337 0.776,-1.907l1.261,-4.736Zm6.039,8.555c-0.825,3.106 -1.494,6.143 -1.712,8.273l-7.689,0l0.466,-3.824l-0.218,0c-2.784,2.684 -6.83,4.597 -11.186,4.597c-6.776,0 -9.254,-5.018 -7.867,-10.249c2.304,-8.694 11.011,-13.078 23.457,-13.014l0.15,-0.564c0.597,-2.259 0.694,-6.009 -5.258,-6.009c-3.317,0 -7.067,1.065 -9.735,2.546l-0.174,-5.657c2.915,-1.55 7.664,-3.041 12.999,-3.041c10.798,0 12.054,6.999 10.06,14.499l-3.293,12.443Z" style="fill:#11489f;fill-rule:nonzero;"/><path d="M1397.99,237.943c0.184,-0.708 0.345,-1.545 0.388,-2.254c0.151,-3.403 -1.819,-6.157 -5.699,-6.157c-5.476,0 -9.823,4.949 -11.549,11.388c-1.654,6.287 0.165,10.884 5.563,10.884c3.473,0 7.145,-2.403 8.974,-6.148c0.412,-0.783 0.708,-1.625 0.96,-2.546l1.363,-5.167Zm16.507,-30.118l-10.749,40.511c-0.936,3.542 -1.805,7.356 -2.299,9.694l-7.611,0l1.096,-5.454l-0.131,0c-3.022,3.82 -7.741,6.222 -12.664,6.222c-8.033,0 -12.544,-6.994 -9.731,-17.6c3.003,-11.522 11.87,-18.388 19.98,-18.388c4.637,0 7.421,1.986 8.28,4.528l0.14,0l5.171,-19.513l8.518,0Z" style="fill:#11489f;fill-rule:nonzero;"/><path d="M1435.3,237.17c0.907,-3.181 0.921,-8.412 -4.754,-8.412c-5.273,0 -8.775,4.87 -10.065,8.412l14.819,0Zm-16.434,6.083c-1.446,6.211 2.624,8.901 8.023,8.901c3.943,0 6.936,-0.559 9.754,-1.56l-0.344,6.014c-3.231,1.203 -7.504,2.189 -12.35,2.189c-10.938,0 -15.531,-6.915 -12.737,-17.456c2.527,-9.551 10.593,-18.527 21.386,-18.527c11.02,0 12.112,9.184 10.094,16.753c-0.432,1.63 -0.907,2.893 -1.252,3.686l-22.574,0Z" style="fill:#11489f;fill-rule:nonzero;"/><path d="M1164.44,322.668c-3.526,1.224 -10.225,2.888 -16.933,2.888c-8.469,0 -14.304,-2.199 -17.845,-6.841c-3.313,-4.339 -4.128,-11.096 -1.989,-18.863c4.302,-16.199 18.379,-26.616 34.997,-26.616c6.179,0 10.681,1.288 12.679,2.437l-4.002,7.53c-2.43,-1.224 -5.52,-2.215 -10.812,-2.215c-10.729,0 -19.96,6.47 -23.132,18.408c-3.094,11.641 2.071,18.561 12.5,18.561c3.274,0 5.855,-0.456 7.213,-1.065l3.386,-12.78l-8.867,0l1.964,-7.376l17.724,0l-6.883,25.932Z" style="fill:#11489f;fill-rule:nonzero;"/><path d="M1206.98,313.931c-1.174,4.409 -1.984,8.055 -2.644,11.091l-8.042,0l1.052,-5.617l-0.155,0c-2.275,2.66 -6.863,6.46 -13.349,6.46c-6.621,0 -11.578,-4.028 -8.376,-16.129l5.777,-21.742l9.162,0l-5.35,20.147c-1.635,6.167 -0.742,10.12 4.094,10.12c3.652,0 6.742,-2.67 8.333,-5.028c0.514,-0.832 0.999,-1.823 1.295,-2.888l5.928,-22.351l9.162,0l-6.887,25.937Z" style="fill:#11489f;fill-rule:nonzero;"/><path d="M1236.47,306.931c-6.437,-0.153 -13.01,1.288 -14.494,6.916c-0.98,3.655 0.893,5.315 3.793,5.315c3.658,0 6.975,-2.427 8.513,-5.088c0.403,-0.683 0.674,-1.451 0.834,-2.055l1.354,-5.088Zm6.495,9.204c-0.893,3.339 -1.606,6.608 -1.844,8.887l-8.26,0l0.49,-4.102l-0.219,0c-3.007,2.893 -7.348,4.944 -12.043,4.944c-7.301,0 -9.954,-5.404 -8.47,-11.022c2.494,-9.362 11.86,-14.078 25.243,-13.999l0.155,-0.609c0.655,-2.437 0.752,-6.469 -5.646,-6.469c-3.575,0 -7.601,1.144 -10.482,2.744l-0.184,-6.093c3.128,-1.669 8.25,-3.264 13.979,-3.264c11.622,0 12.975,7.529 10.831,15.594l-3.55,13.389Z" style="fill:#11489f;fill-rule:nonzero;"/><path d="M1263.62,287.993l1.29,19.849c0.131,2.283 0.131,5.087 0.082,7.227l0.233,0c1.145,-2.14 2.542,-4.869 3.871,-7.306l10.904,-19.77l9.832,0l-15.788,25.243c-8.668,13.851 -13.645,20.003 -18.981,23.807c-4.443,3.275 -8.488,4.483 -10.875,4.8l0.015,-7.92c1.669,-0.377 3.822,-1.209 6.049,-2.581c2.022,-1.14 4.612,-3.344 6.548,-5.86c0.553,-0.684 0.921,-1.209 1.043,-1.67c0.097,-0.381 0.16,-0.916 -0.044,-1.828l-4.23,-33.991l10.051,0Z" style="fill:#11489f;fill-rule:nonzero;"/><path d="M1307.38,306.931c-6.451,-0.153 -13.009,1.288 -14.503,6.916c-0.965,3.655 0.883,5.315 3.793,5.315c3.653,0 6.98,-2.427 8.508,-5.088c0.403,-0.683 0.684,-1.451 0.835,-2.055l1.367,-5.088Zm6.481,9.204c-0.888,3.339 -1.601,6.608 -1.829,8.887l-8.275,0l0.5,-4.102l-0.224,0c-3.007,2.893 -7.353,4.944 -12.039,4.944c-7.295,0 -9.963,-5.404 -8.464,-11.022c2.474,-9.362 11.845,-14.078 25.223,-13.999l0.165,-0.609c0.65,-2.437 0.762,-6.469 -5.661,-6.469c-3.565,0 -7.596,1.144 -10.472,2.744l-0.184,-6.093c3.138,-1.669 8.251,-3.264 13.989,-3.264c11.622,0 12.97,7.529 10.831,15.594l-3.56,13.389Z" style="fill:#11489f;fill-rule:nonzero;"/><path d="M1349.75,303.274c0.204,-0.763 0.344,-1.585 0.388,-2.274c0.112,-3.507 -2.018,-6.474 -6.102,-6.474c-5.889,0 -10.589,5.097 -12.447,12.102c-1.809,6.761 0.044,11.854 5.865,11.854c3.715,0 7.416,-2.433 9.444,-6.163c0.538,-0.906 0.975,-1.971 1.222,-2.878l1.63,-6.167Zm-4.424,16.659l-0.15,0c-3.105,3.582 -7.523,5.935 -12.815,5.935c-8.12,0 -13.281,-7.223 -10.201,-18.794c3.589,-13.529 13.766,-19.924 21.517,-19.924c5.064,0 8.057,2.209 9.061,5.707l0.136,0.074l1.537,-4.939l8.857,0c-1.033,3.349 -2.114,6.841 -3.143,10.725l-10.981,41.372l-9.163,0l5.345,-20.156Z" style="fill:#11489f;fill-rule:nonzero;"/><path d="M1396.91,313.931c-1.169,4.409 -1.994,8.055 -2.659,11.091l-8.042,0l1.053,-5.617l-0.155,0c-2.261,2.66 -6.849,6.46 -13.335,6.46c-6.621,0 -11.597,-4.028 -8.376,-16.129l5.767,-21.742l9.172,0l-5.355,20.147c-1.634,6.167 -0.752,10.12 4.084,10.12c3.653,0 6.748,-2.67 8.338,-5.028c0.519,-0.832 1.009,-1.823 1.291,-2.888l5.937,-22.351l9.153,0l-6.873,25.937Z" style="fill:#11489f;fill-rule:nonzero;"/><path d="M1424.7,277.65c-0.747,2.799 -3.347,5.013 -6.538,5.013c-3.066,0 -4.487,-2.214 -3.74,-5.013c0.761,-2.898 3.439,-5.102 6.485,-5.102c3.143,0 4.487,2.204 3.793,5.102m-22.332,47.371l9.823,-37.028l9.235,0l-9.822,37.028l-9.236,0Z" style="fill:#11489f;fill-rule:nonzero;"/><path d="M1434.28,271.032l9.235,0l-14.333,53.989l-9.236,0l14.334,-53.989Z" style="fill:#11489f;fill-rule:nonzero;"/></svg>
