<?xml version="1.0" encoding="UTF-8" standalone="no"?><!DOCTYPE svg PUBLIC "-//W3C//DTD SVG 1.1//EN" "http://www.w3.org/Graphics/SVG/1.1/DTD/svg11.dtd"><svg width="100%" height="100%" viewBox="0 0 2200 600" version="1.1" xmlns="http://www.w3.org/2000/svg" xmlns:xlink="http://www.w3.org/1999/xlink" xml:space="preserve" style="fill-rule:evenodd;clip-rule:evenodd;stroke-linejoin:round;stroke-miterlimit:1.41421;"><g><path d="M140.952,-42.989l0,360.653l-59.995,0l0,-243.48l-23.965,243.48l-42.551,0l-25.269,-237.911l0,237.911l-59.995,0l0,-360.653l88.851,0c2.608,21.682 5.38,47.226 8.314,76.63l9.456,91.779l15.651,-168.409l89.503,0Z" style="fill:#ccc;fill-rule:nonzero;"/><path d="M321.852,-42.989l0,241.029c0,27.326 -0.652,46.521 -1.956,57.585c-1.304,11.063 -5.163,22.424 -11.575,34.082c-6.413,11.658 -14.863,20.494 -25.351,26.509c-10.489,6.015 -22.852,9.022 -37.09,9.022c-15.759,0 -29.671,-3.564 -41.735,-10.693c-12.064,-7.128 -21.085,-16.41 -27.063,-27.845c-5.978,-11.435 -9.51,-23.502 -10.597,-36.199c-1.087,-12.698 -1.63,-39.392 -1.63,-80.083l0,-213.407l68.635,0l0,270.434c0,15.742 0.625,25.803 1.875,30.184c1.25,4.381 3.777,6.572 7.581,6.572c4.347,0 7.146,-2.413 8.396,-7.24c1.25,-4.826 1.875,-16.224 1.875,-34.194l0,-265.756l68.635,0Z" style="fill:#ccc;fill-rule:nonzero;"/><path d="M491.177,66.165l-63.744,0l0,-26.732c0,-12.474 -0.815,-20.42 -2.446,-23.835c-1.63,-3.416 -4.347,-5.124 -8.151,-5.124c-4.13,0 -7.255,2.302 -9.374,6.906c-2.12,4.604 -3.179,11.583 -3.179,20.939c0,12.03 1.195,21.089 3.586,27.177c2.283,6.089 8.749,13.441 19.401,22.054c30.541,24.801 49.778,45.147 57.712,61.037c7.934,15.89 11.901,41.508 11.901,76.853c0,25.692 -2.201,44.627 -6.602,56.805c-4.402,12.177 -12.907,22.387 -25.515,30.63c-12.607,8.242 -27.28,12.363 -44.018,12.363c-18.367,0 -34.045,-4.752 -47.034,-14.257c-12.988,-9.504 -21.492,-21.608 -25.514,-36.31c-4.021,-14.703 -6.032,-35.568 -6.032,-62.597l0,-23.612l63.745,0l0,43.884c0,13.514 0.896,22.202 2.69,26.063c1.793,3.861 4.972,5.792 9.537,5.792c4.565,0 7.961,-2.451 10.189,-7.351c2.228,-4.901 3.342,-12.178 3.342,-21.831c0,-21.237 -2.119,-35.122 -6.358,-41.657c-4.347,-6.534 -15.053,-17.449 -32.116,-32.746c-17.064,-15.445 -28.368,-26.657 -33.911,-33.637c-5.543,-6.98 -10.135,-16.633 -13.776,-28.959c-3.641,-12.326 -5.461,-28.068 -5.461,-47.226c0,-27.622 2.581,-47.82 7.744,-60.591c5.162,-12.772 13.504,-22.759 25.025,-29.962c11.521,-7.203 25.432,-10.804 41.735,-10.804c17.825,0 33.014,3.936 45.567,11.807c12.553,7.87 20.868,17.783 24.944,29.738c4.075,11.955 6.113,32.264 6.113,60.926l0,14.257Z" style="fill:#ccc;fill-rule:nonzero;"/><path d="M515.732,-42.989l114.447,0l0,72.175l-45.812,0l0,68.388l42.877,0l0,68.611l-42.877,0l0,79.304l50.377,0l0,72.175l-119.012,0l0,-360.653Z" style="fill:#ccc;fill-rule:nonzero;"/><path d="M808.633,168.19c0,36.236 -0.625,61.891 -1.874,76.965c-1.25,15.073 -5.163,28.847 -11.739,41.322c-6.575,12.475 -15.46,22.054 -26.655,28.737c-11.195,6.682 -24.237,10.024 -39.127,10.024c-14.129,0 -26.818,-3.156 -38.067,-9.468c-11.249,-6.311 -20.297,-15.779 -27.145,-28.402c-6.847,-12.623 -10.923,-26.36 -12.227,-41.211c-1.304,-14.851 -1.956,-40.84 -1.956,-77.967l0,-61.705c0,-36.236 0.625,-61.891 1.875,-76.965c1.249,-15.073 5.162,-28.847 11.738,-41.322c6.575,-12.475 15.46,-22.054 26.655,-28.737c11.195,-6.682 24.237,-10.024 39.127,-10.024c14.129,0 26.818,3.156 38.067,9.468c11.249,6.311 20.298,15.779 27.145,28.402c6.847,12.623 10.923,26.36 12.227,41.211c1.304,14.851 1.956,40.84 1.956,77.967l0,61.705Zm-68.635,-118.51c0,-16.781 -0.679,-27.511 -2.038,-32.189c-1.358,-4.678 -4.157,-7.017 -8.396,-7.017c-3.587,0 -6.331,1.894 -8.233,5.681c-1.902,3.787 -2.853,14.962 -2.853,33.525l0,168.409c0,20.94 0.625,33.86 1.875,38.761c1.25,4.9 4.157,7.351 8.722,7.351c4.674,0 7.662,-2.822 8.967,-8.465c1.304,-5.643 1.956,-19.083 1.956,-40.32l0,-165.736Z" style="fill:#ccc;fill-rule:nonzero;"/><path d="M1099.52,-42.989l0,360.653l-59.995,0l0,-243.48l-23.965,243.48l-42.551,0l-25.27,-237.911l0,237.911l-59.994,0l0,-360.653l88.851,0c2.608,21.682 5.38,47.226 8.314,76.63l9.456,91.779l15.651,-168.409l89.503,0Z" style="fill:#ccc;fill-rule:nonzero;"/><path d="M1280.42,-42.989l0,241.029c0,27.326 -0.652,46.521 -1.956,57.585c-1.305,11.063 -5.163,22.424 -11.576,34.082c-6.412,11.658 -14.862,20.494 -25.351,26.509c-10.488,6.015 -22.851,9.022 -37.089,9.022c-15.759,0 -29.671,-3.564 -41.735,-10.693c-12.065,-7.128 -21.085,-16.41 -27.063,-27.845c-5.978,-11.435 -9.51,-23.502 -10.597,-36.199c-1.087,-12.698 -1.63,-39.392 -1.63,-80.083l0,-213.407l68.635,0l0,270.434c0,15.742 0.625,25.803 1.875,30.184c1.25,4.381 3.777,6.572 7.581,6.572c4.347,0 7.146,-2.413 8.396,-7.24c1.25,-4.826 1.875,-16.224 1.875,-34.194l0,-265.756l68.635,0Z" style="fill:#ccc;fill-rule:nonzero;"/><path d="M1457.57,-42.989l0,360.653l-60.158,0l-35.703,-163.953l0,163.953l-57.386,0l0,-360.653l57.386,0l38.475,162.394l0,-162.394l57.386,0Z" style="fill:#ccc;fill-rule:nonzero;"/><rect x="1482.45" y="-42.989" width="68.635" height="360.653" style="fill:#ccc;fill-rule:nonzero;"/><path d="M1736.22,114.282l-68.636,0l0,-62.82c0,-18.266 -0.733,-29.664 -2.201,-34.194c-1.467,-4.529 -4.7,-6.794 -9.7,-6.794c-5.652,0 -9.238,2.747 -10.76,8.242c-1.522,5.495 -2.282,17.376 -2.282,35.642l0,167.518c0,17.524 0.76,28.959 2.282,34.305c1.522,5.347 4.945,8.02 10.271,8.02c5.108,0 8.45,-2.673 10.026,-8.02c1.576,-5.346 2.364,-17.895 2.364,-37.646l0,-45.221l68.636,0l0,14.034c0,37.275 -1.93,63.71 -5.788,79.303c-3.858,15.594 -12.39,29.256 -25.596,40.989c-13.205,11.732 -29.481,17.598 -48.827,17.598c-20.107,0 -36.682,-4.975 -49.724,-14.925c-13.042,-9.95 -21.683,-23.724 -25.922,-41.323c-4.238,-17.598 -6.358,-44.07 -6.358,-79.415l0,-105.366c0,-25.989 0.652,-45.481 1.957,-58.476c1.304,-12.994 5.189,-25.506 11.656,-37.535c6.467,-12.029 15.434,-21.497 26.9,-28.402c11.466,-6.906 24.645,-10.359 39.535,-10.359c20.215,0 36.899,5.346 50.05,16.039c13.151,10.693 21.791,24.021 25.921,39.986c4.131,15.965 6.196,40.803 6.196,74.514l0,34.306Z" style="fill:#ccc;fill-rule:nonzero;"/><rect x="1758.17" y="-42.989" width="68.635" height="360.653" style="fill:#ccc;fill-rule:nonzero;"/><path d="M1851.68,-42.989l69.125,0c18.694,0 33.068,2.005 43.121,6.015c10.054,4.009 17.607,9.801 22.661,17.375c5.054,7.574 8.478,16.744 10.271,27.511c1.793,10.767 2.69,27.437 2.69,50.011l0,31.409c0,23.019 -1.739,39.8 -5.217,50.344c-3.478,10.545 -9.863,18.638 -19.156,24.282c-9.293,5.643 -21.438,8.465 -36.437,8.465l-18.422,0l0,145.241l-68.636,0l0,-360.653Zm68.636,61.705l0,91.779c1.956,0.148 3.641,0.222 5.054,0.222c6.303,0 10.678,-2.116 13.123,-6.348c2.446,-4.233 3.669,-13.032 3.669,-26.398l0,-29.627c0,-12.326 -1.413,-20.346 -4.239,-24.059c-2.826,-3.712 -8.695,-5.569 -17.607,-5.569Z" style="fill:#ccc;fill-rule:nonzero;"/><path d="M2126.82,-42.989l39.29,360.653l-70.265,0l-3.424,-64.824l-24.617,0l-4.076,64.824l-71.081,0l34.888,-360.653l99.285,0Zm-36.355,231.896c-3.478,-40.84 -6.956,-91.258 -10.434,-151.256c-6.956,68.908 -11.303,119.327 -13.042,151.256l23.476,0Z" style="fill:#ccc;fill-rule:nonzero;"/><path d="M2243.81,-42.989l0,288.478l41.735,0l0,72.175l-110.37,0l0,-360.653l68.635,0Z" style="fill:#ccc;fill-rule:nonzero;"/></g><g><path d="M784.209,293.019c0,15.254 -0.4,26.055 -1.198,32.4c-0.799,6.346 -3.3,12.145 -7.503,17.396c-4.202,5.252 -9.881,9.285 -17.036,12.098c-7.155,2.813 -15.491,4.22 -25.008,4.22c-9.031,0 -17.141,-1.328 -24.331,-3.986c-7.189,-2.657 -12.972,-6.642 -17.349,-11.956c-4.376,-5.315 -6.981,-11.098 -7.815,-17.35c-0.833,-6.252 -1.25,-17.192 -1.25,-32.822l0,-25.977c0,-15.255 0.399,-26.055 1.198,-32.401c0.799,-6.346 3.3,-12.144 7.503,-17.396c4.202,-5.252 9.881,-9.284 17.036,-12.098c7.155,-2.813 15.491,-4.22 25.008,-4.22c9.031,0 17.141,1.329 24.33,3.986c7.19,2.657 12.973,6.643 17.35,11.957c4.376,5.314 6.981,11.097 7.815,17.349c0.833,6.252 1.25,17.193 1.25,32.823l0,25.977Zm-43.868,-49.891c0,-7.065 -0.434,-11.582 -1.302,-13.551c-0.869,-1.969 -2.658,-2.954 -5.367,-2.954c-2.292,0 -4.046,0.797 -5.262,2.391c-1.215,1.595 -1.823,6.299 -1.823,14.114l0,70.897c0,8.815 0.399,14.255 1.198,16.318c0.799,2.063 2.657,3.095 5.575,3.095c2.987,0 4.897,-1.188 5.731,-3.564c0.833,-2.376 1.25,-8.034 1.25,-16.974l0,-69.772Z" style="fill:#221919;fill-rule:nonzero;"/><path d="M798.861,204.116l31.051,0c20.701,0 34.716,0.719 42.045,2.157c7.328,1.438 13.303,5.111 17.922,11.019c4.62,5.908 6.929,15.333 6.929,28.274c0,11.817 -1.632,19.756 -4.897,23.82c-3.265,4.064 -9.691,6.502 -19.277,7.315c8.683,1.938 14.518,4.533 17.506,7.784c2.987,3.251 4.845,6.236 5.574,8.956c0.73,2.719 1.094,10.206 1.094,22.46l0,40.044l-40.742,0l0,-50.454c0,-8.127 -0.712,-13.16 -2.136,-15.098c-1.424,-1.938 -5.158,-2.907 -11.201,-2.907l0,68.459l-43.868,0l0,-151.829Zm43.868,25.977l0,33.76c4.932,0 8.388,-0.609 10.368,-1.828c1.979,-1.22 2.969,-5.174 2.969,-11.863l0,-8.347c0,-4.814 -0.955,-7.971 -2.865,-9.472c-1.91,-1.5 -5.401,-2.25 -10.472,-2.25Z" style="fill:#221919;fill-rule:nonzero;"/><path d="M1012.43,355.945l0,18.38l-33.135,0c-7.989,0 -13.615,-0.547 -16.88,-1.641c-3.265,-1.094 -5.471,-2.735 -6.617,-4.923c-1.146,-2.188 -1.719,-6.127 -1.719,-11.816c-9.934,-0.251 -18.478,-2.595 -25.633,-7.034c-7.155,-4.439 -11.879,-10.081 -14.171,-16.927c-2.293,-6.846 -3.439,-17.084 -3.439,-30.713l0,-46.983c0,-10.316 0.677,-18.178 2.032,-23.586c1.355,-5.408 4.151,-10.503 8.388,-15.286c4.238,-4.782 9.691,-8.393 16.359,-10.831c6.669,-2.438 14.067,-3.658 22.195,-3.658c9.795,0 18.53,1.501 26.206,4.502c7.676,3.001 13.407,6.814 17.193,11.441c3.786,4.626 6.252,9.425 7.398,14.395c1.146,4.97 1.719,12.363 1.719,22.179l0,49.328c0,13.504 -0.729,22.663 -2.188,27.477c-1.459,4.814 -4.255,8.643 -8.388,11.488c-4.133,2.845 -9.638,5.017 -16.516,6.518c0.209,3.376 0.99,5.501 2.345,6.377c1.354,0.875 4.567,1.313 9.638,1.313l15.213,0Zm-43.972,-112.817c0,-7.065 -0.434,-11.582 -1.302,-13.551c-0.868,-1.969 -2.657,-2.954 -5.366,-2.954c-2.293,0 -4.047,0.797 -5.262,2.391c-1.216,1.595 -1.824,6.299 -1.824,14.114l0,70.897c0,8.815 0.399,14.255 1.198,16.318c0.799,2.063 2.657,3.095 5.575,3.095c2.987,0 4.897,-1.188 5.731,-3.564c0.834,-2.376 1.25,-8.034 1.25,-16.974l0,-69.772Z" style="fill:#221919;fill-rule:nonzero;"/><path d="M1126.7,204.116l0,101.469c0,11.504 -0.417,19.584 -1.25,24.242c-0.834,4.658 -3.3,9.44 -7.399,14.348c-4.098,4.908 -9.499,8.628 -16.203,11.16c-6.703,2.532 -14.605,3.798 -23.705,3.798c-10.073,0 -18.964,-1.5 -26.675,-4.501c-7.711,-3.001 -13.476,-6.909 -17.297,-11.723c-3.821,-4.814 -6.078,-9.893 -6.773,-15.239c-0.695,-5.345 -1.042,-16.583 -1.042,-33.714l0,-89.84l43.868,0l0,113.848c0,6.627 0.399,10.863 1.198,12.707c0.799,1.844 2.414,2.767 4.845,2.767c2.779,0 4.568,-1.016 5.367,-3.048c0.799,-2.032 1.198,-6.831 1.198,-14.395l0,-111.879l43.868,0Z" style="fill:#221919;fill-rule:nonzero;"/><path d="M1141.97,204.116l73.148,0l0,30.384l-29.28,0l0,28.791l27.404,0l0,28.884l-27.404,0l0,33.385l32.198,0l0,30.385l-76.066,0l0,-151.829Z" style="fill:#221919;fill-rule:nonzero;"/><path d="M1321.88,250.068l-40.742,0l0,-11.254c0,-5.251 -0.521,-8.596 -1.563,-10.034c-1.042,-1.438 -2.778,-2.157 -5.21,-2.157c-2.639,0 -4.636,0.969 -5.991,2.907c-1.355,1.938 -2.032,4.877 -2.032,8.815c0,5.064 0.764,8.878 2.292,11.441c1.459,2.564 5.592,5.658 12.4,9.285c19.52,10.44 31.816,19.005 36.887,25.695c5.071,6.69 7.606,17.474 7.606,32.354c0,10.816 -1.406,18.787 -4.22,23.914c-2.813,5.126 -8.249,9.424 -16.307,12.894c-8.058,3.47 -17.436,5.205 -28.134,5.205c-11.74,0 -21.76,-2.001 -30.061,-6.002c-8.302,-4.001 -13.737,-9.096 -16.307,-15.286c-2.571,-6.189 -3.856,-14.973 -3.856,-26.352l0,-9.94l40.742,0l0,18.474c0,5.689 0.573,9.347 1.719,10.972c1.147,1.626 3.178,2.439 6.096,2.439c2.918,0 5.088,-1.032 6.512,-3.095c1.424,-2.063 2.137,-5.127 2.137,-9.191c0,-8.94 -1.355,-14.785 -4.064,-17.536c-2.779,-2.751 -9.621,-7.346 -20.528,-13.786c-10.906,-6.502 -18.13,-11.222 -21.673,-14.161c-3.543,-2.938 -6.478,-7.002 -8.805,-12.191c-2.327,-5.189 -3.49,-11.816 -3.49,-19.881c0,-11.629 1.649,-20.131 4.949,-25.508c3.3,-5.377 8.631,-9.581 15.995,-12.613c7.363,-3.033 16.255,-4.549 26.675,-4.549c11.392,0 21.1,1.657 29.123,4.971c8.024,3.313 13.338,7.486 15.943,12.519c2.605,5.033 3.907,13.583 3.907,25.649l0,6.002Z" style="fill:#221919;fill-rule:nonzero;"/><path d="M1425.94,204.116l0,30.384l-26.05,0l0,121.445l-43.867,0l0,-121.445l-25.946,0l0,-30.384l95.863,0Z" style="fill:#221919;fill-rule:nonzero;"/><path d="M1501.44,204.116l25.112,151.829l-44.91,0l-2.188,-27.29l-15.734,0l-2.605,27.29l-45.431,0l22.298,-151.829l63.458,0Zm-23.237,97.624c-2.223,-17.193 -4.446,-38.418 -6.669,-63.676c-4.445,29.009 -7.224,50.234 -8.335,63.676l15.004,0Z" style="fill:#221919;fill-rule:nonzero;"/><path d="M786.397,456.324l-43.868,0l0,-26.446c0,-7.69 -0.469,-12.488 -1.406,-14.395c-0.938,-1.907 -3.005,-2.86 -6.2,-2.86c-3.613,0 -5.905,1.157 -6.877,3.47c-0.973,2.313 -1.459,7.315 -1.459,15.004l0,70.522c0,7.378 0.486,12.192 1.459,14.442c0.972,2.251 3.16,3.377 6.564,3.377c3.265,0 5.401,-1.126 6.408,-3.377c1.008,-2.25 1.511,-7.533 1.511,-15.848l0,-19.037l43.868,0l0,5.908c0,15.692 -1.233,26.821 -3.699,33.385c-2.466,6.565 -7.919,12.316 -16.359,17.255c-8.44,4.94 -18.843,7.409 -31.208,7.409c-12.851,0 -23.445,-2.094 -31.781,-6.283c-8.336,-4.189 -13.858,-9.988 -16.567,-17.396c-2.71,-7.409 -4.064,-18.553 -4.064,-33.433l0,-44.357c0,-10.941 0.417,-19.147 1.25,-24.617c0.834,-5.471 3.317,-10.738 7.451,-15.802c4.133,-5.064 9.864,-9.05 17.192,-11.957c7.329,-2.907 15.752,-4.361 25.269,-4.361c12.92,0 23.583,2.251 31.989,6.752c8.405,4.502 13.928,10.113 16.568,16.834c2.639,6.721 3.959,17.177 3.959,31.369l0,14.442Z" style="fill:#221919;fill-rule:nonzero;"/><path d="M876.177,390.116l25.112,151.829l-44.91,0l-2.188,-27.29l-15.734,0l-2.605,27.29l-45.431,0l22.298,-151.829l63.458,0Zm-23.237,97.624c-2.223,-17.193 -4.445,-38.418 -6.668,-63.676c-4.446,29.009 -7.225,50.234 -8.336,63.676l15.004,0Zm28.551,-127.821l-34.282,25.414l-21.152,0l18.339,-25.414l37.095,0Z" style="fill:#221919;fill-rule:nonzero;"/><path d="M1042.44,390.116l0,151.829l-38.346,0l0,-102.501l-15.317,102.501l-27.196,0l-16.151,-100.157l0,100.157l-38.345,0l0,-151.829l56.789,0c1.667,9.128 3.438,19.881 5.314,32.26l6.043,38.637l10.003,-70.897l57.206,0Z" style="fill:#221919;fill-rule:nonzero;"/><path d="M1134.09,390.116l25.112,151.829l-44.91,0l-2.188,-27.29l-15.734,0l-2.605,27.29l-45.431,0l22.299,-151.829l63.457,0Zm-23.236,97.624c-2.223,-17.193 -4.446,-38.418 -6.669,-63.676c-4.446,29.009 -7.225,50.234 -8.336,63.676l15.005,0Z" style="fill:#221919;fill-rule:nonzero;"/><path d="M1165,390.116l31.052,0c20.7,0 34.715,0.719 42.044,2.157c7.329,1.438 13.303,5.111 17.922,11.019c4.62,5.908 6.929,15.333 6.929,28.274c0,11.817 -1.632,19.756 -4.897,23.82c-3.265,4.064 -9.69,6.502 -19.277,7.315c8.684,1.938 14.519,4.533 17.506,7.784c2.987,3.251 4.845,6.236 5.574,8.956c0.73,2.719 1.094,10.206 1.094,22.46l0,40.044l-40.741,0l0,-50.454c0,-8.127 -0.712,-13.16 -2.136,-15.098c-1.425,-1.938 -5.158,-2.907 -11.202,-2.907l0,68.459l-43.868,0l0,-151.829Zm43.868,25.977l0,33.76c4.932,0 8.388,-0.609 10.368,-1.828c1.98,-1.22 2.97,-5.174 2.97,-11.863l0,-8.347c0,-4.814 -0.956,-7.971 -2.866,-9.472c-1.91,-1.5 -5.401,-2.25 -10.472,-2.25Z" style="fill:#221919;fill-rule:nonzero;"/><path d="M1353.98,390.116l25.112,151.829l-44.91,0l-2.188,-27.29l-15.735,0l-2.605,27.29l-45.43,0l22.298,-151.829l63.458,0Zm-23.237,97.624c-2.223,-17.193 -4.446,-38.418 -6.669,-63.676c-4.445,29.009 -7.224,50.234 -8.336,63.676l15.005,0Z" style="fill:#221919;fill-rule:nonzero;"/></g><ellipse cx="770.749" cy="376.255" rx="54.533" ry="52.184" style="fill:#ebebeb;"/><g><path d="M767.929,347.415l0,50.088l-13.887,0l0,-2.97c-1.329,1.237 -2.727,2.166 -4.194,2.784c-1.467,0.619 -3.002,0.928 -4.606,0.928c-2.154,0 -4.022,-0.51 -5.603,-1.531c-1.581,-1.021 -2.596,-2.202 -3.042,-3.542c-0.447,-1.341 -0.671,-3.527 -0.671,-6.559l0,-19.212c0,-3.156 0.224,-5.394 0.671,-6.714c0.446,-1.32 1.472,-2.48 3.076,-3.48c1.604,-1.001 3.518,-1.501 5.741,-1.501c1.719,0 3.294,0.279 4.726,0.836c1.433,0.557 2.733,1.392 3.902,2.506l0,-11.633l13.887,0Zm-13.887,19.367c0,-1.506 -0.143,-2.516 -0.43,-3.032c-0.286,-0.516 -0.853,-0.773 -1.701,-0.773c-0.825,0 -1.381,0.232 -1.668,0.696c-0.286,0.464 -0.429,1.5 -0.429,3.109l0,20.109c0,1.671 0.137,2.769 0.412,3.295c0.275,0.526 0.802,0.789 1.582,0.789c0.893,0 1.489,-0.294 1.787,-0.882c0.298,-0.587 0.447,-2.026 0.447,-4.315l0,-18.996Z" style="fill:#221919;fill-rule:nonzero;"/><path d="M803.804,377.703l-17.978,0l0,8.879c0,1.856 0.149,3.052 0.446,3.589c0.298,0.536 0.871,0.804 1.719,0.804c1.054,0 1.759,-0.356 2.114,-1.067c0.355,-0.712 0.533,-2.089 0.533,-4.13l0,-5.414l13.166,0l0,3.031c0,2.537 -0.178,4.486 -0.533,5.848c-0.355,1.361 -1.186,2.815 -2.492,4.362c-1.307,1.547 -2.962,2.707 -4.967,3.48c-2.006,0.774 -4.521,1.16 -7.546,1.16c-2.933,0 -5.523,-0.381 -7.769,-1.144c-2.245,-0.763 -3.993,-1.81 -5.242,-3.14c-1.249,-1.331 -2.114,-2.795 -2.595,-4.394c-0.481,-1.598 -0.722,-3.923 -0.722,-6.976l0,-11.973c0,-3.589 0.539,-6.419 1.616,-8.492c1.077,-2.073 2.841,-3.661 5.293,-4.765c2.453,-1.103 5.271,-1.655 8.457,-1.655c3.896,0 7.11,0.665 9.642,1.996c2.532,1.33 4.308,3.094 5.328,5.29c1.02,2.197 1.53,5.285 1.53,9.266l0,5.445Zm-13.922,-6.683l0,-3.001c0,-2.124 -0.126,-3.495 -0.378,-4.114c-0.252,-0.619 -0.768,-0.928 -1.547,-0.928c-0.963,0 -1.558,0.263 -1.788,0.789c-0.229,0.525 -0.343,1.943 -0.343,4.253l0,3.001l4.056,0Z" style="fill:#221919;fill-rule:nonzero;"/></g><g><path d="M1020.88,18.303l12.34,0l0,5.695l-4.94,0l0,5.397l4.623,0l0,5.414l-4.623,0l0,6.258l5.432,0l0,5.695l-12.832,0l0,-28.459Z" style="fill:#f00;fill-rule:nonzero;"/><path d="M1054.16,18.303l0,28.459l-6.486,0l-3.849,-12.937l0,12.937l-6.188,0l0,-28.459l6.188,0l4.148,12.815l0,-12.815l6.187,0Z" style="fill:#f00;fill-rule:nonzero;"/><path d="M1067.08,18.303l12.34,0l0,5.695l-4.94,0l0,5.397l4.623,0l0,5.414l-4.623,0l0,6.258l5.432,0l0,5.695l-12.832,0l0,-28.459Z" style="fill:#f00;fill-rule:nonzero;"/><path d="M1099.52,26.916l-6.873,0l0,-2.109c0,-0.984 -0.088,-1.611 -0.264,-1.881c-0.176,-0.269 -0.469,-0.404 -0.879,-0.404c-0.445,0 -0.782,0.181 -1.011,0.545c-0.228,0.363 -0.343,0.914 -0.343,1.652c0,0.949 0.129,1.664 0.387,2.145c0.246,0.48 0.943,1.06 2.092,1.74c3.293,1.957 5.367,3.562 6.223,4.816c0.855,1.254 1.283,3.276 1.283,6.065c0,2.027 -0.238,3.521 -0.712,4.482c-0.475,0.961 -1.392,1.767 -2.751,2.417c-1.359,0.651 -2.942,0.976 -4.746,0.976c-1.981,0 -3.671,-0.375 -5.071,-1.125c-1.401,-0.75 -2.318,-1.705 -2.751,-2.866c-0.434,-1.16 -0.651,-2.806 -0.651,-4.939l0,-1.863l6.873,0l0,3.463c0,1.066 0.097,1.752 0.29,2.056c0.194,0.305 0.536,0.457 1.029,0.457c0.492,0 0.858,-0.193 1.098,-0.58c0.24,-0.386 0.361,-0.961 0.361,-1.722c0,-1.676 -0.229,-2.772 -0.686,-3.288c-0.469,-0.515 -1.623,-1.376 -3.463,-2.584c-1.84,-1.218 -3.058,-2.103 -3.656,-2.654c-0.598,-0.551 -1.093,-1.312 -1.485,-2.285c-0.393,-0.973 -0.589,-2.215 -0.589,-3.727c0,-2.179 0.278,-3.773 0.835,-4.781c0.556,-1.008 1.456,-1.796 2.698,-2.364c1.242,-0.568 2.742,-0.853 4.5,-0.853c1.922,0 3.559,0.311 4.913,0.932c1.353,0.621 2.25,1.403 2.689,2.347c0.44,0.943 0.66,2.546 0.66,4.807l0,1.125Z" style="fill:#f00;fill-rule:nonzero;"/><path d="M1121.53,30.713l-7.4,0l0,-4.957c0,-1.441 -0.079,-2.341 -0.237,-2.698c-0.158,-0.357 -0.507,-0.536 -1.046,-0.536c-0.61,0 -0.996,0.217 -1.16,0.65c-0.164,0.434 -0.246,1.371 -0.246,2.813l0,13.218c0,1.383 0.082,2.286 0.246,2.708c0.164,0.421 0.533,0.632 1.107,0.632c0.551,0 0.911,-0.211 1.081,-0.632c0.17,-0.422 0.255,-1.413 0.255,-2.971l0,-3.569l7.4,0l0,1.108c0,2.941 -0.208,5.027 -0.624,6.258c-0.416,1.23 -1.336,2.308 -2.759,3.234c-1.424,0.926 -3.179,1.389 -5.265,1.389c-2.168,0 -3.955,-0.393 -5.361,-1.178c-1.407,-0.785 -2.338,-1.872 -2.795,-3.261c-0.457,-1.388 -0.686,-3.477 -0.686,-6.266l0,-8.315c0,-2.051 0.07,-3.589 0.211,-4.614c0.141,-1.025 0.56,-2.013 1.257,-2.962c0.697,-0.949 1.664,-1.696 2.9,-2.241c1.237,-0.545 2.658,-0.818 4.263,-0.818c2.18,0 3.979,0.422 5.397,1.266c1.417,0.844 2.349,1.896 2.794,3.155c0.446,1.26 0.668,3.22 0.668,5.88l0,2.707Z" style="fill:#f00;fill-rule:nonzero;"/><path d="M1125.99,18.303l12.34,0l0,5.695l-4.94,0l0,5.397l4.623,0l0,5.414l-4.623,0l0,6.258l5.432,0l0,5.695l-12.832,0l0,-28.459Z" style="fill:#f00;fill-rule:nonzero;"/><path d="M1159.27,18.303l0,28.459l-6.486,0l-3.85,-12.937l0,12.937l-6.187,0l0,-28.459l6.187,0l4.149,12.815l0,-12.815l6.187,0Z" style="fill:#f00;fill-rule:nonzero;"/><path d="M1176.82,18.303l4.236,28.459l-7.576,0l-0.369,-5.115l-2.654,0l-0.44,5.115l-7.664,0l3.762,-28.459l10.705,0Zm-3.92,18.299c-0.375,-3.223 -0.75,-7.201 -1.125,-11.936c-0.75,5.438 -1.219,9.416 -1.406,11.936l2.531,0Z" style="fill:#f00;fill-rule:nonzero;"/></g></svg>