<?xml version="1.0" encoding="UTF-8" standalone="no"?><!DOCTYPE svg PUBLIC "-//W3C//DTD SVG 1.1//EN" "http://www.w3.org/Graphics/SVG/1.1/DTD/svg11.dtd"><svg width="100%" height="100%" viewBox="0 0 6000 3750" version="1.1" xmlns="http://www.w3.org/2000/svg" xmlns:xlink="http://www.w3.org/1999/xlink" xml:space="preserve" xmlns:serif="http://www.serif.com/" style="fill-rule:evenodd;clip-rule:evenodd;stroke-linejoin:round;stroke-miterlimit:2;"><path d="M5997.46,2217.33c5.706,-551.533 0,-2186.1 0,-2186.1c0,0 -3580.47,2010.71 -5995.16,536.048c-4.088,-2.497 -1.49,249.715 -1.49,1947.62c0,20.249 1.073,40.192 1.49,60.38c204.022,-181.384 735.586,-1350.56 2452.78,-684.039c677.949,263.144 2066.75,1599.3 3542.38,326.088" style="fill:#fff;fill-rule:nonzero;"/><path d="M5997.46,1240.14c5.719,-552.76 0,-1240.38 0,-1240.38l-5995.96,0c0,0 -1.494,-163.062 -1.494,1538.62c0,20.294 1.076,40.282 1.494,60.515c204.476,-181.788 1077.99,-1070.6 3271.8,246.224c1789.27,1074 2724.16,-604.971 2724.16,-604.971Z" style="fill:#715ac6;fill-opacity:0.75;fill-rule:nonzero;"/><path d="M5997.46,1650.27c5.708,-551.608 0,-1650.27 0,-1650.27l-5995.97,0c0,0 -1.491,249.749 -1.491,1947.88c0,20.252 1.073,40.198 1.491,60.389c204.049,-181.41 1555.95,-1571.55 2986.01,-132.388c756.575,761.389 1858.55,1123.2 3009.96,0" style="fill:#4c7dd3;fill-opacity:0.69;fill-rule:nonzero;"/></svg>