<?xml version="1.0" encoding="UTF-8" standalone="no"?><!DOCTYPE svg PUBLIC "-//W3C//DTD SVG 1.1//EN" "http://www.w3.org/Graphics/SVG/1.1/DTD/svg11.dtd"><svg width="100%" height="100%" viewBox="0 0 3334 1125" version="1.1" xmlns="http://www.w3.org/2000/svg" xmlns:xlink="http://www.w3.org/1999/xlink" xml:space="preserve" xmlns:serif="http://www.serif.com/" style="fill-rule:evenodd;clip-rule:evenodd;stroke-linejoin:round;stroke-miterlimit:2;"><g><path d="M114.615,415.691l34.604,-23.262c10.573,1.657 19.499,2.663 26.777,3.018c15.791,-5.208 26.914,-14.235 33.368,-27.079c6.454,-12.845 9.681,-32.348 9.681,-58.51l0.824,-27.524c-0,-35.396 14.006,-63.097 42.019,-83.103c23.344,-16.574 47.993,-24.86 73.946,-24.86c11.122,-0 22.52,2.19 34.192,6.57l-30.485,25.748c-12.496,-6.985 -24.854,-10.477 -37.076,-10.477c-30.621,0 -45.932,21.605 -45.932,64.814l-0.824,24.505c-0,33.501 -3.708,58.036 -11.123,73.603c-7.415,15.567 -21.628,28.441 -42.637,38.622l42.637,3.019l18.95,1.243l22.863,1.243c6.042,0.355 12.839,0.532 20.392,0.532c34.055,0 60.626,-8.523 79.713,-25.57c2.197,2.368 3.296,4.084 3.296,5.15c-0,3.906 -6.592,10.595 -19.774,20.065c-22.52,15.982 -46.688,23.972 -72.504,23.972c-10.574,0 -23.55,-0.473 -38.93,-1.42l-61.175,-3.907c-31.858,-2.012 -59.458,-4.143 -82.802,-6.392Z" style="fill:url(#_Linear1);fill-rule:nonzero;"/><path d="M536.867,349.812c-15.517,22.018 -32.579,40.042 -51.185,54.07c-18.607,14.028 -34.776,21.042 -48.508,21.042c-18.812,0 -28.219,-13.081 -28.219,-39.243c0,-35.988 13.698,-67.152 41.093,-93.491c27.395,-26.34 59.836,-39.51 97.324,-39.51c14.281,-0 26.433,1.539 36.458,4.617c-0.687,2.131 -1.099,3.433 -1.236,3.906l-2.472,9.412c-1.648,6.511 -2.54,10.299 -2.678,11.364l-13.182,78.487l-1.854,11.364c-1.785,11.247 -2.678,18.764 -2.678,22.552c0,5.09 1.717,7.636 5.15,7.636c11.534,-0 23.344,-11.128 35.428,-33.384c3.707,1.894 5.561,3.788 5.561,5.682c0,4.144 -5.904,12.49 -17.714,25.038c-16.066,17.047 -30.965,25.57 -44.697,25.57c-10.024,0 -15.036,-5.8 -15.036,-17.402c-0,-3.551 0.481,-8.464 1.442,-14.738l2.06,-14.206l4.943,-28.766Zm11.741,-70.496c-12.496,-6.038 -25.13,-9.057 -37.9,-9.057c-19.225,0 -35.359,10.122 -48.405,30.365c-13.045,20.243 -19.567,45.34 -19.567,75.291c-0,15.389 5.286,23.084 15.86,23.084c12.221,-0 26.983,-8.05 44.285,-24.15c23.344,-21.664 37.488,-47.116 42.431,-76.356l3.296,-19.177Z" style="fill:#ff5d00;fill-rule:nonzero;"/><path d="M783.833,282.512l-33.574,27.701c-3.158,-9.234 -4.738,-18.408 -4.738,-27.524c0,-30.542 13.183,-55.047 39.548,-73.514c26.365,-18.468 61.381,-27.701 105.048,-27.701l16.272,-0c-6.179,27.109 -9.887,45.34 -11.122,54.692l-11.123,86.832l-2.678,19.711c-2.334,16.81 -6.557,28.944 -12.667,36.402c-6.111,7.458 -17.817,14.738 -35.12,21.841l59.734,2.664l-24.717,20.598l-100.311,-3.906l26.365,-22.019l22.451,2.131c16.753,-9.116 27.052,-27.761 30.897,-55.936l2.266,-17.224l15.86,-124.3l-6.385,-0c-57.125,-0 -85.687,16.277 -85.687,48.832c0,10.181 3.227,20.421 9.681,30.72Z" style="fill:url(#_Linear2);fill-rule:nonzero;"/><path d="M990.634,414.093l-30.691,10.831l2.266,-18.112l1.648,-12.43l10.711,-82.393l1.235,-9.411c0.824,-7.34 1.236,-13.259 1.236,-17.758c0,-7.576 -2.197,-11.364 -6.591,-11.364c-10.299,-0 -21.353,10.062 -33.162,30.187c-3.159,-2.249 -4.738,-4.203 -4.738,-5.86c0,-7.103 7.518,-16.78 22.555,-29.033c15.036,-12.252 26.88,-18.379 35.531,-18.379c11.809,0 17.714,6.511 17.714,19.533c-0,3.315 -0.344,7.754 -1.03,13.318l-1.648,14.384l-1.648,12.074l-1.648,12.608c16.204,-20.835 33.952,-38.03 53.245,-51.585c19.294,-13.554 35.737,-20.332 49.332,-20.332c13.32,0 19.98,7.991 19.98,23.973c-0,4.853 -0.756,12.134 -2.266,21.841l-11.123,66.234c-2.197,13.259 -3.295,23.736 -3.295,31.43c-0,6.156 1.922,9.234 5.767,9.234c9.475,0 21.147,-10.891 35.016,-32.673c3.296,1.776 4.943,3.611 4.943,5.505c0,7.694 -7.655,17.786 -22.966,30.276c-15.311,12.489 -27.773,18.733 -37.385,18.733c-10.711,0 -16.066,-6.629 -16.066,-19.888c-0,-9.707 1.442,-23.143 4.325,-40.308l7.21,-42.973c2.334,-13.969 3.501,-25.037 3.501,-33.206c0,-9.352 -3.776,-14.028 -11.328,-14.028c-17.577,0 -35.394,10.27 -53.451,30.809c-18.058,20.539 -28.597,42.587 -31.618,66.145l-5.561,42.618Z" style="fill:#ff5d00;fill-rule:nonzero;"/><path d="M1310.93,253.035l2.059,-15.271c4.944,-37.882 19.946,-69.371 45.006,-94.468c25.061,-25.097 53.932,-37.645 86.614,-37.645c7.827,-0 14.555,0.591 20.185,1.775l-29.248,25.748c-6.454,-1.894 -14.075,-2.841 -22.864,-2.841c-20.597,-0 -35.977,6.215 -46.139,18.645c-10.161,12.43 -17.164,33.62 -21.009,63.571l-19.156,147.917l-1.442,11.364c-1.236,10.063 -1.854,17.225 -1.854,21.487c0,5.8 1.785,8.701 5.356,8.701c11.397,-0 22.863,-11.128 34.398,-33.384c3.707,1.894 5.561,3.788 5.561,5.682c0,4.262 -5.561,12.608 -16.684,25.038c-15.517,17.047 -30.073,25.57 -43.667,25.57c-10.573,0 -15.86,-6.274 -15.86,-18.822c-0,-4.617 0.824,-13.792 2.471,-27.524l2.06,-15.626l1.648,-13.14c-9.338,17.757 -24.477,34.715 -45.418,50.874c-20.941,16.159 -38.208,24.238 -51.803,24.238c-19.362,0 -29.043,-13.081 -29.043,-39.243c0,-34.212 13.389,-64.932 40.166,-92.16c26.777,-27.227 56.987,-40.841 90.63,-40.841c1.647,-0 4.325,0.118 8.033,0.355Zm-3.296,25.393c-11.535,-5.446 -22.108,-8.169 -31.72,-8.169c-20.323,0 -37.076,9.944 -50.259,29.833c-13.182,19.888 -19.773,45.162 -19.773,75.823c-0,15.389 5.218,23.084 15.654,23.084c12.633,-0 27.463,-8.05 44.491,-24.15c22.108,-20.717 35.153,-46.168 39.135,-76.356l2.472,-20.065Z" style="fill:#ff5d00;fill-rule:nonzero;"/><path d="M1514.85,363.84c3.433,2.012 5.149,4.38 5.149,7.103c0,3.669 -4.394,9.944 -13.182,18.822c-23.482,23.44 -46.688,35.159 -69.621,35.159c-14.006,0 -25.541,-4.794 -34.604,-14.383c-9.063,-9.589 -13.594,-21.841 -13.594,-36.757c-0,-26.991 11.844,-54.308 35.531,-81.95c23.687,-27.642 47.134,-41.463 70.341,-41.463c16.753,0 25.129,7.754 25.129,23.262c0,17.402 -9.784,34.39 -29.352,50.963c-19.567,16.574 -43.426,28.116 -71.577,34.627c2.747,28.53 15.792,42.795 39.136,42.795c23.069,-0 41.951,-12.726 56.644,-38.178Zm-94.956,-26.281c3.983,1.184 7.622,1.776 10.917,1.776c17.028,-0 31.927,-4.499 44.697,-13.496c12.771,-8.997 19.156,-19.532 19.156,-31.607c-0,-13.851 -8.17,-20.776 -24.511,-20.776c-11.81,-0 -22.486,6.067 -32.03,18.201c-9.543,12.134 -15.62,27.435 -18.229,45.902Z" style="fill:#ff5d00;fill-rule:nonzero;"/><path d="M1592.09,422.438l-1.648,14.029c-4.257,36.698 -19.636,68.069 -46.139,94.113c-26.502,26.043 -56.3,39.065 -89.394,39.065c-6.865,0 -13.457,-0.71 -19.773,-2.131l29.866,-25.57c7.827,2.013 15.243,3.019 22.246,3.019c40.92,-0 64.539,-27.465 70.856,-82.393l21.421,-184.142c-6.454,4.143 -13.388,8.938 -20.803,14.383c-9.063,6.629 -17.028,11.838 -23.894,15.626l1.648,-14.205c23.207,-11.838 48.679,-28.767 76.418,-50.786l-9.475,82.216c14.555,-22.019 30.896,-40.072 49.022,-54.16c18.126,-14.087 34.055,-21.131 47.787,-21.131c19.774,0 29.66,14.561 29.66,43.683c0,34.686 -12.976,64.784 -38.929,90.295c-25.953,25.511 -56.575,38.267 -91.866,38.267l-7.003,-0.178Zm3.09,-26.458c11.122,6.038 23.687,9.056 37.693,9.056c18.813,0 34.09,-9.47 45.83,-28.411c11.741,-18.941 17.611,-43.505 17.611,-73.692c0,-17.639 -5.561,-26.459 -16.684,-26.459c-12.221,0 -26.708,8.05 -43.461,24.15c-22.383,21.427 -35.291,46.82 -38.724,76.178l-2.265,19.178Z" style="fill:#ff5d00;fill-rule:nonzero;"/><path d="M1881.48,363.84c3.433,2.012 5.15,4.38 5.15,7.103c-0,3.669 -4.394,9.944 -13.183,18.822c-23.481,23.44 -46.688,35.159 -69.62,35.159c-14.006,0 -25.541,-4.794 -34.604,-14.383c-9.063,-9.589 -13.594,-21.841 -13.594,-36.757c-0,-26.991 11.843,-54.308 35.531,-81.95c23.687,-27.642 47.134,-41.463 70.341,-41.463c16.752,0 25.129,7.754 25.129,23.262c-0,17.402 -9.784,34.39 -29.352,50.963c-19.568,16.574 -43.427,28.116 -71.577,34.627c2.746,28.53 15.792,42.795 39.136,42.795c23.069,-0 41.95,-12.726 56.643,-38.178Zm-94.955,-26.281c3.982,1.184 7.621,1.776 10.917,1.776c17.027,-0 31.926,-4.499 44.697,-13.496c12.77,-8.997 19.156,-19.532 19.156,-31.607c-0,-13.851 -8.171,-20.776 -24.512,-20.776c-11.809,-0 -22.485,6.067 -32.029,18.201c-9.544,12.134 -15.62,27.435 -18.229,45.902Z" style="fill:#ff5d00;fill-rule:nonzero;"/><path d="M1968.61,414.093l-30.69,10.831l2.266,-18.112l1.648,-12.43l10.71,-82.393l1.236,-9.411c0.824,-7.34 1.236,-13.259 1.236,-17.758c0,-7.576 -2.197,-11.364 -6.591,-11.364c-10.299,-0 -21.353,10.062 -33.162,30.187c-3.159,-2.249 -4.738,-4.203 -4.738,-5.86c0,-7.103 7.518,-16.78 22.554,-29.033c15.037,-12.252 26.88,-18.379 35.531,-18.379c11.81,0 17.714,6.511 17.714,19.533c0,3.315 -0.343,7.754 -1.029,13.318l-1.648,14.384l-1.648,12.074l-1.648,12.608c16.204,-20.835 33.952,-38.03 53.245,-51.585c19.293,-13.554 35.737,-20.332 49.332,-20.332c13.319,0 19.979,7.991 19.979,23.973c0,4.853 -0.755,12.134 -2.265,21.841l-11.123,66.234c-2.197,13.259 -3.296,23.736 -3.296,31.43c0,6.156 1.923,9.234 5.768,9.234c9.475,0 21.147,-10.891 35.016,-32.673c3.295,1.776 4.943,3.611 4.943,5.505c0,7.694 -7.655,17.786 -22.966,30.276c-15.311,12.489 -27.773,18.733 -37.385,18.733c-10.711,0 -16.066,-6.629 -16.066,-19.888c-0,-9.707 1.442,-23.143 4.325,-40.308l7.209,-42.973c2.335,-13.969 3.502,-25.037 3.502,-33.206c-0,-9.352 -3.776,-14.028 -11.329,-14.028c-17.576,0 -35.393,10.27 -53.451,30.809c-18.057,20.539 -28.596,42.587 -31.617,66.145l-5.562,42.618Z" style="fill:#ff5d00;fill-rule:nonzero;"/><path d="M2288.91,253.035l2.06,-15.271c4.944,-37.882 19.946,-69.371 45.006,-94.468c25.061,-25.097 53.932,-37.645 86.613,-37.645c7.827,-0 14.556,0.591 20.186,1.775l-29.249,25.748c-6.454,-1.894 -14.075,-2.841 -22.863,-2.841c-20.598,-0 -35.977,6.215 -46.139,18.645c-10.161,12.43 -17.165,33.62 -21.01,63.571l-19.155,147.917l-1.442,11.364c-1.236,10.063 -1.854,17.225 -1.854,21.487c0,5.8 1.785,8.701 5.355,8.701c11.398,-0 22.864,-11.128 34.399,-33.384c3.707,1.894 5.561,3.788 5.561,5.682c-0,4.262 -5.561,12.608 -16.684,25.038c-15.517,17.047 -30.073,25.57 -43.667,25.57c-10.574,0 -15.861,-6.274 -15.861,-18.822c0,-4.617 0.824,-13.792 2.472,-27.524l2.06,-15.626l1.648,-13.14c-9.338,17.757 -24.477,34.715 -45.418,50.874c-20.941,16.159 -38.209,24.238 -51.803,24.238c-19.362,0 -29.043,-13.081 -29.043,-39.243c0,-34.212 13.389,-64.932 40.165,-92.16c26.777,-27.227 56.987,-40.841 90.63,-40.841c1.648,-0 4.326,0.118 8.033,0.355Zm-3.295,25.393c-11.535,-5.446 -22.108,-8.169 -31.721,-8.169c-20.323,0 -37.075,9.944 -50.258,29.833c-13.183,19.888 -19.774,45.162 -19.774,75.823c0,15.389 5.218,23.084 15.654,23.084c12.634,-0 27.464,-8.05 44.491,-24.15c22.109,-20.717 35.154,-46.168 39.136,-76.356l2.472,-20.065Z" style="fill:#ff5d00;fill-rule:nonzero;"/><path d="M2492.82,363.84c3.433,2.012 5.15,4.38 5.15,7.103c-0,3.669 -4.394,9.944 -13.183,18.822c-23.481,23.44 -46.688,35.159 -69.62,35.159c-14.006,0 -25.541,-4.794 -34.604,-14.383c-9.063,-9.589 -13.594,-21.841 -13.594,-36.757c-0,-26.991 11.843,-54.308 35.531,-81.95c23.687,-27.642 47.134,-41.463 70.341,-41.463c16.752,0 25.129,7.754 25.129,23.262c-0,17.402 -9.784,34.39 -29.352,50.963c-19.568,16.574 -43.427,28.116 -71.577,34.627c2.747,28.53 15.792,42.795 39.136,42.795c23.069,-0 41.95,-12.726 56.643,-38.178Zm-94.955,-26.281c3.982,1.184 7.621,1.776 10.917,1.776c17.027,-0 31.926,-4.499 44.697,-13.496c12.77,-8.997 19.156,-19.532 19.156,-31.607c-0,-13.851 -8.171,-20.776 -24.512,-20.776c-11.809,-0 -22.485,6.067 -32.029,18.201c-9.544,12.134 -15.62,27.435 -18.229,45.902Z" style="fill:#ff5d00;fill-rule:nonzero;"/><path d="M2579.95,414.093l-30.691,10.831l2.266,-18.112l1.648,-12.43l10.71,-82.393l1.236,-9.411c0.824,-7.34 1.236,-13.259 1.236,-17.758c0,-7.576 -2.197,-11.364 -6.591,-11.364c-10.299,-0 -21.353,10.062 -33.162,30.187c-3.159,-2.249 -4.738,-4.203 -4.738,-5.86c0,-7.103 7.518,-16.78 22.555,-29.033c15.036,-12.252 26.88,-18.379 35.531,-18.379c11.809,0 17.714,6.511 17.714,19.533c-0,3.315 -0.344,7.754 -1.03,13.318l-1.648,14.384l-1.648,12.074l-1.648,12.608c16.204,-20.835 33.952,-38.03 53.245,-51.585c19.293,-13.554 35.737,-20.332 49.332,-20.332c13.319,0 19.979,7.991 19.979,23.973c0,4.853 -0.755,12.134 -2.265,21.841l-11.123,66.234c-2.197,13.259 -3.296,23.736 -3.296,31.43c0,6.156 1.923,9.234 5.768,9.234c9.475,0 21.147,-10.891 35.016,-32.673c3.295,1.776 4.943,3.611 4.943,5.505c0,7.694 -7.655,17.786 -22.966,30.276c-15.311,12.489 -27.773,18.733 -37.385,18.733c-10.711,0 -16.066,-6.629 -16.066,-19.888c-0,-9.707 1.442,-23.143 4.325,-40.308l7.209,-42.973c2.335,-13.969 3.502,-25.037 3.502,-33.206c0,-9.352 -3.776,-14.028 -11.329,-14.028c-17.576,0 -35.393,10.27 -53.451,30.809c-18.057,20.539 -28.596,42.587 -31.617,66.145l-5.561,42.618Z" style="fill:#ff5d00;fill-rule:nonzero;"/><path d="M2906.01,254.988l-23.482,24.328c-10.985,-3.907 -21.49,-5.86 -31.514,-5.86c-17.989,-0 -32.167,6.57 -42.534,19.71c-10.368,13.141 -15.551,31.134 -15.551,53.982c-0,16.1 3.741,29.063 11.225,38.888c7.484,9.826 17.268,14.739 29.352,14.739c20.46,-0 36.527,-11.543 48.199,-34.627c3.021,2.841 4.531,5.505 4.531,7.991c0,9.826 -8.891,20.746 -26.674,32.762c-17.783,12.016 -34.089,18.023 -48.919,18.023c-14.282,0 -25.988,-4.942 -35.12,-14.827c-9.131,-9.885 -13.697,-22.699 -13.697,-38.444c0,-30.661 12.084,-58.54 36.252,-83.636c24.168,-25.097 51.014,-37.646 80.537,-37.646c10.711,0 19.842,1.539 27.395,4.617Z" style="fill:#ff5d00;fill-rule:nonzero;"/><path d="M3023.83,368.634c3.708,1.894 5.562,3.729 5.562,5.505c-0,4.262 -5.973,12.667 -17.92,25.215c-16.066,17.047 -30.965,25.57 -44.697,25.57c-10.024,0 -15.036,-5.741 -15.036,-17.224c-0,-4.854 2.059,-19.77 6.179,-44.748l8.033,-48.3l3.708,-22.019c0.686,-4.143 1.029,-7.635 1.029,-10.476c0,-5.919 -1.922,-8.879 -5.767,-8.879c-10.711,0 -22.245,10.181 -34.604,30.543c-2.609,-2.013 -3.914,-4.025 -3.914,-6.038c0,-7.221 7.725,-16.928 23.173,-29.122c15.448,-12.193 27.772,-18.29 36.973,-18.29c10.299,0 15.448,6.156 15.448,18.468c-0,2.368 -0.549,7.221 -1.648,14.561l-4.119,26.28l-8.445,50.786l-2.06,11.364c-1.785,11.247 -2.678,18.764 -2.678,22.552c0,5.09 1.717,7.636 5.15,7.636c11.534,-0 23.412,-11.128 35.633,-33.384Zm-41.401,-141.169l17.302,-36.758c15.38,-5.445 28.013,-12.962 37.9,-22.551c1.373,1.657 2.06,3.374 2.06,5.149c-0,15.863 -19.087,33.917 -57.262,54.16Z" style="fill:#ff5d00;fill-rule:nonzero;"/><path d="M3176.87,349.812c-15.517,22.018 -32.578,40.042 -51.185,54.07c-18.607,14.028 -34.776,21.042 -48.508,21.042c-18.812,0 -28.218,-13.081 -28.218,-39.243c-0,-35.988 13.697,-67.152 41.092,-93.491c27.395,-26.34 59.836,-39.51 97.324,-39.51c14.281,-0 26.434,1.539 36.458,4.617c-0.687,2.131 -1.099,3.433 -1.236,3.906l-2.472,9.412c-1.647,6.511 -2.54,10.299 -2.677,11.364l-13.183,78.487l-1.854,11.364c-1.785,11.247 -2.677,18.764 -2.677,22.552c-0,5.09 1.716,7.636 5.149,7.636c11.535,-0 23.344,-11.128 35.428,-33.384c3.708,1.894 5.561,3.788 5.561,5.682c0,4.144 -5.904,12.49 -17.714,25.038c-16.066,17.047 -30.965,25.57 -44.697,25.57c-10.024,0 -15.036,-5.8 -15.036,-17.402c0,-3.551 0.481,-8.464 1.442,-14.738l2.06,-14.206l4.943,-28.766Zm11.741,-70.496c-12.496,-6.038 -25.129,-9.057 -37.9,-9.057c-19.224,0 -35.359,10.122 -48.404,30.365c-13.046,20.243 -19.568,45.34 -19.568,75.291c-0,15.389 5.287,23.084 15.86,23.084c12.221,-0 26.983,-8.05 44.285,-24.15c23.344,-21.664 37.488,-47.116 42.431,-76.356l3.296,-19.177Z" style="fill:url(#_Linear3);fill-rule:nonzero;"/><path d="M725.336,616.702l2.059,-15.271c4.944,-37.882 19.946,-69.372 45.006,-94.468c25.061,-25.097 53.932,-37.646 86.614,-37.646c7.827,0 14.555,0.592 20.185,1.776l-29.248,25.748c-6.454,-1.894 -14.075,-2.841 -22.864,-2.841c-20.597,-0 -35.977,6.215 -46.139,18.645c-10.161,12.43 -17.164,33.62 -21.009,63.57l-19.156,147.918l-1.442,11.364c-1.236,10.063 -1.854,17.225 -1.854,21.486c0,5.801 1.785,8.701 5.356,8.701c11.397,0 22.863,-11.127 34.398,-33.383c3.707,1.894 5.561,3.788 5.561,5.682c0,4.262 -5.561,12.608 -16.684,25.038c-15.517,17.047 -30.073,25.57 -43.667,25.57c-10.573,0 -15.86,-6.274 -15.86,-18.822c-0,-4.617 0.824,-13.792 2.472,-27.524l2.059,-15.626l1.648,-13.141c-9.337,17.758 -24.477,34.716 -45.418,50.875c-20.941,16.159 -38.208,24.238 -51.803,24.238c-19.362,0 -29.043,-13.081 -29.043,-39.243c0,-34.212 13.389,-64.932 40.166,-92.16c26.777,-27.228 56.987,-40.841 90.63,-40.841c1.647,-0 4.325,0.118 8.033,0.355Zm-3.296,25.393c-11.535,-5.446 -22.108,-8.169 -31.72,-8.169c-20.323,0 -37.076,9.944 -50.259,29.832c-13.182,19.888 -19.773,45.163 -19.773,75.823c-0,15.39 5.218,23.085 15.654,23.085c12.633,-0 27.463,-8.05 44.491,-24.15c22.108,-20.717 35.153,-46.169 39.135,-76.356l2.472,-20.065Z" style="fill:url(#_Linear4);fill-rule:nonzero;"/><path d="M929.253,727.507c3.433,2.012 5.149,4.38 5.149,7.102c0,3.67 -4.394,9.944 -13.182,18.823c-23.482,23.439 -46.688,35.159 -69.621,35.159c-14.006,0 -25.541,-4.794 -34.604,-14.383c-9.063,-9.589 -13.594,-21.841 -13.594,-36.757c-0,-26.991 11.844,-54.308 35.531,-81.95c23.687,-27.642 47.134,-41.463 70.341,-41.463c16.753,0 25.129,7.754 25.129,23.262c0,17.402 -9.784,34.39 -29.352,50.963c-19.567,16.574 -43.426,28.116 -71.576,34.627c2.746,28.53 15.791,42.794 39.135,42.794c23.069,0 41.951,-12.726 56.644,-38.177Zm-94.956,-26.281c3.983,1.184 7.622,1.776 10.917,1.776c17.028,-0 31.927,-4.499 44.697,-13.496c12.771,-8.997 19.156,-19.533 19.156,-31.608c-0,-13.85 -8.17,-20.775 -24.511,-20.775c-11.81,-0 -22.486,6.067 -32.03,18.201c-9.543,12.134 -15.62,27.434 -18.229,45.902Z" style="fill:#ff5d00;fill-rule:nonzero;"/><path d="M1271.38,763.376c-31.034,18.586 -61.587,27.879 -91.66,27.879c-28.424,-0 -51.322,-9.056 -68.693,-27.169c-17.371,-18.112 -26.056,-42.025 -26.056,-71.739c0,-43.919 16.066,-80.617 48.199,-110.094c32.132,-29.477 72.229,-44.215 120.29,-44.215c24.305,-0 49.503,3.965 75.594,11.897l-13.801,26.103l-3.913,7.635c-3.296,6.038 -7.347,9.057 -12.153,9.057c-0.961,-0 -2.403,-0.178 -4.326,-0.533c1.923,-3.67 2.884,-6.689 2.884,-9.056c0,-7.932 -6.145,-14.857 -18.435,-20.776c-12.29,-5.919 -26.605,-8.879 -42.946,-8.879c-34.192,0 -61.587,11.572 -82.185,34.716c-20.597,23.143 -30.896,53.833 -30.896,92.07c-0,28.057 7.209,49.957 21.627,65.702c14.419,15.745 34.467,23.617 60.146,23.617c23.618,0 46.482,-8.05 68.59,-24.15l8.445,-64.103l-35.016,-0c-23.756,-0 -42.775,2.012 -57.056,6.037c6.866,-12.075 13.354,-19.651 19.465,-22.729c6.111,-3.078 17.611,-4.617 34.501,-4.617l20.804,-0.177l54.79,-0l-2.06,7.28l-3.296,11.187c-1.785,6.63 -3.021,12.371 -3.707,17.225l-9.063,71.383c-3.159,24.032 -7.209,41.996 -12.153,53.893c-4.943,11.898 -13.045,22.878 -24.305,32.94c-22.52,20.362 -49.435,30.542 -80.743,30.542c-28.837,0 -51.288,-8.523 -67.354,-25.57l30.69,-20.953c12.633,20.953 32.064,31.43 58.292,31.43c19.773,-0 34.02,-5.357 42.74,-16.07c8.719,-10.714 15.002,-30.395 18.847,-59.043l3.913,-30.72Z" style="fill:url(#_Linear5);fill-rule:nonzero;"/><path d="M1506.4,714.189c-15.655,20.716 -33.3,38.296 -52.936,52.738c-19.637,14.443 -35.634,21.664 -47.993,21.664c-13.594,0 -20.392,-7.813 -20.392,-23.439c0,-5.801 0.893,-15.331 2.678,-28.589l7.415,-58.244c0.137,-0.828 0.481,-4.262 1.03,-10.299l1.236,-11.542c0.412,-3.433 0.618,-6.511 0.618,-9.234c-0,-6.866 -2.266,-10.299 -6.797,-10.299c-10.437,-0 -21.697,10.122 -33.781,30.365c-2.609,-1.776 -3.913,-3.67 -3.913,-5.683c-0,-7.339 7.587,-17.106 22.76,-29.299c15.174,-12.193 27.224,-18.29 36.149,-18.29c11.398,0 17.096,6.748 17.096,20.243c0,3.197 -0.274,6.926 -0.824,11.187l-1.853,13.673l-1.854,14.916l-6.591,50.786c-1.099,8.642 -1.648,17.402 -1.648,26.281c-0,8.168 3.501,12.252 10.505,12.252c15.516,0 33.059,-11.009 52.627,-33.028c19.567,-22.019 31.136,-43.801 34.707,-65.347l7.003,-42.084l33.368,-9.767c-3.845,13.733 -6.728,25.985 -8.651,36.758l-12.358,74.225l-3.09,21.131c-0.824,6.037 -1.236,10.299 -1.236,12.785c-0,5.09 1.648,7.635 4.943,7.635c11.672,0 23.55,-11.127 35.634,-33.383c3.708,1.894 5.562,3.788 5.562,5.682c-0,4.144 -5.974,12.489 -17.92,25.038c-16.066,17.047 -30.965,25.57 -44.697,25.57c-10.024,0 -15.036,-5.8 -15.036,-17.402c-0,-3.67 0.48,-8.582 1.441,-14.738l4.738,-29.832l2.06,-12.43Z" style="fill:#ff5d00;fill-rule:nonzero;"/><path d="M1721.85,713.478c-15.517,22.019 -32.578,40.043 -51.185,54.071c-18.606,14.028 -34.776,21.042 -48.507,21.042c-18.813,0 -28.219,-13.081 -28.219,-39.243c-0,-35.988 13.697,-67.152 41.092,-93.492c27.395,-26.339 59.836,-39.509 97.324,-39.509c14.281,-0 26.434,1.539 36.458,4.617c-0.687,2.13 -1.099,3.433 -1.236,3.906l-2.472,9.411c-1.647,6.511 -2.54,10.3 -2.677,11.365l-13.183,78.487l-1.854,11.364c-1.785,11.246 -2.677,18.764 -2.677,22.552c-0,5.09 1.716,7.635 5.149,7.635c11.535,0 23.344,-11.127 35.428,-33.383c3.708,1.894 5.562,3.788 5.562,5.682c-0,4.144 -5.905,12.489 -17.714,25.038c-16.067,17.047 -30.966,25.57 -44.697,25.57c-10.025,0 -15.037,-5.8 -15.037,-17.402c0,-3.551 0.481,-8.464 1.442,-14.738l2.06,-14.206l4.943,-28.767Zm11.741,-70.496c-12.496,-6.037 -25.129,-9.056 -37.9,-9.056c-19.224,0 -35.359,10.122 -48.404,30.365c-13.045,20.243 -19.568,45.34 -19.568,75.29c-0,15.39 5.287,23.085 15.86,23.085c12.221,-0 26.983,-8.05 44.285,-24.15c23.344,-21.664 37.488,-47.116 42.431,-76.356l3.296,-19.178Z" style="fill:#ff5d00;fill-rule:nonzero;"/><path d="M1961.2,713.301c-13.869,21.782 -28.39,39.776 -43.564,53.982c-15.173,14.205 -27.566,21.308 -37.179,21.308c-13.182,0 -20.46,-11.956 -21.833,-35.869l-1.442,-24.683l-2.678,-50.253l-0.618,-14.383c-1.235,-19.059 -5.286,-28.589 -12.152,-28.589c-10.711,0 -21.147,8.76 -31.309,26.281c-3.57,-2.131 -5.355,-4.44 -5.355,-6.926c-0,-6.392 6.66,-14.679 19.98,-24.86c13.32,-10.18 24.168,-15.271 32.544,-15.271c8.651,0 14.762,3.345 18.332,10.033c3.57,6.689 5.905,19.03 7.003,37.024l3.708,62.15c1.373,23.676 5.767,35.514 13.182,35.514c11.123,0 24.923,-10.98 41.402,-32.939c16.478,-21.96 27.051,-43.535 31.72,-64.725l8.033,-36.225l36.664,-11.009c-4.669,10.417 -9.475,26.162 -14.418,47.234l-27.601,119.15c-10.848,46.642 -27.601,81.091 -50.259,103.347c-33.917,33.147 -73.19,49.72 -117.818,49.72c-9.338,0 -19.843,-1.776 -31.515,-5.327l25.335,-23.972c12.908,4.972 26.365,7.458 40.372,7.458c28.562,-0 49.983,-7.991 64.265,-23.972c14.281,-15.982 26.227,-45.281 35.84,-87.898l19.361,-86.3Z" style="fill:#ff5d00;fill-rule:nonzero;"/><path d="M2166.97,713.478c-15.517,22.019 -32.579,40.043 -51.185,54.071c-18.607,14.028 -34.776,21.042 -48.508,21.042c-18.812,0 -28.218,-13.081 -28.218,-39.243c-0,-35.988 13.697,-67.152 41.092,-93.492c27.395,-26.339 59.836,-39.509 97.324,-39.509c14.281,-0 26.434,1.539 36.458,4.617c-0.687,2.13 -1.099,3.433 -1.236,3.906l-2.472,9.411c-1.648,6.511 -2.54,10.3 -2.677,11.365l-13.183,78.487l-1.854,11.364c-1.785,11.246 -2.677,18.764 -2.677,22.552c-0,5.09 1.716,7.635 5.149,7.635c11.535,0 23.344,-11.127 35.428,-33.383c3.708,1.894 5.561,3.788 5.561,5.682c0,4.144 -5.904,12.489 -17.714,25.038c-16.066,17.047 -30.965,25.57 -44.697,25.57c-10.024,0 -15.036,-5.8 -15.036,-17.402c0,-3.551 0.481,-8.464 1.442,-14.738l2.06,-14.206l4.943,-28.767Zm11.741,-70.496c-12.496,-6.037 -25.129,-9.056 -37.9,-9.056c-19.224,0 -35.359,10.122 -48.404,30.365c-13.046,20.243 -19.568,45.34 -19.568,75.29c-0,15.39 5.286,23.085 15.86,23.085c12.221,-0 26.983,-8.05 44.285,-24.15c23.344,-21.664 37.488,-47.116 42.431,-76.356l3.296,-19.178Z" style="fill:#ff5d00;fill-rule:nonzero;"/><path d="M2387.98,897.798c3.57,-2.841 10.642,-7.813 21.216,-14.916l17.92,-12.253c0.686,-0.473 3.227,-1.953 7.621,-4.439l-2.06,14.916c-24.442,12.075 -50.601,29.122 -78.477,51.141l28.219,-218.946c-15.929,21.782 -33.265,39.776 -52.009,53.982c-18.744,14.205 -34.501,21.308 -47.272,21.308c-18.126,0 -27.189,-13.081 -27.189,-39.243c0,-35.278 13.595,-66.264 40.783,-92.959c27.189,-26.695 58.704,-40.042 94.544,-40.042c13.732,-0 25.541,1.539 35.428,4.617c-0.687,2.13 -1.099,3.373 -1.236,3.729l-2.266,9.588c-1.648,6.511 -2.54,10.3 -2.677,11.365l-32.545,252.152Zm3.708,-256.414c-9.201,-4.972 -20.735,-7.458 -34.604,-7.458c-18.95,0 -34.913,10.181 -47.89,30.543c-12.976,20.361 -19.465,45.399 -19.465,75.112c0,15.863 4.944,23.558 14.831,23.085c10.985,-0.474 26.227,-9.293 45.726,-26.458c13.32,-11.72 22.521,-22.374 27.601,-31.963c5.081,-9.589 8.789,-23.44 11.123,-41.552l2.678,-21.309Z" style="fill:#ff5d00;fill-rule:nonzero;"/><path d="M2608.99,714.189c-15.654,20.716 -33.299,38.296 -52.936,52.738c-19.636,14.443 -35.634,21.664 -47.992,21.664c-13.595,0 -20.392,-7.813 -20.392,-23.439c-0,-5.801 0.893,-15.331 2.678,-28.589l7.415,-58.244c0.137,-0.828 0.48,-4.262 1.03,-10.299l1.236,-11.542c0.412,-3.433 0.617,-6.511 0.617,-9.234c0,-6.866 -2.265,-10.299 -6.797,-10.299c-10.436,-0 -21.696,10.122 -33.78,30.365c-2.609,-1.776 -3.913,-3.67 -3.913,-5.683c-0,-7.339 7.586,-17.106 22.76,-29.299c15.174,-12.193 27.223,-18.29 36.149,-18.29c11.397,0 17.096,6.748 17.096,20.243c-0,3.197 -0.275,6.926 -0.824,11.187l-1.854,13.673l-1.854,14.916l-6.591,50.786c-1.098,8.642 -1.648,17.402 -1.648,26.281c0,8.168 3.502,12.252 10.505,12.252c15.517,0 33.059,-11.009 52.627,-33.028c19.568,-22.019 31.137,-43.801 34.707,-65.347l7.004,-42.084l33.368,-9.767c-3.845,13.733 -6.729,25.985 -8.651,36.758l-12.359,74.225l-3.089,21.131c-0.824,6.037 -1.236,10.299 -1.236,12.785c-0,5.09 1.647,7.635 4.943,7.635c11.672,0 23.55,-11.127 35.634,-33.383c3.708,1.894 5.561,3.788 5.561,5.682c0,4.144 -5.973,12.489 -17.92,25.038c-16.066,17.047 -30.965,25.57 -44.696,25.57c-10.025,0 -15.037,-5.8 -15.037,-17.402c0,-3.67 0.481,-8.582 1.442,-14.738l4.738,-29.832l2.059,-12.43Z" style="fill:#ff5d00;fill-rule:nonzero;"/><path d="M2796.23,732.301c3.708,1.894 5.562,3.729 5.562,5.505c-0,4.261 -5.974,12.666 -17.92,25.215c-16.067,17.047 -30.966,25.57 -44.697,25.57c-10.025,0 -15.037,-5.741 -15.037,-17.224c0,-4.854 2.06,-19.77 6.18,-44.748l8.033,-48.3l3.707,-22.019c0.687,-4.143 1.03,-7.635 1.03,-10.476c0,-5.919 -1.922,-8.879 -5.767,-8.879c-10.711,-0 -22.246,10.181 -34.604,30.542c-2.609,-2.012 -3.914,-4.025 -3.914,-6.037c0,-7.221 7.724,-16.929 23.173,-29.122c15.448,-12.193 27.772,-18.29 36.972,-18.29c10.299,0 15.449,6.156 15.449,18.468c-0,2.367 -0.55,7.221 -1.648,14.561l-4.12,26.28l-8.445,50.786l-2.06,11.364c-1.785,11.246 -2.677,18.764 -2.677,22.552c-0,5.09 1.716,7.635 5.149,7.635c11.535,0 23.413,-11.127 35.634,-33.383Zm-41.401,-141.17l17.302,-36.757c15.379,-5.445 28.013,-12.963 37.9,-22.551c1.373,1.657 2.059,3.373 2.059,5.149c0,15.863 -19.087,33.916 -57.261,54.159Z" style="fill:#ff5d00;fill-rule:nonzero;"/><path d="M2904.78,731.768c3.982,1.658 5.973,3.788 5.973,6.393c0,8.523 -7.381,19.059 -22.142,31.608c-14.762,12.548 -27.155,18.822 -37.179,18.822c-11.397,0 -17.096,-7.103 -17.096,-21.308c-0,-8.642 0.618,-17.462 1.854,-26.459l2.265,-15.803l15.861,-123.59c4.943,-37.646 19.945,-69.076 45.006,-94.291c25.06,-25.215 53.931,-37.823 86.613,-37.823c7.964,0 14.693,0.592 20.185,1.776l-29.248,25.748c-6.454,-1.894 -14.007,-2.841 -22.658,-2.841c-20.597,-0 -36.011,6.244 -46.241,18.734c-10.231,12.489 -17.268,33.649 -21.113,63.481l-19.156,148.806c-1.51,11.483 -2.266,19.71 -2.266,24.682c0,10.654 2.129,15.981 6.386,15.981c5.08,0 11.054,-3.521 17.92,-10.565c6.866,-7.044 11.878,-14.827 15.036,-23.351Z" style="fill:url(#_Linear6);fill-rule:nonzero;"/></g><defs><linearGradient id="_Linear1" x1="0" y1="0" x2="1" y2="0" gradientUnits="userSpaceOnUse" gradientTransform="matrix(275.185,0,0,253.04,114.615,300.891)"><stop offset="0" style="stop-color:#ffff4a;stop-opacity:1"/><stop offset="0.51" style="stop-color:#ff8613;stop-opacity:1"/><stop offset="1" style="stop-color:#ff5d00;stop-opacity:1"/></linearGradient><linearGradient id="_Linear2" x1="0" y1="0" x2="1" y2="0" gradientUnits="userSpaceOnUse" gradientTransform="matrix(160.868,0,0,242.74,745.521,302.844)"><stop offset="0" style="stop-color:#ffff4a;stop-opacity:1"/><stop offset="0.51" style="stop-color:#ff8613;stop-opacity:1"/><stop offset="1" style="stop-color:#ff5d00;stop-opacity:1"/></linearGradient><linearGradient id="_Linear3" x1="0" y1="0" x2="1" y2="0" gradientUnits="userSpaceOnUse" gradientTransform="matrix(196.914,0,0,172.245,3048.96,338.802)"><stop offset="0" style="stop-color:#ff5d00;stop-opacity:1"/><stop offset="0.53" style="stop-color:#ff8111;stop-opacity:1"/><stop offset="1" style="stop-color:#ffff4c;stop-opacity:1"/></linearGradient><linearGradient id="_Linear4" x1="0" y1="0" x2="1" y2="0" gradientUnits="userSpaceOnUse" gradientTransform="matrix(292.693,0,0,319.274,586.507,628.954)"><stop offset="0" style="stop-color:#ffff4a;stop-opacity:1"/><stop offset="0.52" style="stop-color:#ff8814;stop-opacity:1"/><stop offset="1" style="stop-color:#ff5d00;stop-opacity:1"/></linearGradient><linearGradient id="_Linear5" x1="0" y1="0" x2="1" y2="0" gradientUnits="userSpaceOnUse" gradientTransform="matrix(244.082,0,0,346.265,1084.97,711.17)"><stop offset="0" style="stop-color:#ffff4a;stop-opacity:1"/><stop offset="0.45" style="stop-color:#ff7f10;stop-opacity:1"/><stop offset="1" style="stop-color:#ff5d00;stop-opacity:1"/></linearGradient><linearGradient id="_Linear6" x1="0" y1="0" x2="1" y2="0" gradientUnits="userSpaceOnUse" gradientTransform="matrix(171.785,0,0,319.274,2834.33,628.954)"><stop offset="0" style="stop-color:#ff5d00;stop-opacity:1"/><stop offset="1" style="stop-color:#ffff4a;stop-opacity:1"/></linearGradient></defs></svg>