<?xml version="1.0" encoding="UTF-8" standalone="no"?><!DOCTYPE svg PUBLIC "-//W3C//DTD SVG 1.1//EN" "http://www.w3.org/Graphics/SVG/1.1/DTD/svg11.dtd"><svg width="100%" height="100%" viewBox="0 0 2560 1440" version="1.1" xmlns="http://www.w3.org/2000/svg" xmlns:xlink="http://www.w3.org/1999/xlink" xml:space="preserve" xmlns:serif="http://www.serif.com/" style="fill-rule:evenodd;clip-rule:evenodd;stroke-linejoin:round;stroke-miterlimit:2;"><path d="M209.446,22.575c1.1,16.6 5.5,53.7 10.5,88.6c4.8,33.1 5.6,40.9 4.5,39.7c-1.6,-1.5 -17.4,-85.5 -20.9,-110.8c-2.9,-20.3 -3.8,-25 -4.8,-25c-0.6,0 -0.7,3.7 -0.3,9.7c2.5,40.5 2.9,43.3 14.8,92.8c6.5,27.1 13.2,60.6 12.5,62.7c-0.3,0.7 -1.2,-2.6 -2.2,-7.3c-3.1,-14.7 -10.5,-46.6 -16.1,-68.9c-7.7,-30.9 -12.1,-51.4 -14.6,-68c-2.5,-17.1 -4.3,-21.6 -3.5,-9c0.8,13.7 4.9,33.5 17.6,85c13,53 22.3,93.1 21.6,93.8c-0.3,0.2 -0.9,-1.1 -1.4,-3c-0.5,-1.8 -6.4,-23.1 -13.2,-47.3c-6.7,-24.2 -15.3,-55.1 -19.1,-68.6c-3.8,-13.5 -8.3,-30.8 -10,-38.4c-1.7,-7.7 -3.3,-14.2 -3.6,-14.5c-2.3,-2.1 4.8,28.5 14.7,64c9.9,35.4 24,86.8 24.5,89.5c1,5 -5.1,-7.4 -12.1,-24.5c-6.7,-16.6 -10.9,-30 -14.8,-47c-1.4,-5.8 -2.5,-9.4 -2.5,-8c-0.1,2.5 1.4,13.6 2.5,19.5l0.5,3l-1.8,-3c-3.7,-5.9 -13.4,-27.7 -25.3,-56.4c-6.6,-16.1 -12.9,-30.9 -14,-32.9l-2.1,-3.7l0.7,3.5c1.3,7 9.5,30.3 15.3,43.2c3.2,7.3 11.1,24.2 17.5,37.6c12.5,26.1 20,43.1 19.4,43.8c-1.6,1.5 -41.7,-77.5 -53.3,-105.1c-7.7,-18.3 -9.4,-21.9 -10.1,-21.2c-0.8,0.8 10.3,29 17.7,45c8.1,17.4 26.9,53.6 41.4,79.7c11.6,21 18.8,35 18.2,35.6c-0.6,0.6 -19.9,-29.2 -28.1,-43.5c-4.3,-7.4 -10.2,-18.3 -13.2,-24.4c-3,-6 -5.8,-10.7 -6,-10.4c-0.3,0.3 0,1.5 0.6,2.7c1.3,2.5 0.3,4.3 -1.2,2c-3.5,-5.7 -24.2,-42 -27.7,-48.5c-2.3,-4.4 -5.1,-9.1 -6.2,-10.5l-1.9,-2.5l1,3c0.6,1.6 2.4,5 3.9,7.5c1.6,2.5 3.1,5.6 3.4,7c0.9,3.5 13.8,26.1 24.8,43.2c11.3,17.5 23.3,37.7 22.8,38.2c-0.2,0.3 -4.9,-6.1 -10.4,-14.1c-5.5,-8.1 -15.8,-22.8 -22.9,-32.7c-24.1,-33.7 -27.7,-39.1 -34.8,-50.4c-3.8,-6.2 -7.2,-11.1 -7.5,-10.9c-1.3,1.4 11.8,22.1 37.6,59.2c12.9,18.6 46.9,68.9 49.6,73.4c0.4,0.7 -7.8,-7.4 -18.3,-18c-10.4,-10.7 -20.8,-20.8 -23.1,-22.4c-2.2,-1.7 -4.1,-3.7 -4.1,-4.5c0,-0.8 -2.8,-4.7 -6.2,-8.5c-3.4,-3.9 -10.4,-12.3 -15.5,-18.8c-5.2,-6.4 -9.7,-11.7 -10,-11.7c-0.3,0 0.6,1.5 1.9,3.2c4.1,5.4 18.4,25.2 19.2,26.5c0.4,0.7 0.5,1.3 0.2,1.3c-1.1,0 -7.4,-7.3 -24.1,-28c-9.6,-11.8 -19.4,-23.8 -21.8,-26.5c-7.6,-8.5 -5.9,-4.5 2.5,6c18.1,22.6 29.1,37 29.9,39.4c0.5,1.4 2.5,3.6 4.3,4.9c4.9,3.3 44.9,46.5 52.6,56.7c0.8,1.1 -0.7,0.1 -3.5,-2.1c-7.6,-6.3 -27.8,-27.4 -38.9,-40.7c-5.4,-6.4 -10,-11.7 -10.3,-11.7c-0.3,0 1.5,2.8 3.9,6.2c6.2,8.8 6.7,9.7 4.2,7.8c-6.1,-4.7 -28.4,-25.3 -37.5,-34.7c-10.8,-11.2 -14.2,-16.4 -16.6,-25.8l-1.3,-5l0.5,6.4c0.3,3.7 1.5,8.5 2.7,11c2.8,5.8 20.8,23.9 46.8,47.3c22.1,19.8 50,46.7 48.5,46.7c-0.5,0 -7.3,-5.2 -15,-11.6c-30,-24.9 -63.9,-51.4 -79.6,-62.3c-9,-6.2 -17.7,-12.2 -19.3,-13.4c-1.6,-1.1 -2.6,-1.4 -2.2,-0.8c0.4,0.7 13.4,10.8 28.9,22.5c15.5,11.6 44.4,34.4 64.2,50.6c40.6,33.2 44,36.1 42.3,36.1c-0.7,0 -5.8,-2.2 -11.3,-5c-8.9,-4.4 -15.5,-9 -43.5,-29.7c-10.6,-7.9 -8.4,-5 3.5,4.7c5.7,4.6 10.2,8.6 10,8.8c-0.4,0.5 -11.6,-5.3 -27.1,-13.8c-20.9,-11.7 -90.4,-47.2 -91.6,-46.8c-1.2,0.4 20,12.2 52.2,28.8c28,14.5 53.1,28.2 52.6,28.7c-0.3,0.3 -16.6,-6.5 -30.1,-12.7c-7.2,-3.3 -20.1,-8.7 -29,-12.2c-2.7,-1.1 -12,-5 -20.5,-8.8c-18.4,-8.1 -26,-11.2 -26,-10.4c0,1 28,13.9 48.5,22.4c29,11.9 48,20.3 46.9,20.7c-0.6,0.2 -9.1,-2.6 -18.9,-6.2c-26.1,-9.6 -74.7,-26.4 -78.4,-27.1c-1.7,-0.4 -3.1,-0.4 -3.1,-0.1c0,1.3 6.4,3.8 30.9,12.1c53.7,18.3 131.9,49.1 129.9,51.2c-1.2,1.1 -48.7,-11.9 -58.7,-16.1c-3.7,-1.5 -7,-2.3 -8.4,-2c-1.4,0.4 -12.7,-2.5 -29.3,-7.5c-23.9,-7.2 -45.1,-13 -47.9,-13c-2.9,0 2.3,2.2 12.5,5.4c16.8,5.1 71.6,21.2 78,22.9c7.5,1.9 21.9,8.1 19.9,8.5c-0.9,0.1 -14,-2.4 -29.2,-5.8c-15.1,-3.3 -36.7,-7.6 -47.9,-9.5c-11.2,-2 -27,-4.9 -35.2,-6.5c-15.3,-3.1 -21.8,-3.7 -20,-2.1c1.2,1.2 14.3,4 42.9,9.1c12.7,2.2 35.6,6.8 51,10c15.4,3.2 30,6.3 32.5,6.8l4.5,1l-6.2,0.1c-12.1,0.2 -101.1,-8.4 -118.8,-11.5c-2.2,-0.3 -2.6,-0.2 -1.5,0.5c4.3,2.7 48.4,8.4 94,12c50.5,4.1 56.5,4.8 61.4,7l4.1,1.9l-6,0.1c-3.3,0 -11.8,-0.4 -19,-0.9c-30.4,-2.1 -80.8,-3.2 -111.5,-2.4c-43,1.1 -33.1,2.2 19.9,2.3c34.5,0.1 89.7,2 99.6,3.4c7,1.1 -42.2,3.7 -70.5,3.8c-25.3,0.1 -27.5,1.1 -5.5,2.5c13.2,0.8 13.3,0.7 -5.9,4.4c-6.2,1.2 -16.3,4.2 -23.6,7c-9.3,3.6 -15.3,5.2 -22.1,6.1c-13.3,1.7 -15.4,3 -4.2,2.6c5.1,-0.2 9.3,0 9.3,0.3c0,0.4 -4.5,3.9 -10,8c-6.5,4.7 -10,7.9 -10,9.1c0,2.6 1.5,2.4 15.9,-1.6c6.9,-1.9 22.6,-5.8 35,-8.6c12.4,-2.7 25.9,-5.9 30,-7c8.5,-2.2 9.5,-2.3 8.6,-0.9c-1,1.6 0.3,1.4 34.7,-5c17.7,-3.3 33.7,-6.2 35.3,-6.5l3,-0.6l-2.5,1.5c-7.4,4.5 -23.1,8.4 -62.5,15.6c-39.1,7.1 -59.3,11.6 -78,17.2c-11.9,3.6 -5.4,3.1 8.7,-0.6c20.5,-5.5 71.3,-15.7 76.6,-15.5c0.9,0 -3.2,1.5 -9.3,3.3c-13.9,4.1 -15.2,4.7 -9,4c4.7,-0.5 4.9,-0.4 2.5,1c-1.4,0.8 -19.4,7.1 -40,14c-20.6,7 -38.1,12.9 -38.9,13.2c-0.9,0.3 -1.1,0.8 -0.5,1.4c1.1,1.1 2,0.9 62.3,-18.2c51.7,-16.3 67.6,-21.5 70.4,-23c1,-0.5 2.1,-0.7 2.4,-0.4c0.7,0.6 -28,15 -45.2,22.6c-11.9,5.3 -38.6,14 -52.2,17.1c-3.1,0.7 -6.6,2.4 -8.5,4.1l-3.3,2.9l4.2,-0.5c2.3,-0.4 7.9,-1.8 12.4,-3.2c4.4,-1.4 8.3,-2.4 8.5,-2.1c0.4,0.4 -18.8,11.3 -32.6,18.4c-7.5,4 -9.2,5.3 -6.5,5.3c1,0 7.9,-3.3 15.4,-7.4c16.5,-8.9 40.2,-20.7 53.1,-26.4c11.6,-5.1 49,-18.4 50.4,-17.9c1.4,0.5 -15.1,11.8 -31.9,21.9c-7.7,4.7 -21.4,13.4 -30.3,19.4c-9,6 -17.6,11.7 -19,12.6c-1.5,1 -2.2,1.8 -1.6,1.8c1.4,0 21.4,-11.9 32.9,-19.6c5,-3.3 16,-10.4 24.5,-15.7c8.5,-5.4 21.7,-14.1 29.3,-19.5c14.6,-10.4 25.7,-17 25.7,-15.3c0,1.6 -16.5,15.7 -49,41.9c-35.7,28.8 -48.9,38.9 -56.2,43.2c-4.2,2.5 -4.7,3 -2.3,2.5c3.8,-0.8 15.1,-7.9 23.5,-14.6c3.6,-2.9 15.6,-12.7 26.8,-21.7c11.2,-9 20.5,-16.2 20.8,-15.9c0.8,0.8 -42.5,41.1 -58.9,54.7c-8.7,7.3 -15.6,13.4 -15.3,13.7c1.8,1.8 38.8,-30.9 86.8,-77c19.6,-18.7 24.4,-22.8 18.7,-15.7c-2,2.5 -6.9,9.2 -10.9,15c-21.8,31.1 -41.9,49.7 -74.6,69c-6.6,3.8 -11.6,7 -11.1,7c1.7,0 17.7,-8.6 25.7,-13.8c10.5,-6.8 18.4,-12.7 27.5,-20.6c12.6,-11 2.7,-0.5 -17.8,18.9c-10.8,10.2 -19.7,18.9 -19.7,19.2c0,0.7 -0.4,1 14.5,-11.8c16.4,-14 27.9,-25.9 39.1,-40.4c19.3,-24.8 23,-28.5 13.4,-12.9c-12.6,20.1 -24.7,34.9 -51.9,63.4c-7.9,8.2 -13.9,15 -13.3,15c1.1,0 37.1,-37.2 43.8,-45.1c5,-6 17.6,-23.6 25.9,-36.3c7.4,-11.1 22.7,-31.7 23.2,-31.2c0.2,0.2 -2.9,5.5 -7,11.7c-8.2,12.7 -15.1,24.9 -25.1,44.4c-9.1,17.8 -14.4,24.3 -30.4,36.9c-15.8,12.5 -26.7,22.2 -28.9,25.6c-1.1,1.8 -0.3,1.3 2.8,-1.5c2.4,-2.2 12.1,-10.2 21.5,-17.7c23.3,-18.6 27.1,-22.9 37.5,-43c10,-19.4 42,-72.9 43.9,-73.6c1.9,-0.7 -7.8,35.4 -14,52.3c-5.3,14.2 -18.5,45.1 -27.4,63.9c-7,14.8 -7.2,17.5 -0.4,4.1c20.5,-40.1 35.4,-77.8 41.3,-104.1c1.4,-6.6 3.3,-12.4 4.1,-13c0.8,-0.6 1.4,-1.9 1.4,-3c0,-1.3 0.3,-1.5 1.1,-0.7c1.6,1.6 2.8,24.9 2.9,56.7c0,15.4 0.3,27.6 0.8,27.2c2.2,-2.3 1.7,-65.7 -0.8,-80.9c-0.5,-3.3 -0.8,-6.3 -0.5,-6.5c2.3,-2.3 16.5,53.3 16.5,64.7c0,5.1 1,10.1 2.1,10.1c3.4,0 -4.8,-43.2 -12.6,-65.9c-1.4,-4.1 -2.5,-7.9 -2.5,-8.4c0,-1.8 23.5,36.4 28.9,47.1c1.2,2.4 2.5,4.2 2.7,3.9c0.7,-0.7 -3.3,-8.5 -15.8,-30.4c-6,-10.6 -10.8,-19.8 -10.6,-20.4c0.4,-1.1 49.3,22.9 60.3,29.6c3.3,2 9.2,5.3 13,7.2c3.9,2 14.2,7.7 23,12.8c8.8,5.1 24.3,13.6 34.5,19c23.3,12.3 31.8,17.1 55.5,31c10.5,6.2 29.4,17.2 42,24.5c12.7,7.3 34.5,20.1 48.5,28.5c14,8.3 31.3,18.4 38.3,22.4c12.8,7.3 43.4,29.1 47.2,33.7c1.1,1.3 3.3,2.8 4.9,3.4c2.2,0.8 2.6,1.4 1.8,2.2c-1.9,1.9 -1.4,2.6 3.1,4.6c2.3,1.1 9.2,6.3 15.2,11.7c12,10.6 28,21.6 50.7,34.8c25.3,14.8 30.7,16.9 33.8,13.2c5,-6.1 -25,-33.3 -58,-52.6c-19.5,-11.4 -36.8,-20.9 -38.3,-20.9c-0.7,0 -2.4,-1.1 -3.7,-2.5c-1.6,-1.8 -2.6,-2.2 -3.1,-1.3c-0.7,1.1 -3.4,-0.3 -22.8,-12.4c-4.2,-2.6 -12.3,-7.3 -18,-10.5c-5.6,-3.2 -19.6,-11.4 -31,-18.2c-21.6,-12.9 -83.2,-49 -105.5,-61.8c-7.2,-4.2 -15,-8.9 -17.3,-10.4c-2.3,-1.6 -16,-9.2 -30.5,-16.8c-14.5,-7.6 -35.3,-19 -46.3,-25.3c-29.2,-16.8 -40.1,-22.7 -68.8,-37.3l-25.8,-13.2l9.2,-0.6c5.1,-0.4 13.5,-0.8 18.8,-0.8c20.1,-0.3 14.7,-1.7 -6.9,-1.8c-13.1,-0.1 -22,-0.5 -21.5,-1c0.6,-0.5 9.1,-3 19,-5.6c36.5,-9.5 39.3,-11.5 4.9,-3.5c-11.9,2.8 -21.8,4.9 -22.1,4.7c-0.2,-0.2 4.9,-2.8 11.4,-5.7c29.5,-13.2 48.3,-23.8 57.8,-32.5c5,-4.5 3.9,-3.9 -10.5,5.7c-6.3,4.2 -16.9,10.3 -23.5,13.6c-12.8,6.5 -31.6,14.5 -32.2,13.8c-0.2,-0.2 6,-5.5 13.9,-11.7c38.8,-30.9 51.6,-43.5 61.7,-60.8c4.9,-8.2 2.9,-7.2 -3,1.6c-6.3,9.4 -24.7,27.8 -42.5,42.5c-16.2,13.5 -40.5,32 -41.2,31.4c-0.6,-0.6 5.5,-10.7 13.6,-22.6c5.5,-8 22.2,-35.6 35.1,-57.7c11.9,-20.6 15,-25.7 20.4,-33.8c3.3,-5 5.3,-8.4 4.3,-7.6c-3.5,2.9 -18.7,26.1 -30.2,46.1c-17.7,31 -27.2,46.6 -30,49.7c-2,2.2 -1.7,1.2 1.7,-5.2c2.3,-4.4 7,-12.7 10.4,-18.5c12.8,-21.6 21.4,-38.4 37.1,-72.8c1.3,-2.8 2,-5.2 1.6,-5.2c-0.7,0 -6.2,8.5 -6.2,9.6c0,1.4 -25.5,51.2 -33.3,64.9c-15.2,27 -19.8,34.7 -20.3,34.2c-0.6,-0.6 6.7,-20.1 14.3,-38.2c7.6,-18.1 21.3,-46.1 28.4,-58.1c5.4,-9.2 11.9,-24.4 11.9,-27.9c0,-3.3 -1.8,-1.2 -2.9,3.2c-0.7,2.7 -5.7,13.1 -11.1,23.3c-5.5,10.2 -13.3,25.6 -17.6,34.3c-4.2,8.7 -7.8,15.6 -8,15.4c-1.3,-1.3 10.3,-30.2 19,-47.6c8.6,-17 20.3,-47.5 19.3,-50.4c-0.2,-0.6 -1.4,1.9 -2.7,5.8c-3.9,11.8 -7.5,20.5 -18.4,43.7c-6.5,13.8 -13.5,31 -18.5,45.3c-11.8,33.4 -15.3,42.9 -16.3,44c-0.5,0.5 -0.6,-0.3 -0.3,-2c0.2,-1.7 0.9,-10.2 1.5,-19c1.8,-27 8.5,-73.9 14.5,-102c2.8,-13.1 10.5,-53.8 10.5,-55.6c0,-0.8 -0.3,-0.9 -0.9,-0.4c-0.6,0.6 -4,15.8 -7.6,34c-3.7,18.1 -7.1,33.7 -7.6,34.5c-0.7,1 -0.8,0.2 -0.4,-2.5c0.3,-2.2 1.4,-12.2 2.5,-22.2c1.1,-10 2.9,-24.1 4,-31.4c2.3,-15.1 2.4,-16.7 1,-15.3c-1.8,1.8 -4.9,24.3 -11,79.4c-6.9,62.9 -7.9,70.1 -9.2,71.5c-0.7,0.7 -0.8,0.3 -0.5,-1c0.3,-1.1 1.1,-10.6 1.7,-21c1.9,-32.4 4,-62.3 5.6,-79c2.8,-29.9 4.1,-51.5 3,-50.4c-1.4,1.4 -9.1,93.6 -11.5,138.7c-0.5,9.6 -1.2,17.6 -1.5,18c-0.3,0.3 -0.7,-31.2 -0.7,-69.9c-0.1,-38.8 -0.5,-68.4 -1,-65.9c-0.4,2.5 -0.8,42.1 -0.8,87.9c-0.1,50 -0.5,83.1 -1,82.5c-2.1,-2.1 -3.2,-9.9 -4.1,-28.4c-0.6,-10.7 -1.7,-27.6 -2.5,-37.5c-1.7,-21.4 -3.3,-55.4 -4.4,-90.5l-0.8,-25.5l-0.1,38c-0.2,33.1 0.1,41.6 2.3,66c2.5,27.8 2.9,34.2 2.1,33.4c-0.9,-0.8 -13.6,-92.5 -16.7,-119.4c-1.7,-15.4 -3.5,-28.7 -4,-29.5c-0.7,-1 -0.8,1.6 -0.4,7.5Zm4.4,180.7c1.8,2.1 2.9,3.8 2.5,3.8c-1.1,0 -25.7,-26.6 -26.3,-28.3c-0.3,-1.2 17,16.8 23.8,24.5Zm-17.4,14.7l6,2.1l-5.6,-0.4c-5.5,-0.4 -19.3,-4.6 -21.1,-6.4c-1.2,-1.2 12.5,2 20.7,4.7Zm-2.6,18.6c-0.9,0.8 -86.8,11.7 -111.4,14c-8.3,0.8 -7.9,-0.3 1.1,-3.3c13.7,-4.7 40.9,-8.9 64.9,-10.1c18.5,-0.9 46,-1.3 45.4,-0.6Zm-24.4,6.1c-0.5,0.2 -12,2.6 -25.5,5.4c-13.5,2.8 -28.8,6.2 -34.1,7.5c-5.3,1.4 -17,4.1 -26,6c-14.5,3.1 -30.5,7.2 -35.3,9.1c-7.3,2.8 10.2,-10.9 18.6,-14.5c2.4,-1 9.4,-2.4 15.8,-3.1c12.9,-1.3 68.8,-8.6 76.5,-9.9c5.1,-0.9 11.8,-1.3 10,-0.5Zm56.9,4.1c-6,8.1 -26.6,32.4 -27.1,31.9c-1.1,-1.1 13.4,-20.1 23.6,-30.9c6,-6.3 7.8,-6.9 3.5,-1Zm-14.9,1c-2.8,2.2 -40.5,20.6 -41.1,20c-0.6,-0.5 40.5,-21.6 42.1,-21.6c0.6,0 0.1,0.7 -1,1.6Z" style="fill:#ffc107;fill-rule:nonzero;"/><path d="M416.867,496.513c2.303,2.431 44.56,-66.847 36.845,-68.017c-4.698,-0.647 -7.153,-1.67 -6.96,-2.943c0.086,-0.572 1.785,-0.965 9.206,-1.857c2.845,-0.35 3.67,-1.787 -3.593,-1.131c-10.534,1.006 -11.135,-1.038 -0.661,-2.443c6.936,-0.901 10.066,-1.923 5.549,-1.762c-1.345,0.057 -6.454,0.518 -11.266,1.025c-4.871,0.498 -8.973,0.722 -9.072,0.577c-0.299,-0.436 10.504,-3.614 17.171,-5.141c5.027,-1.125 -3.071,-1.767 -13.305,0.065c-10.235,1.832 -28.672,4.112 -30.621,3.752c-1.118,-0.235 -0.585,-0.545 2.357,-1.53c2.113,-0.721 4.434,-1.215 5.156,-1.171c3.985,0.54 27.506,-6.436 36.93,-10.929c3.463,-1.623 3.971,-3.368 0.986,-3.3c-2.313,0.04 -15.062,3.638 -27.907,7.873c-4.541,1.524 -8.343,2.574 -8.442,2.429c-0.358,-0.445 2.721,-1.93 19.803,-9.687c8.211,-3.701 15.088,-7.018 15.275,-7.446c0.716,-1.518 -16.161,5.684 -44.65,19c-12.217,5.697 -18.04,8.068 -18.823,7.624c-1.684,-0.907 36.897,-22.324 55.026,-30.573c3.72,-1.713 6.512,-3.308 6.116,-3.498c-1.288,-0.716 -9.954,2.786 -23.976,9.575c-14.999,7.227 -18.846,9.377 -31.529,17.346c-9.132,5.774 -17.587,10.283 -18.024,9.566c-0.149,-0.218 0.915,-1.228 2.394,-2.175c12.642,-8.105 31.725,-20.244 38.629,-24.533c21.519,-13.397 27.534,-17.431 26.978,-18.166c-0.298,-0.436 -31.011,18.335 -46.493,28.352c-7.347,4.808 -15.818,10.227 -18.777,12.121c-2.948,1.83 -5.966,3.715 -6.696,4.125c-3.62,2.25 7.122,-6.534 20.37,-16.629c25.905,-19.891 29.049,-22.212 38.506,-28.523c5.078,-3.46 9.426,-6.51 9.721,-6.855c0.974,-1.219 0.074,-1.291 -1.731,-0.198c-2.278,1.412 -2.685,0.895 -1.112,-1.47c1.465,-2.056 1.523,-2.437 0.751,-2.554c-0.296,-0.045 -1.558,1.065 -2.798,2.439c-3.091,3.566 -13.953,11.941 -20.147,15.557c-5.741,3.425 -17.425,8.811 -17.763,8.239c-0.457,-0.589 9.908,-9.69 23.962,-21.096c7.342,-5.98 13.402,-11.113 13.46,-11.495c0.049,-0.318 -0.2,-0.681 -0.615,-0.744c-1.069,-0.162 -21.242,16.368 -34.848,28.426c-6.532,5.843 -11.972,10.485 -12.071,10.339c-0.249,-0.363 4.872,-5.704 11.816,-12.265c2.768,-2.639 7.091,-7.124 9.641,-9.926c5.464,-6.005 11.885,-12.32 14.961,-14.587c1.173,-0.928 2.513,-2.157 2.965,-2.739c0.698,-1.001 0.58,-1.019 -1.216,0.011c-2.979,1.63 -9.925,7.801 -15.084,13.396c-2.412,2.693 -7.375,7.798 -10.95,11.355c-3.575,3.558 -10.468,10.583 -15.293,15.578c-8.37,8.753 -14.399,14.476 -13.209,12.639c1.975,-3.019 28.435,-32.978 39.079,-44.314c13.823,-14.694 16.097,-17.278 14.724,-17.03c-0.494,0.055 -5.832,5.232 -11.819,11.483c-10.862,11.174 -17.35,18.325 -33.453,36.838c-4.557,5.231 -8.987,10.026 -9.944,10.727c-2.119,1.566 -2.796,0.422 -1.123,-1.798c0.688,-0.937 2.457,-3.792 3.949,-6.429c4.724,-8.33 21.982,-30.052 29.724,-37.468c6.392,-6.125 14.988,-15.169 16.385,-17.17c2.192,-3.246 -0.224,-1.726 -3.748,2.296c-4.774,5.458 -14.625,14.767 -14.746,13.968c-0.162,-0.936 6.532,-11.049 9.466,-14.379c1.309,-1.428 3.672,-3.803 5.16,-5.204c4.324,-4.095 2.385,-4.52 -5.046,-1.156c-2.408,1.067 -4.481,1.924 -4.659,1.897c-0.178,-0.027 0.845,-1.564 2.281,-3.429c1.427,-1.801 2.656,-3.502 2.704,-3.82c0.212,-1.4 -1.315,-0.134 -4.513,3.741c-1.949,2.438 -4.933,5.304 -6.57,6.488c-3.558,2.649 -15.26,8.554 -16.97,8.62c-1.829,0.048 -0.968,-2.425 4.109,-11.482c3.82,-6.774 6.536,-12.675 9.012,-19.393c0.382,-0.919 0.379,-1.7 0.082,-1.745c-0.712,-0.108 -1.988,2.302 -4.298,8.329c-1.087,2.764 -2.97,6.773 -4.129,8.81c-3.388,5.929 -5.263,9.485 -6.86,13.212c-1.254,3.064 -1.973,3.801 -4.981,5.623c-9.489,5.719 -11.244,6.885 -12.276,8.485c-2.016,2.884 -3.98,11.436 -8.238,35.911c-3.242,18.576 -4.496,24.439 -5.603,26.939c-0.814,1.764 -1.698,3.192 -1.936,3.156c-0.831,-0.126 -6.288,-8.178 -14.045,-20.678c-8.474,-13.78 -12.479,-19.398 -20.651,-29.163c-3.386,-4.093 -9.924,-13.024 -14.577,-19.977c-7.614,-11.437 -20.406,-27.174 -24.807,-30.574c-1.299,-1.043 -1.309,-0.98 -0.642,0.228c0.378,0.708 4.172,5.318 8.451,10.327c4.23,4.937 11.661,14.784 16.422,21.819c4.771,6.971 11.02,15.403 13.87,18.633c2.849,3.231 7.08,8.558 9.385,11.771c5.357,7.515 19.342,30.592 18.849,31.038c-1.646,1.247 -26.138,-24.204 -35.766,-37.183c-8.574,-11.517 -13.674,-16.716 -29.73,-30.54c-2.519,-2.204 -6.3,-6.096 -8.386,-8.755c-2.086,-2.66 -4.44,-5.555 -5.283,-6.398c-1.459,-1.588 -1.459,-1.588 -0.999,-0.217c0.25,0.754 1.87,3.277 3.579,5.619c2.881,3.821 2.981,3.966 0.808,1.88c-3.393,-3.248 -7.001,-5.878 -7.107,-5.178c-0.039,0.254 3.763,4.41 8.496,9.228c4.684,4.745 12.643,13.111 17.655,18.491c5.003,5.445 15.413,16.069 23.082,23.545c7.719,7.548 13.712,13.663 13.356,13.609c-0.652,-0.099 -13.031,-11.347 -24.43,-22.252c-3.502,-3.329 -10.397,-9.907 -15.397,-14.57c-4.94,-4.653 -11.489,-11.113 -14.526,-14.307c-7.414,-7.958 -13.714,-14.054 -14.068,-13.717c-0.414,0.327 -0.206,0.554 11.743,13.039c4.773,4.954 10.876,11.151 13.584,13.709c2.708,2.558 11.359,10.769 19.206,18.271c7.848,7.503 16.558,15.722 19.394,18.235c2.778,2.503 5.05,4.735 5.011,4.99c-0.077,0.509 -12.952,-8.668 -25.492,-18.053c-10.132,-7.654 -18.387,-13.266 -27.522,-18.686c-4.617,-2.783 -11.097,-6.89 -14.388,-9.211c-7.036,-4.841 -8.879,-5.902 -8.4,-4.658c0.479,1.244 8.993,7.156 19.822,13.809c5.054,3.109 13.229,8.449 18.046,11.913c15.531,10.881 42.188,30.867 41.496,31.023c-1.254,0.265 -8.626,-4.367 -17.29,-10.887c-4.758,-3.455 -10.794,-7.69 -13.578,-9.348c-2.715,-1.714 -7.114,-4.333 -9.73,-5.901c-2.615,-1.568 -9.137,-6.202 -14.52,-10.337c-9.518,-7.3 -16.702,-11.969 -19.135,-12.338c-0.653,-0.099 -2.703,-0.996 -4.555,-1.992c-1.902,-1.07 -3.615,-1.785 -3.822,-1.621c-0.896,0.71 1.515,3.223 3.295,3.493c4.57,0.693 12.999,5.16 19.89,10.565c10.896,8.616 14.573,11.191 26.493,18.661c10.929,6.798 17.906,11.631 17.423,12.013c-0.473,0.319 -26.02,-13.772 -31.599,-17.417c-13.963,-9.211 -37.957,-23.132 -38.726,-22.468c-0.552,0.437 0.33,1.027 8.543,5.721c4.586,2.583 13.711,8.067 20.261,12.119c13.663,8.384 31.029,18.372 39.655,22.739c8.003,4.077 8.558,4.421 7.958,5.176c-1.358,1.747 -13.221,-3.697 -41.679,-19.011c-23.069,-12.414 -34.131,-17.931 -36.327,-18.264c-1.137,-0.108 -1.147,-0.044 -0.344,0.664c0.545,0.408 8.946,5.066 18.772,10.33c9.816,5.329 18.226,9.923 18.652,10.313c1.398,1.188 -1.234,0.529 -10.172,-2.584c-9.759,-3.302 -13.353,-4.823 -21.445,-9.109c-3.269,-1.667 -6.765,-3.434 -7.804,-3.787c-2.752,-1.068 -2.49,0.404 0.402,1.753c4.426,2.038 7.448,3.733 8.796,4.849c1.19,0.961 0.528,0.926 -5.537,-0.32c-5.006,-1.019 -6.974,-1.252 -7.051,-0.743c-0.067,0.445 0.577,0.998 1.439,1.324c6.019,2.345 9.97,4.31 18.588,9.132c5.36,3.09 9.7,5.701 9.671,5.891c-0.029,0.191 -0.939,0.184 -1.928,-0.097c-4.621,-1.156 -24.333,-6.488 -26.421,-7.13c-1.732,-0.588 -2.167,-0.524 -1.769,0.057c0.745,1.089 7.475,3.151 28.938,8.944c18.138,4.898 25.165,7.005 34.242,10.399c3.168,1.131 12.579,3.925 20.93,6.103c8.342,2.241 15.546,4.375 15.973,4.765c1.081,0.879 -2.302,0.366 -14.886,-2.323c-5.649,-1.182 -19.776,-4.105 -31.449,-6.396c-11.674,-2.291 -28.295,-5.983 -36.883,-8.197c-16.426,-4.182 -22.846,-5.481 -20.627,-4.104c1.724,1.043 30.884,8.524 41.736,10.625c5.006,1.019 9.399,2.076 9.835,2.402c1.19,0.962 -33.396,-3.567 -44.654,-5.795c-8.784,-1.723 -9.981,-1.839 -10.116,-0.949c-0.087,0.573 0.548,1.19 1.766,1.57c0.98,0.344 15.174,2.822 31.465,5.487c34.709,5.719 56.867,9.73 57.315,10.384c0.348,0.508 -10.293,-0.585 -31.388,-3.198c-29.551,-3.701 -56.803,-5.751 -57.034,-4.224c-0.107,0.7 9.585,1.649 20.657,1.896c9.738,0.241 57.367,6.032 59.606,7.282c1.406,0.734 0.003,0.782 -7.63,0.275c-15.03,-0.978 -68.738,-3.916 -71.238,-3.84c-2.857,0.023 -2.891,1.449 -0.033,1.817c1.127,0.171 5.696,0.474 10.155,0.694c4.459,0.221 10.135,0.822 12.549,1.318l4.422,0.866l-9.565,1.022c-10.297,1.042 -17.271,2.197 -18.297,2.952c-1.232,0.92 1.753,0.852 10.043,-0.169c22.756,-2.731 38.472,-3.081 49.294,-1.18l7.33,1.307l-12.78,0.6c-31.964,1.4 -53.27,2.985 -54.087,3.967c-0.679,0.874 0.665,0.817 21.202,-0.494c21.218,-1.403 39.246,-2.183 39.535,-1.684c0.099,0.146 -0.177,0.364 -0.671,0.419c-0.504,0.119 -3.704,0.805 -7.151,1.519c-9.71,1.977 -44.998,10.487 -47.762,11.499c-4.492,1.597 -2.03,1.775 3.905,0.267c21.214,-5.373 57.71,-13.44 58.107,-12.859c0.408,0.517 -1.883,1.211 -14.258,4.346c-6.508,1.681 -15.316,4.12 -19.523,5.434c-14.03,4.445 -28.967,9.664 -29.479,10.238c-1.062,1.4 1.891,0.742 10.43,-2.323c21.877,-7.746 53.626,-16.533 67.665,-18.634c14.908,-2.23 12.502,-0.773 -7.634,4.699c-6.972,1.937 -15.978,4.476 -19.996,5.753c-4.019,1.278 -10.131,3.15 -13.567,4.191c-10.891,3.359 -34.989,11.744 -35.057,12.189c-0.125,0.827 2.897,0.114 11.378,-2.569c4.592,-1.452 8.453,-2.493 8.562,-2.411c0.04,0.136 -3.424,1.758 -7.757,3.509c-10.886,4.532 -10.827,4.541 -10.991,5.622c-0.309,2.036 1.727,1.824 7.817,-0.702c12.041,-4.942 47.456,-16.687 71.135,-23.509c4.701,-1.369 12.027,-3.643 16.243,-5.021c6.713,-2.235 15.641,-4.656 15.879,-4.23c0.14,0.282 -13.676,9.315 -21.29,13.887c-4.33,2.533 -12.705,7.315 -18.654,10.513c-20.036,10.823 -52.762,30.46 -57.314,34.455c-4.109,3.477 0.745,1.09 12.629,-6.415c15.957,-9.945 31.956,-19.363 44.12,-25.913c7.33,-3.9 19.631,-10.95 26.791,-15.331c0.404,-0.264 0.78,-0.337 0.76,-0.21c-0.067,0.445 -20.841,14.931 -28.178,19.676c-3.304,2.167 -8.805,6.018 -12.216,8.495c-3.352,2.485 -9.288,6.401 -13.095,8.687c-8.285,4.991 -25.815,17.301 -26.424,18.51c-0.618,1.273 2.055,-0.339 11.531,-6.777c4.467,-3.032 11.004,-7.312 14.486,-9.452c3.491,-2.204 8.964,-5.864 12.168,-8.177c3.204,-2.312 9.918,-6.956 14.927,-10.361c13.312,-8.915 21.436,-14.842 32.771,-23.535c5.569,-4.297 10.281,-7.747 10.519,-7.711c0.831,0.126 -0.946,3.435 -7.098,13.175c-9.031,14.315 -23.574,40.158 -33.741,59.962c-4.898,9.475 -10.041,19.368 -11.464,21.95c-2.75,4.92 -3.786,8.147 -1.701,5.209c1.701,-2.41 6.826,-11.785 12.969,-23.869c14.533,-28.579 36.62,-67.335 38.163,-67.101c0.535,0.081 -2.729,26.008 -8.594,67.485c-3.89,27.654 -5.147,37.941 -4.7,38.595c0.448,0.653 1.231,-4.109 3.463,-20.431c1.597,-11.732 3.412,-23.301 4.075,-25.673c1.141,-4.318 1.19,-4.245 0.167,4.906c-0.534,5.125 -2.045,16.285 -3.288,24.882c-1.183,8.606 -2.094,16.212 -1.903,16.957c0.24,0.817 3.242,-18.576 7.346,-47.239c4.856,-33.626 7.173,-48.503 7.588,-48.44c0.415,0.063 0.357,2.853 -0.023,6.96c-0.342,3.853 -1.696,17.184 -2.924,29.688c-2.779,28.734 -5.49,59.821 -5.192,60.257c0.786,1.225 1.616,-4.246 3.159,-22.429c1.735,-19.846 3.974,-42.219 4.775,-47.499c0.752,-4.962 1.115,-0.547 0.715,8.894c-0.238,5.17 -0.404,13.475 -0.376,18.49c0.029,5.016 -0.012,12.494 -0.086,16.582c-0.209,10.186 0.085,22.661 0.496,21.552c0.205,-0.555 0.435,-10.477 0.491,-22.053c0.124,-11.63 0.341,-25.068 0.58,-29.848c0.18,-4.788 0.25,-12.457 0.163,-17.091c-0.155,-4.579 -0.19,-8.749 -0.113,-9.258c0.299,-1.972 1.253,-0.656 2.643,3.785c2.612,8.4 3.772,17.167 6.031,45.103c2.051,24.91 2.817,31.469 3.386,27.716c0.212,-1.4 -0.445,-10.675 -2.341,-33.805c-0.727,-9.222 -1.362,-17.843 -1.357,-19.079c-0.037,-2.153 -0.028,-2.217 0.679,-0.873c0.369,0.772 2.005,4.794 3.553,8.999c6.679,17.608 9.071,22.656 27.887,58.309c13.71,26.093 21.422,39.693 30.541,54.026c6.383,9.949 10.673,17.693 11.563,20.627c0.371,1.162 1.167,2.715 1.724,3.45c0.755,1.026 0.855,1.561 0.332,1.808c-1.105,0.483 -0.488,1.618 1.334,2.414c2.278,0.997 3.191,2.176 2.076,2.723c-0.661,0.356 -0.54,0.764 0.462,1.762c0.684,0.69 2.483,3.24 4.004,5.619c7.678,12.227 15.726,23.21 21.622,29.57c10.58,11.497 16.324,16.858 18.282,17.155c1.365,0.207 3.01,-1.431 3.271,-3.148c0.434,-2.863 -23.986,-37.999 -35.134,-50.558c-2.859,-3.167 -5.828,-6.806 -6.614,-8.031c-1.63,-2.46 -2.354,-2.895 -2.575,-1.432c-0.222,1.463 -1.124,1.001 -1.566,-0.888c-0.23,-0.881 -1.402,-2.361 -2.602,-3.258c-5.224,-3.982 -25.568,-35.571 -37.694,-58.496c-18.578,-35.226 -25.359,-48.554 -29.488,-58.161c-5.604,-13.085 -10.356,-25.389 -11.229,-28.841c-1.004,-4.187 -6.033,-48.292 -5.49,-48.665c0.147,-0.173 0.989,0.28 1.852,0.996c0.803,0.708 4.58,3.428 8.366,6.085c3.786,2.657 7.92,5.822 9.249,7.064c1.33,1.243 5.783,5.107 9.918,8.663c4.135,3.556 10.771,9.443 14.719,13.035c3.938,3.656 8.549,7.675 10.185,8.899c1.636,1.224 4.889,4.19 7.182,6.686Zm-1.146,-152.979c-0.305,0.41 -1.605,1.774 -2.826,3.021c-3.151,3.166 -6.8,8.014 -12.541,16.645c-2.683,4.084 -6.814,9.705 -9.196,12.598c-4.763,5.785 -8.648,10.988 -16.406,22.112c-2.88,4.183 -5.31,7.394 -5.409,7.249c-0.507,-0.663 5.513,-11.138 12.973,-22.697c7.705,-11.978 10.114,-15.452 17.196,-24.921c1.908,-2.574 4.15,-5.748 4.956,-7.058c1.101,-1.655 2.964,-3.13 6.416,-5.079c5.101,-2.806 5.742,-3.034 4.837,-1.87Zm-13.515,7.452c-0.038,0.255 -2.654,3.893 -5.832,8.032c-6.522,8.577 -22.208,32.75 -26.458,40.761c-3.063,5.783 -4.029,6.548 -1.794,1.42c0.823,-1.827 2.731,-7.2 4.364,-11.963c1.574,-4.773 4.382,-12.482 6.233,-17.082c1.851,-4.6 3.465,-9.236 3.619,-10.254c0.338,-2.227 1.708,-3.255 8.873,-6.464c3.059,-1.358 6.592,-3.035 7.854,-3.755c2.447,-1.321 3.267,-1.522 3.141,-0.695Zm-25.538,22.679c-1.86,4.664 -4.219,11.01 -5.176,14.118c-4.798,14.827 -13.7,34.692 -15.421,34.431c-0.712,-0.108 5.874,-39.132 7.832,-46.84c1.462,-5.635 2.928,-7.3 10.79,-11.9l5.799,-3.416l-0.207,2.572c-0.084,1.354 -1.756,6.372 -3.617,11.035Zm-93.072,-5.979c7.855,7.048 17.98,18.346 21.908,24.473l2.217,3.395l-2.152,-1.823c-5.206,-4.499 -29.69,-30.404 -29.555,-31.295c0.106,-0.699 3.615,1.785 7.582,5.25Zm105.552,41.387c-11.148,8.657 -20.887,16.031 -21.539,16.323c-0.71,0.283 1.515,-1.983 5.003,-4.968c3.439,-3.058 9.488,-8.519 13.448,-12.213c3.901,-3.704 8.463,-7.763 10.109,-9.01c2.878,-2.167 11.453,-6.268 12.69,-6.015c0.356,0.054 -8.554,7.163 -19.711,15.883Zm47.934,8.181c-0.057,0.381 -4.758,1.751 -19.354,5.525c-19.781,5.135 -34.143,8.163 -33.238,6.999c0.827,-1.046 12.344,-6.133 16.462,-7.265c2.35,-0.685 10.134,-1.978 17.249,-2.851c7.183,-0.928 14.247,-1.874 15.808,-2.158c1.561,-0.284 2.875,-0.541 2.993,-0.523c0.069,-0.054 0.109,0.082 0.08,0.273Zm5.211,5.671c-0.048,0.318 -1.134,0.674 -2.369,0.812c-1.295,0.129 -6.482,0.709 -11.61,1.298c-5.06,0.534 -10.05,1.014 -11.078,0.988c-3.035,-0.004 5.775,-2.052 13.837,-3.173c7.568,-1.065 11.394,-1.07 11.22,0.075Zm-2,4.382c1.094,1.598 0.328,3.044 -1.737,3.446c-2.993,0.523 -23.645,2.597 -32.234,3.182c-8.163,0.584 -19.679,0.465 -20.117,-0.253c-0.746,-1.089 1.458,-1.21 11.02,-0.606c0.247,-0.028 0.463,-0.255 0.502,-0.51c0.039,-0.254 -0.951,-0.534 -2.148,-0.651c-1.631,-0.052 -1.968,-0.233 -1.316,-0.525c0.789,-0.401 34.798,-4.875 39.966,-5.328c2.461,-0.212 5.468,0.374 6.064,1.245Zm-184.926,-26.807c2.257,0.733 6.613,2.435 9.751,3.757c5.466,2.39 23.986,11.577 26.81,13.371l1.387,0.862l-1.483,-0.225c-1.909,-0.225 -17.508,-5.454 -22.824,-7.627c-6.456,-2.671 -11.576,-5.334 -16.61,-8.571c-7.363,-4.696 -7.234,-4.741 2.969,-1.567Zm195.274,31.435c0.096,-0.636 5.522,4.417 5.019,4.536c-0.82,0.201 -5.085,-3.7 -5.019,-4.536Zm-168.149,-23.742c4.029,1.457 8.761,3.476 10.545,4.527c1.852,0.997 9.041,4.43 16.023,7.637c13.061,5.95 15.805,7.472 12.828,7.086c-2.849,-0.432 -14.251,-4.113 -18.805,-6.106c-4.031,-1.847 -30.157,-14.92 -33.446,-16.851c-2.289,-1.323 4.807,0.729 12.855,3.707Zm168.595,26.803l2.046,2.523l-1.968,-0.233c-2.315,-0.351 -5.238,-2.291 -6.511,-4.306c-0.835,-1.298 -0.766,-1.353 1.786,-0.966c2.136,0.324 3.018,0.913 4.647,2.982Zm-7.319,-0.979c1.312,1.76 1.076,2.115 -1.672,2.219c-1.828,0.048 -2.808,-0.296 -3.88,-1.239c-1.319,-1.306 -1.369,-1.379 -0.175,-2.044c1.726,-0.975 4.624,-0.47 5.727,1.064Zm9.917,5.864c-0.25,1.654 -1.84,2.129 -3.041,0.84c-1.687,-1.687 -1.274,-2.406 1.099,-2.046c1.365,0.207 2.029,0.633 1.942,1.206Zm-4.75,1.297c1.985,2.123 1.971,3.423 0.023,3.453c-1.275,0.001 -7.315,-5.405 -7.171,-6.359c0.184,-1.209 5.332,0.873 7.148,2.906Zm-10.001,0.696c15.236,14.025 -6.866,1.237 -8.495,1.575c-0.376,0.073 4.116,3.683 9.964,7.954c5.848,4.271 10.572,14.359 4.351,8.144c-6.013,-5.988 -16.545,-15.004 -17.097,-14.567c-0.336,0.209 1.401,1.969 13.018,13.037c3.343,3.175 6.39,6.306 6.718,6.941c0.528,0.926 0.34,0.963 -1.629,0.339c-1.218,-0.38 -6.217,-2.245 -11.088,-4.155c-16.839,-6.653 -28.041,-9.654 -54.808,-14.494c-12.642,-2.307 -21.705,-4.202 -22.883,-4.837c-2.645,-1.377 -1.421,-1.842 4.354,-1.487c7.702,0.452 15.055,0.005 27.652,-1.794c16.184,-2.231 21.649,-2.639 30.617,-2.125c4.143,0.303 8.483,0.506 9.63,0.549c1.137,0.108 2.709,0.151 3.421,0.259c0.722,0.044 3.567,2.103 6.275,4.661Zm3.826,-0.006c4.91,4.454 6.369,6.042 5.955,6.37c-0.414,0.328 -9.905,-7.945 -10.612,-9.288c-1.095,-1.989 0.342,-1.055 4.657,2.918Zm11.379,0.229c0.844,-1.564 4.336,7.036 0.761,2.589c-0.815,-1.035 -1.095,-1.989 -0.761,-2.589Zm-1.817,3.174c0.296,0.045 2.154,7.811 -0.991,2.127c-0.567,-1.062 -0.018,-2.28 0.991,-2.127Zm-68.693,-7.814c-6.856,1.173 -14.801,1.92 -15.158,1.476c-0.339,-0.572 8.43,-3.147 11.306,-3.297c1.413,-0.111 4.241,0.058 6.199,0.355l3.571,0.476l-5.918,0.99Zm-52.274,2.42c-1.844,1.347 -20.258,1.874 -30.79,0.863c-9.216,-0.877 -5.214,-1.247 11.285,-1.153c7.701,0.062 14.937,-0.012 16.162,-0.087c3.083,-0.313 4.102,-0.224 3.343,0.377Zm80.216,15.093c7.283,2.016 15.904,4.82 19.092,6.215c3.139,1.322 8.989,3.575 12.978,4.896c8.552,2.859 -7.878,10.715 -17.907,11.992c-2.045,0.276 -4.674,0.398 -5.801,0.227c-2.374,-0.36 -52.149,-27.237 -57.402,-31.027l-3.39,-2.466l19.546,3.224c15.806,2.657 22.098,4.002 32.884,6.939Zm-21.603,9.545c5.319,2.954 12.6,6.987 16.146,8.826c3.536,1.903 13.928,7.839 23.063,13.259c9.134,5.42 15.864,7.482 4.797,0.793c-13.028,-7.768 -13.118,-7.977 -3.816,-8.063c3.163,-0.041 8.243,-0.312 11.257,-0.571c3.133,-0.24 -9.902,19.259 -14.917,15.895c-13.299,-8.785 -29.564,-20.427 -34.285,-24.527c-2.31,-1.978 -6.197,-5.17 -8.636,-7.102c-4.284,-3.383 -5.068,-4.218 -3.881,-4.038c0.297,0.045 4.962,2.51 10.272,5.528Zm-86.669,-11.777c-7.266,2.673 -46.474,15.014 -46.722,14.651c-0.597,-0.871 17.733,-8.049 29.109,-11.4c7.297,-2.082 19.514,-4.98 20.583,-4.818c0.474,0.072 -0.848,0.783 -2.97,1.567Zm118.182,40.57c7.919,5.431 1.699,7.611 -2.101,3.846c-2.094,-2.205 -7.023,-6.532 -10.851,-9.715c-6.048,-4.952 -12.566,-11.212 -12.46,-11.912c0.019,-0.127 2.933,1.877 6.482,4.497c3.499,2.548 12.062,8.533 18.93,13.284Z" style="fill:#ffc107;fill-rule:nonzero;"/><path d="M2352.96,245.845c-1.641,2.65 -2.982,19.5 -3.321,41.912c-0.151,7.401 -0.334,13.54 -0.568,13.631c-0.656,0.469 -1.032,-9.78 -0.939,-28.579c0.095,-16.848 -0.314,-27.857 -1.123,-27.348c-0.808,0.509 -1.071,39.604 -0.318,49.784c0.571,8.453 1.167,27.543 1.24,42.277c0.245,24.889 -0.91,19.369 -4.95,-24.773c-1.823,-19.21 -3.564,-36.521 -3.934,-38.464c-0.298,-1.932 -0.872,-9.379 -1.206,-16.475c-0.641,-13.875 -1.292,-17.37 -2.199,-11.779c-0.9,6.031 0.162,20.032 3.636,46.85c1.074,8.025 2.582,30.334 2.097,30.639c-0.575,0.418 -4.135,-16.975 -6.618,-32.257c-1.227,-7.985 -3.09,-18.582 -4.103,-23.577c-1.013,-4.996 -2.45,-12.069 -3.145,-15.759c-0.776,-3.639 -1.572,-6.652 -1.93,-6.705c-0.932,-0.139 -0.582,2.43 2.108,17.302c4.039,21.554 4.714,25.87 4.326,26.505c-0.199,0.348 -2.284,-8.269 -4.558,-19.052c-5.583,-25.937 -5.105,-24.23 -6.931,-24.754c-0.842,-0.251 -1.586,-0.174 -1.632,0.134c-0.129,0.862 3.574,23.687 4.835,29.475c0.599,2.858 2.946,13.652 5.275,24.066c2.268,10.342 4.163,19.245 4.252,19.636c0.15,0.463 0.024,0.821 -0.12,0.8c-1.146,-0.171 -8.358,-21.569 -11.079,-32.797c-0.857,-3.588 -2.929,-10.818 -4.56,-16.095c-1.631,-5.277 -3.146,-10.347 -3.214,-11.364c-0.149,-0.966 -0.54,-1.78 -0.899,-1.833c-0.286,-0.043 -1.043,-1.351 -1.54,-2.935c-1.252,-3.396 -2.669,-5.684 -3.387,-5.287c-0.252,0.214 0.943,4.482 2.682,9.523c1.73,5.103 4.752,14.802 6.655,21.692c1.984,6.84 4.047,14.131 4.631,16.106c0.585,1.975 2.795,8.282 4.953,13.952c5.452,14.529 6.428,17.317 5.783,17.221c-1.29,-0.192 -15.882,-35.967 -23.132,-56.616c-5.44,-15.597 -7.421,-20.486 -8.45,-20.954c-1.245,-0.5 -1.294,0.814 -0.064,2.885c0.579,1.03 1.601,3.51 2.185,5.485c0.657,1.986 2.547,7.49 4.269,12.151c1.713,4.723 2.954,8.683 2.793,8.785c-0.396,0.192 -6.437,-12.349 -10.875,-22.385c-1.485,-3.305 -3.106,-6.189 -3.58,-6.449c-1.719,-0.759 -0.305,2.535 15.564,37.115c4.937,10.615 12.172,27.927 11.84,28.192c-0.162,0.102 -4.728,-6.619 -10.085,-14.906c-18.829,-28.982 -28.636,-43.783 -29.905,-45.105c-3.357,-3.521 -0.569,1.362 10.485,18.615c6.606,10.234 16.126,24.992 21.118,32.784c13.203,20.53 23.779,38.529 22.89,39.088c-0.405,0.254 -13.925,-19.127 -27.156,-38.97c-19.812,-29.758 -33.299,-48.38 -35.306,-48.679c-1.147,-0.171 0.28,2.055 7.88,12.501c7.894,10.929 25.141,35.775 27.976,40.35c1.933,3.246 -19.947,-21.976 -32.638,-37.585c-4.837,-5.881 -8.971,-10.587 -9.285,-10.445c-1.06,0.723 5.863,9.809 24,31.641c10.505,12.577 19.689,23.699 20.359,24.617l1.222,1.63l-1.333,-0.891c-0.733,-0.487 -7.574,-7.673 -15.19,-16.045c-12.795,-13.926 -30.049,-31.851 -33.383,-34.55c-0.715,-0.61 -1.457,-1.036 -1.691,-0.945c-0.494,0.367 2.88,4.268 13.275,15.13c9.324,9.696 31.956,35.282 29.409,33.203c-0.724,-0.549 -3.494,-3.101 -6.129,-5.57c-6.093,-5.817 -13.136,-11.649 -26.704,-22.355c-12.201,-9.559 -17.029,-13.047 -17.595,-12.691c-0.557,0.294 5.306,5.195 18.312,15.252c11.495,8.887 23.631,19.379 37.701,32.615c10.73,10.094 22.751,22.331 22.194,22.626c-0.17,0.163 -8.303,-6.713 -18.016,-15.271c-9.713,-8.558 -22.054,-19.145 -27.488,-23.479c-5.354,-4.384 -15.462,-12.75 -22.361,-18.561c-12.815,-10.846 -14.46,-12.098 -14.625,-10.99c-0.129,0.862 10.764,10.351 31.123,27.104c15.793,12.989 39.027,33.064 43.162,37.267l1.902,1.983l-2.316,-1.667c-1.251,-0.942 -6.132,-4.564 -10.888,-8.042c-18.614,-13.723 -68.877,-47.583 -70.366,-47.427c-1.273,0.187 1.436,2.164 18.623,13.662c7.86,5.262 18.045,12.129 22.623,15.329c4.578,3.199 11.615,8.087 15.603,10.821c8.369,5.778 23.147,16.728 25.077,18.526c2.242,2.159 -15.197,-9.125 -38.008,-24.67c-21.88,-14.903 -43.702,-28.728 -45.709,-29.028c-2.436,-0.363 0.46,1.831 10.755,7.959c6.056,3.609 12.28,7.557 13.791,8.726c1.591,1.118 8.7,6.017 15.827,10.792c7.127,4.775 15.72,10.524 18.975,12.771c3.326,2.258 8.584,5.81 11.848,7.996c20.014,13.178 19.6,13.493 -1.402,1.049c-7.799,-4.686 -17.844,-10.526 -22.237,-13.006c-13.704,-7.832 -37.158,-23.977 -45.503,-31.387c-3.941,-3.545 -4.455,-2.552 -0.713,1.34c5.697,6.009 22.693,18.297 37.434,27.039c14.812,8.752 31.529,18.984 31.286,19.137c-0.737,0.519 -34.502,-17.226 -44.224,-23.269c-8.121,-4.986 -16.641,-11.228 -22.779,-16.736c-2.779,-2.491 -5.326,-4.57 -5.613,-4.612c-1.003,-0.15 2.533,3.649 7.251,7.876c10.562,9.252 24.049,17.555 50.408,30.924c18.798,9.536 23.146,11.82 23.082,12.251c-0.101,0.677 -5.005,1.141 -7.514,0.767c-4.873,-0.727 -19.094,-7.063 -30.508,-13.548c-6.691,-3.766 -24.415,-15.595 -30.654,-20.427c-2.897,-2.194 -7.239,-5.987 -9.607,-8.291c-4.528,-4.513 -6.112,-5.19 -4.063,-1.738c5.535,9.068 44.282,34.666 64.824,42.826c2.489,1 4.753,2.03 5.003,2.319c0.321,0.3 -1.035,1.041 -2.964,1.697c-4.155,1.331 -11.509,4.953 -18.263,8.979c-2.659,1.617 -6.277,3.279 -8.035,3.772c-3.661,0.964 -28.121,3.356 -37.471,3.661c-5.889,0.191 -7.944,0.702 -6.944,1.858c0.25,0.289 9.771,-0.178 21.184,-1.056c11.342,-0.888 20.8,-1.428 20.996,-1.273c0.429,0.568 -4.615,4.912 -8.729,7.444c-3.396,2.136 -6.007,2.942 -16.448,5.16c-11.347,2.397 -15.134,3.72 -12.124,4.169c0.573,0.086 5.309,-0.718 10.386,-1.849c5.149,-1.119 10.055,-2.086 11.024,-2.193l1.712,-0.185l-1.89,2.36c-1.071,1.288 -1.838,2.495 -1.641,2.65c0.125,0.144 1.751,-0.935 3.513,-2.433c2.589,-2.131 4.96,-3.288 10.944,-5.1c14.276,-4.352 66.963,-17.194 69.184,-16.863c0.215,0.032 -4.415,4.061 -10.276,8.975c-11.399,9.625 -35.214,32.247 -47.566,45.317c-11.561,12.18 -33.36,40.451 -42.807,55.653c-16.758,26.883 -30.698,48.147 -34.263,52.397c-4.716,5.588 -14.114,14.568 -14.947,14.255c-1.182,-0.428 -2.234,0.736 -2.583,3.075c-0.349,2.339 -1.543,2.979 -2.317,1.291c-0.605,-1.349 -0.785,-1.124 -2.249,2.307c-0.796,1.894 -14.424,10.747 -16.144,10.49c-0.502,-0.075 -3.906,-8.196 -7.947,-18.928c-12.564,-33.648 -21.641,-52.367 -51.978,-106.848c-4.507,-8.097 -8.114,-14.864 -7.943,-15.027c0.234,-0.091 1.976,1.49 3.931,3.606c1.965,2.055 3.779,3.647 4.012,3.556c0.495,-0.367 -2.558,-3.968 -8.105,-9.514c-4.207,-4.214 -8.158,-9.648 -7.35,-10.157c0.171,-0.163 2.452,1.247 4.964,3.069c4.819,3.55 11.466,7.121 11.585,6.321c0.037,-0.247 -2.279,-1.913 -5.096,-3.655c-5.17,-3.162 -14.155,-9.724 -14.072,-10.278c0.027,-0.185 1.755,0.514 3.947,1.533c2.13,0.946 4.771,1.907 5.846,2.067c1.147,0.171 4.405,1.412 7.358,2.733c5.486,2.517 16.133,5.301 15.519,4.014c-0.231,-0.412 -2.245,-1.153 -4.583,-1.691c-5.086,-1.262 -13.564,-4.351 -12.917,-4.757c0.242,-0.153 3.953,0.023 8.218,0.407c6.863,0.646 12.529,0.485 11.851,-0.372c-0.125,-0.144 -3.396,-0.317 -7.116,-0.432c-5.915,-0.127 -7.922,-0.426 -14.477,-2.159c-7.898,-2.059 -12.213,-3.583 -13.858,-4.835c-0.715,-0.61 -0.463,-0.824 1.268,-1.132c3.462,-0.616 13.073,-1.196 14.864,-0.929c0.932,0.139 6.491,-0.29 12.382,-0.985c5.882,-0.633 19.727,-2.091 30.737,-3.217c24.479,-2.516 47.93,-6.002 58.077,-8.704c7.249,-1.939 3.826,-2.072 -6.264,-0.242c-14.978,2.674 -38.259,5.997 -50.229,7.168c-5.792,0.521 -14.283,1.456 -18.901,1.963c-4.627,0.568 -8.545,0.802 -8.733,0.585c-0.196,-0.155 0.361,-0.449 1.105,-0.527c5.551,-0.871 34.344,-6.769 38.767,-7.934c2.907,-0.825 10.424,-2.598 16.56,-3.948c15.007,-3.362 26.679,-6.465 25.722,-6.923c-0.752,-0.364 -20.818,4.005 -44.366,9.616c-12.918,3.107 -34.355,7.334 -48.472,9.633c-10.51,1.704 -23.601,3.023 -23.5,2.346c0.181,-0.728 17.845,-7.657 27.636,-10.915c14.412,-4.772 46.793,-14.099 58.491,-16.884c6.988,-1.664 12.243,-2.516 15.542,-2.527c5.781,0.044 7.244,-0.43 4.855,-1.604c-3.481,-1.715 -13.983,-0.072 -33.604,5.244c-6.944,1.858 -12.731,3.323 -12.856,3.179c-0.125,-0.145 4.462,-1.914 10.116,-3.965c13.857,-4.981 20.108,-6.124 43.751,-7.946c3.335,-0.258 3.778,-1.262 0.696,-1.721c-3.799,-0.567 -16.412,0.006 -22.717,1.016c-7.282,1.179 -11.238,2.162 -16.848,4.408c-2.334,0.911 -6.893,2.496 -10.051,3.535c-3.159,1.039 -7.233,2.318 -9.001,2.873c-1.848,0.605 -3.293,0.956 -3.265,0.771c0.101,-0.677 19.715,-8.888 26.642,-11.127c10.553,-3.459 20.959,-5.934 26.509,-6.302c7.396,-0.47 7.828,-0.909 1.745,-1.879l-5.375,-0.801l3.32,-1.141c1.849,-0.605 3.313,-1.582 3.405,-2.198c0.083,-0.554 0.561,-1.3 1.127,-1.656c1.859,-1.17 -0.67,-0.918 -6.932,0.791c-3.427,0.873 -6.297,1.451 -6.422,1.307c-0.197,-0.155 1.393,-0.988 3.484,-1.746c2.091,-0.757 4.533,-1.903 5.351,-2.473l1.563,-1.151l-2.673,0.733c-4.28,1.187 -18.541,6.421 -23.254,8.55c-9.822,4.449 -50.326,19.611 -50.755,19.044c-0.24,-0.35 12.324,-7.474 24.716,-13.931c11.611,-6.133 23.103,-11.466 35.185,-16.333c9.362,-3.826 13.483,-5.917 12.05,-6.13c-0.86,-0.129 -24.762,9.33 -33.408,13.263c-7.855,3.548 -21.111,10.882 -38.868,21.384c-6.431,3.823 -11.946,6.901 -12.232,6.858c-0.789,-0.117 7.335,-5.953 18.053,-12.974c15.829,-10.348 36.424,-22.189 45.518,-26.18c4.632,-2.078 8.277,-3.925 8.162,-4.131c-0.438,-0.506 -6.388,1.564 -11.748,4.099c-8.897,4.147 -9.336,4.145 -2.85,-0.047c3.567,-2.3 9.79,-5.713 13.803,-7.568c6.222,-2.91 8.855,-4.845 6.992,-5.123c-1.72,-0.257 -17.567,7.258 -42.404,20.038c-6.582,3.36 -12.616,6.487 -13.478,6.861c-1.49,0.659 -1.49,0.659 -0.241,-0.35c10.769,-8.838 37.245,-26.219 45.729,-30.05c4.785,-2.118 6.295,-3.402 4.36,-3.691c-1.433,-0.214 -10.61,4.332 -22.546,11.171c-17.316,10.001 -20.109,11.535 -20.036,11.043c0.138,-0.923 20.96,-13.799 28.242,-17.432c8.224,-4.058 10.821,-5.747 10.258,-6.397c-0.5,-0.578 -6.595,1.973 -15.251,6.471c-4.122,2.09 -7.587,3.713 -7.712,3.568c-0.366,-0.495 7.759,-6.833 13.428,-10.455c5.345,-3.418 6.038,-4.133 4.389,-4.379c-2.15,-0.32 -10.391,5.812 -35.668,26.454c-17.34,14.087 -21.171,17.669 -30.466,27.922c-7.45,8.201 -8.304,9.017 -8.029,7.171c0.22,-1.477 5.866,-11.331 9.325,-16.352c5.406,-7.751 24.113,-28.555 39.593,-43.926c5.325,-5.246 10.165,-10.187 10.795,-10.974c2.853,-3.413 -1.794,0.236 -8.97,7.093c-8.949,8.418 -17.459,17.341 -29.185,30.63c-9.593,10.775 -10.618,11.755 -9.424,8.661c6.187,-15.939 11.151,-23.189 32.608,-48.177c3.446,-3.953 6.076,-7.336 5.879,-7.491c-0.741,-0.928 -7.767,6.392 -17.543,18.398c-2.791,3.485 -5.248,6.202 -5.444,6.047c-0.116,-0.206 3.318,-5.546 7.714,-11.937c8.452,-12.456 9.921,-14.942 8.475,-14.088c-1.859,1.17 -15.696,20.75 -18.98,27.055c-1.94,3.675 -5.494,9.814 -7.963,13.599c-2.46,3.722 -9.287,15.602 -15.142,26.369c-5.846,10.705 -11.023,19.874 -11.455,20.313c-1.043,1.103 1.554,-10.905 4.09,-18.58c6.198,-18.958 19.778,-44.679 33.585,-63.572c5.133,-6.91 5.918,-8.24 5.273,-8.337c-0.287,-0.042 -3.247,3.102 -6.541,7.015c-6.455,7.909 -6.543,7.519 -0.269,-2.619c4.454,-7.264 5.466,-9.63 3.29,-7.815c-4.683,3.895 -28.225,45.811 -33.976,60.305c-1.538,3.923 -2.993,7.292 -3.226,7.383c-1.545,1.028 4.642,-27.683 10.695,-49.116c4.458,-16.135 6.427,-25.405 4.895,-22.991c-0.46,0.624 -1.22,2.776 -1.81,4.764c-0.518,1.999 -3.585,12.741 -6.708,23.852c-5.69,19.977 -5.844,20.521 -9.516,45.14c-2.047,13.726 -3.686,26.191 -3.558,27.783c0.301,6.337 -1.076,0.343 -2.401,-10.425c-1.558,-13.131 -3.456,-26.438 -4.389,-31.485c-1.03,-5.375 2.614,-24.4 8.355,-43.74c2.414,-8.323 4.807,-16.019 5.206,-17.218c0.76,-2.152 -0.013,-3.84 -1.147,-2.625c-1.035,1.041 -10.464,34.303 -12.405,43.388c-1.021,4.881 -2.149,9.495 -2.564,10.314l-0.741,1.525l-0.54,-1.779c-0.647,-2.047 -14.771,-30.642 -20.604,-41.642c-4.505,-8.6 -6.751,-12.206 -7.245,-11.84c-0.243,0.153 3.174,7.206 7.464,15.774c8.787,17.228 14.571,29.039 18.191,37.192l2.419,5.394l-1.682,14.22c-1.725,14.025 -1.69,14.282 -0.24,19.784c1.247,4.905 1.254,5.346 0.122,3.604c-1.194,-1.814 -10.902,-22.2 -15.258,-32.287c-2.57,-5.858 -3.684,-7.722 -7.825,-12.87c-2.784,-3.436 -3.79,-5.536 -5.17,-10.524c-2.151,-7.682 -4.678,-20.705 -5.971,-30.21c-0.96,-7.316 -1.768,-9.764 -3.159,-9.28c-0.466,0.182 -0.429,2.39 0.141,5.936c1.966,11.87 5.094,27.248 6.662,32.452c1.807,6.058 1.546,6.334 -3.015,3.514c-1.476,-0.912 -4.491,-2.305 -6.711,-3.14c-6.679,-2.38 -8.081,-3.785 -11.202,-10.856c-2.241,-5.116 -3.131,-9.465 -3.222,-16.714c-0.056,-6.992 -1.326,-7.811 -1.672,-1.067c-0.147,3.438 -0.457,5.028 -0.959,4.953c-0.43,-0.064 -0.696,-0.733 -0.577,-1.533c0.211,-1.416 -0.787,-3.075 -1.862,-3.235c-1.147,-0.171 -0.814,2.018 1.183,7.79c1.889,5.504 2.307,9.089 1.089,8.908c-0.359,-0.054 -2.586,-3.784 -4.991,-8.295c-3.9,-7.251 -5.738,-9.664 -5.995,-7.941c-0.046,0.308 1.342,3.283 3.114,6.631c8.922,16.808 9.464,18.084 7.759,18.711c-1.31,0.434 -4.343,-3.794 -9.91,-13.621c-2.842,-5.017 -5.454,-9.119 -5.812,-9.172c-1.433,-0.214 -0.775,1.268 4.961,11.436c2.432,4.326 4.899,8.91 5.378,10.114l0.925,2.151l-2.098,0.316c-4.126,0.643 -5.778,1.404 -8.618,3.748c-3.344,2.773 -4.914,2.98 -14.231,1.59c-5.671,-0.783 -8.661,-1.858 -8.477,-3.089c0.083,-0.554 2.109,-0.881 10.994,-1.506c3.407,-0.247 6.187,-0.713 6.233,-1.021c0.083,-0.554 0.544,-4.134 -4.879,-4.125c-1.614,0.011 3.979,-5.069 3.355,-5.792c-0.447,-0.444 -41.017,86.876 -37.718,89.319c8.788,6.407 8.886,6.736 1.36,5.614c-7.095,-1.059 -7.885,-0.673 -6.473,3.124c1.323,3.406 2.827,4.133 10.872,5.208c3.808,0.505 6.933,1.159 6.888,1.467c-0.101,0.677 -4.565,0.641 -9.654,-0.118c-4.228,-0.631 -6.292,-0.058 -3.283,0.894c0.976,0.335 4.936,0.799 8.861,1.007c3.853,0.197 9.48,0.785 12.419,1.223c7.31,1.091 19.295,3.256 19.053,3.408c-0.566,0.356 -20.725,0.433 -30.126,0.1c-10.567,-0.38 -12.118,-0.297 -11.314,0.704c1.071,1.166 31.151,1.374 46.778,0.244c11.252,-0.776 16.884,-1.697 32.94,-5.217c7.275,-1.62 14.28,-2.904 15.454,-2.917c2.869,-0.076 -11.611,3.679 -27.811,7.177c-24.677,5.317 -29.96,6.354 -34.541,6.614c-5.182,0.36 -26.091,4.98 -26.597,5.912c-0.595,1.043 1.333,0.89 9.819,-0.99c4.619,-1.01 12.44,-2.36 17.372,-3.009c4.932,-0.648 15.399,-2.548 23.256,-4.144c7.929,-1.586 14.486,-2.81 14.539,-2.676c0.125,0.144 -2.594,1.186 -6.13,2.294c-3.544,1.17 -10.742,3.746 -16.109,5.84c-5.359,2.032 -10.528,3.778 -11.568,3.874c-1.049,0.158 -5.812,1.147 -10.593,2.258c-4.853,1.101 -10.037,1.964 -11.65,1.975c-4.607,-0.058 -5.379,0.204 -3.813,1.004c0.742,0.426 2.497,0.939 3.859,1.142l2.499,0.436l-2.477,0.889c-3.706,1.272 -3.271,2.28 0.471,1.265c4.351,-1.175 31.692,-7.164 32.265,-7.079c0.287,0.043 -1.041,0.6 -2.962,1.194c-12.787,4.196 -17.965,6.003 -22.831,8.172c-5.647,2.492 -6.878,3.378 -5.086,3.646c2.293,0.342 32.671,-10.291 49.395,-17.297c4.138,-1.711 7.791,-3.117 8.077,-3.074c1.075,0.16 -5.113,3.83 -10.113,5.916c-2.819,1.215 -7.999,3.526 -11.536,5.137c-8.098,3.7 -22.366,8.493 -28.708,9.75c-5.659,1.106 -7.205,2.134 -5.642,3.94c0.937,1.083 1.304,1.075 5.549,-0.368c2.468,-0.827 6.99,-2.166 10.04,-2.97c8.775,-2.34 15.219,-4.777 25.777,-9.746c9.373,-4.39 21.034,-9.383 23.465,-9.964c3.051,-0.804 -18.806,10.659 -30.037,15.716c-4.166,1.896 -11.391,4.656 -16.093,6.22c-13.416,4.48 -14.269,4.793 -14.342,5.285c-0.129,0.862 1.36,0.707 4.313,-0.426c3.429,-1.376 5.481,-1.385 3.728,0.053c-1.069,0.784 -0.997,0.795 0.68,0.353c0.996,-0.292 2.066,-1.076 2.301,-1.67c0.307,-0.584 1.106,-1.031 1.751,-0.935c2.508,0.374 18.008,-5.304 34.481,-12.6c7.146,-3.213 10.682,-4.321 6.918,-2.177c-11.118,6.27 -45.454,23.296 -48.342,23.997c-2.198,0.491 -2.398,1.342 -0.248,1.662c1.792,0.268 7.302,-1.805 13.831,-5.298c2.46,-1.269 10.327,-5.381 17.484,-9.158c7.147,-3.716 18.814,-10.218 25.882,-14.386c7.069,-4.168 12.269,-7.105 11.595,-6.513c-6.968,5.944 -35.264,26.199 -51.821,37.006c-3.899,2.564 -7.198,5.029 -7.253,5.398c-0.174,1.17 2.321,0.158 5.844,-2.337c1.725,-1.253 10.71,-7.463 20.09,-13.866c16.497,-11.381 27.11,-19.173 47.224,-34.671c5.465,-4.219 9.966,-7.385 10.073,-7.118c0.292,0.988 -4.261,5.971 -9.556,10.53c-2.94,2.518 -10.997,9.874 -17.913,16.455c-6.978,6.51 -15.287,14.079 -18.55,16.801c-6.716,5.731 -24.497,17.865 -27.736,18.954c-2.549,0.879 -3.524,2.998 -1.147,2.283c2.521,-0.693 16.481,-9.308 22.816,-13.962c3.37,-2.455 13.413,-11.339 22.271,-19.644c20.099,-18.835 30.431,-28.179 30.753,-27.879c0.312,0.361 -5.422,7.371 -10.218,12.507c-2.186,2.379 -10.476,12.279 -18.299,21.997c-7.895,9.708 -16.266,19.659 -18.605,22.078c-5.865,5.921 -13.85,15.74 -12.189,14.919c1.59,-0.833 15.489,-15.433 23.112,-24.3c3.015,-3.515 8.966,-10.995 13.244,-16.586c7.663,-10.119 11.082,-13.888 7.378,-8.211c-6.57,10.156 -30.049,39.372 -37.505,46.628c-3.876,3.889 -4.345,4.574 -3.198,4.745c0.931,0.139 6.912,-5.575 11.619,-11.102c2.124,-2.452 3.861,-4.269 3.815,-3.961c-0.037,0.246 -2.569,3.958 -5.56,8.294c-6.224,8.824 -7.108,10.328 -6.176,10.467c0.358,0.053 2.851,-2.91 5.526,-6.601c2.666,-3.629 9.978,-13.36 16.264,-21.609c13.508,-17.867 23.462,-32.049 29.493,-42.034c8.565,-14.201 9.229,-14.228 2.672,-0.231c-7.659,16.475 -17.947,33.879 -28.592,48.272c-3.513,4.887 -6.721,9.694 -7.092,10.708l-0.643,1.855l1.54,-1.973c12.929,-16.444 17.803,-23.581 27.516,-40.568c6.124,-10.601 7.12,-10.892 3.159,-1.039c-3.02,7.478 -7.28,15.902 -13.53,26.862c-4.852,8.462 -5.991,11.187 -4.6,10.702c1.238,-0.445 16.665,-28.722 19.134,-34.96c1.221,-3.278 3.964,-10.86 5.966,-16.916c3.678,-10.903 5.636,-14.7 3.285,-6.305c-0.99,3.69 -9.346,29.75 -12.851,39.986c-0.679,2.101 -0.672,2.543 0.118,2.157c1.366,-0.803 2.352,-3.487 8.34,-21.532c2.926,-8.813 5.579,-16.282 5.768,-16.568c0.27,-0.338 -0.005,1.509 -0.597,4c-0.519,2.502 -1.933,9.527 -3.057,15.588c-2.843,15.621 -0.901,11.443 3.558,-7.648l3.585,-15.195l0.785,3.578c0.98,4.235 4.289,13.978 4.694,13.724c0.161,-0.102 -0.753,-5.272 -2.021,-11.501c-1.341,-6.24 -2.218,-11.656 -2.073,-12.138c0.217,-0.471 2.126,1.953 4.328,5.364c5.171,8.07 8.115,11.907 8.681,11.551c0.314,-0.142 -1.629,-3.326 -4.143,-7.099c-4.95,-7.093 -8.306,-13.571 -7.088,-13.389c2.867,0.428 35.921,59.782 53.247,95.398c9.468,19.533 22.956,55.835 22.9,61.615c-0.11,3.192 -3.481,8.604 -13.864,22.218c-10.742,14.065 -12.017,17.209 -6.844,16.911c2.734,-0.158 9.992,-4.613 14.731,-8.876c7.876,-7.131 10.465,-9.261 10.956,-8.622c0.812,0.939 2.514,16.545 2.9,26.732c0.538,12.601 0.258,20.865 -1.11,30.036c-1.294,8.678 -2.128,11.322 -3.633,11.098c-0.86,-0.129 -1.033,0.538 -1.078,3.299c0.024,3.276 -0.075,3.45 -1.508,3.236c-1.434,-0.214 -1.515,-0.163 -0.823,2.079c0.593,1.913 0.601,2.355 -0.243,2.607c-1.076,0.342 -1.965,3.356 -4.845,16.768c-2.231,10.049 -3.279,37.703 -1.542,40.793c3.741,6.85 8.013,-5.097 14.365,-39.824c2.103,-11.641 3.948,-21.558 4.021,-22.051c0.074,-0.492 -0.009,-2.392 -0.12,-4.107c-0.447,-5.352 -0.563,-10.466 -0.414,-17.365c0.197,-10.163 -0.775,-26.73 -2.433,-42.14l-1.501,-14.003l5.6,-7.093c3.142,-3.872 7.555,-9.884 9.826,-13.32c2.27,-3.436 5.53,-7.606 7.319,-9.29c2.141,-2.071 2.96,-3.145 2.433,-3.538c-0.528,-0.393 -0.031,-1.263 1.668,-2.834c1.277,-1.194 2.688,-2.305 3.002,-2.447c0.305,-0.08 0.533,-1.116 0.555,-2.245c-0.057,-1.581 2.666,-6.083 12.307,-20.626c6.875,-10.237 16.879,-25.733 22.35,-34.418c5.472,-8.684 10.645,-16.847 11.492,-18.105c5.495,-7.863 26.125,-34.672 30.795,-39.953c5.553,-6.282 23.974,-24.675 38.408,-38.44c7.681,-7.286 23.475,-20.345 23.984,-19.829c0.116,0.206 -2.572,4.965 -5.98,10.622c-3.489,5.709 -9.232,15.234 -12.847,21.301c-3.607,6.006 -8.637,14.19 -11.134,18.159c-5.543,8.674 -11.343,19.071 -12.493,22.36c-0.417,1.322 -1.789,4.137 -2.926,6.359l-2.049,3.91l-2.161,-2.21c-2.545,-2.582 -3.521,-2.916 -3.769,-1.254c-0.229,1.538 1.903,4.436 6.343,8.559c2.064,1.88 3.223,3.438 2.757,3.62c-0.467,0.182 2.685,3.609 7.125,7.732c9.381,8.823 14.231,13.636 13.586,13.54c-0.645,-0.096 -28.02,-25.32 -30.716,-28.364c-1.322,-1.456 -2.645,-2.408 -2.968,-2.205c-1.626,1.079 31.527,32.261 55.505,52.258c6.193,5.14 11.251,9.543 11.214,9.789c-0.037,0.247 -3.675,-2.372 -8.082,-5.735c-13.955,-10.575 -41.353,-29.259 -42.233,-28.761c-0.566,0.356 2.393,2.622 13.936,10.699c20.369,14.237 43.093,31.342 42.275,31.912c-0.242,0.153 -1.718,-0.759 -3.282,-2.062c-1.573,-1.241 -5.249,-3.614 -8.228,-5.254c-2.979,-1.64 -11.671,-7.215 -19.397,-12.394c-7.646,-5.23 -14.407,-9.51 -14.908,-9.585c-1.72,-0.256 -0.318,1.149 4.216,4.153c10.659,7.126 21.351,15.013 21.044,15.596c-0.595,1.044 -6.328,0.189 -9.684,-1.381c-11.49,-5.489 -15.556,-6.221 -5.84,-1.123c2.988,1.578 5.313,3.183 5.124,3.47c-0.19,0.286 -2.522,0.693 -5.256,0.852c-5.173,0.298 -6.321,0.63 -5.571,1.497c0.25,0.289 3.987,0.28 8.353,-0.013l7.917,-0.518l5.118,2.525c3.337,1.693 5,2.822 4.837,3.427c-0.145,0.482 -0.895,2.069 -1.572,3.667c-1.057,2.17 -1.176,2.97 -0.551,3.693c0.562,0.65 0.92,0.703 1.523,0.101c0.612,-0.664 1.463,-0.474 5.239,1.222c4.878,2.174 13.473,4.966 21.04,6.787c2.544,0.631 4.782,1.342 4.888,1.61c0.179,0.278 -2.717,0.538 -6.321,0.63c-3.675,0.081 -6.643,0.331 -6.68,0.577c-0.082,0.554 2.678,0.714 12.68,0.947c3.585,0.031 6.641,0.173 6.766,0.317c0.304,0.423 -10.614,28.429 -13.268,33.948c-4.108,8.384 -8.19,14.633 -16.149,24.772c-19.231,24.312 -46.882,52.025 -79.74,79.779c-10.393,8.768 -20.57,17.569 -22.701,19.579c-6.547,6.071 -30.514,26.279 -37.794,31.863c-3.802,2.893 -10.666,7.658 -15.203,10.568c-7.286,4.638 -8.471,5.217 -9.992,4.612c-1.46,-0.532 -1.836,-0.462 -1.965,0.399c-0.092,0.616 -1.065,2.232 -2.083,3.654c-1.747,2.382 -1.909,2.483 -2.676,1.236c-0.775,-1.185 -0.937,-1.083 -2.756,1.288c-1.738,2.321 -2.6,2.695 -9.077,4.372c-9.151,2.41 -13.625,5.392 -27.799,18.882c-5.881,5.54 -11.834,11.07 -13.264,12.304c-3.111,2.682 -2.963,4.151 0.405,4.653c1.863,0.278 4.789,-0.67 13.603,-4.262c6.095,-2.552 11.382,-4.595 11.669,-4.552c0.788,0.118 16.946,-11.944 21.191,-15.841c2.032,-1.836 3.697,-3.664 3.761,-4.095c0.073,-0.492 0.81,-1.012 1.582,-1.274c0.834,-0.19 2.065,-1.076 2.714,-1.986c0.72,-0.899 1.905,-1.478 2.998,-1.44c2.555,0.066 3.462,-0.617 2.49,-1.957c-0.669,-0.918 -0.3,-1.429 2.253,-3.313c1.716,-1.191 6.157,-4.933 9.889,-8.341c3.731,-3.407 12.299,-10.749 19.068,-16.346c19.139,-15.832 32.498,-27.304 40.403,-34.619c3.992,-3.683 13.37,-12.037 20.851,-18.471c28.472,-24.382 57.842,-54.292 77.099,-78.286c8.093,-10.055 14.99,-23.875 24.606,-49.055c1.176,-2.971 2.278,-5.449 2.493,-5.417c0.215,0.032 3.254,5.204 6.637,11.497c3.394,6.232 6.388,11.209 6.702,11.067c0.333,-0.265 -3.386,-8.244 -7.518,-15.907c-0.463,-0.824 -0.658,-1.483 -0.443,-1.451c0.215,0.033 4.99,5.841 10.665,12.979c5.685,7.077 10.478,12.763 10.721,12.61c0.566,-0.356 -3.064,-5.491 -11.015,-15.548c-3.382,-4.342 -6.576,-8.468 -7.058,-9.169c-0.838,-1.257 -0.757,-1.308 0.164,-0.605c0.599,0.404 6.825,6.303 13.864,13.142c6.968,6.827 13.373,13.005 14.284,13.77l1.645,1.252l-1.356,-1.712c-2.579,-3.342 -1.281,-2.708 3.767,1.757c7.506,6.656 11.251,9.543 11.826,9.125c0.324,-0.203 0.111,-0.738 -0.479,-1.204c-15.424,-13.5 -37.457,-33.27 -38.126,-34.188c-1.07,-1.67 0.163,-0.605 20.306,16.619c26.299,22.609 39.824,33.12 41.198,32.255c0.647,-0.407 0.843,-0.251 -13.19,-11.279c-12.729,-9.952 -34.248,-28.262 -34.138,-29c0.046,-0.308 1.808,0.647 3.937,2.097c2.056,1.439 11.105,7.571 20.092,13.63c8.987,6.059 19.01,13.028 22.247,15.398c7.59,5.599 10.273,7.258 10.392,6.458c0.221,-1.477 -10.543,-9.375 -38.98,-28.464c-21.38,-14.326 -29.454,-20.123 -28.879,-20.54c1.051,-0.662 39.847,24.126 64.946,41.522c15.343,10.594 18.616,12.718 18.037,11.688c-1.352,-2.719 -24.09,-18.756 -51.84,-36.548c-20.721,-13.346 -27.633,-18.09 -22.131,-15.193c1.288,0.696 4.545,2.44 7.112,3.892c2.639,1.464 10.871,5.711 18.378,9.411c7.498,3.761 23.611,12.141 35.832,18.62c12.212,6.54 22.779,11.828 23.514,11.812c0.888,-0.057 -0.417,-1.132 -3.718,-3.071c-6.789,-4.096 -39.569,-21.569 -54.287,-28.986c-12.204,-6.099 -20.792,-10.903 -20.155,-11.248c1.222,-0.825 26.871,10.425 44.909,19.659c18.109,9.244 33.096,16.827 34.68,17.504c2.273,0.968 0.711,-0.838 -2.231,-2.724c-2.746,-1.73 -22.439,-11.651 -41.767,-21.077c-5.601,-2.723 -10.71,-5.31 -11.228,-5.765c-0.787,-0.62 -0.715,-0.61 0.251,-0.214c0.761,0.302 9.836,4.298 20.298,8.816c10.534,4.528 22.553,9.907 26.794,11.924c8.287,3.878 11.905,4.669 5.822,1.245c-3.847,-2.209 -11.936,-5.932 -33.12,-15.195c-12.654,-5.536 -15.687,-7.31 -6.538,-3.806c10.535,4.025 19.99,6.945 25.58,7.779c10.966,1.635 23.359,2.54 24.347,1.806c1.492,-1.161 -1.83,-1.972 -10.067,-2.256c-12.815,-0.527 -23.106,-2.754 -36.489,-7.833c-3.813,-1.45 -17.733,-6.357 -30.902,-10.901c-13.179,-4.482 -24.1,-8.376 -24.288,-8.593c-0.509,-0.516 2.851,0.048 10.705,1.911c3.752,0.875 16.524,3.66 28.392,6.122c28.133,5.895 47.943,10.611 54.191,12.927c0.833,0.313 1.568,0.297 1.623,-0.072c0.211,-1.416 -20.035,-7.141 -41.844,-11.715c-8.59,-1.847 -16.104,-3.534 -16.659,-3.743c-2.067,-0.874 23.094,3.822 44.411,8.26c20.744,4.352 25.913,5.06 23.436,3.495c-0.528,-0.393 -2.766,-1.105 -4.88,-1.671c-7.343,-1.851 -51.537,-10.581 -59.707,-11.8c-4.659,-0.694 -7.919,-1.432 -7.443,-1.676c0.395,-0.193 9.034,0.341 19.15,1.283c21.828,1.997 45.853,3.504 48.982,3.153c3.067,-0.423 -9.916,-1.794 -29.926,-3.205c-31.534,-2.249 -63.163,-5.331 -61.386,-5.947c2.863,-1.02 66.845,0.784 86.603,2.41c7.16,0.627 10.102,0.059 8.665,-1.603c-1.125,-1.3 -8.983,-2.157 -28.618,-3.135c-19.339,-0.997 -35.983,-1.403 -52.189,-1.303c-6.606,0.084 -12.154,-0.051 -12.288,-0.134c-0.303,-0.423 14.118,-2.802 23.525,-3.979c15.961,-1.898 29.666,-1.93 54.891,-0.118c6.739,0.501 12.412,0.781 12.654,0.629c2.021,-1.272 -6.095,-2.357 -25.273,-3.455c-7.196,-0.381 -13.209,-0.838 -13.334,-0.982c-0.312,-0.361 6.571,-0.341 22.901,0.207c16.625,0.529 16.625,0.529 16.18,-0.419c-0.623,-1.225 -8.213,-1.917 -22.114,-2.039c-7.386,-0.095 -14.279,-0.054 -15.31,-0.019c-1.174,0.014 -1.595,-0.112 -1.038,-0.406c0.485,-0.305 4.592,-0.825 9.201,-1.271c4.599,-0.383 12.203,-1.262 16.92,-1.943c4.637,-0.63 9.03,-1.107 9.747,-1c0.932,0.139 1.103,-0.025 0.603,-0.603c-1,-1.155 -5.581,-0.895 -29.819,1.971c-11.63,1.348 -21.663,2.306 -22.228,2.159c-0.975,-0.335 15.079,-3.351 33.088,-6.202c5.551,-0.871 11.722,-1.964 13.767,-2.414c5.606,-1.24 4.456,-2.859 -1.41,-1.846c-1.435,0.289 -8.188,1.358 -15.004,2.355c-6.825,1.059 -19.309,3.223 -27.83,4.847c-19.741,3.662 -40.781,7.193 -41.094,6.832c-0.375,-0.433 18.15,-7.234 31.161,-11.46c15.39,-4.94 23.859,-7.2 37.762,-10.034c6.036,-1.176 12.19,-2.649 13.662,-3.185c5.026,-1.767 1.064,-1.729 -7.179,-0.001c-4.468,0.97 -11.347,2.397 -15.285,3.257c-10.971,2.328 -36.705,10.318 -51.47,15.981c-9.244,3.529 -8.859,3.398 -8.166,2.683c0.855,-0.816 22.921,-10.738 31.879,-14.31c7.701,-3.004 26.892,-8.384 42.357,-11.866c7.724,-1.679 8.81,-2.083 7.593,-2.768c-0.814,-0.436 -1.439,-1.159 -1.509,-1.672c-0.105,-0.771 -6.194,0.271 -20.52,3.483c-6.145,1.411 -22.49,7.845 -42.59,16.864c-9.193,4.166 -17.263,7.681 -17.874,7.842c-2.072,0.635 29.045,-18.885 49.946,-31.308c11.111,-6.711 20.31,-12.386 20.347,-12.633c0.045,-0.307 -0.205,-0.596 -0.491,-0.639c-1.219,-0.182 -17.583,9.332 -47.442,27.781c-17.022,10.485 -31.097,18.893 -31.222,18.749c-0.313,-0.361 25.448,-20.806 33.742,-26.804c2.957,-2.139 8.609,-6.141 12.454,-8.839c3.918,-2.687 10.981,-7.8 15.753,-11.304c4.781,-3.565 9.292,-6.793 10.019,-7.251c0.89,-0.559 1.116,-1.092 0.678,-1.598c-0.875,-1.011 -1.997,-0.36 -10.4,5.874c-3.873,2.882 -11.089,8.035 -16.066,11.445c-8.662,6.007 -16.841,12.212 -42.96,32.603c-6.713,5.227 -12.915,9.965 -13.876,10.514c-2.578,1.566 3.379,-4.97 9.205,-10.141c5.746,-5.121 33.779,-27.051 55.088,-43.189c4.961,-3.79 10.273,-7.968 11.802,-9.376c4.514,-4.234 1.806,-3.757 -3.758,0.635c-2.894,2.211 -11.756,9.069 -19.701,15.182c-7.945,6.114 -19.701,15.182 -26.02,20.217c-6.381,4.963 -11.666,8.956 -11.791,8.812c-0.562,-0.65 40.251,-44.898 49.712,-53.805c2.23,-2.184 4.128,-4.104 4.165,-4.35c0.174,-1.169 -3.987,2.174 -10.984,8.806c-4.263,4.021 -8.085,7.54 -8.57,7.846c-0.404,0.254 2.756,-3.742 7.041,-8.892c4.285,-5.149 7.652,-9.554 7.465,-9.771c-0.438,-0.506 -6.514,4.377 -13.834,11.212c-6.898,6.459 -16.86,17.746 -31.867,36.333c-6.032,7.532 -11.099,13.508 -11.286,13.292c-0.447,-0.445 8.987,-14.578 17.255,-25.803c6.719,-9.191 26.279,-32.762 30.893,-37.17c1.367,-1.306 2.419,-2.471 2.285,-2.554c-0.134,-0.083 -1.869,-1.222 -3.881,-2.466c-4.159,-2.571 -16.184,-11.348 -20.277,-14.853c-5.469,-4.591 -2.106,-2.579 7.272,4.294c10.693,7.886 16.496,11.709 16.625,10.847c0.211,-1.415 -8.366,-9.238 -19.977,-18.331c-39.644,-30.891 -52.408,-41.1 -54.685,-43.516l-2.527,-2.705l2.656,1.843c9.255,6.225 12.769,8.7 19.242,13.44c4.032,2.929 8.922,6.49 10.898,7.98c1.985,1.429 11.464,7.624 21.033,13.708c9.569,6.083 19.773,12.827 22.688,14.897c2.914,2.071 5.463,3.646 5.625,3.545c0.728,-0.458 -2.176,-3.093 -10.891,-9.993c-4.845,-3.868 -8.553,-7.001 -8.195,-6.947c0.287,0.042 3.981,2.292 8.193,4.997c4.212,2.704 8.264,5.007 9.053,5.125c0.716,0.107 1.54,0.481 1.699,0.882c0.17,0.34 1.055,0.787 1.915,0.915c1.443,0.153 1.327,-0.054 -0.7,-2.18c-1.268,-1.322 -5.023,-4.147 -8.215,-6.322c-3.264,-2.186 -7.689,-5.425 -9.852,-7.132c-2.154,-1.769 -9.004,-6.439 -15.3,-10.398c-6.215,-4.01 -10.893,-7.036 -10.338,-6.827c0.546,0.27 5.933,2.961 11.927,5.994c18.87,9.547 36.937,18.093 39.231,18.435c1.72,0.256 0.944,-0.929 -1.489,-2.299c-1.423,-0.778 -8.303,-4.258 -15.327,-7.76c-16.115,-7.877 -23.505,-11.873 -22.536,-11.981c0.448,-0.058 5.917,2.078 12.119,4.702c22.599,9.6 33.529,13.432 30.429,10.642c-0.652,-0.538 -9.593,-4.451 -19.948,-8.701c-18.161,-7.427 -32.041,-13.587 -27.69,-12.309c1.191,0.366 12.058,4.629 24.222,9.527c12.163,4.897 22.431,8.756 22.817,8.625c0.385,-0.131 0.172,-0.667 -0.409,-1.194c-1.045,-0.848 -1.027,-0.971 0.462,-1.126c0.896,-0.118 1.391,-0.485 1.141,-0.774c-0.313,-0.361 -6.346,-2.645 -13.445,-5.151c-29.157,-10.326 -73.161,-27.207 -74.071,-28.476c-0.991,-1.217 13.443,3.201 57.393,17.495c30.046,9.766 32.858,10.563 32.987,9.701c0.045,-0.308 -0.464,-0.824 -1.081,-1.105c-1.593,-0.615 -55.025,-18.147 -69.43,-22.75c-6.017,-1.904 -11.666,-3.816 -12.552,-4.263c-1.566,-0.799 -1.485,-0.85 0.665,-0.53c1.228,0.121 7.452,1.615 13.792,3.316c16.504,4.286 35.359,10.496 54.694,17.909c12.335,4.734 14.85,5.55 15.363,5.06c0.252,-0.214 -0.024,-0.821 -0.533,-1.338c-0.509,-0.516 -0.91,-1.268 -0.836,-1.76c0.146,-0.985 -1.579,-2.186 -5.124,-3.47l-2.641,-0.96l3.736,0.494c3.951,0.526 5.728,-0.089 3.096,-1.111c-0.832,-0.313 -3.457,-0.893 -5.822,-1.246c-6.808,-1.015 -15.109,-3.323 -31.654,-8.811c-15.98,-5.34 -25.678,-8.108 -36.524,-10.543c-6.233,-1.433 -6.305,-1.444 -2.729,-1.351c2.044,0.053 21.1,2.455 42.422,5.383c21.323,2.929 38.014,4.978 37.047,4.582c-4.35,-1.782 -74.838,-11.54 -97.983,-13.544c-3.54,-0.34 -6.272,-0.684 -6.021,-0.898c0.647,-0.407 18.527,0.057 31.378,0.841c6.165,0.417 20.126,1.618 31.021,2.74c30.599,3.116 45.871,3.38 43.631,0.718c-0.188,-0.216 -4.409,-0.405 -9.383,-0.455c-10.102,-0.06 -21.133,-0.761 -35.048,-2.27c-21.915,-2.388 -47.644,-3.771 -63.949,-3.498c-4.034,0.028 -8.201,-0.028 -9.205,-0.177l-1.863,-0.278l1.218,-12.591c0.733,-6.874 1.553,-13.358 1.843,-14.322c1.244,-4.407 5.327,-33.748 6.292,-45.621c0.563,-7.215 1.506,-17.959 2.1,-23.91c0.826,-7.994 0.879,-10.314 0.211,-8.777c-1.292,2.764 -4.48,30.036 -4.907,41.738c-0.491,12.133 -2.537,30.766 -3.213,29.406c-0.285,-0.545 -0.374,-3.39 -0.229,-6.325c0.216,-2.925 0.66,-11.794 1.1,-19.656c0.377,-7.934 1.164,-20.086 1.7,-27.116c0.607,-7.019 0.953,-13.762 0.769,-14.985c-0.375,-2.887 -3.842,24.783 -3.985,32.123c-0.191,11.108 -3.429,52.466 -4.732,61.206c-0.248,1.661 -0.647,2.86 -0.834,2.644c-0.429,-0.568 0.019,-33.533 0.616,-45.398c0.277,-4.804 0.586,-16.209 0.78,-25.366c0.122,-9.168 0.728,-21.095 1.321,-26.543c1.02,-9.789 0.95,-12.757 -0.374,-10.752Zm-14.751,78.272c2.778,10.356 4.863,18.972 4.62,19.125c-1.222,0.824 -13.435,-45.984 -12.806,-49.225c0.101,-0.677 0.864,1.576 1.677,4.969c0.813,3.393 3.74,14.714 6.509,25.131Zm2.013,18.924c0.648,1.544 0.639,1.606 -0.316,0.645c-0.653,-0.537 -1.035,-1.412 -0.953,-1.966c0.166,-1.108 0.362,-0.953 1.269,1.321Zm-320.938,-36.037c0.094,1.335 -0.079,2.002 -0.652,1.916c-1.003,-0.149 -1.632,-2.32 -1.791,-5.678l-0.072,-2.464l1.149,2.121c0.704,1.175 1.307,3.027 1.366,4.105Zm319.396,51.285c1.198,0.808 1.314,1.014 0.445,0.948c-1.433,-0.214 -8.189,-3.55 -9.064,-4.561c-0.75,-0.867 6.419,2.153 8.619,3.613Zm-11.427,-2.962c2.246,1.153 2.362,1.359 1.123,1.803c-2.377,0.715 -9.574,-2.12 -8.44,-3.335c0.773,-0.766 4.473,-0.025 7.317,1.532Zm-304.368,-42.501c0.669,0.918 2.852,4.452 4.758,7.883c8.792,15.719 29.331,42.565 44.87,58.725c2.911,3.077 5.152,5.739 4.918,5.83c-0.808,0.509 -20.137,-18.733 -26.162,-25.986c-12.236,-14.724 -32.111,-44.554 -31.679,-47.447c0.193,-1.292 1.876,-0.789 3.295,0.995Zm16.901,6.044c2.7,2.039 3.279,3.069 7.775,14.184c5.936,14.727 10.645,23.924 16.835,32.523c2.614,3.599 4.772,6.815 4.717,7.184c-0.138,0.923 -8.877,-9.252 -17.595,-20.556c-9.636,-12.511 -26.424,-37.98 -26.149,-39.826c0.119,-0.8 11.306,4.266 14.417,6.491Zm281.069,38.585c2.722,0.91 6.743,1.95 9.036,2.292c2.222,0.331 4.048,0.855 4.002,1.163c-0.128,0.862 -9.042,2.175 -23.227,3.457c-7.128,0.636 -15.843,1.601 -19.368,2.145l-6.367,0.938l6.593,-3.925c3.62,-2.165 9.25,-5.038 12.517,-6.312c6.767,-2.64 8.515,-2.568 16.814,0.242Zm-305.078,-44.619c0.915,2.213 0.348,3.072 -0.919,1.247c-0.669,-0.918 -1.185,-1.876 -1.139,-2.183c0.146,-0.985 1.444,-0.351 2.058,0.936Zm-4.036,0.53c1.866,2.229 5.952,10.2 9.347,18.382c4.436,10.54 7.741,16.381 13.115,22.593c7.293,8.575 16.748,16.403 33.943,28.343c3.791,2.578 6.678,4.834 6.445,4.925c-1.303,0.875 -16.652,-8.209 -29.697,-17.516c-4.765,-3.417 -10.881,-7.601 -13.636,-9.27c-2.746,-1.731 -5.679,-3.678 -6.59,-4.443c-0.912,-0.765 -5.83,-4.141 -10.954,-7.611c-9.988,-6.712 -13.403,-9.36 -20.148,-15.714c-6.039,-5.683 -6.078,-7.387 -0.129,-6.5c1.505,0.224 2.698,0.087 2.753,-0.282c0.073,-0.492 -1.055,-0.786 -3.529,-0.904c-1.962,-0.104 -3.62,-0.288 -3.592,-0.472c0.119,-0.801 12.847,-10.983 14.381,-11.446c1.768,-0.554 5.849,-1.393 6.718,-1.326c0.296,-0.019 0.939,0.581 1.573,1.241Zm366.027,55.472c2.166,0.701 1.44,0.655 -2.904,-0.181c-3.207,-0.605 -6.511,-1.538 -7.387,-2.046c-1.289,-0.696 -0.634,-0.661 2.903,0.181c2.553,0.57 5.857,1.503 7.388,2.046Zm-352.25,-42.721c3.084,4.864 7.872,12.059 10.512,15.976c5.181,7.505 5.885,8.68 5.383,8.605c-0.645,-0.096 -16.019,-19.818 -18.006,-23.197c-1.952,-3.122 -4.772,-9.268 -4.653,-10.069c0.175,-1.169 1.772,0.894 6.764,8.685Zm292.876,40.472c-6.928,2.239 -46.887,12.763 -47.128,12.413c-0.687,-0.795 9.387,-8.415 12.061,-9.149c3.894,-1.055 16.672,-2.736 27.808,-3.717c11.208,-0.971 11.647,-0.969 7.259,0.453Zm-263.814,-28.524c6.426,12.913 12.558,27.795 10.843,26.029c-2.036,-2.065 -9.544,-15.58 -13.092,-23.722c-8.395,-18.869 -6.686,-20.502 2.249,-2.307Zm94.34,4.569c-15.462,10.341 -33.109,22.558 -42.904,29.779c-15.484,11.47 -16.875,11.955 -6.309,2.017c10.378,-9.652 28.842,-22.439 43.614,-30.114c7.633,-4.021 10.387,-4.806 5.599,-1.682Zm195.89,28.587c-0.992,1.74 -10.735,24.825 -20.282,48.065c-3.182,7.579 -5.893,13.969 -6.136,14.122c-0.243,0.153 -1.467,-0.974 -2.626,-2.531c-2.632,-3.476 -2.959,-2.266 -0.682,2.604c1.62,3.387 1.603,5.461 -0.045,5.215c-0.358,-0.053 -1.652,-1.693 -2.909,-3.58c-2.087,-3.205 -3.311,-4.331 -3.476,-3.223c-0.046,0.307 1.147,2.625 2.581,5.292c2.476,4.522 2.555,4.974 1.844,8.266c-0.509,1.937 -1.133,3.669 -1.456,3.872c-0.728,0.458 -6.369,-6.423 -7.497,-9.171c-0.712,-1.616 -0.278,-2.559 4.565,-10.959c7.639,-13.395 34.712,-57.867 35.998,-59.123c0.953,-0.99 1.005,-0.353 0.121,1.151Zm-377.074,-56.553c1.375,1.589 0.51,2.97 -1.956,3.295c-3.578,0.41 -11.574,-4.432 -5.38,-4.704c2.95,-0.126 6.586,0.542 7.336,1.409Zm415.055,86.315c7.618,7.869 13.499,15.101 16.028,19.756c1.746,3.029 1.798,3.666 1.047,8.21c-0.413,2.77 -1.232,6.297 -1.704,7.988l-0.961,3.003l-2.388,-4.132c-3.439,-5.923 -4.051,-7.714 -4.322,-12.284c-0.293,-5.895 -0.702,-6.585 -1.782,-2.783l-0.864,3.332l-6.157,-10.293c-3.404,-5.667 -10.435,-17.475 -15.719,-26.253l-9.633,-15.971l9.963,11.301c5.446,6.223 12.875,14.378 16.492,18.126Zm-29.341,-19.413c1.569,5.204 4.718,14.545 6.937,20.791c3.718,10.432 3.983,11.604 3.344,14.907c-1.195,6.05 1.787,34.683 6.451,61.867c1.643,9.619 1.978,13.759 0.915,10.077c-0.302,-0.926 -2.308,-11.543 -4.461,-23.63c-2.225,-12.098 -5.164,-27.762 -6.529,-34.824c-1.364,-7.062 -2.427,-13.197 -2.354,-13.69c0.074,-0.492 -0.149,-0.966 -0.507,-1.019c-2.222,-0.331 -1.997,2.093 2.182,21.718c3.104,14.556 6.482,32.677 6.317,33.785c-0.743,4.985 -10.933,-33.782 -12.826,-48.598c-2.66,-20.971 -4.303,-53.179 -2.688,-51.239c0.197,0.155 1.589,4.578 3.219,9.855Zm-363.132,-60.136c-1.52,1.346 -3.164,2.548 -3.765,2.647c-0.978,0.169 -6.252,-3.764 -6.205,-4.575c0.092,-0.615 7.507,-1.208 10.24,-0.864l2.374,0.292l-2.644,2.5Zm368.215,57.496c6.981,10.668 28.274,47.19 28.822,49.411c0.91,3.722 -0.053,15.093 -1.216,14.542c-1.513,-0.666 -6.823,-12.217 -7.206,-15.546c-0.11,-1.715 0,-4.908 0.321,-7.062c0.936,-6.278 -1.12,-5.263 -2.523,1.197l-0.628,2.737l-5.827,-12.509c-3.149,-6.887 -7.746,-17.325 -10.163,-23.222c-5.954,-14.604 -6.359,-16.804 -1.58,-9.548Zm-377.532,-56.432l2.555,2.52l-2.374,-0.291c-2.795,-0.417 -6.383,-2.399 -7.989,-4.4c-1.053,-1.29 -0.972,-1.341 2.109,-0.881c2.58,0.385 3.663,0.986 5.699,3.052Zm-8.833,-1.192c1.643,1.755 1.373,2.093 -1.926,2.104c-2.196,-0.013 -3.387,-0.379 -4.71,-1.332c-1.636,-1.313 -1.698,-1.386 -0.289,-1.993c2.038,-0.892 5.541,-0.306 6.925,1.221Zm104.12,22.01c0.412,2.641 0.951,7.377 1.137,10.551c0.196,3.112 0.871,9.882 1.507,14.947c0.637,5.066 1.042,9.719 0.941,10.396c-0.542,3.632 -4.545,-4.893 -6.673,-14.208c-1.667,-7.484 -1.711,-15.544 0.043,-22.392c0.727,-2.912 1.488,-5.063 1.738,-4.774c0.241,0.35 0.824,2.828 1.307,5.48Zm272.101,47.629c1.58,22.32 3.454,37.259 6.234,49.565c3.496,15.37 8.335,31.067 10.13,32.782c0.965,0.898 2.188,4.982 3.775,12.517c1.278,6.168 3.716,16.347 5.352,22.568c1.627,6.283 2.962,11.578 2.863,11.752c-0.12,0.8 -5.006,-11.631 -6.734,-17.237c-0.93,-3.096 -4.33,-15.18 -7.488,-26.913c-5.939,-21.586 -15.771,-54.889 -16.521,-55.756c-0.187,-0.217 -0.457,0.121 -0.567,0.859c-0.257,1.724 1.864,10.094 5.773,22.694c3.714,11.942 7.424,24.89 12.627,44.038c2,7.22 4.568,16.034 5.784,19.675c4.435,12.994 1.908,7.835 -7.574,-15.537c-12.218,-30.073 -15.415,-41.057 -17.27,-59.077c-0.617,-5.691 -1.481,-12.175 -1.886,-14.375c-0.669,-3.371 -0.423,-6.984 1.285,-21.389c1.276,-11.009 2.284,-17.276 2.714,-17.212c0.43,0.064 1.076,5.068 1.503,11.046Zm-364.079,-63.612c-0.239,1.6 -2.132,2.01 -3.624,0.718c-2.092,-1.697 -1.623,-2.382 1.244,-1.954c1.648,0.246 2.462,0.682 2.38,1.236Zm56.898,25.725c6.517,7.39 16.868,18.057 22.023,22.79c3.35,3.079 -11.378,-6.731 -15.399,-10.225c-9.329,-8.186 -20.989,-23.83 -23.151,-30.948c-0.744,-2.376 -0.351,-2.066 4.2,3.772c2.775,3.497 8.309,10.111 12.327,14.611Zm-62.558,-24.619c2.466,2.13 2.498,3.393 0.158,3.358c-1.532,-0.04 -8.997,-5.494 -8.86,-6.418c0.175,-1.169 6.441,1.024 8.702,3.06Zm-11.994,0.35c18.845,14.136 59.697,40.363 76.758,49.262c9.457,4.871 9.106,5.259 -1.519,1.347c-12.434,-4.56 -31.784,-15.311 -48.844,-27.167c-17.07,-11.795 -34.6,-22.463 -36.546,-22.187c-0.448,0.059 5.087,3.716 12.278,8.06c7.191,4.344 15.947,9.991 19.389,12.455c3.433,2.526 12.054,8.09 19.021,12.464c13.281,8.209 13.583,9.135 1.037,3.363c-8.296,-3.817 -15.434,-8.027 -16.7,-9.852c-0.669,-0.918 -1.886,-1.603 -3.247,-1.806c-3.297,-0.491 -6.249,-2.316 -13.962,-8.563c-7.454,-6.019 -20.455,-15.131 -21.102,-14.724c-0.395,0.193 1.759,1.961 16.142,13.104c4.139,3.197 7.919,6.34 8.338,6.969c0.669,0.918 0.445,0.947 -1.946,0.276c-1.477,-0.409 -7.556,-2.385 -13.483,-4.402c-20.492,-7.02 -8.835,-23.779 -7.455,-23.699c1.371,0.141 3.262,0.235 4.122,0.363c0.869,0.067 4.367,2.161 7.719,4.737Zm4.598,0.12c6.07,4.491 7.884,6.083 7.399,6.388c-0.485,0.306 -12.207,-8.049 -13.108,-9.379c-1.391,-1.969 0.372,-1.014 5.709,2.991Zm370.075,61.234c-1.137,4.676 -2.927,14.224 -4.064,21.353c-1.056,7.078 -2.398,14.113 -2.914,15.609l-0.915,2.695l-0.746,-1.873c-0.64,-1.605 -1.811,-2.598 -1.958,-1.613c-0.027,0.185 0.563,3.104 1.376,6.497c0.98,4.236 1.188,6.28 0.541,6.687c-0.97,0.61 -6.022,-13.167 -6.107,-17.018c-0.101,-1.777 1.24,-5.855 4.17,-13.22c5.064,-12.835 11.913,-28.298 12.359,-27.854c0.116,0.206 -0.686,4.113 -1.742,8.737Zm-351.201,-58.105c3.849,4.161 15.388,13.243 24.518,19.324c3.935,2.6 7.091,5.021 7.045,5.329c-0.184,1.231 -31.274,-20.205 -35.74,-24.646c-1.018,-1.033 -1.391,-1.97 -1.013,-2.542c0.956,-1.494 1.913,-1.036 5.19,2.535Zm422.427,69.798c3.173,2.298 8.485,5.984 11.686,8.098c3.192,2.175 5.695,4.058 5.462,4.149c-0.485,0.305 -16.367,-10.117 -24.11,-15.676c-2.575,-1.894 -5.838,-4.08 -7.18,-4.909c-1.342,-0.829 -2.459,-1.688 -2.413,-1.996c0.101,-0.677 9.214,5.024 16.555,10.334Zm-423.42,-65.101c7.715,5.744 12.73,9.449 14.787,10.888c9.683,6.792 30.968,20.285 35.674,22.623c1.772,0.894 3.579,2.044 3.935,2.6c0.438,0.506 -2.749,-0.724 -7.053,-2.813c-4.313,-2.028 -9.44,-4.491 -11.418,-5.478c-12.805,-6 -39.299,-24.359 -43.295,-29.989c-0.722,-1.051 -0.108,-2.218 1.11,-2.036c0.358,0.053 3.148,1.979 6.26,4.205Zm377.151,70.281c4.163,8.926 7.978,17.737 8.437,19.567c0.822,3.332 1.308,10.388 0.897,12.655c-0.356,1.897 -1.597,-2.063 -1.967,-6.46c-0.171,-2.29 -0.633,-3.617 -1.153,-3.569c-0.529,0.11 -3.674,-7.784 -7.899,-19.739c-3.86,-10.957 -6.743,-19.63 -6.493,-19.341c0.312,0.361 3.943,7.95 8.178,16.887Zm42.524,9.614c8.393,6.599 15.972,12.763 16.856,13.713c1.706,1.827 2.004,3.759 0.499,3.535c-1.434,-0.214 -31.896,-26.841 -33.653,-29.306c-1.132,-1.741 -1.276,-1.763 16.298,12.058Zm-456.645,-53.069c-2.447,0.201 1.398,-17.723 5.283,-16.263c3.823,1.388 10.94,3.771 15.784,5.186c10.387,3.059 15.273,5.172 22.608,9.537l5.375,3.256l-10.509,-1.253c-10.366,-1.231 -26.536,-1.378 -38.541,-0.463Zm386.993,65.205c-0.322,5.111 -0.61,10.479 -0.597,11.866c-0.072,2.443 -0.143,2.432 -1.849,-1.849l-1.697,-4.343l1.888,-11.673c1.035,-6.452 2.451,-13.98 3.241,-16.819l1.282,-5.157l-0.804,9.318c-0.466,5.09 -1.132,13.484 -1.464,18.657Zm-385.445,-49.056c-16.317,-8.977 -8.271,-13.314 2.913,-7.745c11.185,5.569 20.921,10.042 21.585,10.015c1.551,-0.083 -2.233,-2.221 -15.789,-9.087c-15.953,-7.979 -16.069,-8.185 -4.892,-7.966c3.8,0.064 9.895,-0.034 13.508,-0.187c3.756,-0.132 12.27,0.257 19.635,0.978l13.001,1.247l23.229,8.812c12.756,4.86 26.334,10.094 30.067,11.595c8.216,3.364 9.49,3.177 -16.099,2.821c-48.05,-0.56 -73.296,-1.746 -75.163,-3.471c-0.446,-0.445 -5.84,-3.577 -11.995,-7.012Zm450.722,42.181c4.019,3.997 4.617,4.904 4.305,6.997c-0.349,2.339 -1.253,2.015 -3.277,-1.118c-3.246,-4.762 -5.525,-9.129 -4.808,-9.022c0.358,0.053 2.056,1.439 3.78,3.143Zm-36.179,3.35c2.6,7.623 3.22,12.309 3.862,31.091c0.277,7.969 0.656,17.212 0.967,20.53c0.542,6.687 0.16,8.266 -0.808,2.963c-2.381,-13.505 -7.825,-58.549 -7.384,-61.503c0.211,-1.416 1.163,0.551 3.363,6.919Zm-322.648,-49.128c5.969,2.715 9.996,4.7 17.619,8.605c1.091,0.541 1.734,1.14 1.492,1.293c-0.404,0.254 -24.493,-11.141 -26.478,-12.569c-1.994,-1.367 0.647,-0.407 7.367,2.671Zm374.496,55.666c3.093,2.348 5.048,4.465 4.045,4.315c-0.86,-0.128 -6.768,-4.722 -7.544,-5.907c-1.16,-1.557 0.084,-1.057 3.499,1.592Zm-8.148,0.106c-0.22,1.477 -0.817,3.024 -1.249,3.463c-0.603,0.602 -0.698,-0.23 -0.322,-2.754c0.284,-1.908 0.81,-3.466 1.24,-3.401c0.43,0.064 0.542,1.276 0.331,2.692Zm-6.667,-0.491c1.505,2.678 1.449,3.55 -0.93,9.676c-2.036,5.296 -2.98,6.225 -3.896,4.012c-0.827,-1.822 -0.121,-11.469 1.002,-14.573c0.968,-2.561 1.962,-2.35 3.824,0.885Zm14.479,4.11c2.369,1.8 4.308,3.536 4.253,3.906c-0.184,1.231 -4.279,8.547 -4.907,8.831c-0.844,0.252 -4.725,-4.668 -5.907,-7.55c-0.712,-1.616 -0.662,-2.93 0.063,-5.339c0.491,-1.814 1.213,-3.216 1.571,-3.163c0.358,0.053 2.549,1.576 4.927,3.315Zm18.03,3.884c3.71,2.63 6.713,5.091 6.667,5.399c-0.046,0.307 -4.321,5.395 -9.451,11.3c-17.144,19.653 -26.601,32.462 -39.626,53.484c-5.301,8.522 -8.751,13.481 -7.234,10.184c0.316,-0.645 3.785,-8.181 7.705,-16.783c11.832,-25.793 22.317,-47.95 22.892,-48.367c0.323,-0.204 1.341,0.829 2.277,2.416c2.932,4.904 4.183,3.392 1.35,-1.686c-0.917,-1.71 -1.645,-3.706 -1.544,-4.383c0.349,-2.339 4.361,-9.102 5.492,-9.311c0.6,-0.099 2.157,0.762 3.506,2.033c3.154,2.924 5.229,4.24 6.153,3.938c1.472,-0.536 0.919,-1.248 -2.979,-4.094c-4.086,-3.063 -7.05,-6.274 -3.849,-4.16c0.939,0.58 3.308,2.381 5.275,3.932c4.978,3.952 6.454,4.864 6.985,4.251c0.333,-0.265 -1.632,-2.32 -4.17,-4.46c-7.284,-6.183 -9.649,-8.989 -7.141,-8.615c0.502,0.075 3.981,2.292 7.692,4.922Zm-490.166,-61.151c9.724,5.54 15.072,8.98 14.587,9.285c-0.405,0.255 -3.299,0.012 -6.434,-0.582c-5.553,-1.08 -5.822,-1.245 -10.532,-5.031c-2.601,-2.212 -6.056,-8.516 2.379,-3.672Zm395.138,55.787c1.237,12.831 3.287,21.19 9.25,38.186c3.293,9.363 -0.224,2.484 -6.178,-12.12c-6.239,-15.15 -6.274,-15.407 -5.305,-28.287c0.655,-7.83 1.361,-7.158 2.233,2.221Zm51.246,4.182l3.139,4.495l-1.733,6.222c-1.025,3.434 -2.058,6.426 -2.381,6.629c-0.818,0.57 -3.444,-4.415 -3.945,-7.446c-0.404,-2.2 1.002,-14.574 1.575,-14.488c0.143,0.021 1.669,2.073 3.345,4.588Zm14.341,2.58c-1.377,4.324 -3.499,8.727 -4.28,9.051c-0.844,0.251 -0.88,0.497 0.641,-3.806c1.756,-4.897 3.543,-8.531 4.188,-8.435c0.215,0.032 -0.005,1.509 -0.549,3.19Zm-79.962,-4.691c3.772,10.567 4.31,12.849 3.411,16.427l-0.629,2.738l-3.966,-6.317c-5.134,-8.316 -6.271,-11.003 -5.803,-14.142c0.505,-3.385 2.782,-8.833 3.398,-8.05c0.25,0.289 1.894,4.498 3.589,9.344Zm53.826,4.568c1.682,3.459 3.255,7.154 3.619,8.152c0.559,1.657 0.687,11.114 0.256,14.006l-0.256,1.221l-0.891,-1.392c-1.855,-2.793 -4.482,-10.232 -5.583,-15.618c-1.215,-6.096 -1.532,-12.812 -0.672,-12.684c0.286,0.043 1.907,2.927 3.527,6.315Zm34.903,10.113c0.436,1.009 -4.416,11.925 -5.276,11.797c-0.215,-0.033 -1.713,-2.269 -3.227,-4.886l-2.798,-4.822l1.909,-4.937c1.129,-2.663 2.222,-5.08 2.483,-5.355c0.441,-0.501 6.047,6.124 6.909,8.203Zm-354.06,-58.091c-2.344,1.475 -66.668,4.905 -83.598,4.457c-12.261,-0.319 -15.387,-0.974 -20.018,-4.307c-2.119,-1.512 -4.157,-3.074 -4.469,-3.435c-0.625,-0.723 9.752,-0.056 12.411,0.781c1.119,0.356 2.722,0.909 3.607,1.356c1.379,0.583 1.54,0.482 1.329,-0.557c-0.193,-1.161 0.694,-1.217 14.146,-0.533c16.875,0.819 32.711,1.23 50.665,1.202c10.693,0.022 19.091,0.205 25.328,0.632c0.573,0.085 0.851,0.19 0.599,0.404Zm313.844,60.021c1.242,8.867 1.502,16.456 1.103,27.974c-0.216,5.379 -0.432,13.211 -0.455,17.297c-0.033,4.148 -0.179,7.587 -0.422,7.739c-0.162,0.102 -0.375,-0.433 -0.471,-1.265c-0.504,-4.48 -3.535,-62.754 -3.397,-63.677c0.41,-1.763 2.855,6.403 3.642,11.932Zm-317.844,-56.78c-3.48,0.739 -15.019,1.472 -19.607,1.291c-5.09,-0.255 -2.992,-0.572 9.372,-1.433c11.547,-0.795 14.397,-0.747 10.235,0.142Zm341.253,52.595c0.45,1.892 -1.743,8.737 -3.698,11.529c-1.117,1.595 -1.17,1.461 -0.816,-2.387c0.477,-5.655 2.264,-11.743 3.222,-11.285c0.483,0.198 1,1.155 1.292,2.143Zm-62.376,2.651c0.129,1.592 -0.064,2.885 -0.35,2.842c-1.004,-0.149 -2.844,-6.967 -2.637,-9.831l0.126,-2.812l1.324,3.406c0.746,1.873 1.417,4.742 1.537,6.395Zm-313.699,-52.638c-12.95,1.844 -46.552,4.131 -54.627,3.745c-7.42,-0.352 -12.588,-1.563 -16.792,-3.826l-2.031,-1.121l2.903,0.182c4.06,0.29 11.879,1.897 13.426,2.82c1.083,0.602 1.244,0.5 0.996,-0.292c-0.327,-1.244 -0.255,-1.234 12.481,-1.159c8.784,0.052 31.464,-0.718 44.544,-1.473c8.732,-0.585 8.453,-0.186 -0.9,1.124Zm376.968,61.194c-1.666,4.785 -3.226,7.383 -2.813,4.613c0.24,-2.103 2.759,-9.655 3.562,-11.108c1.361,-2.251 0.908,1.771 -0.749,6.495Zm-361.341,-59.87c-2.981,1.318 -13.76,2.856 -30.965,4.254c-9.495,0.786 -19.473,1.374 -22.18,1.348c-2.707,-0.027 -5.71,-0.034 -6.741,0.001c-1.255,0.064 -1.595,-0.112 -1.029,-0.468c0.961,-0.549 14.205,-1.908 29.016,-2.971c5.693,-0.346 14.767,-1.258 20.085,-2.038c5.38,-0.708 10.509,-1.201 11.512,-1.051c1.72,0.256 1.72,0.256 0.302,0.925Zm285.137,49.133c5.777,8.915 8.363,15.153 6.222,14.77c-0.636,-0.157 -8.563,-11.847 -11.11,-16.38c-0.936,-1.586 -1.557,-3.315 -1.466,-3.93c0.34,-2.278 2.61,-0.303 6.354,5.54Zm65.275,19.173c-1.458,11.738 -3.799,22.525 -4.419,20.293c-0.176,-0.781 -0.026,-5.226 0.366,-9.823c0.672,-7.45 0.89,-8.424 1.894,-8.275c1.003,0.15 1.031,-0.035 0.338,-1.774c-0.427,-1.07 -0.468,-4.726 -0.176,-8.646l0.57,-6.773l1.399,2.411c1.212,2.194 1.217,3.138 0.028,12.587Zm18.417,-7.068l2.272,3.925l-11.752,25.743c-6.503,14.13 -12.174,26.12 -12.606,26.559c-0.612,0.663 -0.665,0.53 -0.241,-0.351c1.211,-2.713 5.074,-15.35 8.824,-29.199c4.513,-16.504 8.35,-29.459 8.964,-30.626c0.784,-1.33 2.08,-0.193 4.539,3.949Zm-100.554,-11.536c1.132,1.741 1.476,3.366 1.421,6.189c-0.201,3.808 -0.201,3.808 1.077,2.111c1.027,-1.483 1.252,-1.512 1.311,-0.434c0.259,2.681 0.491,3.093 1.523,2.555c0.557,-0.294 1.355,-0.238 1.82,0.083c0.465,0.321 4.221,5.097 8.307,10.614c4.086,5.517 10.921,14.212 15.134,19.371c4.221,5.096 7.335,9.273 6.976,9.219c-0.358,-0.053 -4.78,-4.299 -9.808,-9.39c-5.1,-5.102 -12.926,-12.561 -17.519,-16.644c-13.572,-12.154 -21.646,-20.405 -21.435,-21.82c0.23,-1.539 3.046,-7.159 4.459,-8.773c0.81,-1.012 1.016,-0.918 3.041,1.712c1.16,1.557 2.792,3.877 3.693,5.207Zm-272.251,-45.639c-0.12,0.801 -2.812,1.657 -10.777,3.489c-14.021,3.132 -19.561,3.438 -36.899,1.796c-10.475,-0.996 -8.518,-1.837 3.833,-1.631c15.434,0.163 28.264,-0.881 38.212,-3.235c5.087,-1.192 5.75,-1.219 5.631,-0.419Zm278.433,46.435c-1.203,3.155 -1.646,1.705 -0.497,-1.584c0.597,-1.547 1.084,-2.355 1.208,-1.708c0.042,0.698 -0.25,2.165 -0.711,3.292Zm69.712,13.983c1.013,2.542 1.186,4.33 0.736,7.345c-0.34,2.278 -0.87,10.252 -1.192,17.817c-0.68,14.873 -0.748,16.31 -1.248,15.733c-0.187,-0.217 -0.388,-6.728 -0.478,-14.48c-0.017,-7.742 -0.447,-18.124 -0.967,-22.984c-0.44,-4.91 -0.757,-9.173 -0.702,-9.542c0.228,-1.036 2.349,2.427 3.851,6.111Zm-62.152,-10.15c1.588,2.124 8.286,11.743 14.903,21.412c16.382,23.773 28.806,41.167 33.706,47.12c2.231,2.723 3.498,4.548 2.764,4.061c-1.672,-1.067 -35.058,-40.022 -42.187,-49.202c-8.173,-10.531 -15.246,-20.583 -15.705,-22.413c-0.444,-1.45 0.383,-4.536 1.436,-5.7c0.612,-0.664 2.095,0.69 5.083,4.722Zm-279.267,-43.79c-7.712,3.568 -20.923,8.645 -29.448,11.274c-12.06,3.738 -34.649,9.304 -35.211,8.653c-0.187,-0.216 3.5,-1.365 8.282,-2.476c4.79,-1.174 14.93,-4.317 22.585,-7.014c23.89,-8.391 40.247,-13.439 33.792,-10.437Zm305.305,59.313c3.763,8.174 9.67,20.632 13.168,27.635c3.489,7.063 6.13,12.931 5.96,13.095c-0.961,0.548 -21.423,-38.115 -25.039,-47.274c-2.061,-5.341 -3.046,-10.521 -1.653,-9.055c0.384,0.372 3.801,7.425 7.564,15.599Zm-10.726,-11.1c2.079,5.217 2.98,9.001 2.192,8.883c-0.636,-0.157 -4.095,-5.455 -5.108,-7.997c-0.925,-2.151 -0.705,-6.082 0.37,-5.922c0.358,0.053 1.489,2.298 2.546,5.036Zm55.594,14.331l-1.222,3.279l0.663,-4.935c0.404,-2.708 1.05,-5.569 1.465,-6.388c1.156,-2.344 0.488,4.1 -0.906,8.044Zm-343.012,-54.556c-4.779,3.063 -18.867,10.085 -23.022,11.416l-2.549,0.878l2.784,-1.473c1.518,-0.843 8.19,-4.315 14.718,-7.808c6.6,-3.483 12.069,-6.254 12.194,-6.11c0.196,0.156 -1.691,1.51 -4.125,3.097Zm346.68,56.487c-2.45,11.023 -10.796,39.476 -11.677,39.974c-1.374,0.864 2.086,-14.475 6.92,-30.679c2.449,-8.066 4.633,-14.85 4.894,-15.125c1.214,-1.266 1.156,0.109 -0.137,5.83Zm-57.603,-3.809c1.996,3.318 6.729,10.882 10.536,16.798c14.066,22.106 13.796,22.443 -0.829,1.134c-11.076,-16.123 -15.042,-22.44 -14.831,-23.855c0.239,-1.601 1.114,-0.589 5.124,5.923Zm6.431,4.042c3.258,6.149 4.246,8.372 3.672,8.287c-0.501,-0.075 -7.306,-12.415 -7.205,-13.092c0.165,-1.108 0.709,-0.335 3.533,4.805Zm109.635,49.384c-3.03,0.177 -20.899,1.602 -23.203,1.824c-0.673,0.089 -0.412,-0.187 0.665,-0.53c4.487,-1.596 17.541,-2.669 22.63,-1.91l2.866,0.428l-2.958,0.188Zm-100.992,-4.178c5.572,3.411 10.195,6.303 10.168,6.487c-0.083,0.554 -19.947,-9.204 -24.034,-11.764c-1.61,-0.995 -1.842,-1.407 -0.989,-1.72c1.696,-0.565 3.889,0.454 14.855,6.997Zm2.066,6.286c5.182,2.094 11.241,4.696 13.505,5.726l4.108,1.934l-5.679,-1.225c-10.873,-2.25 -23.809,-6.885 -24.278,-8.654c-0.389,-1.316 0.384,-2.082 1.817,-1.868c0.645,0.096 5.354,1.931 10.527,4.087Z" style="fill:#ffc107;fill-rule:nonzero;"/></svg>