<?xml version="1.0" encoding="UTF-8" standalone="no"?><!DOCTYPE svg PUBLIC "-//W3C//DTD SVG 1.1//EN" "http://www.w3.org/Graphics/SVG/1.1/DTD/svg11.dtd"><svg width="100%" height="100%" viewBox="0 0 240 144" version="1.1" xmlns="http://www.w3.org/2000/svg" xmlns:xlink="http://www.w3.org/1999/xlink" xml:space="preserve" xmlns:serif="http://www.serif.com/" style="fill-rule:evenodd;clip-rule:evenodd;stroke-linejoin:round;stroke-miterlimit:1.41421;"><g><path d="M75.16,84.731l40.305,-4.561l-2.778,-5.274l-6.956,1.424l5.562,-2.823l-2.786,-4.563l-33.347,15.797Z" style="fill:#d6d6db;fill-opacity:0.352941;fill-rule:nonzero;"/><path d="M131.483,101.231c0,0 105.74,-36.889 106.545,-39.021c0.809,-2.133 -2.907,-4.698 -10.419,-2.88c-7.503,1.836 -61.862,8.65 -61.862,8.65l-5.635,6.124l58.737,-8.547l-71.881,24.703l13.144,-16.155l27.9,-30.797c0,0 -6.712,-1.835 -9.662,0.308c-2.96,2.128 -35.601,14.016 -35.601,14.016l-0.272,4.579l23.269,-9.454l-15.023,17.078l-8.786,1.521l-0.264,4.566l3.685,-0.61l-3.421,4.393l-0.264,12.386l-10.19,9.14Z" style="fill:#d6d6db;fill-opacity:0.352941;fill-rule:nonzero;"/><path d="M133.919,63.087l9.183,-6.621l-1.147,36.799l-9.385,7.917l1.349,-38.095Z" style="fill:#cbc3c0;fill-rule:nonzero;"/><path d="M134.106,63.211l-1.323,37.517l8.983,-7.581l1.129,-36.284l-8.789,6.348Zm-1.737,38.414l0.014,-0.457l1.348,-38.202l0.085,-0.062l9.491,-6.856l-0.012,0.418l-1.151,36.913l-0.076,0.064l-9.699,8.182Z" style="fill:#cbc3c0;fill-rule:nonzero;"/><path d="M107.26,55.543l9.318,-6.57l10.06,15.269l-0.554,19.316l-18.824,-28.015Z" style="fill:#cbc3c0;fill-rule:nonzero;"/><path d="M78.579,47.61l9.497,-6.138l-0.18,19.46l-8.967,9.292l-0.35,-22.614Z" style="fill:#cbc3c0;fill-rule:nonzero;"/><path d="M78.776,47.74l0.338,21.998l8.592,-8.912l0.175,-18.968l-9.105,5.882Zm-0.027,22.973l-0.366,-23.237l9.888,-6.378l-0.18,19.926l-0.065,0.068l-9.277,9.621Z" style="fill:#cbc3c0;fill-rule:nonzero;"/><path d="M103.776,63.333l-1.632,-2.717l-24.829,23.321l11.606,-5.681l14.855,-14.923Z" style="fill:#cbc3c0;fill-rule:nonzero;"/><path d="M102.106,60.932l-23.623,22.189l10.332,-5.048l14.698,-14.766l-1.407,-2.375Zm-24.712,23.207l-0.201,-0.374l24.992,-23.479l1.848,3.087l-15.039,15.088l-11.6,5.678Z" style="fill:#cbc3c0;fill-rule:nonzero;"/><path d="M71.131,45.192l0.46,34.784c0,0 1.788,6.049 5.724,3.961l24.566,-23.103l27.239,40.577c0,0 5.022,1.676 4.304,-3.944l1.075,-34.552l-8.07,-2.296l-0.351,22.889l-18.818,-28.096l-10.582,-3.326l-17.747,17.688l-0.352,-22.271l-7.448,-2.311Z" style="fill:#938379;fill-rule:nonzero;"/><path d="M129.232,101.215c0.18,0.059 0.767,0.211 1.427,0.211c0.949,0 1.658,-0.302 2.098,-0.885c0.491,-0.651 0.651,-1.677 0.474,-3.046l1.07,-34.411l-7.685,-2.179l-0.356,23.239l-0.331,-0.497l-18.779,-28.037l-10.424,-3.284l-17.978,17.924l-0.356,-22.576l-7.066,-2.191l0.459,34.457c0.122,0.391 1.401,4.21 3.932,4.21c0.476,0 0.981,-0.133 1.498,-0.406l24.694,-23.228l27.323,40.699Zm1.427,0.655c-0.856,0 -1.565,-0.229 -1.594,-0.243l-0.061,-0.019l-0.037,-0.06l-27.118,-40.404l-24.451,22.995c-0.573,0.296 -1.143,0.458 -1.682,0.458c-2.926,0 -4.251,-4.357 -4.306,-4.546l-0.011,-0.069l-0.467,-35.084l7.839,2.441l0.004,0.162l0.338,21.797l17.513,-17.448l10.746,3.371l0.036,0.051l18.487,27.603l0.349,-22.53l8.454,2.392l-1.087,34.74c0.195,1.454 0,2.589 -0.561,3.351c-0.512,0.676 -1.337,1.042 -2.391,1.042" style="fill:#938379;fill-rule:nonzero;"/><path d="M74.996,6.245l12.95,0.214l21.81,33.619l-7.622,7.936l-27.138,-41.769Z" style="fill:#a1a2a9;fill-rule:nonzero;"/><path d="M75.383,6.482l26.779,41.205l7.338,-7.636l-21.649,-33.375l-12.468,-0.194Zm26.723,41.856l-0.125,-0.192l-27.374,-42.12l13.439,0.217l0.054,0.082l21.913,33.786l-0.125,0.131l-7.782,8.096Z" style="fill:#a1a2a9;fill-rule:nonzero;"/><path d="M130.061,20.427l9.724,-5.135c0,0 3.972,0.459 4.522,4.691l-1.371,36.651l-8.492,6.336l0.693,-38.612c0,0.001 -2.607,-4.082 -5.076,-3.931" style="fill:#a1a2a9;fill-rule:nonzero;"/><path d="M130.81,20.276c2.272,0.535 4.382,3.795 4.477,3.948l0.043,0.059l0,0.076l-0.687,38.194l8.102,-6.05l1.375,-36.524c-0.489,-3.728 -3.857,-4.381 -4.301,-4.458l-9.009,4.755Zm3.436,43.097l0,-0.407l0.694,-38.54c-0.327,-0.496 -2.687,-3.929 -4.867,-3.774l-0.094,-0.423l9.777,-5.154l0.048,0.004c0.044,0.002 4.132,0.525 4.695,4.874l-1.375,36.802l-8.878,6.618Z" style="fill:#a1a2a9;fill-rule:nonzero;"/><path d="M77.743,47.919l10.906,-6.269l0,-1.86l-10.587,-14.232l-0.319,22.361Z" style="fill:#a1a2a9;fill-rule:nonzero;"/><path d="M78.244,26.144l-0.31,21.42l10.515,-6.05l0,-1.643l-10.205,-13.727Zm-0.701,22.138l0.004,-0.363l0.326,-22.947l10.959,14.736l0,2.082l-11.289,6.492Z" style="fill:#a1a2a9;fill-rule:nonzero;"/><path d="M107.487,55.5l8.101,-5.554l11.53,-12.479l-19.631,18.033Z" style="fill:#acadb3;fill-rule:nonzero;"/><path d="M123.545,41.04l-13.734,12.617l5.681,-3.902l8.053,-8.715Zm-15.96,14.654l-0.213,-0.363l19.632,-18.033l0.251,0.335l-11.538,12.479l-8.132,5.582Z" style="fill:#acadb3;fill-rule:nonzero;"/><path d="M71.174,46.425l-0.536,-36.123c0,0 -0.271,-2.8 4.353,-4.043l26.519,40.941l28.503,-26.695c0,0 5.383,0.619 5.383,6.374l-1.079,36.118l-8.06,-1.643l0.709,-24.012l-19.886,18.469l-10.763,-2.867l-18.093,-27.501l0.369,22.297l-7.419,-1.315Z" style="fill:#371711;fill-rule:nonzero;"/><path d="M126.45,61.173l7.684,1.572l1.064,-35.88c0,-5.114 -4.481,-6.024 -5.124,-6.131l-28.598,26.778l-0.114,-0.185l-26.451,-40.815c-4.255,1.189 -4.089,3.662 -4.083,3.765l0.538,35.954l7.033,1.254l-0.384,-22.713l18.414,27.969l10.6,2.835l20.145,-18.711l-0.724,24.308Zm8.054,2.093l-8.444,-1.725l0.707,-23.721l-19.642,18.233l-0.09,-0.017l-10.828,-2.894l-0.045,-0.069l-17.738,-26.958l0.365,21.893l-7.801,-1.397l0,-0.187l-0.539,-36.117c-0.012,-0.106 -0.237,-2.986 4.496,-4.266l0.12,-0.032l26.479,40.864l28.413,-26.597l0.077,0.005c0.059,0.01 5.55,0.713 5.55,6.598l-1.08,36.387Z" style="fill:#371711;fill-rule:nonzero;"/></g><g><path d="M5.666,139.366l0,-44.607l8.491,0c3.299,0 5.801,1.002 7.507,3.007c1.705,2.005 2.558,4.845 2.558,8.52l0,20.863c0,4.177 -0.909,7.257 -2.727,9.241c-1.818,1.984 -4.433,2.976 -7.844,2.976l-7.985,0Zm5.735,-38.593l0,32.578l2.643,0c1.612,0 2.756,-0.449 3.43,-1.347c0.675,-0.898 1.013,-2.307 1.013,-4.228l0,-21.49c0,-1.754 -0.319,-3.111 -0.956,-4.072c-0.638,-0.961 -1.8,-1.441 -3.487,-1.441l-2.643,0Z" style="fill:rgba(255,255,255,0.8);fill-rule:nonzero;"/><rect x="27.629" y="94.759" width="5.736" height="44.607" style="fill:rgba(255,255,255,0.8);"/><path d="M37.732,139.366l0,-44.607l5.511,0l7.366,30.819l0.112,0l7.311,-30.819l5.567,0l0,44.607l-5.736,0l0,-27.128l-0.113,0l-5.679,26.371l-2.868,0l-5.623,-26.371l-0.112,0l0,27.128l-5.736,0Z" style="fill:rgba(255,255,255,0.8);fill-rule:nonzero;"/></g><path d="M78.016,102.277l-8.225,0l0,-7.394l16.204,0l0,44.486l-7.979,0l0,-37.092Z" style="fill:rgba(255,255,255,0.8);fill-rule:nonzero;"/><path d="M139.302,127.717l-2.57,0l0,-2.045l4.757,0l0,13.59l-2.187,0l0,-11.545Z" style="fill:rgba(255,255,255,0.8);fill-rule:nonzero;"/><g><path d="M120.187,111.576l1.915,0l0,0.967l0.037,0c0.629,-0.721 1.457,-1.081 2.483,-1.081c0.66,0.011 1.191,0.12 1.594,0.325c0.397,0.228 0.761,0.519 1.091,0.87c0.745,-0.809 1.744,-1.207 2.996,-1.195c0.788,0 1.509,0.266 2.162,0.8c0.648,0.539 0.984,1.33 1.008,2.373l0,6.064l-1.915,0l0,-5.432c0,-0.638 -0.174,-1.125 -0.522,-1.459c-0.348,-0.339 -0.797,-0.509 -1.347,-0.509c-0.55,0 -1.002,0.17 -1.356,0.509c-0.36,0.334 -0.541,0.821 -0.541,1.459l0,5.432l-1.915,0l0,-5.432c0,-0.638 -0.174,-1.125 -0.522,-1.459c-0.354,-0.339 -0.806,-0.509 -1.356,-0.509c-0.55,0 -0.999,0.17 -1.347,0.509c-0.367,0.334 -0.55,0.821 -0.55,1.459l0,5.432l-1.915,0l0,-9.123Z" style="fill:rgba(255,255,255,0.8);fill-rule:nonzero;"/><path d="M140.58,119.89l-0.036,0c-0.177,0.311 -0.452,0.54 -0.825,0.686c-0.366,0.152 -0.873,0.229 -1.521,0.229c-1.063,-0.012 -1.881,-0.282 -2.456,-0.809c-0.604,-0.516 -0.907,-1.175 -0.907,-1.978c0,-0.767 0.263,-1.403 0.788,-1.907c0.526,-0.515 1.295,-0.779 2.309,-0.791l2.648,0l0,-0.958c0.013,-0.803 -0.638,-1.192 -1.951,-1.169c-0.477,0 -0.852,0.047 -1.127,0.141c-0.287,0.111 -0.514,0.299 -0.678,0.562l-1.503,-1.098c0.727,-0.914 1.799,-1.36 3.216,-1.336c1.197,-0.012 2.153,0.205 2.868,0.65c0.715,0.457 1.078,1.242 1.09,2.356l0,6.231l-1.915,0l0,-0.809Zm0,-3.058l-2.29,0c-1.112,0.023 -1.662,0.39 -1.65,1.099c0,0.31 0.144,0.574 0.431,0.791c0.275,0.24 0.73,0.36 1.365,0.36c0.8,0.012 1.366,-0.079 1.695,-0.273c0.3,-0.193 0.449,-0.632 0.449,-1.318l0,-0.659Z" style="fill:rgba(255,255,255,0.8);fill-rule:nonzero;"/><path d="M143.494,111.576l2.025,0l2.254,6.39l0.037,0l2.245,-6.39l2.034,0l-1.533,4.121l-2.563,6.892c-0.262,0.685 -0.626,1.16 -1.09,1.424c-0.47,0.252 -1.002,0.377 -1.594,0.377l-0.633,0l0,-1.731l0.559,0c0.251,0 0.483,-0.064 0.697,-0.193c0.213,-0.135 0.363,-0.334 0.449,-0.598l0.522,-1.529l-3.409,-8.763Z" style="fill:rgba(255,255,255,0.8);fill-rule:nonzero;"/><path d="M152.611,116.129c0,-0.961 0.083,-1.699 0.248,-2.215c0.171,-0.504 0.434,-0.929 0.788,-1.274c0.263,-0.305 0.629,-0.578 1.099,-0.818c0.465,-0.228 1.06,-0.349 1.787,-0.36c0.752,0.011 1.359,0.132 1.824,0.36c0.458,0.24 0.812,0.513 1.063,0.818c0.378,0.345 0.647,0.77 0.806,1.274c0.153,0.516 0.229,1.254 0.229,2.215c0,0.961 -0.076,1.693 -0.229,2.197c-0.159,0.504 -0.428,0.94 -0.806,1.31c-0.123,0.134 -0.272,0.266 -0.449,0.395c-0.159,0.147 -0.364,0.273 -0.614,0.378c-0.465,0.252 -1.072,0.384 -1.824,0.396c-0.727,-0.012 -1.322,-0.144 -1.787,-0.396c-0.47,-0.228 -0.836,-0.486 -1.099,-0.773c-0.354,-0.37 -0.617,-0.806 -0.788,-1.31c-0.165,-0.504 -0.248,-1.236 -0.248,-2.197Zm5.929,0.017c0,-0.65 -0.031,-1.125 -0.092,-1.423c-0.061,-0.288 -0.186,-0.54 -0.375,-0.756c-0.141,-0.205 -0.349,-0.367 -0.623,-0.484c-0.263,-0.123 -0.569,-0.184 -0.917,-0.184c-0.323,0 -0.623,0.061 -0.898,0.184c-0.262,0.117 -0.476,0.279 -0.641,0.484c-0.165,0.216 -0.284,0.468 -0.357,0.756c-0.074,0.298 -0.11,0.767 -0.11,1.406c0,0.633 0.036,1.095 0.11,1.388c0.073,0.299 0.192,0.563 0.357,0.791c0.165,0.176 0.379,0.332 0.641,0.466c0.275,0.129 0.575,0.194 0.898,0.194c0.348,0 0.654,-0.065 0.917,-0.194c0.274,-0.134 0.482,-0.29 0.623,-0.466c0.189,-0.228 0.314,-0.492 0.375,-0.791c0.061,-0.293 0.092,-0.75 0.092,-1.371Z" style="fill:rgba(255,255,255,0.8);fill-rule:nonzero;"/></g><g><path d="M119.784,137.402l5.5,-6.601c0.213,-0.266 0.358,-0.513 0.435,-0.742c0.052,-0.216 0.077,-0.42 0.077,-0.611c0,-0.507 -0.164,-0.949 -0.493,-1.326c-0.341,-0.377 -0.824,-0.572 -1.449,-0.584c-0.555,0 -1.015,0.17 -1.383,0.51c-0.38,0.34 -0.605,0.819 -0.676,1.437l-2.011,0c0.052,-1.125 0.445,-2.055 1.18,-2.791c0.741,-0.717 1.652,-1.082 2.735,-1.094c1.211,0.012 2.194,0.383 2.948,1.113c0.767,0.723 1.157,1.641 1.169,2.753c0,0.89 -0.283,1.681 -0.85,2.373l-4.533,5.452l5.383,0l0,1.937l-8.032,0l0,-1.826Z" style="fill:rgba(255,255,255,0.8);fill-rule:nonzero;"/><path d="M134.415,129.605c-0.039,-1.353 -0.699,-2.043 -1.982,-2.067c-1.288,0.024 -1.946,0.714 -1.971,2.067l0,5.73c0.025,1.366 0.683,2.055 1.971,2.067c1.283,-0.012 1.943,-0.701 1.982,-2.067l0,-5.73Zm-5.973,-0.12c0.012,-1.249 0.428,-2.21 1.246,-2.884c0.767,-0.667 1.682,-1.001 2.745,-1.001c1.096,0 2.027,0.334 2.794,1.001c0.779,0.674 1.182,1.635 1.208,2.884l0,5.961c-0.026,1.242 -0.429,2.2 -1.208,2.874c-0.767,0.667 -1.698,1.007 -2.794,1.02c-1.063,-0.013 -1.978,-0.353 -2.745,-1.02c-0.818,-0.674 -1.234,-1.632 -1.246,-2.874l0,-5.961Z" style="fill:rgba(255,255,255,0.8);fill-rule:nonzero;"/></g><path d="M145.432,129.338c0.013,0.636 0.225,1.12 0.635,1.454c0.403,0.346 0.868,0.519 1.396,0.519c0.546,0 1.022,-0.173 1.425,-0.519c0.397,-0.334 0.602,-0.818 0.615,-1.454c-0.013,-0.654 -0.218,-1.148 -0.615,-1.482c-0.403,-0.321 -0.879,-0.481 -1.425,-0.481c-0.528,0 -0.993,0.16 -1.396,0.481c-0.41,0.334 -0.622,0.828 -0.635,1.482Zm-2.304,5.918c0.013,-1.328 0.573,-2.36 1.679,-3.096c-0.423,-0.359 -0.755,-0.771 -0.996,-1.236c-0.279,-0.435 -0.419,-0.95 -0.419,-1.548c0.013,-1.145 0.413,-2.092 1.2,-2.841c0.742,-0.743 1.699,-1.12 2.871,-1.133c1.191,0.013 2.164,0.39 2.919,1.133c0.761,0.749 1.148,1.696 1.161,2.841c0,0.598 -0.126,1.113 -0.38,1.548c-0.267,0.465 -0.612,0.877 -1.035,1.236c1.106,0.736 1.666,1.768 1.679,3.096c-0.013,1.239 -0.433,2.23 -1.259,2.973c-0.84,0.761 -1.868,1.148 -3.085,1.161c-1.211,-0.013 -2.223,-0.4 -3.037,-1.161c-0.852,-0.743 -1.285,-1.734 -1.298,-2.973Zm2.04,-0.019c0.013,0.629 0.248,1.145 0.703,1.548c0.436,0.421 0.967,0.632 1.592,0.632c0.644,0 1.184,-0.211 1.62,-0.632c0.443,-0.403 0.671,-0.919 0.684,-1.548c-0.013,-0.642 -0.241,-1.164 -0.684,-1.567c-0.436,-0.396 -0.976,-0.601 -1.62,-0.613c-0.625,0.012 -1.156,0.217 -1.592,0.613c-0.455,0.403 -0.69,0.925 -0.703,1.567Z" style="fill:rgba(255,255,255,0.8);fill-rule:nonzero;"/><path d="M95.557,107.475c0.043,2.051 0.743,3.616 2.1,4.692c1.335,1.117 2.874,1.676 4.618,1.676c1.809,0 3.381,-0.559 4.716,-1.676c1.313,-1.076 1.991,-2.641 2.034,-4.692c-0.043,-2.113 -0.721,-3.708 -2.034,-4.784c-1.335,-1.036 -2.907,-1.554 -4.716,-1.554c-1.744,0 -3.283,0.518 -4.618,1.554c-1.357,1.076 -2.057,2.671 -2.1,4.784Zm-7.622,19.105c0.043,-4.286 1.895,-7.618 5.555,-9.995c-1.399,-1.158 -2.497,-2.488 -3.294,-3.991c-0.926,-1.402 -1.389,-3.068 -1.389,-4.997c0.043,-3.698 1.368,-6.755 3.973,-9.172c2.454,-2.397 5.62,-3.616 9.495,-3.656c3.94,0.04 7.159,1.259 9.657,3.656c2.519,2.417 3.8,5.474 3.843,9.172c0,1.929 -0.42,3.595 -1.259,4.997c-0.883,1.503 -2.024,2.833 -3.424,3.991c3.661,2.377 5.512,5.709 5.555,9.995c-0.043,4.001 -1.431,7.201 -4.166,9.598c-2.778,2.458 -6.179,3.707 -10.206,3.748c-4.005,-0.041 -7.353,-1.29 -10.044,-3.748c-2.821,-2.397 -4.253,-5.597 -4.296,-9.598Zm6.75,-0.061c0.043,2.031 0.819,3.697 2.326,4.997c1.442,1.361 3.197,2.041 5.264,2.041c2.132,0 3.919,-0.68 5.361,-2.041c1.465,-1.3 2.218,-2.966 2.261,-4.997c-0.043,-2.072 -0.796,-3.758 -2.261,-5.058c-1.442,-1.28 -3.229,-1.94 -5.361,-1.981c-2.067,0.041 -3.822,0.701 -5.264,1.981c-1.507,1.3 -2.283,2.986 -2.326,5.058Z" style="fill:rgba(255,255,255,0.8);fill-rule:nonzero;"/></svg>