<?xml version="1.0" encoding="UTF-8" standalone="no"?><!DOCTYPE svg PUBLIC "-//W3C//DTD SVG 1.1//EN" "http://www.w3.org/Graphics/SVG/1.1/DTD/svg11.dtd"><svg width="100%" height="100%" viewBox="0 0 1600 1200" version="1.1" xmlns="http://www.w3.org/2000/svg" xmlns:xlink="http://www.w3.org/1999/xlink" xml:space="preserve" xmlns:serif="http://www.serif.com/" style="fill-rule:evenodd;clip-rule:evenodd;stroke-linejoin:round;stroke-miterlimit:2;"><g id="Shape"><path d="M1196.18,790.754c-452.487,26.051 -256.299,596.308 133.822,792.246c-345.108,0 -1142,-325.082 -1142,-722.591c0,-397.509 38.208,-789.409 383.31,-789.409c345.108,0 624.868,322.245 624.868,719.754Z" style="fill:#0ab7e0;fill-rule:nonzero;"/><path d="M1953,-133.75c0,460.744 -257.025,629.75 -533.82,629.75c-276.795,0 -501.18,-373.506 -501.18,-834.25c0,-460.744 257.02,-629.75 533.82,-629.75c276.795,0 501.18,373.506 501.18,834.25Z" style="fill:#e16197;fill-rule:nonzero;"/><path d="M944.936,-1071.96c632.679,63.285 870.411,882.144 825.84,1330.01c-44.57,447.864 -298.965,-59.482 -931.644,-122.766c-632.678,-63.285 -528.038,-214.856 -483.467,-662.72c-449.688,95.112 -43.407,-607.815 589.271,-544.523Z" style="fill:#0c354f;fill-rule:nonzero;"/><path d="M1215.03,-398.343c226.603,22.613 51.95,565.256 30.507,780.176c-21.438,214.921 -106.715,-24.842 -333.323,-47.455c-226.602,-22.619 -544.621,-112.807 -523.184,-327.721c21.438,-214.921 599.392,-427.613 826,-405Z" style="fill:#8095a2;fill-rule:nonzero;"/><path d="M1703.56,340.059c235.403,424.406 -10.217,1054.31 -288.992,1209.93c-278.781,155.61 -673.288,-307.021 -870.972,-660.889c-197.678,-353.868 172.37,-1097.8 613.239,-988.184c230.067,57.207 431.765,231.886 546.725,439.146Z" style="fill:#cfd9df;fill-rule:nonzero;"/><path d="M1681.94,951.752c12.778,292.39 -90.801,499.8 -260.264,594.444c-169.463,94.644 -416.539,-168.168 -529.442,-401.946c-240.85,-498.716 83.042,-1163.27 435.8,-894.354c216.442,164.999 342.006,429.492 353.906,701.856Z" style="fill:#f7f7f6;fill-opacity:0.1;fill-rule:nonzero;"/><path d="M1910.17,809.106c12.771,292.453 -124.567,579.498 -260.125,594.572c-187.008,20.785 -239.411,-207.619 -244.896,-395.864c-5.63,-193.266 146.182,-691.79 244.896,-259.23c72.93,319.571 248.231,-211.901 260.125,60.522Z" style="fill:#b0bec5;fill-rule:nonzero;"/><path d="M1303.18,854.957c-176.754,340.699 -922.128,767.994 -1621.18,596.043c-699.051,-171.951 317.288,-262.538 317.288,-659.762c0,-397.224 224.41,-719.238 568.971,-719.238c148.178,0 284.275,59.499 391.293,158.976c221.323,141.442 452.728,413.688 343.628,623.981Z" style="fill:#f7f7f6;fill-rule:nonzero;"/><path d="M203.636,940.846c-398.47,100.854 -980.69,64.016 -872.455,-239.435c178.986,-501.792 612.091,-837.355 1147.82,-769.768c210.788,26.588 412.496,191.675 512.944,345.21c231.011,353.102 -180.308,510.102 -788.308,663.993Z" style="fill:#eceff1;fill-rule:nonzero;"/><path d="M77.458,-377.818c396.924,74.375 939.469,397.173 705.131,871.286c-129.948,262.911 -711.522,484.502 -913.022,394.502c-334.005,-149.183 -432.361,-1385.75 207.891,-1265.79Z" style="fill:#f7f7f6;fill-rule:nonzero;"/><path d="M366.132,611.514c-235.377,336.153 -985.707,547.678 -1309.17,321.183c-323.473,-226.498 -97.59,-805.244 137.787,-1141.4c235.373,-336.148 547.088,-525.169 870.56,-298.671c323.468,226.494 536.201,782.737 300.827,1118.89Z" style="fill:#0c354f;fill-opacity:0.51;fill-rule:nonzero;"/><path d="M41.775,666.954c-299.784,279.553 -1015.66,395.965 -1235.72,159.982c-220.057,-235.983 -109.986,-804.309 189.797,-1083.86c299.779,-279.549 874.403,-349.711 1094.46,-113.728c220.057,235.983 251.241,758.058 -48.538,1037.61Z" style="fill:#d3dce1;fill-rule:nonzero;"/></g></svg>