<?xml version="1.0" encoding="UTF-8" standalone="no"?><!DOCTYPE svg PUBLIC "-//W3C//DTD SVG 1.1//EN" "http://www.w3.org/Graphics/SVG/1.1/DTD/svg11.dtd"><svg width="100%" height="100%" viewBox="0 0 2200 900" version="1.1" xmlns="http://www.w3.org/2000/svg" xmlns:xlink="http://www.w3.org/1999/xlink" xml:space="preserve" xmlns:serif="http://www.serif.com/" style="fill-rule:evenodd;clip-rule:evenodd;stroke-linejoin:round;stroke-miterlimit:2;"><g opacity="0.8"><path d="M1922.73,270.958c-172.91,0 -313.083,140.173 -313.083,313.083c0,172.91 140.173,313.084 313.083,313.084c172.91,0 313.083,-140.174 313.083,-313.084c0,-172.91 -140.173,-313.083 -313.083,-313.083Z" style="fill:#007cac;fill-rule:nonzero;"/><path d="M1922.73,897.125c149.904,0 275.132,-105.377 305.82,-246.084c-1.096,-1.158 -241.975,-242.038 -243.134,-243.133c-15.742,-16.638 -37.977,-27.07 -62.686,-27.07c-47.707,0 -86.379,38.672 -86.379,86.379l0,134.676l-59.655,0c-4.708,0 -8.522,3.813 -8.522,8.522c0,3.231 1.867,5.942 4.516,7.382c0.782,1.441 1.941,2.593 3.375,3.375c0.783,1.441 1.941,2.593 3.376,3.376l0.325,0.482l0,14.939c0,32.073 10.482,61.734 28.177,85.779c-0.594,1.447 -0.933,3.025 -0.933,4.69c0,4.265 2.167,8.016 5.461,10.22c0.895,1.334 96.592,97.031 97.926,97.926c0.402,0.602 0.871,1.152 1.371,1.672l0,56.586l1.064,0.025c0.771,0.018 1.541,0.031 2.311,0.056c2.534,0.069 5.044,0.202 7.587,0.202Z" style="fill:#003966;fill-opacity:0.85;fill-rule:nonzero;"/><path d="M2009.11,467.217c0,-47.707 -38.672,-86.379 -86.379,-86.379c-47.707,0 -86.379,38.672 -86.379,86.379l0,172.76c0,47.707 38.672,86.379 86.379,86.379c47.707,0 86.379,-38.672 86.379,-86.379l0,-166.523l0,-6.237Z" style="fill:#2c5871;fill-opacity:0.85;fill-rule:nonzero;"/><path d="M1836.35,573.828l0,66.143c0,43.988 32.892,80.274 75.415,85.66l0,53.33l21.922,0l0,-53.33c42.529,-5.391 75.415,-41.672 75.415,-85.66l0,-66.143l-172.752,0Z" style="fill:#bcc0c5;fill-opacity:0.85;fill-rule:nonzero;"/><path d="M2009.01,644.071c-1.973,42.128 -34.126,76.336 -75.321,81.559l0,0.024c41.202,-5.209 73.356,-39.447 75.321,-81.583Zm0.05,-1.132l-0.044,1.134l0.044,-1.134Zm0,-0.126l-0.006,0.106l0.006,-0.106Zm0.007,-0.125l-0.006,0.1l0.006,-0.1Zm0.006,-0.125l0,0.095l0,-0.095Zm0,-0.132l0,0.088l0,-0.088Zm0.007,-0.132l0,0.088l0,-0.088Zm0,-0.131l0,0.082l0,-0.082Zm0.006,-0.124l0,0.074l0,-0.074Zm0,-0.139l0,0.075l0,-0.075Zm0.006,-0.132l0,0.075l0,-0.075Zm0,-0.187l0,0.132l0,-0.132Zm0.006,-0.138l0,0.056l0,-0.056Zm0,-0.137l0,0.069l0,-0.069Zm0,-0.132l0,0.062l0,-0.062Zm0.006,-0.132l0,0.062l0,-0.062Zm0,-0.137l0,0.062l0,-0.062Zm0,-0.132l0,0.062l0,-0.062Zm0,-0.137l0,0.062l0,-0.062Zm0.006,-0.132l0,0.062l0,-0.062Zm0,-0.137l0,0.056l0,-0.056Zm0,-0.132l0,0.056l0,-0.056Zm0,-0.138l0,0.05l0,-0.05Zm-86.379,-259.264l0,192.991l86.379,0l0,-100.375l0,-6.243c0,-47.701 -38.672,-86.373 -86.379,-86.373Z" style="fill:#204357;fill-opacity:0.85;fill-rule:nonzero;"/><path d="M2009.11,573.828l-86.379,0l0,152.522c3.713,0 7.37,-0.231 10.958,-0.689l0,-0.024c41.195,-5.222 73.356,-39.43 75.321,-81.558l0,-0.006l0.044,-1.134l0,-0.012l0.006,-0.107l0,-0.024l0.006,-0.1l0,-0.032l0,-0.094l0,-0.044l0,-0.089l0,-0.044l0,-0.088l0,-0.05l0,-0.082l0,-0.05l0,-0.074l0,-0.063l0,-0.074l0,-0.057l0,-0.074l0,-0.057l0,-0.132l0,-0.074l0,-0.056l0,-0.075l0,-0.069l0,-0.068l0,-0.062l0,-0.069l0,-0.062l0,-0.075l0,-0.062l0,-0.075l0,-0.062l0,-0.075l0,-0.062l0,-0.069l0,-0.062l0,-0.075l0,-0.056l0,-0.075l0,-0.056l0,-0.088l0,-0.05l0,-0.132l0,-66.149l0.044,0l0,-0.006Z" style="fill:#0e8594;fill-opacity:0.85;fill-rule:nonzero;"/><path d="M1922.73,573.828l0,205.138l10.958,0l0,-53.33c42.529,-5.391 75.415,-41.672 75.415,-85.66l0,-66.149l-86.373,0l0,0.001Z" style="fill:#767a85;fill-opacity:0.85;fill-rule:nonzero;"/><circle cx="1922.73" cy="520.448" r="11.008" style="fill:#0f303f;fill-opacity:0.85;"/><path d="M1897.49,487.869c0,-3.188 -2.587,-5.774 -5.774,-5.774l-55.364,0l0,11.54l55.365,0c3.194,0.007 5.773,-2.579 5.773,-5.766Zm-5.766,59.379l-55.366,0l0,11.54l55.366,0c3.187,0 5.773,-2.587 5.773,-5.774c0,-3.187 -2.586,-5.766 -5.773,-5.766Zm0,-43.431l-55.366,0l0,11.54l55.366,0c3.187,0 5.773,-2.586 5.773,-5.773c-0.007,-3.181 -2.586,-5.767 -5.773,-5.767Zm0,21.716l-55.366,0l0,11.54l55.366,0c3.187,0 5.773,-2.587 5.773,-5.774c-0.007,-3.181 -2.586,-5.766 -5.773,-5.766Z" style="fill:#0f303f;fill-opacity:0.85;fill-rule:nonzero;"/><path d="M2009.11,482.101l-55.365,0c-3.188,0 -5.774,2.587 -5.774,5.774c0,3.187 2.586,5.773 5.774,5.773l55.365,0l0,-11.547Zm-55.372,21.716c-3.187,0 -5.773,2.587 -5.773,5.774c0,3.187 2.586,5.774 5.773,5.774l55.366,0l0,-11.54l-55.366,0l0,-0.008Zm0,43.431c-3.187,0 -5.773,2.587 -5.773,5.774c0,3.187 2.586,5.773 5.773,5.773l55.366,0l0,-11.54l-55.366,0l0,-0.007Zm0,-21.715c-3.187,0 -5.773,2.586 -5.773,5.773c0,3.187 2.586,5.774 5.773,5.774l55.366,0l0,-11.54l-55.366,0l0,-0.007Z" style="fill:#0f303f;fill-opacity:0.85;fill-rule:nonzero;"/><path d="M2068.76,601.887l-292.07,0c-4.708,0 -8.522,3.813 -8.522,8.522c0,4.702 3.814,8.522 8.522,8.522l3.068,0l0,21.045c0,32.072 10.483,61.733 28.178,85.778c-0.594,1.447 -0.933,3.025 -0.933,4.69c0,6.794 5.511,12.305 12.304,12.305c0.996,0 1.947,-0.151 2.874,-0.376c22.805,22.849 53.174,38.14 86.981,41.779c0.602,1.603 1.503,3.049 2.599,4.327l0,108.377c3.651,0.118 7.289,0.269 10.964,0.269c3.675,0 7.313,-0.151 10.958,-0.276l0,-108.333c1.027,-1.189 1.878,-2.529 2.48,-4.007c35.391,-2.762 67.263,-18.241 90.995,-41.909l1.377,0.138c6.794,0 12.304,-5.511 12.304,-12.305c0,-1.057 -0.175,-2.066 -0.425,-3.042c18.434,-24.327 29.398,-54.609 29.398,-87.419l0,-21.152c4.202,-0.525 7.457,-4.07 7.457,-8.415c0.013,-4.705 -3.807,-8.518 -8.509,-8.518Zm-150.97,163.562c-3.506,1.27 -6.356,3.839 -8.008,7.138c-30.638,-3.444 -58.159,-17.301 -78.953,-37.939c0.482,-1.321 0.789,-2.724 0.789,-4.208c0,-6.794 -5.511,-12.305 -12.305,-12.305c-0.845,0 -1.671,0.088 -2.466,0.251c-16.05,-22.029 -25.541,-49.13 -25.541,-78.409l0,-21.045l126.485,0l-0.001,146.517Zm140.488,-125.478c0,29.474 -9.606,56.742 -25.854,78.847c-1.228,-0.414 -2.517,-0.689 -3.882,-0.689c-6.793,0 -12.304,5.511 -12.304,12.304c0,1.941 0.488,3.751 1.29,5.385c-21.546,20.839 -50.055,34.502 -81.671,37.113c-1.621,-3.469 -4.564,-6.168 -8.196,-7.482l0,-146.517l130.618,0l-0.001,21.039Z" style="fill:#2c5871;fill-opacity:0.85;fill-rule:nonzero;"/></g></svg>