<?xml version="1.0" encoding="UTF-8" standalone="no"?><!DOCTYPE svg PUBLIC "-//W3C//DTD SVG 1.1//EN" "http://www.w3.org/Graphics/SVG/1.1/DTD/svg11.dtd"><svg width="100%" height="100%" viewBox="0 0 250 130" version="1.1" xmlns="http://www.w3.org/2000/svg" xmlns:xlink="http://www.w3.org/1999/xlink" xml:space="preserve" xmlns:serif="http://www.serif.com/" style="fill-rule:evenodd;clip-rule:evenodd;stroke-linejoin:round;stroke-miterlimit:1.41421;"><g><path d="M15.485,58.518c0.227,0.84 0.168,1.454 -0.178,1.842c-0.345,0.389 -0.952,0.701 -1.821,0.936c-2.259,0.611 -3.506,0.483 -3.741,-0.386c-0.54,-1.998 0.304,-3.299 2.534,-3.902c0.377,-0.102 1.211,-0.064 2.502,0.115c0.328,0.409 0.563,0.873 0.704,1.395Zm0.205,10.06l0.035,0.131l2.842,15.5c0.039,0.145 0.198,0.444 0.476,0.897c0.383,0.612 0.596,0.942 0.641,0.992c-0.48,0.752 -1.141,1.241 -1.98,1.468c-0.724,0.196 -1.513,0.037 -2.367,-0.478c0.111,-0.279 0.226,-0.714 0.346,-1.306c0.099,-3.88 -0.415,-8.652 -1.542,-14.314c-0.047,-0.173 -0.097,-0.502 -0.15,-0.985c-0.053,-0.483 -0.111,-0.84 -0.174,-1.072c-0.094,-0.347 -0.623,-1.385 -1.588,-3.113c0.105,-0.184 0.257,-0.427 0.455,-0.729c0.137,-0.068 0.35,-0.141 0.64,-0.22c0.405,-0.11 0.744,-0.123 1.014,-0.041c0.536,0.601 0.986,1.691 1.352,3.27Z" style="fill:#fff;fill-rule:nonzero;"/><path d="M40.619,69.572c-0.058,0.358 -0.189,0.564 -0.392,0.619c-0.116,0.031 -0.288,0.054 -0.517,0.07c-0.229,0.015 -0.401,0.038 -0.517,0.07c-1.245,0.337 -2.94,1.223 -5.085,2.657c-2.145,1.435 -3.839,2.321 -5.085,2.658c-4.083,1.105 -7.053,-1.774 -8.91,-8.637c-1.473,-5.445 -2.586,-10.132 -3.338,-14.062c-0.193,-0.942 -0.289,-1.413 -0.289,-1.413c-0.063,-0.232 -0.18,-0.519 -0.35,-0.861c-0.17,-0.343 -0.275,-0.586 -0.314,-0.731c-0.188,-0.695 0.184,-1.215 1.116,-1.561c1.04,-0.405 3.033,-1.426 5.977,-3.062c2.679,-1.471 4.641,-2.375 5.887,-2.712c0.144,-0.039 0.355,-0.065 0.631,-0.077c0.456,-0.155 0.94,-0.146 1.453,0.026c0.512,0.172 0.812,0.418 0.898,0.736c0.157,0.579 -0.503,1.069 -1.98,1.468c-1.332,0.361 -3.224,1.121 -5.676,2.282c-2.747,1.334 -4.39,2.384 -4.928,3.152c0.363,2.263 1.021,5.784 1.972,10.561c0.155,0.114 0.333,0.143 0.536,0.088c0.869,-0.235 2.083,-0.859 3.643,-1.871c1.559,-1.013 2.788,-1.641 3.686,-1.883c0.724,-0.196 1.499,-0.204 2.325,-0.023l0.7,1.209c0.089,0.1 -0.233,0.404 -0.965,0.913c-0.476,-0.15 -1.033,-0.14 -1.67,0.033c-0.724,0.196 -2.021,0.826 -3.893,1.892c-1.872,1.066 -3.122,1.871 -3.752,2.414c0.056,0.668 0.398,2.161 1.025,4.478c1.183,4.372 2.889,6.257 5.119,5.654c1.072,-0.29 2.516,-1.069 4.332,-2.338c1.817,-1.268 3.261,-2.048 4.333,-2.337c1.853,-0.502 3.196,-0.306 4.028,0.588Z" style="fill:#fff;fill-rule:nonzero;"/><path d="M55.275,64.814c0.275,1.013 -0.262,2.075 -1.608,3.186c-1.126,0.895 -2.282,1.503 -3.469,1.824c-0.782,0.211 -1.731,0.266 -2.846,0.164c-0.613,-0.083 -1.661,-0.452 -3.144,-1.108c-1.622,-0.711 -2.488,-1.269 -2.597,-1.674c-0.243,-0.898 0.183,-1.448 1.278,-1.651l0.26,-0.071c0.293,0.853 1.475,1.544 3.544,2.071c1.873,0.488 3.301,0.599 4.286,0.333c1.274,-0.345 1.794,-0.952 1.559,-1.821c-0.141,-0.521 -1.119,-1.033 -2.934,-1.537c-2.479,-0.665 -4.212,-1.269 -5.198,-1.81c-2.008,-1.104 -3.282,-2.655 -3.823,-4.653c-0.407,-1.506 -0.404,-3.045 0.009,-4.618c0.459,-1.864 1.369,-2.981 2.73,-3.349c0.985,-0.266 2.296,-0.132 3.933,0.405c1.636,0.536 2.696,1.236 3.178,2.1c0.444,0.719 0.806,1.6 1.088,2.642c0.306,1.13 0.436,2.415 0.391,3.857c-0.205,0.273 -0.482,0.457 -0.83,0.551c-0.202,0.055 -0.542,0.061 -1.02,0.02c-0.477,-0.042 -0.74,-0.15 -0.787,-0.324c0.032,0.116 0.105,-0.245 0.22,-1.085c0.098,-0.555 -0.029,-1.484 -0.382,-2.787c-0.838,-3.098 -2.227,-4.385 -4.167,-3.86c-1.014,0.274 -1.641,1.174 -1.881,2.7c-0.223,1.241 -0.182,2.426 0.123,3.556c0.384,1.419 1.582,2.571 3.593,3.457c0.676,0.314 2.466,0.902 5.372,1.763c1.925,0.567 2.966,1.14 3.122,1.719Z" style="fill:#fff;fill-rule:nonzero;"/><path d="M61.649,51.155c-0.184,0.237 -0.696,0.53 -1.533,0.881c-0.924,0.374 -1.447,0.625 -1.568,0.751c0.057,0.326 0.477,1.937 1.261,4.833c0.611,2.259 1.051,3.771 1.321,4.538c0.086,0.318 0.295,0.805 0.628,1.461c0.333,0.656 0.55,1.172 0.652,1.549c0.063,0.231 -0.019,0.502 -0.246,0.812c-0.227,0.31 -0.456,0.497 -0.688,0.559c-0.579,0.157 -1.203,-0.311 -1.872,-1.405c-0.466,-0.806 -0.806,-1.6 -1.017,-2.382c-1.105,-4.083 -1.891,-7.102 -2.358,-9.058c-0.213,-0.098 -0.879,0.082 -1.998,0.54c-0.895,0.367 -1.449,0.159 -1.66,-0.623c-0.298,-1.1 0.738,-1.924 3.107,-2.472l-1.563,-8.015c-0.023,-0.087 -0.097,-0.215 -0.22,-0.383c-0.123,-0.169 -0.197,-0.297 -0.22,-0.384c-0.047,-0.173 0.023,-0.371 0.212,-0.593c0.189,-0.222 0.446,-0.362 0.772,-0.419c1.037,-0.187 1.681,0.182 1.932,1.109c0.196,0.724 0.388,1.837 0.578,3.34c0.189,1.503 0.377,2.602 0.565,3.297c0.094,0.347 0.213,0.673 0.357,0.975l2.354,-0.776c0.811,-0.22 1.303,-0.011 1.475,0.626c0.125,0.464 0.035,0.877 -0.271,1.239Z" style="fill:#fff;fill-rule:nonzero;"/><path d="M79.592,62.337c0.11,0.405 -0.154,0.694 -0.791,0.867c-0.695,0.188 -1.193,0.012 -1.494,-0.528c-0.053,-0.079 -0.22,-0.64 -0.502,-1.683c-0.079,-0.289 -0.185,-0.509 -0.319,-0.659c-1.3,1.626 -2.891,2.693 -4.774,3.203c-1.303,0.352 -2.661,0.331 -4.073,-0.064c-1.609,-0.435 -2.578,-1.26 -2.907,-2.476c-0.322,-1.188 0.19,-2.569 1.535,-4.145c1.224,-1.45 2.473,-2.348 3.747,-2.692l4.301,-1.164c0.126,-0.221 0.131,-0.548 0.013,-0.983c-0.525,-1.94 -1.08,-3.359 -1.664,-4.258c-0.968,-1.509 -2.22,-2.056 -3.754,-1.641c-1.101,0.298 -1.926,1.267 -2.477,2.908c-0.495,1.501 -0.586,2.831 -0.272,3.989l0.129,0.478c0.063,0.232 -0.022,0.379 -0.254,0.442c-0.289,0.078 -0.655,-0.01 -1.096,-0.263c-0.442,-0.254 -0.698,-0.511 -0.768,-0.771c-0.22,-0.811 -0.25,-1.899 -0.091,-3.262c0.16,-1.364 0.443,-2.443 0.85,-3.237c0.512,-0.978 1.304,-1.612 2.375,-1.902c1.651,-0.446 3.312,-0.336 4.985,0.33c1.782,0.73 2.903,1.887 3.363,3.472l3.938,14.039Zm-4.171,-6.284c-0.313,-1.158 -1.367,-1.495 -3.163,-1.009c-1.419,0.384 -2.597,0.967 -3.536,1.749c-1.188,1.006 -1.61,2.146 -1.266,3.42c0.212,0.782 0.738,1.292 1.58,1.53c0.71,0.212 1.485,0.205 2.325,-0.023c1.245,-0.337 2.315,-1.061 3.211,-2.174c0.895,-1.112 1.179,-2.277 0.849,-3.493Z" style="fill:#fff;fill-rule:nonzero;"/><path d="M102.153,50.266c0.344,1.274 -0.2,2.649 -1.635,4.125c-1.284,1.342 -2.606,2.197 -3.967,2.565c-3.881,1.05 -6.487,-0.887 -7.819,-5.81c-0.588,-2.172 -0.828,-4.608 -0.719,-7.31c0.164,-3.526 1.058,-5.508 2.679,-5.947c1.39,-0.376 3.101,-0.085 5.131,0.873c2.031,0.958 3.235,2.132 3.611,3.522c0.485,1.795 0.185,3.555 -0.903,5.279c-1.087,1.724 -2.543,2.832 -4.368,3.326c-0.174,0.047 -0.582,0.002 -1.225,-0.135c-0.643,-0.137 -1.066,-0.178 -1.269,-0.123c-0.376,0.102 -0.533,0.269 -0.47,0.501c0.901,3.33 2.452,4.697 4.653,4.102c1.129,-0.306 2.07,-0.964 2.822,-1.976c0.461,-0.591 0.914,-1.444 1.358,-2.559c0.355,-0.872 0.619,-1.332 0.793,-1.379c0.666,-0.181 1.108,0.135 1.328,0.946Zm-5.16,-7.182c-0.274,-1.014 -0.821,-1.884 -1.639,-2.61c-0.818,-0.727 -1.705,-0.961 -2.66,-0.702c-1.159,0.313 -1.904,1.292 -2.236,2.936c-0.279,1.381 -0.242,2.722 0.11,4.026c0.227,0.839 0.685,1.469 1.374,1.889c0.688,0.42 1.452,0.516 2.292,0.289c1.188,-0.322 2.035,-1.095 2.543,-2.32c0.473,-1.122 0.545,-2.292 0.216,-3.508Z" style="fill:#fff;fill-rule:nonzero;"/><path d="M117.218,48.054c0.274,1.014 -0.262,2.076 -1.609,3.186c-1.125,0.895 -2.281,1.503 -3.469,1.824c-0.782,0.212 -1.73,0.266 -2.846,0.164c-0.613,-0.083 -1.66,-0.452 -3.143,-1.107c-1.622,-0.711 -2.488,-1.27 -2.598,-1.675c-0.242,-0.898 0.184,-1.448 1.279,-1.651l0.26,-0.071c0.293,0.853 1.474,1.544 3.544,2.072c1.873,0.488 3.301,0.598 4.286,0.332c1.274,-0.345 1.793,-0.952 1.558,-1.82c-0.141,-0.522 -1.118,-1.034 -2.933,-1.538c-2.48,-0.665 -4.213,-1.268 -5.198,-1.81c-2.008,-1.104 -3.282,-2.655 -3.823,-4.653c-0.408,-1.506 -0.404,-3.045 0.009,-4.618c0.459,-1.864 1.369,-2.981 2.73,-3.349c0.985,-0.266 2.296,-0.131 3.932,0.405c1.637,0.536 2.697,1.236 3.179,2.1c0.443,0.719 0.806,1.6 1.088,2.642c0.306,1.13 0.436,2.415 0.391,3.857c-0.206,0.273 -0.482,0.457 -0.83,0.551c-0.203,0.055 -0.543,0.062 -1.02,0.02c-0.478,-0.042 -0.74,-0.15 -0.787,-0.323c0.031,0.115 0.104,-0.246 0.219,-1.085c0.099,-0.555 -0.028,-1.484 -0.381,-2.788c-0.838,-3.098 -2.228,-4.385 -4.168,-3.86c-1.013,0.274 -1.64,1.174 -1.88,2.7c-0.223,1.241 -0.182,2.427 0.123,3.556c0.384,1.419 1.582,2.571 3.593,3.457c0.675,0.314 2.466,0.902 5.372,1.763c1.925,0.567 2.965,1.14 3.122,1.719Z" style="fill:#fff;fill-rule:nonzero;"/><path d="M119.532,19.737c-0.111,0.278 -0.222,0.728 -0.334,1.349c-0.03,4.483 0.484,9.255 1.542,14.314c0.047,0.174 0.095,0.495 0.144,0.963c0.049,0.469 0.109,0.833 0.18,1.094c0.094,0.347 0.623,1.385 1.588,3.113c-0.085,0.147 -0.24,0.376 -0.467,0.686c-0.108,0.06 -0.321,0.133 -0.64,0.22c-0.405,0.109 -0.74,0.138 -1.003,0.084c-0.446,-0.5 -0.873,-1.504 -1.28,-3.01c-0.079,-0.289 -0.118,-0.434 -0.118,-0.434l-2.83,-15.457c-0.031,-0.116 -0.214,-0.447 -0.549,-0.994c-0.334,-0.547 -0.524,-0.845 -0.568,-0.895c0.509,-0.759 1.169,-1.249 1.98,-1.468c0.724,-0.196 1.509,-0.051 2.355,0.435Zm5.647,26.21c0.541,1.998 -0.304,3.299 -2.534,3.902c-0.405,0.11 -1.243,0.057 -2.514,-0.159c-0.349,-0.372 -0.594,-0.818 -0.735,-1.339c-0.235,-0.869 -0.146,-1.515 0.268,-1.938c0.285,-0.325 0.862,-0.606 1.731,-0.841c2.287,-0.619 3.549,-0.494 3.784,0.375Z" style="fill:#fff;fill-rule:nonzero;"/></g><path d="M169.68,13.194l0.233,0.054l0.223,0.086l0.209,0.115l0.191,0.143l0.171,0.168l0.146,0.189l0.119,0.207l0.089,0.221l0.059,0.232l0.026,0.237l-0.006,0.239l-0.039,0.236l-0.115,0.491l-0.117,0.492l-0.118,0.489l-0.119,0.487l-0.12,0.484l-0.121,0.482l-0.122,0.48l-0.123,0.477l-0.124,0.474l-0.125,0.472l-0.126,0.47l-0.127,0.468l-0.128,0.464l-0.129,0.463l-0.13,0.46l-0.131,0.458l-0.132,0.456l-0.132,0.453l-0.134,0.45l-0.135,0.449l-0.135,0.446l-0.137,0.443l-0.137,0.442l-0.139,0.439l-0.139,0.436l-0.14,0.435l-0.142,0.432l-0.142,0.429l-0.143,0.428l-0.144,0.425l-0.144,0.423l-0.146,0.42l-0.147,0.419l-0.147,0.416l-0.148,0.413l-0.15,0.412l-0.15,0.409l-0.151,0.407l-0.151,0.405l-0.153,0.402l-0.153,0.4l-0.155,0.398l-0.155,0.396l-0.156,0.394l-0.157,0.391l-0.158,0.389l-0.158,0.387l-0.159,0.385l-0.16,0.383l-0.161,0.38l-0.162,0.378l-0.163,0.376l-0.163,0.374l-0.164,0.372l-0.165,0.369l-0.166,0.368l-0.166,0.365l-0.167,0.363l-0.168,0.361l-0.169,0.359l-0.17,0.357l-0.17,0.355l-0.171,0.352l-0.172,0.351l-0.172,0.348l-0.174,0.346l-0.174,0.345l-0.174,0.342l-0.176,0.34l-0.176,0.338l-0.177,0.336l-0.177,0.334l-0.179,0.331l-0.179,0.33l-0.179,0.328l-0.181,0.325l-0.181,0.324l-0.181,0.322l-0.183,0.319l-0.183,0.318l-0.184,0.316l-0.184,0.313l-0.185,0.312l-0.186,0.309l-0.186,0.308l-0.187,0.306l-0.188,0.303l-0.188,0.302l-0.189,0.3l-0.189,0.298l-0.19,0.296l-0.191,0.293l-0.192,0.292l-0.192,0.29l-0.192,0.289l-0.193,0.286l-0.194,0.284l-0.194,0.282l-0.195,0.281l-0.196,0.278l-0.196,0.277l-0.196,0.275l-0.198,0.273l-0.197,0.271l-0.199,0.269l-0.198,0.267l-0.2,0.265l-0.2,0.264l-0.2,0.262l-0.201,0.259l-0.202,0.258l-0.202,0.257l-0.202,0.254l-0.203,0.252l-0.204,0.251l-0.204,0.249l-0.204,0.247l-0.205,0.245l-0.206,0.244l-0.206,0.241l-0.206,0.24l-0.207,0.238l-0.208,0.237l-0.207,0.234l-0.209,0.233l-0.208,0.231l-0.21,0.229l-0.209,0.228l-0.21,0.226l-0.211,0.224l-0.211,0.222l-0.211,0.221l-0.212,0.219l-0.212,0.217l-0.212,0.215l-0.213,0.214l-0.214,0.212l-0.213,0.21l-0.214,0.209l-0.215,0.207l-0.215,0.205l-0.215,0.204l-0.215,0.202l-0.216,0.2l-0.217,0.199l-0.216,0.197l-0.217,0.195l-0.218,0.194l-0.217,0.192l-0.218,0.19l-0.218,0.189l-0.219,0.187l-0.219,0.186l-0.219,0.184l-0.219,0.182l-0.22,0.181l-0.22,0.179l-0.221,0.178l-0.22,0.176l-0.221,0.174l-0.221,0.173l-0.222,0.172l-0.221,0.17l-0.222,0.168l-0.222,0.166l-0.223,0.166l-0.222,0.163l-0.223,0.162l-0.223,0.161l-0.224,0.159l-0.223,0.158l-0.224,0.156l-0.224,0.154l-0.224,0.153l-0.224,0.152l-0.225,0.15l-0.224,0.148l-0.225,0.148l-0.225,0.145l-0.225,0.145l-0.226,0.142l-0.225,0.142l-0.226,0.139l-0.226,0.139l-0.225,0.137l-0.226,0.135l-0.227,0.135l-0.226,0.132l-0.226,0.132l-0.227,0.13l-0.226,0.128l-0.227,0.127l-0.227,0.126l-0.227,0.125l-0.227,0.123l-0.227,0.121l-0.227,0.121l-0.227,0.119l-0.227,0.117l-0.228,0.116l-0.227,0.115l-0.227,0.114l-0.228,0.112l-0.227,0.111l-0.228,0.11l-0.227,0.108l-0.228,0.107l-0.228,0.106l-0.227,0.104l-0.228,0.104l-0.227,0.102l-0.228,0.1l-0.227,0.1l-0.228,0.098l-0.227,0.097l-0.228,0.095l-0.227,0.095l-0.227,0.093l-0.228,0.092l-0.227,0.09l-0.227,0.09l-0.228,0.088l-0.227,0.087l-0.227,0.086l-0.227,0.085l-0.226,0.083l-0.227,0.083l-0.227,0.081l-0.226,0.08l-0.227,0.079l-0.226,0.077l-0.227,0.077l-0.226,0.075l-0.226,0.074l-0.226,0.074l-0.225,0.072l-0.226,0.07l-0.225,0.07l-0.226,0.069l-0.225,0.067l-0.225,0.067l-0.225,0.065l-0.224,0.065l-0.225,0.063l-0.224,0.062l-0.224,0.061l-0.224,0.06l-0.224,0.059l-0.223,0.058l-0.223,0.057l-0.224,0.056l-0.222,0.055l-0.223,0.054l-0.222,0.053l-0.223,0.052l-0.222,0.051l-0.221,0.05l-0.222,0.049l-0.221,0.047l-0.221,0.047l-0.221,0.046l-0.22,0.045l-0.22,0.044l-0.22,0.044l-0.219,0.042l-0.22,0.041l-0.219,0.04l-0.218,0.04l-0.219,0.038l-0.218,0.038l-0.218,0.037l-0.217,0.035l-0.217,0.035l-0.217,0.034l-0.216,0.033l-0.216,0.033l-0.216,0.031l-0.216,0.03l-0.215,0.03l-0.214,0.029l-0.215,0.028l-0.215,0.027l-0.426,0.052l-0.425,0.049l-0.424,0.045l-0.422,0.042l-0.42,0.039l-0.419,0.036l-0.417,0.033l-0.415,0.03l-0.414,0.028l-0.411,0.024l-0.41,0.021l-0.408,0.019l-0.406,0.016l-0.404,0.014l-0.402,0.01l-0.399,0.009l-0.398,0.005l-0.395,0.003l-0.394,0.001l-0.391,-0.001l-0.389,-0.004l-0.386,-0.006l-0.384,-0.008l-0.382,-0.011l-0.38,-0.013l-0.376,-0.014l-0.375,-0.017l-0.372,-0.018l-0.369,-0.021l-0.367,-0.022l-0.364,-0.025l-0.361,-0.026l-0.359,-0.027l-0.356,-0.03l-0.353,-0.031l-0.35,-0.032l-0.347,-0.034l-0.345,-0.036l-0.341,-0.037l-0.339,-0.038l-0.336,-0.04l-0.332,-0.04l-0.329,-0.043l-0.327,-0.043l-0.323,-0.044l-0.319,-0.046l-0.317,-0.046l-0.313,-0.048l-0.31,-0.048l-0.307,-0.05l-0.303,-0.05l-0.3,-0.051l-0.296,-0.051l-0.293,-0.053l-0.289,-0.053l-0.286,-0.053l-0.282,-0.055l-0.278,-0.054l-0.275,-0.055l-0.271,-0.056l-0.267,-0.055l-0.263,-0.057l-0.259,-0.056l-0.256,-0.056l-0.252,-0.057l-0.247,-0.057l-0.244,-0.057l-0.239,-0.057l-0.236,-0.057l-0.231,-0.056l-0.228,-0.057l-0.223,-0.056l-0.219,-0.056l-0.214,-0.056l-0.212,-0.056l-0.406,-0.11l-0.389,-0.108l-0.372,-0.105l-0.354,-0.103l-0.334,-0.1l-0.316,-0.097l-0.297,-0.093l-0.277,-0.088l-0.258,-0.084l-0.237,-0.079l-0.217,-0.073l-0.196,-0.068l-0.176,-0.061l-0.156,-0.056l-0.239,-0.088l-0.153,-0.057l-0.054,-0.021l-0.216,-0.101l-0.2,-0.13l-0.181,-0.156l-0.158,-0.179l-0.132,-0.199l-0.104,-0.215l-0.074,-0.228l-0.042,-0.235l-0.009,-0.238l0.023,-0.238l0.055,-0.233l0.087,-0.222l0.115,-0.209l0.144,-0.191l0.168,-0.17l0.189,-0.145l0.208,-0.119l0.221,-0.089l0.232,-0.057l0.238,-0.026l0.238,0.007l0.236,0.039l0.228,0.071l0.039,0.015l0.121,0.046l0.211,0.077l0.134,0.048l0.157,0.055l0.177,0.061l0.198,0.067l0.218,0.072l0.238,0.078l0.257,0.082l0.276,0.086l0.295,0.09l0.314,0.094l0.331,0.096l0.35,0.099l0.366,0.102l0.386,0.104l0.197,0.052l0.203,0.053l0.206,0.053l0.426,0.107l0.219,0.054l0.223,0.053l0.227,0.054l0.231,0.054l0.234,0.054l0.239,0.054l0.242,0.053l0.246,0.054l0.25,0.053l0.253,0.053l0.257,0.052l0.261,0.053l0.264,0.052l0.268,0.051l0.271,0.051l0.275,0.05l0.278,0.05l0.281,0.049l0.285,0.048l0.288,0.048l0.291,0.047l0.294,0.046l0.298,0.045l0.301,0.044l0.303,0.043l0.307,0.043l0.31,0.041l0.313,0.04l0.315,0.039l0.319,0.037l0.322,0.037l0.324,0.035l0.327,0.033l0.33,0.033l0.332,0.031l0.335,0.029l0.338,0.028l0.34,0.026l0.343,0.025l0.345,0.023l0.348,0.021l0.35,0.019l0.352,0.018l0.355,0.016l0.357,0.014l0.36,0.012l0.361,0.01l0.364,0.007l0.366,0.006l0.368,0.004l0.37,0.001l0.372,-0.001l0.375,-0.003l0.376,-0.005l0.378,-0.008l0.379,-0.01l0.382,-0.013l0.384,-0.015l0.385,-0.017l0.387,-0.021l0.388,-0.023l0.391,-0.025l0.391,-0.029l0.394,-0.031l0.395,-0.034l0.396,-0.037l0.398,-0.039l0.399,-0.043l0.401,-0.046l0.403,-0.049l0.2,-0.025l0.202,-0.027l0.202,-0.027l0.202,-0.028l0.203,-0.029l0.203,-0.029l0.204,-0.03l0.203,-0.032l0.204,-0.032l0.204,-0.032l0.205,-0.034l0.204,-0.034l0.205,-0.036l0.206,-0.036l0.205,-0.037l0.206,-0.038l0.206,-0.039l0.206,-0.039l0.206,-0.041l0.207,-0.041l0.207,-0.042l0.207,-0.044l0.208,-0.044l0.207,-0.045l0.208,-0.046l0.208,-0.046l0.208,-0.048l0.209,-0.049l0.208,-0.049l0.209,-0.051l0.209,-0.051l0.209,-0.053l0.21,-0.053l0.209,-0.055l0.21,-0.055l0.21,-0.056l0.21,-0.058l0.21,-0.058l0.21,-0.059l0.211,-0.06l0.21,-0.062l0.211,-0.062l0.211,-0.063l0.211,-0.064l0.211,-0.066l0.211,-0.066l0.212,-0.068l0.211,-0.068l0.212,-0.07l0.211,-0.07l0.212,-0.072l0.212,-0.072l0.212,-0.074l0.212,-0.075l0.212,-0.076l0.212,-0.077l0.212,-0.078l0.212,-0.079l0.213,-0.081l0.212,-0.081l0.212,-0.083l0.213,-0.083l0.213,-0.085l0.212,-0.086l0.213,-0.087l0.212,-0.088l0.213,-0.09l0.213,-0.09l0.212,-0.092l0.213,-0.093l0.213,-0.094l0.212,-0.095l0.213,-0.097l0.213,-0.097l0.213,-0.099l0.212,-0.1l0.213,-0.102l0.213,-0.102l0.212,-0.104l0.213,-0.105l0.212,-0.106l0.213,-0.107l0.212,-0.109l0.213,-0.11l0.212,-0.111l0.212,-0.113l0.213,-0.113l0.212,-0.115l0.212,-0.117l0.212,-0.117l0.212,-0.119l0.212,-0.12l0.212,-0.122l0.211,-0.123l0.212,-0.124l0.211,-0.125l0.212,-0.127l0.211,-0.128l0.211,-0.13l0.211,-0.131l0.211,-0.132l0.211,-0.133l0.211,-0.135l0.211,-0.137l0.21,-0.137l0.21,-0.14l0.21,-0.14l0.21,-0.142l0.21,-0.143l0.21,-0.145l0.209,-0.146l0.21,-0.148l0.209,-0.149l0.209,-0.15l0.209,-0.152l0.208,-0.153l0.209,-0.155l0.208,-0.157l0.208,-0.157l0.208,-0.159l0.208,-0.161l0.207,-0.162l0.208,-0.164l0.207,-0.165l0.206,-0.167l0.207,-0.168l0.206,-0.17l0.206,-0.171l0.206,-0.173l0.206,-0.174l0.205,-0.176l0.205,-0.178l0.205,-0.179l0.205,-0.181l0.204,-0.182l0.204,-0.183l0.204,-0.186l0.204,-0.187l0.203,-0.188l0.203,-0.19l0.202,-0.192l0.203,-0.194l0.202,-0.195l0.202,-0.196l0.201,-0.198l0.201,-0.2l0.201,-0.202l0.2,-0.203l0.201,-0.205l0.199,-0.207l0.2,-0.208l0.199,-0.21l0.199,-0.211l0.198,-0.214l0.198,-0.215l0.198,-0.217l0.198,-0.218l0.197,-0.22l0.196,-0.222l0.196,-0.224l0.196,-0.225l0.196,-0.227l0.195,-0.229l0.195,-0.231l0.194,-0.232l0.194,-0.234l0.193,-0.236l0.193,-0.238l0.193,-0.24l0.192,-0.241l0.192,-0.243l0.191,-0.245l0.191,-0.247l0.191,-0.249l0.19,-0.25l0.189,-0.253l0.189,-0.254l0.189,-0.256l0.188,-0.258l0.188,-0.26l0.187,-0.261l0.187,-0.264l0.186,-0.265l0.186,-0.268l0.185,-0.269l0.185,-0.271l0.184,-0.273l0.184,-0.275l0.183,-0.277l0.183,-0.279l0.182,-0.28l0.182,-0.283l0.181,-0.285l0.181,-0.286l0.18,-0.289l0.179,-0.29l0.179,-0.293l0.179,-0.294l0.178,-0.297l0.177,-0.298l0.176,-0.301l0.177,-0.302l0.175,-0.305l0.175,-0.306l0.174,-0.309l0.174,-0.311l0.173,-0.312l0.173,-0.315l0.172,-0.317l0.171,-0.319l0.171,-0.32l0.17,-0.323l0.169,-0.325l0.169,-0.328l0.168,-0.329l0.168,-0.331l0.166,-0.334l0.167,-0.335l0.165,-0.338l0.165,-0.34l0.164,-0.341l0.163,-0.344l0.163,-0.347l0.162,-0.348l0.162,-0.351l0.161,-0.352l0.16,-0.355l0.159,-0.357l0.158,-0.359l0.158,-0.362l0.157,-0.363l0.157,-0.366l0.156,-0.368l0.154,-0.37l0.155,-0.373l0.153,-0.374l0.153,-0.377l0.152,-0.379l0.151,-0.381l0.15,-0.384l0.15,-0.386l0.149,-0.388l0.148,-0.39l0.147,-0.393l0.147,-0.395l0.145,-0.397l0.145,-0.4l0.144,-0.402l0.143,-0.404l0.143,-0.406l0.141,-0.409l0.141,-0.411l0.14,-0.413l0.139,-0.416l0.138,-0.418l0.138,-0.421l0.136,-0.422l0.136,-0.426l0.135,-0.427l0.134,-0.43l0.133,-0.432l0.132,-0.435l0.131,-0.437l0.131,-0.439l0.129,-0.442l0.129,-0.444l0.127,-0.447l0.127,-0.449l0.126,-0.452l0.125,-0.454l0.124,-0.456l0.123,-0.459l0.122,-0.461l0.121,-0.464l0.121,-0.466l0.119,-0.469l0.118,-0.471l0.118,-0.474l0.116,-0.476l0.115,-0.478l0.115,-0.481l0.114,-0.487l0.07,-0.228l0.101,-0.217l0.129,-0.2l0.156,-0.182l0.178,-0.158l0.199,-0.133l0.215,-0.104l0.227,-0.075l0.235,-0.042l0.238,-0.01l0.238,0.022Z" style="fill:#fff;"/><path d="M171.222,12.475l0.839,1.418l1.186,2.006l0.668,1.132l0.689,1.17l0.688,1.17l0.666,1.135l0.622,1.062l0.556,0.954l0.247,0.426l0.222,0.386l0.196,0.342l0.167,0.293l0.136,0.242l0.058,0.105l0.051,0.094l0.046,0.088l0.051,0.102l0.072,0.166l0.088,0.293l0.048,0.648l-0.194,0.416l-0.054,0.106l-0.061,0.103l-0.068,0.098l-0.075,0.093l-0.081,0.088l-0.087,0.082l-0.092,0.076l-0.097,0.07l-0.102,0.063l-0.105,0.055l-0.11,0.049l-0.112,0.04l-0.115,0.033l-0.117,0.026l-0.118,0.017l-0.119,0.009l-0.12,0.001l-0.119,-0.008l-0.118,-0.015l-0.118,-0.024l-0.115,-0.031l-0.113,-0.039l-0.11,-0.047l-0.106,-0.054l-0.103,-0.062l-0.098,-0.068l-0.093,-0.075l-0.088,-0.081l-0.082,-0.087l-0.076,-0.092l-0.07,-0.097l-0.062,-0.102l-0.056,-0.105l-0.035,-0.079l-0.005,-0.009l-0.034,-0.063l-0.045,-0.082l-0.124,-0.222l-0.159,-0.279l-0.19,-0.331l-0.219,-0.379l-0.243,-0.42l-0.553,-0.948l-0.619,-1.058l-0.664,-1.131l-0.686,-1.167l-0.688,-1.168l-0.667,-1.13l-1.184,-2.004l-0.279,-0.47l-5.414,3.1l-6.963,3.986l-0.019,0.01l-0.107,0.054l-0.11,0.046l-0.113,0.038l-0.116,0.03l-0.117,0.023l-0.119,0.014l-0.119,0.006l-0.12,-0.001l-0.119,-0.011l-0.118,-0.018l-0.117,-0.026l-0.114,-0.034l-0.112,-0.042l-0.109,-0.049l-0.105,-0.057l-0.101,-0.063l-0.097,-0.071l-0.091,-0.077l-0.086,-0.083l-0.08,-0.088l-0.074,-0.094l-0.068,-0.099l-0.06,-0.103l-0.053,-0.107l-0.046,-0.11l-0.039,-0.113l-0.03,-0.116l-0.022,-0.117l-0.015,-0.119l-0.006,-0.119l0.002,-0.12l0.01,-0.119l0.018,-0.118l0.026,-0.116l0.034,-0.115l0.042,-0.112l0.049,-0.109l0.057,-0.105l0.064,-0.101l0.07,-0.097l0.077,-0.091l0.083,-0.086l0.088,-0.08l0.094,-0.074l0.099,-0.068l0.103,-0.06l-0.018,0.01l6.928,-3.966l8.407,-4.814l1.198,2.021Zm3.869,13.501l0.015,0.032l-0.026,-0.071l0.011,0.039Zm-0.097,-0.466l0.014,0.189l0.047,0.154l-0.013,-0.045l-0.026,-0.116l-0.017,-0.119l-0.004,-0.064l-0.001,0.001Z" style="fill:#fff;"/></svg>
