<?xml version="1.0" encoding="UTF-8" standalone="no"?><!DOCTYPE svg PUBLIC "-//W3C//DTD SVG 1.1//EN" "http://www.w3.org/Graphics/SVG/1.1/DTD/svg11.dtd"><svg width="100%" height="100%" viewBox="0 0 842 312" version="1.1" xmlns="http://www.w3.org/2000/svg" xmlns:xlink="http://www.w3.org/1999/xlink" xml:space="preserve" xmlns:serif="http://www.serif.com/" style="fill-rule:evenodd;clip-rule:evenodd;stroke-linejoin:round;stroke-miterlimit:2;"><g id="logo"><path d="M652.927,209.834l0,-114.511l-43.053,0l0,142.022l119.87,0l0,-27.511l-76.817,0Z" style="fill:#0266cd;fill-opacity:0.7;fill-rule:nonzero;"/><path d="M198.814,152.132l-72.35,0l0,-31.799l76.817,0l0,-27.511l-76.817,0l-43.232,0l0,144.523l43.232,0l0,-58.774l72.35,0l0,-26.439Z" style="fill:#0266cd;fill-opacity:0.7;fill-rule:nonzero;"/><path d="M522.874,95.323l-36.979,0l-1.965,0l-1.251,1.965l0,67.706l21.616,-37.515l63.419,109.866l38.944,0l-81.819,-142.022l-1.965,0Z" style="fill:#0266cd;fill-opacity:0.85;fill-rule:nonzero;"/><path d="M396.037,237.345l-80.568,-139.878l0,67.706l41.624,72.172l38.944,0Z" style="fill:#0266cd;fill-rule:nonzero;"/><path d="M402.111,237.345l38.944,0l41.624,-72.351l0,-67.706l-80.568,140.057Z" style="fill:#0266cd;fill-rule:nonzero;"/><g><path d="M729.744,163.029l-44.483,-23.223l0,-44.483l44.483,0l0,67.706Z" style="fill:#ffa001;fill-rule:nonzero;"/><g><path d="M703.348,108.67c0,9.696 -9.522,11.328 -9.522,21.216l0,4.128l13.89,0l0,-4.8l-9.086,0c-0.043,-0.24 -0.043,-0.48 -0.043,-0.72c0,-5.52 9.566,-9.456 9.566,-20.016c0,-5.376 -2.446,-8.448 -7.164,-8.448c-4.717,0 -7.163,3.072 -7.163,8.448l0,3.264l4.542,0l0,-3.6c0,-2.4 0.961,-3.312 2.49,-3.312c1.529,0 2.49,0.816 2.49,3.84Z" style="fill:#fff;fill-rule:nonzero;"/><path d="M714.574,108.142c0,-2.4 0.961,-3.312 2.489,-3.312c1.529,0 2.49,0.912 2.49,3.312l0,18.144c0,2.4 -0.961,3.312 -2.49,3.312c-1.528,0 -2.489,-0.912 -2.489,-3.312l0,-18.144Zm-4.805,17.808c0,5.376 2.577,8.448 7.294,8.448c4.718,0 7.295,-3.072 7.295,-8.448l0,-17.472c0,-5.376 -2.577,-8.448 -7.295,-8.448c-4.717,0 -7.294,3.072 -7.294,8.448l0,17.472Z" style="fill:#fff;fill-rule:nonzero;"/></g></g><path d="M314.218,95.323l-1.965,0l-36.979,0l-1.965,0l-81.819,142.022l38.944,0l63.419,-109.866l21.616,37.694l0,-67.706l-1.251,-2.144Z" style="fill:#0266cd;fill-opacity:0.85;fill-rule:nonzero;"/></g></svg>