<?xml version="1.0" encoding="UTF-8" standalone="no"?><!DOCTYPE svg PUBLIC "-//W3C//DTD SVG 1.1//EN" "http://www.w3.org/Graphics/SVG/1.1/DTD/svg11.dtd"><svg width="100%" height="100%" viewBox="0 0 1200 1000" version="1.1" xmlns="http://www.w3.org/2000/svg" xmlns:xlink="http://www.w3.org/1999/xlink" xml:space="preserve" xmlns:serif="http://www.serif.com/" style="fill-rule:evenodd;clip-rule:evenodd;stroke-linejoin:round;stroke-miterlimit:1.41421;"><path id="_-Rectángulo-" serif:id="(Rectángulo)" d="M565.244,661.602l-337.064,59.382l13.922,79.026l337.064,-59.382l-13.922,-79.026Z" style="fill:#e7b6b6;"/><g><path d="M141.059,664.128l8.536,48.455l14.243,-2.509l1.411,8.008l-21.553,3.797l-9.947,-56.463l7.31,-1.288Z" style="fill:#ccc;fill-rule:nonzero;"/><path d="M166.208,699.287c-0.906,-5.144 -0.098,-9.798 2.424,-13.963c2.523,-4.164 6.054,-6.646 10.592,-7.446c4.56,-0.803 8.749,0.331 12.568,3.404c3.778,3.08 6.132,7.265 7.064,12.555c0.941,5.339 0.15,10.091 -2.373,14.256c-2.547,4.144 -6.132,6.623 -10.755,7.437c-4.58,0.807 -8.74,-0.345 -12.48,-3.457c-3.731,-3.063 -6.078,-7.325 -7.04,-12.786Zm7.242,-1.125c0.627,3.56 1.939,6.232 3.935,8.017c2.043,1.802 4.434,2.461 7.174,1.979c2.761,-0.487 4.785,-1.912 6.072,-4.275c1.287,-2.363 1.626,-5.276 1.016,-8.738c-0.61,-3.462 -1.924,-6.083 -3.941,-7.865c-2.043,-1.802 -4.434,-2.461 -7.174,-1.978c-2.698,0.475 -4.699,1.908 -6.003,4.3c-1.304,2.391 -1.663,5.245 -1.079,8.56Z" style="fill:#ccc;fill-rule:nonzero;"/><path d="M222.006,677.618l-5.198,4.648c-1.307,-2.032 -2.64,-2.928 -3.999,-2.688c-0.649,0.114 -1.159,0.461 -1.531,1.042c-0.372,0.581 -0.489,1.262 -0.352,2.042c0.241,1.365 1.839,2.479 4.794,3.34c4.074,1.218 6.9,2.505 8.476,3.861c1.575,1.357 2.6,3.376 3.072,6.057c0.606,3.438 0.025,6.506 -1.742,9.206c-1.726,2.566 -4.085,4.113 -7.075,4.639c-5.125,0.903 -9.267,-1.371 -12.427,-6.822l5.451,-4.316c1.137,1.559 1.966,2.532 2.487,2.918c1.02,0.775 2.127,1.058 3.319,0.848c2.384,-0.42 3.353,-1.898 2.907,-4.434c-0.258,-1.462 -1.419,-2.665 -3.483,-3.609c-0.784,-0.289 -1.566,-0.566 -2.346,-0.831c-0.78,-0.265 -1.572,-0.54 -2.377,-0.825c-2.256,-0.809 -3.905,-1.725 -4.948,-2.748c-1.329,-1.299 -2.199,-3.119 -2.612,-5.46c-0.545,-3.096 -0.086,-5.816 1.377,-8.16c1.505,-2.352 3.585,-3.761 6.242,-4.229c3.911,-0.689 7.233,1.151 9.965,5.521Z" style="fill:#ccc;fill-rule:nonzero;"/><path d="M267.905,669.532l-5.198,4.648c-1.307,-2.032 -2.64,-2.928 -3.999,-2.689c-0.649,0.115 -1.159,0.462 -1.531,1.043c-0.372,0.581 -0.489,1.261 -0.352,2.042c0.241,1.365 1.839,2.478 4.794,3.34c4.074,1.218 6.9,2.505 8.476,3.861c1.576,1.356 2.6,3.375 3.072,6.057c0.606,3.438 0.025,6.506 -1.742,9.205c-1.726,2.567 -4.084,4.113 -7.075,4.64c-5.125,0.903 -9.267,-1.371 -12.427,-6.822l5.451,-4.316c1.137,1.559 1.966,2.532 2.487,2.918c1.02,0.775 2.127,1.058 3.319,0.848c2.384,-0.42 3.353,-1.898 2.907,-4.434c-0.258,-1.463 -1.419,-2.666 -3.483,-3.609c-0.784,-0.289 -1.566,-0.566 -2.346,-0.831c-0.78,-0.265 -1.572,-0.54 -2.377,-0.826c-2.256,-0.809 -3.905,-1.725 -4.948,-2.747c-1.329,-1.3 -2.199,-3.12 -2.612,-5.46c-0.545,-3.096 -0.086,-5.816 1.377,-8.16c1.505,-2.352 3.585,-3.762 6.242,-4.23c3.911,-0.689 7.233,1.152 9.965,5.522Z" style="fill:#ccc;fill-rule:nonzero;"/><path d="M282.208,660.753l3.602,20.442c1.039,5.9 3.556,8.498 7.551,7.795c3.995,-0.704 5.473,-4.006 4.433,-9.906l-3.601,-20.442l7.059,-1.244l3.634,20.625c0.502,2.853 0.633,5.368 0.391,7.548c-0.259,1.956 -0.979,3.804 -2.16,5.546c-1.96,2.833 -4.78,4.574 -8.461,5.223c-3.66,0.645 -6.895,-0.03 -9.705,-2.023c-1.726,-1.229 -3.055,-2.717 -3.988,-4.463c-0.878,-1.555 -1.604,-3.965 -2.18,-7.232l-3.634,-20.625l7.059,-1.244Z" style="fill:#ccc;fill-rule:nonzero;"/><path d="M341.469,670.673l-21.899,3.858c0.704,2.893 1.93,5.077 3.678,6.554c1.744,1.452 3.745,1.979 6.004,1.581c1.757,-0.309 3.125,-1.053 4.103,-2.231c0.958,-1.174 1.926,-3.204 2.906,-6.092l6.644,2.826c-0.599,1.991 -1.295,3.729 -2.09,5.214c-0.795,1.485 -1.704,2.751 -2.728,3.798c-1.023,1.048 -2.18,1.886 -3.47,2.516c-1.291,0.629 -2.731,1.084 -4.321,1.364c-4.559,0.803 -8.52,-0.258 -11.882,-3.185c-3.367,-2.951 -5.551,-7.267 -6.551,-12.948c-0.992,-5.631 -0.457,-10.426 1.606,-14.384c2.092,-3.913 5.366,-6.262 9.821,-7.047c4.497,-0.792 8.347,0.252 11.55,3.131c3.177,2.859 5.284,7.226 6.319,13.102l0.31,1.943Zm-8.433,-5.452c-1.756,-4.215 -4.516,-5.991 -8.281,-5.328c-0.858,0.151 -1.636,0.446 -2.335,0.883c-0.7,0.437 -1.307,0.997 -1.823,1.679c-0.516,0.681 -0.923,1.463 -1.221,2.345c-0.297,0.882 -0.471,1.855 -0.52,2.919l14.18,-2.498Z" style="fill:#ccc;fill-rule:nonzero;"/><path d="M345.708,649.566l7.09,-1.249l0.58,3.291c1.965,-3.287 4.496,-5.203 7.591,-5.749c3.556,-0.626 6.557,0.19 9.004,2.448c2.106,1.917 3.601,5.386 4.486,10.408l3.846,21.833l-7.09,1.249l-3.505,-19.894c-0.619,-3.511 -1.464,-5.863 -2.537,-7.056c-1.056,-1.222 -2.662,-1.643 -4.816,-1.264c-2.342,0.413 -3.846,1.608 -4.512,3.585c-0.648,1.95 -0.582,5.143 0.2,9.58l3.028,17.188l-7.09,1.249l-6.275,-35.619Zm2.883,-6.767l-4.825,-3.335l0.646,-1.66c0.414,-1.078 0.834,-2.001 1.259,-2.767c0.426,-0.766 0.884,-1.412 1.373,-1.938c0.49,-0.526 1.022,-0.934 1.596,-1.224c0.574,-0.29 1.217,-0.497 1.928,-0.623c1.632,-0.287 3.636,0.013 6.014,0.902c2.403,0.909 3.918,1.308 4.545,1.197c1.171,-0.206 2.236,-1.751 3.195,-4.635l4.667,3.175c-1.183,5.034 -3.49,7.854 -6.92,8.458c-1.171,0.207 -3.205,-0.139 -6.102,-1.036c-2.101,-0.786 -3.622,-1.097 -4.563,-0.931c-1.151,0.203 -2.088,1.675 -2.813,4.417Z" style="fill:#ccc;fill-rule:nonzero;"/><path d="M382.589,661.167c-0.906,-5.144 -0.098,-9.799 2.425,-13.963c2.522,-4.165 6.053,-6.647 10.591,-7.447c4.56,-0.803 8.749,0.332 12.569,3.404c3.777,3.08 6.131,7.265 7.063,12.556c0.941,5.339 0.15,10.091 -2.372,14.255c-2.548,4.144 -6.133,6.623 -10.756,7.438c-4.58,0.807 -8.74,-0.346 -12.48,-3.457c-3.731,-3.063 -6.078,-7.325 -7.04,-12.786Zm7.242,-1.125c0.627,3.559 1.939,6.231 3.935,8.016c2.043,1.802 4.434,2.462 7.174,1.979c2.761,-0.486 4.785,-1.911 6.072,-4.275c1.287,-2.363 1.626,-5.276 1.016,-8.738c-0.61,-3.462 -1.923,-6.083 -3.941,-7.864c-2.042,-1.802 -4.434,-2.462 -7.174,-1.979c-2.698,0.475 -4.699,1.909 -6.003,4.3c-1.303,2.392 -1.663,5.245 -1.079,8.561Z" style="fill:#ccc;fill-rule:nonzero;"/><path d="M438.387,639.497l-5.198,4.649c-1.306,-2.032 -2.64,-2.929 -3.999,-2.689c-0.648,0.114 -1.159,0.462 -1.531,1.043c-0.372,0.58 -0.489,1.261 -0.352,2.041c0.241,1.365 1.839,2.479 4.794,3.341c4.074,1.217 6.9,2.504 8.476,3.861c1.576,1.356 2.6,3.375 3.072,6.057c0.606,3.437 0.025,6.506 -1.742,9.205c-1.726,2.566 -4.084,4.113 -7.075,4.64c-5.125,0.903 -9.267,-1.372 -12.427,-6.822l5.451,-4.316c1.137,1.559 1.966,2.531 2.487,2.917c1.021,0.775 2.127,1.058 3.319,0.848c2.385,-0.42 3.353,-1.898 2.907,-4.433c-0.258,-1.463 -1.419,-2.666 -3.483,-3.61c-0.784,-0.289 -1.566,-0.566 -2.346,-0.831c-0.78,-0.264 -1.572,-0.54 -2.377,-0.825c-2.256,-0.809 -3.905,-1.725 -4.948,-2.748c-1.329,-1.299 -2.199,-3.119 -2.612,-5.459c-0.545,-3.097 -0.086,-5.817 1.377,-8.161c1.505,-2.351 3.586,-3.761 6.242,-4.229c3.911,-0.689 7.233,1.151 9.965,5.521Z" style="fill:#ccc;fill-rule:nonzero;"/><path d="M489.511,625.815l1.926,10.935c-2.014,-2.008 -3.734,-3.327 -5.16,-3.955c-1.41,-0.657 -2.962,-0.836 -4.656,-0.537c-2.656,0.468 -4.672,1.941 -6.046,4.421c-1.375,2.479 -1.775,5.352 -1.199,8.619c0.588,3.34 1.919,5.933 3.991,7.78c2.093,1.844 4.468,2.531 7.124,2.063c1.694,-0.298 3.114,-0.988 4.261,-2.07c1.109,-1.05 2.3,-2.919 3.573,-5.607l1.913,10.862c-2.56,2.235 -5.273,3.606 -8.139,4.111c-4.726,0.832 -8.993,-0.251 -12.799,-3.25c-3.811,-3.024 -6.184,-7.193 -7.121,-12.508c-0.936,-5.315 -0.116,-10.085 2.461,-14.309c2.577,-4.224 6.208,-6.749 10.893,-7.575c3.012,-0.53 6.004,-0.19 8.978,1.02Z" style="fill:#ccc;fill-rule:nonzero;"/><path d="M518.606,619.106l7.09,-1.249l6.275,35.619l-7.09,1.249l-0.657,-3.73c-2.349,3.681 -5.197,5.817 -8.544,6.406c-4.224,0.745 -8.031,-0.42 -11.419,-3.493c-3.38,-3.15 -5.549,-7.443 -6.506,-12.88c-0.941,-5.339 -0.355,-10.029 1.758,-14.072c2.113,-4.042 5.229,-6.426 9.35,-7.152c3.555,-0.626 7.046,0.519 10.471,3.434l-0.728,-4.132Zm-13.635,20.651c0.601,3.413 1.875,6.054 3.821,7.923c1.993,1.887 4.213,2.614 6.66,2.183c2.615,-0.461 4.542,-1.881 5.784,-4.262c1.228,-2.453 1.548,-5.35 0.959,-8.69c-0.588,-3.34 -1.879,-5.953 -3.872,-7.839c-1.984,-1.837 -4.262,-2.529 -6.835,-2.076c-2.426,0.427 -4.266,1.857 -5.519,4.29c-1.228,2.454 -1.561,5.277 -0.998,8.471Z" style="fill:#ccc;fill-rule:nonzero;"/><path d="M551.355,670.044l-7.059,1.244l-9.69,-55.001l7.059,-1.244l0.683,3.877c2.21,-3.733 5.083,-5.91 8.618,-6.533c4.204,-0.741 7.983,0.453 11.338,3.583c3.392,3.097 5.569,7.376 6.531,12.837c0.941,5.34 0.355,10.03 -1.758,14.072c-2.096,4.015 -5.215,6.386 -9.356,7.116c-3.577,0.63 -7.071,-0.476 -10.483,-3.319l4.117,23.368Zm10.271,-39.929c-0.602,-3.413 -1.886,-6.052 -3.853,-7.918c-1.993,-1.886 -4.213,-2.613 -6.66,-2.182c-2.594,0.457 -4.511,1.876 -5.752,4.256c-1.241,2.38 -1.561,5.277 -0.96,8.69c0.588,3.34 1.879,5.953 3.872,7.839c1.963,1.841 4.241,2.533 6.835,2.077c2.447,-0.432 4.276,-1.86 5.488,-4.285c1.253,-2.433 1.597,-5.259 1.03,-8.477Z" style="fill:#ccc;fill-rule:nonzero;"/><path d="M573.132,609.5l7.059,-1.244l0.561,3.182c1.017,-1.813 1.977,-3.101 2.877,-3.863c0.918,-0.79 2.077,-1.309 3.479,-1.555c1.861,-0.328 3.931,0.036 6.209,1.093l-1.905,8.102c-1.536,-0.885 -2.942,-1.216 -4.218,-0.991c-3.848,0.678 -5.175,4.406 -3.981,11.183l3.253,18.468l-7.059,1.244l-6.275,-35.619Z" style="fill:#ccc;fill-rule:nonzero;"/><path d="M605.196,603.851l6.275,35.619l-7.059,1.243l-6.275,-35.618l7.059,-1.244Zm-10.735,-13.379c-0.254,-1.439 -0.023,-2.761 0.692,-3.968c0.714,-1.207 1.699,-1.921 2.954,-2.142c1.276,-0.225 2.456,0.108 3.54,0.998c1.08,0.865 1.751,2.042 2.013,3.529c0.262,1.487 0.035,2.834 -0.679,4.041c-0.694,1.203 -1.679,1.917 -2.955,2.142c-1.276,0.224 -2.456,-0.108 -3.54,-0.998c-1.084,-0.89 -1.759,-2.091 -2.025,-3.602Z" style="fill:#ccc;fill-rule:nonzero;"/><path d="M638.189,599.622l1.926,10.934c-2.014,-2.008 -3.735,-3.326 -5.161,-3.954c-1.409,-0.657 -2.961,-0.836 -4.655,-0.538c-2.657,0.468 -4.672,1.942 -6.047,4.421c-1.374,2.48 -1.774,5.353 -1.198,8.62c0.588,3.34 1.918,5.933 3.991,7.78c2.093,1.843 4.467,2.531 7.123,2.063c1.695,-0.298 3.115,-0.988 4.261,-2.07c1.109,-1.05 2.3,-2.919 3.574,-5.607l1.913,10.862c-2.56,2.235 -5.273,3.606 -8.139,4.11c-4.727,0.833 -8.993,-0.25 -12.8,-3.25c-3.81,-3.023 -6.183,-7.193 -7.12,-12.507c-0.936,-5.315 -0.116,-10.085 2.461,-14.309c2.577,-4.225 6.207,-6.749 10.892,-7.575c3.012,-0.53 6.005,-0.19 8.979,1.02Z" style="fill:#ccc;fill-rule:nonzero;"/><path d="M641.814,570.441l7.059,-1.244l5.128,29.11c2.046,-3.075 4.585,-4.88 7.618,-5.414c3.451,-0.608 6.442,0.21 8.972,2.453c2.156,1.958 3.673,5.424 4.549,10.397l3.846,21.832l-7.059,1.244l-3.711,-21.064c-0.502,-2.853 -1.3,-4.842 -2.394,-5.969c-1.093,-1.127 -2.602,-1.521 -4.527,-1.182c-2.468,0.434 -4.047,1.63 -4.737,3.587c-0.665,1.977 -0.611,5.16 0.162,9.548l3.034,17.225l-7.059,1.243l-10.881,-61.766Z" style="fill:#ccc;fill-rule:nonzero;"/><path d="M683.302,608.189c-0.907,-5.144 -0.099,-9.798 2.424,-13.963c2.523,-4.165 6.053,-6.647 10.592,-7.446c4.559,-0.804 8.749,0.331 12.568,3.403c3.777,3.08 6.132,7.265 7.064,12.556c0.94,5.339 0.149,10.091 -2.373,14.256c-2.548,4.143 -6.133,6.623 -10.755,7.437c-4.581,0.807 -8.741,-0.345 -12.481,-3.457c-3.731,-3.063 -6.077,-7.325 -7.039,-12.786Zm7.241,-1.125c0.627,3.559 1.939,6.232 3.935,8.017c2.043,1.801 4.434,2.461 7.174,1.978c2.761,-0.486 4.785,-1.911 6.072,-4.274c1.288,-2.364 1.626,-5.276 1.016,-8.738c-0.609,-3.462 -1.923,-6.084 -3.941,-7.865c-2.042,-1.802 -4.433,-2.461 -7.173,-1.979c-2.698,0.476 -4.699,1.909 -6.003,4.3c-1.304,2.392 -1.664,5.245 -1.08,8.561Z" style="fill:#ccc;fill-rule:nonzero;"/><path d="M739.099,586.52l-5.197,4.648c-1.307,-2.032 -2.64,-2.928 -4,-2.689c-0.648,0.114 -1.158,0.462 -1.53,1.043c-0.373,0.581 -0.49,1.261 -0.352,2.041c0.24,1.366 1.838,2.479 4.793,3.341c4.075,1.218 6.9,2.505 8.476,3.861c1.576,1.356 2.6,3.375 3.073,6.057c0.605,3.437 0.024,6.506 -1.743,9.205c-1.726,2.567 -4.084,4.113 -7.075,4.64c-5.124,0.903 -9.266,-1.371 -12.426,-6.822l5.45,-4.316c1.137,1.559 1.966,2.532 2.487,2.917c1.021,0.776 2.127,1.059 3.32,0.848c2.384,-0.42 3.353,-1.897 2.906,-4.433c-0.258,-1.463 -1.418,-2.666 -3.482,-3.609c-0.784,-0.289 -1.566,-0.566 -2.346,-0.831c-0.78,-0.265 -1.573,-0.54 -2.378,-0.826c-2.256,-0.809 -3.905,-1.725 -4.948,-2.748c-1.328,-1.299 -2.199,-3.119 -2.611,-5.459c-0.546,-3.096 -0.087,-5.817 1.376,-8.161c1.505,-2.351 3.586,-3.761 6.242,-4.229c3.911,-0.689 7.233,1.152 9.965,5.522Z" style="fill:#ccc;fill-rule:nonzero;"/><path d="M747.993,596.792c-0.906,-5.144 -0.098,-9.798 2.425,-13.963c2.522,-4.165 6.053,-6.647 10.591,-7.446c4.56,-0.804 8.749,0.331 12.568,3.403c3.778,3.08 6.132,7.265 7.064,12.556c0.941,5.339 0.15,10.091 -2.372,14.256c-2.548,4.143 -6.133,6.623 -10.756,7.437c-4.58,0.807 -8.74,-0.345 -12.48,-3.457c-3.731,-3.063 -6.078,-7.325 -7.04,-12.786Zm7.242,-1.125c0.627,3.56 1.939,6.232 3.935,8.017c2.043,1.801 4.434,2.461 7.174,1.978c2.761,-0.486 4.785,-1.911 6.072,-4.274c1.287,-2.364 1.626,-5.276 1.016,-8.738c-0.61,-3.462 -1.924,-6.084 -3.941,-7.865c-2.043,-1.802 -4.434,-2.461 -7.174,-1.979c-2.698,0.476 -4.699,1.909 -6.003,4.3c-1.304,2.392 -1.663,5.245 -1.079,8.561Z" style="fill:#ccc;fill-rule:nonzero;"/><path d="M803.791,575.123l-5.198,4.648c-1.306,-2.032 -2.64,-2.928 -3.999,-2.689c-0.649,0.115 -1.159,0.462 -1.531,1.043c-0.372,0.581 -0.489,1.261 -0.352,2.041c0.241,1.366 1.839,2.479 4.794,3.341c4.074,1.218 6.9,2.505 8.476,3.861c1.576,1.356 2.6,3.375 3.072,6.057c0.606,3.438 0.025,6.506 -1.742,9.205c-1.726,2.567 -4.084,4.113 -7.075,4.64c-5.125,0.903 -9.267,-1.371 -12.427,-6.822l5.451,-4.316c1.137,1.559 1.966,2.532 2.487,2.918c1.021,0.775 2.127,1.058 3.319,0.848c2.385,-0.421 3.353,-1.898 2.907,-4.434c-0.258,-1.463 -1.419,-2.666 -3.483,-3.609c-0.784,-0.289 -1.566,-0.566 -2.346,-0.831c-0.78,-0.265 -1.572,-0.54 -2.377,-0.826c-2.256,-0.809 -3.905,-1.725 -4.948,-2.748c-1.329,-1.299 -2.199,-3.119 -2.612,-5.459c-0.545,-3.096 -0.086,-5.817 1.377,-8.161c1.505,-2.351 3.586,-3.761 6.242,-4.229c3.911,-0.689 7.233,1.152 9.965,5.522Z" style="fill:#ccc;fill-rule:nonzero;"/><path d="M167.579,733.508l7.09,-1.249l10.882,61.766l-7.091,1.249l-0.657,-3.73c-2.223,3.659 -5.092,5.799 -8.606,6.418c-4.183,0.737 -7.968,-0.431 -11.356,-3.504c-3.38,-3.15 -5.549,-7.444 -6.507,-12.88c-0.936,-5.315 -0.348,-9.994 1.765,-14.036c2.088,-4.063 5.192,-6.457 9.312,-7.183c3.577,-0.63 7.077,0.513 10.502,3.429l-5.334,-30.28Zm-9.029,46.798c0.602,3.414 1.876,6.055 3.822,7.924c1.993,1.886 4.213,2.613 6.66,2.182c2.614,-0.46 4.542,-1.881 5.783,-4.261c1.229,-2.454 1.548,-5.351 0.96,-8.691c-0.588,-3.34 -1.879,-5.953 -3.872,-7.839c-1.984,-1.837 -4.262,-2.529 -6.835,-2.076c-2.426,0.428 -4.266,1.858 -5.519,4.291c-1.229,2.453 -1.561,5.277 -0.999,8.47Z" style="fill:#ccc;fill-rule:nonzero;"/><path d="M219.493,771.681l-21.899,3.858c0.704,2.893 1.93,5.077 3.678,6.554c1.744,1.452 3.745,1.98 6.004,1.582c1.757,-0.31 3.125,-1.054 4.103,-2.231c0.958,-1.175 1.926,-3.205 2.905,-6.093l6.644,2.827c-0.598,1.99 -1.294,3.728 -2.09,5.213c-0.795,1.485 -1.704,2.751 -2.727,3.798c-1.023,1.048 -2.18,1.886 -3.471,2.516c-1.29,0.629 -2.731,1.084 -4.32,1.364c-4.56,0.804 -8.521,-0.258 -11.883,-3.185c-3.366,-2.951 -5.55,-7.267 -6.551,-12.947c-0.992,-5.632 -0.456,-10.427 1.607,-14.385c2.092,-3.913 5.366,-6.262 9.821,-7.047c4.497,-0.792 8.347,0.252 11.549,3.131c3.178,2.859 5.285,7.226 6.32,13.102l0.31,1.943Zm-8.433,-5.452c-1.756,-4.215 -4.517,-5.991 -8.281,-5.327c-0.858,0.151 -1.636,0.445 -2.336,0.882c-0.699,0.438 -1.306,0.997 -1.823,1.679c-0.516,0.681 -0.922,1.463 -1.22,2.345c-0.297,0.882 -0.471,1.855 -0.521,2.92l14.181,-2.499Z" style="fill:#ccc;fill-rule:nonzero;"/><path d="M254.454,758.245l4.04,22.929l-7.31,1.288l-9.948,-56.463l8.283,-1.46c4.057,-0.714 7.179,-0.925 9.366,-0.632c2.208,0.29 4.267,1.209 6.179,2.758c3.34,2.679 5.435,6.432 6.286,11.259c0.91,5.169 0.147,9.526 -2.291,13.073c-2.437,3.546 -6.176,5.763 -11.217,6.651l-3.388,0.597Zm-1.392,-7.899l2.73,-0.481c6.714,-1.183 9.54,-4.785 8.479,-10.807c-1.026,-5.826 -5.001,-8.13 -11.924,-6.91l-2.416,0.425l3.131,17.773Z" style="fill:#333;fill-rule:nonzero;"/><path d="M299.059,737.303l7.09,-1.249l6.275,35.619l-7.09,1.249l-0.657,-3.73c-2.349,3.682 -5.197,5.817 -8.543,6.407c-4.225,0.744 -8.032,-0.42 -11.42,-3.493c-3.38,-3.15 -5.548,-7.443 -6.506,-12.88c-0.941,-5.339 -0.355,-10.03 1.758,-14.072c2.113,-4.042 5.23,-6.426 9.35,-7.152c3.555,-0.627 7.046,0.518 10.471,3.434l-0.728,-4.133Zm-13.635,20.652c0.601,3.413 1.875,6.054 3.821,7.923c1.993,1.886 4.213,2.614 6.66,2.182c2.615,-0.46 4.542,-1.881 5.784,-4.261c1.228,-2.454 1.548,-5.35 0.959,-8.69c-0.588,-3.34 -1.879,-5.953 -3.871,-7.84c-1.985,-1.837 -4.263,-2.529 -6.836,-2.076c-2.426,0.428 -4.266,1.858 -5.519,4.291c-1.228,2.453 -1.561,5.277 -0.998,8.471Z" style="fill:#333;fill-rule:nonzero;"/><path d="M315.059,734.485l7.09,-1.25l0.58,3.292c1.966,-3.287 4.496,-5.204 7.592,-5.749c3.555,-0.627 6.556,0.19 9.003,2.448c2.106,1.917 3.601,5.386 4.486,10.408l3.846,21.832l-7.09,1.249l-3.505,-19.894c-0.618,-3.51 -1.464,-5.862 -2.537,-7.056c-1.056,-1.221 -2.661,-1.642 -4.816,-1.263c-2.342,0.413 -3.846,1.608 -4.511,3.585c-0.649,1.949 -0.582,5.142 0.199,9.58l3.028,17.187l-7.09,1.249l-6.275,-35.618Z" style="fill:#333;fill-rule:nonzero;"/><path d="M358.923,734.675l4.922,27.939l-7.059,1.244l-4.922,-27.939l-3.012,0.53l-1.353,-7.679l3.012,-0.531l-2.3,-13.055l7.059,-1.244l2.3,13.055l5.49,-0.967l1.353,7.68l-5.49,0.967Z" style="fill:#333;fill-rule:nonzero;"/><path d="M390.951,721.114l7.09,-1.249l6.275,35.619l-7.09,1.249l-0.657,-3.73c-2.349,3.682 -5.197,5.817 -8.543,6.407c-4.225,0.744 -8.032,-0.42 -11.42,-3.493c-3.379,-3.15 -5.548,-7.443 -6.506,-12.88c-0.941,-5.339 -0.355,-10.03 1.758,-14.072c2.113,-4.042 5.23,-6.426 9.35,-7.152c3.556,-0.627 7.046,0.518 10.471,3.434l-0.728,-4.133Zm-13.635,20.652c0.601,3.413 1.875,6.054 3.822,7.923c1.992,1.886 4.212,2.614 6.659,2.182c2.615,-0.46 4.543,-1.881 5.784,-4.261c1.228,-2.454 1.548,-5.35 0.959,-8.69c-0.588,-3.34 -1.879,-5.953 -3.871,-7.839c-1.984,-1.838 -4.263,-2.53 -6.835,-2.077c-2.427,0.428 -4.266,1.858 -5.52,4.291c-1.228,2.453 -1.561,5.277 -0.998,8.471Z" style="fill:#333;fill-rule:nonzero;"/><path d="M442.632,747.867c0.296,1.682 0.51,3.171 0.641,4.468c0.132,1.296 0.2,2.447 0.204,3.452c-0.029,2.77 -0.607,5.247 -1.731,7.431c-2.108,4.192 -5.578,6.714 -10.41,7.565c-4.078,0.718 -7.661,0.03 -10.747,-2.066c-3.183,-2.154 -5.394,-5.522 -6.632,-10.105l7.09,-1.249c0.581,1.707 1.269,2.981 2.064,3.821c1.855,1.961 4.184,2.694 6.987,2.201c5.166,-0.91 7.098,-5.059 5.797,-12.446l-0.876,-4.974c-2.215,3.834 -5.152,6.074 -8.812,6.718c-4.162,0.734 -7.881,-0.421 -11.155,-3.464c-3.305,-3.088 -5.427,-7.301 -6.368,-12.64c-0.915,-5.193 -0.448,-9.825 1.401,-13.896c1.999,-4.324 5.194,-6.873 9.587,-7.646c3.848,-0.678 7.342,0.428 10.482,3.318l-0.708,-4.022l7.059,-1.244l6.127,34.778Zm-9.753,-15.702c-0.61,-3.461 -1.893,-6.089 -3.847,-7.881c-1.984,-1.837 -4.231,-2.535 -6.741,-2.092c-2.678,0.471 -4.586,2.001 -5.726,4.59c-1.036,2.319 -1.264,5.124 -0.684,8.416c0.571,3.242 1.74,5.776 3.506,7.602c1.926,1.998 4.239,2.759 6.937,2.284c2.698,-0.475 4.629,-1.997 5.794,-4.565c1.078,-2.326 1.332,-5.111 0.761,-8.354Z" style="fill:#333;fill-rule:nonzero;"/><path d="M445.415,711.519l7.059,-1.243l0.56,3.181c1.018,-1.813 1.977,-3.1 2.878,-3.862c0.917,-0.79 2.077,-1.309 3.478,-1.556c1.862,-0.328 3.931,0.037 6.209,1.093l-1.904,8.103c-1.536,-0.886 -2.942,-1.216 -4.218,-0.991c-3.849,0.678 -5.176,4.405 -3.982,11.183l3.254,18.468l-7.059,1.243l-6.275,-35.619Z" style="fill:#333;fill-rule:nonzero;"/><path d="M477.478,705.871l3.602,20.442c1.039,5.9 3.556,8.498 7.551,7.794c3.995,-0.704 5.473,-4.005 4.433,-9.905l-3.601,-20.443l7.059,-1.243l3.633,20.625c0.503,2.852 0.633,5.368 0.392,7.547c-0.259,1.956 -0.979,3.805 -2.161,5.546c-1.959,2.834 -4.779,4.575 -8.46,5.224c-3.66,0.645 -6.895,-0.03 -9.705,-2.023c-1.726,-1.23 -3.055,-2.717 -3.988,-4.463c-0.878,-1.555 -1.605,-3.966 -2.18,-7.232l-3.634,-20.626l7.059,-1.243Z" style="fill:#333;fill-rule:nonzero;"/><path d="M536.739,715.791l-21.899,3.858c0.704,2.892 1.93,5.077 3.678,6.554c1.744,1.452 3.745,1.979 6.004,1.581c1.757,-0.309 3.125,-1.053 4.103,-2.231c0.958,-1.174 1.926,-3.205 2.906,-6.092l6.643,2.826c-0.598,1.991 -1.294,3.729 -2.089,5.213c-0.796,1.485 -1.705,2.751 -2.728,3.799c-1.023,1.047 -2.18,1.886 -3.471,2.515c-1.29,0.63 -2.73,1.085 -4.32,1.365c-4.56,0.803 -8.521,-0.259 -11.883,-3.185c-3.366,-2.952 -5.55,-7.267 -6.55,-12.948c-0.993,-5.632 -0.457,-10.426 1.606,-14.384c2.092,-3.913 5.366,-6.262 9.821,-7.047c4.497,-0.792 8.347,0.251 11.55,3.131c3.177,2.859 5.284,7.226 6.319,13.101l0.31,1.944Zm-8.433,-5.452c-1.756,-4.215 -4.516,-5.991 -8.281,-5.328c-0.858,0.151 -1.636,0.445 -2.335,0.883c-0.7,0.437 -1.307,0.997 -1.824,1.678c-0.516,0.682 -0.922,1.464 -1.22,2.346c-0.297,0.882 -0.471,1.855 -0.521,2.919l14.181,-2.498Z" style="fill:#333;fill-rule:nonzero;"/><path d="M543.43,667.293l10.882,61.766l-7.059,1.244l-10.882,-61.767l7.059,-1.243Z" style="fill:#333;fill-rule:nonzero;"/></g><g><g transform="matrix(0.984834,-0.173502,0.173502,0.984834,-20.4175,-31.5341)"><text x="52.105px" y="693.178px" style="font-family:'Futura-Medium', 'Futura', sans-serif;font-weight:500;font-size:144px;fill:#fed880;">1<tspan x="132.332px " y="693.178px ">0</tspan></text></g><g><path d="M321.65,545.574l-1.759,-45.816l15.682,30.581l4.646,-34.162l13.382,43.768l-4.503,0.793l-7.232,-24.623l-3.847,28.548l-13.131,-25.584l1.302,25.695l-4.54,0.8Z" style="fill:#fed880;fill-rule:nonzero;"/><path d="M375.068,525.743l-12.453,2.194l-1.46,10.677l-4.728,0.833l6.602,-46.76l21.675,41.778l-4.804,0.846l-4.832,-9.568Zm-2.83,-5.587l-6.806,-13.388l-2.029,14.945l8.835,-1.557Z" style="fill:#fed880;fill-rule:nonzero;"/><path d="M388.508,515.262l-13.659,-21.963l5.049,-0.889l9.58,15.456l3.739,-17.803l5.049,-0.889l-5.369,25.314l3.167,17.976l-4.389,0.773l-3.167,-17.975Z" style="fill:#fed880;fill-rule:nonzero;"/><path d="M402.332,509.714c-1.032,-5.857 -0.418,-11.152 1.843,-15.885c2.249,-4.731 5.47,-7.466 9.665,-8.205c4.145,-0.73 8.073,0.764 11.784,4.482c3.723,3.716 6.109,8.547 7.157,14.494c1.054,5.983 0.453,11.322 -1.802,16.016c-2.264,4.716 -5.518,7.447 -9.763,8.195c-3.756,0.661 -7.456,-0.604 -11.1,-3.797c-4.015,-3.534 -6.61,-8.634 -7.784,-15.3Zm4.441,-0.699c0.81,4.6 2.557,8.191 5.239,10.775c2.67,2.586 5.412,3.631 8.225,3.136c3.052,-0.538 5.361,-2.501 6.926,-5.889c1.56,-3.423 1.953,-7.327 1.181,-11.711c-0.782,-4.438 -2.473,-7.974 -5.074,-10.61c-2.592,-2.655 -5.407,-3.715 -8.446,-3.18c-3.027,0.534 -5.317,2.493 -6.87,5.879c-1.56,3.349 -1.953,7.216 -1.181,11.6Z" style="fill:#fed880;fill-rule:nonzero;"/></g><g><path d="M338.768,590.139l14.169,-2.497l0.98,5.56l-25.554,4.502l10.305,-18.803c1.009,-1.87 1.847,-3.483 2.514,-4.84c0.667,-1.356 1.159,-2.481 1.476,-3.374c0.656,-1.756 0.873,-3.269 0.649,-4.538c-0.322,-1.828 -1.216,-3.249 -2.682,-4.265c-1.467,-1.015 -3.12,-1.361 -4.96,-1.037c-3.844,0.677 -5.632,3.409 -5.365,8.195l-5.717,1.008c-0.535,-8.421 2.787,-13.264 9.966,-14.529c3.467,-0.611 6.574,0.011 9.323,1.865c2.765,1.851 4.443,4.452 5.033,7.803c0.376,2.132 0.194,4.319 -0.546,6.561c-0.371,1.165 -0.965,2.574 -1.783,4.227c-0.819,1.654 -1.873,3.624 -3.164,5.91l-4.644,8.252Z" style="fill:#fed880;fill-rule:nonzero;"/><path d="M356.9,572.208c-1.1,-6.245 -0.565,-11.478 1.604,-15.699c1.937,-3.813 4.704,-6.037 8.302,-6.671c3.598,-0.634 6.958,0.511 10.082,3.433c3.481,3.225 5.787,8.045 6.917,14.459c1.127,6.397 0.606,11.707 -1.564,15.928c-1.937,3.813 -4.696,6.035 -8.277,6.666c-3.581,0.631 -6.95,-0.511 -10.106,-3.428c-3.482,-3.225 -5.801,-8.121 -6.958,-14.688Zm5.648,-0.968c0.766,4.349 2.134,7.833 4.103,10.453c1.96,2.569 4.073,3.653 6.34,3.254c2.251,-0.397 3.867,-2.138 4.847,-5.225c0.984,-3.07 1.098,-6.746 0.344,-11.027c-0.754,-4.282 -2.12,-7.706 -4.096,-10.272c-1.974,-2.549 -4.086,-3.625 -6.336,-3.228c-2.235,0.393 -3.843,2.125 -4.827,5.195c-0.987,3.053 -1.112,6.669 -0.375,10.85Z" style="fill:#fed880;fill-rule:nonzero;"/><path d="M393.254,551.565l-6.579,1.159l2.179,-6.09l9.167,-1.615l6.905,39.196l-5.741,1.012l-5.931,-33.662Z" style="fill:#fed880;fill-rule:nonzero;"/><path d="M424.138,582.218l-4.782,-2.482l6.843,-14.371c-0.48,0.155 -0.89,0.279 -1.229,0.374c-0.34,0.095 -0.616,0.161 -0.829,0.198c-3.072,0.542 -5.947,-0.2 -8.624,-2.223c-2.658,-2.01 -4.285,-4.707 -4.881,-8.092c-0.635,-3.605 0.063,-6.903 2.093,-9.896c2.044,-3.012 4.807,-4.825 8.29,-5.439c3.466,-0.61 6.705,0.128 9.715,2.215c3.007,2.07 4.813,4.823 5.418,8.258c0.537,3.047 -0.132,6.558 -2.006,10.535l-10.008,20.923Zm-7.984,-28.013c0.373,2.116 1.384,3.77 3.034,4.962c1.669,1.207 3.497,1.635 5.485,1.285c1.988,-0.35 3.553,-1.368 4.696,-3.052c1.157,-1.705 1.555,-3.581 1.194,-5.629c-0.361,-2.047 -1.376,-3.675 -3.045,-4.881c-1.65,-1.193 -3.477,-1.612 -5.481,-1.259c-1.972,0.347 -3.529,1.363 -4.672,3.047c-1.156,1.705 -1.56,3.547 -1.211,5.527Z" style="fill:#fed880;fill-rule:nonzero;"/></g></g><path d="M485.684,473.939l-39.151,6.897l17.457,99.089l39.15,-6.898l-17.456,-99.088Z" style="fill:#fff2f1;fill-opacity:0.590573;"/><g><path d="M118.623,231.584l3.054,-0.538c2.309,-0.407 4.304,-1.129 5.988,-2.167c1.684,-1.038 3.037,-2.296 4.06,-3.773c1.023,-1.478 1.71,-3.139 2.061,-4.985c0.352,-1.845 0.345,-3.802 -0.019,-5.869c-0.356,-2.022 -1.028,-3.85 -2.016,-5.483c-0.987,-1.633 -2.214,-2.968 -3.68,-4.007c-1.467,-1.039 -3.168,-1.759 -5.105,-2.159c-1.937,-0.4 -4.037,-0.401 -6.3,-0.002l-3.055,0.538l5.012,28.445Zm-20.288,-37.29l19.686,-3.468c3.485,-0.614 6.878,-0.494 10.178,0.361c3.3,0.855 6.297,2.238 8.99,4.15c2.693,1.911 4.967,4.291 6.822,7.138c1.854,2.846 3.079,5.955 3.672,9.325c0.586,3.326 0.505,6.641 -0.242,9.946c-0.748,3.306 -2.058,6.328 -3.932,9.068c-1.874,2.739 -4.215,5.074 -7.025,7.005c-2.809,1.932 -5.979,3.208 -9.509,3.83l-19.687,3.468l-8.953,-50.823Z" style="fill:#fff;fill-rule:nonzero;"/><path d="M182.981,212.323l-8.954,-15.866l-2.993,17.971l11.947,-2.105Zm5.3,9.421l-19.008,3.349l-1.499,9.368l-14.188,2.5l10.529,-54.256l14.527,-2.559l28.437,47.391l-14.188,2.499l-4.61,-8.292Z" style="fill:#fff;fill-rule:nonzero;"/><path d="M217.269,173.341l6.982,39.634l15.953,-2.81l1.972,11.189l-29.259,5.154l-8.954,-50.823l13.306,-2.344Z" style="fill:#fff;fill-rule:nonzero;"/><path d="M253.384,166.978l8.953,50.824l-13.305,2.344l-8.954,-50.824l13.306,-2.344Zm3.49,-13.958l-11.467,11.194l-6.002,-3.877l9.213,-12.465l8.256,5.148Z" style="fill:#fff;fill-rule:nonzero;"/><path d="M318.284,167.081l-15.817,2.787l1.496,8.493l14.935,-2.631l1.971,11.189l-14.935,2.631l1.544,8.763l15.817,-2.787l1.972,11.189l-29.123,5.131l-8.954,-50.824l29.123,-5.13l1.971,11.189Z" style="fill:#fff;fill-rule:nonzero;"/><path d="M334.838,205.029l-8.953,-50.823l13.305,-2.345l30.049,26.745l-5.475,-31.074l13.238,-2.332l8.954,50.824l-13.238,2.332l-30.049,-26.745l5.475,31.074l-13.306,2.344Z" style="fill:#fff;fill-rule:nonzero;"/><path d="M424.114,136.9l6.982,39.634l15.953,-2.81l1.971,11.189l-29.258,5.155l-8.954,-50.824l13.306,-2.344Z" style="fill:#fff;fill-rule:nonzero;"/><path d="M461.99,156.428c0.356,2.022 1.069,3.819 2.14,5.391c1.07,1.572 2.372,2.872 3.906,3.899c1.534,1.027 3.234,1.735 5.099,2.125c1.865,0.389 3.771,0.412 5.717,0.07c1.946,-0.343 3.728,-1.016 5.348,-2.02c1.62,-1.003 2.986,-2.252 4.1,-3.745c1.113,-1.494 1.904,-3.162 2.373,-5.005c0.468,-1.843 0.524,-3.776 0.168,-5.798c-0.356,-2.022 -1.069,-3.819 -2.14,-5.391c-1.07,-1.572 -2.383,-2.87 -3.94,-3.893c-1.557,-1.023 -3.268,-1.729 -5.133,-2.119c-1.865,-0.389 -3.77,-0.413 -5.716,-0.07c-1.946,0.343 -3.729,1.016 -5.349,2.02c-1.62,1.003 -2.975,2.249 -4.066,3.739c-1.09,1.489 -1.87,3.156 -2.339,4.999c-0.468,1.843 -0.524,3.776 -0.168,5.798Zm-13.916,2.451c-0.665,-3.774 -0.583,-7.414 0.246,-10.919c0.829,-3.505 2.274,-6.69 4.336,-9.555c2.061,-2.866 4.702,-5.288 7.923,-7.269c3.221,-1.98 6.913,-3.337 11.076,-4.071c4.119,-0.725 8.041,-0.71 11.767,0.047c3.726,0.756 7.059,2.127 9.998,4.111c2.94,1.984 5.398,4.481 7.375,7.492c1.976,3.011 3.297,6.404 3.962,10.178c0.665,3.775 0.583,7.415 -0.246,10.92c-0.829,3.505 -2.285,6.692 -4.369,9.561c-2.085,2.869 -4.748,5.296 -7.992,7.281c-3.243,1.984 -6.924,3.339 -11.042,4.065c-4.164,0.733 -8.097,0.72 -11.801,-0.041c-3.704,-0.761 -7.014,-2.135 -9.93,-4.123c-2.917,-1.988 -5.364,-4.488 -7.341,-7.498c-1.976,-3.011 -3.297,-6.404 -3.962,-10.179Z" style="fill:#fff;fill-rule:nonzero;"/><path d="M539.094,130.056c-1.654,-0.913 -3.254,-1.523 -4.801,-1.829c-1.548,-0.307 -3,-0.34 -4.358,-0.101c-1.719,0.303 -3.051,0.954 -3.995,1.954c-0.943,1.001 -1.3,2.152 -1.071,3.456c0.158,0.898 0.561,1.592 1.207,2.08c0.646,0.489 1.447,0.869 2.405,1.14c0.958,0.272 2.019,0.467 3.183,0.586c1.164,0.12 2.321,0.263 3.471,0.431c4.598,0.673 8.115,2.034 10.553,4.083c2.437,2.049 3.996,5.006 4.677,8.871c0.459,2.606 0.434,5.043 -0.077,7.311c-0.51,2.267 -1.481,4.303 -2.913,6.108c-1.432,1.804 -3.308,3.339 -5.628,4.605c-2.32,1.266 -5.042,2.174 -8.164,2.724c-6.472,1.14 -12.805,0.287 -18.999,-2.56l3.826,-11.655c2.3,1.402 4.498,2.358 6.595,2.869c2.096,0.511 4.095,0.599 5.996,0.264c2.172,-0.382 3.703,-1.162 4.592,-2.338c0.889,-1.176 1.223,-2.393 1.002,-3.651c-0.135,-0.764 -0.388,-1.403 -0.758,-1.917c-0.371,-0.514 -0.914,-0.951 -1.631,-1.311c-0.717,-0.36 -1.62,-0.653 -2.709,-0.878c-1.09,-0.225 -2.402,-0.457 -3.937,-0.696c-1.815,-0.236 -3.606,-0.535 -5.373,-0.895c-1.766,-0.361 -3.389,-0.967 -4.869,-1.818c-1.48,-0.851 -2.76,-2.027 -3.841,-3.528c-1.081,-1.501 -1.843,-3.509 -2.287,-6.026c-0.443,-2.516 -0.426,-4.87 0.051,-7.063c0.477,-2.192 1.345,-4.151 2.604,-5.879c1.258,-1.728 2.914,-3.189 4.966,-4.385c2.053,-1.195 4.437,-2.032 7.152,-2.511c2.535,-0.446 5.243,-0.564 8.127,-0.354c2.883,0.21 5.711,0.766 8.483,1.668l-3.479,11.245Z" style="fill:#fff;fill-rule:nonzero;"/><path d="M55.517,296.493l26.407,-4.653c0.475,2.696 0.793,5.165 0.955,7.407c0.161,2.242 0.069,4.366 -0.277,6.373c-0.484,2.819 -1.36,5.394 -2.629,7.726c-1.269,2.331 -2.88,4.376 -4.834,6.133c-1.953,1.757 -4.179,3.227 -6.677,4.408c-2.498,1.182 -5.196,2.028 -8.092,2.538c-3.983,0.701 -7.729,0.69 -11.24,-0.035c-3.511,-0.726 -6.65,-2.06 -9.419,-4.005c-2.769,-1.945 -5.101,-4.453 -6.995,-7.524c-1.895,-3.072 -3.194,-6.607 -3.899,-10.607c-0.696,-3.954 -0.691,-7.697 0.017,-11.227c0.708,-3.53 2.044,-6.672 4.009,-9.428c1.964,-2.755 4.506,-5.079 7.625,-6.972c3.12,-1.894 6.738,-3.203 10.857,-3.928c5.34,-0.941 10.226,-0.621 14.657,0.962c4.432,1.582 8.248,4.57 11.449,8.963l-11.713,7.415c-1.667,-2.579 -3.547,-4.309 -5.639,-5.192c-2.092,-0.882 -4.337,-1.112 -6.736,-0.69c-1.991,0.351 -3.736,1.041 -5.234,2.069c-1.499,1.029 -2.705,2.33 -3.617,3.904c-0.913,1.574 -1.527,3.385 -1.843,5.433c-0.316,2.047 -0.264,4.262 0.156,6.644c0.38,2.157 1.015,4.107 1.905,5.849c0.891,1.743 2.02,3.189 3.389,4.338c1.369,1.148 2.956,1.946 4.761,2.393c1.805,0.446 3.817,0.474 6.034,0.083c1.313,-0.231 2.554,-0.6 3.725,-1.108c1.17,-0.507 2.184,-1.172 3.043,-1.995c0.858,-0.823 1.513,-1.807 1.964,-2.952c0.452,-1.146 0.66,-2.48 0.625,-4.002l-10.929,1.925l-1.805,-10.245Z" style="fill:#fff;fill-rule:nonzero;"/><path d="M103.706,288.35l2.512,-0.442c2.625,-0.463 4.544,-1.357 5.757,-2.682c1.213,-1.326 1.641,-3 1.285,-5.022c-0.356,-2.022 -1.331,-3.449 -2.924,-4.28c-1.593,-0.832 -3.702,-1.016 -6.327,-0.554l-2.511,0.443l2.208,12.537Zm34.211,22.954l-16.564,2.918l-16.139,-17.311l3.444,19.547l-13.305,2.344l-8.954,-50.823l20.705,-3.648c2.851,-0.502 5.413,-0.525 7.687,-0.068c2.273,0.456 4.227,1.282 5.861,2.477c1.633,1.194 2.967,2.674 4.001,4.438c1.034,1.763 1.741,3.724 2.121,5.881c0.681,3.864 0.294,7.164 -1.161,9.899c-1.454,2.735 -3.939,4.852 -7.455,6.352l19.759,17.994Z" style="fill:#fff;fill-rule:nonzero;"/><path d="M167.991,286.546l-8.955,-15.866l-2.993,17.971l11.948,-2.105Zm5.299,9.422l-19.008,3.348l-1.499,9.369l-14.188,2.499l10.53,-54.256l14.527,-2.559l28.437,47.391l-14.188,2.499l-4.611,-8.291Z" style="fill:#fff;fill-rule:nonzero;"/><path d="M209.427,288.142l2.919,-0.514c3.349,-0.59 5.673,-1.44 6.97,-2.549c1.298,-1.109 1.781,-2.607 1.448,-4.494c-0.332,-1.888 -1.298,-3.131 -2.896,-3.729c-1.599,-0.599 -4.073,-0.603 -7.422,-0.013l-2.919,0.514l1.9,10.785Zm-3.634,-20.626l2.444,-0.431c4.164,-0.733 5.957,-2.74 5.379,-6.021c-0.578,-3.28 -2.949,-4.553 -7.113,-3.82l-2.443,0.431l1.733,9.841Zm-16.82,-17.608l19.822,-3.492c4.707,-0.829 8.48,-0.336 11.32,1.48c2.84,1.817 4.631,4.837 5.376,9.061c0.451,2.561 0.361,4.766 -0.27,6.615c-0.631,1.848 -1.794,3.524 -3.489,5.028c1.965,0.024 3.679,0.29 5.145,0.796c1.466,0.506 2.712,1.225 3.74,2.156c1.027,0.931 1.84,2.038 2.44,3.323c0.599,1.284 1.034,2.69 1.303,4.218c0.419,2.382 0.373,4.567 -0.14,6.557c-0.512,1.99 -1.416,3.748 -2.71,5.273c-1.295,1.525 -2.973,2.794 -5.034,3.806c-2.062,1.012 -4.45,1.757 -7.166,2.235l-21.383,3.767l-8.954,-50.823Z" style="fill:#fff;fill-rule:nonzero;"/><path d="M268.664,268.81l-8.955,-15.866l-2.993,17.971l11.948,-2.105Zm5.299,9.422l-19.007,3.348l-1.5,9.369l-14.187,2.499l10.529,-54.256l14.527,-2.559l28.437,47.391l-14.188,2.5l-4.611,-8.292Z" style="fill:#fff;fill-rule:nonzero;"/><path d="M309.934,269.462l3.055,-0.538c2.308,-0.407 4.304,-1.129 5.987,-2.167c1.684,-1.038 3.037,-2.295 4.06,-3.773c1.023,-1.477 1.71,-3.139 2.062,-4.985c0.351,-1.845 0.345,-3.802 -0.02,-5.869c-0.356,-2.022 -1.028,-3.85 -2.015,-5.482c-0.988,-1.633 -2.215,-2.969 -3.681,-4.008c-1.466,-1.039 -3.168,-1.759 -5.105,-2.159c-1.937,-0.4 -4.037,-0.401 -6.299,-0.002l-3.055,0.538l5.011,28.445Zm-20.288,-37.29l19.687,-3.468c3.484,-0.614 6.877,-0.494 10.177,0.361c3.3,0.855 6.297,2.238 8.99,4.15c2.693,1.911 4.967,4.291 6.822,7.138c1.855,2.847 3.079,5.955 3.673,9.325c0.586,3.326 0.505,6.641 -0.243,9.947c-0.747,3.305 -2.058,6.327 -3.932,9.067c-1.873,2.739 -4.215,5.074 -7.024,7.006c-2.81,1.931 -5.98,3.207 -9.51,3.829l-19.686,3.468l-8.954,-50.823Z" style="fill:#fff;fill-rule:nonzero;"/><path d="M359.089,246.138c0.356,2.023 1.069,3.82 2.139,5.392c1.071,1.572 2.373,2.871 3.907,3.898c1.534,1.027 3.234,1.736 5.099,2.125c1.865,0.39 3.77,0.413 5.716,0.07c1.946,-0.343 3.729,-1.016 5.349,-2.019c1.619,-1.004 2.986,-2.252 4.099,-3.746c1.114,-1.493 1.905,-3.161 2.373,-5.004c0.469,-1.844 0.525,-3.776 0.169,-5.798c-0.357,-2.023 -1.07,-3.82 -2.14,-5.392c-1.07,-1.572 -2.384,-2.869 -3.94,-3.892c-1.557,-1.023 -3.268,-1.73 -5.133,-2.119c-1.865,-0.39 -3.771,-0.413 -5.717,-0.07c-1.946,0.343 -3.729,1.016 -5.348,2.019c-1.62,1.004 -2.975,2.25 -4.066,3.74c-1.091,1.489 -1.87,3.155 -2.339,4.999c-0.468,1.843 -0.525,3.775 -0.168,5.797Zm-13.917,2.452c-0.665,-3.775 -0.583,-7.414 0.246,-10.92c0.829,-3.505 2.275,-6.69 4.336,-9.555c2.062,-2.865 4.703,-5.288 7.924,-7.268c3.22,-1.981 6.912,-3.338 11.076,-4.071c4.118,-0.726 8.041,-0.71 11.767,0.046c3.726,0.757 7.059,2.127 9.998,4.112c2.939,1.984 5.397,4.481 7.374,7.492c1.977,3.011 3.298,6.403 3.963,10.178c0.665,3.775 0.583,7.415 -0.246,10.92c-0.829,3.505 -2.285,6.692 -4.37,9.561c-2.084,2.869 -4.748,5.296 -7.991,7.28c-3.243,1.985 -6.924,3.34 -11.042,4.065c-4.164,0.734 -8.098,0.72 -11.801,-0.04c-3.704,-0.761 -7.014,-2.135 -9.931,-4.123c-2.916,-1.989 -5.363,-4.488 -7.34,-7.499c-1.977,-3.01 -3.298,-6.403 -3.963,-10.178Z" style="fill:#fff;fill-rule:nonzero;"/><path d="M436.193,219.767c-1.654,-0.913 -3.255,-1.523 -4.802,-1.83c-1.547,-0.306 -2.999,-0.34 -4.357,-0.101c-1.72,0.303 -3.051,0.955 -3.995,1.955c-0.944,1 -1.301,2.152 -1.071,3.455c0.158,0.899 0.56,1.593 1.206,2.081c0.646,0.489 1.448,0.869 2.406,1.14c0.958,0.271 2.019,0.467 3.183,0.586c1.164,0.119 2.321,0.263 3.47,0.431c4.598,0.673 8.116,2.034 10.553,4.083c2.438,2.049 3.997,5.006 4.678,8.871c0.459,2.606 0.433,5.043 -0.077,7.31c-0.51,2.268 -1.482,4.304 -2.914,6.108c-1.431,1.805 -3.307,3.34 -5.627,4.606c-2.32,1.265 -5.042,2.173 -8.165,2.724c-6.471,1.14 -12.804,0.286 -18.998,-2.561l3.826,-11.654c2.3,1.402 4.498,2.358 6.594,2.869c2.097,0.511 4.095,0.599 5.996,0.264c2.173,-0.383 3.703,-1.162 4.593,-2.338c0.889,-1.176 1.223,-2.393 1.001,-3.651c-0.134,-0.764 -0.387,-1.403 -0.757,-1.917c-0.371,-0.514 -0.914,-0.951 -1.631,-1.311c-0.717,-0.36 -1.62,-0.653 -2.71,-0.878c-1.089,-0.225 -2.401,-0.457 -3.937,-0.696c-1.814,-0.237 -3.605,-0.535 -5.372,-0.896c-1.766,-0.36 -3.39,-0.966 -4.87,-1.817c-1.479,-0.852 -2.76,-2.028 -3.841,-3.528c-1.081,-1.501 -1.843,-3.509 -2.286,-6.026c-0.443,-2.516 -0.427,-4.871 0.05,-7.063c0.477,-2.192 1.345,-4.152 2.604,-5.879c1.259,-1.728 2.915,-3.189 4.967,-4.385c2.053,-1.196 4.436,-2.032 7.152,-2.511c2.534,-0.446 5.243,-0.565 8.126,-0.354c2.884,0.21 5.711,0.766 8.483,1.667l-3.478,11.246Z" style="fill:#fff;fill-rule:nonzero;"/><path d="M493.019,237.207l3.055,-0.538c2.308,-0.407 4.304,-1.129 5.988,-2.167c1.683,-1.038 3.036,-2.295 4.059,-3.773c1.023,-1.477 1.71,-3.139 2.062,-4.985c0.351,-1.845 0.345,-3.802 -0.019,-5.869c-0.357,-2.022 -1.029,-3.849 -2.016,-5.482c-0.988,-1.633 -2.215,-2.969 -3.681,-4.008c-1.466,-1.039 -3.168,-1.759 -5.105,-2.159c-1.936,-0.4 -4.036,-0.401 -6.299,-0.002l-3.055,0.538l5.011,28.445Zm-20.288,-37.29l19.687,-3.468c3.485,-0.614 6.877,-0.494 10.177,0.361c3.301,0.855 6.297,2.238 8.99,4.15c2.694,1.912 4.968,4.291 6.822,7.138c1.855,2.847 3.079,5.955 3.673,9.326c0.586,3.325 0.505,6.64 -0.242,9.946c-0.748,3.305 -2.059,6.327 -3.932,9.067c-1.874,2.739 -4.216,5.074 -7.025,7.006c-2.81,1.931 -5.979,3.207 -9.509,3.829l-19.687,3.469l-8.954,-50.824Z" style="fill:#fff;fill-rule:nonzero;"/><path d="M557.183,196.576l-15.818,2.786l1.497,8.493l14.934,-2.631l1.972,11.189l-14.935,2.631l1.544,8.763l15.817,-2.786l1.971,11.189l-29.122,5.13l-8.954,-50.823l29.122,-5.131l1.972,11.19Z" style="fill:#fff;fill-rule:nonzero;"/><path d="M311.655,311.413l-15.817,2.787l1.496,8.493l14.935,-2.631l1.971,11.189l-14.934,2.631l1.543,8.763l15.818,-2.787l1.971,11.189l-29.123,5.131l-8.953,-50.823l29.122,-5.131l1.971,11.189Z" style="fill:#fff;fill-rule:nonzero;"/><path d="M349.652,306.596c-1.654,-0.914 -3.255,-1.524 -4.802,-1.83c-1.547,-0.307 -2.999,-0.34 -4.357,-0.101c-1.72,0.303 -3.052,0.954 -3.995,1.955c-0.944,1 -1.301,2.152 -1.071,3.455c0.158,0.898 0.56,1.592 1.206,2.081c0.646,0.488 1.448,0.868 2.406,1.139c0.957,0.272 2.018,0.467 3.183,0.586c1.164,0.12 2.321,0.263 3.47,0.431c4.598,0.673 8.116,2.034 10.553,4.083c2.438,2.05 3.997,5.007 4.678,8.871c0.459,2.606 0.433,5.043 -0.077,7.311c-0.511,2.267 -1.482,4.303 -2.914,6.108c-1.432,1.804 -3.308,3.339 -5.628,4.605c-2.32,1.266 -5.041,2.174 -8.164,2.724c-6.471,1.14 -12.804,0.287 -18.998,-2.56l3.826,-11.655c2.3,1.402 4.498,2.358 6.594,2.869c2.097,0.511 4.095,0.599 5.996,0.264c2.172,-0.382 3.703,-1.162 4.593,-2.338c0.889,-1.176 1.223,-2.393 1.001,-3.651c-0.134,-0.764 -0.387,-1.403 -0.757,-1.917c-0.371,-0.513 -0.915,-0.951 -1.631,-1.311c-0.717,-0.36 -1.62,-0.653 -2.71,-0.878c-1.089,-0.225 -2.402,-0.457 -3.937,-0.696c-1.815,-0.236 -3.605,-0.535 -5.372,-0.895c-1.767,-0.361 -3.39,-0.967 -4.87,-1.818c-1.479,-0.851 -2.76,-2.027 -3.841,-3.528c-1.081,-1.5 -1.843,-3.509 -2.286,-6.025c-0.444,-2.517 -0.427,-4.871 0.05,-7.063c0.477,-2.192 1.345,-4.152 2.604,-5.88c1.259,-1.727 2.915,-3.189 4.967,-4.385c2.052,-1.195 4.436,-2.032 7.152,-2.51c2.534,-0.447 5.243,-0.565 8.126,-0.355c2.884,0.21 5.711,0.766 8.483,1.668l-3.478,11.246Z" style="fill:#fff;fill-rule:nonzero;"/><path d="M380.524,311.79l4.412,-0.777c4.888,-0.862 6.96,-3.404 6.215,-7.628c-0.744,-4.224 -3.56,-5.906 -8.447,-5.045l-4.413,0.778l2.233,12.672Zm4.845,27.501l-13.306,2.344l-8.954,-50.823l21.18,-3.732c5.748,-1.012 10.41,-0.305 13.988,2.123c3.577,2.428 5.841,6.338 6.791,11.73c0.95,5.393 0.159,9.841 -2.374,13.345c-2.532,3.504 -6.672,5.762 -12.42,6.775l-7.874,1.387l2.969,16.851Z" style="fill:#fff;fill-rule:nonzero;"/><path d="M439.746,310.252l-8.955,-15.866l-2.993,17.971l11.948,-2.105Zm5.299,9.422l-19.008,3.348l-1.499,9.369l-14.188,2.499l10.529,-54.256l14.528,-2.559l28.436,47.391l-14.188,2.5l-4.61,-8.292Z" style="fill:#fff;fill-rule:nonzero;"/><path d="M469.682,324.438l-8.954,-50.824l13.305,-2.344l30.049,26.744l-5.475,-31.073l13.238,-2.333l8.954,50.824l-13.238,2.332l-30.048,-26.744l5.474,31.073l-13.305,2.345Zm1.173,-58.098c-0.586,-3.326 -0.282,-6.101 0.913,-8.327c1.194,-2.226 2.99,-3.55 5.389,-3.973c0.95,-0.167 2.04,-0.208 3.268,-0.124c1.228,0.085 2.449,0.194 3.662,0.328c1.214,0.134 2.33,0.25 3.351,0.348c1.021,0.098 1.825,0.095 2.413,-0.008c1.448,-0.255 2.259,-1.348 2.432,-3.278l6.721,-1.184c0.26,4.124 -0.226,7.128 -1.457,9.013c-1.231,1.885 -3.136,3.055 -5.716,3.509c-1.267,0.223 -2.537,0.297 -3.811,0.22c-1.273,-0.077 -2.482,-0.188 -3.628,-0.334c-1.146,-0.146 -2.174,-0.289 -3.085,-0.429c-0.912,-0.141 -1.661,-0.159 -2.25,-0.056c-0.498,0.088 -0.896,0.343 -1.195,0.767c-0.298,0.423 -0.507,1.224 -0.626,2.403l-6.381,1.125Z" style="fill:#fff;fill-rule:nonzero;"/><path d="M556.032,289.766l-8.954,-15.867l-2.993,17.971l11.947,-2.104Zm5.3,9.421l-19.008,3.349l-1.499,9.368l-14.188,2.499l10.529,-54.255l14.527,-2.56l28.437,47.391l-14.188,2.5l-4.61,-8.292Z" style="fill:#fff;fill-rule:nonzero;"/></g><path d="M636.486,37.987l-79.606,14.024l64.978,368.828l79.606,-14.024l-64.978,-368.828Z" style="fill:#ef3340;"/><g><path d="M650.12,535.67l51.85,-9.134l-3.108,-17.641l8.57,-1.509l4.703,26.693l-60.42,10.644l-1.595,-9.053Z" style="fill:#ccc;fill-rule:nonzero;"/><path d="M663.184,479.286l-1.547,-8.781l38.114,-6.715l1.547,8.781l-3.991,0.703c4.026,3.004 6.404,6.577 7.134,10.722c0.922,5.232 -0.221,9.894 -3.427,13.984c-3.289,4.078 -7.843,6.63 -13.66,7.655c-5.713,1.006 -10.773,0.148 -15.18,-2.574c-4.407,-2.722 -7.06,-6.635 -7.959,-11.738c-0.775,-4.404 0.355,-8.676 3.391,-12.816l-4.422,0.779Zm22.595,17.412c3.653,-0.643 6.456,-2.139 8.409,-4.486c1.97,-2.404 2.689,-5.121 2.155,-8.151c-0.571,-3.238 -2.153,-5.657 -4.748,-7.256c-2.674,-1.586 -5.797,-2.064 -9.371,-1.434c-3.574,0.629 -6.346,2.146 -8.317,4.55c-1.918,2.394 -2.597,5.184 -2.035,8.371c0.529,3.004 2.12,5.315 4.771,6.931c2.673,1.585 5.719,2.077 9.136,1.475Z" style="fill:#ccc;fill-rule:nonzero;"/><path d="M662.315,436.333l5.147,6.545c-2.147,1.553 -3.073,3.172 -2.776,4.856c0.142,0.803 0.53,1.442 1.165,1.918c0.635,0.475 1.37,0.64 2.205,0.492c1.461,-0.257 2.612,-2.196 3.454,-5.816c1.192,-4.991 2.494,-8.438 3.907,-10.343c1.413,-1.905 3.554,-3.11 6.423,-3.616c3.679,-0.648 6.995,0.157 9.947,2.414c2.809,2.203 4.54,5.156 5.193,8.861c1.118,6.346 -1.208,11.39 -6.978,15.13l-4.797,-6.847c1.644,-1.357 2.666,-2.352 3.066,-2.983c0.804,-1.237 1.076,-2.594 0.816,-4.07c-0.521,-2.953 -2.137,-4.191 -4.85,-3.713c-1.566,0.276 -2.826,1.673 -3.781,4.192c-0.288,0.959 -0.563,1.915 -0.826,2.869c-0.262,0.955 -0.535,1.924 -0.819,2.909c-0.805,2.759 -1.742,4.767 -2.812,6.024c-1.358,1.601 -3.29,2.623 -5.794,3.064c-3.313,0.583 -6.251,-0.061 -8.813,-1.933c-2.572,-1.924 -4.147,-4.531 -4.727,-7.82c-0.853,-4.844 1.03,-8.888 5.65,-12.133Z" style="fill:#ccc;fill-rule:nonzero;"/><path d="M646.133,372.883l11.701,-2.062c-2.101,2.427 -3.469,4.511 -4.104,6.252c-0.665,1.719 -0.813,3.628 -0.443,5.727c0.579,3.289 2.222,5.818 4.927,7.584c2.705,1.767 5.805,2.343 9.301,1.727c3.574,-0.63 6.324,-2.196 8.25,-4.699c1.922,-2.528 2.593,-5.437 2.013,-8.727c-0.369,-2.098 -1.152,-3.87 -2.348,-5.315c-1.161,-1.398 -3.204,-2.921 -6.131,-4.569l11.622,-2.047c2.478,3.222 4.029,6.608 4.654,10.157c1.032,5.854 -0.01,11.085 -3.125,15.694c-3.142,4.613 -7.556,7.42 -13.243,8.422c-5.687,1.002 -10.839,-0.147 -15.455,-3.447c-4.616,-3.3 -7.435,-7.851 -8.457,-13.653c-0.657,-3.73 -0.378,-7.412 0.838,-11.044Z" style="fill:#ccc;fill-rule:nonzero;"/><path d="M658.057,326.514l4.778,27.121c3.089,-0.784 5.403,-2.233 6.94,-4.347c1.511,-2.109 2.021,-4.562 1.528,-7.36c-0.384,-2.176 -1.223,-3.884 -2.517,-5.125c-1.29,-1.215 -3.501,-2.468 -6.634,-3.759l2.848,-8.113c2.157,0.795 4.046,1.704 5.665,2.727c1.619,1.024 3.007,2.181 4.162,3.474c1.156,1.292 2.091,2.743 2.805,4.353c0.714,1.61 1.244,3.399 1.591,5.368c0.995,5.647 -0.033,10.502 -3.083,14.565c-3.076,4.067 -7.653,6.636 -13.731,7.707c-6.027,1.062 -11.197,0.263 -15.512,-2.395c-4.267,-2.694 -6.886,-6.799 -7.858,-12.317c-0.982,-5.569 0.03,-10.287 3.033,-14.155c2.982,-3.837 7.617,-6.309 13.904,-7.417l2.081,-0.327Zm-5.619,10.245c-4.481,2.044 -6.311,5.398 -5.49,10.061c0.187,1.062 0.526,2.03 1.016,2.905c0.491,0.875 1.11,1.641 1.857,2.297c0.748,0.656 1.6,1.18 2.557,1.573c0.957,0.392 2.008,0.634 3.154,0.726l-3.094,-17.562Z" style="fill:#ccc;fill-rule:nonzero;"/><path d="M635.242,320.679l-1.547,-8.781l3.522,-0.621c-3.591,-2.519 -5.724,-5.695 -6.4,-9.529c-0.775,-4.403 0.016,-8.082 2.373,-11.034c2,-2.542 5.687,-4.287 11.061,-5.234l23.362,-4.115l1.547,8.781l-21.288,3.75c-3.756,0.662 -6.261,1.637 -7.513,2.926c-1.283,1.268 -1.69,3.236 -1.219,5.904c0.511,2.901 1.839,4.79 3.984,5.668c2.114,0.856 5.545,0.865 10.293,0.029l18.392,-3.24l1.547,8.781l-38.114,6.715Z" style="fill:#ccc;fill-rule:nonzero;"/><path d="M622.64,249.146l-1.547,-8.781l38.114,-6.715l1.547,8.782l-3.992,0.703c4.026,3.003 6.404,6.577 7.134,10.721c0.922,5.233 -0.22,9.894 -3.427,13.984c-3.289,4.079 -7.842,6.63 -13.66,7.655c-5.713,1.007 -10.773,0.149 -15.18,-2.574c-4.406,-2.722 -7.059,-6.635 -7.958,-11.738c-0.776,-4.403 0.354,-8.675 3.39,-12.816l-4.421,0.779Zm22.595,17.412c3.652,-0.643 6.455,-2.138 8.408,-4.486c1.971,-2.403 2.689,-5.12 2.155,-8.151c-0.57,-3.238 -2.153,-5.657 -4.748,-7.256c-2.673,-1.586 -5.797,-2.063 -9.371,-1.434c-3.574,0.63 -6.346,2.146 -8.316,4.55c-1.919,2.394 -2.597,5.185 -2.036,8.371c0.529,3.005 2.12,5.315 4.772,6.931c2.673,1.586 5.718,2.077 9.136,1.475Z" style="fill:#ccc;fill-rule:nonzero;"/><path d="M621.77,206.194l5.147,6.544c-2.147,1.554 -3.072,3.172 -2.776,4.856c0.142,0.803 0.53,1.442 1.165,1.918c0.636,0.476 1.371,0.64 2.206,0.493c1.46,-0.258 2.612,-2.196 3.453,-5.817c1.192,-4.99 2.494,-8.438 3.907,-10.343c1.413,-1.904 3.554,-3.11 6.424,-3.615c3.678,-0.648 6.994,0.156 9.947,2.414c2.809,2.202 4.539,5.156 5.192,8.86c1.118,6.346 -1.208,11.39 -6.977,15.13l-4.797,-6.846c1.643,-1.358 2.665,-2.353 3.065,-2.984c0.804,-1.237 1.076,-2.593 0.816,-4.07c-0.52,-2.953 -2.137,-4.19 -4.85,-3.712c-1.565,0.276 -2.825,1.673 -3.78,4.191c-0.289,0.959 -0.564,1.916 -0.826,2.87c-0.262,0.954 -0.535,1.924 -0.819,2.908c-0.805,2.759 -1.743,4.767 -2.812,6.024c-1.359,1.602 -3.29,2.623 -5.795,3.064c-3.313,0.584 -6.251,-0.06 -8.813,-1.933c-2.571,-1.923 -4.147,-4.53 -4.726,-7.82c-0.854,-4.844 1.029,-8.888 5.649,-12.132Z" style="fill:#ccc;fill-rule:nonzero;"/><path d="M576.24,149.516l-1.547,-8.781l66.093,-11.644l1.547,8.781l-3.991,0.703c3.998,2.848 6.381,6.448 7.147,10.799c0.913,5.181 -0.234,9.817 -3.44,13.907c-3.289,4.078 -7.843,6.63 -13.66,7.655c-5.688,1.001 -10.735,0.141 -15.141,-2.581c-4.428,-2.692 -7.092,-6.589 -7.991,-11.692c-0.78,-4.43 0.348,-8.715 3.384,-12.855l-32.401,5.708Zm50.574,12.483c3.652,-0.644 6.455,-2.139 8.409,-4.486c1.97,-2.404 2.688,-5.121 2.154,-8.152c-0.57,-3.238 -2.153,-5.656 -4.748,-7.256c-2.673,-1.585 -5.796,-2.063 -9.37,-1.433c-3.574,0.629 -6.347,2.146 -8.317,4.55c-1.918,2.394 -2.597,5.184 -2.036,8.37c0.53,3.005 2.12,5.316 4.772,6.932c2.673,1.585 5.719,2.077 9.136,1.475Z" style="fill:#ccc;fill-rule:nonzero;"/><path d="M615.787,86.583l4.778,27.121c3.09,-0.784 5.403,-2.234 6.94,-4.347c1.512,-2.109 2.021,-4.563 1.528,-7.36c-0.383,-2.176 -1.222,-3.884 -2.517,-5.125c-1.29,-1.215 -3.501,-2.468 -6.633,-3.759l2.847,-8.113c2.158,0.795 4.046,1.704 5.665,2.727c1.62,1.024 3.007,2.181 4.163,3.473c1.155,1.292 2.09,2.743 2.804,4.354c0.714,1.61 1.244,3.399 1.591,5.368c0.995,5.647 -0.032,10.502 -3.082,14.564c-3.076,4.068 -7.654,6.637 -13.732,7.708c-6.026,1.061 -11.197,0.263 -15.511,-2.395c-4.268,-2.694 -6.887,-6.799 -7.859,-12.317c-0.981,-5.569 0.03,-10.288 3.034,-14.155c2.982,-3.837 7.616,-6.31 13.903,-7.417l2.081,-0.327Zm-5.619,10.244c-4.481,2.045 -6.311,5.399 -5.49,10.061c0.188,1.062 0.526,2.031 1.017,2.906c0.49,0.875 1.109,1.641 1.857,2.297c0.747,0.656 1.6,1.18 2.556,1.573c0.957,0.392 2.008,0.634 3.154,0.726l-3.094,-17.563Z" style="fill:#ccc;fill-rule:nonzero;"/><path d="M757.766,494.231l-4.367,-24.789l1.996,-0.352c4.539,-0.8 8.65,-0.976 12.333,-0.53c3.417,0.466 6.752,1.681 10.003,3.646c7.294,4.457 11.699,10.985 13.214,19.585c1.478,8.393 -0.307,16.119 -5.358,23.178c-5.076,7.064 -11.906,11.352 -20.489,12.864c-8.765,1.544 -16.737,-0.19 -23.914,-5.201c-7.203,-5.008 -11.573,-11.876 -13.111,-20.606c-0.826,-4.688 -0.632,-9.236 0.582,-13.643c1.246,-4.225 3.703,-8.598 7.372,-13.117l7.359,5.354c-5.734,6.085 -7.977,12.663 -6.731,19.734c1.118,6.347 4.26,11.282 9.426,14.805c5.088,3.537 10.893,4.731 17.415,3.582c6.731,-1.186 11.853,-4.559 15.365,-10.118c3.254,-5.194 4.42,-10.407 3.498,-15.64c-0.785,-4.455 -3.003,-8.191 -6.654,-11.206c-3.678,-3.011 -7.679,-4.349 -12.004,-4.015l2.635,14.96l-8.57,1.509Z" style="fill:#ccc;fill-rule:nonzero;"/><path d="M740.12,433.002l-1.547,-8.781l38.115,-6.715l1.547,8.781l-3.992,0.703c4.026,3.003 6.404,6.577 7.134,10.722c0.922,5.232 -0.22,9.894 -3.427,13.984c-3.289,4.078 -7.842,6.63 -13.66,7.655c-5.713,1.006 -10.773,0.148 -15.18,-2.574c-4.407,-2.723 -7.059,-6.635 -7.958,-11.738c-0.776,-4.404 0.354,-8.676 3.39,-12.816l-4.422,0.779Zm22.596,17.412c3.652,-0.644 6.455,-2.139 8.408,-4.486c1.971,-2.404 2.689,-5.121 2.155,-8.152c-0.571,-3.238 -2.153,-5.656 -4.748,-7.256c-2.673,-1.585 -5.797,-2.063 -9.371,-1.433c-3.574,0.629 -6.346,2.146 -8.317,4.55c-1.918,2.394 -2.596,5.184 -2.035,8.37c0.529,3.005 2.12,5.316 4.771,6.932c2.674,1.585 5.719,2.077 9.137,1.475Z" style="fill:#ccc;fill-rule:nonzero;"/><path d="M707.11,409.372l66.093,-11.644l1.541,8.743l-66.094,11.644l-1.54,-8.743Z" style="fill:#ccc;fill-rule:nonzero;"/><path d="M728.223,365.471l-1.547,-8.781l38.115,-6.715l1.547,8.782l-3.992,0.703c4.026,3.003 6.404,6.577 7.134,10.721c0.922,5.233 -0.22,9.894 -3.427,13.984c-3.289,4.079 -7.843,6.63 -13.66,7.655c-5.713,1.007 -10.773,0.149 -15.18,-2.574c-4.407,-2.722 -7.059,-6.635 -7.958,-11.738c-0.776,-4.403 0.354,-8.675 3.39,-12.816l-4.422,0.779Zm22.595,17.412c3.653,-0.643 6.456,-2.138 8.409,-4.486c1.971,-2.403 2.689,-5.12 2.155,-8.151c-0.571,-3.238 -2.153,-5.657 -4.748,-7.256c-2.673,-1.585 -5.797,-2.063 -9.371,-1.434c-3.574,0.63 -6.346,2.147 -8.317,4.55c-1.918,2.395 -2.597,5.185 -2.035,8.371c0.529,3.005 2.12,5.315 4.771,6.931c2.674,1.586 5.719,2.077 9.136,1.475Z" style="fill:#ccc;fill-rule:nonzero;"/></g><path d="M549.928,7.104l85.656,0l-79.258,41.413l-6.398,-41.413Z" style="fill:#ef3340;"/></svg>