<?xml version="1.0" encoding="UTF-8" standalone="no"?><!DOCTYPE svg PUBLIC "-//W3C//DTD SVG 1.1//EN" "http://www.w3.org/Graphics/SVG/1.1/DTD/svg11.dtd"><svg width="100%" height="100%" viewBox="0 0 600 343" version="1.1" xmlns="http://www.w3.org/2000/svg" xmlns:xlink="http://www.w3.org/1999/xlink" xml:space="preserve" xmlns:serif="http://www.serif.com/" style="fill-rule:evenodd;clip-rule:evenodd;stroke-linejoin:round;stroke-miterlimit:1.5;"><g><path d="M587.92,200.79l-461.303,-162.915l-230.408,652.414l461.303,162.914l230.408,-652.413Z" style="fill:#e7e8e9;fill-opacity:0.498039;"/><g><path d="M159.196,85.149l373.436,131.883" style="fill:none;stroke:#231f20;stroke-width:2.47px;"/><path d="M158.291,87.714l373.435,131.883" style="fill:none;stroke:#231f20;stroke-width:0.41px;"/></g><g><path d="M140.267,138.748l373.436,131.883" style="fill:none;stroke:#231f20;stroke-width:2.47px;"/><path d="M139.362,141.312l373.435,131.883" style="fill:none;stroke:#231f20;stroke-width:0.41px;"/></g><g><path d="M132.915,159.566l373.436,131.883" style="fill:none;stroke:#231f20;stroke-width:2.47px;"/><path d="M133.783,157.108l373.436,131.884" style="fill:none;stroke:#231f20;stroke-width:0.41px;"/></g><g><g><g transform="matrix(0.942925,0.333006,-0.333006,0.942925,58.4947,-36.6875)"><text x="136.274px" y="152.3px" style="font-family:'Baskerville-Bold', 'Baskerville', serif;font-weight:700;font-size:10.684px;fill:#231f20;">Año XXV                           Guayaquil, Agosto</text></g><g transform="matrix(0.942925,0.333006,-0.333006,0.942925,93.6703,-99.6863)"><text x="337.646px" y="223.417px" style="font-family:'Superclarendon-Black', 'Superclarendon', serif;font-weight:900;font-size:10.684px;fill:#231f20;">25</text></g><g transform="matrix(0.942925,0.333006,-0.333006,0.942925,96.5737,-104.886)"><text x="354.267px" y="229.287px" style="font-family:'Baskerville-Bold', 'Baskerville', serif;font-weight:700;font-size:10.684px;fill:#231f20;">de 1909                               Nº</text></g><g transform="matrix(0.942925,0.333006,-0.333006,0.942925,118.919,-144.906)"><text x="482.188px" y="274.464px" style="font-family:'Superclarendon-Bold', 'Superclarendon', serif;font-weight:700;font-size:10.684px;fill:#231f20;">1308</text></g></g><g transform="matrix(0.942925,0.333006,-0.333006,0.942925,63.4589,-98.9921)"><text x="320.515px" y="135.63px" style="font-family:'BigCaslon-Medium', 'Big Caslon';font-weight:500;font-size:10.684px;fill:#231f20;">ECUADOR</text></g><g><g transform="matrix(0.942925,0.333006,-0.333006,0.942925,87.2415,-32.619)"><text x="138.779px" y="238.196px" style="font-family:'Superclarendon-Regular', 'Superclarendon', serif;font-size:11.506px;fill:#262626;">El Museo Municipal</text></g><g transform="matrix(0.942925,0.333006,-0.333006,0.942925,92.5171,-32.3852)"><text x="140.734px" y="253.703px" style="font-family:'IowanOldStyle-Italic', 'Iowan Old Style', serif;font-style:italic;font-size:9.04px;fill:#262626;">( “El Sol” Agosto 12 de 1909. )</text></g><g><g transform="matrix(0.942925,0.333006,-0.333006,0.942925,93.6347,-16.7775)"><text x="95.762px" y="264.768px" style="font-family:'BigCaslon-Medium', 'Big Caslon';font-weight:500;font-size:9.862px;fill:#262626;">En</text></g><g transform="matrix(0.942925,0.333006,-0.333006,0.942925,96.1003,-21.1934)"><text x="109.877px" y="269.753px" style="font-family:'BigCaslon-Medium', 'Big Caslon';font-weight:500;font-size:9.862px;fill:#262626;">la</text></g><g transform="matrix(0.942925,0.333006,-0.333006,0.942925,97.6919,-24.0439)"><text x="118.988px" y="272.97px" style="font-family:'BigCaslon-Medium', 'Big Caslon';font-weight:500;font-size:9.862px;fill:#262626;">noche</text></g><g transform="matrix(0.942925,0.333006,-0.333006,0.942925,102.092,-31.9246)"><text x="144.178px" y="281.867px" style="font-family:'BigCaslon-Medium', 'Big Caslon';font-weight:500;font-size:9.862px;fill:#262626;">del</text></g><g transform="matrix(0.942925,0.333006,-0.333006,0.942925,104.55,-36.3258)"><text x="158.247px" y="286.835px" style="font-family:'BigCaslon-Medium', 'Big Caslon';font-weight:500;font-size:9.862px;fill:#262626;">lunes</text></g><g transform="matrix(0.942925,0.333006,-0.333006,0.942925,108.436,-43.2872)"><text x="180.498px" y="294.693px" style="font-family:'BigCaslon-Medium', 'Big Caslon';font-weight:500;font-size:9.862px;fill:#262626;">fue</text></g><g transform="matrix(0.942925,0.333006,-0.333006,0.942925,110.896,-47.6914)"><text x="194.576px" y="299.665px" style="font-family:'BigCaslon-Medium', 'Big Caslon';font-weight:500;font-size:9.862px;fill:#262626;">inaugurado</text></g><g transform="matrix(0.942925,0.333006,-0.333006,0.942925,118.923,-62.0685)"><text x="240.531px" y="315.895px" style="font-family:'BigCaslon-Medium', 'Big Caslon';font-weight:500;font-size:9.862px;fill:#262626;">el</text></g><g transform="matrix(0.942925,0.333006,-0.333006,0.942925,120.494,-64.8812)"><text x="249.522px" y="319.07px" style="font-family:'BigCaslon-Medium', 'Big Caslon';font-weight:500;font-size:9.862px;fill:#262626;">Museo</text></g></g><g transform="matrix(0.942925,0.333006,-0.333006,0.942925,96.7133,-15.0586)"><text x="92.286px" y="274.608px" style="font-family:'BigCaslon-Medium', 'Big Caslon';font-weight:500;font-size:9.862px;fill:#262626;">Municipal, anexo a la Biblioteca.</text></g><g><g transform="matrix(0.942925,0.333006,-0.333006,0.942925,100.52,-12.9332)"><text x="87.989px" y="286.775px" style="font-family:'BigCaslon-Medium', 'Big Caslon';font-weight:500;font-size:9.862px;fill:#262626;">Se</text></g><g transform="matrix(0.942925,0.333006,-0.333006,0.942925,103.33,-17.9661)"><text x="104.077px" y="292.457px" style="font-family:'BigCaslon-Medium', 'Big Caslon';font-weight:500;font-size:9.862px;fill:#262626;">ha</text></g><g transform="matrix(0.942925,0.333006,-0.333006,0.942925,106.03,-22.8012)"><text x="119.532px" y="297.915px" style="font-family:'BigCaslon-Medium', 'Big Caslon';font-weight:500;font-size:9.862px;fill:#262626;">instalado</text></g><g transform="matrix(0.942925,0.333006,-0.333006,0.942925,113.128,-35.5145)"><text x="160.169px" y="312.266px" style="font-family:'BigCaslon-Medium', 'Big Caslon';font-weight:500;font-size:9.862px;fill:#262626;">en</text></g><g transform="matrix(0.942925,0.333006,-0.333006,0.942925,115.802,-40.303)"><text x="175.475px" y="317.672px" style="font-family:'BigCaslon-Medium', 'Big Caslon';font-weight:500;font-size:9.862px;fill:#262626;">un</text></g><g transform="matrix(0.942925,0.333006,-0.333006,0.942925,118.618,-45.3475)"><text x="191.6px" y="323.367px" style="font-family:'BigCaslon-Medium', 'Big Caslon';font-weight:500;font-size:9.862px;fill:#262626;">salón</text></g><g transform="matrix(0.942925,0.333006,-0.333006,0.942925,123.163,-53.4875)"><text x="217.618px" y="332.555px" style="font-family:'BigCaslon-Medium', 'Big Caslon';font-weight:500;font-size:9.862px;fill:#262626;">que,</text></g><g transform="matrix(0.942925,0.333006,-0.333006,0.942925,127.125,-60.583)"><text x="240.299px" y="340.565px" style="font-family:'BigCaslon-Medium', 'Big Caslon';font-weight:500;font-size:9.862px;fill:#262626;">aunque</text></g></g><g><g transform="matrix(0.942925,0.333006,-0.333006,0.942925,103.599,-11.214)"><text x="84.514px" y="296.618px" style="font-family:'BigCaslon-Medium', 'Big Caslon';font-weight:500;font-size:9.862px;fill:#262626;">espacioso,</text></g><g transform="matrix(0.942925,0.333006,-0.333006,0.942925,111.308,-25.0207)"><text x="128.646px" y="312.204px" style="font-family:'BigCaslon-Medium', 'Big Caslon';font-weight:500;font-size:9.862px;fill:#262626;">resulta</text></g><g transform="matrix(0.942925,0.333006,-0.333006,0.942925,116.715,-34.705)"><text x="159.601px" y="323.136px" style="font-family:'BigCaslon-Medium', 'Big Caslon';font-weight:500;font-size:9.862px;fill:#262626;">ya</text></g><g transform="matrix(0.942925,0.333006,-0.333006,0.942925,119.116,-39.0042)"><text x="173.343px" y="327.989px" style="font-family:'BigCaslon-Medium', 'Big Caslon';font-weight:500;font-size:9.862px;fill:#262626;">estrecho</text></g><g transform="matrix(0.942925,0.333006,-0.333006,0.942925,125.636,-50.6813)"><text x="210.668px" y="341.171px" style="font-family:'BigCaslon-Medium', 'Big Caslon';font-weight:500;font-size:9.862px;fill:#262626;">dado</text></g><g transform="matrix(0.942925,0.333006,-0.333006,0.942925,129.964,-58.4338)"><text x="235.448px" y="349.922px" style="font-family:'BigCaslon-Medium', 'Big Caslon';font-weight:500;font-size:9.862px;fill:#262626;">el</text></g></g><g><g transform="matrix(0.942925,0.333006,-0.333006,0.942925,106.678,-9.49505)"><text x="81.038px" y="306.458px" style="font-family:'BigCaslon-Medium', 'Big Caslon';font-weight:500;font-size:9.862px;fill:#262626;">número</text></g><g transform="matrix(0.942925,0.333006,-0.333006,0.942925,112.412,-19.765)"><text x="113.866px" y="318.052px" style="font-family:'BigCaslon-Medium', 'Big Caslon';font-weight:500;font-size:9.862px;fill:#262626;">de</text></g><g transform="matrix(0.942925,0.333006,-0.333006,0.942925,114.637,-23.751)"><text x="126.606px" y="322.551px" style="font-family:'BigCaslon-Medium', 'Big Caslon';font-weight:500;font-size:9.862px;fill:#262626;">objetos</text></g><g transform="matrix(0.942925,0.333006,-0.333006,0.942925,120.057,-33.4566)"><text x="157.63px" y="333.507px" style="font-family:'BigCaslon-Medium', 'Big Caslon';font-weight:500;font-size:9.862px;fill:#262626;">que</text></g><g transform="matrix(0.942925,0.333006,-0.333006,0.942925,123.135,-38.9699)"><text x="175.253px" y="339.731px" style="font-family:'BigCaslon-Medium', 'Big Caslon';font-weight:500;font-size:9.862px;fill:#262626;">han</text></g><g transform="matrix(0.942925,0.333006,-0.333006,0.942925,126.192,-44.4454)"><text x="192.755px" y="345.912px" style="font-family:'BigCaslon-Medium', 'Big Caslon';font-weight:500;font-size:9.862px;fill:#262626;">ingresado</text></g></g><g transform="matrix(0.942925,0.333006,-0.333006,0.942925,109.757,-7.77578)"><text x="77.562px" y="316.301px" style="font-family:'BigCaslon-Medium', 'Big Caslon';font-weight:500;font-size:9.862px;fill:#262626;">seis meses de labor activa y perseverante.</text></g><g><g transform="matrix(0.942925,0.333006,-0.333006,0.942925,113.563,-5.65042)"><text x="73.265px" y="328.468px" style="font-family:'BigCaslon-Medium', 'Big Caslon';font-weight:500;font-size:9.862px;fill:#262626;">La</text></g><g transform="matrix(0.942925,0.333006,-0.333006,0.942925,115.956,-9.93606)"><text x="86.964px" y="333.306px" style="font-family:'BigCaslon-Medium', 'Big Caslon';font-weight:500;font-size:9.862px;fill:#262626;">instalación</text></g><g transform="matrix(0.942925,0.333006,-0.333006,0.942925,123.523,-23.4878)"><text x="130.281px" y="348.604px" style="font-family:'BigCaslon-Medium', 'Big Caslon';font-weight:500;font-size:9.862px;fill:#262626;">está</text></g></g><g><g transform="matrix(0.942925,0.333006,-0.333006,0.942925,116.642,-3.93148)"><text x="69.79px" y="338.308px" style="font-family:'BigCaslon-Medium', 'Big Caslon';font-weight:500;font-size:9.862px;fill:#262626;">principales;</text></g></g><g transform="matrix(0.942925,0.333006,-0.333006,0.942925,119.721,-2.21222)"><text x="66.314px" y="348.151px" style="font-family:'BigCaslon-Medium', 'Big Caslon';font-weight:500;font-size:9.862px;fill:#262626;">Numismática, Artes e Historia Natural.</text></g><g><g transform="matrix(0.942925,0.333006,-0.333006,0.942925,100.522,-92.2872)"><text x="319.486px" y="247.105px" style="font-family:'BigCaslon-Medium', 'Big Caslon';font-weight:500;font-size:9.862px;fill:#262626;">antiguas</text></g><g transform="matrix(0.942925,0.333006,-0.333006,0.942925,107.665,-105.079)"><text x="360.375px" y="261.546px" style="font-family:'BigCaslon-Medium', 'Big Caslon';font-weight:500;font-size:9.862px;fill:#262626;">hasta</text></g><g transform="matrix(0.942925,0.333006,-0.333006,0.942925,112.697,-114.093)"><text x="389.186px" y="271.721px" style="font-family:'BigCaslon-Medium', 'Big Caslon';font-weight:500;font-size:9.862px;fill:#262626;">las</text></g><g transform="matrix(0.942925,0.333006,-0.333006,0.942925,116.024,-120.051)"><text x="408.233px" y="278.447px" style="font-family:'BigCaslon-Medium', 'Big Caslon';font-weight:500;font-size:9.862px;fill:#262626;">modernas;</text></g><g transform="matrix(0.942925,0.333006,-0.333006,0.942925,124.518,-135.264)"><text x="456.859px" y="295.62px" style="font-family:'BigCaslon-Medium', 'Big Caslon';font-weight:500;font-size:9.862px;fill:#262626;">colecciones</text></g></g><g><g transform="matrix(0.942925,0.333006,-0.333006,0.942925,103.601,-90.5683)"><text x="316.011px" y="256.946px" style="font-family:'BigCaslon-Medium', 'Big Caslon';font-weight:500;font-size:9.862px;fill:#262626;">magníﬁcas</text></g><g transform="matrix(0.942925,0.333006,-0.333006,0.942925,111.697,-105.068)"><text x="362.359px" y="273.314px" style="font-family:'BigCaslon-Medium', 'Big Caslon';font-weight:500;font-size:9.862px;fill:#262626;">de</text></g><g transform="matrix(0.942925,0.333006,-0.333006,0.942925,114.363,-109.843)"><text x="377.621px" y="278.704px" style="font-family:'BigCaslon-Medium', 'Big Caslon';font-weight:500;font-size:9.862px;fill:#262626;">medallas</text></g><g transform="matrix(0.942925,0.333006,-0.333006,0.942925,121.193,-122.076)"><text x="416.724px" y="292.514px" style="font-family:'BigCaslon-Medium', 'Big Caslon';font-weight:500;font-size:9.862px;fill:#262626;">de</text></g><g transform="matrix(0.942925,0.333006,-0.333006,0.942925,123.859,-126.851)"><text x="431.986px" y="297.904px" style="font-family:'BigCaslon-Medium', 'Big Caslon';font-weight:500;font-size:9.862px;fill:#262626;">diversas</text></g><g transform="matrix(0.942925,0.333006,-0.333006,0.942925,130.206,-138.217)"><text x="468.318px" y="310.735px" style="font-family:'BigCaslon-Medium', 'Big Caslon';font-weight:500;font-size:9.862px;fill:#262626;">épocas,</text></g></g><g><g transform="matrix(0.942925,0.333006,-0.333006,0.942925,106.68,-88.849)"><text x="312.535px" y="266.788px" style="font-family:'BigCaslon-Medium', 'Big Caslon';font-weight:500;font-size:9.862px;fill:#262626;">billetes,</text></g><g transform="matrix(0.942925,0.333006,-0.333006,0.942925,112.439,-99.1635)"><text x="345.505px" y="278.432px" style="font-family:'BigCaslon-Medium', 'Big Caslon';font-weight:500;font-size:9.862px;fill:#262626;">desde</text></g><g transform="matrix(0.942925,0.333006,-0.333006,0.942925,116.966,-107.27)"><text x="371.418px" y="287.583px" style="font-family:'BigCaslon-Medium', 'Big Caslon';font-weight:500;font-size:9.862px;fill:#262626;">el</text></g><g transform="matrix(0.942925,0.333006,-0.333006,0.942925,118.79,-110.539)"><text x="381.865px" y="291.273px" style="font-family:'BigCaslon-Medium', 'Big Caslon';font-weight:500;font-size:9.862px;fill:#262626;">asignado</text></g><g transform="matrix(0.942925,0.333006,-0.333006,0.942925,125.414,-122.402)"><text x="419.784px" y="304.664px" style="font-family:'BigCaslon-Medium', 'Big Caslon';font-weight:500;font-size:9.862px;fill:#262626;">francés,</text></g><g transform="matrix(0.942925,0.333006,-0.333006,0.942925,131.149,-132.672)"><text x="452.614px" y="316.259px" style="font-family:'BigCaslon-Medium', 'Big Caslon';font-weight:500;font-size:9.862px;fill:#262626;">que</text></g><g transform="matrix(0.942925,0.333006,-0.333006,0.942925,134.314,-138.341)"><text x="470.734px" y="322.658px" style="font-family:'BigCaslon-Medium', 'Big Caslon';font-weight:500;font-size:9.862px;fill:#262626;">fue</text></g><g transform="matrix(0.942925,0.333006,-0.333006,0.942925,137.028,-143.201)"><text x="486.268px" y="328.144px" style="font-family:'BigCaslon-Medium', 'Big Caslon';font-weight:500;font-size:9.862px;fill:#262626;">el</text></g></g><g><g transform="matrix(0.942925,0.333006,-0.333006,0.942925,109.759,-87.1297)"><text x="309.059px" y="276.63px" style="font-family:'BigCaslon-Medium', 'Big Caslon';font-weight:500;font-size:9.862px;fill:#262626;">primer</text></g><g transform="matrix(0.942925,0.333006,-0.333006,0.942925,115.197,-96.8694)"><text x="340.191px" y="287.625px" style="font-family:'BigCaslon-Medium', 'Big Caslon';font-weight:500;font-size:9.862px;fill:#262626;">papel</text></g><g transform="matrix(0.942925,0.333006,-0.333006,0.942925,119.768,-105.056)"><text x="366.36px" y="296.867px" style="font-family:'BigCaslon-Medium', 'Big Caslon';font-weight:500;font-size:9.862px;fill:#262626;">moneda,</text></g><g transform="matrix(0.942925,0.333006,-0.333006,0.942925,126.452,-117.027)"><text x="404.624px" y="310.38px" style="font-family:'BigCaslon-Medium', 'Big Caslon';font-weight:500;font-size:9.862px;fill:#262626;">hasta</text></g><g transform="matrix(0.942925,0.333006,-0.333006,0.942925,130.908,-125.007)"><text x="430.132px" y="319.389px" style="font-family:'BigCaslon-Medium', 'Big Caslon';font-weight:500;font-size:9.862px;fill:#262626;">los</text></g><g transform="matrix(0.942925,0.333006,-0.333006,0.942925,133.761,-130.116)"><text x="446.462px" y="325.156px" style="font-family:'BigCaslon-Medium', 'Big Caslon';font-weight:500;font-size:9.862px;fill:#262626;">de</text></g><g transform="matrix(0.942925,0.333006,-0.333006,0.942925,136.356,-134.764)"><text x="461.32px" y="330.403px" style="font-family:'BigCaslon-Medium', 'Big Caslon';font-weight:500;font-size:9.862px;fill:#262626;">nuestra</text></g></g><g transform="matrix(0.942925,0.333006,-0.333006,0.942925,112.838,-85.4108)"><text x="305.584px" y="286.471px" style="font-family:'BigCaslon-Medium', 'Big Caslon';font-weight:500;font-size:9.862px;fill:#262626;">época.</text></g><g><g transform="matrix(0.942925,0.333006,-0.333006,0.942925,116.644,-83.2854)"><text x="301.287px" y="298.638px" style="font-family:'BigCaslon-Medium', 'Big Caslon';font-weight:500;font-size:9.862px;fill:#262626;">Llama</text></g><g transform="matrix(0.942925,0.333006,-0.333006,0.942925,121.472,-91.9324)"><text x="328.926px" y="308.399px" style="font-family:'BigCaslon-Medium', 'Big Caslon';font-weight:500;font-size:9.862px;fill:#262626;">la</text></g><g transform="matrix(0.942925,0.333006,-0.333006,0.942925,123.133,-94.9062)"><text x="338.432px" y="311.756px" style="font-family:'BigCaslon-Medium', 'Big Caslon';font-weight:500;font-size:9.862px;fill:#262626;">atención</text></g><g transform="matrix(0.942925,0.333006,-0.333006,0.942925,129.264,-105.887)"><text x="373.531px" y="324.152px" style="font-family:'BigCaslon-Medium', 'Big Caslon';font-weight:500;font-size:9.862px;fill:#262626;">la</text></g><g transform="matrix(0.942925,0.333006,-0.333006,0.942925,130.924,-108.861)"><text x="383.037px" y="327.509px" style="font-family:'BigCaslon-Medium', 'Big Caslon';font-weight:500;font-size:9.862px;fill:#262626;">sección</text></g><g transform="matrix(0.942925,0.333006,-0.333006,0.942925,136.277,-118.447)"><text x="413.68px" y="338.331px" style="font-family:'BigCaslon-Medium', 'Big Caslon';font-weight:500;font-size:9.862px;fill:#262626;">Etnológica,</text></g></g><g><g transform="matrix(0.942925,0.333006,-0.333006,0.942925,119.723,-81.5662)"><text x="297.811px" y="308.48px" style="font-family:'BigCaslon-Medium', 'Big Caslon';font-weight:500;font-size:9.862px;fill:#262626;">todo</text></g><g transform="matrix(0.942925,0.333006,-0.333006,0.942925,123.156,-87.714)"><text x="317.462px" y="315.421px" style="font-family:'BigCaslon-Medium', 'Big Caslon';font-weight:500;font-size:9.862px;fill:#262626;">lo</text></g><g transform="matrix(0.942925,0.333006,-0.333006,0.942925,124.745,-90.5605)"><text x="326.561px" y="318.634px" style="font-family:'BigCaslon-Medium', 'Big Caslon';font-weight:500;font-size:9.862px;fill:#262626;">que</text></g><g transform="matrix(0.942925,0.333006,-0.333006,0.942925,127.551,-95.5853)"><text x="342.622px" y="324.306px" style="font-family:'BigCaslon-Medium', 'Big Caslon';font-weight:500;font-size:9.862px;fill:#262626;">se</text></g><g transform="matrix(0.942925,0.333006,-0.333006,0.942925,129.238,-98.6063)"><text x="352.279px" y="327.716px" style="font-family:'BigCaslon-Medium', 'Big Caslon';font-weight:500;font-size:9.862px;fill:#262626;">reﬁere</text></g><g transform="matrix(0.942925,0.333006,-0.333006,0.942925,133.722,-106.637)"><text x="377.948px" y="336.782px" style="font-family:'BigCaslon-Medium', 'Big Caslon';font-weight:500;font-size:9.862px;fill:#262626;">a nuestra</text></g><g transform="matrix(0.942925,0.333006,-0.333006,0.942925,140.025,-117.927)"><text x="414.035px" y="349.526px" style="font-family:'BigCaslon-Medium', 'Big Caslon';font-weight:500;font-size:9.862px;fill:#262626;">Región</text></g></g><g><g transform="matrix(0.942925,0.333006,-0.333006,0.942925,122.802,-79.8472)"><text x="294.336px" y="318.321px" style="font-family:'BigCaslon-Medium', 'Big Caslon';font-weight:500;font-size:9.862px;fill:#262626;">llena</text></g><g transform="matrix(0.942925,0.333006,-0.333006,0.942925,126.812,-87.0296)"><text x="317.294px" y="326.429px" style="font-family:'BigCaslon-Medium', 'Big Caslon';font-weight:500;font-size:9.862px;fill:#262626;">está</text></g><g transform="matrix(0.942925,0.333006,-0.333006,0.942925,130.324,-93.3195)"><text x="337.399px" y="333.529px" style="font-family:'BigCaslon-Medium', 'Big Caslon';font-weight:500;font-size:9.862px;fill:#262626;">una</text></g><g transform="matrix(0.942925,0.333006,-0.333006,0.942925,133.679,-99.3271)"><text x="356.602px" y="340.311px" style="font-family:'BigCaslon-Medium', 'Big Caslon';font-weight:500;font-size:9.862px;fill:#262626;">gran</text></g><g transform="matrix(0.942925,0.333006,-0.333006,0.942925,137.616,-106.379)"><text x="379.141px" y="348.271px" style="font-family:'BigCaslon-Medium', 'Big Caslon';font-weight:500;font-size:9.862px;fill:#262626;">vitrina</text></g></g><g><g transform="matrix(0.942925,0.333006,-0.333006,0.942925,125.881,-78.128)"><text x="290.86px" y="328.163px" style="font-family:'BigCaslon-Medium', 'Big Caslon';font-weight:500;font-size:9.862px;fill:#262626;">colección</text></g><g transform="matrix(0.942925,0.333006,-0.333006,0.942925,132.295,-89.6155)"><text x="327.579px" y="341.131px" style="font-family:'BigCaslon-Medium', 'Big Caslon';font-weight:500;font-size:9.862px;fill:#262626;">de</text></g><g transform="matrix(0.942925,0.333006,-0.333006,0.942925,134.173,-92.978)"><text x="338.327px" y="344.927px" style="font-family:'BigCaslon-Medium', 'Big Caslon';font-weight:500;font-size:9.862px;fill:#262626;">preciosos</text></g></g><g><g transform="matrix(0.942925,0.333006,-0.333006,0.942925,128.96,-76.4087)"><text x="287.384px" y="338.006px" style="font-family:'BigCaslon-Medium', 'Big Caslon';font-weight:500;font-size:9.862px;fill:#262626;">con</text></g><g transform="matrix(0.942925,0.333006,-0.333006,0.942925,131.729,-81.3667)"><text x="303.232px" y="343.603px" style="font-family:'BigCaslon-Medium', 'Big Caslon';font-weight:500;font-size:9.862px;fill:#262626;">los</text></g><g transform="matrix(0.942925,0.333006,-0.333006,0.942925,133.969,-85.3791)"><text x="316.057px" y="348.132px" style="font-family:'BigCaslon-Medium', 'Big Caslon';font-weight:500;font-size:9.862px;fill:#262626;">colmillos</text></g></g><g><g transform="matrix(0.942925,0.333006,-0.333006,0.942925,132.039,-74.6898)"><text x="283.909px" y="347.846px" style="font-family:'BigCaslon-Medium', 'Big Caslon';font-weight:500;font-size:9.862px;fill:#262626;">por</text></g></g></g><g><g><g transform="matrix(0.942925,0.333006,-0.333006,0.942925,69.4781,-34.3519)"><text x="134.952px" y="185.509px" style="font-family:'LucidaGrande', 'Lucida Grande', sans-serif;font-weight:500;font-size:9.862px;fill:#231f20;">D</text></g><g transform="matrix(0.942925,0.333006,-0.333006,0.942925,70.877,-36.8574)"><text x="142.961px" y="188.338px" style="font-family:'LucidaGrande', 'Lucida Grande', sans-serif;font-weight:500;font-size:9.862px;fill:#231f20;">IRECCION</text></g></g><g transform="matrix(0.942925,0.333006,-0.333006,0.942925,80.488,-54.0703)"><text x="197.981px" y="207.769px" style="font-family:'LucidaGrande', 'Lucida Grande', sans-serif;font-weight:500;font-size:9.862px;fill:#231f20;">Y</text></g><g><g transform="matrix(0.942925,0.333006,-0.333006,0.942925,82.2842,-57.2874)"><text x="208.264px" y="211.4px" style="font-family:'LucidaGrande', 'Lucida Grande', sans-serif;font-weight:500;font-size:9.862px;fill:#231f20;">A</text></g><g transform="matrix(0.942925,0.333006,-0.333006,0.942925,83.587,-59.6206)"><text x="215.722px" y="214.034px" style="font-family:'LucidaGrande', 'Lucida Grande', sans-serif;font-weight:500;font-size:9.862px;fill:#231f20;">DMINISTRACION</text></g></g><g transform="matrix(0.942925,0.333006,-0.333006,0.942925,74.1755,-34.0982)"><text x="136.561px" y="199.34px" style="font-family:'BigCaslon-Medium', 'Big Caslon';font-weight:500;font-size:9.862px;fill:#231f20;">EN LA BIBLIOTECA MUNICIPAL</text></g></g></g><g><path d="M117.25,203.922l179.912,63.538" style="fill:none;stroke:#231f20;stroke-width:2.47px;"/><path d="M116.34,206.501l179.911,63.538" style="fill:none;stroke:#231f20;stroke-width:0.41px;"/></g><g><path d="M204.768,135.641l2.479,0.876l-2.259,6.398c-0.876,2.48 -2.282,2.987 -4.018,2.374c-1.736,-0.613 -2.512,-1.891 -1.636,-4.371l6.621,-18.747c0.876,-2.48 2.3,-3.037 4.035,-2.424c1.736,0.613 2.495,1.941 1.619,4.421l-1.314,3.719l5.158,1.822l1.191,-3.373c1.962,-5.554 0.306,-9.709 -5.051,-11.601c-5.356,-1.892 -9.255,0.302 -11.216,5.856l-6.376,18.053c-1.962,5.555 -0.305,9.71 5.051,11.602c5.356,1.891 9.255,-0.302 11.217,-5.857l3.888,-11.01l-7.638,-2.697l-1.751,4.959Z" style="fill:#231f20;fill-rule:nonzero;"/><path d="M235.16,123.504l-7.985,-2.82l-17.816,32.756l5.01,1.769l3.166,-5.966l6.696,2.364l-1.282,6.632l5.505,1.944l6.706,-36.679Zm-6.437,4.644l-3.572,18.485l-5.257,-1.857l8.829,-16.628Z" style="fill:#231f20;fill-rule:nonzero;"/><path d="M246.168,151.88l-1.751,4.96c-0.876,2.48 -2.282,2.987 -4.018,2.374c-1.736,-0.613 -2.512,-1.891 -1.636,-4.371l6.621,-18.747c0.876,-2.48 2.299,-3.037 4.035,-2.424c1.736,0.613 2.494,1.941 1.619,4.42l-1.314,3.72l5.158,1.822l1.191,-3.373c1.962,-5.555 0.305,-9.71 -5.051,-11.601c-5.356,-1.892 -9.255,0.301 -11.216,5.856l-6.376,18.053c-1.962,5.555 -0.305,9.71 5.051,11.602c5.356,1.891 9.255,-0.302 11.216,-5.857l1.629,-4.612l-5.158,-1.822Z" style="fill:#231f20;fill-rule:nonzero;"/><path d="M266.043,139.989l9.423,3.328l1.751,-4.96l-14.878,-5.254l-12.261,34.717l14.879,5.255l1.751,-4.96l-9.423,-3.328l3.591,-10.167l7.489,2.645l1.751,-4.96l-7.489,-2.645l3.416,-9.671Z" style="fill:#231f20;fill-rule:nonzero;"/><path d="M277.251,143.947l5.704,2.015l-10.509,29.757l5.455,1.927l10.51,-29.758l5.703,2.015l1.752,-4.96l-16.863,-5.955l-1.752,4.959Z" style="fill:#231f20;fill-rule:nonzero;"/><path d="M308.463,149.392l-7.985,-2.82l-17.816,32.756l5.01,1.769l3.166,-5.966l6.696,2.364l-1.282,6.632l5.505,1.944l6.706,-36.679Zm-6.437,4.644l-3.572,18.485l-5.257,-1.857l8.829,-16.628Z" style="fill:#231f20;fill-rule:nonzero;"/><path d="M331.773,157.624l-7.588,-2.68l-12.261,34.718l4.761,1.681l8.671,-24.55l-4.604,25.986l5.158,1.822l12.562,-23.566l-8.792,24.897l5.158,1.822l12.26,-34.717l-7.588,-2.68l-12.425,23.335l4.688,-26.068Z" style="fill:#231f20;fill-rule:nonzero;"/><path d="M350.818,164.35l-9.336,26.435c-1.961,5.555 -0.305,9.71 5.051,11.601c5.357,1.892 9.255,-0.301 11.217,-5.856l9.336,-26.435l-5.158,-1.821l-9.459,26.782c-0.875,2.479 -2.282,2.987 -4.018,2.374c-1.736,-0.613 -2.511,-1.891 -1.636,-4.371l9.459,-26.782l-5.456,-1.927Z" style="fill:#231f20;fill-rule:nonzero;"/><path d="M370.2,210.242l5.604,1.98l12.261,-34.718l-4.861,-1.716l-7.339,20.781l1.735,-22.76l-6.844,-2.418l-12.261,34.718l4.91,1.734l8.88,-25.145l-2.085,27.544Z" style="fill:#231f20;fill-rule:nonzero;"/><path d="M397.438,180.815l-5.455,-1.927l-12.261,34.717l5.456,1.927l12.26,-34.717Z" style="fill:#231f20;"/><path d="M404.38,207.755l-1.752,4.959c-0.875,2.48 -2.282,2.987 -4.018,2.374c-1.735,-0.613 -2.511,-1.891 -1.635,-4.371l6.62,-18.747c0.876,-2.48 2.3,-3.037 4.036,-2.424c1.736,0.613 2.494,1.941 1.618,4.421l-1.313,3.72l5.158,1.821l1.191,-3.372c1.961,-5.555 0.305,-9.71 -5.051,-11.602c-5.357,-1.892 -9.255,0.302 -11.217,5.857l-6.375,18.053c-1.962,5.554 -0.306,9.709 5.051,11.601c5.356,1.892 9.254,-0.302 11.216,-5.856l1.629,-4.613l-5.158,-1.821Z" style="fill:#231f20;fill-rule:nonzero;"/><path d="M426.006,190.904l-5.456,-1.927l-12.261,34.717l5.456,1.927l12.261,-34.717Z" style="fill:#231f20;"/><path d="M438.008,195.142l-8.034,-2.837l-12.261,34.717l5.455,1.927l4.607,-13.044l2.579,0.911c5.455,1.927 9.202,-0.153 11.164,-5.708l1.594,-4.513c1.961,-5.555 0.352,-9.526 -5.104,-11.453Zm-1.751,4.96c1.735,0.613 2.398,1.739 1.522,4.219l-1.839,5.208c-0.876,2.48 -2.099,2.94 -3.835,2.327l-2.579,-0.91l4.152,-11.755l2.579,0.911Z" style="fill:#231f20;fill-rule:nonzero;"/><path d="M460.128,202.954l-7.985,-2.82l-17.816,32.756l5.01,1.769l3.166,-5.966l6.696,2.365l-1.282,6.631l5.505,1.944l6.706,-36.679Zm-6.437,4.644l-3.572,18.485l-5.257,-1.856l8.829,-16.629Z" style="fill:#231f20;fill-rule:nonzero;"/><path d="M455.951,240.527l14.433,5.097l1.751,-4.96l-8.977,-3.17l10.51,-29.758l-5.456,-1.927l-12.261,34.718Z" style="fill:#231f20;fill-rule:nonzero;"/></g></g></svg>