<?xml version="1.0" encoding="UTF-8" standalone="no"?><!DOCTYPE svg PUBLIC "-//W3C//DTD SVG 1.1//EN" "http://www.w3.org/Graphics/SVG/1.1/DTD/svg11.dtd"><svg width="100%" height="100%" viewBox="0 0 1600 1200" version="1.1" xmlns="http://www.w3.org/2000/svg" xmlns:xlink="http://www.w3.org/1999/xlink" xml:space="preserve" xmlns:serif="http://www.serif.com/" style="fill-rule:evenodd;clip-rule:evenodd;stroke-linejoin:round;stroke-miterlimit:2;"><g id="Module"><rect x="-6.886" y="-19.217" width="1618.8" height="1252.44" style="fill:#f7f7f7;"/><g><circle id="Shape" cx="360.6" cy="360" r="120" style="fill:#eceff1;"/><circle id="Shape1" serif:id="Shape" cx="361.197" cy="360.597" r="70.448" style="fill:#0c354f;"/><circle id="Shape2" serif:id="Shape" cx="361.197" cy="360.597" r="37.015" style="fill:#b0bec5;"/></g><g id="Shape3" serif:id="Shape"><path d="M1560.82,994.684l-85.127,85.189l85.127,85.19l85.127,-85.19l-85.127,-85.189Z" style="fill:#b0bec5;fill-rule:nonzero;"/><path d="M1591.13,1049.54l-60.62,0l0,60.664l60.62,0l0,-60.664Z" style="fill:#f7f7f7;fill-rule:nonzero;"/></g><g id="Shape4" serif:id="Shape"><path d="M1560,720c-66.274,0 -120,53.726 -120,120c0,66.274 53.726,120 120,120l120,0l0,-120c0,-66.274 -53.726,-120 -120,-120Z" style="fill:#f1e3cf;fill-rule:nonzero;"/><path d="M1608.24,816.482c-39.631,0 -71.759,32.128 -71.759,71.759c0,39.631 32.128,71.759 71.759,71.759l71.759,0l0,-71.759c0,-39.631 -32.128,-71.759 -71.759,-71.759Z" style="fill:#eceff1;fill-rule:nonzero;"/><path d="M1560,765.528c-40.464,0 -73.266,32.802 -73.266,73.266c0,40.464 32.802,73.266 73.266,73.266c40.464,0 73.266,-32.802 73.266,-73.266c0,-40.464 -32.802,-73.266 -73.266,-73.266Z" style="fill:#b0bec5;fill-rule:nonzero;"/><path d="M1560,795.905c-23.687,0 -42.889,19.202 -42.889,42.889c0,23.687 19.202,42.889 42.889,42.889c23.687,0 42.889,-19.202 42.889,-42.889c0,-23.687 -19.202,-42.889 -42.889,-42.889Z" style="fill:#0c354f;fill-rule:nonzero;"/></g><g><ellipse id="Shape5" serif:id="Shape" cx="360.295" cy="599.704" rx="100.835" ry="100.788" style="fill:#f1e3cf;"/><path id="Shape6" serif:id="Shape" d="M480,480c0,65.948 -53.33,119.409 -119.115,119.409c0,-65.948 53.329,-119.409 119.115,-119.409Z" style="fill:#eceff1;fill-rule:nonzero;"/><path id="Shape7" serif:id="Shape" d="M359.115,595.931l0,3.478l-3.469,0c-63.869,0 -115.646,-51.904 -115.646,-115.931l0,-3.478l3.469,0c63.87,0 115.646,51.904 115.646,115.931Z" style="fill:#b0bec5;fill-rule:nonzero;"/><path id="Shape8" serif:id="Shape" d="M355.646,600.591l3.469,0l0,3.478c0,64.027 -51.776,115.931 -115.646,115.931l-3.469,0l0,-3.478c0,-64.027 51.777,-115.931 115.646,-115.931Z" style="fill:#eceff1;fill-rule:nonzero;"/><path id="Shape9" serif:id="Shape" d="M480,716.522l0,3.478l-3.469,0c-63.87,0 -115.646,-51.904 -115.646,-115.931l0,-3.478l3.469,0c63.869,0 115.646,51.904 115.646,115.931Z" style="fill:#b0bec5;fill-rule:nonzero;"/></g><g><path id="Shape10" serif:id="Shape" d="M221.4,840.035c0,55.653 -45.183,100.836 -100.835,100.836c-55.653,0 -100.836,-45.183 -100.836,-100.836c0,-55.652 45.183,-100.835 100.836,-100.835c55.652,0 100.835,45.183 100.835,100.835Z" style="fill:#f1e3cf;"/><path id="Shape11" serif:id="Shape" d="M0,836.505c0,-64.344 52.161,-116.505 116.505,-116.505l3.495,0l0,3.495c0,64.344 -52.161,116.505 -116.505,116.505l-3.495,0l0,-3.495Z" style="fill:#eceff1;fill-rule:nonzero;"/><path id="Shape12" serif:id="Shape" d="M120,956.505l0,3.495l-3.495,0c-64.344,0 -116.505,-52.161 -116.505,-116.505l0,-3.495l3.495,0c64.344,0 116.505,52.161 116.505,116.505Z" style="fill:#b0bec5;fill-rule:nonzero;"/><path id="Shape13" serif:id="Shape" d="M120,843.495l0,-3.495l3.495,0c64.344,0 116.505,52.161 116.505,116.505l0,3.495l-3.495,0c-64.344,0 -116.505,-52.161 -116.505,-116.505Z" style="fill:#eceff1;fill-rule:nonzero;"/><path id="Shape14" serif:id="Shape" d="M240,723.495c0,64.344 -52.161,116.505 -116.505,116.505l-3.495,0l0,-3.495c0,-64.344 52.161,-116.505 116.505,-116.505l3.495,0l0,3.495Z" style="fill:#b0bec5;fill-rule:nonzero;"/></g><g><path id="Shape15" serif:id="Shape" d="M120.6,0c66.274,0 120,53.726 120,120c0,66.274 -53.726,120 -120,120c-66.274,0 -120,-53.726 -120,-120c0,-66.274 53.726,-120 120,-120Z" style="fill:#b0bec5;fill-rule:nonzero;"/><path id="Shape16" serif:id="Shape" d="M121.19,48.354c39.894,0 72.236,32.341 72.236,72.236c0,39.894 -32.342,72.236 -72.236,72.236c-39.895,0 -72.236,-32.342 -72.236,-72.236c0,-39.895 32.341,-72.236 72.236,-72.236Z" style="fill:#f1e3cf;fill-rule:nonzero;"/><path id="Shape17" serif:id="Shape" d="M122.369,83.145c21.332,0 38.624,17.293 38.624,38.624c0,21.332 -17.292,38.624 -38.624,38.624c-21.331,0 -38.624,-17.292 -38.624,-38.624c0,-21.331 17.293,-38.624 38.624,-38.624Z" style="fill:#0c354f;fill-rule:nonzero;"/><path id="Shape18" serif:id="Shape" d="M240.6,94.349l0,145.651l-145.651,0c0,-80.441 65.21,-145.651 145.651,-145.651Z" style="fill:#eceff1;fill-rule:nonzero;"/></g><g><path id="Shape19" serif:id="Shape" d="M1320,960c66.274,0 120,53.726 120,120c0,66.274 -53.726,120 -120,120c-66.274,0 -120,-53.726 -120,-120c0,-66.274 53.726,-120 120,-120Z" style="fill:#b0bec5;fill-rule:nonzero;"/><path id="Shape20" serif:id="Shape" d="M1320.59,1008.35c39.894,0 72.236,32.341 72.236,72.236c0,39.894 -32.342,72.236 -72.236,72.236c-39.895,0 -72.236,-32.342 -72.236,-72.236c0,-39.895 32.341,-72.236 72.236,-72.236Z" style="fill:#f1e3cf;fill-rule:nonzero;"/><path id="Shape21" serif:id="Shape" d="M1321.77,1043.14c21.332,0 38.624,17.293 38.624,38.624c0,21.332 -17.292,38.624 -38.624,38.624c-21.331,0 -38.624,-17.292 -38.624,-38.624c0,-21.331 17.293,-38.624 38.624,-38.624Z" style="fill:#0c354f;fill-rule:nonzero;"/><path id="Shape22" serif:id="Shape" d="M1440,1054.35l0,145.651l-145.651,0c0,-80.441 65.21,-145.651 145.651,-145.651Z" style="fill:#eceff1;fill-rule:nonzero;"/></g><g><path id="Shape23" serif:id="Shape" d="M601.769,779.263c0,-32.567 26.401,-58.968 58.968,-58.968c32.567,0 58.968,26.401 58.968,58.968c0,32.567 -26.401,58.968 -58.968,58.968c-32.567,0 -58.968,-26.401 -58.968,-58.968Z" style="fill:#eceff1;fill-rule:nonzero;"/><path id="Shape24" serif:id="Shape" d="M480.295,779.263c0,-32.567 26.401,-58.968 58.968,-58.968c32.567,0 58.968,26.401 58.968,58.968c0,32.567 -26.401,58.968 -58.968,58.968c-32.567,0 -58.968,-26.401 -58.968,-58.968Z" style="fill:#c0c0c0;fill-rule:nonzero;"/><path id="Shape25" serif:id="Shape" d="M601.769,898.378c0,-32.567 26.401,-58.968 58.968,-58.968c32.567,0 58.968,26.401 58.968,58.968c0,32.568 -26.401,58.968 -58.968,58.968c-32.567,0 -58.968,-26.4 -58.968,-58.968Z" style="fill:#c0c0c0;fill-rule:nonzero;"/><path id="Shape26" serif:id="Shape" d="M480,960l0,-60.147c0,-33.219 27.061,-60.148 60.442,-60.148c33.382,0 60.443,26.929 60.443,60.148c0,33.218 -27.061,60.147 -60.443,60.147l-60.442,0Z" style="fill:#b0bec5;fill-rule:nonzero;"/></g><g><path id="Shape27" serif:id="Shape" d="M58.968,1077.94c-32.567,0 -58.968,-26.401 -58.968,-58.968c0,-32.567 26.401,-58.968 58.968,-58.968c32.567,0 58.968,26.401 58.968,58.968c0,32.567 -26.401,58.968 -58.968,58.968Z" style="fill:#eceff1;fill-rule:nonzero;"/><path id="Shape28" serif:id="Shape" d="M58.968,1200c-32.567,0 -58.968,-26.401 -58.968,-58.968c0,-32.567 26.401,-58.968 58.968,-58.968c32.567,0 58.968,26.401 58.968,58.968c0,32.567 -26.401,58.968 -58.968,58.968Z" style="fill:#c0c0c0;fill-rule:nonzero;"/><path id="Shape29" serif:id="Shape" d="M178.673,1077.94c-32.567,0 -58.968,-26.401 -58.968,-58.968c0,-32.567 26.401,-58.968 58.968,-58.968c32.567,0 58.968,26.401 58.968,58.968c0,32.567 -26.401,58.968 -58.968,58.968Z" style="fill:#c0c0c0;fill-rule:nonzero;"/><path id="Shape30" serif:id="Shape" d="M240,1200l-60.442,0c-33.382,0 -60.443,-27.061 -60.443,-60.442c0,-33.382 27.061,-60.443 60.443,-60.443c33.381,0 60.442,27.061 60.442,60.443l0,60.442Z" style="fill:#b0bec5;fill-rule:nonzero;"/></g><g id="Shape31" serif:id="Shape"><path d="M120.817,445.316l-85.127,-85.189l85.127,-85.188l85.126,85.188l-85.126,85.189Z" style="fill:#c0c0c0;fill-rule:nonzero;"/><path d="M120.817,403.023l-42.864,-42.896l42.864,-42.895l42.864,42.895l-42.864,42.896Z" style="fill:#f1e3cf;fill-rule:nonzero;"/></g><g id="Shape32" serif:id="Shape"><path d="M600,960c66.274,0 120,53.726 120,120c0,66.274 -53.726,120 -120,120l-120,0l0,-120c0,-66.274 53.726,-120 120,-120Z" style="fill:#f1e3cf;fill-rule:nonzero;"/><path d="M551.759,1056.48c39.631,0 71.759,32.128 71.759,71.759c0,39.631 -32.128,71.759 -71.759,71.759l-71.759,0l0,-71.759c0,-39.631 32.128,-71.759 71.759,-71.759Z" style="fill:#0c354f;fill-rule:nonzero;"/><path d="M600,1005.53c40.464,0 73.266,32.802 73.266,73.266c0,40.464 -32.802,73.266 -73.266,73.266c-40.464,0 -73.266,-32.802 -73.266,-73.266c0,-40.464 32.802,-73.266 73.266,-73.266Z" style="fill:#b0bec5;fill-rule:nonzero;"/><path d="M600,1035.9c23.687,0 42.889,19.202 42.889,42.889c0,23.687 -19.202,42.889 -42.889,42.889c-23.687,0 -42.889,-19.202 -42.889,-42.889c0,-23.687 19.202,-42.889 42.889,-42.889Z" style="fill:#0c354f;fill-rule:nonzero;"/></g><g id="Shape33" serif:id="Shape"><path d="M720,1079.4l0,-119.397l119.397,0c66.607,0 120.603,53.996 120.603,120.603l0,119.397l-119.397,0c-66.607,0 -120.603,-53.996 -120.603,-120.603Z" style="fill:#b0bec5;fill-rule:nonzero;"/><path d="M771.859,1080c0,-38.965 31.588,-70.553 70.553,-70.553c38.965,0 70.553,31.588 70.553,70.553l0,70.553l-70.553,0c-38.965,0 -70.553,-31.588 -70.553,-70.553Z" style="fill:#0c354f;fill-rule:nonzero;"/><path d="M720,1007.4l0,-48l48,0c39.765,0 72,32.235 72,72l0,48l-48,0c-39.765,0 -72,-32.236 -72,-72Z" style="fill:#c0c0c0;fill-rule:nonzero;"/></g><g><path id="Shape34" serif:id="Shape" d="M420.6,1200l-121.2,0l60.6,-60.6l60.6,60.6Z" style="fill:#b0bec5;fill-rule:nonzero;"/><path id="Shape35" serif:id="Shape" d="M240,1200l0,-240l240,0l-240,240Z" style="fill:#f1e3cf;fill-rule:nonzero;"/><path id="Shape36" serif:id="Shape" d="M480,1200l-240,-240l240,0l0,240Z" style="fill:#eceff1;fill-rule:nonzero;"/></g></g><path d="M967.86,1.835c345.448,66.392 817.631,354.543 613.684,777.767c-113.095,234.692 -619.247,432.499 -794.615,352.159c-290.688,-133.171 -376.289,-1237.01 180.931,-1129.93l0,0.002Z" style="fill:#cfd9df;fill-opacity:0.56;fill-rule:nonzero;"/></svg>