<?xml version="1.0" encoding="UTF-8" standalone="no"?><!DOCTYPE svg PUBLIC "-//W3C//DTD SVG 1.1//EN" "http://www.w3.org/Graphics/SVG/1.1/DTD/svg11.dtd"><svg width="100%" height="100%" viewBox="0 0 520 175" version="1.1" xmlns="http://www.w3.org/2000/svg" xmlns:xlink="http://www.w3.org/1999/xlink" xml:space="preserve" xmlns:serif="http://www.serif.com/" style="fill-rule:evenodd;clip-rule:evenodd;"><path d="M95.627,24.691c-0.717,1.024 -1.048,3.357 -1.048,7.028l0,41.768c0,3.68 0.331,6.008 1.048,7.036c1.161,1.675 2.876,2.749 6.158,3.56c0.992,0.249 2.658,0.434 4.379,0.57l0,-64.063l-0.568,0c-1.528,0.14 -2.938,0.306 -3.811,0.538c-3.282,0.81 -4.997,1.885 -6.158,3.563" style="fill-rule:nonzero;"/><path d="M50.215,21.912c0,0.025 -0.015,0.064 -0.015,0.14l0,2.836c0.15,1.445 0.56,3.378 1.532,5.612c1.884,4.359 6.254,11.111 16.447,17.912l0,-0.711l0,-3.157l0,-12.825c0,-3.671 -0.352,-6.004 -1.058,-7.027c-1.16,-1.679 -1.706,-2.755 -4.357,-3.563c-0.72,-0.233 -1.85,-0.4 -3.082,-0.539l-9.482,0l0,1.322l0.015,0Z" style="fill-rule:nonzero;"/><path d="M44.911,80.523c0.706,-1.028 1.064,-3.356 1.064,-7.036l0,-18.044l0,-10.899l0,-12.824c0,-3.672 -0.358,-6.005 -1.064,-7.029c-1.158,-1.678 -2.864,-2.753 -6.139,-3.563c-0.893,-0.232 -2.304,-0.398 -3.819,-0.538l-0.349,0l0,64.042c1.652,-0.115 3.207,-0.3 4.168,-0.549c3.275,-0.811 4.981,-1.885 6.139,-3.56" style="fill-rule:nonzero;"/><path d="M73.452,24.691c-0.708,1.024 -1.045,3.357 -1.045,7.028l0,19.326c9.12,5.582 14.63,11.501 17.948,16.77l0,-10.307l0,-6.214l0,-2.601l0,-0.992l0,-3.157l0,-12.825l0,-11.129l-9.471,0c-1.235,0.14 -2.37,0.306 -3.069,0.538c-2.647,0.81 -3.212,1.885 -4.363,3.563" style="fill-rule:nonzero;"/><path d="M88.596,74.291c-2.053,-4.633 -6.502,-11.311 -16.189,-17.791l0,16.987c0,3.68 0.338,6.008 1.045,7.036c1.152,1.676 1.716,2.749 4.363,3.56c0.899,0.284 2.484,0.502 4.081,0.617l8.459,0l0,-4.808c-0.299,-1.517 -0.823,-3.43 -1.759,-5.601" style="fill-rule:nonzero;"/><path d="M67.121,80.523c0.706,-1.028 1.058,-3.356 1.058,-7.036l0,-15.979l0,-2.065l0,-1.578c-9.182,-5.622 -14.694,-11.299 -17.979,-16.337l0,47.172l8.464,0c1.598,-0.116 3.187,-0.333 4.1,-0.617c2.651,-0.811 3.197,-1.885 4.357,-3.56" style="fill-rule:nonzero;"/><path d="M45.381,112.716l-4.786,-10.472l0,8.326c0,0.755 0.075,1.229 0.255,1.409c0.217,0.269 0.574,0.384 1.062,0.384l0.449,0l0,0.353l-4.348,0l0,-0.353l0.436,0c0.536,0 0.907,-0.146 1.124,-0.474c0.141,-0.196 0.2,-0.626 0.2,-1.319l0,-8.158c0,-0.539 -0.054,-0.922 -0.174,-1.178c-0.083,-0.17 -0.243,-0.312 -0.483,-0.433c-0.238,-0.117 -0.59,-0.176 -1.103,-0.176l0,-0.342l3.594,0l4.449,9.644l4.449,-9.644l3.522,0l0,0.342l-0.451,0c-0.53,0 -0.907,0.159 -1.125,0.475c-0.139,0.183 -0.198,0.626 -0.198,1.312l0,8.158c0,0.755 0.073,1.229 0.251,1.409c0.227,0.269 0.595,0.384 1.072,0.384l0.451,0l0,0.353l-5.319,0l0,-0.353l0.454,0c0.532,0 0.909,-0.146 1.126,-0.474c0.131,-0.196 0.203,-0.626 0.203,-1.319l0,-8.326l-4.822,10.472l-0.288,0Z" style="fill-rule:nonzero;"/><path d="M63.388,100.625l0,-0.343l4.351,0l0,0.343l-0.47,0c-0.486,0 -0.854,0.191 -1.109,0.609c-0.121,0.19 -0.199,0.629 -0.199,1.294l0,5.054c0,1.26 -0.116,2.218 -0.367,2.925c-0.241,0.668 -0.743,1.277 -1.457,1.76c-0.726,0.487 -1.717,0.733 -2.967,0.733c-1.357,0 -2.387,-0.237 -3.096,-0.709c-0.706,-0.46 -1.202,-1.097 -1.488,-1.89c-0.212,-0.549 -0.3,-1.559 -0.3,-3.056l0,-4.863c0,-0.755 -0.105,-1.268 -0.314,-1.498c-0.202,-0.252 -0.531,-0.359 -1.003,-0.359l-0.455,0l0,-0.343l5.308,0l0,0.343l-0.468,0c-0.507,0 -0.861,0.159 -1.078,0.474c-0.159,0.222 -0.217,0.686 -0.217,1.383l0,5.418c0,0.487 0.044,1.039 0.13,1.662c0.087,0.618 0.251,1.111 0.474,1.445c0.247,0.364 0.569,0.651 1.005,0.873c0.449,0.231 0.981,0.337 1.633,0.337c0.802,0 1.541,-0.168 2.177,-0.524c0.653,-0.368 1.097,-0.823 1.324,-1.372c0.227,-0.537 0.357,-1.479 0.357,-2.808l0,-5.031c0,-0.781 -0.087,-1.268 -0.251,-1.461c-0.236,-0.275 -0.589,-0.396 -1.057,-0.396l-0.463,0Z" style="fill-rule:nonzero;"/><path d="M76.568,99.979l0,4.259l-0.337,0c-0.114,-0.806 -0.316,-1.464 -0.584,-1.946c-0.291,-0.481 -0.7,-0.868 -1.223,-1.156c-0.538,-0.289 -1.075,-0.44 -1.641,-0.44c-0.634,0 -1.167,0.204 -1.58,0.588c-0.423,0.399 -0.624,0.845 -0.624,1.328c0,0.391 0.131,0.736 0.394,1.036c0.381,0.47 1.283,1.079 2.717,1.838c1.163,0.635 1.957,1.103 2.379,1.437c0.424,0.335 0.754,0.731 0.979,1.198c0.231,0.431 0.343,0.923 0.343,1.4c0,0.968 -0.362,1.769 -1.092,2.459c-0.733,0.686 -1.683,1.02 -2.813,1.02c-0.373,0 -0.703,-0.034 -1.028,-0.081c-0.182,-0.034 -0.583,-0.156 -1.168,-0.334c-0.604,-0.203 -0.981,-0.3 -1.129,-0.3c-0.148,0 -0.293,0.044 -0.364,0.134c-0.09,0.098 -0.169,0.278 -0.204,0.581l-0.336,0l0,-4.258l0.336,0c0.157,0.892 0.369,1.563 0.643,2.002c0.266,0.431 0.674,0.803 1.236,1.102c0.552,0.28 1.151,0.439 1.815,0.439c0.761,0 1.373,-0.208 1.816,-0.613c0.437,-0.409 0.664,-0.89 0.664,-1.439c0,-0.306 -0.088,-0.618 -0.256,-0.917c-0.165,-0.319 -0.433,-0.615 -0.774,-0.88c-0.239,-0.184 -0.898,-0.57 -1.965,-1.178c-1.063,-0.585 -1.824,-1.059 -2.27,-1.42c-0.465,-0.352 -0.795,-0.739 -1.033,-1.179c-0.212,-0.421 -0.333,-0.893 -0.333,-1.41c0,-0.89 0.333,-1.638 1.025,-2.297c0.68,-0.635 1.554,-0.973 2.611,-0.973c0.665,0 1.37,0.162 2.1,0.503c0.343,0.143 0.58,0.214 0.725,0.214c0.15,0 0.288,-0.031 0.388,-0.127c0.102,-0.087 0.183,-0.287 0.246,-0.59l0.337,0Z" style="fill-rule:nonzero;"/><path d="M82.369,101.003l0,4.863l2.602,0c0.7,0 1.18,-0.096 1.41,-0.312c0.312,-0.271 0.506,-0.762 0.53,-1.445l0.337,0l0,4.29l-0.337,0c-0.087,-0.621 -0.168,-1.002 -0.255,-1.17c-0.113,-0.212 -0.293,-0.381 -0.537,-0.509c-0.262,-0.13 -0.636,-0.177 -1.148,-0.177l-2.602,0l0,4.061c0,0.552 0.014,0.871 0.064,0.992c0.048,0.116 0.136,0.221 0.249,0.284c0.124,0.069 0.35,0.116 0.686,0.116l2.102,0c0.705,0 1.211,-0.047 1.516,-0.151c0.312,-0.099 0.631,-0.283 0.911,-0.572c0.368,-0.363 0.756,-0.941 1.173,-1.688l0.393,0l-1.073,3.131l-9.564,0l0,-0.353l0.431,0c0.28,0 0.574,-0.071 0.823,-0.219c0.199,-0.087 0.33,-0.235 0.399,-0.432c0.075,-0.203 0.119,-0.587 0.119,-1.204l0,-8.026c0,-0.812 -0.081,-1.292 -0.238,-1.479c-0.23,-0.272 -0.585,-0.378 -1.103,-0.378l-0.431,0l0,-0.342l9.533,0l0.112,2.72l-0.399,0c-0.131,-0.644 -0.276,-1.084 -0.424,-1.32c-0.151,-0.246 -0.362,-0.431 -0.674,-0.546c-0.237,-0.087 -0.668,-0.134 -1.267,-0.134l-3.338,0Z" style="fill-rule:nonzero;"/><path d="M92.601,101.611c-1.341,1.235 -2.021,2.863 -2.021,4.845c0,1.93 0.599,3.512 1.747,4.719c1.166,1.226 2.614,1.826 4.323,1.826c1.698,0 3.139,-0.619 4.33,-1.876c1.192,-1.244 1.785,-2.814 1.785,-4.697c0,-1.848 -0.587,-3.379 -1.779,-4.605c-1.179,-1.223 -2.576,-1.844 -4.186,-1.844c-1.628,0 -3.031,0.556 -4.199,1.632m6.819,0.262c0.843,1.06 1.267,2.652 1.267,4.785c0,1.987 -0.387,3.425 -1.154,4.333c-0.768,0.918 -1.734,1.372 -2.895,1.372c-1.105,0 -1.983,-0.414 -2.658,-1.257c-0.861,-1.091 -1.31,-2.67 -1.31,-4.698c0,-1.999 0.43,-3.512 1.273,-4.535c0.667,-0.845 1.566,-1.248 2.683,-1.248c1.173,0 2.121,0.424 2.794,1.248" style="fill-rule:nonzero;"/><path d="M38.522,119.061l3.385,0l7.602,9.265l0,-7.112c0,-0.755 -0.075,-1.223 -0.251,-1.423c-0.235,-0.256 -0.588,-0.38 -1.076,-0.38l-0.43,0l0,-0.35l4.337,0l0,0.35l-0.435,0c-0.526,0 -0.894,0.151 -1.12,0.474c-0.144,0.187 -0.203,0.643 -0.203,1.329l0,10.49l-0.333,0l-8.226,-10.023l0,7.675c0,0.754 0.087,1.225 0.25,1.406c0.238,0.268 0.59,0.389 1.079,0.389l0.444,0l0,0.35l-4.352,0l0,-0.35l0.43,0c0.535,0 0.908,-0.151 1.139,-0.473c0.14,-0.202 0.203,-0.642 0.203,-1.322l0,-8.666c-0.361,-0.419 -0.627,-0.688 -0.816,-0.839c-0.193,-0.116 -0.469,-0.253 -0.826,-0.37c-0.189,-0.046 -0.444,-0.07 -0.801,-0.07l0,-0.35Z" style="fill-rule:nonzero;"/><path d="M61.702,129.125c0.246,0.583 0.362,0.998 0.362,1.275c0,0.204 -0.072,0.362 -0.252,0.516c-0.183,0.139 -0.511,0.218 -0.999,0.236l0,0.349l4.896,0l0,-0.349c-0.501,-0.018 -0.903,-0.169 -1.172,-0.421c-0.299,-0.234 -0.599,-0.787 -0.957,-1.594l-4.318,-10.36l-0.329,0l-4.434,10.223c-0.371,0.907 -0.72,1.509 -1.037,1.8c-0.141,0.146 -0.484,0.264 -1,0.352l0,0.349l3.912,0l0,-0.349c-0.59,-0.038 -0.965,-0.134 -1.149,-0.276c-0.19,-0.145 -0.277,-0.313 -0.277,-0.498c0,-0.237 0.108,-0.589 0.31,-1.07l0.845,-1.952l4.854,0l0.745,1.769Zm-5.295,-2.489l2.169,-5.03l2.087,5.03l-4.256,0" style="fill-rule:nonzero;"/><path d="M69.744,124.835l5.786,0l0,-3.574c0,-0.619 -0.034,-1.039 -0.109,-1.236c-0.059,-0.156 -0.193,-0.29 -0.386,-0.411c-0.253,-0.132 -0.535,-0.204 -0.834,-0.204l-0.433,0l0,-0.348l5.313,0l0,0.348l-0.443,0c-0.28,0 -0.573,0.072 -0.823,0.204c-0.205,0.105 -0.337,0.236 -0.398,0.457c-0.07,0.188 -0.12,0.591 -0.12,1.19l0,8.047c0,0.618 0.05,1.018 0.131,1.236c0.05,0.144 0.182,0.275 0.362,0.38c0.275,0.16 0.568,0.228 0.848,0.228l0.443,0l0,0.349l-5.313,0l0,-0.349l0.433,0c0.509,0 0.877,-0.153 1.114,-0.464c0.137,-0.179 0.215,-0.652 0.215,-1.38l0,-3.818l-5.786,0l0,3.818c0,0.618 0.034,1.018 0.112,1.236c0.062,0.144 0.18,0.275 0.381,0.38c0.264,0.16 0.536,0.228 0.824,0.228l0.442,0l0,0.349l-5.295,0l0,-0.349l0.425,0c0.517,0 0.883,-0.153 1.12,-0.464c0.136,-0.179 0.208,-0.652 0.208,-1.38l0,-8.047c0,-0.619 -0.033,-1.039 -0.106,-1.236c-0.062,-0.156 -0.198,-0.29 -0.382,-0.411c-0.261,-0.132 -0.54,-0.204 -0.84,-0.204l-0.425,0l0,-0.348l5.295,0l0,0.348l-0.442,0c-0.288,0 -0.56,0.072 -0.824,0.204c-0.201,0.105 -0.319,0.236 -0.4,0.457c-0.059,0.188 -0.093,0.591 -0.093,1.19l0,3.574Z" style="fill-rule:nonzero;"/><path d="M85.246,131.152l0,0.349l-5.303,0l0,-0.349l0.442,0c0.5,0 0.874,-0.152 1.112,-0.464c0.131,-0.179 0.218,-0.652 0.218,-1.38l0,-8.047c0,-0.619 -0.037,-1.039 -0.125,-1.236c-0.063,-0.156 -0.181,-0.29 -0.368,-0.411c-0.269,-0.132 -0.555,-0.204 -0.837,-0.204l-0.442,0l0,-0.348l5.303,0l0,0.348l-0.45,0c-0.493,0 -0.861,0.153 -1.09,0.44c-0.151,0.204 -0.238,0.678 -0.238,1.411l0,8.047c0,0.618 0.044,1.017 0.131,1.235c0.062,0.145 0.168,0.275 0.38,0.381c0.268,0.16 0.537,0.228 0.817,0.228l0.45,0Z" style="fill-rule:nonzero;"/><path d="M93.388,131.501l-4.779,-10.452l0,8.307c0,0.754 0.081,1.225 0.256,1.406c0.205,0.268 0.58,0.39 1.073,0.39l0.443,0l0,0.349l-4.356,0l0,-0.349l0.444,0c0.53,0 0.892,-0.152 1.11,-0.474c0.15,-0.202 0.211,-0.642 0.211,-1.322l0,-8.142c0,-0.552 -0.061,-0.942 -0.185,-1.189c-0.081,-0.175 -0.244,-0.324 -0.481,-0.439c-0.213,-0.123 -0.599,-0.175 -1.099,-0.175l0,-0.35l3.588,0l4.454,9.676l4.436,-9.676l3.531,0l0,0.35l-0.436,0c-0.543,0 -0.911,0.152 -1.136,0.474c-0.131,0.186 -0.2,0.643 -0.2,1.329l0,8.142c0,0.754 0.095,1.225 0.25,1.406c0.238,0.268 0.587,0.39 1.086,0.39l0.436,0l0,0.349l-5.321,0l0,-0.349l0.443,0c0.542,0 0.924,-0.152 1.135,-0.474c0.131,-0.202 0.206,-0.642 0.206,-1.322l0,-8.307l-4.823,10.452l-0.286,0Z" style="fill-rule:nonzero;"/><path d="M44.927,149.938l0,0.345l-5.304,0l0,-0.345l0.434,0c0.521,0 0.88,-0.135 1.116,-0.456c0.144,-0.187 0.218,-0.655 0.218,-1.394l0,-8.039c0,-0.621 -0.038,-1.048 -0.127,-1.246c-0.062,-0.145 -0.183,-0.264 -0.362,-0.383c-0.271,-0.152 -0.55,-0.222 -0.845,-0.222l-0.434,0l0,-0.346l5.304,0l0,0.346l-0.436,0c-0.501,0 -0.88,0.157 -1.1,0.46c-0.16,0.181 -0.232,0.658 -0.232,1.391l0,8.039c0,0.618 0.043,1.039 0.11,1.245c0.069,0.149 0.188,0.286 0.4,0.386c0.238,0.147 0.523,0.219 0.822,0.219l0.436,0Z" style="fill-rule:nonzero;"/><path d="M54.467,137.556l0,4.271l-0.349,0c-0.097,-0.821 -0.308,-1.479 -0.589,-1.965c-0.294,-0.468 -0.696,-0.861 -1.223,-1.136c-0.521,-0.305 -1.066,-0.443 -1.631,-0.443c-0.643,0 -1.175,0.188 -1.586,0.587c-0.419,0.386 -0.621,0.826 -0.621,1.329c0,0.393 0.134,0.714 0.385,1.038c0.391,0.455 1.294,1.083 2.729,1.825c1.149,0.63 1.952,1.114 2.382,1.434c0.414,0.331 0.743,0.739 0.97,1.187c0.223,0.452 0.338,0.933 0.338,1.438c0,0.926 -0.356,1.741 -1.083,2.424c-0.734,0.692 -1.675,1.045 -2.818,1.045c-0.369,0 -0.696,-0.029 -1.022,-0.087c-0.182,-0.03 -0.588,-0.151 -1.177,-0.353c-0.598,-0.198 -0.98,-0.293 -1.126,-0.293c-0.154,0 -0.28,0.046 -0.357,0.142c-0.111,0.09 -0.17,0.285 -0.203,0.591l-0.356,0l0,-4.28l0.356,0c0.16,0.882 0.362,1.559 0.638,1.995c0.27,0.459 0.69,0.821 1.235,1.112c0.55,0.302 1.166,0.44 1.808,0.44c0.782,0 1.381,-0.21 1.815,-0.612c0.45,-0.4 0.667,-0.893 0.667,-1.432c0,-0.312 -0.072,-0.621 -0.246,-0.934c-0.168,-0.305 -0.434,-0.608 -0.782,-0.875c-0.237,-0.181 -0.889,-0.567 -1.967,-1.177c-1.066,-0.586 -1.825,-1.048 -2.273,-1.401c-0.446,-0.364 -0.788,-0.764 -1.017,-1.178c-0.234,-0.421 -0.352,-0.895 -0.352,-1.41c0,-0.895 0.352,-1.663 1.034,-2.3c0.677,-0.658 1.551,-0.982 2.608,-0.982c0.664,0 1.373,0.182 2.107,0.493c0.343,0.15 0.578,0.234 0.725,0.234c0.153,0 0.293,-0.044 0.391,-0.137c0.101,-0.097 0.183,-0.284 0.241,-0.59l0.349,0Z" style="fill-rule:nonzero;"/><path d="M66.16,147.923c0.25,0.563 0.382,0.985 0.382,1.257c0,0.202 -0.098,0.364 -0.276,0.514c-0.164,0.137 -0.508,0.218 -1,0.243l0,0.346l4.914,0l0,-0.346c-0.511,-0.025 -0.898,-0.175 -1.194,-0.405c-0.281,-0.256 -0.603,-0.789 -0.938,-1.609l-4.328,-10.367l-0.327,0l-4.426,10.232c-0.377,0.899 -0.729,1.507 -1.047,1.791c-0.15,0.156 -0.483,0.277 -1.005,0.358l0,0.346l3.932,0l0,-0.346c-0.603,-0.034 -0.99,-0.134 -1.179,-0.271c-0.18,-0.153 -0.266,-0.325 -0.266,-0.503c0,-0.237 0.102,-0.582 0.319,-1.075l0.836,-1.954l4.874,0l0.729,1.789Zm-5.285,-2.503l2.16,-5.037l2.09,5.037l-4.25,0" style="fill-rule:nonzero;"/><path d="M76.605,149.938l0,0.345l-5.296,0l0,-0.345l0.432,0c0.504,0 0.882,-0.135 1.117,-0.456c0.148,-0.187 0.211,-0.655 0.211,-1.394l0,-8.039c0,-0.621 -0.037,-1.048 -0.11,-1.246c-0.078,-0.145 -0.186,-0.264 -0.37,-0.383c-0.266,-0.152 -0.562,-0.222 -0.848,-0.222l-0.432,0l0,-0.346l5.296,0l0,0.346l-0.437,0c-0.496,0 -0.871,0.157 -1.106,0.46c-0.149,0.181 -0.221,0.658 -0.221,1.391l0,8.039c0,0.618 0.031,1.039 0.118,1.245c0.06,0.149 0.188,0.286 0.378,0.386c0.261,0.147 0.535,0.219 0.831,0.219l0.437,0Z" style="fill-rule:nonzero;"/><path d="M86.93,147.923c0.238,0.563 0.368,0.985 0.368,1.257c0,0.202 -0.086,0.364 -0.261,0.514c-0.17,0.137 -0.513,0.218 -1.005,0.243l0,0.346l4.91,0l0,-0.346c-0.499,-0.025 -0.905,-0.175 -1.198,-0.405c-0.281,-0.256 -0.593,-0.789 -0.941,-1.609l-4.318,-10.367l-0.331,0l-4.43,10.232c-0.386,0.899 -0.718,1.507 -1.048,1.791c-0.143,0.156 -0.468,0.277 -0.998,0.358l0,0.346l3.93,0l0,-0.346c-0.592,-0.034 -0.985,-0.134 -1.179,-0.271c-0.168,-0.153 -0.249,-0.325 -0.249,-0.503c0,-0.237 0.093,-0.582 0.299,-1.075l0.849,-1.954l4.859,0l0.743,1.789Zm-5.302,-2.503l2.176,-5.037l2.084,5.037l-4.26,0" style="fill-rule:nonzero;"/><path d="M100.194,137.556l0,4.271l-0.356,0c-0.105,-0.821 -0.312,-1.479 -0.592,-1.965c-0.293,-0.468 -0.686,-0.861 -1.224,-1.136c-0.517,-0.305 -1.078,-0.443 -1.633,-0.443c-0.625,0 -1.167,0.188 -1.585,0.587c-0.412,0.386 -0.611,0.826 -0.611,1.329c0,0.393 0.118,0.714 0.393,1.038c0.367,0.455 1.279,1.083 2.7,1.825c1.173,0.63 1.966,1.114 2.391,1.434c0.437,0.331 0.749,0.739 0.978,1.187c0.244,0.452 0.35,0.933 0.35,1.438c0,0.926 -0.381,1.741 -1.092,2.424c-0.742,0.692 -1.689,1.045 -2.826,1.045c-0.362,0 -0.698,-0.029 -1.017,-0.087c-0.193,-0.03 -0.58,-0.151 -1.179,-0.353c-0.593,-0.198 -0.98,-0.293 -1.129,-0.293c-0.156,0 -0.281,0.046 -0.369,0.142c-0.087,0.09 -0.149,0.285 -0.211,0.591l-0.324,0l0,-4.28l0.324,0c0.174,0.882 0.399,1.559 0.661,1.995c0.269,0.459 0.68,0.821 1.229,1.112c0.556,0.302 1.166,0.44 1.821,0.44c0.769,0 1.367,-0.21 1.823,-0.612c0.436,-0.4 0.654,-0.893 0.654,-1.432c0,-0.312 -0.087,-0.621 -0.255,-0.934c-0.162,-0.305 -0.418,-0.608 -0.767,-0.875c-0.256,-0.181 -0.893,-0.567 -1.959,-1.177c-1.08,-0.586 -1.841,-1.048 -2.29,-1.401c-0.443,-0.364 -0.793,-0.764 -1.018,-1.178c-0.223,-0.421 -0.343,-0.895 -0.343,-1.41c0,-0.895 0.338,-1.663 1.024,-2.3c0.686,-0.658 1.566,-0.982 2.627,-0.982c0.648,0 1.347,0.182 2.09,0.493c0.355,0.15 0.586,0.234 0.723,0.234c0.168,0 0.287,-0.044 0.4,-0.137c0.087,-0.097 0.174,-0.284 0.236,-0.59l0.356,0Z" style="fill-rule:nonzero;"/><path d="M346.442,122.18l1.689,0l-3.625,4.614l0,5.155l-1.403,0l0,-5.171l-3.622,-4.598l1.688,0l2.627,3.369l2.646,-3.369Z" style="fill:#030405;fill-rule:nonzero;"/><path d="M194.062,127.272c0,2.395 -1.432,3.967 -4.341,3.967c-2.064,0 -4.072,-1.159 -4.072,-3.823l0,-6.075l1.404,0l0,5.773c0,1.102 0.144,1.561 0.589,2.009c0.559,0.556 1.261,0.829 2.104,0.829c1.075,0 1.849,-0.343 2.295,-0.787c0.502,-0.503 0.614,-1.22 0.614,-2.134l0,-5.69l1.407,0l0,5.931Z" style="fill:#030405;fill-rule:nonzero;"/><path d="M200.637,123.491c-0.832,-0.79 -1.634,-1.016 -2.295,-1.016c-0.904,0 -1.545,0.469 -1.545,1.159c0,1.877 4.228,1.847 4.228,4.955c0,1.533 -1.163,2.65 -2.739,2.65c-1.061,0 -1.922,-0.284 -2.735,-0.903l0,-1.772c0.713,0.911 1.618,1.415 2.578,1.415c1.087,0 1.59,-0.689 1.59,-1.23c0,-2.021 -4.225,-2.251 -4.225,-4.93c0,-1.592 1.173,-2.609 2.965,-2.609c0.744,0 1.489,0.23 2.178,0.691l0,1.59Z" style="fill:#030405;fill-rule:nonzero;"/><path d="M208.097,122.602l-4.138,0l0,2.951l3.996,0l0,1.257l-3.996,0l0,3.043l4.271,0l0,1.26l-5.677,0l0,-9.772l5.544,0l0,1.261Z" style="fill:#030405;fill-rule:nonzero;"/><path d="M214.532,129.952c2.194,0 3.813,-1.594 3.813,-3.727c0,-2.15 -1.619,-3.721 -3.813,-3.721c-2.177,0 -3.796,1.571 -3.796,3.721c0,2.133 1.619,3.727 3.796,3.727m0,-8.742c3.225,0 5.259,2.294 5.259,5.015c0,2.638 -1.978,5.014 -5.284,5.014c-3.199,0 -5.22,-2.361 -5.22,-5.014c0,-2.705 2.078,-5.015 5.245,-5.015" style="fill:#030405;fill-rule:nonzero;"/><path d="M184.08,131.092l-0.672,-9.777l-1.954,0.039l-2.934,7.915l-2.935,-7.915l-0.014,-0.039l-1.855,0l-0.747,9.777l1.405,0l0.473,-8.13l2.921,8.073l1.516,0l2.928,-8.136l0.444,8.193l1.424,0Z" style="fill:#030405;fill-rule:nonzero;"/><path d="M225.846,127.413l3.038,0l-1.576,-3.536l-1.462,3.536Zm6.346,4.141l-1.433,0l-1.299,-2.879l-4.156,0l-1.232,2.879l-1.433,0l4.198,-9.827l0.987,0l4.368,9.827Z" style="fill:#030405;fill-rule:nonzero;"/><path d="M241.355,131.553l-1.207,0l-6.534,-7.52l0,7.52l-1.316,0l0,-9.772l1.117,0l6.616,7.568l0,-7.568l1.324,0l0,9.772Z" style="fill:#030405;fill-rule:nonzero;"/><path d="M249.542,123.045l-2.959,0l0,8.508l-1.405,0l0,-8.508l-2.865,0l0,-1.263l7.229,0l0,1.263Z" style="fill:#030405;fill-rule:nonzero;"/><path d="M251.915,126.053l0.903,0c1.503,0 1.931,-0.772 1.919,-1.593c-0.014,-0.915 -0.559,-1.473 -1.919,-1.473l-0.903,0l0,3.066Zm1.061,-4.272c1.977,0 3.21,1.046 3.21,2.737c0,1.131 -0.589,1.976 -1.632,2.395c0.887,0.587 1.431,1.49 2.177,2.705c0.412,0.675 0.657,1.003 1.333,1.936l-1.679,0l-1.289,-2.003c-1.289,-2.008 -1.876,-2.239 -2.593,-2.239l-0.588,0l0,4.242l-1.403,0l0,-9.773l2.464,0Z" style="fill:#030405;fill-rule:nonzero;"/><path d="M262.734,130.395c2.193,0 3.811,-1.59 3.811,-3.727c0,-2.15 -1.618,-3.723 -3.811,-3.723c-2.177,0 -3.796,1.573 -3.796,3.723c0,2.137 1.619,3.727 3.796,3.727m0,-8.739c3.225,0 5.256,2.289 5.256,5.012c0,2.639 -1.976,5.017 -5.283,5.017c-3.198,0 -5.216,-2.366 -5.216,-5.017c0,-2.707 2.075,-5.012 5.243,-5.012" style="fill:#030405;fill-rule:nonzero;"/><path d="M270.685,126.065l1.591,0c1.048,0 1.72,-0.558 1.72,-1.53c0,-0.718 -0.387,-1.489 -1.663,-1.489l-1.648,0l0,3.019Zm1.648,-4.284c2.133,0 3.112,1.265 3.112,2.811c0,1.532 -1.033,2.738 -3.297,2.738l-1.463,0l0,4.223l-1.403,0l0,-9.772l3.051,0Z" style="fill:#030405;fill-rule:nonzero;"/><path d="M281.114,130.395c2.194,0 3.813,-1.59 3.813,-3.727c0,-2.15 -1.619,-3.723 -3.813,-3.723c-2.177,0 -3.797,1.573 -3.797,3.723c0,2.137 1.62,3.727 3.797,3.727m0,-8.739c3.225,0 5.256,2.289 5.256,5.012c0,2.639 -1.973,5.017 -5.285,5.017c-3.195,0 -5.212,-2.366 -5.212,-5.017c0,-2.707 2.076,-5.012 5.241,-5.012" style="fill:#030405;fill-rule:nonzero;"/><path d="M289.127,130.294l3.217,0l0,1.259l-4.62,0l0,-9.771l1.403,0l0,8.512Z" style="fill:#030405;fill-rule:nonzero;"/><path d="M297.417,130.395c2.191,0 3.808,-1.59 3.808,-3.727c0,-2.15 -1.617,-3.723 -3.808,-3.723c-2.181,0 -3.797,1.573 -3.797,3.723c0,2.137 1.616,3.727 3.797,3.727m0,-8.739c3.223,0 5.257,2.289 5.257,5.012c0,2.639 -1.976,5.017 -5.284,5.017c-3.199,0 -5.219,-2.366 -5.219,-5.017c0,-2.707 2.081,-5.012 5.246,-5.012" style="fill:#030405;fill-rule:nonzero;"/><path d="M312.604,130.878c-1.302,0.575 -2.366,0.807 -3.728,0.807c-2.991,0 -5.199,-2.093 -5.199,-4.957c0,-2.882 2.26,-5.072 5.246,-5.072c1.143,0 1.946,0.185 3.475,0.831l0,1.42c-1.142,-0.635 -2.332,-0.962 -3.508,-0.962c-2.121,0 -3.764,1.617 -3.764,3.74c0,2.177 1.63,3.71 3.948,3.71c0.764,0 1.451,-0.174 2.128,-0.386l0,-2.008l-1.879,0l0,-1.26l3.281,0l0,4.137Z" style="fill:#030405;fill-rule:nonzero;"/><rect x="314.295" y="121.781" width="1.402" height="9.772" style="fill:#030405;"/><path d="M325.827,123.961c-1.205,-0.703 -2.233,-1.017 -3.371,-1.017c-2.232,0 -3.896,1.591 -3.896,3.741c0,2.189 1.603,3.71 3.957,3.71c1.102,0 2.306,-0.387 3.411,-1.105l0,1.533c-0.964,0.499 -2.009,0.861 -3.537,0.861c-3.669,0 -5.279,-2.822 -5.279,-4.871c0,-2.98 2.253,-5.157 5.365,-5.157c1.003,0 2.02,0.243 3.35,0.801l0,1.504Z" style="fill:#030405;fill-rule:nonzero;"/><path d="M332.103,130.395c2.193,0 3.808,-1.59 3.808,-3.727c0,-2.15 -1.615,-3.723 -3.808,-3.723c-2.181,0 -3.798,1.573 -3.798,3.723c0,2.137 1.617,3.727 3.798,3.727m0,-8.739c3.216,0 5.251,2.289 5.251,5.012c0,2.639 -1.975,5.017 -5.285,5.017c-3.192,0 -5.212,-2.366 -5.212,-5.017c0,-2.707 2.081,-5.012 5.246,-5.012" style="fill:#030405;fill-rule:nonzero;"/><path d="M296.351,120.458l-0.526,-1.305l5.161,-2.079l0.526,1.306l-5.161,2.078Z" style="fill:#030405;"/><path d="M175.817,148.436l2.234,0c3.18,0 3.909,-2.419 3.909,-3.625c0,-1.965 -1.243,-3.623 -3.982,-3.623l-2.161,0l0,7.248Zm-1.406,-8.508l3.796,0c3.609,0 5.201,2.579 5.201,4.883c0,2.508 -1.963,4.885 -5.184,4.885l-3.813,0l0,-9.768Z" style="fill:#030405;fill-rule:nonzero;"/><path d="M189.132,141.188l-4.141,0l0,2.95l3.997,0l0,1.259l-3.997,0l0,3.039l4.27,0l0,1.26l-5.672,0l0,-9.768l5.543,0l0,1.26Z" style="fill:#030405;fill-rule:nonzero;"/><path d="M195.919,145.557l3.036,0l-1.577,-3.539l-1.459,3.539Zm6.346,4.139l-1.434,0l-1.305,-2.881l-4.156,0l-1.229,2.881l-1.436,0l4.199,-9.83l0.99,0l4.371,9.83Z" style="fill:#030405;fill-rule:nonzero;"/><path d="M203.813,144.194l0.904,0c1.506,0 1.935,-0.772 1.918,-1.589c-0.014,-0.917 -0.556,-1.476 -1.918,-1.476l-0.904,0l0,3.065Zm1.064,-4.267c1.974,0 3.207,1.042 3.207,2.735c0,1.134 -0.588,1.978 -1.631,2.393c0.89,0.589 1.429,1.489 2.172,2.709c0.42,0.671 0.661,1.004 1.334,1.932l-1.676,0l-1.285,-2.005c-1.29,-2.007 -1.878,-2.233 -2.597,-2.233l-0.588,0l0,4.238l-1.403,0l0,-9.769l2.467,0Z" style="fill:#030405;fill-rule:nonzero;"/><path d="M215.53,141.188l-2.783,0l0,8.508l-1.406,0l0,-8.508l-2.781,0l0,-1.26l6.97,0l0,1.26Z" style="fill:#030405;fill-rule:nonzero;"/><path d="M222.034,141.188l-4.14,0l0,2.95l3.993,0l0,1.259l-3.993,0l0,3.039l4.27,0l0,1.26l-5.673,0l0,-9.768l5.543,0l0,1.26Z" style="fill:#030405;fill-rule:nonzero;"/><path d="M234.648,142.104c-1.207,-0.703 -2.237,-1.018 -3.37,-1.018c-2.234,0 -3.896,1.592 -3.896,3.739c0,2.195 1.605,3.712 3.952,3.712c1.103,0 2.306,-0.387 3.414,-1.104l0,1.534c-0.96,0.497 -2.009,0.859 -3.541,0.859c-3.668,0 -5.271,-2.823 -5.271,-4.872c0,-2.981 2.251,-5.157 5.357,-5.157c1.002,0 2.021,0.244 3.355,0.8l0,1.507Z" style="fill:#030405;fill-rule:nonzero;"/><path d="M240.92,148.537c2.193,0 3.809,-1.592 3.809,-3.725c0,-2.15 -1.616,-3.725 -3.809,-3.725c-2.176,0 -3.796,1.575 -3.796,3.725c0,2.133 1.62,3.725 3.796,3.725m0,-8.739c3.223,0 5.258,2.288 5.258,5.014c0,2.637 -1.978,5.014 -5.285,5.014c-3.194,0 -5.218,-2.365 -5.218,-5.014c0,-2.709 2.076,-5.014 5.245,-5.014" style="fill:#030405;fill-rule:nonzero;"/><path d="M256.578,149.696l-1.203,0l-6.532,-7.519l0,7.519l-1.319,0l0,-9.769l1.117,0l6.621,7.564l0,-7.564l1.316,0l0,9.769Z" style="fill:#030405;fill-rule:nonzero;"/><path d="M264.512,141.188l-2.786,0l0,8.508l-1.406,0l0,-8.508l-2.781,0l0,-1.26l6.973,0l0,1.26Z" style="fill:#030405;fill-rule:nonzero;"/><path d="M271.014,141.188l-4.138,0l0,2.95l3.995,0l0,1.259l-3.995,0l0,3.039l4.268,0l0,1.26l-5.675,0l0,-9.768l5.545,0l0,1.26Z" style="fill:#030405;fill-rule:nonzero;"/><path d="M281.357,149.696l-1.402,0l0,-7.61l-0.031,0l-3.008,3.786l-0.228,0l-3.009,-3.786l-0.03,0l0,7.61l-1.407,0l0,-9.769l1.323,0l3.237,4.011l3.252,-4.011l1.303,0l0,9.769Z" style="fill:#030405;fill-rule:nonzero;"/><path d="M284.438,144.211l1.589,0c1.044,0 1.722,-0.558 1.722,-1.532c0,-0.719 -0.39,-1.491 -1.664,-1.491l-1.647,0l0,3.023Zm1.647,-4.284c2.137,0 3.107,1.261 3.107,2.806c0,1.534 -1.029,2.738 -3.292,2.738l-1.462,0l0,4.225l-1.407,0l0,-9.769l3.054,0Z" style="fill:#030405;fill-rule:nonzero;"/><path d="M294.87,148.537c2.187,0 3.808,-1.592 3.808,-3.725c0,-2.15 -1.621,-3.725 -3.808,-3.725c-2.18,0 -3.797,1.575 -3.797,3.725c0,2.133 1.617,3.725 3.797,3.725m0,-8.739c3.223,0 5.257,2.288 5.257,5.014c0,2.637 -1.98,5.014 -5.291,5.014c-3.19,0 -5.212,-2.365 -5.212,-5.014c0,-2.709 2.075,-5.014 5.246,-5.014" style="fill:#030405;fill-rule:nonzero;"/><path d="M302.92,144.194l0.902,0c1.504,0 1.936,-0.772 1.915,-1.589c-0.012,-0.917 -0.558,-1.476 -1.915,-1.476l-0.902,0l0,3.065Zm1.056,-4.267c1.983,0 3.21,1.042 3.21,2.735c0,1.134 -0.583,1.978 -1.635,2.393c0.892,0.589 1.436,1.489 2.182,2.709c0.411,0.671 0.657,1.004 1.329,1.932l-1.676,0l-1.289,-2.005c-1.29,-2.007 -1.875,-2.233 -2.593,-2.233l-0.584,0l0,4.238l-1.403,0l0,-9.769l2.459,0Z" style="fill:#030405;fill-rule:nonzero;"/><path d="M311.914,145.557l3.038,0l-1.575,-3.539l-1.463,3.539Zm6.349,4.139l-1.437,0l-1.303,-2.881l-4.147,0l-1.237,2.881l-1.437,0l4.202,-9.83l0.991,0l4.368,9.83Z" style="fill:#030405;fill-rule:nonzero;"/><path d="M328.02,149.696l-1.203,0l-6.535,-7.519l0,7.519l-1.316,0l0,-9.769l1.111,0l6.621,7.564l0,-7.564l1.322,0l0,9.769Z" style="fill:#030405;fill-rule:nonzero;"/><path d="M335.353,141.188l-4.141,0l0,2.95l4,0l0,1.259l-4,0l0,3.039l4.273,0l0,1.26l-5.676,0l0,-9.768l5.544,0l0,1.26Z" style="fill:#030405;fill-rule:nonzero;"/><path d="M341.43,148.537c2.191,0 3.808,-1.592 3.808,-3.725c0,-2.15 -1.617,-3.725 -3.808,-3.725c-2.181,0 -3.797,1.575 -3.797,3.725c0,2.133 1.616,3.725 3.797,3.725m0,-8.739c3.224,0 5.257,2.288 5.257,5.014c0,2.637 -1.982,5.014 -5.284,5.014c-3.198,0 -5.219,-2.365 -5.219,-5.014c0,-2.709 2.081,-5.014 5.246,-5.014" style="fill:#030405;fill-rule:nonzero;"/><path d="M311.887,138.605l-0.528,-1.314l5.161,-2.075l0.529,1.314l-5.162,2.075Z" style="fill:#030405;"/><path d="M216.502,19.826l88.309,0.206l-0.218,93.573l-88.309,-0.205l0.218,-93.574Z" style="fill:#0071b6;"/><path d="M271.967,61.943c-0.201,0 -0.395,-0.105 -0.538,-0.273l-7.939,-10.708l5.428,-7.11l-0.012,7.66c-0.012,2.477 1.906,4.504 4.27,4.507l8.437,0.017l0.009,-4.67c0,0 -8.058,-0.021 -8.395,-0.023c0.004,-0.372 0.072,-21.198 0.072,-21.198l-12.703,16.924l-12.573,-16.974c0,0 -0.051,20.817 -0.051,21.188c-0.339,0.002 -8.5,-0.019 -8.5,-0.019l-0.012,4.68l8.554,0.011c2.361,0.009 4.288,-2.007 4.296,-4.481l0.013,-7.656l5.376,7.118l-8.005,10.684c-0.117,0.17 -0.328,0.271 -0.542,0.276l-9.7,-0.023l-0.018,4.606l9.79,0.021c1.521,0.009 2.956,-0.705 3.926,-1.961l7.429,-9.764l7.411,9.795c0.946,1.259 2.357,1.98 3.902,1.989l9.776,0.02l0.009,-4.61l-9.71,-0.026Z" style="fill:#fff;fill-rule:nonzero;"/><path d="M239.414,75.048l-0.009,4.605l9.789,0.026c1.517,0 2.948,-0.71 3.918,-1.966l7.416,-9.633l7.432,9.664c0.95,1.265 2.373,1.984 3.898,1.984l9.781,0.025l0.008,-4.606l-9.705,-0.023c-0.21,0 -0.408,-0.105 -0.546,-0.279l-10.813,-14.564l-10.914,14.518c-0.127,0.172 -0.337,0.269 -0.547,0.269l-9.708,-0.02" style="fill:#fff;fill-rule:nonzero;"/><path d="M251.685,84.902c-0.689,0.928 -1.087,2.099 -1.087,3.287c-0.005,1.215 0.398,2.407 1.124,3.369l9.11,11.712l0.024,-7.659l-5.459,-6.867c-0.096,-0.117 -0.151,-0.299 -0.151,-0.475c0,-0.163 0.051,-0.307 0.151,-0.445l5.59,-7.027l0.017,-7.763l-9.319,11.868Z" style="fill:#fff;fill-rule:nonzero;"/><rect x="417.349" y="19.464" width="66.612" height="130" style="fill:#8c181c;"/><rect x="422.249" y="24.147" width="56.811" height="120.632" style="fill:none;stroke:#fff;stroke-width:3.1px;"/><path d="M463.007,57.857c-0.489,2.762 -2.605,5.088 -4.826,6.702c-1.5,0.966 -3.487,1.333 -5.184,1.226c-0.442,-0.033 -0.467,-0.339 -0.577,-0.45c-0.093,-0.875 -0.093,-1.451 0.144,-2.217c0.564,-0.236 1.406,-0.321 1.566,-1.081c0.015,-0.437 -0.054,-0.726 -0.318,-1.078c-1.022,-0.679 -2.509,-1.034 -3.589,-0.34c-0.839,0.211 -1.922,0.625 -2.094,1.627c0.05,0.923 1.255,0.583 1.395,1.41c-0.04,0.724 -0.111,1.385 -0.16,1.98c-0.065,0.213 -0.287,0.229 -0.433,0.343c-1.482,0.326 -3.531,0.095 -4.547,-0.266c-1.474,-0.434 -3.29,-2.012 -3.29,-2.012c-2.596,-2.423 -3.738,-6.1 -2.166,-9.344c0.567,-1.598 1.337,-3.408 2.166,-4.764c0.653,-1.11 1.531,-1.999 2.629,-2.789c0.661,-0.451 3.181,-1.385 6.345,-1.224c1.263,-0.033 4.325,0.067 4.711,0.229c4.463,0.364 5.572,2.013 7.082,4.206c0.657,1.181 1.033,2.507 1.258,3.794c0.211,1.207 0.099,2.593 -0.112,4.048m-8.228,10.491c-0.634,0.473 -1.601,0.127 -2.055,0.921l-0.066,0.779c0.035,2.159 -0.157,4.261 -0.861,6.335c-0.223,0.229 -0.568,0.035 -0.798,-0.064c-1.095,-1.163 -0.706,-2.835 -0.706,-4.228c0.023,-1.238 0.198,-2.486 0.044,-3.743c-0.656,-0.494 -1.755,0.26 -2.272,-0.693c-0.318,-0.726 0.281,-0.949 0.866,-1.129c0.576,-0.064 1.084,-0.437 1.784,-0.16c0.203,-0.403 0.067,-0.841 0.577,-1.066c0.241,-0.129 0.628,-0.129 0.788,0.062c0.247,0.33 0.209,0.53 0.309,0.943c0,-0.119 0.016,0.221 0.175,0.266c0.814,0.227 2.048,-0.325 2.322,0.868c0.049,0.357 0.095,0.621 -0.107,0.909m20.878,-19.916c0,0 -0.286,-0.61 -1.097,-0.37l-0.792,0.231c-2.869,0.76 -5.554,1.481 -8.439,2.222c-0.111,0.021 -0.111,-0.111 -0.111,-0.111c0.067,-0.92 0.997,-1.035 1.63,-1.421c1.108,-0.901 2.52,-1.242 3.576,-2.203c0.569,-0.39 0.282,-0.994 0.108,-1.474c-0.516,-0.987 -1.423,-0.197 -2.188,0.049l-0.68,0.321c-1.237,0.739 -2.495,1.489 -3.735,2.175c-0.407,-0.11 -0.295,-0.513 -0.379,-0.805c1.127,-0.754 2.075,-1.562 3.248,-2.207c0.928,-0.826 2.296,-1.264 2.486,-2.663c0,-0.694 -0.731,-0.975 -0.931,-1.002c-0.212,-0.066 -0.636,0 -0.856,0.177c-1.746,1.275 -3.699,2.45 -5.294,3.904c-0.508,0.292 -0.97,-0.085 -1.417,-0.224c0,0 1.675,-1.972 1.851,-2.193c1.023,-1.505 2.259,-2.778 3.504,-4.154c0.518,-0.656 1.455,-1.402 1.311,-2.238c-0.077,-0.387 -0.702,-0.728 -0.878,-0.778c-0.793,-0.254 -1.549,0.661 -2.047,1.052c-1.52,1.484 -2.849,3.439 -4.3,5.229c-0.645,0.768 -0.86,1.979 -2.046,2.321c-0.339,-0.045 -0.476,-0.257 -0.476,-0.257c0.044,-0.6 0.754,-1.427 0.754,-1.427c0.286,-0.637 0.689,-1.253 1.026,-1.879l0.213,-0.391c0.189,-0.55 0.466,-1.211 0.704,-1.808c0.296,-0.401 0.574,-0.921 0.663,-1.44c0.085,-0.221 0.085,-0.641 -0.06,-0.851c-0.403,-0.45 -1.052,-0.255 -1.4,0.229c-1.199,1.999 -2.418,4.404 -3.474,6.452l-0.291,-0.081c0.479,-2.322 1.079,-4.658 1.594,-6.919c0.022,-0.667 -0.78,-0.601 -1.074,-0.534c-1.425,0.272 -1.487,2.08 -1.855,3.067c-0.617,1.306 -0.491,2.824 -1.342,3.904c-0.149,0.062 -0.31,0.242 -0.439,0.062c-0.203,-1.518 -0.389,-2.948 -0.389,-4.403c-0.202,-1.6 -0.063,-3.129 -0.109,-4.599c-0.05,-0.237 -0.262,-0.426 -0.585,-0.469c-0.452,-0.148 -1.074,0 -1.508,0.276c-0.197,0.112 -0.278,0.481 -0.278,0.739c0,2.731 -0.398,5.101 -0.491,7.797c0,0.37 0.049,0.876 -0.233,1.191c-0.263,0.13 -0.666,0.168 -0.807,-0.174c-0.247,-2.113 -0.577,-3.812 -0.738,-5.779c-0.229,-0.89 -1.218,-0.455 -1.511,-0.206c-0.594,0.527 -0.313,1.498 -0.223,2.166c0.402,1.202 0.452,2.446 0.582,3.65c0.175,0.701 -0.295,0.65 -0.86,0.781c-0.347,-1.081 -0.791,-2.112 -1.029,-3.243c-0.232,-0.792 -0.538,-2.341 -1.248,-2.597c-0.433,-0.097 -1.076,0.11 -1.561,0.467c-0.355,0.385 -0.369,1.263 -0.173,1.903c0.435,1.419 0.722,3.069 1.301,4.488c-0.015,0.422 -0.477,0.501 -0.691,0.454c-1.982,-1.99 -3.729,-4.218 -5.958,-5.959c-0.797,-0.401 -1.675,0.279 -1.675,0.279c-0.353,0.173 -0.869,0.946 -0.827,1.499c1.831,2.127 3.553,4.149 5.86,5.793c0.413,0.141 0.171,0.651 0,0.81c-0.132,0.108 -0.343,0.096 -0.499,0.077c-0.619,-0.077 -1.123,-0.693 -1.663,-0.887c-1.044,-0.441 -2.404,-1.082 -3.472,-1.342c-0.354,0 -0.563,0.326 -0.692,0.567c-0.211,0.4 -0.775,1.259 -0.22,1.681c1.608,0.465 3.102,1.259 4.653,1.902c0.325,0.399 -0.032,1.003 -0.172,1.145c-0.391,0.289 -0.815,0.161 -0.815,0.161c-1.53,-0.486 -3.217,-0.615 -4.804,-0.972c-0.669,-0.109 -0.978,0.325 -1.059,0.859c-0.056,0.292 -0.092,0.55 0.027,0.869c0.555,0.79 1.596,0.89 2.541,0.97c1.714,0.178 1.366,0.114 2.177,0.272c0.398,0.088 0.847,0.183 0.64,0.697c-0.09,0.472 -0.158,0.78 -0.64,0.741c-1.645,0.134 -3.147,-0.145 -4.718,-0.254c-1.465,-0.258 -2.883,-0.131 -4.338,-0.054c-0.466,0.021 -0.713,0.347 -0.763,0.86c-0.017,0.193 -0.044,0.403 -0.044,0.61c0.044,0.338 0.027,0.578 0.389,0.746c2.654,0.224 5.446,0.469 8.076,0.451c0,0 0.914,-0.162 1.063,0.274c0.136,0.417 0.026,0.756 0.026,0.756c-1.142,0.34 -2.504,0.427 -3.762,0.584c-0.739,0.14 -1.947,0.163 -2.545,0.915c-0.204,0.197 -0.228,0.968 0.33,1.454c0.248,0.247 0.793,0.181 1.845,0c0.986,-0.401 2.482,-0.497 3.664,-0.851c1.045,-0.31 1.128,0.128 1.351,0.578c0,0 -0.024,0.273 -0.605,0.337c-1.412,0.372 -2.703,0.731 -4.093,1.181c-0.493,0.143 -0.677,0.36 -0.677,0.36c-0.119,0.189 -0.139,0.413 -0.009,0.672c0.193,0.369 0.386,1.081 0.971,1.036c1.422,-0.584 2.864,-0.584 4.211,-1.344c0.723,-0.364 1.304,-0.547 1.516,-0.109c0.098,0.158 0.014,0.352 -0.159,0.468c-2.12,1.479 -4.398,2.664 -6.496,4.245c-0.173,0.291 0.049,0.968 0.214,1.242c0.287,0.419 0.779,0.87 1.406,0.737c1.893,-1.041 3.826,-1.756 5.528,-3.13c0.499,-0.366 0.9,-0.98 1.783,-0.659c0.266,0.114 0.383,0.304 0.266,0.53c-0.969,1.388 -2.049,2.522 -2.657,4.067c-0.121,0.637 0.58,0.614 0.973,0.667c1.291,0.319 1.39,-0.488 1.657,-0.844l0.611,-0.901c0.186,-0.258 0.705,-0.771 0.938,-1.289c0.127,-0.129 0.404,-0.197 0.537,0.103c-0.151,1.124 -0.77,2.286 -0.97,3.479c0,0 -0.257,0.674 0.225,1.032c0.161,0.064 0.293,0.095 0.483,0.108c1.033,0.064 1.145,-1.14 1.66,-1.688c0.537,-0.765 0.443,-1.858 1.145,-2.451c1.309,0.159 2.665,0.089 3.717,0.976c0.383,1.386 0.368,3.262 0.268,4.506l-0.038,1.082c-0.089,1.127 0.178,2.258 0,3.291c-0.173,1.286 -1.673,1.614 -2.382,2.549c-0.279,1.582 -0.503,2.841 -0.485,4.49c0.129,0.689 -0.268,1.437 -0.064,2.114c-0.448,3.13 -0.243,6.499 -0.36,9.827c0.589,2.221 -0.203,4.692 -0.184,7.004c0.128,0.585 -0.453,1.255 0.062,1.614c0.323,0.19 0.621,0.131 0.98,0.049c0.922,-0.482 2.203,-0.343 3.2,-0.536c0.404,0.021 0.615,-0.436 0.476,-0.707c-0.05,-3.889 -0.751,-8.138 -0.666,-11.752c0.105,-0.53 -0.024,-0.936 0,-1.499c-0.17,-2.762 -0.06,-5.163 -0.085,-7.842c0.367,-0.908 1.547,-0.839 2.257,-0.935c0.73,0.018 1.779,-0.193 2.278,0.659c0.339,1.873 0.357,3.096 0.276,5.679c-0.525,3.75 -0.14,7.606 -0.318,11.157c0.349,1.948 -0.815,3.709 0.381,5.521c1.517,0.172 2.497,-0.088 4.11,0c0,0 1.051,0.061 1.398,-0.443c0.445,-0.945 0.128,-2.258 -0.061,-3.292c-0.349,-1.819 -0.842,-4.018 -0.842,-5.785c-0.387,-0.838 -0.617,-1.745 -0.659,-2.715c-0.183,-1.476 -0.325,-2.71 -0.495,-4.163c0.277,-2.324 -0.71,-4.41 -0.43,-6.895c0,-1.55 -1.848,-1.615 -1.733,-3.242c0,-3.386 -0.558,-6.264 0.481,-9.362c1.351,-0.532 2.645,-1.415 3.575,-2.308c0.358,1.277 0.623,2.629 1.773,3.356c0.529,0.23 1.338,-0.129 1.6,-0.657c0.213,-1.443 -1.183,-2.636 -1.632,-4.024c0.309,-0.145 0.47,-0.581 0.812,-0.53c0.644,1.34 1.87,2.792 3.291,3.079c0.321,0.066 0.858,-0.063 1.123,-0.414c0.249,-0.214 0.519,-0.747 0.236,-1.08c-0.961,-1.245 -2.134,-1.796 -3.075,-3.035c0.295,-0.312 0.671,-0.696 1.077,-0.873c0.83,0.772 1.927,1.004 2.86,1.597l1.247,0.726c0.843,0.466 1.611,1.199 2.601,0.775c0.582,-0.224 0.846,-0.939 0.846,-0.939c0.102,-0.255 0.151,-0.534 0.063,-0.804c-0.086,-0.55 -1.299,-0.902 -1.938,-1.248c-1.139,-0.624 -2.342,-1.11 -3.507,-1.657c-0.272,-0.114 -0.5,-0.254 -0.777,-0.374c-0.404,-0.162 -0.731,-0.367 -0.535,-0.975c0.389,-1.799 2.136,-0.64 2.795,-0.555c0.479,0.098 0.985,0.208 1.53,0.306c0.754,0.153 1.566,0.26 2.299,-0.143c0.365,-0.216 0.561,-0.839 0.531,-1.182c0,-0.275 -0.072,-0.658 -0.31,-0.723c-0.585,-0.131 -1.105,-0.243 -1.701,-0.281l-1.603,-0.157c-0.894,-0.146 -1.762,-0.047 -2.617,-0.368c-0.038,-0.357 0.043,-0.764 0.276,-1.086c1.427,0.229 2.974,0.034 4.322,0.165c0.419,0.111 0.832,0.209 1.191,0.157c0.186,0 0.823,-0.157 1.099,-0.545c0.088,-0.078 0.564,-1.162 -0.196,-1.389c-1.918,-0.61 -4.543,-0.207 -6.692,-0.434c-0.229,-0.192 -0.229,-0.468 -0.229,-0.761c2.489,-0.777 5.081,-1.269 7.54,-2.047c0.657,-0.326 1.709,-0.197 2.093,-1.05c0.131,-0.372 0.193,-0.921 0,-1.359" style="fill:#fff;fill-rule:nonzero;"/><path d="M439.599,111.423l0,6.748l1.052,0l0,0.705l-2.913,0l0,-0.705l1.029,0l0,-6.391l-3.327,7.096l-0.642,0l-2.99,-7.096l0,6.391l1.051,0l0,0.705l-2.869,0l0,-0.705l1.033,0l0,-6.748l-1.033,0l0,-0.708l2.195,0l2.954,7.015l3.282,-7.015l2.23,0l0,0.708l-1.052,0Z" style="fill:#fff;fill-rule:nonzero;"/><path d="M446.837,111.423l-0.976,0l0,-0.708l2.846,0l0,0.708l-1.047,0l0,4.92c0,0.826 -0.259,1.485 -0.756,2.003c-0.51,0.508 -1.154,0.759 -1.936,0.759c-0.517,0 -0.987,-0.114 -1.405,-0.374c-0.403,-0.242 -0.714,-0.548 -0.914,-0.903c-0.239,-0.461 -0.356,-0.965 -0.356,-1.485l0,-4.92l-1.042,0l0,-0.708l2.849,0l0,0.708l-0.979,0l0,4.746c0,0.464 0.086,0.884 0.252,1.198c0.17,0.32 0.417,0.559 0.739,0.739c0.21,0.109 0.496,0.176 0.863,0.176c0.356,0 0.638,-0.067 0.841,-0.163c0.337,-0.176 0.578,-0.416 0.763,-0.739c0.168,-0.312 0.258,-0.713 0.258,-1.211l0,-4.746Z" style="fill:#fff;fill-rule:nonzero;"/><path d="M449.356,118.876l0,-2.191l0.712,0c0.048,0.5 0.239,0.903 0.562,1.177c0.321,0.276 0.744,0.42 1.283,0.42c0.542,0 0.955,-0.144 1.265,-0.434c0.311,-0.29 0.447,-0.663 0.447,-1.116c0,-0.287 -0.063,-0.552 -0.206,-0.76c-0.126,-0.208 -0.337,-0.387 -0.61,-0.544c-0.18,-0.099 -0.506,-0.194 -0.954,-0.309c-0.93,-0.23 -1.588,-0.501 -1.982,-0.839c-0.389,-0.341 -0.583,-0.838 -0.583,-1.495c0,-0.671 0.216,-1.217 0.646,-1.651c0.455,-0.435 1.015,-0.648 1.721,-0.648c0.798,0 1.357,0.323 1.699,0.92l0,-0.691l0.721,0l0,1.937l-0.817,0c-0.053,-0.412 -0.195,-0.728 -0.486,-0.968c-0.265,-0.247 -0.62,-0.374 -1.067,-0.374c-0.478,0 -0.867,0.147 -1.158,0.403c-0.286,0.291 -0.433,0.617 -0.433,0.982c0,0.291 0.08,0.52 0.205,0.712c0.141,0.194 0.375,0.376 0.681,0.505c0.187,0.098 0.572,0.191 1.159,0.335c0.585,0.15 1.032,0.309 1.335,0.487c0.294,0.175 0.539,0.416 0.713,0.754c0.184,0.341 0.261,0.715 0.261,1.113c0,0.441 -0.098,0.858 -0.319,1.261c-0.213,0.384 -0.506,0.71 -0.916,0.92c-0.382,0.209 -0.815,0.324 -1.286,0.324c-0.787,0 -1.42,-0.324 -1.881,-0.987l0,0.757l-0.712,0Z" style="fill:#fff;fill-rule:nonzero;"/><path d="M460.057,116.81l0.815,0l0,2.066l-5.838,0l0,-0.705l1.037,0l0,-6.748l-1.037,0l0,-0.708l5.838,0l0,2.113l-0.815,0l0,-1.405l-3.157,0l0,3.005l3.245,0l0,0.677l-3.245,0l0,3.066l3.157,0l0,-1.361Z" style="fill:#fff;fill-rule:nonzero;"/><path d="M469.2,114.791c0,-0.592 -0.152,-1.173 -0.445,-1.705c-0.303,-0.552 -0.734,-0.984 -1.296,-1.306c-0.548,-0.31 -1.132,-0.47 -1.74,-0.47c-0.612,0 -1.19,0.16 -1.741,0.47c-0.548,0.303 -0.981,0.719 -1.281,1.287c-0.304,0.551 -0.469,1.132 -0.469,1.724c0,0.617 0.165,1.181 0.469,1.747c0.3,0.548 0.733,0.966 1.281,1.28c0.551,0.319 1.129,0.464 1.741,0.464c0.615,0 1.192,-0.145 1.74,-0.464c0.562,-0.314 0.993,-0.75 1.296,-1.297c0.293,-0.549 0.445,-1.126 0.445,-1.73m0.827,0c0,0.733 -0.199,1.441 -0.561,2.133c-0.373,0.664 -0.891,1.213 -1.585,1.599c-0.698,0.389 -1.415,0.583 -2.162,0.583c-0.74,0 -1.45,-0.194 -2.144,-0.583c-0.681,-0.368 -1.216,-0.902 -1.585,-1.582c-0.383,-0.695 -0.583,-1.402 -0.583,-2.15c0,-0.742 0.2,-1.449 0.583,-2.126c0.369,-0.694 0.904,-1.209 1.585,-1.595c0.694,-0.387 1.404,-0.584 2.153,-0.584c0.752,0 1.474,0.197 2.153,0.584c0.694,0.386 1.227,0.913 1.599,1.595c0.348,0.677 0.547,1.372 0.547,2.126" style="fill:#fff;fill-rule:nonzero;"/><path d="M429.016,125.659l1.566,0c0.568,0 1.019,-0.183 1.344,-0.508c0.332,-0.333 0.503,-0.739 0.503,-1.238c0,-0.515 -0.181,-0.932 -0.503,-1.277c-0.34,-0.332 -0.792,-0.494 -1.344,-0.494l-1.566,0l0,3.517Zm0,0.711l0,2.519l1.045,0l0,0.705l-2.913,0l0,-0.705l1.043,0l0,-6.747l-1.043,0l0,-0.714l3.434,0c0.811,0 1.461,0.226 1.939,0.695c0.484,0.472 0.726,1.05 0.726,1.774c0,0.679 -0.237,1.276 -0.713,1.742c-0.47,0.485 -1.1,0.731 -1.871,0.731l-1.647,0Z" style="fill:#fff;fill-rule:nonzero;"/><path d="M440.543,128.888l0,0.706l-1.574,0l-2.459,-3.515l0.59,0c0.502,0 0.918,-0.082 1.236,-0.229c0.314,-0.145 0.573,-0.387 0.77,-0.699c0.207,-0.318 0.309,-0.672 0.309,-1.064c0,-0.579 -0.185,-1.043 -0.555,-1.416c-0.345,-0.351 -0.855,-0.529 -1.512,-0.529l-1.697,0l0,6.746l0.966,0l0,0.706l-2.839,0l0,-0.706l1.053,0l0,-6.746l-1.053,0l0,-0.714l3.615,0c0.867,0 1.569,0.239 2.084,0.744c0.502,0.499 0.763,1.132 0.763,1.904c0,0.809 -0.31,1.484 -0.909,1.985c-0.389,0.323 -0.9,0.499 -1.541,0.549l1.687,2.278l1.066,0Z" style="fill:#fff;fill-rule:nonzero;"/><path d="M446.109,127.511l0.823,0l0,2.083l-5.857,0l0,-0.706l1.05,0l0,-6.746l-1.05,0l0,-0.714l5.857,0l0,2.104l-0.823,0l0,-1.39l-3.161,0l0,2.998l3.246,0l0,0.66l-3.246,0l0,3.088l3.161,0l0,-1.377Z" style="fill:#fff;fill-rule:nonzero;"/><path d="M447.566,129.594l0,-2.213l0.721,0c0.046,0.517 0.229,0.908 0.555,1.182c0.323,0.292 0.754,0.423 1.291,0.423c0.523,0 0.952,-0.131 1.251,-0.443c0.308,-0.285 0.454,-0.645 0.454,-1.109c0,-0.29 -0.065,-0.549 -0.197,-0.765c-0.144,-0.208 -0.337,-0.363 -0.626,-0.528c-0.175,-0.095 -0.493,-0.192 -0.947,-0.307c-0.938,-0.224 -1.583,-0.52 -1.982,-0.854c-0.4,-0.345 -0.595,-0.839 -0.595,-1.488c0,-0.673 0.232,-1.211 0.667,-1.643c0.434,-0.437 1.007,-0.648 1.715,-0.648c0.783,0 1.356,0.307 1.701,0.922l0,-0.696l0.715,0l0,1.938l-0.819,0c-0.047,-0.418 -0.207,-0.73 -0.471,-0.965c-0.284,-0.259 -0.63,-0.375 -1.072,-0.375c-0.501,0 -0.881,0.127 -1.17,0.403c-0.285,0.276 -0.433,0.595 -0.433,0.982c0,0.274 0.074,0.521 0.205,0.709c0.144,0.197 0.378,0.359 0.698,0.486c0.186,0.098 0.57,0.213 1.155,0.357c0.588,0.129 1.02,0.312 1.325,0.476c0.296,0.172 0.542,0.429 0.713,0.751c0.173,0.339 0.273,0.707 0.273,1.117c0,0.447 -0.111,0.85 -0.322,1.257c-0.21,0.403 -0.516,0.708 -0.913,0.937c-0.395,0.203 -0.828,0.303 -1.293,0.303c-0.801,0 -1.429,-0.319 -1.878,-0.982l0,0.773l-0.721,0Z" style="fill:#fff;fill-rule:nonzero;"/><path d="M457.805,127.511l0.82,0l0,2.083l-5.408,0l0,-0.706l1.06,0l0,-6.746l-1.06,0l0,-0.714l2.913,0l0,0.714l-1.036,0l0,6.746l2.711,0l0,-1.377Z" style="fill:#fff;fill-rule:nonzero;"/><path d="M464.147,127.511l0.832,0l0,2.083l-5.862,0l0,-0.706l1.057,0l0,-6.746l-1.057,0l0,-0.714l5.862,0l0,2.104l-0.832,0l0,-1.39l-3.143,0l0,2.998l3.241,0l0,0.66l-3.241,0l0,3.088l3.143,0l0,-1.377Z" style="fill:#fff;fill-rule:nonzero;"/><path d="M469.647,126.832l0,2.056l1.037,0l0,0.706l-2.901,0l0,-0.706l1.038,0l0,-1.972l-2.505,-4.774l-0.95,0l0,-0.714l2.847,0l0,0.714l-0.995,0l2.021,3.919l1.937,-3.919l-1.033,0l0,-0.714l2.845,0l0,0.714l-0.975,0l-2.366,4.69Z" style="fill:#fff;fill-rule:nonzero;"/><path d="M432.827,132.838l0,7.458l-0.817,0l-4.848,-6.811l0,6.096l1.048,0l0,0.715l-2.926,0l0,-0.715l1.055,0l0,-6.743l-1.055,0l0,-0.713l1.878,0l4.848,6.863l0,-6.15l-1.043,0l0,-0.713l2.91,0l0,0.713l-1.05,0Z" style="fill:#fff;fill-rule:nonzero;"/><path d="M442.173,136.212c0,-0.598 -0.154,-1.161 -0.452,-1.711c-0.305,-0.55 -0.73,-0.988 -1.282,-1.306c-0.564,-0.305 -1.141,-0.469 -1.75,-0.469c-0.612,0 -1.182,0.164 -1.731,0.469c-0.552,0.306 -0.985,0.74 -1.286,1.276c-0.314,0.56 -0.474,1.129 -0.474,1.741c0,0.596 0.16,1.179 0.474,1.742c0.301,0.546 0.734,0.975 1.286,1.275c0.549,0.308 1.119,0.47 1.731,0.47c0.609,0 1.186,-0.162 1.761,-0.47c0.541,-0.322 0.966,-0.743 1.271,-1.293c0.298,-0.545 0.452,-1.128 0.452,-1.724m0.819,-0.016c0,0.741 -0.182,1.47 -0.556,2.128c-0.365,0.679 -0.89,1.213 -1.594,1.617c-0.683,0.387 -1.401,0.58 -2.148,0.58c-0.752,0 -1.467,-0.193 -2.147,-0.58c-0.682,-0.369 -1.218,-0.909 -1.596,-1.584c-0.375,-0.679 -0.569,-1.402 -0.569,-2.145c0,-0.742 0.194,-1.452 0.569,-2.13c0.378,-0.677 0.914,-1.225 1.596,-1.602c0.68,-0.389 1.395,-0.578 2.147,-0.578c0.765,0 1.479,0.189 2.159,0.578c0.693,0.393 1.218,0.925 1.597,1.602c0.36,0.661 0.542,1.368 0.542,2.114" style="fill:#fff;fill-rule:nonzero;"/><path d="M450.263,139.582l0,0.714l-1.571,0l-2.472,-3.514l0.594,0c0.504,0 0.932,-0.07 1.233,-0.215c0.32,-0.161 0.578,-0.389 0.777,-0.71c0.2,-0.311 0.301,-0.663 0.301,-1.066c0,-0.563 -0.17,-1.032 -0.543,-1.404c-0.36,-0.367 -0.876,-0.549 -1.52,-0.549l-1.702,0l0,6.744l0.963,0l0,0.714l-2.83,0l0,-0.714l1.053,0l0,-6.744l-1.053,0l0,-0.712l3.613,0c0.878,0 1.568,0.248 2.068,0.763c0.514,0.498 0.774,1.13 0.774,1.887c0,0.824 -0.309,1.482 -0.917,2.006c-0.385,0.317 -0.891,0.499 -1.54,0.54l1.697,2.26l1.075,0Z" style="fill:#fff;fill-rule:nonzero;"/><path d="M454.013,132.838l0,6.743l1.057,0l0,0.715l-2.928,0l0,-0.715l1.051,0l0,-6.743l-1.745,0l0,1.475l-0.68,0l0,-2.188l5.668,0l0,2.188l-0.686,0l0,-1.475l-1.737,0Z" style="fill:#fff;fill-rule:nonzero;"/><path d="M464.73,136.212c0,-0.598 -0.14,-1.161 -0.452,-1.711c-0.283,-0.55 -0.719,-0.988 -1.281,-1.306c-0.554,-0.305 -1.137,-0.469 -1.754,-0.469c-0.588,0 -1.173,0.164 -1.727,0.469c-0.538,0.306 -0.986,0.74 -1.286,1.276c-0.306,0.56 -0.462,1.129 -0.462,1.741c0,0.596 0.156,1.179 0.462,1.742c0.3,0.546 0.748,0.975 1.286,1.275c0.554,0.308 1.139,0.47 1.727,0.47c0.636,0 1.219,-0.162 1.754,-0.47c0.562,-0.322 0.998,-0.743 1.281,-1.293c0.312,-0.545 0.452,-1.128 0.452,-1.724m0.827,-0.016c0,0.741 -0.187,1.47 -0.553,2.128c-0.365,0.679 -0.9,1.213 -1.574,1.617c-0.701,0.387 -1.421,0.58 -2.169,0.58c-0.757,0 -1.466,-0.193 -2.149,-0.58c-0.671,-0.369 -1.213,-0.909 -1.591,-1.584c-0.391,-0.679 -0.574,-1.402 -0.574,-2.145c0,-0.742 0.183,-1.452 0.574,-2.13c0.378,-0.677 0.92,-1.225 1.591,-1.602c0.683,-0.389 1.392,-0.578 2.149,-0.578c0.757,0 1.477,0.189 2.169,0.578c0.688,0.393 1.218,0.925 1.574,1.602c0.366,0.661 0.553,1.368 0.553,2.114" style="fill:#fff;fill-rule:nonzero;"/><path d="M473.579,132.838l0,7.458l-0.818,0l-4.851,-6.811l0,6.096l1.051,0l0,0.715l-2.924,0l0,-0.715l1.049,0l0,-6.743l-1.049,0l0,-0.713l1.873,0l4.851,6.863l0,-6.15l-1.053,0l0,-0.713l2.915,0l0,0.713l-1.044,0Z" style="fill:#fff;fill-rule:nonzero;"/></svg>