<?xml version="1.0" encoding="UTF-8" standalone="no"?><!DOCTYPE svg PUBLIC "-//W3C//DTD SVG 1.1//EN" "http://www.w3.org/Graphics/SVG/1.1/DTD/svg11.dtd"><svg width="100%" height="100%" viewBox="0 0 600 220" version="1.1" xmlns="http://www.w3.org/2000/svg" xmlns:xlink="http://www.w3.org/1999/xlink" xml:space="preserve" xmlns:serif="http://www.serif.com/" style="fill-rule:evenodd;clip-rule:evenodd;stroke-linecap:round;stroke-linejoin:round;stroke-miterlimit:1.5;"><path d="M315.9,118.967l0,45.984" style="fill:none;stroke:#43bee7;stroke-width:11px;"/><path d="M258.741,164.951l0,-45.984l37.982,45.984l0,-45.984" style="fill:none;stroke:#43bee7;stroke-width:11px;"/><path d="M333.448,164.951l23.083,-45.984l24.391,45.984" style="fill:none;stroke:#43bee7;stroke-width:11px;"/><path d="M356.531,150.602l15.906,0" style="fill:none;stroke:#43bee7;stroke-width:11px;"/><path d="M240.413,179.697c0,-4.154 -0.761,-6.527 -8.066,-6.527l-24.434,0c-7.305,0 -8.095,2.373 -8.095,6.527c0,4.155 0.79,6.528 8.095,6.528l24.434,0c7.305,0 8.066,-2.373 8.066,-6.528Z" style="fill:#c6dee9;fill-opacity:0.52;"/><path d="M204.598,203.191c0,-4.155 -0.761,-6.528 -8.066,-6.528l-24.434,0c-7.305,0 -8.095,2.373 -8.095,6.528c0,4.154 0.79,6.527 8.095,6.527l24.434,0c7.305,0 8.066,-2.373 8.066,-6.527Z" style="fill:#c6dee9;fill-opacity:0.52;"/><path d="M124.569,87.646c0,-4.154 -1.125,-6.527 -11.927,-6.527l-36.13,0c-10.802,0 -11.97,2.373 -11.97,6.527c0,4.155 1.168,6.528 11.97,6.528l36.13,0c10.802,0 11.927,-2.373 11.927,-6.528Z" style="fill:#c6dee9;fill-opacity:0.52;"/><path d="M146.89,61.398c0,-4.155 -1.125,-6.528 -11.928,-6.528l-36.129,0c-10.803,0 -11.971,2.373 -11.971,6.528c0,4.154 1.168,6.527 11.971,6.527l36.129,0c10.803,0 11.928,-2.373 11.928,-6.527Z" style="fill:#c6dee9;fill-opacity:0.52;"/><path d="M290.098,88.094c0,-4.154 -1.125,-6.527 -11.928,-6.527l-36.129,0c-10.803,0 -11.97,2.373 -11.97,6.527c0,4.155 1.167,6.528 11.97,6.528l36.129,0c10.803,0 11.928,-2.373 11.928,-6.528Z" style="fill:#c6dee9;fill-opacity:0.52;"/><path d="M92.473,152.13c0,-4.155 -1.305,-6.528 -13.832,-6.528l-41.898,0c-12.528,0 -13.882,2.373 -13.882,6.528c0,4.154 1.354,6.527 13.882,6.527l41.898,0c12.527,0 13.832,-2.373 13.832,-6.527Z" style="fill:#c6dee9;fill-opacity:0.52;"/><path d="M173.145,180.015c0,-4.155 -1.305,-6.527 -13.832,-6.527l-41.898,0c-12.528,0 -13.882,2.372 -13.882,6.527c0,4.154 1.354,6.527 13.882,6.527l41.898,0c12.527,0 13.832,-2.373 13.832,-6.527Z" style="fill:#c6dee9;fill-opacity:0.52;"/><path d="M200.729,151.937c0,-4.155 -1.544,-6.528 -16.375,-6.528l-49.602,0c-14.831,0 -16.434,2.373 -16.434,6.528c0,4.154 1.603,6.527 16.434,6.527l49.602,0c14.831,0 16.375,-2.373 16.375,-6.527Z" style="fill:#c6dee9;fill-opacity:0.52;"/><path d="M154.924,114.836c-7.481,1.827 -14.169,5.802 -17.91,12.47c-2.314,4.133 -3.162,8.967 -3.079,13.71c0.297,17.112 15.099,38.245 34.31,35.067c10.63,-1.76 18.17,-10.774 22.332,-20.147c6.487,-14.606 7.562,-33.293 -10.142,-39.761c-7.408,-2.707 -16.976,-3.421 -25.511,-1.339Z" style="fill:#43bee7;fill-rule:nonzero;"/><clipPath id="_clip1"><path d="M190.618,124.477c-7.481,1.827 -14.169,5.802 -17.91,12.47c-2.314,4.133 -3.162,8.967 -3.079,13.709c0.297,17.113 15.099,38.246 34.31,35.068c10.63,-1.76 18.17,-10.774 22.332,-20.148c6.487,-14.605 7.562,-33.292 -10.142,-39.761c-7.408,-2.706 -16.976,-3.42 -25.511,-1.338Z"/></clipPath><g clip-path="url(#_clip1)"><path d="M147.312,75.491c12.152,-10.992 30.942,-10.049 41.934,2.103c10.991,12.153 10.049,30.943 -2.104,41.934c-12.152,10.992 -30.942,10.049 -41.934,-2.103c-10.991,-12.153 -10.049,-30.943 2.104,-41.934Z" style="fill:#60c4e5;"/></g><path d="M199.591,130.649c0.925,2.079 2.441,3.807 4.394,4.572c1.953,0.765 4.176,0.72 6.237,0.224c4.202,-1.018 8.144,-2.923 11.868,-5.086c3.524,-2.048 7.149,-4.031 10.302,-6.615c2.685,-2.205 3.504,-5.003 0.475,-6.996c-1.904,-1.266 -4.611,-1.701 -6.855,-1.788c0,0 -19.483,-0.743 -25.364,5.254c-2.491,2.538 -2.598,6.971 -1.057,10.435Z" style="fill:#43bee7;fill-rule:nonzero;"/><path d="M127.027,121.419c1.347,1.136 2.447,2.535 2.908,4.212c1.385,5.056 -3.031,9.486 -6.148,12.816c-3.669,3.972 -7.626,7.667 -11.84,11.055c-1.745,1.381 -4.004,2.747 -6.063,1.902c-2.292,-0.941 -2.772,-3.977 -2.484,-6.442c0.447,-3.832 1.902,-7.465 3.379,-11.03c1.696,-4.091 3.476,-8.228 6.31,-11.633c1.519,-1.826 3.45,-3.482 5.809,-3.855c2.359,-0.373 4.7,0.587 6.677,1.886c0.505,0.334 0.99,0.698 1.452,1.089Z" style="fill:#43bee7;fill-rule:nonzero;"/><path d="M173.273,147.36c-1.153,-0.329 -2.344,-0.71 -3.538,-0.88c-1.464,-0.199 -2.945,0.023 -3.746,1.387c-0.231,0.406 -0.393,0.848 -0.479,1.308c-0.003,0.06 -0.136,0.552 -0.075,0.597l-4.355,-3.305l-5.142,3.91l3.259,-5.651l-2.809,-1.966l4.287,-0.529l2.585,-4.455l0.079,-0.138l0.778,4.073l5.537,-0.806c0,0 -3.23,2.412 -2.995,2.297c0.235,-0.114 3.158,-2.322 7.209,-1.25c1.713,0.453 3.483,0.858 5.269,0.751c1.631,-0.099 3.248,-0.703 4.659,-1.508c1.19,-0.677 2.239,-1.525 3.359,-2.297c-2.262,1.562 -4.114,1.635 -4.114,1.635c-3.426,0.371 -2.905,0.112 -6.92,-0.724c-4.016,-0.836 -6.472,0.08 -6.472,0.08l-4.603,0.991l-1.386,-5.452l-3.557,6.037l-6.319,0.995l4.099,2.815l-5.435,8.619l8.429,-5.942l6.945,5.597l-0.792,-3.428c0.069,-0.449 0.35,-0.839 0.755,-1.048c0.754,-0.395 1.685,-0.287 2.49,-0.153c0.69,0.149 1.387,0.262 2.089,0.339c1.011,0.064 2.026,-0.043 3.001,-0.318c1.316,-0.374 2.33,-1.139 3.459,-1.871c0,0 -2.012,1.305 -5.551,0.29Z" style="fill:#fff;fill-rule:nonzero;"/><path d="M181.835,143.531c-2.331,0.763 -4.939,0.515 -7.31,0.101c-2.893,-0.499 -6.76,-1.455 -8.922,1.204c-0.102,0.126 -0.54,0.605 -0.508,0.796l0.323,1.64c-0.028,-0.146 0.56,-0.631 0.668,-0.727c1.629,-1.455 4.061,-1.654 6.118,-1.195c2.557,0.575 5.104,0.883 7.615,-0.06c1.266,-0.475 2.445,-1.156 3.489,-2.015c0.272,-0.224 0.532,-0.461 0.778,-0.713c0.054,-0.055 0.116,-0.134 0.176,-0.197c0.059,-0.062 0.057,-0.06 0.076,-0.08c-0.143,0.103 -0.291,0.201 -0.44,0.294c-0.646,0.4 -1.339,0.72 -2.063,0.952Zm-12.234,1.099l-0.428,-0.232l-0.432,0.352l0.167,-0.497l-0.428,-0.232l0.533,-0.074l0.165,-0.497l0.162,0.451l0.533,-0.074l-0.432,0.352l0.16,0.451Zm3.776,0.486l-0.448,-0.406l-0.48,0.238l0.198,-0.488l-0.448,-0.407l0.568,0.097l0.198,-0.486l0.157,0.553l0.573,0.103l-0.48,0.236l0.162,0.56Zm3.316,0.366l-0.384,-0.333l-0.362,0.216l0.125,-0.429l-0.384,-0.333l0.465,0.065l0.125,-0.429l0.161,0.476l0.464,0.066l-0.362,0.216l0.152,0.485Z" style="fill:#fff;fill-rule:nonzero;"/><path d="M153.494,142.977l2.706,2.642l-4.111,7.817l4.727,-7.838l0.084,-0.127l-3.406,-2.494Z" style="fill:#3d86c7;fill-rule:nonzero;"/><path d="M160.782,148.909l6.168,4.758l-6.801,-4.307l0.633,-0.451Z" style="fill:#3d86c7;fill-rule:nonzero;"/><path d="M158.819,141.176l3.955,-5.574l-3.151,5.448l-0.804,0.126Z" style="fill:#3d86c7;fill-rule:nonzero;"/><path d="M153.386,143.784l1.811,2.042l-2.031,4.157l2.339,-4.139l0.058,-0.086l-2.177,-1.974Z" style="fill:#3d86c7;fill-rule:nonzero;"/><path d="M159.714,149.635l4.744,3.163l-5.054,-2.956l0.31,-0.207Z" style="fill:#3d86c7;fill-rule:nonzero;"/><path d="M158.009,141.275l3.622,-4.898l-3.273,4.846l-0.349,0.052Z" style="fill:#3d86c7;fill-rule:nonzero;"/><path d="M136.863,40.153c18.795,-16.999 47.855,-15.541 64.854,3.254c17,18.795 15.542,47.855 -3.253,64.855c-18.795,16.999 -47.855,15.541 -64.855,-3.254c-16.999,-18.795 -15.541,-47.855 3.254,-64.855Z" style="fill:#43bee7;"/><path d="M124.559,56.381l87.775,4.403c8.53,0.427 15.197,7.799 14.769,16.329l-0.081,1.615c-0.428,8.53 -7.799,15.197 -16.329,14.77l-87.775,-4.403c-8.529,-0.43 -15.196,-7.8 -14.769,-16.33l0.081,-1.613c0.428,-8.531 7.8,-15.199 16.332,-14.771l-0.003,0Z" style="fill:#43bee7;fill-rule:nonzero;"/><path d="M143.246,47.211c14.9,-13.476 37.938,-12.321 51.414,2.579c13.476,14.9 12.321,37.938 -2.579,51.414c-14.9,13.476 -37.938,12.321 -51.414,-2.579c-13.476,-14.9 -12.321,-37.938 2.579,-51.414Z" style="fill:#fff;"/><path d="M166.046,15.579c0.722,-2.482 3.322,-3.912 5.804,-3.191c2.483,0.722 3.912,3.322 3.191,5.804c-0.721,2.483 -3.322,3.912 -5.804,3.191c-2.482,-0.721 -3.912,-3.322 -3.191,-5.804Z" style="fill:#43bee7;"/><path d="M124.559,56.381l87.775,4.403c8.53,0.427 15.197,7.799 14.769,16.329l-0.081,1.615c-0.428,8.53 -7.799,15.197 -16.329,14.77l-87.775,-4.403c-8.529,-0.43 -15.196,-7.8 -14.769,-16.33l0.081,-1.613c0.428,-8.531 7.8,-15.199 16.332,-14.771l-0.003,0Z" style="fill:#60c4e5;fill-rule:nonzero;"/><path d="M143.246,47.211c14.9,-13.476 37.938,-12.321 51.414,2.579c13.476,14.9 12.321,37.938 -2.579,51.414c-14.9,13.476 -37.938,12.321 -51.414,-2.579c-13.476,-14.9 -12.321,-37.938 2.579,-51.414Z" style="fill:#fff;"/><path d="M160.341,70.521c-0.001,0 -0.001,0 -0.002,0c-0.674,-0.034 -1.2,-0.616 -1.166,-1.289c0,0 0,0 0,0c0.137,-2.744 -2.007,-5.116 -4.751,-5.253c-2.744,-0.138 -5.115,2.007 -5.253,4.751c-0.034,0.673 -0.616,1.2 -1.289,1.166c-0.674,-0.034 -1.2,-0.616 -1.166,-1.289c-0.001,-0.133 0.002,-0.265 0.009,-0.397c0.205,-4.097 3.746,-7.3 7.844,-7.094c4.097,0.205 7.299,3.746 7.094,7.843c-0.007,0.132 -0.017,0.264 -0.031,0.396c-0.033,0.673 -0.615,1.2 -1.289,1.166Z" style="fill:#1226aa;fill-rule:nonzero;"/><path d="M187.78,71.897c-0.001,0 -0.001,0 -0.002,0c-0.672,-0.033 -1.198,-0.614 -1.164,-1.287c0,0 0,-0.001 0,-0.002c0.138,-2.744 -2.007,-5.115 -4.751,-5.253c-2.744,-0.137 -5.115,2.007 -5.253,4.751c-0.061,0.653 -0.633,1.148 -1.288,1.115c-0.654,-0.033 -1.174,-0.583 -1.169,-1.238c0,-0.125 0.003,-0.249 0.009,-0.374c0.206,-4.097 3.746,-7.3 7.844,-7.094c4.097,0.205 7.299,3.746 7.094,7.843c-0.006,0.125 -0.016,0.249 -0.028,0.373c0,0 0,0 0,0c-0.034,0.674 -0.616,1.2 -1.289,1.166c-0.001,0 -0.002,0 -0.003,0Z" style="fill:#1226aa;fill-rule:nonzero;"/><path d="M159.832,79.595c-0.213,4.248 2.991,7.872 7.157,8.081c4.167,0.209 7.715,-3.067 7.928,-7.324l-15.085,-0.757Z" style="fill:#1226aa;fill-rule:nonzero;"/></svg>