<svg xmlns="http://www.w3.org/2000/svg" viewBox="0 0 106 106"><defs><style>.cls-1{fill:#ffc868;}.cls-2{fill:#fff;}.cls-3{fill:#43d490;}.cls-4{fill:#ff7575;}.cls-5{fill:#70cbf6;}.cls-6{opacity:0.1;}.cls-7{fill:#171c1f;}</style></defs><title>paint-palette</title><g id="Paint_Palette" data-name="Paint Palette"><g id="Yellow"><path class="cls-1" d="M18,36l2,65a3,3,0,1,0,6,0l2-65Z"/></g><g id="White"><path class="cls-2" d="M89.82,48.58c-5.15-2.38-12.93-6-16.73-18a33.3,33.3,0,0,0-8.92-14.3C60.52,12.93,56.45,11,53,11a41.73,41.73,0,0,0-21.41,5.89l-1.28-1C26.8,13.24,22.85,10.26,24.6,1.6A23.5,23.5,0,0,0,10,24a13,13,0,0,0,5.32,10.46,41.9,41.9,0,0,0,4,43.55L18,36H28L26.48,85.54A42,42,0,0,0,95,53C95,51.14,93.66,50.36,89.82,48.58ZM64.5,38A3.5,3.5,0,1,1,68,34.5,3.5,3.5,0,0,1,64.5,38Z"/></g><g id="Green"><path class="cls-3" d="M62.2,76.13A7,7,0,0,0,56,73a9.57,9.57,0,0,0-4.64,1.22,8.48,8.48,0,0,0-4.18,5.12,5.8,5.8,0,0,0,.59,4.53A7,7,0,0,0,54,87a9.57,9.57,0,0,0,4.63-1.22,8.48,8.48,0,0,0,4.18-5.12A5.8,5.8,0,0,0,62.2,76.13Z"/></g><g id="Red"><path class="cls-4" d="M41.33,61.64a6.88,6.88,0,0,0-6.58-1.33h0a9.51,9.51,0,0,0-4.06,2.29A8.1,8.1,0,0,0,28,68.36a5.4,5.4,0,0,0,1.67,4,6.87,6.87,0,0,0,6.58,1.33,9.51,9.51,0,0,0,4.06-2.29A8.1,8.1,0,0,0,43,65.65,5.4,5.4,0,0,0,41.33,61.64ZM32,18c-.46-.37-1.24-1.66-1.72-2-3.5-2.62-7.44-5.57-5.7-14.14A27.54,27.54,0,0,0,11,17c1.57,3.37,6,6.12,12,7C23,24,19.43,18.23,32,18Z"/></g><g id="Blue"><path class="cls-5" d="M33.27,39.34h0A9.2,9.2,0,0,0,28.72,38c-.26,0-.52,0-.78,0l-.42,13.73A9.28,9.28,0,0,0,29.3,52a8,8,0,0,0,6-2.35A6,6,0,0,0,37,45.33,7.39,7.39,0,0,0,33.27,39.34Z"/></g><g id="Yellow-2" data-name="Yellow"><path class="cls-1" d="M89.82,48.58c-5.15-2.38-12.93-6-16.73-18a33.3,33.3,0,0,0-8.92-14.3A24,24,0,0,0,59.58,13,27,27,0,0,0,94.74,51.8C94.19,50.7,92.72,49.93,89.82,48.58ZM64.5,38A3.5,3.5,0,1,1,68,34.5,3.5,3.5,0,0,1,64.5,38Z"/></g><g id="Shadows" class="cls-6"><path d="M29.07,73.07a6.52,6.52,0,0,1-2-3.88,6.72,6.72,0,0,0,2,5.88,8,8,0,0,0,7.6,1.62,10.27,10.27,0,0,0,4.39-2.46,8.69,8.69,0,0,0,2.87-7.42,9.15,9.15,0,0,1-2.87,5.42,10.28,10.28,0,0,1-4.39,2.46A8,8,0,0,1,29.07,73.07ZM54.08,90a10.54,10.54,0,0,0,5-1.29c3.46-1.88,5.27-5.32,4.82-8.5a9.07,9.07,0,0,1-4.82,6.5,10.54,10.54,0,0,1-5,1.29A8.17,8.17,0,0,1,47,84.36a6.68,6.68,0,0,1-.92-2.57A6.78,6.78,0,0,0,47,86.36,8.17,8.17,0,0,0,54.08,90ZM27.48,52.78l-.06,2A10.21,10.21,0,0,0,29.2,55c5,.13,8.9-3.34,8.79-7.76a7.23,7.23,0,0,0-.08-.82c-.55,3.83-4.2,6.69-8.71,6.57A10.23,10.23,0,0,1,27.48,52.78Zm65.47,0A40,40,0,0,1,26.61,81L26.55,83A40,40,0,0,0,93,53,.59.59,0,0,0,93,52.79ZM13,52c0,.33,0,.66,0,1a39.75,39.75,0,0,0,6.18,21.32l-.06-2.1A39.77,39.77,0,0,1,13,52ZM33,25.5c0-.35,0-.65-.06-1C32.38,29.68,27.67,32,23,32a10,10,0,0,1-10-9.25c0,.41,0,.82,0,1.25A10,10,0,0,0,23,34C28,34,33,31.37,33,25.5Z"/></g><g id="Inner_Lines" data-name="Inner Lines"><path class="cls-7" d="M31.74,19.06l2.08,0a8.82,8.82,0,0,0-2.12-1.94C19.13,17.31,22,23,22,23c-6-.88-9.05-4-10.63-7.35a4.37,4.37,0,0,0-.77,2.68C12.95,22,16.74,24.24,21.7,25l4.05.6-2-3.42a1.2,1.2,0,0,1,.1-1.07C24.18,20.64,25.6,19.17,31.74,19.06Z"/></g><g id="Outline"><path class="cls-7" d="M64.5,39A4.5,4.5,0,1,0,60,34.5,4.5,4.5,0,0,0,64.5,39Zm0-7A2.5,2.5,0,1,1,62,34.5,2.5,2.5,0,0,1,64.5,32ZM55.9,72a10.54,10.54,0,0,0-5,1.29c-4.43,2.41-6.17,7.36-3.9,11.07A8.17,8.17,0,0,0,54.08,88a10.54,10.54,0,0,0,5-1.29c4.43-2.41,6.17-7.36,3.9-11.07A8.17,8.17,0,0,0,55.9,72Zm5.92,8.57A7.31,7.31,0,0,1,58.15,85a8.54,8.54,0,0,1-4.06,1,6.17,6.17,0,0,1-5.4-2.69,4.88,4.88,0,0,1-.51-3.88A7.31,7.31,0,0,1,51.83,75a8.54,8.54,0,0,1,4.06-1,6.17,6.17,0,0,1,5.4,2.69A4.88,4.88,0,0,1,61.81,80.56ZM75,30C71.07,17.55,61,9,53,9a43.75,43.75,0,0,0-22.17,6C27.08,12.19,23.47,9.38,26,0,26,0,9,5,9,24a14,14,0,0,0,4.3,10.08,43.89,43.89,0,0,0,4,44.68L18,101a5,5,0,0,0,10,0l.34-11.55A44,44,0,0,0,97,53C97,45,81,49,75,30ZM62.82,17.77A31.28,31.28,0,0,1,71.19,31.2C75.24,44.05,83.51,47.87,89,50.4A31.46,31.46,0,0,1,92.06,52a26,26,0,0,1-32.67-36.8A22.9,22.9,0,0,1,62.82,17.77ZM13,53a39.71,39.71,0,0,1,3.11-15.39l1,33A39.75,39.75,0,0,1,13,53Zm11,48a1,1,0,0,1-2,0L20.11,37.7A14,14,0,0,0,23,38a17.86,17.86,0,0,0,2.89-.23ZM23,34A10,10,0,0,1,13,24,20.31,20.31,0,0,1,21.22,7c.51,6.15,4.3,9,7.28,11.27C31.3,20.4,33,21.68,33,25.5,33,31.37,28,34,23,34Zm9.73,6.17A6.28,6.28,0,0,1,36,45.28,5,5,0,0,1,34.54,49a7,7,0,0,1-5,2l.35-11.8a8.17,8.17,0,0,1,2.88,1ZM40.6,62.33a4.69,4.69,0,0,1,1.46,3.49,7,7,0,0,1-2.34,5,8.33,8.33,0,0,1-3.56,2,6,6,0,0,1-5.75-1.16A4.61,4.61,0,0,1,29,68.6l0-1.17a7.26,7.26,0,0,1,2.29-4.27,8.33,8.33,0,0,1,3.56-2h0A6,6,0,0,1,40.6,62.33ZM53,93a39.79,39.79,0,0,1-24.51-8.42l.35-11.75.23.24a8,8,0,0,0,7.6,1.62,10.28,10.28,0,0,0,4.39-2.46c3.55-3.35,3.95-8.41.88-11.3a8,8,0,0,0-7.6-1.62,10.27,10.27,0,0,0-4.39,2.46,10.17,10.17,0,0,0-.8.86L29.43,53c4.85,0,8.66-3.41,8.55-7.75a8.32,8.32,0,0,0-4.27-6.81,10.06,10.06,0,0,0-3.81-1.29l0-.6A11.78,11.78,0,0,0,37,25.5a10.43,10.43,0,0,0-2.89-7.71A39.65,39.65,0,0,1,53,13a11,11,0,0,1,4.65,1.19A28,28,0,0,0,93,53.74,40,40,0,0,1,53,93Z"/></g></g></svg>