<?xml version="1.0" encoding="UTF-8" standalone="no"?><!DOCTYPE svg PUBLIC "-//W3C//DTD SVG 1.1//EN" "http://www.w3.org/Graphics/SVG/1.1/DTD/svg11.dtd"><svg width="100%" height="100%" viewBox="0 0 280 53" version="1.1" xmlns="http://www.w3.org/2000/svg" xmlns:xlink="http://www.w3.org/1999/xlink" xml:space="preserve" xmlns:serif="http://www.serif.com/" style="fill-rule:evenodd;clip-rule:evenodd;stroke-linejoin:round;stroke-miterlimit:2;"><g><path d="M84.838,18.386c-2.963,0 -4.343,0.805 -4.343,2.133c0,1.24 0.962,1.688 2.61,1.882l7.55,0.89c4.346,0.514 6.886,2.323 6.886,6.517c0,5.756 -4.872,7.17 -12.396,7.17c-7.113,0 -11.899,-1.473 -12.139,-7.881l6.872,0c0.174,2.877 2.413,3.456 5.519,3.456c3.299,0 5.025,-0.773 5.02,-2.335c-0.006,-1.514 -1.286,-1.993 -3.062,-2.217l-6.841,-0.866c-4.334,-0.543 -6.94,-2.209 -6.94,-6.255c0,-5.254 4.858,-6.824 11.461,-6.824c6.54,0 11.565,1.514 11.781,7.155l-6.87,0c-0.144,-2.184 -2.216,-2.825 -5.108,-2.825Zm15.193,17.929l0,-16.32l5.918,0l0,16.32l-5.918,0Zm-0.06,-18.42l0,-3.599l6.039,0l0,3.6l-6.04,0l0.001,-0.001Zm14.934,4.223l0.168,0c1.482,-1.797 4.106,-2.54 6.553,-2.54c2.644,0 4.797,0.625 5.906,2.577c1.69,-1.852 4.373,-2.578 7.137,-2.578c3.73,0 6.69,1.92 6.69,6.207l0,10.53l-5.92,0l0,-9.04c0,-2.111 -1.294,-2.948 -3.277,-2.948c-1.787,0 -3.973,0.833 -3.973,3.819l0,8.17l-5.92,0l0,-9.042c0,-2.11 -1.294,-2.947 -3.275,-2.947c-1.79,0 -3.974,0.833 -3.974,3.819l0,8.17l-5.92,0l0,-16.32l5.805,0l0,2.123Zm40.096,1.826c-3.084,0 -4.763,1.663 -4.763,4.32c0,2.656 1.68,4.319 4.763,4.319c3.042,0 4.645,-1.51 4.645,-4.32c0,-2.81 -1.603,-4.32 -4.645,-4.32l0,0.001Zm-4.578,10.72l0,7.193l-5.92,0l0,-21.863l5.805,0l0,2.091l0.168,0c1.372,-1.562 3.483,-2.508 6.185,-2.508c5.523,0 9.143,3.074 9.143,8.686c0,5.612 -3.62,8.686 -9.143,8.686c-2.702,0 -4.722,-0.922 -6.07,-2.285l-0.168,0Zm17.882,1.65l0,-21.897l5.92,0l0,21.897l-5.92,0Zm19.188,-13.044c-2.427,0 -3.918,0.855 -4.446,2.698l8.893,0c-0.528,-1.843 -2.019,-2.698 -4.446,-2.698l-0.001,0Zm10.787,4.884c0,0.393 -0.031,1.049 -0.086,1.464l-15.298,0c0.327,2.344 1.878,3.421 4.635,3.421c3.077,0 3.896,-1.272 4.088,-1.788l6.431,0c-0.224,2.746 -2.445,5.698 -10.519,5.698c-7.188,0 -10.822,-3.255 -10.822,-8.795c0,-5.539 3.634,-8.793 10.785,-8.793c7.15,0 10.784,3.254 10.784,8.793l0.002,0Zm16.818,1.824l6.521,0c-0.489,4.019 -3.266,6.97 -10.875,6.97c-7.02,0 -10.655,-3.254 -10.655,-8.788c0,-5.552 3.634,-8.8 10.655,-8.8c7.609,0 10.326,2.946 10.837,6.88l-6.512,0c-0.212,-1.174 -1.21,-2.514 -4.325,-2.514c-2.923,0 -4.494,1.642 -4.494,4.434c0,2.781 1.571,4.422 4.494,4.422c3.116,0 4.142,-1.34 4.354,-2.604Zm22.472,-1.405c-0.355,0.242 -1.035,0.357 -1.613,0.44l-4.33,0.656c-1.322,0.205 -2.145,0.683 -2.145,1.886c0,1.312 1.101,1.755 2.654,1.755c2.15,0 5.434,-1.047 5.434,-4.097l0,-0.64Zm6.372,7.56l0,0.181l-5.806,0c-0.27,-0.272 -0.452,-0.92 -0.452,-1.678l0,-0.573c-1.61,1.972 -4.372,2.886 -7.5,2.886c-3.43,0 -6.86,-1.586 -6.86,-5.358c0,-3.615 2.154,-4.898 5.364,-5.218l6.891,-0.689c1.183,-0.128 1.75,-0.414 1.75,-1.185c0,-0.784 -0.942,-1.325 -3.257,-1.325c-1.75,0 -3.217,0.499 -3.337,1.708l-6.262,0c0.162,-4.213 4.497,-5.522 9.546,-5.522c5.53,0 9.47,1.067 9.47,5.139l0,9.184c0,0.938 0.03,1.936 0.453,2.45Zm15.45,-11.305c-0.12,-1.343 -1.698,-1.77 -3.897,-1.77c-2.206,0 -3.119,0.541 -3.119,1.277c0,0.723 0.447,0.992 1.843,1.156l5.966,0.672c4.013,0.446 6.088,1.564 6.088,5.229c0,4.38 -3.77,5.556 -10.349,5.556c-5.967,0 -10.197,-1.079 -10.388,-5.875l6.44,0c0.12,1.618 1.438,2.099 4.073,2.099c2.812,0 3.695,-0.602 3.695,-1.473c0,-0.833 -0.562,-1.108 -1.965,-1.302l-5.54,-0.725c-3.892,-0.501 -6.183,-1.553 -6.183,-4.98c0,-4.136 4.097,-5.332 9.512,-5.332c5.582,0 9.911,1.309 10.074,5.469l-6.25,0l0,-0.001Zm18.14,6.985c0.58,0 1.51,-0.018 2.293,-0.098l0,4.6c-0.71,0.104 -2.304,0.272 -3.655,0.272c-4.974,0 -6.552,-1.33 -6.552,-5.062l0,-7.863l-2.75,0l0,-3.667l2.75,0l0,-4.435l5.919,0l0,4.434l4.302,0l0,3.667l-4.302,0l0,6.739c0,1.105 0.741,1.414 1.996,1.414l-0.001,-0.001Zm-277.532,21.187l53.453,0l0,-52.999l-53.453,0l0,52.999Zm3.563,-3.533l46.328,0l0,-45.934l-46.328,0l0,45.934Z" style="fill:#fff;"/><path d="M10.69,10.6l0,31.8l32.074,0l-32.074,-31.8Zm29.553,22.486l-20.157,-19.988l2.518,-2.498l20.16,19.988l-2.521,2.498Zm0,-9.994l-10.08,-9.994l2.522,-2.498l10.078,9.994l-2.52,2.498Z" style="fill:#fff;"/></g></svg>