<?xml version="1.0" encoding="UTF-8" standalone="no"?><!DOCTYPE svg PUBLIC "-//W3C//DTD SVG 1.1//EN" "http://www.w3.org/Graphics/SVG/1.1/DTD/svg11.dtd"><svg width="100%" height="100%" viewBox="0 0 2400 1950" version="1.1" xmlns="http://www.w3.org/2000/svg" xmlns:xlink="http://www.w3.org/1999/xlink" xml:space="preserve" xmlns:serif="http://www.serif.com/" style="fill-rule:evenodd;clip-rule:evenodd;stroke-linejoin:round;stroke-miterlimit:2;"><g opacity="0.4"><path d="M834.88,320.59l3.738,0.656c11.424,-20.85 32.154,-37.042 32.052,-63.706c-8.99,-2.511 -17.418,-3.771 -21.394,6.096c-4.444,10.99 -8.36,22.254 -11.416,33.696c-2.001,7.483 -2.06,15.494 -2.98,23.258m108.588,-32.844c-9.748,11.424 -19.496,22.849 -29.235,34.283c-7.032,8.258 -13.187,9.118 -19.632,0.366c-7.934,-10.778 -14.064,-22.876 -21.521,-35.322c-18.108,16.363 -23.336,46.832 -48.765,58.691c-1.558,-0.502 -3.116,-0.996 -4.682,-1.498c-0.06,-8.82 -1.337,-17.853 0.085,-26.434c2.503,-15.146 4.759,-30.827 10.744,-44.729c4.384,-10.165 13.008,-20.56 22.518,-25.992c13.766,-7.849 30.265,-9.731 46.159,-9.186c-2.426,6.981 -7.024,13.281 -5.9,18.296c3.508,15.775 8.939,31.141 14.43,46.38c0.443,1.218 8.207,1.737 10.557,-0.051c5.832,-4.427 10.276,-10.641 15.758,-15.605c2.043,-1.847 5.449,-2.196 8.233,-3.226c0.417,1.345 0.834,2.69 1.251,4.027" style="fill:#fff;fill-rule:nonzero;"/><path d="M743.013,372.888c1.174,0.289 2.358,0.578 3.533,0.868c6.376,-8.956 13.51,-17.486 18.925,-26.987c5.389,-9.476 9.424,-19.794 13.11,-30.078c0.63,-1.728 -3.013,-6.641 -5.601,-7.568c-7.492,-2.691 -12.805,0.902 -15.605,8.147c-3.099,7.977 -6.854,15.809 -8.905,24.05c-2.571,10.335 -3.704,21.028 -5.457,31.568m108.945,-32.564c-9.748,11.433 -19.496,22.875 -29.252,34.3c-6.989,8.173 -13.281,9.041 -19.691,0.366c-7.943,-10.735 -14.056,-22.832 -21.403,-35.1c-18.44,16.09 -23.369,46.764 -48.756,58.572c-1.609,-0.562 -3.218,-1.116 -4.827,-1.677c-0.026,-8.846 -1.243,-17.896 0.196,-26.494c2.554,-15.137 4.921,-30.767 10.837,-44.729c4.189,-9.893 12.481,-20.73 21.803,-25.174c14.115,-6.734 30.716,-8.292 46.721,-10.744c-13.859,23.803 -1.421,43.307 6.615,63.067c3.406,8.369 8.684,7.858 14.32,1.371c4.376,-5.04 8.964,-9.953 13.945,-14.379c2.094,-1.856 5.44,-2.308 8.215,-3.397c0.426,1.345 0.851,2.681 1.277,4.018" style="fill:#fff;fill-rule:nonzero;"/><path d="M748.776,229.889c-7.994,16.992 -15.826,33.653 -25.412,54.051c17.29,0.111 31.474,0.204 45.648,0.298c0.145,2.001 0.29,4.001 0.426,6.002c-11.527,2.384 -22.969,5.849 -34.615,6.836c-10.395,0.877 -13.741,5.713 -14.984,15.12c-4.061,30.852 -6.589,62.13 -13.74,92.285c-6.598,27.855 -20.884,52.851 -46.143,69.264c-2.239,1.456 -5.882,0.749 -11.535,1.32c2.843,-3.84 3.456,-5.244 4.52,-6.011c27.643,-19.759 38.464,-48.372 43.274,-80.527c4.622,-30.98 10.096,-61.833 15.332,-93.52c-10.897,-1.021 -21.241,-3.022 -25.693,-13.868c8.956,-17.571 19.3,0.792 29.414,-1.524c2.741,-10.088 6.01,-20.193 8.181,-30.537c3.388,-16.056 31.491,-36.803 47.504,-33.177c3.746,0.843 7.194,7.271 8.565,11.791c0.443,1.465 -6.24,7.279 -9.603,7.211c-6.598,-0.111 -13.153,-2.937 -21.139,-5.014" style="fill:#fff;fill-rule:nonzero;"/><path d="M949.836,148.135c-0.392,5.423 0.63,9.773 -1.03,11.433c-12.115,12.055 -10.633,28.818 -15.477,43.291c-4.104,12.285 -7.458,25.021 -9.186,37.816c-1.167,8.675 1.047,17.802 1.949,29.244c13.358,-7.194 24.28,-13.077 35.211,-18.96c0.962,0.792 1.916,1.584 2.878,2.376c-2.341,3.166 -4.035,7.347 -7.134,9.322c-14.328,9.134 -29.048,17.648 -43.418,26.263c-11.987,-8.496 -13.06,-13.127 -9.288,-25.914c5.329,-18.023 10.139,-36.225 14.396,-54.528c3.243,-13.928 -0.715,-19.47 -16.082,-23.097c13.145,-15.196 26.97,-27.771 47.181,-37.246" style="fill:#fff;fill-rule:nonzero;"/><path d="M874.442,382.005c31.014,5.585 53.447,-1.694 58.955,-19.044c-20.926,6.76 -39.936,12.898 -58.955,19.044m43.12,-20.1c-19.981,-21.326 -19.768,-22.168 6.385,-34.223c10.003,-4.623 19.921,-9.425 29.873,-14.141c0.63,1.158 1.26,2.307 1.89,3.465c-6.717,3.38 -13.587,6.479 -20.091,10.224c-3.933,2.274 -7.296,5.534 -10.914,8.352c3.55,3.465 6.546,8.011 10.76,10.165c8.003,4.103 16.414,10.557 27.064,-0.732c-16.269,36.624 -87.483,65.025 -114.751,44.746c12.77,-5.67 23.752,-10.923 35.049,-15.426c11.221,-4.47 22.748,-8.173 34.735,-12.43" style="fill:#fff;fill-rule:nonzero;"/><path d="M847.318,427.33c-0.57,-1.813 -1.141,-3.626 -1.72,-5.431c-19.095,6.181 -38.207,12.361 -57.311,18.542c0.374,1.2 0.749,2.401 1.123,3.61c20.22,-2.461 42.388,1.583 57.908,-16.721m-84.699,22.254c20.926,-16.354 46.696,-18.78 68.566,-30.043c-19.802,-20.305 -19.257,-22.126 7.765,-33.739c10.045,-4.316 19.716,-9.492 29.558,-14.277c0.587,1.014 1.175,2.035 1.754,3.057c-10.625,5.67 -21.258,11.34 -31.789,16.958c5.712,14.405 19.036,19.615 37.314,15.358c-25.43,37.272 -84.061,60.607 -113.168,42.686" style="fill:#fff;fill-rule:nonzero;"/><path d="M667.942,494.85c10.105,-5.381 19.861,-11.578 30.367,-15.997c30.027,-12.616 61.577,-15.724 93.868,-13.808c8.505,0.51 18.091,2.051 25.396,-1.065c9.33,-3.975 16.95,-12.08 25.114,-18.661c4.963,-3.993 9.56,-8.454 14.319,-12.702c0.767,0.741 1.524,1.49 2.29,2.239c-7.304,8.675 -14.6,17.342 -21.904,26.017c0.604,1.022 1.217,2.043 1.821,3.065c14.082,-3.823 28.478,-6.836 42.073,-11.944c4.547,-1.712 7.092,-8.795 10.497,-13.46c4.163,-5.695 8.556,-10.352 17.623,-3.993c-4.35,4.853 -7.611,9.876 -12.114,13.247c-16.908,12.668 -35.092,22.16 -57.142,22.543c-3.959,0.069 -8.403,4.368 -11.595,7.697c-4.053,4.231 -7.058,9.466 -10.514,14.276c-1.652,-0.868 -3.312,-1.736 -4.964,-2.605c1.856,-5.797 3.712,-11.595 5.543,-17.324c-25.225,0.8 -51.2,1.14 -77.114,2.588c-25.762,1.447 -49.633,9.969 -71.904,23.258c-0.553,-1.124 -1.107,-2.247 -1.66,-3.371" style="fill:#fff;fill-rule:nonzero;"/><path d="M961.04,328.874c29.175,3.362 57.916,-2.478 87.381,-5.849c-14.924,8.939 -29.848,17.878 -45.496,27.26c-0.025,-4.674 1.124,-9.876 -0.289,-10.71c-3.15,-1.856 -7.671,-2.341 -11.476,-1.941c-15.043,1.592 -30.001,3.958 -45.053,5.482c-2.733,0.281 -6.351,-1.396 -8.326,-3.396c-0.877,-0.886 0.502,-5.994 2.222,-7.169c14.762,-10.037 29.822,-19.632 44.84,-29.269c0.741,-0.476 2.035,-0.102 6.189,-0.187c-11.621,8.241 -21.019,14.915 -30.427,21.598c0.145,1.388 0.29,2.784 0.435,4.181" style="fill:#fff;fill-rule:nonzero;"/></g><g><path d="M1040.25,607.904c0.24,0.27 0.498,0.531 0.786,0.762c0.006,0.369 0.003,0.741 0.006,1.113c-0.456,-0.588 -0.729,-1.212 -0.792,-1.875" style="fill:#fff;fill-rule:nonzero;"/><path d="M661.973,962.843c-0.612,-0.147 -1.227,-0.285 -1.836,-0.438c-0.264,-0.567 -0.6,-1.086 -0.948,-1.59c1.068,0.363 1.992,1.053 2.784,2.028m-8.913,-65.25c10.596,7.833 16.404,20.217 18.453,32.976c1.536,9.564 -3.417,19.644 -11.277,25.542c0.573,-1.893 0.936,-3.831 1.176,-5.46c3.777,-3.927 7.302,-7.878 7.878,-14.709c1.05,-12.411 -6.369,-22.866 -15.06,-30.849c-0.009,-0.009 -0.027,0.009 -0.021,0.018c9.207,9.99 17.544,22.686 12.081,36.756c-0.999,2.574 -2.691,4.611 -4.608,6.483c0.879,-8.784 -0.054,-19.161 -3.789,-27.183c-0.165,-0.345 -0.687,-0.12 -0.549,0.237c3.183,7.971 4.62,19.581 2.115,28.995c-1.164,1.026 -2.334,2.049 -3.453,3.114c-0.069,-0.246 -0.159,-0.492 -0.237,-0.738c1.326,-4.335 1.461,-8.85 0.582,-14.484c-1.863,-12.009 -6.741,-23.064 -11.577,-34.11c-0.057,-0.129 -0.282,-0.075 -0.243,0.072c2.703,9.936 6.393,19.374 8.451,29.523c0.873,4.314 1.461,8.568 1.404,12.957c-2.637,-19.047 -11.523,-40.47 -30.018,-44.67c-0.042,-0.009 -0.06,0.063 -0.018,0.072c18.384,5.892 23.088,23.037 25.947,40.116c-3.624,-8.301 -9.651,-15.996 -15.795,-20.646c-0.243,-0.186 -0.489,0.171 -0.276,0.372c5.871,5.598 9.903,12.075 12.825,19.62c0.15,0.381 0.267,0.762 0.396,1.143c-6,-7.506 -14.01,-13.656 -21.39,-17.04c-0.06,-0.03 -0.099,0.063 -0.039,0.093c8.889,4.647 16.902,11.718 22.365,20.244c0.915,3.927 1.305,7.938 2.355,11.817c-0.126,0.225 -0.231,0.465 -0.351,0.696c-4.467,-6.627 -12.777,-10.68 -20.328,-12.342c-0.09,-0.021 -0.12,0.114 -0.042,0.147c4.518,1.911 8.994,3.867 13.002,6.747c2.778,2.001 4.782,4.383 6.441,7.074c-3.159,4.38 -9.282,6.996 -13.35,10.074c-0.198,0.153 0.039,0.444 0.237,0.303c3.537,-2.418 9.12,-4.644 12.666,-8.073c-0.126,0.606 -0.195,1.227 -0.153,1.857c-0.048,0.102 -0.096,0.201 -0.138,0.306c-0.183,0.417 -0.108,0.951 0.18,1.302c0.237,0.276 0.36,0.594 0.369,0.951c0.009,0.072 0.048,0.129 0.069,0.195c-5.922,6.147 -14.892,10.302 -21.573,14.436c-0.075,0.048 0,0.174 0.078,0.132c6.393,-3.45 14.397,-6.825 20.448,-11.841c-4.152,6.63 -8.574,12.981 -15.429,17.397c-0.357,0.228 0.009,0.846 0.378,0.636c8.604,-4.953 14.673,-13.221 19.863,-21.651c-0.084,1.311 -0.204,2.601 -0.342,3.87c-1.809,5.349 -5.049,10.236 -10.059,15.15c-8.007,7.863 -17.925,13.875 -27.099,20.253c-0.069,0.048 0.009,0.141 0.078,0.099c11.145,-6.858 27.435,-15.981 35.886,-28.179c-2.019,8.952 -6.141,16.812 -14.376,23.865c-0.132,0.108 0.021,0.294 0.156,0.201c10.407,-7.23 16.791,-18.693 17.982,-31.071c0.135,-0.357 0.249,-0.72 0.369,-1.08c0.003,0.153 0.021,0.3 0.021,0.45c-0.003,0.531 0.759,0.666 0.843,0.108c0.144,-0.954 0.222,-1.914 0.261,-2.868c1.284,3.246 2.238,6.729 2.805,10.377c-0.42,4.431 -1.449,8.838 -2.685,12.882c-3.351,10.974 -12.072,19.482 -19.659,27.66c-0.111,0.114 0.087,0.309 0.201,0.195c8.772,-8.886 17.28,-17.766 21.363,-29.82c0.48,-1.413 0.963,-3.054 1.404,-4.824c0.573,10.944 -1.674,22.38 -6.234,31.017c-0.063,0.117 0.129,0.225 0.201,0.114c6.717,-10.377 9.396,-25.662 7.437,-39.105c0.441,-4.503 0.222,-9.075 -1.341,-12.678c0.666,0.18 1.332,0.339 2.001,0.513c5.526,7.797 4.149,29.529 3.243,34.563c-0.024,0.132 0.174,0.153 0.204,0.024c1.956,-7.995 4.188,-25.548 -1.428,-34.074c23.673,5.829 48.174,7.269 72.513,5.775c14.625,-0.9 29.052,-3.285 43.32,-6.558c11.937,-2.736 25.371,-6 36.195,-11.787c2.787,-1.488 0.972,-5.925 -1.98,-4.566c-11.544,5.307 -22.197,10.551 -34.545,14.001c-13.224,3.693 -26.967,5.685 -40.611,6.969c-24.942,2.349 -50.733,1.32 -75.24,-4.347c-1.131,-1.554 -2.559,-2.751 -4.326,-3.492c7.776,-4.953 14.655,-14.646 14.298,-22.968c-0.66,-15.33 -7.578,-31.023 -20.73,-39.501c-0.153,-0.099 -0.321,0.117 -0.171,0.225" style="fill:#fff;fill-rule:nonzero;"/><path d="M433.205,1078.6c-0.54,-0.321 -1.083,-0.636 -1.62,-0.966c-0.084,-0.615 -0.246,-1.215 -0.435,-1.797c0.915,0.663 1.59,1.596 2.055,2.763m-41.613,-94.833c9.354,3.195 16.32,10.725 20.685,19.383c3.27,6.486 2.019,14.82 -2.259,20.823c-0.021,-1.488 -0.201,-2.952 -0.399,-4.17c1.806,-3.666 3.429,-7.296 2.289,-12.309c-2.067,-9.111 -9.747,-14.898 -17.775,-18.63c-0.009,-0.006 -0.018,0.012 -0.009,0.018c8.85,5.046 17.694,12.231 16.986,23.529c-0.129,2.067 -0.876,3.909 -1.821,5.682c-1.368,-6.48 -4.392,-13.686 -8.889,-18.57c-0.192,-0.21 -0.516,0.072 -0.336,0.291c4.086,4.977 7.752,12.948 8.1,20.25c-0.6,0.999 -1.203,1.995 -1.761,3.009c-0.105,-0.159 -0.225,-0.315 -0.336,-0.471c-0.039,-3.402 -0.966,-6.66 -2.874,-10.491c-4.062,-8.16 -10.062,-14.952 -16.026,-21.753c-0.072,-0.078 -0.219,0.012 -0.159,0.108c4.191,6.489 8.973,12.399 12.75,19.185c1.602,2.886 2.991,5.793 3.948,8.943c-6.213,-13.014 -17.436,-26.313 -31.608,-25.113c-0.033,0.003 -0.03,0.057 0,0.057c14.481,0.033 21.741,11.223 27.666,22.782c-4.476,-5.109 -10.533,-9.24 -15.981,-11.172c-0.219,-0.075 -0.312,0.234 -0.117,0.33c5.469,2.67 9.825,6.384 13.629,11.112c0.192,0.237 0.363,0.483 0.543,0.729c-5.997,-4.005 -13.122,-6.579 -19.164,-7.323c-0.048,-0.009 -0.054,0.066 -0.006,0.075c7.41,1.302 14.745,4.536 20.586,9.39c1.545,2.601 2.736,5.379 4.368,7.914c-0.036,0.189 -0.057,0.384 -0.093,0.576c-4.698,-3.723 -11.559,-4.731 -17.334,-4.203c-0.069,0.003 -0.06,0.108 0.003,0.114c3.663,0.339 7.308,0.72 10.827,1.869c2.442,0.798 4.413,2.049 6.213,3.594c-1.263,3.849 -5.049,7.11 -7.257,10.236c-0.105,0.153 0.129,0.309 0.24,0.162c1.98,-2.532 5.466,-5.394 7.221,-8.649c0.045,0.462 0.138,0.921 0.312,1.362c-0.012,0.084 -0.024,0.165 -0.03,0.249c-0.036,0.342 0.141,0.705 0.426,0.891c0.234,0.144 0.39,0.342 0.48,0.597c0.021,0.048 0.063,0.078 0.093,0.123c-2.838,5.739 -8.307,10.746 -12.144,15.222c-0.042,0.051 0.039,0.123 0.087,0.075c3.786,-3.918 8.742,-8.151 11.928,-13.11c-1.461,5.682 -3.18,11.229 -7.077,15.942c-0.204,0.243 0.201,0.603 0.414,0.369c5.025,-5.496 7.485,-12.786 9.282,-19.992c0.237,0.96 0.444,1.905 0.633,2.847c-0.078,4.233 -1.284,8.463 -3.747,13.113c-3.942,7.44 -9.666,13.992 -14.772,20.637c-0.039,0.051 0.039,0.099 0.078,0.054c6.408,-7.437 15.981,-17.658 19.251,-28.299c0.591,6.855 -0.57,13.413 -4.857,20.325c-0.066,0.108 0.084,0.21 0.159,0.111c5.799,-7.533 7.758,-17.181 5.796,-26.298c0.018,-0.285 0.015,-0.57 0.018,-0.855c0.036,0.108 0.084,0.207 0.117,0.315c0.12,0.381 0.696,0.306 0.627,-0.114c-0.111,-0.714 -0.276,-1.416 -0.465,-2.109c1.656,2.028 3.132,4.299 4.365,6.78c0.705,3.264 0.972,6.648 1.008,9.819c0.096,8.607 -4.206,16.671 -7.77,24.24c-0.054,0.108 0.132,0.201 0.186,0.096c4.254,-8.349 8.319,-16.629 8.499,-26.175c0.021,-1.116 -0.006,-2.4 -0.093,-3.765c2.895,7.695 3.888,16.377 2.589,23.589c-0.018,0.099 0.144,0.132 0.171,0.036c2.442,-8.943 0.888,-20.478 -3.567,-29.643c-0.708,-3.321 -1.905,-6.54 -3.843,-8.757c0.519,-0.027 1.032,-0.063 1.551,-0.093c5.721,4.32 9.672,20.169 10.17,23.973c0.012,0.099 0.159,0.069 0.153,-0.03c-0.42,-6.159 -2.814,-19.215 -8.766,-24.033c18.249,-1.212 36.093,-5.751 53.151,-12.348c10.251,-3.966 20.022,-8.949 29.481,-14.529c7.911,-4.668 16.773,-10.053 23.196,-16.65c1.653,-1.698 -0.648,-4.455 -2.451,-2.814c-7.047,6.414 -13.47,12.588 -21.516,17.856c-8.616,5.643 -17.988,10.191 -27.45,14.211c-17.298,7.347 -35.967,12.471 -54.774,13.986c-1.161,-0.852 -2.457,-1.383 -3.888,-1.512c4.434,-5.31 7.152,-13.8 5.007,-19.668c-3.957,-10.809 -12.468,-20.46 -23.796,-23.532c-0.132,-0.036 -0.201,0.156 -0.072,0.201" style="fill:#fff;fill-rule:nonzero;"/><path d="M1199.32,389.831c0.444,0.159 0.9,0.297 1.377,0.381c0.237,0.42 0.465,0.846 0.702,1.272c-0.888,-0.39 -1.59,-0.933 -2.079,-1.653m-195.669,250.323c9.003,8.031 22.086,9.948 33.621,7.293c6.252,-1.446 12.045,-8.55 14.13,-15.345c0.909,1.158 2.097,1.977 3.48,2.496c9.246,17.049 15.312,36.006 18.687,55.026c1.851,10.407 3.189,21.027 3.165,31.617c-0.03,9.885 -1.74,18.879 -3.312,28.548c-0.405,2.475 3.267,2.91 3.801,0.537c2.076,-9.237 1.743,-19.893 1.326,-29.322c-0.501,-11.28 -1.692,-22.491 -4.023,-33.546c-3.891,-18.396 -9.996,-36.309 -19.191,-52.707c7.491,2.421 20.079,-2.838 25.62,-5.937c0.087,-0.051 0.03,-0.192 -0.06,-0.144c-3.558,1.704 -19.425,7.194 -26.355,4.689c-0.267,-0.462 -0.522,-0.927 -0.792,-1.386c3,0.426 6.444,-0.351 9.699,-1.602c10.392,-1.308 21.201,-6.438 27.531,-13.566c0.072,-0.072 -0.048,-0.192 -0.12,-0.12c-5.484,5.16 -13.524,9.18 -21.777,11.001c1.23,-0.69 2.349,-1.386 3.3,-2.034c8.118,-5.508 12.972,-13.656 17.775,-22.002c0.06,-0.105 -0.12,-0.213 -0.186,-0.111c-4.518,7.323 -9.051,15.549 -16.521,20.295c-2.751,1.746 -5.814,3.417 -9.021,4.641c-2.829,0.327 -5.616,0.333 -8.292,0.042c0.708,-0.219 1.401,-0.477 2.085,-0.78c0.393,-0.174 0.141,-0.714 -0.255,-0.6c-0.114,0.027 -0.228,0.045 -0.339,0.072c0.243,-0.165 0.489,-0.318 0.726,-0.495c8.955,-3.429 16.161,-10.527 19.398,-19.746c0.042,-0.12 -0.129,-0.192 -0.183,-0.078c-3.549,7.572 -8.544,12.252 -14.781,15.591c7.326,-8.79 10.761,-22.77 13.572,-32.46c0.015,-0.063 -0.072,-0.102 -0.09,-0.036c-2.859,8.127 -5.289,16.731 -9.486,24.3c-2.628,4.728 -5.589,8.142 -9.192,10.587c-0.921,0.36 -1.854,0.714 -2.808,1.05c5.196,-5.589 10.095,-11.802 12.009,-19.209c0.081,-0.318 -0.453,-0.465 -0.549,-0.153c-1.872,6.003 -5.688,10.593 -9.762,15.039c2.487,-5.523 3.351,-12.168 4.602,-17.628c0.015,-0.066 -0.093,-0.096 -0.117,-0.033c-1.698,5.817 -2.943,13.335 -6.294,19.002c-0.057,0 -0.105,-0.021 -0.159,-0.012c-0.267,0.063 -0.531,0.039 -0.786,-0.081c-0.318,-0.141 -0.729,-0.084 -1.005,0.132c-0.063,0.06 -0.129,0.117 -0.198,0.168c-0.477,0.102 -0.921,0.279 -1.344,0.498c1.815,-3.342 2.328,-7.947 3.399,-11.073c0.06,-0.18 -0.207,-0.294 -0.279,-0.114c-1.452,3.657 -2.139,8.742 -4.746,11.988c-2.34,-0.678 -4.518,-1.677 -6.579,-3.333c-2.958,-2.382 -5.334,-5.31 -7.68,-8.274c-0.045,-0.054 -0.138,-0.006 -0.102,0.06c2.787,5.274 7.503,10.611 13.347,12.573c-0.147,0.135 -0.306,0.264 -0.447,0.402c-3.096,0.018 -6.162,0.549 -9.264,0.681c-7.461,-2.31 -14.361,-6.816 -19.641,-12.465c-0.036,-0.039 -0.096,0.009 -0.063,0.045c4.032,4.791 10.248,9.48 17.058,12.399c-0.306,-0.015 -0.615,-0.024 -0.927,-0.057c-6.213,-0.627 -11.85,-2.292 -17.217,-5.508c-0.195,-0.111 -0.408,0.141 -0.219,0.285c4.716,3.612 11.673,6.51 18.588,7.5c-13.281,1.383 -26.991,1.407 -35.145,-11.046c-0.018,-0.03 -0.066,0 -0.054,0.027c6.921,12.882 24.675,15.09 39.366,13.137c-3.249,0.939 -6.528,1.38 -9.918,1.617c-7.959,0.558 -15.735,-0.246 -23.676,-0.219c-0.117,0.003 -0.111,0.183 -0.003,0.201c9.204,1.323 18.42,2.676 27.729,1.596c4.368,-0.507 7.695,-1.533 10.644,-3.411c0.198,0.009 0.402,0.024 0.597,0.027c-0.561,1.05 -1.08,2.13 -1.605,3.201c-6.48,3.801 -15.408,5.112 -21.984,4.389c-0.291,-0.033 -0.351,0.405 -0.06,0.456c6.729,1.128 14.631,-0.312 20.979,-2.769c-0.996,1.812 -2.166,3.489 -3.873,4.758c-9.336,6.948 -20.481,3.36 -29.799,-1.428c-0.006,-0.003 -0.018,0.012 -0.006,0.021c7.719,4.818 17.013,8.184 26.016,4.854c4.956,-1.836 7.17,-5.268 9.315,-8.88c1.164,-0.51 2.526,-1.179 3.819,-1.992c-2.769,7.05 -9.246,12.804 -16.671,13.626c-9.9,1.098 -20.295,-0.678 -28.296,-6.942c-0.114,-0.087 -0.234,0.084 -0.132,0.177" style="fill:#fff;fill-opacity:0.61;fill-rule:nonzero;"/><path d="M1394.48,894.437c0.054,-0.666 0.087,-1.311 0.156,-1.83c0.477,-3.654 1.632,-7.626 1.743,-11.262c0.219,-7.059 3.855,-16.569 -3.081,-21.531c-0.036,-0.024 -0.078,0.027 -0.045,0.057c5.502,4.944 3.099,15.963 1.422,22.44c-0.534,2.073 -0.837,4.218 -1.146,6.342c-1.542,-10.392 -3.939,-20.337 -11.745,-28.503c-0.078,-0.078 -0.195,0.036 -0.123,0.12c7.614,8.952 9.489,19.911 10.398,31.092c-3.651,-12.354 -13.992,-22.167 -24.009,-29.892c-0.174,-0.132 -0.411,0.162 -0.24,0.306c10.368,8.598 17.778,17.505 21.684,29.334c-7.818,-8.367 -18.678,-15.567 -28.278,-18.72c-0.183,-0.06 -0.255,0.216 -0.081,0.279c11.379,4.281 21.999,13.29 29.313,23.418c-0.021,0.006 -0.042,0.015 -0.06,0.024c-1.167,-0.252 -2.244,-0.174 -3.165,0.372c-4.137,-3.396 -8.922,-6.249 -13.233,-8.985c-8.532,-5.418 -17.511,-10.152 -26.508,-14.745c-0.138,-0.069 -0.264,0.135 -0.126,0.207c7.41,3.969 14.739,8.07 21.87,12.522c4.29,2.679 8.22,5.67 12.072,8.772c-10.401,-4.485 -21.717,-6.234 -32.961,-8.286c-0.138,-0.027 -0.198,0.18 -0.06,0.21c11.961,2.577 23.646,4.944 34.455,10.371c-4.701,-0.237 -10.077,0.192 -10.86,0.234c-10.629,0.585 -25.251,0.924 -34.356,7.17c-0.114,0.078 -0.018,0.267 0.105,0.192c7.647,-4.545 19.17,-4.698 27.741,-5.448c2.091,-0.183 14.034,-1.692 20.007,-0.753c0.426,0.24 0.858,0.471 1.281,0.723c-0.012,0.09 -0.015,0.177 0,0.267c-13.341,-1.521 -27.225,12.753 -38.862,16.662c-0.204,0.072 -0.129,0.399 0.084,0.33c11.121,-3.33 25.833,-17.172 38.418,-15.222c0.066,0.069 0.132,0.135 0.198,0.204c-15.801,9.084 -27.6,24.147 -35.85,40.152c-0.057,0.111 0.102,0.207 0.168,0.099c8.946,-15.165 20.586,-28.989 35.844,-37.959c-1.674,16.776 1.521,35.676 -11.454,48.651c-0.135,0.135 0.057,0.324 0.204,0.21c12.51,-9.867 13.236,-31.059 13.617,-47.181c2.838,14.742 2.799,33.114 -2.259,46.683c-0.039,0.105 0.135,0.18 0.18,0.078c5.583,-13.014 4.824,-26.952 4.068,-40.749c1.605,4.974 3.186,9.975 4.032,15.249c1.638,10.203 2.964,25.11 -5.163,33.045c-0.204,0.198 0.09,0.489 0.306,0.312c8.379,-6.837 7.701,-19.926 6.837,-29.607c-0.561,-6.276 -1.452,-14.694 -3.735,-22.005c3.249,3.264 6.492,6.531 9.534,10.008c6.006,6.87 14.703,17.055 13.071,26.955c-0.051,0.285 0.354,0.414 0.441,0.126c2.424,-7.998 -3.204,-16.347 -7.839,-22.404c-4.083,-5.337 -8.598,-10.341 -13.284,-15.174c0.111,-0.126 0.207,-0.264 0.273,-0.423c0.408,-1.017 1.737,-2.163 1.452,-3.348c-0.09,-0.366 -0.39,-0.702 -0.765,-0.795c-0.234,-0.054 -0.447,-0.051 -0.654,-0.015c-0.021,-0.123 -0.036,-0.243 -0.054,-0.366c0.591,-0.066 1.125,-0.492 1.248,-1.068c5.616,4.479 10.845,11.811 13.758,15.378c6.432,7.884 15.15,18.186 17.625,28.374c0.036,0.156 0.261,0.096 0.234,-0.057c-1.95,-11.805 -11.712,-22.95 -19.077,-31.875c-1.587,-1.917 -6.798,-8.673 -12.081,-13.134c10.953,1.656 22.827,7.917 29.643,14.997c0.294,0.309 0.744,-0.138 0.471,-0.456c-5.286,-6.138 -13.383,-10.191 -20.727,-13.272c-1.923,-0.807 -4.641,-2.052 -7.53,-3.036c11.811,-2.121 25.545,2.439 35.79,6.912c0.198,0.081 0.372,-0.192 0.174,-0.294c-12.231,-6.447 -25.311,-9.162 -38.745,-7.464c-0.522,-0.132 -1.044,-0.255 -1.56,-0.354c-0.015,-0.12 -0.033,-0.24 -0.048,-0.36c10.668,-5.508 22.422,-9.378 34.491,-8.712c0.126,0.009 0.15,-0.183 0.033,-0.21c-11.541,-3.102 -23.742,2.076 -34.677,6.618" style="fill:#fff;fill-rule:nonzero;"/><path d="M1384.25,906.431c-8.079,16.956 -15.486,34.407 -18.072,53.145c-2.4,17.382 0.417,40.23 13.071,53.508c1.266,1.326 3.294,-0.285 2.523,-1.857c-4.128,-8.406 -9.285,-15.471 -11.988,-24.648c-2.586,-8.772 -3.006,-17.913 -2.244,-26.979c1.563,-18.519 9.234,-36.381 16.773,-53.133c0.021,-0.039 -0.042,-0.078 -0.063,-0.036" style="fill:#fff;fill-rule:nonzero;"/><path d="M964.442,795.455c-0.429,-0.159 -0.849,-0.303 -1.179,-0.444c-2.325,-1.002 -4.731,-2.508 -7.113,-3.264c-4.623,-1.47 -10.224,-5.655 -14.802,-2.004c-0.021,0.021 0.003,0.057 0.03,0.042c4.296,-2.706 11.127,0.945 15.093,3.267c1.266,0.744 2.628,1.347 3.972,1.947c-7.155,-0.93 -14.175,-1.212 -21.033,2.415c-0.066,0.036 -0.012,0.135 0.057,0.102c7.341,-3.348 14.931,-2.532 22.488,-1.038c-8.844,0.096 -17.265,5.088 -24.246,10.26c-0.12,0.087 0.03,0.297 0.153,0.213c7.626,-5.238 14.901,-8.463 23.448,-8.823c-6.993,3.594 -13.785,9.417 -17.67,15.171c-0.075,0.111 0.096,0.207 0.171,0.105c4.962,-6.717 12.903,-12.042 20.967,-14.976c0,0.015 0,0.03 0.003,0.042c-0.384,0.726 -0.537,1.452 -0.348,2.163c-3.018,2.097 -5.802,4.722 -8.415,7.059c-5.181,4.62 -9.99,9.663 -14.712,14.748c-0.075,0.078 0.039,0.198 0.114,0.12c4.011,-4.149 8.094,-8.223 12.372,-12.099c2.571,-2.331 5.286,-4.368 8.058,-6.33c-4.914,6.03 -8.19,13.176 -11.655,20.223c-0.042,0.084 0.081,0.162 0.129,0.075c3.942,-7.416 7.698,-14.691 13.311,-20.817c-1.038,3.063 -1.764,6.693 -1.881,7.218c-1.605,7.134 -4.125,16.857 -1.704,24.045c0.027,0.087 0.171,0.06 0.147,-0.036c-1.569,-5.904 0.489,-13.545 1.599,-19.347c0.27,-1.416 1.515,-9.588 3.255,-13.359c0.237,-0.237 0.474,-0.477 0.717,-0.711c0.057,0.024 0.117,0.042 0.177,0.051c-3.507,8.529 3.321,20.376 3.723,28.797c0.009,0.15 0.237,0.159 0.234,0.009c-0.117,-7.974 -6.501,-20.289 -2.853,-28.239c0.057,-0.027 0.114,-0.06 0.171,-0.09c3.036,12.141 10.779,22.761 19.803,31.212c0.063,0.057 0.156,-0.03 0.099,-0.09c-8.343,-8.757 -15.294,-19.038 -18.357,-30.801c10.767,4.251 23.853,5.685 29.991,16.689c0.066,0.117 0.225,0.024 0.177,-0.093c-4.173,-10.116 -18.036,-14.568 -28.614,-17.844c10.272,0.891 22.401,4.359 30.417,10.245c0.063,0.045 0.144,-0.054 0.084,-0.102c-7.551,-6.129 -16.902,-8.241 -26.157,-10.332c3.588,-0.126 7.188,-0.231 10.83,0.198c7.047,0.831 17.145,2.748 20.862,9.606c0.093,0.174 0.342,0.033 0.264,-0.141c-2.946,-6.822 -11.718,-8.826 -18.276,-10.071c-4.254,-0.807 -9.981,-1.794 -15.24,-1.656c2.766,-1.536 5.532,-3.066 8.4,-4.422c5.667,-2.682 14.025,-6.516 20.256,-3.582c0.183,0.084 0.345,-0.159 0.168,-0.27c-4.83,-3.102 -11.4,-0.948 -16.272,0.978c-4.29,1.698 -8.442,3.741 -12.513,5.931c-0.063,-0.096 -0.135,-0.186 -0.231,-0.258c-0.594,-0.459 -1.101,-1.557 -1.935,-1.587c-0.261,-0.012 -0.54,0.126 -0.672,0.357c-0.078,0.141 -0.117,0.285 -0.135,0.429c-0.084,-0.012 -0.165,-0.024 -0.249,-0.033c0.066,-0.405 -0.114,-0.834 -0.471,-1.026c4.011,-2.871 9.837,-4.95 12.738,-6.204c6.417,-2.772 14.856,-6.6 22.05,-6.324c0.111,0.003 0.111,-0.156 0.009,-0.165c-8.166,-0.927 -17.361,3.432 -24.639,6.627c-1.563,0.687 -6.999,2.862 -10.941,5.517c3.15,-6.924 9.51,-13.596 15.468,-16.773c0.258,-0.135 0.048,-0.516 -0.213,-0.396c-5.049,2.343 -9.243,6.93 -12.657,11.205c-0.894,1.119 -2.226,2.682 -3.417,4.404c0.816,-8.196 6.402,-16.416 11.277,-22.35c0.093,-0.111 -0.057,-0.279 -0.162,-0.168c-6.552,6.873 -10.797,15.006 -12.195,24.198c-0.186,0.321 -0.363,0.642 -0.528,0.966c-0.081,-0.012 -0.162,-0.027 -0.246,-0.036c-1.638,-8.082 -1.989,-16.572 0.711,-24.423c0.033,-0.081 -0.09,-0.132 -0.132,-0.057c-4.212,7.041 -3.078,16.071 -2.13,24.147" style="fill:#fff;fill-rule:nonzero;"/><path d="M970.448,804.464c9.687,8.517 19.827,16.686 31.722,21.906c11.034,4.845 26.658,7.269 37.8,1.395c1.116,-0.585 0.432,-2.229 -0.753,-2.01c-6.327,1.149 -11.961,3.228 -18.531,3.294c-6.282,0.063 -12.399,-1.371 -18.246,-3.576c-11.943,-4.506 -22.302,-12.921 -31.956,-21.042c-0.024,-0.021 -0.06,0.012 -0.036,0.033" style="fill:#fff;fill-rule:nonzero;"/><path d="M1846.49,789.461c-0.342,0.678 -0.894,1.704 -1.647,3.054c-0.762,1.344 -1.737,3.06 -2.862,5.106c-1.212,2.076 -2.604,4.464 -4.152,7.128c-1.614,2.682 -3.435,5.673 -5.436,8.895c-2.028,3.207 -4.266,6.645 -6.624,10.239c-4.74,7.17 -10.284,14.826 -15.951,22.455c-2.826,3.807 -5.655,7.629 -8.448,11.394c-2.799,3.774 -5.55,7.488 -8.217,11.085c-2.685,3.591 -5.307,7.044 -7.839,10.29c-2.532,3.243 -4.989,6.264 -7.293,9.018c-2.322,2.724 -4.47,5.196 -6.453,7.317c0.162,-0.294 0.318,-0.573 0.483,-0.873c0.765,-1.362 1.578,-2.814 2.436,-4.344c0.789,-1.551 1.614,-3.165 2.475,-4.86c0.843,-1.695 1.809,-3.426 2.67,-5.256c0.855,-1.827 1.74,-3.714 2.649,-5.655c0.45,-0.969 0.942,-1.935 1.383,-2.928c0.432,-1.002 0.873,-2.013 1.317,-3.036c0.903,-2.028 1.83,-4.116 2.76,-6.207c1.701,-4.224 3.543,-8.511 5.229,-12.828c1.824,-4.299 3.369,-8.604 5.154,-12.786c1.551,-4.179 3.327,-8.259 4.839,-12.096c0.813,-1.914 1.599,-3.768 2.376,-5.592c0.756,-1.8 1.488,-3.537 2.328,-5.202c0.774,-1.656 1.392,-3.24 2.193,-4.74c0.387,-0.741 0.765,-1.476 1.14,-2.202c0.366,-0.711 0.648,-1.395 1.023,-2.052c0.708,-1.323 1.398,-2.574 2.085,-3.75c0.678,-1.125 1.308,-2.169 1.926,-3.195c0.585,-0.99 1.317,-1.881 1.878,-2.703c0.513,-0.81 1.041,-1.539 1.59,-2.184c0.525,-0.633 1.02,-1.224 1.473,-1.77c0.45,-0.486 0.849,-0.918 1.215,-1.314c0.357,-0.369 0.675,-0.699 0.951,-0.987c0.297,-0.273 0.57,-0.486 0.777,-0.663c0.423,-0.345 0.648,-0.528 0.648,-0.528c0,0 -0.237,0.186 -0.678,0.537c-0.219,0.18 -0.501,0.399 -0.813,0.678c-0.291,0.291 -0.624,0.627 -1.002,1.005c-0.384,0.402 -0.801,0.837 -1.275,1.329c-0.474,0.558 -0.99,1.155 -1.542,1.797c-0.567,0.654 -1.134,1.386 -1.668,2.205c-0.591,0.831 -1.329,1.734 -1.968,2.727c-0.642,1.032 -1.299,2.082 -2.004,3.213c-0.741,1.176 -1.443,2.439 -2.187,3.762c-0.384,0.663 -0.714,1.338 -1.083,2.058c-0.387,0.726 -0.783,1.461 -1.182,2.205c-0.828,1.5 -1.518,3.075 -2.304,4.731c-0.864,1.668 -1.674,3.393 -2.445,5.19c-0.816,1.812 -1.647,3.657 -2.499,5.565c-0.768,1.908 -1.659,3.87 -2.532,5.877c-0.855,2.007 -1.731,4.05 -2.547,6.12c-1.86,4.14 -3.51,8.4 -5.403,12.636c-0.858,2.127 -1.8,4.245 -2.748,6.351c-0.918,2.115 -1.83,4.215 -2.721,6.27c-0.963,2.052 -1.92,4.101 -2.853,6.087c-0.459,1.005 -0.918,1.995 -1.368,2.976c-0.465,0.978 -0.984,1.932 -1.455,2.883c-0.942,1.899 -1.854,3.744 -2.739,5.529c-0.891,1.788 -1.878,3.474 -2.745,5.124c-0.885,1.647 -1.731,3.222 -2.541,4.725c-0.87,1.473 -1.695,2.868 -2.469,4.179c-0.759,1.299 -1.464,2.517 -2.124,3.645c0.234,-0.87 0.462,-1.77 0.684,-2.724c0.627,-2.619 1.194,-5.535 1.941,-8.628c0.732,-3.066 1.788,-6.501 2.796,-10.026c1.014,-3.528 2.082,-7.248 3.168,-11.043c0.528,-1.905 1.05,-3.81 1.509,-5.754c0.459,-1.92 1.023,-3.822 1.434,-5.76c0.435,-1.926 0.981,-3.864 1.377,-5.754l0.666,-2.838l0.633,-2.799c0.828,-3.657 1.635,-7.215 2.421,-10.683c0.393,-1.692 0.723,-3.336 1.128,-4.926c0.363,-1.548 0.729,-3.096 1.08,-4.581c1.425,-5.877 2.844,-10.689 4.134,-14.37c0.321,-0.915 0.573,-1.782 0.936,-2.565c0.297,-0.759 0.582,-1.482 0.849,-2.163c0.576,-1.251 1.065,-2.325 1.473,-3.216c0.858,-1.587 1.347,-2.493 1.347,-2.493c0,0 -0.537,0.915 -1.47,2.523c-0.447,0.867 -0.972,1.926 -1.617,3.255c-0.291,0.69 -0.603,1.419 -0.933,2.19c-0.387,0.789 -0.684,1.665 -1.029,2.592c-1.419,3.714 -3.006,8.565 -4.569,14.46c-0.39,1.488 -0.798,3.039 -1.203,4.59c-0.471,1.59 -0.825,3.237 -1.254,4.923c-0.471,1.695 -0.879,3.432 -1.314,5.208c-0.453,1.788 -0.912,3.597 -1.374,5.43l-0.687,2.778c0,0 -0.195,0.705 -0.39,1.407c-0.18,0.705 -0.36,1.41 -0.36,1.41c-0.441,1.881 -0.987,3.78 -1.497,5.679c-0.453,1.884 -1.059,3.819 -1.563,5.727c-0.507,1.884 -1.077,3.777 -1.629,5.64c-1.173,3.726 -2.325,7.395 -3.423,10.896c-1.104,3.516 -2.178,6.843 -3.066,10.032c-0.345,1.251 -0.627,2.427 -0.909,3.576c0.069,-1.284 0.207,-2.625 0.264,-4.008c0.048,-1.482 0.102,-3.012 0.153,-4.584c0.021,-0.78 0.078,-1.572 0.081,-2.364c-0.015,-0.789 -0.024,-1.584 -0.036,-2.388c0.003,-1.605 0.009,-3.261 0.015,-4.908c-0.174,-3.264 -0.111,-6.654 -0.393,-9.942c-0.096,-3.339 -0.492,-6.579 -0.678,-9.801c-0.402,-3.156 -0.6,-6.297 -1.068,-9.21c-0.285,-2.976 -0.876,-5.709 -1.191,-8.355c-0.246,-1.299 -0.528,-2.535 -0.711,-3.756c-0.108,-0.603 -0.213,-1.2 -0.318,-1.788c-0.126,-0.573 -0.252,-1.131 -0.375,-1.686c-0.237,-1.098 -0.501,-2.157 -0.693,-3.177c-0.192,-1.014 -0.507,-1.935 -0.741,-2.841c-0.264,-0.894 -0.396,-1.761 -0.633,-2.556c-0.261,-0.78 -0.537,-1.515 -0.714,-2.202c-0.204,-0.687 -0.393,-1.329 -0.567,-1.92c-0.213,-0.57 -0.408,-1.095 -0.585,-1.566c-0.348,-0.936 -0.621,-1.671 -0.804,-2.172c-0.192,-0.498 -0.258,-0.765 -0.258,-0.765c0,0 0.054,0.27 0.225,0.777c0.162,0.51 0.402,1.257 0.708,2.205c0.156,0.483 0.327,1.011 0.516,1.593c0.15,0.6 0.315,1.254 0.489,1.95c0.15,0.699 0.396,1.446 0.627,2.238c0.204,0.807 0.306,1.689 0.534,2.598c0.201,0.918 0.48,1.854 0.636,2.883c0.147,1.029 0.384,2.103 0.579,3.219c0.102,0.564 0.207,1.125 0.315,1.707c0.084,0.597 0.171,1.2 0.258,1.812c0.153,1.23 0.381,2.481 0.585,3.792c0.234,2.673 0.741,5.43 0.93,8.427c0.21,1.461 0.312,2.985 0.414,4.536c0.129,1.563 0.258,3.141 0.384,4.707c0.099,3.225 0.39,6.471 0.399,9.795c0.153,3.294 0.063,6.636 0.108,9.894c-0.012,1.629 -0.111,3.261 -0.144,4.86c-0.015,0.801 -0.027,1.587 -0.039,2.37c-0.021,0.78 -0.096,1.563 -0.138,2.331c-0.087,1.548 -0.174,3.054 -0.258,4.512c-0.09,1.467 -0.297,2.901 -0.42,4.278c-0.12,1.368 -0.237,2.667 -0.351,3.921c-0.168,1.248 -0.333,2.436 -0.486,3.549c-0.141,1.119 -0.276,2.169 -0.402,3.138c-0.138,0.975 -0.336,1.896 -0.477,2.718c-0.027,0.15 -0.051,0.285 -0.078,0.432c-0.189,0.408 -0.357,0.78 -0.501,1.089c-0.189,-0.066 -0.402,-0.135 -0.639,-0.216c-0.174,-0.51 -0.363,-1.068 -0.579,-1.695c-0.249,-0.723 -0.525,-1.524 -0.822,-2.397c-0.324,-0.861 -0.678,-1.797 -1.053,-2.793c-0.375,-0.993 -0.771,-2.046 -1.152,-3.183c-0.396,-1.128 -0.87,-2.274 -1.329,-3.486c-0.462,-1.203 -0.945,-2.454 -1.446,-3.75c-0.54,-1.272 -1.056,-2.61 -1.605,-3.969c-0.27,-0.678 -0.543,-1.365 -0.819,-2.061c-0.294,-0.693 -0.585,-1.386 -0.882,-2.088c-0.594,-1.404 -1.212,-2.823 -1.785,-4.296c-0.639,-1.437 -1.317,-2.868 -1.938,-4.35c-0.321,-0.735 -0.615,-1.488 -0.96,-2.217c-0.348,-0.726 -0.714,-1.446 -1.047,-2.187c-0.693,-1.467 -1.293,-2.985 -2.061,-4.416c-0.708,-1.455 -1.419,-2.916 -2.13,-4.377c-0.702,-1.455 -1.482,-2.868 -2.217,-4.29c-0.378,-0.702 -0.687,-1.44 -1.071,-2.133c-0.39,-0.687 -0.777,-1.374 -1.164,-2.058c-0.396,-0.681 -0.744,-1.377 -1.11,-2.061c-0.351,-0.693 -0.714,-1.371 -1.131,-2.016c-0.822,-1.296 -1.515,-2.631 -2.265,-3.912c-0.777,-1.26 -1.545,-2.502 -2.295,-3.717c-0.759,-1.212 -1.455,-2.415 -2.229,-3.537c-0.741,-1.134 -1.527,-2.226 -2.172,-3.327c-0.669,-1.089 -1.458,-2.07 -2.142,-3.06c-0.672,-0.996 -1.311,-1.944 -1.926,-2.859c-0.675,-0.876 -1.332,-1.71 -1.887,-2.52c-0.57,-0.81 -1.107,-1.569 -1.602,-2.268c-0.516,-0.699 -1.056,-1.305 -1.467,-1.887c-1.743,-2.334 -2.739,-3.669 -2.739,-3.669c0,0 0.954,1.359 2.622,3.738c0.393,0.594 0.912,1.212 1.407,1.92c0.471,0.717 0.981,1.488 1.527,2.313c0.525,0.825 1.161,1.674 1.806,2.568c0.582,0.93 1.194,1.899 1.83,2.913c0.651,1.008 1.404,2.007 2.04,3.117c0.609,1.119 1.362,2.229 2.061,3.39c0.735,1.137 1.398,2.364 2.115,3.6c0.708,1.233 1.434,2.496 2.169,3.78c0.708,1.302 1.362,2.658 2.139,3.978c0.396,0.654 0.741,1.344 1.068,2.046c0.345,0.696 0.669,1.404 1.047,2.094c0.363,0.696 0.729,1.392 1.095,2.094c0.363,0.702 0.654,1.449 1.008,2.166c0.687,1.443 1.428,2.871 2.079,4.35c0.669,1.482 1.335,2.961 2.001,4.437c0.714,1.455 1.281,2.985 1.929,4.47c0.306,0.75 0.645,1.482 0.972,2.214c0.327,0.738 0.597,1.497 0.9,2.241c0.57,1.503 1.206,2.949 1.806,4.398c0.537,1.482 1.092,2.928 1.659,4.338c0.276,0.711 0.549,1.407 0.822,2.106c0.252,0.705 0.504,1.401 0.75,2.088c0.51,1.374 1.005,2.709 1.488,4.002c0.462,1.305 0.909,2.565 1.338,3.774c0.423,1.218 0.867,2.376 1.23,3.501c0.363,1.122 0.69,2.214 1.041,3.198c0.345,0.993 0.669,1.926 0.969,2.787c0.195,0.624 0.378,1.2 0.552,1.749c-0.45,-0.159 -0.918,-0.324 -1.404,-0.495c-0.828,-0.321 -1.722,-0.666 -2.676,-1.038c-0.966,-0.363 -1.968,-0.78 -3.027,-1.227c-1.053,-0.483 -2.157,-0.993 -3.309,-1.524c-1.149,-0.546 -2.373,-1.083 -3.603,-1.707c-1.224,-0.636 -2.469,-1.335 -3.771,-2.04c-1.308,-0.681 -2.613,-1.464 -3.927,-2.304c-1.311,-0.837 -2.7,-1.644 -4.041,-2.574c-1.335,-0.948 -2.697,-1.911 -4.068,-2.886c-1.353,-1.017 -2.718,-2.07 -4.056,-3.18c-2.724,-2.184 -5.325,-4.629 -7.92,-7.137c-1.266,-1.281 -2.502,-2.613 -3.723,-3.951c-1.236,-1.326 -2.427,-2.697 -3.537,-4.131c-2.343,-2.76 -4.371,-5.745 -6.357,-8.637c-0.948,-1.482 -1.845,-2.964 -2.727,-4.419c-0.855,-1.479 -1.68,-2.94 -2.421,-4.395c-0.762,-1.44 -1.428,-2.907 -2.109,-4.296c-0.675,-1.389 -1.236,-2.781 -1.767,-4.131c-0.534,-1.347 -1.044,-2.634 -1.527,-3.861c-0.405,-1.266 -0.792,-2.466 -1.152,-3.591c-0.756,-2.235 -1.281,-4.251 -1.656,-5.919c-0.396,-1.659 -0.714,-2.955 -0.876,-3.864c-0.18,-0.9 -0.273,-1.38 -0.273,-1.38c0,0 0.081,0.48 0.237,1.386c0.138,0.915 0.423,2.217 0.78,3.891c0.333,1.674 0.804,3.708 1.503,5.967c0.336,1.14 0.69,2.355 1.065,3.636c0.456,1.245 0.933,2.55 1.434,3.915c0.501,1.371 1.026,2.787 1.671,4.203c0.648,1.413 1.281,2.907 2.01,4.377c0.708,1.485 1.5,2.979 2.325,4.491c0.849,1.494 1.716,3.012 2.631,4.533c1.926,2.973 3.9,6.045 6.195,8.898c1.08,1.485 2.253,2.901 3.462,4.281c1.2,1.392 2.421,2.769 3.663,4.104c2.559,2.613 5.13,5.169 7.833,7.452c1.329,1.167 2.676,2.28 4.026,3.345c1.365,1.032 2.718,2.052 4.044,3.054c1.347,0.969 2.721,1.839 4.032,2.727c1.308,0.897 2.622,1.713 3.924,2.457c1.299,0.756 2.544,1.506 3.78,2.172c1.23,0.672 2.454,1.257 3.603,1.848c1.158,0.579 2.265,1.131 3.318,1.653c1.062,0.501 2.109,0.921 3.075,1.338c1.935,0.831 3.618,1.527 5.01,2.025c0.258,0.099 0.495,0.189 0.732,0.276c-0.198,0.039 -0.39,0.072 -0.603,0.111c-0.735,0.129 -1.554,0.297 -2.436,0.423c-0.882,0.114 -1.833,0.234 -2.853,0.363c-1.023,0.126 -2.115,0.255 -3.267,0.396c-1.158,0.105 -2.382,0.171 -3.666,0.258c-1.269,0.057 -2.598,0.156 -3.975,0.162c-1.38,-0.012 -2.811,-0.021 -4.284,-0.033c-0.735,-0.015 -1.488,-0.009 -2.247,-0.045c-0.759,-0.048 -1.53,-0.099 -2.304,-0.15c-1.563,-0.099 -3.147,-0.231 -4.77,-0.42c-3.237,-0.447 -6.606,-0.918 -10.002,-1.755c-3.432,-0.693 -6.843,-1.827 -10.32,-2.913c-3.405,-1.308 -6.882,-2.574 -10.185,-4.269c-3.378,-1.512 -6.549,-3.483 -9.693,-5.331c-1.542,-0.993 -3.024,-2.043 -4.503,-3.054c-0.741,-0.504 -1.467,-1.023 -2.175,-1.551c-0.708,-0.534 -1.383,-1.101 -2.064,-1.644c-1.359,-1.098 -2.691,-2.148 -3.945,-3.258c-1.26,-1.098 -2.421,-2.247 -3.567,-3.318c-1.143,-1.074 -2.211,-2.181 -3.222,-3.225c-0.987,-1.092 -1.923,-2.124 -2.802,-3.093c-0.861,-1.017 -1.665,-1.968 -2.409,-2.847c-0.738,-0.894 -1.377,-1.755 -1.971,-2.517c-1.179,-1.542 -2.064,-2.826 -2.688,-3.675c-0.615,-0.858 -0.939,-1.317 -0.939,-1.317c0,0 0.315,0.465 0.912,1.344c0.603,0.861 1.464,2.172 2.61,3.741c0.585,0.78 1.206,1.662 1.923,2.574c0.729,0.9 1.518,1.872 2.361,2.916c0.861,0.996 1.776,2.058 2.742,3.177c0.993,1.077 2.043,2.217 3.168,3.321c1.131,1.107 2.274,2.295 3.516,3.435c1.236,1.152 2.562,2.232 3.897,3.381c0.675,0.564 1.344,1.155 2.043,1.71c0.705,0.558 1.431,1.08 2.16,1.614c1.464,1.059 2.94,2.163 4.473,3.21c3.129,1.938 6.294,4.011 9.669,5.631c3.297,1.812 6.792,3.159 10.2,4.596c3.501,1.173 6.924,2.436 10.389,3.213c3.417,0.957 6.837,1.488 10.101,2.049c1.632,0.258 3.258,0.369 4.836,0.531c0.786,0.075 1.563,0.147 2.334,0.219c0.768,0.06 1.53,0.075 2.277,0.111c1.494,0.054 2.943,0.105 4.344,0.156c1.392,0.042 2.769,-0.054 4.068,-0.087c1.305,-0.054 2.55,-0.087 3.732,-0.165c1.185,-0.111 2.304,-0.216 3.36,-0.315c1.05,-0.105 2.031,-0.204 2.94,-0.297c0.903,-0.108 1.701,-0.246 2.451,-0.363c0.141,-0.024 0.264,-0.045 0.399,-0.069c-0.138,0.108 -0.267,0.207 -0.411,0.318c-1.398,1.05 -3.201,2.193 -5.391,3.309c-2.184,1.11 -4.794,2.223 -7.659,3.252c-2.943,1.011 -6.15,2.172 -9.576,3.069c-3.414,1.026 -7.086,1.725 -10.935,2.466c-1.944,0.291 -3.921,0.588 -5.922,0.888c-2.022,0.207 -4.08,0.42 -6.162,0.555c-2.082,0.171 -4.209,0.132 -6.351,0.183c-2.142,0.078 -4.302,-0.099 -6.48,-0.216l-3.27,-0.207l-1.641,-0.186l-1.641,-0.213c-2.187,-0.291 -4.383,-0.573 -6.567,-1.029c-2.178,-0.462 -4.356,-0.861 -6.507,-1.467c-2.154,-0.564 -4.287,-1.197 -6.39,-1.854c-2.094,-0.747 -4.17,-1.449 -6.195,-2.253c-2.031,-0.78 -3.996,-1.731 -5.934,-2.586c-0.969,-0.432 -1.917,-0.903 -2.856,-1.362c-0.93,-0.501 -1.848,-0.999 -2.748,-1.488c-1.803,-0.993 -3.567,-1.926 -5.226,-2.979c-1.659,-1.083 -3.249,-2.121 -4.761,-3.111c-0.759,-0.492 -1.491,-1.008 -2.205,-1.515c-0.705,-0.537 -1.389,-1.056 -2.052,-1.56c-1.317,-1.023 -2.565,-1.989 -3.717,-2.877c-1.14,-0.927 -2.184,-1.815 -3.102,-2.667c-1.854,-1.674 -3.321,-2.991 -4.308,-3.933c-0.981,-0.957 -1.506,-1.464 -1.506,-1.464c0,0 0.519,0.522 1.488,1.5c0.978,0.963 2.424,2.316 4.26,4.035c0.912,0.873 1.944,1.794 3.078,2.736c1.14,0.921 2.379,1.917 3.687,2.973c0.66,0.522 1.338,1.059 2.037,1.614c0.708,0.528 1.443,1.05 2.196,1.566c1.506,1.026 3.09,2.106 4.737,3.234c1.659,1.095 3.417,2.052 5.214,3.102c0.903,0.513 1.815,1.032 2.748,1.563c0.936,0.495 1.89,0.963 2.856,1.422c1.938,0.906 3.906,1.911 5.94,2.745c2.037,0.822 4.113,1.605 6.213,2.4c2.112,0.72 4.26,1.365 6.423,1.998c2.16,0.657 4.35,1.131 6.549,1.611c2.199,0.51 4.41,0.849 6.615,1.191c0,0 0.828,0.117 1.659,0.237c0.828,0.111 1.656,0.222 1.656,0.222l3.303,0.288c2.196,0.186 4.389,0.363 6.555,0.339c2.163,-0.006 4.317,0.09 6.426,-0.045c2.103,-0.153 4.191,-0.309 6.252,-0.462c2.031,-0.258 4.038,-0.513 6.009,-0.765c3.897,-0.636 7.659,-1.338 11.175,-2.313c3.549,-0.855 6.735,-1.941 9.693,-2.895c2.595,-0.873 4.911,-1.797 7.023,-2.787c-0.867,0.873 -1.773,1.791 -2.73,2.76c-1.098,1.032 -2.256,2.121 -3.465,3.255c-2.487,2.187 -5.226,4.53 -8.286,6.786c-3.024,2.301 -6.381,4.494 -9.927,6.663c-3.567,2.133 -7.383,4.14 -11.361,6.018c-3.996,1.824 -8.175,3.531 -12.441,4.977c-4.287,1.416 -8.637,2.676 -13.008,3.765c-4.383,1.047 -8.763,1.98 -13.119,2.523c-4.359,0.534 -8.637,0.951 -12.792,0.948c-4.14,0.09 -8.142,-0.129 -11.883,-0.531c-1.884,-0.258 -3.687,-0.501 -5.403,-0.738c-1.734,-0.318 -3.387,-0.687 -4.944,-1.011c-1.563,-0.408 -3.027,-0.792 -4.383,-1.146c-1.359,-0.345 -2.616,-0.822 -3.75,-1.203c-2.274,-0.741 -4.065,-1.53 -5.286,-2.016c-1.227,-0.501 -1.881,-0.768 -1.881,-0.768c0,0 0.654,0.282 1.875,0.813c1.224,0.51 3.015,1.344 5.292,2.139c1.137,0.408 2.394,0.909 3.756,1.287c1.359,0.384 2.829,0.804 4.401,1.248c1.563,0.36 3.225,0.78 4.965,1.122c1.725,0.273 3.543,0.561 5.439,0.864c3.768,0.492 7.8,0.771 11.979,0.789c4.197,0.108 8.517,-0.258 12.924,-0.684c4.398,-0.474 8.826,-1.335 13.266,-2.283c4.425,-1.008 8.841,-2.16 13.179,-3.531c4.35,-1.404 8.598,-3.021 12.678,-4.794c4.062,-1.818 7.962,-3.777 11.619,-5.88c3.636,-2.136 7.101,-4.344 10.221,-6.645c3.159,-2.253 5.988,-4.593 8.568,-6.795c1.251,-1.143 2.451,-2.238 3.594,-3.279c0.936,-0.924 1.824,-1.794 2.673,-2.631c-0.144,0.255 -0.279,0.501 -0.426,0.765c-0.579,1.041 -1.194,2.148 -1.842,3.318c-0.687,1.152 -1.467,2.34 -2.247,3.597c-0.801,1.242 -1.569,2.583 -2.481,3.894c-0.924,1.308 -1.878,2.658 -2.859,4.047c-0.495,0.69 -0.966,1.413 -1.5,2.106c-0.54,0.684 -1.092,1.374 -1.647,2.073c-1.122,1.392 -2.223,2.856 -3.42,4.275c-2.487,2.757 -4.959,5.706 -7.806,8.382c-2.697,2.832 -5.778,5.34 -8.76,7.965c-3.174,2.385 -6.261,4.905 -9.615,6.96c-3.225,2.241 -6.684,4.026 -9.978,5.853c-1.68,0.858 -3.396,1.59 -5.049,2.361c-0.834,0.378 -1.656,0.75 -2.469,1.119c-0.822,0.348 -1.671,0.639 -2.487,0.939c-1.65,0.579 -3.258,1.146 -4.809,1.695c-1.566,0.525 -3.15,0.876 -4.638,1.29c-1.5,0.384 -2.931,0.789 -4.32,1.098c-1.413,0.249 -2.751,0.489 -4.011,0.714c-1.269,0.219 -2.451,0.42 -3.549,0.609c-1.104,0.174 -2.145,0.207 -3.075,0.291c-3.75,0.264 -5.892,0.411 -5.892,0.411c0,0 2.157,-0.093 5.934,-0.258c0.936,-0.054 1.989,-0.072 3.102,-0.216c1.107,-0.159 2.304,-0.333 3.585,-0.516c1.272,-0.192 2.628,-0.399 4.059,-0.615c1.404,-0.273 2.853,-0.639 4.374,-0.987c1.512,-0.378 3.117,-0.69 4.707,-1.176c1.584,-0.51 3.216,-1.017 4.89,-1.593c0.834,-0.294 1.695,-0.555 2.532,-0.888c0.831,-0.351 1.671,-0.705 2.517,-1.065c1.689,-0.732 3.438,-1.428 5.154,-2.25c3.369,-1.755 6.903,-3.474 10.215,-5.658c3.441,-1.995 6.615,-4.464 9.882,-6.807c3.072,-2.58 6.252,-5.076 9.048,-7.884c2.946,-2.661 5.517,-5.598 8.103,-8.352c1.245,-1.416 2.391,-2.877 3.558,-4.269c0.579,-0.702 1.152,-1.395 1.716,-2.079c0.555,-0.696 1.05,-1.419 1.566,-2.112c1.029,-1.398 2.025,-2.757 2.994,-4.074c0.954,-1.323 1.764,-2.676 2.607,-3.933c0.822,-1.275 1.638,-2.472 2.367,-3.645c0.693,-1.2 1.353,-2.337 1.971,-3.405c0.621,-1.068 1.203,-2.067 1.74,-2.991c0.318,-0.561 0.585,-1.086 0.843,-1.593c-0.039,0.174 -0.072,0.339 -0.108,0.516c-0.186,0.915 -0.381,1.887 -0.591,2.913c-0.249,1.02 -0.519,2.109 -0.798,3.237c-0.294,1.134 -0.534,2.313 -0.873,3.516c-0.345,1.206 -0.702,2.454 -1.071,3.735c-0.186,0.642 -0.354,1.299 -0.561,1.956c-0.216,0.654 -0.438,1.314 -0.66,1.986c-0.444,1.341 -0.897,2.706 -1.362,4.11c-1.059,2.748 -2.052,5.64 -3.324,8.487c-1.14,2.892 -2.571,5.694 -3.9,8.568c-1.5,2.778 -2.895,5.628 -4.542,8.283c-1.521,2.727 -3.27,5.259 -4.89,7.758c-0.84,1.227 -1.728,2.391 -2.565,3.558c-0.42,0.579 -0.837,1.152 -1.251,1.719c-0.42,0.561 -0.87,1.086 -1.296,1.62c-0.861,1.059 -1.698,2.091 -2.508,3.09c-0.819,0.99 -1.686,1.881 -2.478,2.772c-0.804,0.879 -1.557,1.74 -2.31,2.526c-0.774,0.762 -1.512,1.485 -2.205,2.166c-0.693,0.681 -1.341,1.314 -1.941,1.902c-0.609,0.579 -1.209,1.065 -1.728,1.53c-2.112,1.83 -3.315,2.874 -3.315,2.874c0,0 1.242,-1.005 3.411,-2.763c0.537,-0.447 1.158,-0.915 1.785,-1.476c0.621,-0.567 1.29,-1.182 2.01,-1.839c0.714,-0.66 1.479,-1.362 2.28,-2.1c0.777,-0.765 1.563,-1.602 2.4,-2.457c0.825,-0.87 1.722,-1.737 2.574,-2.706c0.849,-0.978 1.722,-1.989 2.619,-3.027c0.444,-0.522 0.915,-1.038 1.356,-1.59c0.432,-0.555 0.87,-1.119 1.314,-1.689c0.876,-1.146 1.803,-2.292 2.688,-3.504c1.707,-2.469 3.549,-4.971 5.166,-7.68c1.74,-2.637 3.237,-5.475 4.836,-8.253c1.425,-2.865 2.961,-5.682 4.2,-8.574c1.362,-2.835 2.448,-5.736 3.603,-8.52c0.54,-1.401 1.008,-2.799 1.503,-4.152c0.249,-0.678 0.492,-1.35 0.729,-2.01c0.231,-0.666 0.42,-1.332 0.63,-1.983c0.411,-1.302 0.813,-2.568 1.2,-3.792c0.381,-1.227 0.663,-2.424 0.987,-3.567c0.309,-1.14 0.606,-2.238 0.888,-3.276c0.246,-1.059 0.48,-2.064 0.699,-3.009c0.222,-0.942 0.432,-1.824 0.624,-2.64c0.183,-0.81 0.297,-1.539 0.435,-2.205c0.096,-0.513 0.183,-0.969 0.267,-1.392c14.256,15.465 31.5,28.086 49.908,37.851c18.45,9.792 38.112,16.731 58.272,21.525l0.963,-3.003c-20.055,-4.761 -39.573,-11.673 -57.855,-21.387c-18.225,-9.702 -35.262,-22.206 -49.278,-37.506c0.015,-0.102 0.033,-0.219 0.048,-0.339c0.426,-0.132 1.563,-0.486 3.288,-1.023c2.217,-0.696 5.373,-1.608 9.177,-2.97c0.48,-0.18 0.93,-0.345 1.473,-0.546c0.483,-0.195 0.975,-0.39 1.479,-0.591c1.002,-0.417 2.025,-0.78 3.096,-1.284c1.062,-0.483 2.151,-0.981 3.267,-1.485c1.086,-0.552 2.196,-1.119 3.327,-1.692c2.238,-1.197 4.524,-2.472 6.777,-3.912l1.713,-1.068l1.689,-1.143c1.128,-0.762 2.259,-1.524 3.354,-2.355c2.22,-1.596 4.365,-3.306 6.447,-5.025c1.026,-0.879 2.043,-1.755 3.048,-2.616c0.975,-0.897 1.941,-1.782 2.892,-2.655c1.854,-1.791 3.645,-3.525 5.259,-5.259c1.653,-1.689 3.111,-3.39 4.494,-4.923c1.32,-1.584 2.571,-3.006 3.6,-4.323c1.032,-1.32 1.965,-2.445 2.673,-3.414c1.431,-1.92 2.25,-3.021 2.25,-3.021c0,0 -0.846,1.08 -2.331,2.964c-0.732,0.948 -1.695,2.046 -2.76,3.333c-1.065,1.29 -2.349,2.67 -3.708,4.212c-1.422,1.482 -2.913,3.132 -4.605,4.761c-1.653,1.671 -3.477,3.336 -5.367,5.052c-0.963,0.831 -1.944,1.677 -2.937,2.535c-1.017,0.819 -2.049,1.65 -3.087,2.487c-2.106,1.629 -4.275,3.243 -6.507,4.743c-1.101,0.777 -2.244,1.494 -3.366,2.199l-1.68,1.059l-1.707,0.984c-2.253,1.332 -4.536,2.499 -6.762,3.594c-1.119,0.522 -2.223,1.035 -3.303,1.536c-1.095,0.45 -2.163,0.891 -3.201,1.32c-1.029,0.444 -2.103,0.786 -3.105,1.161c-0.507,0.18 -1.002,0.354 -1.488,0.528c-0.444,0.144 -0.945,0.309 -1.398,0.456c-1.632,0.507 -3.15,0.948 -4.545,1.335c2.007,-1.215 4.251,-2.634 6.669,-4.272c4.635,-3.123 9.9,-7.059 15.264,-11.637c0.669,-0.579 1.344,-1.164 2.025,-1.755c0.66,-0.594 1.329,-1.194 1.998,-1.797c1.347,-1.185 2.676,-2.478 4.02,-3.759c2.679,-2.577 5.28,-5.298 7.827,-8.076c1.239,-1.416 2.481,-2.832 3.714,-4.242c1.182,-1.455 2.394,-2.874 3.528,-4.329c2.274,-2.913 4.437,-5.826 6.387,-8.709c0.966,-1.449 1.947,-2.847 2.811,-4.272c0.885,-1.413 1.785,-2.778 2.55,-4.146c1.62,-2.706 3.003,-5.295 4.221,-7.674c0.582,-1.191 1.14,-2.331 1.677,-3.417c0.474,-1.08 0.927,-2.109 1.35,-3.072c0.453,-0.963 0.771,-1.857 1.101,-2.685c0.339,-0.825 0.648,-1.581 0.93,-2.265c0.486,-1.359 0.864,-2.415 1.125,-3.138c0.258,-0.717 0.399,-1.101 0.399,-1.101c0,0 -0.15,0.384 -0.429,1.107c-0.276,0.723 -0.678,1.779 -1.197,3.138c-0.297,0.684 -0.627,1.44 -0.984,2.262c-0.36,0.828 -0.69,1.719 -1.164,2.673c-0.447,0.96 -0.921,1.98 -1.419,3.054c-0.555,1.074 -1.14,2.205 -1.746,3.384c-1.269,2.352 -2.694,4.905 -4.365,7.563c-0.789,1.344 -1.71,2.688 -2.622,4.071c-0.885,1.398 -1.905,2.772 -2.898,4.188c-1.995,2.817 -4.203,5.655 -6.516,8.481c-1.155,1.416 -2.388,2.793 -3.585,4.203c-1.254,1.365 -2.514,2.733 -3.771,4.104c-2.574,2.679 -5.214,5.31 -7.908,7.77c-1.35,1.224 -2.667,2.445 -4.059,3.606c-0.684,0.585 -1.365,1.167 -2.043,1.746c-0.678,0.555 -1.35,1.107 -2.016,1.653c-5.388,4.359 -10.662,8.073 -15.312,11.022c-2.583,1.641 -4.959,3.042 -7.059,4.224c0.798,-0.861 1.629,-1.788 2.505,-2.793c1.971,-2.217 4.098,-4.791 6.39,-7.614c2.262,-2.844 4.668,-5.952 7.14,-9.273c2.457,-3.318 5.034,-6.864 7.65,-10.524c2.604,-3.672 5.286,-7.449 8.007,-11.283c2.718,-3.819 5.481,-7.701 8.238,-11.571c5.46,-7.728 10.959,-15.534 15.579,-22.794c2.328,-3.63 4.446,-7.134 6.45,-10.371c1.962,-3.249 3.711,-6.27 5.283,-8.961c1.503,-2.67 2.847,-5.061 4.017,-7.14c1.08,-2.001 2.004,-3.714 2.748,-5.088c0.723,-1.344 1.251,-2.358 1.575,-3.033c0.366,-0.657 0.561,-1.008 0.561,-1.008c0,0 -0.204,0.354 -0.588,1.02" style="fill:#fff;fill-rule:nonzero;"/><path d="M459.691,667.256c14.028,-23.561 26.105,-45.243 39.802,-65.845c3.485,-5.25 14.092,-11.462 17.977,-9.689c10.479,4.787 4.016,13.484 -0.03,20.363c-12.877,21.834 -26.419,43.313 -38.485,65.591c-2.561,4.736 -1.761,13.044 0.559,18.369c8.463,19.463 22.765,26.025 43.608,18.104c9.439,-3.595 19.86,-5.301 29.978,-6.139c4.26,-0.343 8.885,3.755 13.348,5.835c-3.32,4.082 -5.94,10.671 -10.062,11.789c-14.935,4.101 -30.362,6.361 -45.28,9.248c-0.204,2.245 -0.686,3.458 -0.322,4.274c3.325,7.51 11.626,16.487 -0.62,21.454c-4.151,1.676 -14.2,-4.947 -18.04,-10.29c-5.642,-7.877 -10.827,-10.495 -20.112,-8.084c-11.435,2.989 -23.135,5.286 -34.861,6.691c-5.307,0.641 -14.598,-0.133 -15.67,-2.823c-1.924,-4.847 -0.139,-12.078 2.11,-17.473c3.091,-7.396 7.156,-14.788 12.394,-20.788c12.892,-14.754 9.732,-27.635 -2.346,-40.684c-4.252,-4.599 -7.629,-10.002 -12.959,-17.115c-1.411,6.527 -2.625,10.924 -3.271,15.411c-5.408,37.391 -10.592,74.814 -16.091,112.185c-2.766,18.697 -10.682,22.055 -25.786,11.011c-21.76,-15.908 -43.174,-32.313 -65.142,-47.941c-4.072,-2.891 -12.47,-5.885 -14.761,-3.949c-6.725,5.66 -17.347,9.259 -14.424,22.557c5.767,26.284 10.679,52.798 14.598,79.417c0.881,5.96 -2.409,17.102 -6.198,18.322c-10.37,3.321 -12.75,-5.724 -14.3,-14.425c-4.299,-24.273 -9.11,-48.453 -14.223,-75.285c-11.872,10.355 -22.697,18.841 -32.141,28.649c-2.491,2.584 -2.406,10.028 -0.62,13.942c7.35,16.218 16.425,31.673 23.464,48.022c1.964,4.559 -0.878,11.186 -1.508,16.872c-5.446,-2.609 -13.651,-3.766 -15.902,-8.05c-23.669,-44.934 -46.214,-90.441 -69.471,-135.592c-4.742,-9.212 -1.6,-14.677 5.295,-20.787c38.289,-33.923 76.069,-68.427 114.729,-101.912c4.17,-3.619 12.91,-1.937 19.529,-2.709c-2.116,6.4 -2.307,14.873 -6.631,18.877c-33.582,31.11 -67.655,61.696 -102.296,91.614c-8.229,7.104 -9.606,12.468 -4.325,21.651c7.507,13.058 13.811,26.792 21.833,42.616c14.305,-12.551 27.664,-23.724 40.203,-35.76c2.223,-2.136 1.817,-7.982 1.248,-11.915c-1.854,-12.783 -5.016,-25.409 -6.261,-38.223c-0.49,-5.087 1.329,-12.165 4.817,-15.24c2.279,-2.013 10.248,0.254 14.28,2.801c10.422,6.605 20.071,14.409 30.867,22.355c7.529,-6.461 14.442,-13.092 22.08,-18.746c7.356,-5.449 14.283,-20.296 24.703,-8.821c11.344,12.488 -5.173,17.678 -11.504,24.904c-4.875,5.544 -10.603,10.336 -16.966,16.426c21.993,16.352 42.652,31.707 64.741,48.113c6.739,-47.134 12.934,-92.527 20.038,-137.792c1.006,-6.424 6.411,-12.154 9.787,-18.211c5.312,3.694 11.857,6.418 15.685,11.263c10.973,13.893 20.843,28.645 32.935,45.562" style="fill:#fff;fill-opacity:0.4;fill-rule:nonzero;"/><g opacity="0.4"><path d="M2105.7,1245.38c0.717,-0.099 1.424,-0.197 2.14,-0.296c1.245,-10.333 2.758,-20.639 3.6,-31c0.313,-3.76 -0.367,-7.906 -1.782,-11.407c-0.94,-2.301 -3.814,-4.791 -6.169,-5.212c-1.72,-0.304 -5.462,2.382 -5.785,4.182c-1.361,7.486 -3.429,15.455 -2.05,22.636c1.423,7.406 6.545,14.094 10.046,21.097m101.944,5.345c0.573,1.487 1.397,2.937 1.657,4.468c0.564,3.331 2.382,8.292 0.904,9.734c-2.614,2.543 -8.211,5.086 -10.951,3.895c-9.205,-3.958 -18.643,-8.444 -26.173,-14.873c-7.074,-6.053 -11.694,-14.936 -17.676,-22.359c-4.101,-5.095 -8.238,-10.315 -13.162,-14.569c-5.069,-4.378 -11.381,-7.834 -17.801,-2.399c-6.331,5.354 -5.4,11.936 -2.096,18.857c2.669,5.588 6.017,11.435 6.474,17.372c0.564,7.503 -1.504,15.213 -2.229,21.123c1.593,8.238 3.375,15.302 4.181,22.475c0.466,4.163 -0.734,8.497 -1.012,12.76c-0.68,10.592 1.979,19.43 12.053,25.098c3.617,2.042 7.091,5.095 9.411,8.525c6.089,8.963 3.698,16.735 -7.316,25.358c0.815,0.439 1.424,0.878 2.095,1.11c19.359,6.931 24.266,14.945 20.264,33.194c-3.269,14.846 -19.126,25.636 -35.208,23.791c-10.96,-1.253 -20.362,-5.847 -26.97,-14.774c-6.251,-8.435 -12.787,-16.897 -17.47,-26.227c-16.136,-32.191 -43.58,-51.156 -74.795,-66.029c-5.346,-2.543 -11.023,-4.468 -16.198,-7.306c-16.467,-9.044 -19.198,-20.282 -9.089,-35.925c1.415,-2.176 2.821,-4.361 4.728,-7.298c-26.11,-22.134 -51.648,-44.475 -78.152,-65.598c-4.889,-3.886 -13.745,-3.86 -20.747,-3.806c-11.274,0.072 -15.903,-2.391 -16.888,-11.56c-1.119,-10.476 6.035,-11.864 13.789,-12.366c31.887,-2.05 61.167,-12.213 88.477,-28.429c6.967,-4.137 13.79,-7.074 20.371,0.152c5.525,6.053 4.2,13.404 -3.474,21.911c-1.764,1.952 -3.725,3.752 -5.337,5.82c-7.566,9.689 -7.002,13.96 3.134,20.452c12.178,7.808 24.535,15.32 38.512,24.015c3.107,-10.736 6.044,-19.861 8.319,-29.146c1.54,-6.25 4.029,-12.5 10.924,-11.327c2.812,0.483 6.286,7.862 6.313,12.115c0.161,23.165 -8.972,43.482 -21.141,62.653c-6.161,9.724 -13.055,19.099 -18.141,29.361c-4.075,8.22 -4.084,17.156 4.88,24.454c1.253,-18.348 11.21,-31.054 23.558,-42.309c2.391,-2.176 5.31,-4.889 8.202,-5.176c4.361,-0.421 10.862,-0.403 12.832,2.185c1.952,2.543 0.904,9.76 -1.514,12.733c-4.235,5.202 -10.19,9.286 -16.037,12.832c-13.431,8.148 -13.512,29.907 -0.134,38.207c16.816,10.423 33.023,21.84 50.126,31.752c7.915,4.593 17.326,6.635 26.057,9.841c0.609,-1.12 1.217,-2.23 1.826,-3.349c-5.175,-4.647 -10.225,-9.465 -15.58,-13.906c-7.996,-6.644 -14.855,-13.637 -16.368,-24.812c-6.224,-46.186 -18.554,-90.94 -31.994,-135.46c-2.265,-7.468 -1.612,-16.35 -0.26,-24.239c1.514,-8.838 8.543,-12.787 17.148,-9.886c7.996,2.687 15.67,6.797 22.905,11.229c35.817,21.947 70.21,45.693 96.338,79.46c1.684,2.176 4.612,3.376 6.967,5.032c0.528,0.349 1.012,0.734 1.468,1.164" style="fill:#fff;fill-rule:nonzero;"/><path d="M2207.65,1250.73c-0.456,-0.43 -0.94,-0.815 -1.468,-1.164c-22.78,-32.907 -46.831,-64.193 -84.295,-82.522c-9.053,-4.423 -16.208,-13.888 -22.44,-22.35c-2.435,-3.313 -1.907,-12.178 0.86,-15.052c3.25,-3.376 11.793,-5.704 15.625,-3.743c13.037,6.653 25.905,14.318 37.16,23.613c12.375,10.225 22.941,22.654 34.232,34.187c9.796,10.029 17.712,21.159 20.514,35.324c0.502,2.534 1.737,4.979 2.964,7.298c3.958,7.486 8.31,7.602 12.921,0.26c4.2,-6.68 8.005,-13.602 12.303,-20.21c1.952,-3.009 4.477,-5.722 7.083,-8.211c5.561,-5.319 12.536,-11.909 19.699,-7.092c6.053,4.074 12.071,12.429 12.545,19.279c0.376,5.417 -6.563,13.135 -12.213,16.851c-15.482,10.164 -31.994,18.742 -47.789,27.777c-1.128,-0.627 -4.406,-2.436 -7.701,-4.245" style="fill:#fff;fill-rule:nonzero;"/><path d="M2182,1319.71c4.289,-6.089 8.579,-12.187 12.868,-18.276l-0.556,-2.74c-5.22,1.075 -12.303,0.466 -15.204,3.662c-3.617,3.967 -5.766,11.372 -4.934,16.736c1.003,6.456 6.671,12.034 8.704,18.499c1.63,5.167 2.391,11.65 0.645,16.512c-1.344,3.752 -7.182,5.892 -11.005,8.748c-2.561,-3.456 -6.411,-6.572 -7.45,-10.44c-4.701,-17.488 -8.247,-35.289 -13.002,-52.759c-1.522,-5.596 0.269,-8.847 4.657,-9.76c6.912,-1.424 14.335,-2.74 21.176,-1.692c21.267,3.25 37.402,-2.704 48.308,-22.072c3.645,-6.483 8.614,-12.877 14.515,-17.211c4.083,-2.99 11.506,-4.333 16.055,-2.659c2.597,0.949 4.486,10.074 3.143,14.416c-6.868,22.323 -17.237,41.306 -44.655,43.679c-6.348,0.555 -12.285,6.617 -18.284,10.342c-4.092,2.543 -7.969,5.427 -11.945,8.158c-1.012,-1.048 -2.024,-2.096 -3.036,-3.143" style="fill:#fff;fill-rule:nonzero;"/><path d="M2143.31,1423.01c15.169,1.343 31.474,2.274 47.592,4.557c4.002,0.565 10.055,5.266 10.333,8.489c0.304,3.447 -4.334,8.659 -8.121,10.924c-20.121,12.071 -42.766,14.739 -65.599,15.581c-9.474,0.358 -19.207,-0.126 -28.43,-2.087c-5.14,-1.092 -9.473,-6.008 -14.157,-9.196c3.546,-4.36 6.242,-10.87 10.808,-12.688c14.864,-5.919 30.4,-10.109 47.574,-15.58" style="fill:#fff;fill-rule:nonzero;"/><path d="M1922.42,1122.1c11.112,-1.218 21.66,7.476 22.663,18.705c0.994,10.906 -7.083,21.436 -17.496,22.869c-10.835,1.469 -21.705,-7.163 -23.084,-18.338c-1.415,-11.363 6.805,-22.028 17.917,-23.236" style="fill:#fff;fill-rule:nonzero;"/></g><g opacity="0.4"><path d="M373.318,1400.59c-15.491,-31.769 -30.992,-63.534 -46.425,-95.247c3.433,3.74 7.441,7.011 10.081,11.163c15.317,24.049 30.316,48.299 45.874,73.201c0.745,-0.529 2.811,-1.529 4.274,-3.093c27.457,-29.302 31.505,-80.393 8.789,-113.666c-9.835,-14.403 -23.422,-23.691 -40.808,-26.52c-25.397,-4.121 -55.884,23.181 -51.159,46.417c4.757,-1.823 9.426,-4.931 14.099,-4.972c4.397,-0.041 10.435,2.062 12.636,5.328c1.524,2.249 -2.267,8.095 -3.689,12.32c-25.169,8.083 -38.863,-3.998 -34.665,-29.842c3.568,-21.982 13.558,-41.022 35.934,-44.228c20.008,-2.873 41.913,-0.952 58.872,14.631c19.696,18.095 34.302,38.509 35.712,66.749c0.797,15.69 4.117,31.283 6.624,46.858c4.957,30.737 -7.388,53.748 -32.006,73.487c-5.405,-13.263 -10.265,-25.19 -15.803,-38.8c-3.274,2.181 -6.07,4.049 -8.88,5.91l0.54,0.304Z" style="fill:#fff;fill-rule:nonzero;"/><path d="M372.778,1400.29c5.626,13.654 11.247,27.298 16.88,40.914c0.017,-0.041 0.211,-0.513 0.211,-0.513c-16.852,7.189 -33.992,6.384 -49.725,-1.767c-22.63,-11.734 -46.031,-23.032 -66.108,-38.428c-39.58,-30.355 -49.559,-73.71 -44.183,-121.067c2.512,-22.06 8.737,-43.679 12.143,-65.663c2.455,-15.886 3.022,-32.053 4.47,-48.589c3.324,5.407 7.459,11.545 11.009,18.018c9.833,17.899 9.767,17.961 4.219,38.034c-3.959,14.318 -8.377,28.528 -11.991,42.932c-11.069,44.203 -2.944,83.86 29.169,117.283c26.953,28.081 58.01,37.174 94.433,19.144c0.013,0.006 -0.527,-0.298 -0.527,-0.298" style="fill:#fff;fill-rule:nonzero;"/><path d="M241.976,1117.23c1.804,-0.718 3.612,-1.426 5.407,-2.14c-3.191,-7.761 -5.794,-15.848 -9.977,-23.012c-1.004,-1.719 -7.257,-0.341 -11.106,-0.391c0.414,3.529 -0.333,7.91 1.488,10.403c4.047,5.542 9.375,10.159 14.188,15.14m27.096,75.963c-12.609,-21.993 -11.486,-47.795 -38.055,-55.553c2.725,4.852 5.436,9.698 8.457,15.094c-18.763,-10.785 -34.503,-39.898 -33.321,-60.655c0.647,-11.236 5.827,-19.431 16.206,-23.897c10.666,-4.575 20.942,-2.344 27.847,6.248c6.817,8.49 12.759,18.299 16.492,28.489c10.456,28.49 8.804,57.627 2.374,90.274" style="fill:#fff;fill-rule:nonzero;"/><path d="M449.956,1241.42c-1.072,0.102 -2.144,0.205 -3.216,0.307c-0.63,6.401 -1.524,12.773 -1.84,19.181c-1.035,20.007 4.557,23.272 24.375,13.328c-6.469,-10.991 -12.892,-21.899 -19.319,-32.816m36.507,29.878c-4.99,9.311 3.363,15.31 9.508,21.942c5.049,5.435 11.095,10.039 15.644,15.82c1.552,1.985 -0.053,6.459 -0.215,9.791c-2.93,-0.548 -7.023,-0.082 -8.571,-1.839c-5.495,-6.202 -10.308,-13.057 -15.036,-19.901c-11.231,-16.235 -13.734,-16.697 -31.794,-9.866c-15.218,5.76 -8.769,16.841 -7.616,26.716c0.531,4.607 3.401,9.697 2.132,13.571c-1.708,5.276 -6.356,9.593 -9.756,14.31c-2.973,-4.013 -7.647,-7.696 -8.527,-12.121c-1.313,-6.648 0.754,-13.901 0.045,-20.755c-0.553,-5.24 -3.726,-10.147 -4.735,-15.404c-0.895,-4.627 -2.451,-12.024 -0.184,-13.889c13.97,-11.401 7.379,-27.48 10.788,-41.132c0.97,-3.876 2.03,-7.755 3.048,-11.627c4.792,1.817 11.214,2.277 14.04,5.719c6.725,8.16 11.356,18.022 17.618,26.617c3.003,4.139 7.781,6.997 13.611,12.048" style="fill:#fff;fill-rule:nonzero;"/><path d="M403.223,1141.44c-0.968,0.242 -1.945,0.489 -2.919,0.746c-0.301,7.16 -1.234,14.376 -0.694,21.485c0.356,4.851 1.63,12.618 4.461,13.645c4.91,1.768 11.33,-0.668 18.598,-1.515c-7.52,-13.289 -13.488,-23.823 -19.446,-34.361m33.28,30.188c-4.677,10.917 6.434,17.547 13.245,26.327c4.542,5.876 7.961,12.611 11.634,19.102c0.106,0.174 -3.727,3.026 -3.905,2.847c-5.029,-5.167 -9.859,-10.52 -14.658,-15.909c-0.914,-1.033 -1.653,-2.254 -2.376,-3.435c-13.763,-22.501 -15.238,-22.84 -39.744,-8.344c1.687,11.044 4.375,22.452 4.693,33.905c0.124,4.569 -4.983,9.274 -7.713,13.918c-2.923,-4.033 -7.533,-7.754 -8.36,-12.191c-1.332,-7.134 0.392,-14.796 -0.259,-22.145c-0.404,-4.441 -3.324,-8.602 -4.254,-13.065c-0.964,-4.655 -3.101,-11.707 -0.897,-13.947c12.198,-12.422 5.967,-27.995 8.733,-41.896c0.697,-3.509 1.634,-6.969 2.472,-10.445c3.966,1.519 9.49,1.893 11.618,4.764c6.302,8.521 10.93,18.269 16.899,27.067c3.052,4.509 7.576,8.024 12.872,13.447" style="fill:#fff;fill-rule:nonzero;"/><path d="M356.418,1159.96c-5.484,3.771 -10.965,7.551 -17.773,12.229c1.153,19.577 27.604,29.338 24.496,52.726c-10.724,0.772 -14.835,-5.916 -18.621,-13.67c-10.933,-22.44 -21.717,-44.989 -33.464,-67.009c-4.968,-9.319 -4.85,-16.782 3.022,-23.536c9.141,-7.847 18.281,-15.809 28.215,-22.527c3.935,-2.664 10.83,-4.126 14.942,-2.507c4.95,1.947 8.379,7.769 12.474,11.912c-4.434,4.056 -8.248,9.463 -13.438,11.846c-7.355,3.366 -16.08,3.695 -23.588,6.804c-10.753,4.45 -13.549,13.593 -10.082,24.193c3.737,11.441 12.41,10.491 21.646,7.639c3.308,-1.024 6.873,-1.212 10.327,-1.779l1.844,3.679Z" style="fill:#fff;fill-rule:nonzero;"/><path d="M457.595,1402.94c20.069,-0.635 38.151,-1.211 57.471,-1.82c-2.924,14.127 -11.812,12.961 -19.126,13.367c-13.205,0.749 -26.474,0.352 -39.67,1.12c-11.016,0.652 -12.945,-4.854 -10.623,-13.811c7.676,-29.523 15.448,-59.006 23.42,-89.388c14.467,-2.988 18.093,-0.328 13.605,15.532c-6.028,21.319 -14.207,42.029 -21.416,63.024c-1.239,3.644 -2.26,7.368 -3.661,11.976" style="fill:#fff;fill-rule:nonzero;"/><path d="M406.166,1480.89c13.626,11.754 29.211,21.921 40.325,35.699c10.673,13.215 4.529,28.744 -4.328,43.667c-21.062,-23.411 -21.962,-54.449 -35.842,-79.545l-0.155,0.179Z" style="fill:#fff;fill-rule:nonzero;"/><path d="M406.321,1480.71c-5.474,-13.373 -10.948,-26.745 -16.435,-40.066c-0.017,0.042 -0.211,0.514 -0.228,0.555c2.087,-1.997 4.197,-4.049 8.726,-8.455c2.944,17.887 5.406,32.941 7.834,48.077c-0.048,0.078 0.103,-0.111 0.103,-0.111" style="fill:#fff;fill-rule:nonzero;"/></g><g opacity="0.4"><path d="M1997.67,803.591c1.04,-0.11 2.08,-0.22 3.129,-0.34c3.32,-12.818 6.4,-25.707 10.069,-38.425c1.78,-6.219 5.159,-11.998 6.819,-18.237c0.74,-2.8 0.18,-7.749 -1.7,-9.149c-13.218,-9.798 -26.936,-18.917 -40.484,-28.255c-1.08,0.579 -2.169,1.179 -3.259,1.769c8.478,30.886 16.947,61.761 25.426,92.637m26.406,-56.112c-3.459,34.585 -6.809,68.22 -10.168,101.855l-6.29,1.25c-4.389,-6.469 -10.578,-12.369 -12.818,-19.517c-6.109,-19.518 -9.208,-40.015 -15.967,-59.262c-8.489,-24.186 -20.497,-47.153 -28.776,-71.399c-3.12,-9.119 -0.05,-20.337 0.19,-30.596l3.929,-2.849c11.999,7.159 24.077,14.188 35.975,21.497c17.157,10.508 34.005,21.566 51.412,31.645c5.63,3.259 12.629,4.159 20.357,6.559c0.17,-4.459 0.33,-8.559 0.48,-12.698c9.859,-2.96 14.168,2.739 17.418,10.968c4.629,11.668 9.778,23.137 15.188,35.815c-15.098,3.569 -28.276,13.358 -42.344,-1.77c-8.499,-9.158 -9.689,-8.039 -28.586,-11.498" style="fill:#fff;fill-rule:nonzero;"/><path d="M1859.01,790.982c-10.168,6.3 -25.876,9.369 -20.487,28.706c7.219,-10.108 13.848,-19.407 20.487,-28.706m45.104,-27.645c0.89,0.879 1.789,1.769 2.689,2.659c5.929,-5.539 12.019,-10.928 17.518,-16.857c0.47,-0.51 -2.98,-4.65 -5.929,-9.079c-5.72,9.329 -9.999,16.298 -14.278,23.277m22.636,64.84c11.149,-17.797 21.447,-34.235 33.086,-52.802c4.489,21.067 5.659,21.697 -6.699,44.703c-9.209,17.148 -11.419,31.495 1.929,47.353c4.77,5.669 6.349,14.258 8.579,21.757c3.369,11.258 0.73,20.647 -11.778,27.366c1.27,-4.549 2.259,-8.099 4.139,-14.828c-10.248,7.859 -15.628,23.207 -28.436,14.108c-4.629,-3.28 -4.679,-13.018 -7.019,-20.447c11.909,1.12 21.737,2.05 31.576,2.99l2.459,-3.56c-26.166,-32.405 -52.332,-64.82 -79.138,-98.015c-22.507,14.587 -40.984,31.745 -47.743,58.731c-1.92,-1.4 -4.509,-4.859 -6.829,-4.689c-8.399,0.63 -13.818,-3.26 -12.308,-10.809c1.49,-7.439 6.609,-14.178 10.428,-21.067c0.6,-1.08 3.32,-0.91 4.03,-1.999c20.327,-31.566 52.582,-49.563 81.848,-70.58c12.588,-9.049 15.017,-21.247 19.137,-37.334c3.779,5.819 5.979,8.968 7.879,12.288c0.59,1.05 0.12,2.639 0.49,3.869c6.769,23.047 -5.75,36.385 -23.787,46.603c-7.479,4.24 -8.059,9.249 -4.199,16.238c5.269,9.558 10.038,19.397 15.187,29.036c1.59,2.989 3.66,5.719 7.169,11.088" style="fill:#fff;fill-rule:nonzero;"/><path d="M2021.19,660.372l2.72,-0.57c3.33,-12.468 6.479,-24.996 10.069,-37.385c1.949,-6.689 4.969,-13.068 6.799,-19.777c0.669,-2.409 0.26,-6.639 -1.34,-7.889c-13.188,-10.278 -26.776,-20.037 -40.244,-29.965c-1.2,0.72 -2.4,1.45 -3.6,2.17c8.539,31.135 17.068,62.28 25.596,93.416m97.796,-43.544c-10.448,2.85 -18.707,7.459 -26.236,6.459c-7.239,-0.96 -13.858,-7.479 -20.437,-12.018c-4.759,-3.289 -5.949,-15.378 -15.708,-5.559c-0.95,0.96 -5.369,-1.52 -8.609,-2.55c-6.909,34.265 -3.189,69.28 -13.787,106.035c-6.38,-7.379 -12.009,-11.209 -13.728,-16.348c-6.19,-18.557 -11.139,-37.544 -16.418,-56.412c-3.24,-11.588 -6.219,-23.236 -10.299,-38.544c-1.389,6.029 -1.839,7.909 -3.079,13.238c-4.679,-18.057 -5.719,-34.675 -13.238,-47.483c-7.249,-12.348 -4.889,-22.727 -3.15,-34.355c0.23,-1.55 1.42,-2.959 3.34,-6.769c11.218,6.789 21.867,13.138 32.425,19.627c18.967,11.639 37.735,23.637 56.952,34.875c4.849,2.84 11.058,3.36 15.757,4.689c3.7,-4.299 7.079,-8.218 12.908,-14.987c8.259,17.767 15.398,33.125 23.307,50.102" style="fill:#fff;fill-rule:nonzero;"/><path d="M2109.93,539.98c16.428,22.496 32.855,44.993 49.523,67.81c22.577,-20.217 35.345,-47.063 65.31,-55.322c-0.99,4.449 -1.859,8.338 -2.899,12.988c2.409,-1.77 4.429,-3.25 6.449,-4.739c-0.65,-0.31 -1.3,-0.61 -1.94,-0.93c-17.907,27.026 -34.365,55.201 -54.722,80.208c-4.939,6.069 -13.008,10.698 -16.277,19.257c-1.5,3.949 -3.54,7.689 -5.33,11.528c-1.389,0.01 -2.789,0.02 -4.169,0.02c-1.03,-8.828 -1.91,-17.697 -3.16,-26.506c-0.509,-3.619 -1.199,-7.479 -2.899,-10.638c-7.409,-13.748 -15.218,-27.286 -24.646,-44.024c19.227,5.539 20.616,24.047 35.894,33.835c-16.737,-24.966 -31.955,-46.483 -45.823,-68.83c-8.249,-13.278 -17.397,-27.276 -20.377,-42.113c-2.06,-10.219 5.769,-22.427 9.169,-33.745c1.259,0.16 2.529,0.33 3.789,0.5c7.429,14.547 15.508,28.835 21.807,43.873c1.44,3.42 -3.31,9.419 -5.209,14.238c-1.5,0.86 -2.99,1.73 -4.49,2.59" style="fill:#fff;fill-rule:nonzero;"/></g><path d="M1394.66,358.771c7.24,-5.644 13.432,-9.448 18.262,-14.407c19.378,-19.931 19.66,-20.367 4.431,-40.948c-7.614,-10.308 -15.217,-21.272 -29.457,-27.072c-1.415,6.215 -3.898,11.215 -3.326,15.682c2.693,20.996 6.23,41.842 10.09,66.745m176.539,-81.713c-24.884,-16.692 -31.429,-44.865 -58.492,-57.789c-0.996,4.565 -2.482,7.934 -2.286,11.105c0.625,10.08 1.238,20.209 3.01,30.064c4.208,23.568 4.47,23.515 30.379,23.602c3.875,0.009 7.915,0.733 11.606,-0.198c4.489,-1.128 8.693,-3.652 15.783,-6.784m94.063,173.592c7.993,-21.861 16.132,-42.43 22.827,-63.329c2.312,-7.182 0.385,-15.245 1.63,-22.805c0.869,-5.222 2.609,-13.145 6.226,-14.746c5.942,-2.631 14.471,-2.759 20.406,-0.667c3.035,1.063 4.828,9.561 3.678,14.153c-5.169,20.811 -12.443,40.845 -13.271,62.765c-0.525,13.789 -12.831,28.048 -20.578,41.781c-0.801,1.401 -7.215,1.696 -10.026,0.566c-39.663,-16.023 -78.987,-32.714 -118.814,-48.422c-13.011,-5.14 -27.03,-8.646 -41.044,-11.156c-3.091,-0.546 -10.379,5.694 -11.987,9.871c-9.324,24.367 -16.196,49.482 -26.553,73.472c-8.928,20.67 -21.213,40.276 -32.418,60.166c-3.872,6.901 -9.808,7.456 -17.888,6.385c-10.785,-1.448 -22.262,0.437 -33.43,0.504c-5.001,0.027 -11.714,0.877 -14.597,-1.668c-10.274,-9.103 -19.437,-19.328 -28.479,-29.571c-1.62,-1.835 -1.961,-6.943 -0.482,-8.43c1.81,-1.82 6.782,-2.666 9.288,-1.701c5.01,1.918 9.492,5.089 13.802,8.212c14.261,10.31 39.84,10.547 52.795,-2.233c9.608,-9.481 16.422,-21.747 22.861,-33.485c1.082,-1.985 -5.312,-8.548 -9.556,-11.308c-10.349,-6.759 -21.477,-12.534 -32.288,-18.698c0.79,-1.398 1.581,-2.795 2.371,-4.193c4.783,1.55 9.739,2.783 14.298,4.732c7.731,3.289 15.046,7.356 22.84,10.526c11.739,4.766 22.437,-0.331 27.231,-12.329c6.104,-15.288 12.454,-30.511 18.437,-45.827c1.168,-2.981 2.761,-7.406 1.394,-9.282c-8.701,-11.931 -18.154,-23.333 -27.433,-34.87c-0.726,-0.899 -1.974,-1.967 -3.046,-1.943c-20.871,0.22 -42.093,-6.853 -62.433,5.911c-12.885,8.087 -12.438,21.821 -15.7,33.292c-2.892,10.086 -1.035,21.032 -1.991,31.581c-0.942,10.328 -2.799,20.617 -4.238,30.93l-4.977,0.124c-0.652,-10.703 -1.6,-21.402 -1.885,-32.15c-0.329,-12.605 -0.182,-25.281 -0.039,-37.922c0.088,-7.883 -3.063,-11.096 -11.98,-8.959c-5.948,1.441 -12.169,1.54 -18.266,2.238c-0.44,-1.416 -0.888,-2.818 -1.328,-4.234c4.871,-2.929 9.63,-6.083 14.63,-8.769c9.497,-5.087 14.202,-10.463 11.327,-21.96c-8.041,-32.159 -9.974,-65.295 -6.296,-99.056c1.981,-18.169 5.409,-21.466 27.439,-21.031c0.433,14.241 8.022,24.028 23.01,28.258c2.572,0.719 4.719,3.296 6.424,5.478c9.142,11.673 17.274,24.18 27.401,35.016c6.613,7.081 15.238,13.256 24.386,17.227c10.91,4.752 17.089,11.047 16.569,22.761c-0.568,12.78 8.879,18.385 19.826,27.013c1.479,-14.528 3.349,-25.646 -6.356,-34.397c-8.396,-7.571 -10.748,-16.664 -5.794,-27.544c10.358,-22.684 2.736,-43.968 -1.106,-65.541c-0.984,-5.488 -3.896,-11.498 -2.28,-16.434c3.93,-12.014 6.691,-22.916 -2.986,-32.945c-1.226,-1.257 0.563,-7.072 2.716,-8.897c3.936,-3.329 9.027,-5.739 13.988,-7.511c1.76,-0.627 4.997,1.257 6.794,2.786c18.549,15.719 37.549,31.04 55.142,47.67c9.109,8.611 16.325,19.211 23.09,29.705c5.432,8.427 12.069,8.432 20.891,4.978c5.61,-2.206 11.465,-3.75 17.223,-5.591c0.886,1.134 1.792,2.252 2.689,3.383c-4.182,3.963 -7.805,8.797 -12.649,11.697c-10.295,6.178 -8.189,11.057 -1.289,17.208c16.087,14.377 31.765,29.141 47.537,43.824c1.052,0.967 1.467,2.561 0.489,6.411c-3.621,-1.584 -7.86,-2.511 -10.777,-4.865c-9.551,-7.7 -17.846,-16.912 -28.063,-23.691c-12.256,-8.122 -25.12,-16.668 -39.374,-20.666c-12.701,-3.555 -23.958,6.538 -32.892,15.819c-7.169,7.471 -13.873,15.435 -19.994,23.669c-2.278,3.081 -3.194,7.604 -3.213,11.391c-0.174,25.414 12.307,42.649 35.515,54.345c30.457,15.355 59.9,32.312 89.838,48.493c3.133,1.693 6.667,2.783 10.788,4.485" style="fill:#fff;fill-opacity:0.4;fill-rule:nonzero;"/></g></svg>