<?xml version="1.0" encoding="UTF-8" standalone="no"?><!DOCTYPE svg PUBLIC "-//W3C//DTD SVG 1.1//EN" "http://www.w3.org/Graphics/SVG/1.1/DTD/svg11.dtd"><svg width="100%" height="100%" viewBox="0 0 1240 867" version="1.1" xmlns="http://www.w3.org/2000/svg" xmlns:xlink="http://www.w3.org/1999/xlink" xml:space="preserve" xmlns:serif="http://www.serif.com/" style="fill-rule:evenodd;clip-rule:evenodd;stroke-linejoin:round;stroke-miterlimit:2;"><g><g><path d="M947.083,240l0,6.25l0,-6.25Z" style="fill:#fff;fill-rule:nonzero;"/><path d="M1124.58,416.667c5,-9.584 -2.083,-19.167 0,-30.417c-3.333,-10.417 -2.083,-22.917 -5.416,-33.333c-0.417,-6.25 3.333,-12.917 1.25,-18.334c5.833,-16.25 1.666,-36.25 4.166,-52.5c1.667,-2.5 3.334,-5 3.334,-8.333c-1.667,-17.917 -1.25,-31.25 -0.834,-49.583c1.25,-6.25 2.917,-13.334 -3.333,-17.917c-5.417,-4.167 -11.25,-2.083 -16.25,0.417c-21.667,-0.834 -41.25,1.666 -62.5,2.083c-25.833,-3.333 -49.167,1.667 -73.333,-2.083c-3.334,-2.084 -7.917,-2.084 -12.084,-2.084c-3.333,4.584 -11.666,4.167 -12.083,11.667c-0.417,-1.25 -1.667,-2.083 -1.667,-3.75c-4.166,-6.25 -12.083,-8.333 -19.166,-6.667c-6.25,3.334 -15.834,0.834 -22.084,2.084c-18.75,-3.334 -36.25,-2.917 -55.416,-4.167c-20.417,0 -42.5,-3.333 -62.084,2.917c-12.5,2.083 -31.25,-7.5 -37.083,8.75c-4.167,21.666 3.75,42.083 -0.417,63.75c-2.083,40.833 5.834,80 3.75,120.833c-1.25,7.917 2.084,17.5 -0.833,25c-2.917,6.25 3.75,10.417 0.833,16.25c2.5,9.167 12.917,3.333 19.167,5c54.583,1.25 103.75,2.5 153.333,-10.417c5.834,-0.416 13.75,1.25 18.334,-3.333c-3.75,-17.083 -5.417,-34.583 -7.917,-52.5c-5.417,-30.833 -10,-65 5.833,-92.917c-0.416,-14.583 4.167,-26.666 5,-40.416l0,-6.25l0,30.833c2.5,45 4.167,89.167 2.917,135c7.083,10.833 -4.583,20 -0.417,31.667c3.334,4.166 11.667,0.416 16.25,3.333c23.75,-3.333 48.75,2.917 71.25,-5.417c11.25,1.25 24.584,2.084 35.834,3.334c14.166,4.583 28.333,0.416 43.75,1.666c3.75,2.084 8.333,2.084 12.083,0c1.667,-8.333 -2.5,-16.666 -4.167,-24.166Zm-305.416,-203.334c32.5,1.667 67.916,-0.833 101.25,0c0.833,6.25 0.833,14.584 0,21.25c-4.584,-16.25 -25,-4.583 -35.417,-11.666c-3.75,-2.917 -7.917,-4.167 -12.5,-5c-5.417,3.75 -9.583,9.166 -7.083,15.833c6.25,7.917 0.416,19.583 7.916,27.083l1.667,6.25c-5,3.334 -10.417,0 -14.583,5c-4.167,0 -6.25,-4.583 -9.584,-5.416l-7.083,-2.084c2.083,-7.083 -2.917,-12.5 -3.333,-19.583c4.583,-2.083 9.583,-5.833 13.75,-8.75c-3.334,-5 -1.667,-13.75 -9.584,-14.583c-3.75,-1.667 -8.75,-2.917 -13.333,-1.667l-4.583,4.583l1.25,34.167c-0.417,2.5 5.416,4.583 0.833,6.25c-4.583,-1.667 -6.667,2.917 -9.167,5.417c-1.666,5.416 4.167,13.75 -5,13.75l-2.083,0c2.917,-0.834 6.667,-5 4.583,-8.75c-2.083,-5 -12.083,-1.25 -9.166,-8.334c-2.5,-6.25 -5,-14.166 0,-20.833c5.833,-0.833 3.333,-7.5 7.083,-10.417c-3.75,-4.166 0.833,-11.25 -5.417,-14.583c-2.5,-2.083 -5.416,-2.5 -8.75,-2.083c2.917,-6.25 11.667,-4.584 18.334,-5.834Zm101.25,23.334l0,35.416c-12.084,-3.75 -23.334,0.417 -35.417,-3.333c2.5,-6.25 -1.25,-17.5 8.333,-22.5c1.667,-8.75 10.834,-7.083 17.084,-9.167c2.916,1.25 7.5,3.75 10,-0.416Zm-86.667,43.75l0.417,-4.167l8.75,1.667c-1.25,8.75 4.583,16.666 0.833,24.583l-3.333,0c2.5,-7.917 1.25,-16.667 -6.667,-22.083Zm-10.417,141.666l-4.166,0c2.916,-2.916 0.416,-5.833 -0.417,-8.75c-2.917,-11.25 7.917,-19.583 0.833,-30l-3.75,-2.916c-1.25,-13.75 -5,-27.917 0.834,-40.417c0,-10.833 -13.334,-18.333 -7.084,-30l2.917,-8.333c3.333,-0.417 5.833,0.833 8.333,2.083c-4.166,24.583 10.417,45.417 6.667,69.583c1.667,13.75 1.25,26.25 0.417,39.584c-1.667,3.75 -5.417,5.416 -4.584,9.166Zm-28.333,-48.75c0.417,-5.833 3.75,-10.416 5.417,-15.833c2.916,-0.833 3.75,2.5 3.75,4.167c4.583,11.25 -2.084,25.416 3.75,35.833c2.083,8.333 7.083,15.833 5.833,24.583l-4.583,2.917c-2.084,-5 -10.834,0 -10.417,-7.5c-2.917,-0.833 -1.667,-4.167 -1.25,-6.25c2.083,-3.75 2.083,-9.583 4.583,-14.167c2.917,-10 -8.75,-13.333 -7.083,-23.75Zm-32.5,-63.333c4.167,-10.417 6.25,-23.75 2.083,-34.583c1.25,-8.75 -4.583,-18.75 0.417,-27.084c-2.917,-8.333 -1.25,-15.416 -0.833,-24.583c6.25,0.833 11.25,-5.417 19.166,-3.333c-0.833,1.25 -1.666,2.916 -2.916,3.333c-5.417,-1.25 -8.75,3.75 -11.667,6.667c2.083,7.083 8.75,-2.917 9.583,5.416c11.667,-1.25 3.334,10.834 8.334,15.834c2.083,4.583 -3.334,8.333 -5.834,11.25c-15.833,1.666 -6.25,22.5 -10.416,32.083c-5.834,12.5 -3.75,28.75 -8.334,42.083l-0.833,0.834c-1.667,-8.75 2.917,-17.084 1.25,-27.917Zm110,111.667l0.833,6.25c-31.666,3.333 -58.75,7.083 -90.416,7.916c-7.084,-0.833 -13.334,2.917 -20,1.667c-2.917,-4.167 5.416,-3.75 2.083,-8.333c-4.583,-7.5 -4.583,-17.084 -4.167,-26.667c-2.083,-11.25 2.084,-24.167 -1.666,-35.417c3.75,-6.25 -3.75,-16.25 4.166,-18.333c4.167,-2.083 2.084,-11.25 9.584,-8.75c3.333,-5.417 2.083,-12.917 7.083,-17.5c0.417,-8.333 3.333,-15 3.75,-23.333c3.75,9.166 -0.417,17.083 2.5,26.25c-10.833,13.75 1.667,29.583 1.667,44.583c0.416,7.083 -2.917,12.917 -4.584,19.167c-2.916,15 7.5,27.916 1.667,40.833c5,4.583 10.833,-3.75 15.833,0.417c3.334,0.833 5.417,-1.667 7.5,-3.334c-0.416,5.834 6.25,2.917 9.167,4.167c8.333,-4.583 16.25,4.583 22.917,-3.75l0.833,-1.667c-2.083,-3.333 -9.167,-4.583 -7.083,-9.583c-2.084,-9.167 2.083,-17.083 1.25,-27.083c0.833,-10.417 6.666,-18.75 7.916,-28.75c3.334,4.583 -0.416,10 1.667,15c4.167,14.166 5.417,29.583 10.833,42.916c2.917,3.334 5.834,0 9.167,-0.833c6.25,-2.083 -0.833,-6.667 -1.25,-9.583c-3.333,-15.417 -2.083,-30.417 -7.083,-45c-3.75,-14.167 4.583,-25.417 0.833,-39.584c-2.917,-9.166 0.833,-18.75 3.333,-26.666c2.917,-4.167 -2.083,-13.75 6.667,-13.334c2.917,23.75 0.833,48.75 2.083,72.5c3.334,7.084 1.25,17.084 2.084,26.25c2.916,9.584 0.416,21.667 4.166,31.25c-0.416,3.334 0.834,6.667 -3.333,8.334Zm60.833,3.333c-13.75,-0.833 -32.083,3.75 -48.75,2.917c-0.833,-1.25 1.667,-1.667 2.084,-3.75c4.166,-6.667 -7.917,-8.334 -0.417,-13.75c0,-4.167 2.083,-9.167 2.083,-14.167c-3.75,-7.083 11.25,-9.167 4.167,-16.667c1.25,-5.416 -4.583,-9.166 -0.833,-14.166c-1.667,-3.75 -3.334,-8.75 0,-12.5c1.25,-0.834 1.666,-2.917 3.75,-2.084c0.833,4.167 5.416,7.084 6.25,11.25c1.25,19.167 10,34.584 14.583,52.084c1.25,1.25 3.333,2.5 4.583,1.25l1.25,-1.667c3.75,-9.167 -7.916,-17.5 1.667,-25c2.083,-10.417 -10.417,-12.917 -7.083,-23.75c-2.5,-7.083 -3.334,-15.417 -8.334,-21.25c-1.666,-5.417 0.417,-10 3.75,-13.75c-2.083,-8.333 0.834,-18.333 -7.916,-24.167l-4.167,-20.833c5.833,-6.667 13.333,1.25 21.25,-0.417c5.417,46.667 2.5,91.667 8.75,136.667l3.333,3.75Zm182.5,-5.417c-37.916,0.834 -81.666,1.25 -121.25,1.667c-13.333,-0.833 -25.833,3.333 -37.5,2.917c-1.25,-13.334 0.834,-23.334 3.334,-36.25c1.25,-11.667 -0.417,-23.75 0.833,-36.667c10.833,-15 -5.417,-35 7.5,-49.167c0.417,-23.75 -1.25,-46.666 1.667,-69.583c-1.667,-4.583 -0.834,-10.417 -5.417,-14.167c15,6.25 34.167,2.917 47.917,-3.333c10.833,-2.917 21.666,3.333 32.5,1.25c20.833,-5.417 39.166,-5.417 61.25,-4.167l2.083,28.75c-2.083,11.667 2.083,25.417 0.417,37.917c-1.25,42.917 7.083,87.917 5.416,130.833c2.5,3.334 2.5,7.084 1.25,10Z" style="fill:#fff;fill-rule:nonzero;"/><path d="M1094.17,307.917c0,-3.75 -1.25,-9.167 1.666,-12.5c-1.666,-3.75 -5.833,-5.834 -9.583,-5.834c-6.667,-1.25 -5.833,6.667 -9.167,9.584c-3.75,-1.25 -8.75,0.416 -12.083,-1.667c0.833,-7.083 -2.917,-12.5 -1.667,-19.583c-3.75,-7.917 -0.833,-18.75 -7.083,-25.417c-2.083,-4.167 3.333,-7.5 5.833,-10c1.25,-5 -1.666,-10 -5.416,-13.75c1.666,-2.083 5.416,-1.667 5.416,-4.583c-3.75,-6.25 -12.916,-8.334 -19.583,-5c1.25,5 -2.917,9.583 -1.667,14.166c3.75,5 -2.916,10.417 1.25,15c-2.083,4.167 -2.916,10 -1.666,14.167c-7.084,0.417 -6.667,9.167 -12.917,11.667c-14.583,3.333 -26.667,12.916 -39.167,20c-13.333,16.25 -13.75,37.916 -12.5,59.166c3.75,18.75 13.334,37.5 32.5,45.834c4.584,2.5 10.834,2.5 15.417,5.416c-0.833,5.834 5.833,4.584 8.333,8.75l10.834,1.667c2.916,-1.25 4.583,-3.333 6.666,-6.25c2.084,-0.417 3.334,1.25 4.584,2.083c4.583,5 11.25,0.417 14.166,-4.166c-1.25,-12.084 7.5,-24.584 -1.25,-36.25c-1.666,-3.75 -1.666,-7.5 0,-11.25c6.25,0.416 11.25,-3.334 17.5,-1.667c-0.833,1.25 -0.833,2.917 -2.083,3.75c-5.417,0.417 -4.583,5.417 -4.583,9.167c2.083,14.166 15,23.75 12.5,40c1.666,2.916 5.416,2.083 8.333,2.083c1.25,-1.25 3.333,-1.667 3.333,-3.75c-2.916,-13.333 0.834,-25 0.834,-37.917c0.833,-6.25 -3.75,-6.666 -3.75,-12.5c1.25,-1.666 3.333,-2.083 4.583,-2.916c2.5,-3.75 6.667,-7.917 4.583,-12.917c-6.25,-10.833 -3.333,-25.833 -14.166,-34.583Zm-85.417,-8.75l1.25,19.166l-1.25,1.667l0,-20.833Zm0.833,91.666c-4.583,-0.416 -9.583,-3.333 -12.5,-8.333c0,-7.917 -8.75,-12.083 -7.083,-20.833c1.25,-13.334 -1.25,-30 2.083,-42.5c1.25,16.666 -0.416,38.75 3.334,55.416l0.416,0.417l1.667,-1.667c-3.75,-26.25 2.917,-51.25 -1.667,-76.25c0.834,-2.083 2.917,-3.333 5,-3.333c1.25,30.417 -3.333,61.25 1.667,92.083c0.833,0.834 1.667,1.25 2.917,1.25l2.083,-2.916l0.833,-58.334l1.667,1.667c2.083,20.833 -0.417,43.75 -0.417,63.333Zm8.334,3.334c-2.917,-15 -3.75,-33.75 -1.667,-49.167c1.667,-5.417 -1.25,-10.833 0.417,-15.417l1.25,0l0,64.584Zm0,-77.917l-1.667,0c-0.417,-8.75 -0.417,-19.167 -5,-26.667l7.083,-3.75c0,9.584 1.667,20.417 -0.416,30.417Zm7.083,75.417l-1.25,-1.667c-0.833,-19.583 -0.417,-38.333 -0.417,-57.5c2.084,0.833 5,0.833 6.667,-1.25c1.667,20 -0.417,41.667 -5,60.417Zm5.417,-96.25c-1.25,1.25 -3.75,1.666 -4.167,3.75c-0.833,3.75 3.75,4.583 5,7.916c-1.667,2.917 1.25,8.334 -2.917,9.167l-6.25,-0.417c-1.666,-11.25 3.75,-22.083 2.917,-34.166c2.083,-1.667 4.167,-3.75 6.667,-3.75l-1.25,17.5Zm19.166,13.75c1.667,0 2.084,0.833 2.917,2.083l-3.75,2.083c-2.083,-1.25 0.417,-2.916 0.833,-4.166Zm-5,-45.417l0.417,4.583c-0.833,-1.25 -2.5,-3.333 -0.417,-4.583Zm0.417,7.917c-1.25,7.083 2.917,17.083 -3.333,21.666l-2.084,0c-0.416,-7.5 2.917,-14.583 5.417,-21.666Zm-4.167,41.25l-1.25,-5.417c1.25,-0.417 2.5,0.417 2.917,1.667c-0.417,1.666 0.833,4.166 -1.667,3.75Zm10.417,41.666c-4.167,2.084 -8.333,2.5 -11.667,5c1.667,-11.25 -0.833,-23.75 1.667,-35.416l1.25,0c0.417,3.75 -1.25,7.916 0.833,11.25c3.334,-1.667 3.334,-6.667 3.334,-9.584c1.666,-1.25 3.75,2.084 5.416,1.25c2.5,7.917 -1.666,17.917 -0.833,27.5Zm1.667,-63.333l-2.084,-0.417c-0.416,-12.916 -0.416,-25.416 2.084,-37.083c-1.667,12.917 5.833,25.417 0,37.5Zm12.5,60c-1.25,-4.167 -3.75,-9.583 -1.25,-14.167c-1.667,-2.083 0,-6.25 1.25,-8.333c5.416,-0.833 9.166,-5.417 13.75,-8.75l2.083,26.667c-5.417,1.666 -10,4.583 -15.833,4.583Z" style="fill:#fff;fill-rule:nonzero;"/><path d="M1070,266.25c0.417,8.333 11.25,10.833 12.083,19.167c14.167,4.583 2.084,-11.667 8.75,-17.084c3.75,-0.833 4.167,5 8.334,3.75c9.166,-1.25 1.25,-8.75 5.416,-13.333c-3.75,-4.167 -9.583,-5 -14.166,-7.5c-7.5,2.083 -17.084,-5.833 -22.084,3.333c-1.25,4.167 -2.5,9.167 1.667,11.667Z" style="fill:#fff;fill-rule:nonzero;"/><path d="M915.417,415.417c-1.25,1.25 -0.417,2.916 1.25,3.75c1.25,0 2.5,3.333 3.75,0.416c-0.417,-2.5 -2.917,-3.333 -5,-4.166Z" style="fill:#fff;fill-rule:nonzero;"/><path d="M856.25,424.583c0.417,1.667 2.083,2.917 3.75,2.084c1.25,-0.417 3.75,-1.25 2.917,-3.334c-1.667,-2.083 -6.667,-2.083 -6.667,1.25Z" style="fill:#fff;fill-rule:nonzero;"/></g><path d="M824.583,495.833c1.25,2.5 -0.416,4.584 -0.416,7.084l-3.334,-0.834c1.25,-1.666 1.667,-4.583 3.75,-6.25Z" style="fill:#fff;fill-rule:nonzero;"/><g><path d="M1133.75,643.75c2.083,-7.083 0.833,-17.5 -1.25,-24.167c-0.417,-34.583 -10.417,-66.666 -9.583,-100c0.833,-7.083 -4.167,-12.916 -1.667,-19.166c-1.667,-18.334 7.917,-37.917 0.417,-54.584c-7.084,0.417 -14.584,-0.833 -22.084,-1.25c-32.083,-5 -65,1.667 -97.083,-0.833c-17.083,5.833 -38.75,-9.583 -50.417,7.083l-0.833,57.084l4.167,131.25l1.25,13.75l12.083,7.083c12.083,-7.5 29.167,0.833 43.75,-3.75c10.833,-2.083 22.917,5.417 35,2.917c22.083,8.333 46.667,2.916 69.167,4.583c5.416,-5.417 14.583,-0.417 20,-6.667c4.166,-4.166 -2.5,-8.75 -2.917,-13.333Zm-110.417,-2.917c-10,3.334 -20.833,0 -30.416,3.75l-18.75,0.834l-1.667,-0.834c-1.25,-31.666 -7.083,-61.25 -1.25,-91.666c5,0.833 7.917,-6.25 12.5,-2.917c4.167,0 9.583,0.417 14.583,-0.417c4.167,-3.333 5.417,-8.75 9.167,-12.083c6.25,5.833 2.917,15.833 9.167,21.667c0.833,14.583 2.083,29.166 1.666,43.75c6.667,7.083 4.584,18.333 5.834,27.916c-1.25,2.917 -2.084,6.667 -0.834,10Zm21.667,0c-0.833,-0.833 -0.417,-2.5 -0.417,-3.75c2.084,-0.833 5,-0.416 5.834,-3.333c-3.75,-7.083 -2.917,-15.833 -9.167,-21.667c1.667,-6.25 -0.417,-13.75 -4.167,-19.166c-0.833,-9.584 -5.416,-18.75 -0.416,-27.917c6.666,8.333 10.416,18.333 20.833,24.167c4.583,13.333 22.5,20.833 21.25,36.666c1.667,2.084 1.667,4.584 4.583,6.25c5.834,-0.416 6.25,-6.666 7.5,-10.833c5,5.417 5.417,13.333 12.5,18.333c-18.333,-0.416 -38.75,2.5 -58.333,1.25Zm65,-75.416c-1.25,18.333 0,41.666 -1.25,60c-4.583,-7.084 -13.75,-7.917 -17.5,-14.584c1.667,-5.833 -5,-10.416 -7.5,-15.833c-7.5,-2.083 -8.333,-10 -15.417,-13.333l0,-10.834c-5.833,-6.25 -5.416,-15.416 -12.5,-21.25c1.25,-2.083 -4.166,-4.166 0,-5c-1.666,-6.666 -7.083,-12.916 -10.833,-18.75c4.167,-0.833 8.75,-2.083 13.333,-3.333c9.584,-3.333 17.084,-12.917 28.75,-12.5c4.584,-2.917 12.917,-0.417 14.584,-7.083c0.833,-3.334 -2.917,-5 -5.417,-5c-14.167,6.666 -32.5,4.583 -47.083,10.416c-11.667,8.334 -19.584,-5.416 -28.334,-10c-0.833,-5.833 7.084,-5.416 7.084,-11.25c3.75,-3.333 8.75,-4.583 14.166,-3.333c3.334,2.917 7.084,1.25 11.25,0.833c1.25,-1.25 2.5,-3.75 1.25,-5.416c-3.333,-4.167 -9.166,-2.917 -14.166,-3.334c-4.584,6.25 -8.75,-2.916 -13.75,-2.083c-7.5,1.25 -12.917,-1.25 -16.25,-7.083c-3.334,-1.667 -7.5,-3.334 -11.667,-2.084c-3.75,1.667 -10,4.167 -10,9.584c-3.333,6.666 3.75,12.083 1.667,17.916c6.25,3.334 5,13.75 13.75,13.75l3.75,9.584c-8.75,7.083 -18.75,11.666 -28.334,17.5l-5.833,6.666c3.333,-19.166 5.417,-40.833 2.083,-60.416c2.5,-5.834 -2.916,-13.334 2.917,-17.917c31.667,1.667 64.167,1.667 95.417,-3.75c12.916,3.333 24.583,-2.917 37.083,-4.167c2.083,37.917 -4.583,75.417 -1.25,112.084Z" style="fill:#fff;fill-rule:nonzero;"/></g><g><path d="M954.167,647.917c-1.667,-3.75 -5.834,-2.917 -9.167,-3.75c-2.5,-3.75 0.417,-7.917 -0.417,-12.5c8.75,-16.667 2.084,-35.834 1.25,-54.167c2.084,-4.167 2.5,-10.417 1.667,-14.583c3.333,-16.667 -0.417,-33.334 0,-50c1.25,-20.417 1.667,-39.584 1.667,-60c-2.917,-7.917 -11.667,-8.75 -19.167,-8.75c-20.833,1.666 -45,1.666 -65.833,2.083c-37.917,4.167 -72.917,10.833 -110.417,5c-5,38.333 -4.167,73.75 -2.5,112.083c-2.083,13.334 4.167,25 0.417,37.084c1.25,22.083 -1.667,44.166 -1.667,65.833c0.833,2.917 4.583,2.917 7.083,4.167c12.917,-3.334 25.417,-7.084 39.167,-8.334c35.417,-2.916 74.583,-1.25 112.083,-1.666c12.084,2.083 27.084,2.916 38.334,-2.084c2.5,-2.083 8.75,-5 7.5,-10.416Zm-23.334,0c-7.5,6.666 -15.416,-1.667 -24.583,1.25c-47.917,0.416 -92.083,0.833 -137.917,5.833c-0.416,0.833 -1.25,0.417 -1.666,0.833c1.25,-16.666 -3.75,-37.083 6.25,-50c2.5,-7.083 1.25,-15 2.083,-23.333c5,-8.75 -0.833,-18.333 2.917,-26.667c-1.25,-7.5 2.083,-15.833 3.333,-23.333c-0.417,-13.333 -0.417,-28.75 -6.25,-40.417c-0.833,-10.833 -5.417,-20 -2.917,-30c4.167,-1.666 11.25,1.25 15.834,-2.083c19.583,3.333 37.916,1.25 57.083,-2.917c17.083,-2.083 36.667,-0.833 54.167,-4.583l23.75,0.833c-3.75,58.334 -0.417,115.834 5.416,172.084c1.25,7.5 3.334,14.166 2.5,22.5Z" style="fill:#fff;fill-rule:nonzero;"/><path d="M909.167,535.833c-2.084,-2.5 -2.084,-5.833 -2.084,-9.166c-1.25,-3.75 -6.666,-4.167 -7.5,-7.917c2.5,-3.75 -2.916,-7.917 -0.833,-12.083c6.25,-4.584 3.75,-16.667 13.75,-15.834c5,-2.083 2.917,-7.916 5,-11.666c-7.083,-4.584 -16.25,-6.667 -25.833,-6.25c-1.667,5 -7.084,0.416 -9.167,4.166c-2.083,2.917 -5.417,5.834 -4.583,9.584c1.25,3.333 3.75,6.666 7.083,8.333c5.417,0.833 6.25,7.083 5,11.25c-0.417,10.417 -11.25,8.333 -18.333,10c-1.667,-2.083 -0.417,-5.833 -3.334,-7.917c-3.333,-3.333 -7.916,-4.166 -12.5,-5c-5,-1.666 -10.833,1.667 -15,-0.833c-0.416,-10 -6.25,-19.167 -3.333,-29.167l-5.417,-9.166c-4.166,-0.417 -3.333,5.416 -6.666,7.083c-2.917,14.167 -7.5,28.75 -19.584,38.75c-7.083,0.417 -14.583,0.833 -18.75,8.333c-4.166,7.5 -5.833,18.75 -2.916,26.25c-0.417,6.667 0.833,14.167 8.333,17.5c-1.667,2.917 -1.667,5.834 1.25,8.334c-1.667,14.166 1.667,26.25 -3.75,39.166c-1.667,12.084 -3.333,22.084 -4.583,34.167c3.75,6.667 7.083,-3.333 11.25,-3.75c2.916,-7.917 10.833,-14.583 6.25,-23.75c4.166,-4.167 3.333,-10 7.083,-14.167c-0.833,-7.916 2.917,-15 7.083,-21.666c1.25,-0.834 2.917,-1.667 4.167,-0.417c0.833,19.583 -2.917,38.75 -5.417,57.5l2.084,2.917l3.333,-2.917c2.083,-11.667 2.5,-24.167 6.25,-35.417c2.917,-7.5 0.417,-18.75 7.5,-25.416c10.833,-0.834 6.25,11.666 10.417,17.916c8.333,7.5 10.416,18.75 14.583,28.334l1.667,0c2.083,-3.75 0.833,-8.75 -1.25,-12.084c-4.167,-11.25 1.25,-21.666 -0.417,-33.333c1.667,-0.417 4.583,0.833 5.833,-0.833c2.917,-2.917 1.667,-5.417 1.25,-8.75c2.5,-13.334 1.667,-24.167 2.917,-37.5c3.75,-2.917 9.167,-6.25 14.583,-3.334l0.417,37.5c9.167,14.584 1.25,28.75 0.417,44.584c3.75,7.916 -2.5,16.666 -2.917,24.583c3.75,3.333 8.333,7.083 14.167,6.25c7.916,-3.75 5.416,-14.167 6.666,-21.25c-11.666,-9.583 -5.416,-25.833 -5.416,-38.75c0.833,-1.25 0,-4.167 2.916,-3.75c9.167,20.417 8.334,45 13.75,67.5c0.834,2.5 3.75,3.333 5.834,2.083c-2.084,-23.75 -9.167,-45.416 -8.75,-70.416c-2.5,-12.084 -1.25,-26.667 -2.5,-39.584Z" style="fill:#fff;fill-rule:nonzero;"/><path d="M861.667,635.417c1.25,2.083 1.666,5.833 4.166,6.666c2.084,-1.25 4.167,-3.75 4.584,-6.25c0,-5.833 -8.75,-7.5 -8.75,-0.416Z" style="fill:#fff;fill-rule:nonzero;"/></g></g><path d="M164.583,217.5l0,21.667l-23.333,0l0,102.083l-24.167,0l0,-102.083l-23.333,0l0,-21.667l70.833,0Z" style="fill:#fff;fill-rule:nonzero;"/><path d="M257.083,341.25l-67.083,0l0,-123.75l66.667,0l0,21.667l-42.5,0l0,28.333l42.916,0l0,21.25l-42.916,0l0,30.417l42.916,0l0,22.083Z" style="fill:#fff;fill-rule:nonzero;"/><path d="M312.5,315.417l-9.583,25.833l-25,0l47.916,-123.75l20.834,0l47.5,123.75l-25.834,0l-10,-25.833l-45.833,0Zm37.917,-22.917l-14.584,-40l-15,40l29.584,0Z" style="fill:#fff;fill-rule:nonzero;"/><path d="M471.25,217.5l0,21.667l-23.333,0l0,102.083l-24.167,0l0,-102.083l-23.333,0l0,-21.667l70.833,0Z" style="fill:#fff;fill-rule:nonzero;"/><path d="M520.833,341.25l-24.166,0l0,-123.75l29.583,0c9.167,0 16.25,0.417 20.833,0.833c4.584,0.834 8.334,1.667 11.667,3.334c7.083,3.333 12.5,7.916 16.25,13.75c3.75,5.833 5.417,12.916 5.417,20.833c0,9.583 -2.5,17.5 -7.917,24.167c-5.417,6.666 -12.5,10.833 -21.667,12.5l30.834,47.916l-28.75,0l-32.084,-57.083l0,57.5Zm0,-63.75l5.417,0c10,0 17.083,-1.667 22.5,-5.417c5,-3.333 7.5,-8.75 7.5,-15.416c0,-6.667 -2.083,-11.25 -6.25,-14.584c-4.167,-2.916 -10.833,-4.583 -20,-4.583l-9.167,0l0,40Z" style="fill:#fff;fill-rule:nonzero;"/><path d="M597.083,279.167c0,-6.667 0.834,-13.334 2.917,-19.167c1.667,-5.833 4.583,-11.667 7.917,-17.083c6.25,-8.75 13.75,-15.834 22.916,-20.417c9.167,-5 19.167,-7.083 30.417,-7.083c8.333,0 16.25,1.666 23.75,4.583c7.5,3.333 14.583,7.917 20.417,13.75c6.25,6.25 10.833,12.917 14.166,20.833c3.334,7.5 5,15.834 5,24.167c0,8.75 -1.666,17.083 -4.583,25c-2.917,7.917 -7.5,14.583 -13.333,20.833c-5.834,6.25 -12.917,11.25 -20.834,14.584c-7.916,3.333 -16.25,5 -24.583,5c-9.167,0 -17.917,-1.667 -25.417,-5c-7.916,-3.334 -14.583,-8.334 -20.833,-14.584c-5.833,-6.25 -10,-12.916 -13.333,-20.416c-3.334,-8.334 -4.584,-16.25 -4.584,-25Zm25.417,-0.834c0,5.417 0.833,10.417 2.5,15c1.667,4.584 4.167,8.75 7.917,12.5c3.75,4.167 7.916,7.5 12.916,9.584c5,2.083 10,3.333 15,3.333c10.834,0 20,-3.75 27.084,-11.667c7.5,-7.5 10.833,-17.5 10.833,-28.75c0,-10.416 -3.75,-19.583 -11.25,-27.083c-7.5,-7.5 -16.25,-11.25 -26.667,-11.25c-10.833,0 -20,3.75 -27.5,11.25c-7.083,7.5 -10.833,16.25 -10.833,27.083Z" style="fill:#fff;fill-rule:nonzero;"/><path d="M216.667,417.083l-29.584,0c-3.333,-4.583 -7.5,-8.333 -12.5,-10.833c-5,-2.5 -10.416,-3.75 -16.666,-3.75c-5,0 -9.584,0.833 -14.167,2.917c-4.583,1.666 -8.333,4.583 -12.083,8.333c-3.75,3.75 -6.667,7.917 -8.334,12.917c-2.083,5 -2.916,10 -2.916,15c0,11.25 3.75,20.833 10.833,28.333c7.083,7.5 16.25,11.667 26.667,11.667c6.25,0 11.666,-1.25 16.25,-3.334c5,-2.083 8.75,-5.416 11.666,-10l29.584,0c-5.834,12.5 -13.334,22.084 -22.917,28.334c-9.583,6.25 -21.25,9.583 -34.583,9.583c-9.167,0 -17.917,-1.667 -25.834,-5.417c-7.916,-3.75 -15,-8.75 -21.25,-15.833c-5.416,-5.833 -9.166,-12.5 -12.083,-20c-2.917,-7.5 -4.167,-15.417 -4.167,-23.75c0,-8.75 1.667,-16.667 5,-24.583c3.334,-7.917 7.917,-14.584 14.584,-21.25c5.833,-5.834 12.5,-10.417 20,-13.334c7.5,-2.916 15.416,-4.583 23.75,-4.583c13.333,0 25,3.333 34.583,9.583c10.417,6.667 18.333,16.667 24.167,30Z" style="fill:#fff;fill-rule:nonzero;"/><path d="M298.333,503.75l-66.666,0l0,-123.75l66.666,0l0,21.667l-42.916,0l0,28.333l42.916,0l0,21.25l-42.916,0l0,30.417l42.916,0l0,22.083Z" style="fill:#fff;fill-rule:nonzero;"/><path d="M338.75,503.75l-23.75,0l0,-123.75l22.917,0l51.25,79.167l0,-79.167l23.75,0l0,123.75l-22.5,0l-51.667,-81.25l0,81.25Z" style="fill:#fff;fill-rule:nonzero;"/><path d="M498.333,380l0,21.667l-23.333,0l0,102.083l-24.167,0l0,-101.667l-23.333,0l0,-21.666l70.833,0l0,-0.417Z" style="fill:#fff;fill-rule:nonzero;"/><path d="M534.167,503.75l-24.167,0l0,-123.75l29.583,0c9.167,0 16.25,0.417 20.834,0.833c4.583,0.834 8.333,1.667 11.666,3.334c7.084,3.333 12.5,7.916 16.25,13.75c3.75,5.833 5.417,12.916 5.417,20.833c0,9.583 -2.5,17.5 -7.917,24.167c-5.416,6.666 -12.5,10.833 -21.666,12.5l30.833,47.916l-28.75,0l-32.083,-57.5l0,57.917Zm0,-63.333l5.416,0c10,0 17.084,-1.667 22.5,-5.417c5,-3.333 7.5,-8.75 7.5,-15.417c0,-6.666 -2.083,-11.25 -6.25,-14.583c-4.166,-2.917 -10.833,-4.583 -20,-4.583l-9.166,0l0,40Z" style="fill:#fff;fill-rule:nonzero;"/><path d="M603.333,441.667c0,-6.667 0.834,-13.334 2.917,-19.167c1.667,-5.833 4.583,-11.667 7.917,-17.083c6.25,-8.75 13.75,-15.834 22.916,-20.417c9.167,-5 19.167,-7.083 30.417,-7.083c8.333,0 16.25,1.666 23.75,4.583c7.5,3.333 14.583,7.917 20.417,13.75c6.25,6.25 10.833,12.917 14.166,20.833c3.334,7.917 5,15.834 5,24.167c0,8.75 -1.666,17.083 -4.583,25c-2.917,7.917 -7.5,14.583 -13.333,20.833c-5.834,6.25 -12.917,11.25 -20.834,14.584c-7.916,3.333 -16.25,5 -24.583,5c-9.167,0 -17.917,-1.667 -25.417,-5c-7.916,-3.334 -14.583,-8.334 -20.833,-14.584c-5.833,-6.25 -10,-12.916 -13.333,-20.416c-2.917,-7.917 -4.584,-16.25 -4.584,-25Zm25.417,-0.834c0,5.417 0.833,10.417 2.5,15c1.667,4.584 4.167,8.75 7.917,12.5c3.75,4.167 7.916,7.5 12.916,9.584c5,2.083 10,3.333 15,3.333c10.834,0 20,-3.75 27.084,-11.667c7.5,-7.916 10.833,-17.5 10.833,-28.75c0,-10.416 -3.75,-19.583 -11.25,-27.083c-7.5,-7.5 -16.25,-11.25 -26.667,-11.25c-10.833,0 -20,3.75 -27.5,11.25c-7.083,7.5 -10.833,16.667 -10.833,27.083Z" style="fill:#fff;fill-rule:nonzero;"/><path d="M144.583,661.667l-42.083,0l0,-123.75l41.25,0c11.25,0 20,1.25 27.083,3.333c6.667,2.083 12.917,6.25 18.334,11.25c5.833,5.833 10.416,12.5 13.333,20.417c2.917,7.916 4.583,17.083 4.583,27.083c0,11.25 -2.083,21.25 -6.25,30c-4.166,8.75 -10.416,16.25 -18.333,22.083c-4.583,3.334 -9.583,5.834 -15.417,7.084c-5.416,1.666 -12.916,2.5 -22.5,2.5Zm-1.25,-21.25c13.334,0 23.334,-3.334 29.584,-10c6.25,-6.667 9.583,-16.667 9.583,-30.834c0,-12.916 -3.333,-22.916 -10.417,-30c-7.083,-7.083 -16.666,-10.833 -29.166,-10.833l-15.834,0l0,81.25l16.25,0l0,0.417Z" style="fill:#fff;fill-rule:nonzero;"/><path d="M288.75,661.667l-66.667,0l0,-123.75l66.667,0l0,21.666l-42.917,0l0,28.334l42.917,0l0,21.25l-42.917,0l0,30.416l42.917,0l0,22.084Z" style="fill:#fff;fill-rule:nonzero;"/><path d="M370.417,635.833l-9.584,25.834l-25,0l47.917,-123.75l20.833,0l47.5,123.75l-25.833,0l-9.583,-25.834l-46.25,0Zm37.916,-22.916l-14.583,-40l-15,40l29.583,0Z" style="fill:#fff;fill-rule:nonzero;"/><path d="M488.75,661.667l-24.167,0l0,-123.75l29.584,0c9.166,0 16.25,0.416 20.833,0.833c4.583,0.833 8.333,1.667 11.667,3.333c7.083,3.334 12.5,7.917 16.25,13.75c3.75,5.834 5.416,12.917 5.416,20.834c0,9.583 -2.5,17.5 -7.916,24.166c-5.417,6.667 -12.5,10.834 -21.667,12.5l30.833,47.917l-28.75,0l-32.083,-57.5l0,57.917Zm0,-63.75l5.417,0c10,0 17.083,-1.667 22.5,-5.417c5,-3.333 7.5,-8.75 7.5,-15.417c0,-6.666 -2.084,-11.25 -6.25,-14.583c-4.167,-2.917 -10.834,-4.583 -20,-4.583l-9.167,0l0,40Z" style="fill:#fff;fill-rule:nonzero;"/><path d="M628.333,537.917l0,21.666l-23.333,0l0,102.084l-24.167,0l0,-102.084l-23.333,0l0,-21.666l70.833,0Z" style="fill:#fff;fill-rule:nonzero;"/><path d="M713.75,661.667l-66.667,0l0,-123.75l66.667,0l0,21.666l-42.917,0l0,28.334l42.917,0l0,21.25l-42.917,0l0,30.416l42.917,0l0,22.084Z" style="fill:#fff;fill-rule:nonzero;"/><g><path d="M125.417,157.083l-12.084,0l0,16.25l-7.5,0l0,-38.75l22.084,0l0,5.834l-14.584,0l0,10.833l12.084,0l0,5.833Z" style="fill:#fff;fill-rule:nonzero;"/><path d="M159.167,134.167l0,25.833c0,4.583 -1.25,7.917 -3.75,10.417c-2.5,2.5 -5.834,3.75 -10,3.75c-4.167,0 -7.5,-1.25 -10,-3.75c-2.5,-2.5 -3.75,-5.834 -3.75,-10.417l0,-25.417l7.5,0l0,25.417c0,2.5 0.416,4.583 1.666,5.833c1.25,1.25 2.5,2.084 4.584,2.084c2.083,0 3.333,-0.834 4.583,-2.084c1.25,-1.25 1.667,-3.333 1.667,-6.25l0,-25.416l7.5,0Z" style="fill:#fff;fill-rule:nonzero;"/><path d="M192.083,173.333l-7.5,0l-12.083,-24.583l0,24.583l-7.5,0l0,-38.75l7.5,0l12.083,24.584l0,-24.584l7.5,0l0,38.75Z" style="fill:#fff;fill-rule:nonzero;"/><path d="M197.917,173.333l0,-38.75l12.083,0c4.167,0 7.5,1.667 10,4.584c2.5,2.916 3.75,7.083 3.75,11.666l0,6.25c0,4.584 -1.25,8.75 -3.75,11.667c-2.5,2.917 -5.833,4.583 -10,4.583l-12.083,0Zm7.5,-32.916l0,27.083l4.583,0c2.083,0 3.333,-0.833 4.583,-2.917c1.25,-2.083 1.667,-4.583 1.667,-7.5l0,-6.25c0,-2.916 -0.417,-5.416 -1.667,-7.5c-1.25,-2.083 -2.916,-2.916 -4.583,-2.916l-4.583,0Z" style="fill:#fff;fill-rule:nonzero;"/><path d="M245.417,165l-9.584,0l-2.083,8.333l-7.917,0l10.834,-38.75l7.916,0l10.834,38.75l-7.917,0l-2.083,-8.333Zm-7.917,-6.25l6.667,0l-3.334,-12.083l-3.333,12.083Z" style="fill:#fff;fill-rule:nonzero;"/><path d="M283.75,161.25c0,4.167 -0.833,7.5 -2.917,9.583c-2.083,2.084 -5.416,2.917 -9.166,2.917c-4.167,0 -7.5,-1.25 -10,-3.75c-2.5,-2.5 -3.75,-5.833 -3.75,-10.417l0,-11.666c0,-4.584 1.25,-7.917 3.333,-10.417c2.5,-2.5 5.417,-3.75 9.583,-3.75c4.167,0 7.5,0.833 9.584,2.917c2.083,2.083 3.333,5 3.333,9.166l-7.083,0c0,-2.5 -0.417,-4.166 -1.25,-5c-0.834,-0.833 -2.5,-1.666 -4.584,-1.666c-2.083,0 -3.333,0.833 -4.166,2.083c-0.834,1.25 -1.25,3.333 -1.25,6.25l0,11.667c0,2.916 0.416,5 1.666,6.25c0.834,1.25 2.5,2.083 4.584,2.083c1.666,0 3.333,-0.417 4.166,-1.667c0.834,-0.833 1.25,-2.916 1.25,-5.416l6.667,0l0,0.833Z" style="fill:#fff;fill-rule:nonzero;"/><rect x="288.75" y="134.583" width="7.5" height="38.75" style="fill:#fff;fill-rule:nonzero;"/><path d="M330,159.167c0,4.583 -1.25,7.916 -3.75,10.833c-2.5,2.5 -5.833,3.75 -10.417,3.75c-4.166,0 -7.5,-1.25 -10.416,-3.75c-2.5,-2.5 -3.75,-6.25 -3.75,-10.833l0,-10.834c0,-4.583 1.25,-7.916 3.75,-10.833c2.5,-2.5 5.833,-3.75 10,-3.75c4.166,0 7.5,1.25 10.416,3.75c2.5,2.5 3.75,6.25 3.75,10.833l0,10.834l0.417,0Zm-7.083,-10.834c0,-2.916 -0.417,-5 -1.667,-6.25c-1.25,-1.25 -2.917,-2.083 -5,-2.083c-2.083,0 -3.75,0.833 -5,2.083c-1.25,1.25 -1.667,3.75 -1.667,6.25l0,10.834c0,2.916 0.417,5 1.667,6.25c1.25,1.25 2.917,2.083 5,2.083c2.083,0 3.75,-0.833 5,-2.083c1.25,-1.25 1.667,-3.75 1.667,-6.25l0,-10.834Zm-5.834,-25l8.334,0l-6.667,7.084l-6.25,0l4.583,-7.084Z" style="fill:#fff;fill-rule:nonzero;"/><path d="M362.917,173.333l-7.5,0l-12.084,-24.583l0,24.583l-7.5,0l0,-38.75l7.5,0l12.084,24.584l0,-24.584l7.5,0l0,38.75Z" style="fill:#fff;fill-rule:nonzero;"/><path d="M397.917,163.333c0,-1.666 -0.417,-2.916 -1.25,-3.75c-0.834,-0.833 -2.084,-1.666 -4.167,-2.5c-3.75,-1.25 -7.083,-2.916 -8.75,-4.583c-2.083,-1.667 -2.917,-4.167 -2.917,-7.5c0,-3.333 1.25,-5.833 3.334,-7.917c2.083,-2.083 5,-2.916 8.75,-2.916c3.75,0 6.666,1.25 9.166,3.333c2.084,2.083 3.334,5 3.334,8.333l-7.084,0c0,-2.083 -0.416,-3.333 -1.25,-4.583c-0.833,-0.833 -2.083,-1.667 -3.75,-1.667c-1.25,0 -2.5,0.417 -3.333,1.25c-0.833,0.834 -1.25,2.084 -1.25,3.334c0,1.25 0.417,2.5 1.25,3.333c0.833,0.833 2.5,1.667 4.583,2.917c3.75,1.25 6.667,2.916 8.334,4.583c2.083,2.083 2.916,4.583 2.916,7.5c0,3.333 -1.25,5.833 -3.333,7.917c-2.083,2.083 -5.417,2.916 -8.75,2.916c-3.75,0 -6.667,-0.833 -9.583,-2.916c-2.5,-2.084 -3.75,-5 -3.75,-9.167l7.5,0c0,2.5 0.416,4.167 1.666,5.417c0.834,1.25 2.5,1.666 4.167,1.666c1.667,0 2.917,-0.416 3.75,-1.25c0,-1.25 0.417,-2.5 0.417,-3.75Z" style="fill:#fff;fill-rule:nonzero;"/><path d="M437.5,159.167c0,4.583 -1.25,7.916 -3.75,10.833c-2.5,2.5 -5.833,3.75 -10.417,3.75c-4.166,0 -7.5,-1.25 -10.416,-3.75c-2.5,-2.5 -3.75,-6.25 -3.75,-10.833l0,-10.834c0,-4.583 1.25,-7.916 3.75,-10.833c2.5,-2.5 5.833,-3.75 10,-3.75c4.166,0 7.5,1.25 10.416,3.75c2.5,2.5 3.75,6.25 3.75,10.833l0,10.834l0.417,0Zm-7.5,-10.834c0,-2.916 -0.417,-5 -1.667,-6.25c-1.25,-1.25 -2.916,-2.083 -5,-2.083c-2.083,0 -3.75,0.833 -5,2.083c-1.25,1.25 -1.666,3.75 -1.666,6.25l0,10.834c0,2.916 0.416,5 1.666,6.25c1.25,1.25 2.917,2.083 5,2.083c2.084,0 3.75,-0.833 5,-2.083c1.25,-1.25 1.667,-3.75 1.667,-6.25l0,-10.834Z" style="fill:#fff;fill-rule:nonzero;"/><path d="M467.917,161.25c0,4.167 -0.834,7.5 -2.917,9.583c-2.083,2.084 -5.417,2.917 -9.167,2.917c-4.166,0 -7.5,-1.25 -10,-3.75c-2.5,-2.5 -3.75,-5.833 -3.75,-10.417l0,-11.666c0,-4.584 1.25,-7.917 3.334,-10.417c2.083,-2.5 5.416,-3.75 9.583,-3.75c4.167,0 7.5,0.833 9.583,2.917c2.084,2.083 3.334,5 3.334,9.166l-7.084,0c0,-2.5 -0.416,-4.166 -1.25,-5c-0.833,-0.833 -2.5,-1.666 -4.583,-1.666c-2.083,0 -3.333,0.833 -4.167,2.083c-0.833,1.25 -1.25,3.333 -1.25,6.25l0,11.667c0,2.916 0.417,5 1.667,6.25c0.833,1.25 2.5,2.083 4.583,2.083c1.667,0 3.334,-0.417 4.167,-1.667c0.833,-0.833 1.25,-2.916 1.25,-5.416l6.667,0l0,0.833Z" style="fill:#fff;fill-rule:nonzero;"/><rect x="473.333" y="134.583" width="7.5" height="38.75" style="fill:#fff;fill-rule:nonzero;"/><path d="M506.25,156.25l-11.667,0l0,11.25l14.167,0l0,5.833l-21.667,0l0,-38.75l21.667,0l0,5.834l-14.167,0l0,10l11.667,0l0,5.833Z" style="fill:#fff;fill-rule:nonzero;"/><path d="M513.333,173.333l0,-38.75l12.084,0c4.166,0 7.5,1.667 10,4.584c2.5,2.916 3.75,7.083 3.75,11.666l0,6.25c0,4.584 -1.25,8.75 -3.75,11.667c-2.5,2.917 -5.834,4.583 -10,4.583l-12.084,0Zm7.5,-32.916l0,27.083l4.584,0c2.083,0 3.333,-0.833 4.583,-2.917c1.25,-2.083 1.667,-4.583 1.667,-7.5l0,-6.25c0,-2.916 -0.417,-5.416 -1.667,-7.5c-1.25,-2.083 -2.917,-2.916 -4.583,-2.916l-4.584,0Z" style="fill:#fff;fill-rule:nonzero;"/><path d="M561.25,165l-9.583,0l-2.084,8.333l-7.916,0l10.833,-38.75l7.917,0l10.833,38.75l-7.917,0l-2.083,-8.333Zm-8.333,-6.25l6.666,0l-3.333,-12.083l-3.333,12.083Z" style="fill:#fff;fill-rule:nonzero;"/><path d="M574.167,173.333l0,-38.75l12.083,0c4.167,0 7.5,1.667 10,4.584c2.5,2.916 3.75,7.083 3.75,11.666l0,6.25c0,4.584 -1.25,8.75 -3.75,11.667c-2.5,2.917 -5.833,4.583 -10,4.583l-12.083,0Zm7.5,-32.916l0,27.083l4.583,0c2.083,0 3.333,-0.833 4.583,-2.917c1.25,-2.083 1.667,-4.583 1.667,-7.5l0,-6.25c0,-2.916 -0.417,-5.416 -1.667,-7.5c-1.25,-2.083 -2.916,-2.916 -4.583,-2.916l-4.583,0Z" style="fill:#fff;fill-rule:nonzero;"/><path d="M637.083,157.083l-12.083,0l0,16.25l-7.5,0l0,-38.75l22.083,0l0,5.834l-14.583,0l0,10.833l12.083,0l0,5.833Z" style="fill:#fff;fill-rule:nonzero;"/><path d="M662.917,156.25l-11.667,0l0,11.25l14.167,0l0,5.833l-21.667,0l0,-38.75l21.667,0l0,5.834l-14.167,0l0,10l11.667,0l0,5.833Z" style="fill:#fff;fill-rule:nonzero;"/><path d="M686.667,163.333l7.5,-28.75l9.583,0l0,38.75l-7.5,0l0,-24.166l-7.083,24.166l-5,0l-7.084,-24.166l0,24.166l-7.5,0l0,-38.75l9.584,0l7.5,28.75Z" style="fill:#fff;fill-rule:nonzero;"/><path d="M729.167,156.25l-11.667,0l0,11.25l14.167,0l0,5.833l-21.667,0l0,-38.75l21.667,0l0,5.834l-14.167,0l0,10l11.667,0l0,5.833Z" style="fill:#fff;fill-rule:nonzero;"/><path d="M763.75,173.333l-7.5,0l-12.083,-24.583l0,24.583l-7.5,0l0,-38.75l7.5,0l12.083,24.584l0,-24.584l7.5,0l0,38.75Z" style="fill:#fff;fill-rule:nonzero;"/><rect x="770" y="134.583" width="7.5" height="38.75" style="fill:#fff;fill-rule:nonzero;"/><path d="M811.25,173.333l-7.5,0l-12.083,-24.583l0,24.583l-7.5,0l0,-38.75l7.5,0l12.083,24.584l0,-24.584l7.5,0l0,38.75Z" style="fill:#fff;fill-rule:nonzero;"/><path d="M834.583,165l-9.583,0l-2.083,8.333l-7.917,0l10.833,-38.75l7.917,0l10.833,38.75l-7.916,0l-2.084,-8.333Zm-7.916,-6.25l6.666,0l-3.333,-12.083l-3.333,12.083Z" style="fill:#fff;fill-rule:nonzero;"/><path d="M860,173.333l0,-38.75l12.083,0c4.167,0 7.5,1.667 10,4.584c2.5,2.916 3.75,7.083 3.75,11.666l0,6.25c0,4.584 -1.25,8.75 -3.75,11.667c-2.5,2.917 -5.833,4.583 -10,4.583l-12.083,0Zm7.5,-32.916l0,27.083l4.583,0c2.084,0 3.334,-0.833 4.584,-2.917c1.25,-2.083 1.666,-4.583 1.666,-7.5l0,-6.25c0,-2.916 -0.416,-5.416 -1.666,-7.5c-1.25,-2.083 -2.917,-2.916 -4.584,-2.916l-4.583,0Z" style="fill:#fff;fill-rule:nonzero;"/><path d="M910.417,156.25l-11.667,0l0,11.25l14.167,0l0,5.833l-21.667,0l0,-38.75l21.667,0l0,5.834l-14.167,0l0,10l11.667,0l0,5.833Z" style="fill:#fff;fill-rule:nonzero;"/><path d="M954.583,161.25c0,4.167 -0.833,7.5 -2.916,9.583c-2.084,2.084 -5.417,2.917 -9.167,2.917c-4.167,0 -7.5,-1.25 -10,-3.75c-2.5,-2.5 -3.75,-5.833 -3.75,-10.417l0,-11.666c0,-4.584 1.25,-7.917 3.333,-10.417c2.5,-2.5 5.417,-3.75 9.584,-3.75c4.166,0 7.5,0.833 9.583,2.917c2.083,2.083 3.333,5 3.333,9.166l-7.083,0c0,-2.5 -0.417,-4.166 -1.25,-5c-0.833,-0.833 -2.5,-1.666 -4.583,-1.666c-2.084,0 -3.334,0.833 -4.167,2.083c-0.833,1.25 -1.25,3.333 -1.25,6.25l0,11.667c0,2.916 0.417,5 1.667,6.25c0.833,1.25 2.5,2.083 4.583,2.083c1.667,0 3.333,-0.417 4.167,-1.667c0.833,-0.833 1.25,-2.916 1.25,-5.416l6.666,0l0,0.833Z" style="fill:#fff;fill-rule:nonzero;"/><path d="M986.25,134.167l0,25.833c0,4.583 -1.25,7.917 -3.75,10.417c-2.5,2.5 -5.833,3.75 -10,3.75c-4.167,0 -7.5,-1.25 -10,-3.75c-2.5,-2.5 -3.75,-5.834 -3.75,-10.417l0,-25.417l7.5,0l0,25.417c0,2.5 0.417,4.583 1.667,5.833c1.25,1.25 2.5,2.084 4.583,2.084c2.083,0 3.333,-0.834 4.583,-2.084c1.25,-1.25 1.667,-3.333 1.667,-6.25l0,-25.416l7.5,0Z" style="fill:#fff;fill-rule:nonzero;"/><path d="M999.583,167.5l14.584,0l0,5.833l-22.084,0l0,-38.75l7.5,0l0,32.917Z" style="fill:#fff;fill-rule:nonzero;"/><path d="M1034.17,140.417l-9.167,0l0,32.916l-7.5,0l0,-32.916l-8.75,0l0,-5.834l25.417,0l0,5.834Z" style="fill:#fff;fill-rule:nonzero;"/><path d="M1065,134.167l0,25.833c0,4.583 -1.25,7.917 -3.75,10.417c-2.5,2.5 -5.833,3.75 -10,3.75c-4.167,0 -7.5,-1.25 -10,-3.75c-2.5,-2.5 -3.75,-5.834 -3.75,-10.417l0,-25.417l7.5,0l0,25.417c0,2.5 0.417,4.583 1.667,5.833c1.25,1.25 2.5,2.084 4.583,2.084c2.083,0 3.333,-0.834 4.583,-2.084c1.25,-1.25 1.667,-3.333 1.667,-6.25l0,-25.416l7.5,0Z" style="fill:#fff;fill-rule:nonzero;"/><path d="M1077.92,157.5l0,15.417l-7.5,0l0,-38.75l11.666,0c3.75,0 6.667,0.833 9.167,2.916c2.083,2.084 3.333,4.584 3.333,8.334c0,2.083 -0.416,3.75 -1.25,5c-0.833,1.666 -2.083,2.5 -4.166,3.333c2.083,0.833 3.333,1.667 4.166,3.333c0.834,1.667 1.25,3.334 1.25,5.834l0,3.75c0,1.25 0,2.083 0.417,3.333c0.417,1.25 0.833,2.083 1.25,2.5l0,0.417l-7.917,0c-0.416,-0.417 -0.833,-1.667 -1.25,-2.917c0,-1.25 -0.416,-2.5 -0.416,-3.75l0,-2.5c0,-2.083 -0.417,-3.333 -1.25,-4.583c-0.834,-1.25 -2.084,-1.667 -3.334,-1.667l-4.166,0Zm0,-5.833l4.166,0c1.667,0 2.917,-0.417 3.75,-1.25c0.834,-0.834 1.25,-2.5 1.25,-4.167c0,-1.667 -0.416,-3.333 -1.25,-4.167c-0.833,-1.25 -2.083,-1.666 -3.75,-1.666l-4.166,0l0,11.25Z" style="fill:#fff;fill-rule:nonzero;"/><path d="M1117.5,165l-9.583,0l-2.084,8.333l-7.916,0l10.833,-38.75l7.917,0l10.833,38.75l-7.917,0l-2.083,-8.333Zm-7.917,-6.25l6.667,0l-3.333,-12.083l-3.334,12.083Z" style="fill:#fff;fill-rule:nonzero;"/></g><g><path d="M113.333,737.083l14.584,0l0,5.834l-22.084,0l0,-38.75l7.5,0l0,32.916Z" style="fill:#fff;fill-rule:nonzero;"/><path d="M175.833,725.833l-11.666,0l0,11.25l14.166,0l0,5.834l-21.666,0l0,-38.75l21.666,0l0,5.833l-14.166,0l0,10l11.666,0l0,5.833Z" style="fill:#fff;fill-rule:nonzero;"/><path d="M234.583,729.167c0,4.583 -1.25,7.916 -3.75,10.833c-2.5,2.917 -5.833,3.75 -10.416,3.75c-4.167,0 -7.5,-1.25 -10.417,-3.75c-2.5,-2.5 -3.75,-6.25 -3.75,-10.833l0,-10.834c0,-4.583 1.25,-7.916 3.75,-10.833c2.5,-2.5 5.833,-3.75 10,-3.75c4.167,0 7.5,1.25 10.417,3.75c2.5,2.5 3.75,6.25 3.75,10.833l0,10.834l0.416,0Zm-7.5,-10.834c0,-2.916 -0.416,-5 -1.666,-6.25c-1.25,-1.25 -2.917,-2.083 -5,-2.083c-2.084,0 -3.75,0.833 -5,2.083c-1.25,1.25 -1.667,3.75 -1.667,6.25l0,10.834c0,2.916 0.417,5 1.667,6.25c1.25,1.25 2.916,2.083 5,2.083c2.083,0 3.75,-0.833 5,-2.083c1.25,-1.25 1.666,-3.75 1.666,-6.25l0,-10.834Zm-5.416,-25.416l8.333,0l-6.667,7.083l-6.666,0l5,-7.083Z" style="fill:#fff;fill-rule:nonzero;"/><path d="M291.667,742.917l-7.5,0l-12.084,-24.584l0,24.584l-7.5,0l0,-38.75l7.5,0l12.084,24.583l0,-24.583l7.5,0l0,38.75Z" style="fill:#fff;fill-rule:nonzero;"/><path d="M451.25,726.667l-12.083,0l0,16.25l-7.5,0l0,-38.75l22.083,0l0,5.833l-14.583,0l0,10.833l12.083,0l0,5.834Z" style="fill:#fff;fill-rule:nonzero;"/><path d="M501.667,725.833l-11.667,0l0,11.25l14.167,0l0,5.834l-21.667,0l0,-38.75l21.667,0l0,5.833l-14.167,0l0,10l11.667,0l0,5.833Z" style="fill:#fff;fill-rule:nonzero;"/><path d="M532.917,742.917l0,-38.75l11.25,0c4.166,0 7.083,0.833 9.583,2.5c2.083,1.666 3.333,4.583 3.333,7.916c0,1.667 -0.416,3.334 -1.25,5c-0.833,1.25 -2.083,2.5 -3.75,3.334c2.084,0.416 3.75,1.666 5,2.916c1.25,1.667 1.667,3.334 1.667,5.834c0,3.75 -1.25,6.666 -3.333,8.333c-2.084,2.083 -5,2.917 -9.167,2.917l-13.333,0Zm7.083,-22.084l4.167,0c1.666,0 2.916,-0.416 3.75,-1.25c0.833,-0.833 1.25,-2.083 1.25,-3.75c0,-1.666 -0.417,-3.333 -1.25,-4.166c-0.834,-0.834 -2.084,-1.25 -4.167,-1.25l-3.75,0l0,10.416Zm0.417,5l0,11.25l5.416,0c1.667,0 2.917,-0.416 3.75,-1.25c0.834,-0.833 1.25,-2.083 1.25,-4.166c0,-1.667 -0.416,-3.334 -1.25,-4.167c-0.833,-0.833 -2.083,-1.667 -3.75,-1.667l-5.416,0Z" style="fill:#fff;fill-rule:nonzero;"/><path d="M595.417,726.667l0,16.25l-7.5,0l0,-38.75l11.666,0c3.75,0 6.667,0.833 9.167,2.916c2.083,2.084 3.333,4.584 3.333,8.334c0,2.083 -0.416,3.75 -1.25,5c-0.833,1.666 -2.083,2.5 -4.166,3.333c2.083,0.833 3.333,1.667 4.166,3.333c0.834,1.667 1.25,3.334 1.25,5.834l0,2.916c0,1.25 0,2.084 0.417,3.334c0.417,1.25 0.833,2.083 1.25,2.5l0,0.416l-7.917,0c-0.416,-0.416 -0.833,-1.666 -1.25,-2.916c0,-1.25 -0.416,-2.5 -0.416,-3.75l0,-2.5c0,-2.084 -0.417,-3.334 -1.25,-4.584c-0.834,-1.25 -2.084,-1.666 -3.334,-1.666l-4.166,0Zm0,-5l4.166,0c1.667,0 2.917,-0.417 3.75,-1.25c0.834,-0.834 1.25,-2.5 1.25,-4.167c0,-1.667 -0.416,-3.333 -1.25,-4.167c-0.833,-1.25 -2.083,-1.666 -3.75,-1.666l-4.166,0l0,11.25Z" style="fill:#fff;fill-rule:nonzero;"/><path d="M661.667,725.833l-11.667,0l0,11.25l14.167,0l0,5.834l-21.667,0l0,-38.75l21.667,0l0,5.833l-14.167,0l0,10l11.667,0l0,5.833Z" style="fill:#fff;fill-rule:nonzero;"/><path d="M710,732.917c0,-1.667 -0.417,-2.917 -1.25,-3.75c-0.833,-0.834 -2.083,-1.667 -4.167,-2.5c-3.75,-1.25 -7.083,-2.917 -8.75,-4.584c-2.083,-1.666 -2.916,-4.166 -2.916,-7.5c0,-3.333 1.25,-5.833 3.333,-7.916c2.083,-2.084 5,-2.917 8.75,-2.917c3.75,0 6.667,1.25 9.167,3.333c2.083,2.084 3.333,5 3.333,8.334l-7.083,0c0,-2.084 -0.417,-3.334 -1.25,-4.584c-0.834,-0.833 -2.084,-1.666 -3.75,-1.666c-1.25,0 -2.5,0.416 -3.334,1.25c-0.833,0.833 -1.25,2.083 -1.25,3.333c0,1.25 0.417,2.5 1.25,3.333c0.834,0.834 2.5,1.667 4.584,2.917c3.75,1.25 6.666,2.917 8.333,4.583c2.083,2.084 2.917,4.584 2.917,7.5c0,3.334 -1.25,5.834 -3.334,7.917c-2.083,2.083 -5.416,2.917 -8.75,2.917c-3.75,0 -6.666,-0.834 -9.583,-2.917c-2.5,-2.083 -3.75,-5 -3.75,-9.167l7.5,0c0,2.5 0.417,4.167 1.667,5.417c0.833,1.25 2.5,1.667 4.166,1.667c1.667,0 2.917,-0.417 3.75,-1.25c0,-1.25 0.417,-2.084 0.417,-3.75Z" style="fill:#fff;fill-rule:nonzero;"/><rect x="747.5" y="723.333" width="13.333" height="5.833" style="fill:#fff;fill-rule:nonzero;"/><path d="M817.5,730.833c0,4.167 -0.833,7.5 -2.917,9.584c-2.083,2.083 -5.416,2.916 -9.166,2.916c-4.167,0 -7.5,-1.25 -10,-3.75c-2.5,-2.5 -3.75,-5.833 -3.75,-10.416l0,-11.667c0,-4.583 1.25,-7.917 3.333,-10.417c2.5,-2.5 5.417,-3.75 9.583,-3.75c4.167,0 7.5,0.834 9.584,2.917c2.083,2.083 3.333,5 3.333,9.167l-7.083,0c0,-2.5 -0.417,-4.167 -1.25,-5c-0.834,-0.834 -2.5,-1.667 -4.584,-1.667c-2.083,0 -3.333,0.833 -4.166,2.083c-0.834,1.25 -1.25,3.334 -1.25,6.25l0,11.667c0,2.917 0.416,5 1.666,6.25c0.834,1.25 2.5,2.083 4.584,2.083c1.666,0 3.333,-0.416 4.166,-1.666c0.834,-0.834 1.25,-2.917 1.25,-5.417l6.667,0l0,0.833Z" style="fill:#fff;fill-rule:nonzero;"/><path d="M873.75,729.167c0,4.583 -1.25,7.916 -3.75,10.833c-2.5,2.5 -5.833,3.75 -10.417,3.75c-4.166,0 -7.5,-1.25 -10.416,-3.75c-2.5,-2.5 -3.75,-6.25 -3.75,-10.833l0,-10.834c0,-4.583 1.25,-7.916 3.75,-10.833c2.5,-2.5 5.833,-3.75 10,-3.75c4.166,0 7.5,1.25 10.416,3.75c2.5,2.5 3.75,6.25 3.75,10.833l0,10.834l0.417,0Zm-7.5,-10.834c0,-2.916 -0.417,-5 -1.667,-6.25c-1.25,-1.25 -2.916,-2.083 -5,-2.083c-2.083,0 -3.75,0.833 -5,2.083c-1.25,1.25 -1.666,3.75 -1.666,6.25l0,10.834c0,2.916 0.416,5 1.666,6.25c1.25,1.25 2.917,2.083 5,2.083c2.084,0 3.75,-0.833 5,-2.083c1.25,-1.25 1.667,-3.75 1.667,-6.25l0,-10.834Z" style="fill:#fff;fill-rule:nonzero;"/><path d="M911.25,726.667l0,16.25l-7.5,0l0,-38.75l11.667,0c3.75,0 6.666,0.833 9.166,2.916c2.084,2.084 3.334,4.584 3.334,8.334c0,2.083 -0.417,3.75 -1.25,5c-0.834,1.666 -2.084,2.5 -4.167,3.333c2.083,0.833 3.333,1.667 4.167,3.333c0.833,1.667 1.25,3.334 1.25,5.834l0,2.916c0,1.25 0,2.084 0.416,3.334c0.417,1.25 0.834,2.083 1.25,2.5l0,0.416l-7.916,0c-0.417,-0.416 -0.834,-1.666 -1.25,-2.916c-0.417,-1.25 -0.417,-2.5 -0.417,-3.75l0,-2.5c0,-2.084 -0.417,-3.334 -1.25,-4.584c-0.833,-1.25 -2.083,-1.666 -3.333,-1.666l-4.167,0Zm0,-5l4.167,0c1.666,0 2.916,-0.417 3.75,-1.25c0.833,-0.834 1.25,-2.5 1.25,-4.167c0,-1.667 -0.417,-3.333 -1.25,-4.167c-0.834,-1.25 -2.084,-1.666 -3.75,-1.666l-4.167,0l0,11.25Z" style="fill:#fff;fill-rule:nonzero;"/><path d="M957.917,742.917l0,-38.75l12.083,0c4.167,0 7.5,1.666 10,4.583c2.5,2.917 3.75,7.083 3.75,11.667l0,6.25c0,4.583 -1.25,8.75 -3.75,11.666c-2.5,2.917 -5.833,4.584 -10,4.584l-12.083,0Zm7.5,-32.5l0,27.083l4.583,0c2.083,0 3.333,-0.833 4.583,-2.917c1.25,-2.083 1.667,-4.583 1.667,-7.5l0,-6.25c0,-2.916 -0.417,-5.416 -1.667,-7.5c-1.25,-2.083 -2.916,-2.916 -4.583,-2.916l-4.583,0Z" style="fill:#fff;fill-rule:nonzero;"/><path d="M1032.92,725.833l-12.084,0l0,11.25l14.167,0l0,5.834l-21.667,0l0,-38.75l21.667,0l0,5.833l-14.167,0l0,10l11.667,0l0,5.833l0.417,0Z" style="fill:#fff;fill-rule:nonzero;"/><path d="M1071.67,726.667l0,16.25l-7.5,0l0,-38.75l11.666,0c3.75,0 6.667,0.833 9.167,2.916c2.083,2.084 3.333,4.584 3.333,8.334c0,2.083 -0.416,3.75 -1.25,5c-0.833,1.666 -2.083,2.5 -4.166,3.333c2.083,0.833 3.333,1.667 4.166,3.333c0.834,1.667 1.25,3.334 1.25,5.834l0,2.916c0,1.25 0,2.084 0.417,3.334c0.417,1.25 0.833,2.083 1.25,2.5l0,0.416l-7.917,0c-0.833,-0.416 -0.833,-1.666 -1.25,-2.916c0,-1.25 -0.416,-2.5 -0.416,-3.75l0,-2.5c0,-2.084 -0.417,-3.334 -1.25,-4.584c-0.834,-1.25 -2.084,-1.666 -3.334,-1.666l-4.166,0Zm0,-5l4.166,0c1.667,0 2.917,-0.417 3.75,-1.25c0.834,-0.834 1.25,-2.5 1.25,-4.167c0,-1.667 -0.416,-3.333 -1.25,-4.167c-0.833,-1.25 -2.083,-1.666 -3.75,-1.666l-4.166,0l0,11.25Z" style="fill:#fff;fill-rule:nonzero;"/><path d="M1146.25,729.167c0,4.583 -1.25,7.916 -3.75,10.833c-2.5,2.5 -5.833,3.75 -10.417,3.75c-4.166,0 -7.5,-1.25 -10.416,-3.75c-2.5,-2.5 -3.75,-6.25 -3.75,-10.833l0,-10.834c0,-4.583 1.25,-7.916 3.75,-10.833c2.5,-2.5 5.833,-3.75 10,-3.75c4.166,0 7.5,1.25 10.416,3.75c2.5,2.5 3.75,6.25 3.75,10.833l0,10.834l0.417,0Zm-7.5,-10.834c0,-2.916 -0.417,-5 -1.667,-6.25c-1.25,-1.25 -2.916,-2.083 -5,-2.083c-2.083,0 -3.75,0.833 -5,2.083c-1.25,1.25 -1.666,3.75 -1.666,6.25l0,10.834c0,2.916 0.416,5 1.666,6.25c1.25,1.25 2.917,2.083 5,2.083c2.084,0 3.75,-0.833 5,-2.083c1.25,-1.25 1.667,-3.75 1.667,-6.25l0,-10.834Z" style="fill:#fff;fill-rule:nonzero;"/></g></svg>