<?xml version="1.0" encoding="UTF-8" standalone="no"?><!DOCTYPE svg PUBLIC "-//W3C//DTD SVG 1.1//EN" "http://www.w3.org/Graphics/SVG/1.1/DTD/svg11.dtd"><svg width="100%" height="100%" viewBox="0 0 300 315" version="1.1" xmlns="http://www.w3.org/2000/svg" xmlns:xlink="http://www.w3.org/1999/xlink" xml:space="preserve" xmlns:serif="http://www.serif.com/" style="fill-rule:evenodd;clip-rule:evenodd;"><g><path d="M96.132,212.889l-7.776,0l0,33.6l5.28,0l0,-12.624l2.496,0c5.28,0 7.872,-2.928 7.872,-8.304l0,-4.368c0,-5.376 -2.592,-8.304 -7.872,-8.304Zm0,4.8c1.68,0 2.592,0.768 2.592,3.168l0,5.04c0,2.4 -0.912,3.168 -2.592,3.168l-2.496,0l0,-11.376l2.496,0Z" style="fill:#213e28;fill-rule:nonzero;"/><path d="M122.148,246.489c-0.528,-1.248 -0.576,-2.448 -0.576,-4.08l0,-5.184c0,-3.504 -0.864,-6.048 -3.504,-7.152c2.352,-1.104 3.456,-3.36 3.456,-6.816l0,-2.64c0,-5.184 -2.352,-7.728 -7.824,-7.728l-7.968,0l0,33.6l5.28,0l0,-13.68l1.824,0c2.4,0 3.456,1.152 3.456,4.272l0,5.28c0,2.736 0.192,3.264 0.48,4.128l5.376,0Zm-8.592,-28.8c1.872,0 2.688,1.056 2.688,3.456l0,3.312c0,2.688 -1.2,3.552 -3.168,3.552l-2.064,0l0,-10.32l2.544,0Z" style="fill:#213e28;fill-rule:nonzero;"/><rect x="124.308" y="212.889" width="5.28" height="33.6" style="fill:#213e28;fill-rule:nonzero;"/><path d="M140.004,212.889l-7.344,0l0,33.6l4.608,0l0,-23.76l3.936,23.76l4.992,0l3.648,-24.096l0,24.096l4.992,0l0,-33.6l-7.344,0l-3.6,23.856l-3.888,-23.856Z" style="fill:#213e28;fill-rule:nonzero;"/><path d="M163.236,217.689l9.12,0l0,-4.8l-14.4,0l0,33.6l14.4,0l0,-4.8l-9.12,0l0,-9.84l7.248,0l0,-4.8l-7.248,0l0,-9.36Z" style="fill:#213e28;fill-rule:nonzero;"/><path d="M191.316,246.489c-0.528,-1.248 -0.576,-2.448 -0.576,-4.08l0,-5.184c0,-3.504 -0.864,-6.048 -3.504,-7.152c2.352,-1.104 3.456,-3.36 3.456,-6.816l0,-2.64c0,-5.184 -2.352,-7.728 -7.824,-7.728l-7.968,0l0,33.6l5.28,0l0,-13.68l1.824,0c2.4,0 3.456,1.152 3.456,4.272l0,5.28c0,2.736 0.192,3.264 0.48,4.128l5.376,0Zm-8.592,-28.8c1.872,0 2.688,1.056 2.688,3.456l0,3.312c0,2.688 -1.2,3.552 -3.168,3.552l-2.064,0l0,-10.32l2.544,0Z" style="fill:#213e28;fill-rule:nonzero;"/><path d="M205.188,212.889l-7.728,0l-5.376,33.6l4.848,0l0.912,-6.096l6.48,0l0.912,6.096l5.328,0l-5.376,-33.6Zm-4.128,5.952l2.544,16.992l-5.088,0l2.544,-16.992Z" style="fill:#213e28;fill-rule:nonzero;"/><path d="M87.492,290.489l8.352,0c5.28,0 7.872,-2.928 7.872,-8.304l0,-16.992c0,-5.376 -2.592,-8.304 -7.872,-8.304l-8.352,0l0,33.6Zm8.256,-28.8c1.68,0 2.688,0.864 2.688,3.264l0,17.472c0,2.4 -1.008,3.264 -2.688,3.264l-2.976,0l0,-24l2.976,0Z" style="fill:#213e28;fill-rule:nonzero;"/><path d="M114.756,261.689l9.12,0l0,-4.8l-14.4,0l0,33.6l14.4,0l0,-4.8l-9.12,0l0,-9.84l7.248,0l0,-4.8l-7.248,0l0,-9.36Zm2.352,-11.904l-3.264,5.328l3.552,0l4.896,-5.328l-5.184,0Z" style="fill:#213e28;fill-rule:nonzero;"/><path d="M139.86,277.961l0,4.8c0,2.4 -1.056,3.264 -2.736,3.264c-1.68,0 -2.736,-0.864 -2.736,-3.264l0,-18.144c0,-2.4 1.056,-3.312 2.736,-3.312c1.68,0 2.736,0.912 2.736,3.312l0,3.6l4.992,0l0,-3.264c0,-5.376 -2.688,-8.448 -7.872,-8.448c-5.184,0 -7.872,3.072 -7.872,8.448l0,17.472c0,5.376 2.688,8.448 7.872,8.448c5.184,0 7.872,-3.072 7.872,-8.448l0,-4.464l-4.992,0Z" style="fill:#213e28;fill-rule:nonzero;"/><path d="M162.18,256.889l-7.728,0l-5.376,33.6l4.848,0l0.912,-6.096l6.48,0l0.912,6.096l5.328,0l-5.376,-33.6Zm-4.128,5.952l2.544,16.992l-5.088,0l2.544,-16.992Z" style="fill:#213e28;fill-rule:nonzero;"/><path d="M172.404,290.489l8.352,0c5.28,0 7.872,-2.928 7.872,-8.304l0,-16.992c0,-5.376 -2.592,-8.304 -7.872,-8.304l-8.352,0l0,33.6Zm8.256,-28.8c1.68,0 2.688,0.864 2.688,3.264l0,17.472c0,2.4 -1.008,3.264 -2.688,3.264l-2.976,0l0,-24l2.976,0Z" style="fill:#213e28;fill-rule:nonzero;"/><path d="M206.052,256.889l-7.728,0l-5.376,33.6l4.848,0l0.912,-6.096l6.48,0l0.912,6.096l5.328,0l-5.376,-33.6Zm-4.128,5.952l2.544,16.992l-5.088,0l2.544,-16.992Z" style="fill:#213e28;fill-rule:nonzero;"/></g><path d="M31.875,147.752c-2.035,2.886 -4.211,3.83 -7.263,5.246c-3.051,1.415 -6.451,1.636 -9.466,1.636c-1.823,-0.279 -2.736,-0.833 -2.736,-1.666c0,-0.722 0.352,-1.082 1.052,-1.082c0.282,0 0.631,0.027 1.052,0.083c0.421,0.055 1.162,0.395 2,0.083c14.345,-5.345 14.922,-18.333 15.309,-23.08c0.384,-4.747 0.648,-10.229 0.789,-16.448c0,-9.715 -0.176,-16.947 -0.526,-21.694c-0.352,-4.747 -0.842,-7.453 -1.473,-8.12c-0.492,-0.11 -1.176,-0.208 -2.052,-0.291c-0.878,-0.084 -1.772,-0.138 -2.683,-0.167c-0.912,-0.027 -1.773,-0.054 -2.578,-0.083c-0.807,-0.028 -1.386,-0.042 -1.736,-0.042c-0.281,0 -0.544,-0.069 -0.79,-0.208c-0.246,-0.138 -0.367,-0.375 -0.367,-0.708c0,-1.054 0.421,-1.665 1.262,-1.832c0.14,0 0.684,0.056 1.631,0.167c0.947,0.112 2.209,0.236 3.788,0.374c1.578,0.14 3.42,0.265 5.524,0.375c2.104,0.112 4.348,0.167 6.734,0.167c4.909,0 8.696,-0.111 11.363,-0.333c2.665,-0.222 4.383,-0.388 5.156,-0.5c0.21,0 0.384,0.112 0.525,0.333c0.141,0.223 0.211,0.487 0.211,0.791c0,0.306 -0.105,0.597 -0.315,0.875c-0.211,0.278 -0.526,0.416 -0.947,0.416c-0.843,0.056 -1.79,0.139 -2.841,0.25c-1.052,0.112 -2.07,0.278 -3.052,0.5c-0.772,0.166 -1.42,0.861 -1.946,2.082c-0.526,1.222 -0.947,2.789 -1.262,4.705c-0.317,1.915 -0.545,4.109 -0.685,6.579c-0.141,2.471 -0.246,5.038 -0.316,7.703l0,3.748c0,2.554 0.017,5.067 0.054,7.537c0.034,2.471 0.052,4.83 0.052,7.078c0,2.249 0.017,4.331 0.052,6.246c0.035,1.916 0.054,3.569 0.054,4.956c0,3.054 -0.369,5.246 -1.106,6.579c-0.736,1.332 -1.683,2.29 -2.84,2.873c-1.158,0.583 -2.473,1.027 -3.946,1.333c-1.473,0.304 -2.983,0.929 -4.525,1.873l-1.157,1.666Z" style="fill:#fff;fill-rule:nonzero;stroke:#efecc3;stroke-width:4px;"/><path d="M75.604,84.282c-1.655,0.056 -3.297,0.127 -4.923,0.211c-1.628,0.084 -3.103,0.253 -4.427,0.507c-1.324,0.254 -2.441,0.592 -3.351,1.015c-0.91,0.422 -1.476,1.001 -1.696,1.733c0,0.113 -0.138,0.169 -0.413,0.169c-0.166,0 -0.304,-0.028 -0.414,-0.085c0,-0.619 0.013,-1.226 0.041,-1.817c0.027,-0.592 0.096,-1.282 0.207,-2.072c0.11,-0.731 0.206,-1.365 0.29,-1.902c0.082,-0.534 0.261,-1.112 0.537,-1.732c0.22,-0.563 0.51,-0.859 0.869,-0.888c0.358,-0.028 0.841,0.015 1.448,0.127c0.496,0.056 1.351,0.141 2.565,0.253c1.213,0.114 2.565,0.212 4.054,0.296c1.49,0.084 3.006,0.169 4.551,0.254c1.543,0.084 2.895,0.127 4.054,0.127c1.213,0 2.11,-0.028 2.689,-0.085c0.58,-0.055 1.392,-0.14 2.441,-0.254l0,1.607c-0.773,0.282 -1.751,1.098 -2.937,2.451c-1.187,1.352 -2.345,3.17 -3.475,5.453c-1.132,2.282 -2.125,5.002 -2.979,8.157c-0.855,3.157 -1.311,6.679 -1.365,10.567c-0.056,4.509 0.358,8.552 1.24,12.13c0.883,3.58 2.124,6.594 3.724,9.046c1.599,2.451 3.544,4.325 5.833,5.621c2.289,1.297 4.812,1.945 7.571,1.945c2.814,-0.056 5.254,-0.634 7.323,-1.734c2.068,-1.098 3.599,-2.211 4.591,-3.339c2.041,-2.253 3.351,-5.902 3.931,-10.947c0.579,-5.043 0.868,-11.201 0.868,-18.47c0,-5.58 -0.055,-9.976 -0.165,-13.188c-0.111,-3.212 -0.387,-5.184 -0.827,-5.917c-0.056,-0.225 -0.443,-0.408 -1.159,-0.55c-0.717,-0.139 -1.545,-0.224 -2.482,-0.253c-0.938,-0.028 -1.876,-0.043 -2.813,-0.043c-0.939,0 -1.628,0.03 -2.069,0.085c-0.442,0.056 -0.717,-0.098 -0.827,-0.465c-0.111,-0.366 -0.165,-0.718 -0.165,-1.057c0,-0.281 0.095,-0.562 0.289,-0.845c0.193,-0.281 0.427,-0.478 0.703,-0.592c2.427,0.057 5.061,0.169 7.902,0.338c2.84,0.17 5.447,0.254 7.819,0.254c1.931,0 3.765,-0.042 5.502,-0.127c1.738,-0.085 3.516,-0.182 5.337,-0.296c0.496,0.114 0.744,0.508 0.744,1.184c0,0.733 -0.248,1.156 -0.744,1.268c-0.496,0.113 -1.09,0.141 -1.779,0.084c-0.691,-0.055 -1.394,-0.084 -2.11,-0.084c-0.717,0 -1.297,0.198 -1.738,0.592c-0.276,0.676 -0.551,2.015 -0.827,4.015c-0.276,2.001 -0.51,4.48 -0.703,7.439c-0.194,2.959 -0.359,6.34 -0.497,10.144c-0.138,3.804 -0.206,7.876 -0.206,12.215c0,4.734 0.041,8.58 0.124,11.539c0.082,2.959 0.234,5.298 0.454,7.016c0.22,1.72 0.497,2.946 0.828,3.678c0.123,0.273 0.259,0.515 0.405,0.726l-3.136,0.626c-0.441,0.057 -1.033,0.127 -1.778,0.212c-0.745,0.084 -1.504,0.154 -2.275,0.211c-0.774,0.055 -1.489,0.112 -2.152,0.169c-0.662,0.055 -1.131,0.085 -1.406,0.085c-0.442,0 -0.801,-0.043 -1.076,-0.127c-0.276,-0.085 -0.484,-0.367 -0.621,-0.846c-0.137,-0.478 -0.234,-1.196 -0.289,-2.155c-0.055,-0.958 -0.083,-2.31 -0.083,-4.058c-2.207,2.142 -4.923,3.96 -8.149,5.453c-3.228,1.492 -7.158,2.267 -11.791,2.324c-3.531,-0.169 -6.813,-0.86 -9.846,-2.071c-3.035,-1.211 -5.668,-2.93 -7.902,-5.156c-2.234,-2.226 -3.985,-5.001 -5.253,-8.327c-1.27,-3.324 -1.876,-7.185 -1.821,-11.581c0.054,-2.874 0.606,-5.903 1.655,-9.087c1.047,-3.184 2.302,-6.185 3.765,-9.003c1.461,-2.818 2.964,-5.326 4.509,-7.524c1.543,-2.198 2.812,-3.747 3.806,-4.649" style="fill:#fff;fill-rule:nonzero;stroke:#efecc3;stroke-width:4px;"/><path d="M174.674,140.765c-0.993,-0.166 -2.759,-0.425 -3.806,-0.591c-1.048,-0.167 -2.192,-0.292 -3.434,-0.376c-1.241,-0.083 -2.635,-0.152 -4.179,-0.208c-1.544,-0.054 -3.282,-0.083 -5.212,-0.083c-4.468,0 -8.261,0.125 -11.377,0.375c-3.116,0.25 -5.75,0.512 -7.902,0.791c-2.15,0.277 -3.916,0.541 -5.294,0.791c-1.38,0.25 -2.511,0.375 -3.392,0.375c-0.773,0 -1.159,-0.333 -1.159,-1c0,-0.389 0.083,-0.805 0.248,-1.249c0.166,-0.443 0.551,-0.637 1.158,-0.583c0.662,0.056 1.531,0.029 2.607,-0.083c1.075,-0.111 2.151,-0.277 3.227,-0.5c1.075,-0.221 2.012,-0.458 2.812,-0.707c0.8,-0.25 1.283,-0.486 1.449,-0.708c0.219,-0.444 0.455,-1.5 0.703,-3.165c0.248,-1.666 0.455,-3.76 0.62,-6.287c0.166,-2.527 0.303,-5.399 0.414,-8.62c0.11,-3.22 0.165,-6.634 0.165,-10.243c0,-4.885 -0.041,-8.911 -0.124,-12.076c-0.082,-3.165 -0.179,-5.69 -0.289,-7.578c-0.111,-1.887 -0.248,-3.276 -0.413,-4.165c-0.166,-0.887 -0.331,-1.553 -0.497,-1.998l-5.957,-0.333c-1.435,-0.055 -2.331,-0.208 -2.69,-0.458c-0.359,-0.25 -0.537,-0.513 -0.537,-0.792c0,-0.387 0.054,-0.735 0.165,-1.041c0.11,-0.304 0.414,-0.485 0.91,-0.541c0.607,0.056 1.531,0.154 2.772,0.292c1.242,0.139 2.909,0.264 5.006,0.374l4.964,0c2.427,-0.054 4.688,-0.193 6.785,-0.416c2.095,-0.221 3.971,-0.471 5.626,-0.75c1.655,-0.277 3.033,-0.554 4.137,-0.833c1.103,-0.277 1.875,-0.526 2.317,-0.749l0.083,0c0.054,0 0.095,-0.013 0.124,-0.042c0.027,-0.027 0.069,-0.041 0.124,-0.041c0.551,0 0.827,0.583 0.827,1.749c0,0.499 -0.51,0.916 -1.531,1.249c-1.021,0.333 -2.192,0.625 -3.515,0.874c-1.325,0.25 -2.621,0.487 -3.89,0.708c-1.269,0.223 -2.124,0.473 -2.564,0.75c-0.332,0.555 -0.621,2.069 -0.87,4.539c-0.247,2.471 -0.442,5.386 -0.578,8.744c-0.139,3.36 -0.249,6.927 -0.331,10.701c-0.083,3.777 -0.125,7.246 -0.125,10.411c0,5.108 0.069,9.243 0.207,12.408c0.138,3.165 0.4,4.942 0.787,5.33c0.165,0.056 0.467,0.083 0.91,0.083c0.496,0 1.088,-0.041 1.779,-0.125c0.689,-0.083 1.392,-0.166 2.109,-0.25c0.716,-0.083 1.42,-0.179 2.11,-0.291c0.689,-0.11 1.282,-0.194 1.779,-0.25c1.269,-0.166 2.634,-0.375 4.095,-0.625c1.461,-0.249 2.91,-0.554 4.344,-0.915c1.434,-0.361 2.772,-0.819 4.014,-1.374c1.24,-0.555 2.302,-1.25 3.184,-2.083c0.055,-0.11 0.097,-0.152 0.125,-0.125c0.027,0.029 0.069,0.015 0.124,-0.041c0.22,-0.221 0.468,-0.305 0.745,-0.25c0.275,0.056 0.509,0.208 0.703,0.458c0.193,0.25 0.317,0.528 0.372,0.833c0.055,0.306 -0.028,0.541 -0.248,0.708c-0.496,0.389 -0.979,0.972 -1.448,1.749c-0.469,0.778 -0.897,1.611 -1.282,2.498c-0.387,0.889 -0.717,1.736 -0.993,2.54c-0.277,0.806 -0.442,1.403 -0.497,1.791l-0.496,1.424Z" style="fill:#fff;fill-rule:nonzero;stroke:#efecc3;stroke-width:4px;"/><path d="M196.441,139.674c-0.994,0 -2.097,0.013 -3.31,0.041c-1.215,0.027 -2.4,0.055 -3.558,0.083c-1.158,0.028 -2.248,0.084 -3.269,0.167c-1.02,0.083 -1.807,0.153 -2.357,0.208l-1.325,0.167c-0.276,0 -0.51,-0.154 -0.702,-0.458c-0.194,-0.305 -0.29,-0.596 -0.29,-0.875c0,-0.221 0.111,-0.458 0.331,-0.707c0.22,-0.25 0.523,-0.375 0.91,-0.375c2.316,0 4.164,-0.138 5.544,-0.416c1.378,-0.278 2.205,-0.638 2.482,-1.083c0.331,-0.667 0.675,-2.151 1.034,-4.456c0.358,-2.303 0.674,-4.996 0.951,-8.078c0.276,-3.081 0.497,-6.315 0.663,-9.702c0.165,-3.386 0.247,-6.523 0.247,-9.411c0,-3.164 -0.014,-5.815 -0.04,-7.953c-0.029,-2.137 -0.056,-3.9 -0.083,-5.288c-0.029,-1.387 -0.056,-2.457 -0.083,-3.207c-0.029,-0.749 -0.041,-1.29 -0.041,-1.623c-0.056,-1.777 -0.304,-2.957 -0.745,-3.54c-0.442,-0.583 -1.241,-0.929 -2.4,-1.041c-0.827,-0.11 -1.793,-0.138 -2.896,-0.083c-1.104,0.056 -1.903,0.056 -2.399,0c-0.387,-0.055 -0.717,-0.125 -0.993,-0.208c-0.277,-0.083 -0.414,-0.375 -0.414,-0.874c0,-0.555 0.137,-0.93 0.414,-1.125c0.276,-0.194 0.579,-0.291 0.91,-0.291c0.441,0 1.862,0.097 4.261,0.291c2.4,0.195 5.833,0.292 10.302,0.292c2.923,0 5.419,-0.069 7.487,-0.209c2.069,-0.138 3.488,-0.263 4.261,-0.374c0.385,0 0.758,0.041 1.118,0.125c0.358,0.083 0.537,0.347 0.537,0.791c0,0.945 -0.635,1.471 -1.903,1.582c-0.442,0 -0.939,0.028 -1.489,0.083c-0.552,0.056 -1.09,0.112 -1.613,0.167c-0.526,0.056 -1.008,0.139 -1.449,0.25c-0.442,0.112 -0.773,0.195 -0.993,0.25c-0.276,0.111 -0.537,1.124 -0.785,3.039c-0.249,1.916 -0.47,4.289 -0.663,7.121c-0.193,2.831 -0.372,5.885 -0.537,9.16c-0.166,3.277 -0.277,6.302 -0.331,9.078c-0.056,2.11 -0.097,4.567 -0.124,7.37c-0.029,2.804 0,5.497 0.083,8.078c0.083,2.582 0.206,4.818 0.372,6.704c0.165,1.888 0.413,2.971 0.744,3.248c0.22,0.167 0.634,0.32 1.241,0.458c0.607,0.139 1.324,0.279 2.152,0.417c0.827,0.139 1.668,0.237 2.523,0.291c0.855,0.056 1.641,0.084 2.359,0.084c0.606,0 0.992,0.056 1.158,0.166c0.165,0.112 0.248,0.389 0.248,0.833c0,0.499 -0.207,0.86 -0.621,1.083c-0.413,0.221 -0.841,0.333 -1.282,0.333c-0.331,0 -0.828,-0.029 -1.489,-0.084c-0.662,-0.055 -1.572,-0.125 -2.73,-0.208c-1.159,-0.083 -2.621,-0.153 -4.386,-0.208c-1.766,-0.056 -3.944,-0.083 -6.537,-0.083l-0.495,0Z" style="fill:#fff;fill-rule:nonzero;stroke:#efecc3;stroke-width:4px;"/><path d="M247.633,137.758c3.034,0 5.71,-0.762 8.026,-2.29c2.317,-1.526 4.261,-3.552 5.834,-6.079c1.572,-2.526 2.743,-5.441 3.516,-8.745c0.772,-3.302 1.158,-6.758 1.158,-10.368c0,-4.385 -0.525,-8.341 -1.572,-11.867c-1.048,-3.526 -2.469,-6.51 -4.261,-8.953c-1.793,-2.443 -3.888,-4.317 -6.288,-5.621c-2.399,-1.305 -4.923,-1.958 -7.571,-1.958c-3.034,0 -5.75,0.681 -8.149,2.041c-2.4,1.361 -4.441,3.235 -6.123,5.621c-1.683,2.388 -2.966,5.234 -3.848,8.537c-0.883,3.303 -1.324,6.899 -1.324,10.784c0,4.942 0.58,9.231 1.738,12.867c1.158,3.637 2.689,6.635 4.592,8.994c1.903,2.36 4.095,4.122 6.578,5.288c2.482,1.166 5.047,1.749 7.694,1.749Zm-2.234,3.081c-4.302,0 -8.315,-0.638 -12.038,-1.915c-3.723,-1.277 -6.964,-3.15 -9.722,-5.621c-2.759,-2.47 -4.937,-5.482 -6.537,-9.036c-1.6,-3.553 -2.399,-7.606 -2.399,-12.159c0,-4.997 0.938,-9.521 2.813,-13.575c1.875,-4.051 4.357,-7.522 7.447,-10.409c3.089,-2.887 6.619,-5.122 10.591,-6.704c3.971,-1.583 8.08,-2.374 12.328,-2.374c4.026,0 7.887,0.597 11.584,1.791c3.694,1.194 6.95,2.943 9.762,5.246c2.814,2.304 5.048,5.163 6.703,8.578c1.655,3.415 2.482,7.316 2.482,11.7c0,4.165 -0.827,8.301 -2.482,12.409c-1.655,4.11 -3.945,7.801 -6.868,11.077c-2.924,3.276 -6.399,5.927 -10.425,7.953c-4.027,2.026 -8.44,3.039 -13.239,3.039Z" style="fill:#fff;fill-rule:nonzero;stroke:#efecc3;stroke-width:4px;"/><path d="M31.875,147.752c-2.035,2.886 -4.211,3.83 -7.263,5.246c-3.051,1.415 -6.451,1.636 -9.466,1.636c-1.823,-0.279 -2.736,-0.833 -2.736,-1.666c0,-0.722 0.352,-1.082 1.052,-1.082c0.282,0 0.631,0.027 1.052,0.083c0.421,0.055 1.162,0.395 2,0.083c14.345,-5.345 14.922,-18.333 15.309,-23.08c0.384,-4.747 0.648,-10.229 0.789,-16.448c0,-9.715 -0.176,-16.947 -0.526,-21.694c-0.352,-4.747 -0.842,-7.453 -1.473,-8.12c-0.492,-0.11 -1.176,-0.208 -2.052,-0.291c-0.878,-0.084 -1.772,-0.138 -2.683,-0.167c-0.912,-0.027 -1.773,-0.054 -2.578,-0.083c-0.807,-0.028 -1.386,-0.042 -1.736,-0.042c-0.281,0 -0.544,-0.069 -0.79,-0.208c-0.246,-0.138 -0.367,-0.375 -0.367,-0.708c0,-1.054 0.421,-1.665 1.262,-1.832c0.14,0 0.684,0.056 1.631,0.167c0.947,0.112 2.209,0.236 3.788,0.374c1.578,0.14 3.42,0.265 5.524,0.375c2.104,0.112 4.348,0.167 6.734,0.167c4.909,0 8.696,-0.111 11.363,-0.333c2.665,-0.222 4.383,-0.388 5.156,-0.5c0.21,0 0.384,0.112 0.525,0.333c0.141,0.223 0.211,0.487 0.211,0.791c0,0.306 -0.105,0.597 -0.315,0.875c-0.211,0.278 -0.526,0.416 -0.947,0.416c-0.843,0.056 -1.79,0.139 -2.841,0.25c-1.052,0.112 -2.07,0.278 -3.052,0.5c-0.772,0.166 -1.42,0.861 -1.946,2.082c-0.526,1.222 -0.947,2.789 -1.262,4.705c-0.317,1.915 -0.545,4.109 -0.685,6.579c-0.141,2.471 -0.246,5.038 -0.316,7.703l0,3.748c0,2.554 0.017,5.067 0.054,7.537c0.034,2.471 0.052,4.83 0.052,7.078c0,2.249 0.017,4.331 0.052,6.246c0.035,1.916 0.054,3.569 0.054,4.956c0,3.054 -0.369,5.246 -1.106,6.579c-0.736,1.332 -1.683,2.29 -2.84,2.873c-1.158,0.583 -2.473,1.027 -3.946,1.333c-1.473,0.304 -2.983,0.929 -4.525,1.873l-1.157,1.666Z" style="fill:#fff;fill-rule:nonzero;stroke:#fff;stroke-width:1px;stroke-linejoin:round;stroke-miterlimit:1.41421;"/><path d="M75.604,84.282c-1.655,0.056 -3.297,0.127 -4.923,0.211c-1.628,0.084 -3.103,0.253 -4.427,0.507c-1.324,0.254 -2.441,0.592 -3.351,1.015c-0.91,0.422 -1.476,1.001 -1.696,1.733c0,0.113 -0.138,0.169 -0.413,0.169c-0.166,0 -0.304,-0.028 -0.414,-0.085c0,-0.619 0.013,-1.226 0.041,-1.817c0.027,-0.592 0.096,-1.282 0.207,-2.072c0.11,-0.731 0.206,-1.365 0.29,-1.902c0.082,-0.534 0.261,-1.112 0.537,-1.732c0.22,-0.563 0.51,-0.859 0.869,-0.888c0.358,-0.028 0.841,0.015 1.448,0.127c0.496,0.056 1.351,0.141 2.565,0.253c1.213,0.114 2.565,0.212 4.054,0.296c1.49,0.084 3.006,0.169 4.551,0.254c1.543,0.084 2.895,0.127 4.054,0.127c1.213,0 2.11,-0.028 2.689,-0.085c0.58,-0.055 1.392,-0.14 2.441,-0.254l0,1.607c-0.773,0.282 -1.751,1.098 -2.937,2.451c-1.187,1.352 -2.345,3.17 -3.475,5.453c-1.132,2.282 -2.125,5.002 -2.979,8.157c-0.855,3.157 -1.311,6.679 -1.365,10.567c-0.056,4.509 0.358,8.552 1.24,12.13c0.883,3.58 2.124,6.594 3.724,9.046c1.599,2.451 3.544,4.325 5.833,5.621c2.289,1.297 4.812,1.945 7.571,1.945c2.814,-0.056 5.254,-0.634 7.323,-1.734c2.068,-1.098 3.599,-2.211 4.591,-3.339c2.041,-2.253 3.351,-5.902 3.931,-10.947c0.579,-5.043 0.868,-11.201 0.868,-18.47c0,-5.58 -0.055,-9.976 -0.165,-13.188c-0.111,-3.212 -0.387,-5.184 -0.827,-5.917c-0.056,-0.225 -0.443,-0.408 -1.159,-0.55c-0.717,-0.139 -1.545,-0.224 -2.482,-0.253c-0.938,-0.028 -1.876,-0.043 -2.813,-0.043c-0.939,0 -1.628,0.03 -2.069,0.085c-0.442,0.056 -0.717,-0.098 -0.827,-0.465c-0.111,-0.366 -0.165,-0.718 -0.165,-1.057c0,-0.281 0.095,-0.562 0.289,-0.845c0.193,-0.281 0.427,-0.478 0.703,-0.592c2.427,0.057 5.061,0.169 7.902,0.338c2.84,0.17 5.447,0.254 7.819,0.254c1.931,0 3.765,-0.042 5.502,-0.127c1.738,-0.085 3.516,-0.182 5.337,-0.296c0.496,0.114 0.744,0.508 0.744,1.184c0,0.733 -0.248,1.156 -0.744,1.268c-0.496,0.113 -1.09,0.141 -1.779,0.084c-0.691,-0.055 -1.394,-0.084 -2.11,-0.084c-0.717,0 -1.297,0.198 -1.738,0.592c-0.276,0.676 -0.551,2.015 -0.827,4.015c-0.276,2.001 -0.51,4.48 -0.703,7.439c-0.194,2.959 -0.359,6.34 -0.497,10.144c-0.138,3.804 -0.206,7.876 -0.206,12.215c0,4.734 0.041,8.58 0.124,11.539c0.082,2.959 0.234,5.298 0.454,7.016c0.22,1.72 0.497,2.946 0.828,3.678c0.123,0.273 0.259,0.515 0.405,0.726l-3.136,0.626c-0.441,0.057 -1.033,0.127 -1.778,0.212c-0.745,0.084 -1.504,0.154 -2.275,0.211c-0.774,0.055 -1.489,0.112 -2.152,0.169c-0.662,0.055 -1.131,0.085 -1.406,0.085c-0.442,0 -0.801,-0.043 -1.076,-0.127c-0.276,-0.085 -0.484,-0.367 -0.621,-0.846c-0.137,-0.478 -0.234,-1.196 -0.289,-2.155c-0.055,-0.958 -0.083,-2.31 -0.083,-4.058c-2.207,2.142 -4.923,3.96 -8.149,5.453c-3.228,1.492 -7.158,2.267 -11.791,2.324c-3.531,-0.169 -6.813,-0.86 -9.846,-2.071c-3.035,-1.211 -5.668,-2.93 -7.902,-5.156c-2.234,-2.226 -3.985,-5.001 -5.253,-8.327c-1.27,-3.324 -1.876,-7.185 -1.821,-11.581c0.054,-2.874 0.606,-5.903 1.655,-9.087c1.047,-3.184 2.302,-6.185 3.765,-9.003c1.461,-2.818 2.964,-5.326 4.509,-7.524c1.543,-2.198 2.812,-3.747 3.806,-4.649" style="fill:#fff;fill-rule:nonzero;"/><path d="M174.674,140.765c-0.993,-0.166 -2.759,-0.425 -3.806,-0.591c-1.048,-0.167 -2.192,-0.292 -3.434,-0.376c-1.241,-0.083 -2.635,-0.152 -4.179,-0.208c-1.544,-0.054 -3.282,-0.083 -5.212,-0.083c-4.468,0 -8.261,0.125 -11.377,0.375c-3.116,0.25 -5.75,0.512 -7.902,0.791c-2.15,0.277 -3.916,0.541 -5.294,0.791c-1.38,0.25 -2.511,0.375 -3.392,0.375c-0.773,0 -1.159,-0.333 -1.159,-1c0,-0.389 0.083,-0.805 0.248,-1.249c0.166,-0.443 0.551,-0.637 1.158,-0.583c0.662,0.056 1.531,0.029 2.607,-0.083c1.075,-0.111 2.151,-0.277 3.227,-0.5c1.075,-0.221 2.012,-0.458 2.812,-0.707c0.8,-0.25 1.283,-0.486 1.449,-0.708c0.219,-0.444 0.455,-1.5 0.703,-3.165c0.248,-1.666 0.455,-3.76 0.62,-6.287c0.166,-2.527 0.303,-5.399 0.414,-8.62c0.11,-3.22 0.165,-6.634 0.165,-10.243c0,-4.885 -0.041,-8.911 -0.124,-12.076c-0.082,-3.165 -0.179,-5.69 -0.289,-7.578c-0.111,-1.887 -0.248,-3.276 -0.413,-4.165c-0.166,-0.887 -0.331,-1.553 -0.497,-1.998l-5.957,-0.333c-1.435,-0.055 -2.331,-0.208 -2.69,-0.458c-0.359,-0.25 -0.537,-0.513 -0.537,-0.792c0,-0.387 0.054,-0.735 0.165,-1.041c0.11,-0.304 0.414,-0.485 0.91,-0.541c0.607,0.056 1.531,0.154 2.772,0.292c1.242,0.139 2.909,0.264 5.006,0.374l4.964,0c2.427,-0.054 4.688,-0.193 6.785,-0.416c2.095,-0.221 3.971,-0.471 5.626,-0.75c1.655,-0.277 3.033,-0.554 4.137,-0.833c1.103,-0.277 1.875,-0.526 2.317,-0.749l0.083,0c0.054,0 0.095,-0.013 0.124,-0.042c0.027,-0.027 0.069,-0.041 0.124,-0.041c0.551,0 0.827,0.583 0.827,1.749c0,0.499 -0.51,0.916 -1.531,1.249c-1.021,0.333 -2.192,0.625 -3.515,0.874c-1.325,0.25 -2.621,0.487 -3.89,0.708c-1.269,0.223 -2.124,0.473 -2.564,0.75c-0.332,0.555 -0.621,2.069 -0.87,4.539c-0.247,2.471 -0.442,5.386 -0.578,8.744c-0.139,3.36 -0.249,6.927 -0.331,10.701c-0.083,3.777 -0.125,7.246 -0.125,10.411c0,5.108 0.069,9.243 0.207,12.408c0.138,3.165 0.4,4.942 0.787,5.33c0.165,0.056 0.467,0.083 0.91,0.083c0.496,0 1.088,-0.041 1.779,-0.125c0.689,-0.083 1.392,-0.166 2.109,-0.25c0.716,-0.083 1.42,-0.179 2.11,-0.291c0.689,-0.11 1.282,-0.194 1.779,-0.25c1.269,-0.166 2.634,-0.375 4.095,-0.625c1.461,-0.249 2.91,-0.554 4.344,-0.915c1.434,-0.361 2.772,-0.819 4.014,-1.374c1.24,-0.555 2.302,-1.25 3.184,-2.083c0.055,-0.11 0.097,-0.152 0.125,-0.125c0.027,0.029 0.069,0.015 0.124,-0.041c0.22,-0.221 0.468,-0.305 0.745,-0.25c0.275,0.056 0.509,0.208 0.703,0.458c0.193,0.25 0.317,0.528 0.372,0.833c0.055,0.306 -0.028,0.541 -0.248,0.708c-0.496,0.389 -0.979,0.972 -1.448,1.749c-0.469,0.778 -0.897,1.611 -1.282,2.498c-0.387,0.889 -0.717,1.736 -0.993,2.54c-0.277,0.806 -0.442,1.403 -0.497,1.791l-0.496,1.424Z" style="fill:#fff;fill-rule:nonzero;"/><path d="M196.441,139.674c-0.994,0 -2.097,0.013 -3.31,0.041c-1.215,0.027 -2.4,0.055 -3.558,0.083c-1.158,0.028 -2.248,0.084 -3.269,0.167c-1.02,0.083 -1.807,0.153 -2.357,0.208l-1.325,0.167c-0.276,0 -0.51,-0.154 -0.702,-0.458c-0.194,-0.305 -0.29,-0.596 -0.29,-0.875c0,-0.221 0.111,-0.458 0.331,-0.707c0.22,-0.25 0.523,-0.375 0.91,-0.375c2.316,0 4.164,-0.138 5.544,-0.416c1.378,-0.278 2.205,-0.638 2.482,-1.083c0.331,-0.667 0.675,-2.151 1.034,-4.456c0.358,-2.303 0.674,-4.996 0.951,-8.078c0.276,-3.081 0.497,-6.315 0.663,-9.702c0.165,-3.386 0.247,-6.523 0.247,-9.411c0,-3.164 -0.014,-5.815 -0.04,-7.953c-0.029,-2.137 -0.056,-3.9 -0.083,-5.288c-0.029,-1.387 -0.056,-2.457 -0.083,-3.207c-0.029,-0.749 -0.041,-1.29 -0.041,-1.623c-0.056,-1.777 -0.304,-2.957 -0.745,-3.54c-0.442,-0.583 -1.241,-0.929 -2.4,-1.041c-0.827,-0.11 -1.793,-0.138 -2.896,-0.083c-1.104,0.056 -1.903,0.056 -2.399,0c-0.387,-0.055 -0.717,-0.125 -0.993,-0.208c-0.277,-0.083 -0.414,-0.375 -0.414,-0.874c0,-0.555 0.137,-0.93 0.414,-1.125c0.276,-0.194 0.579,-0.291 0.91,-0.291c0.441,0 1.862,0.097 4.261,0.291c2.4,0.195 5.833,0.292 10.302,0.292c2.923,0 5.419,-0.069 7.487,-0.209c2.069,-0.138 3.488,-0.263 4.261,-0.374c0.385,0 0.758,0.041 1.118,0.125c0.358,0.083 0.537,0.347 0.537,0.791c0,0.945 -0.635,1.471 -1.903,1.582c-0.442,0 -0.939,0.028 -1.489,0.083c-0.552,0.056 -1.09,0.112 -1.613,0.167c-0.526,0.056 -1.008,0.139 -1.449,0.25c-0.442,0.112 -0.773,0.195 -0.993,0.25c-0.276,0.111 -0.537,1.124 -0.785,3.039c-0.249,1.916 -0.47,4.289 -0.663,7.121c-0.193,2.831 -0.372,5.885 -0.537,9.16c-0.166,3.277 -0.277,6.302 -0.331,9.078c-0.056,2.11 -0.097,4.567 -0.124,7.37c-0.029,2.804 0,5.497 0.083,8.078c0.083,2.582 0.206,4.818 0.372,6.704c0.165,1.888 0.413,2.971 0.744,3.248c0.22,0.167 0.634,0.32 1.241,0.458c0.607,0.139 1.324,0.279 2.152,0.417c0.827,0.139 1.668,0.237 2.523,0.291c0.855,0.056 1.641,0.084 2.359,0.084c0.606,0 0.992,0.056 1.158,0.166c0.165,0.112 0.248,0.389 0.248,0.833c0,0.499 -0.207,0.86 -0.621,1.083c-0.413,0.221 -0.841,0.333 -1.282,0.333c-0.331,0 -0.828,-0.029 -1.489,-0.084c-0.662,-0.055 -1.572,-0.125 -2.73,-0.208c-1.159,-0.083 -2.621,-0.153 -4.386,-0.208c-1.766,-0.056 -3.944,-0.083 -6.537,-0.083l-0.495,0Z" style="fill:#fff;fill-rule:nonzero;"/><path d="M247.633,137.758c3.034,0 5.71,-0.762 8.026,-2.29c2.317,-1.526 4.261,-3.552 5.834,-6.079c1.572,-2.526 2.743,-5.441 3.516,-8.745c0.772,-3.302 1.158,-6.758 1.158,-10.368c0,-4.385 -0.525,-8.341 -1.572,-11.867c-1.048,-3.526 -2.469,-6.51 -4.261,-8.953c-1.793,-2.443 -3.888,-4.317 -6.288,-5.621c-2.399,-1.305 -4.923,-1.958 -7.571,-1.958c-3.034,0 -5.75,0.681 -8.149,2.041c-2.4,1.361 -4.441,3.235 -6.123,5.621c-1.683,2.388 -2.966,5.234 -3.848,8.537c-0.883,3.303 -1.324,6.899 -1.324,10.784c0,4.942 0.58,9.231 1.738,12.867c1.158,3.637 2.689,6.635 4.592,8.994c1.903,2.36 4.095,4.122 6.578,5.288c2.482,1.166 5.047,1.749 7.694,1.749m-2.234,3.081c-4.302,0 -8.315,-0.638 -12.038,-1.915c-3.723,-1.277 -6.964,-3.15 -9.722,-5.621c-2.759,-2.47 -4.937,-5.482 -6.537,-9.036c-1.6,-3.553 -2.399,-7.606 -2.399,-12.159c0,-4.997 0.938,-9.521 2.813,-13.575c1.875,-4.051 4.357,-7.522 7.447,-10.409c3.089,-2.887 6.619,-5.122 10.591,-6.704c3.971,-1.583 8.08,-2.374 12.328,-2.374c4.026,0 7.887,0.597 11.584,1.791c3.694,1.194 6.95,2.943 9.762,5.246c2.814,2.304 5.048,5.163 6.703,8.578c1.655,3.415 2.482,7.316 2.482,11.7c0,4.165 -0.827,8.301 -2.482,12.409c-1.655,4.11 -3.945,7.801 -6.868,11.077c-2.924,3.276 -6.399,5.927 -10.425,7.953c-4.027,2.026 -8.44,3.039 -13.239,3.039" style="fill:#fff;fill-rule:nonzero;"/><g><path d="M46.426,32.999c0,12.8 13.76,14.528 13.76,23.744c0,3.2 -1.408,4.352 -3.648,4.352c-2.24,0 -3.648,-1.152 -3.648,-4.352l0,-3.2l-6.656,0l0,2.752c0,7.168 3.584,11.264 10.496,11.264c6.912,0 10.496,-4.096 10.496,-11.264c0,-12.8 -13.76,-14.528 -13.76,-23.744c0,-3.2 1.28,-4.416 3.52,-4.416c2.24,0 3.52,1.216 3.52,4.416l0,1.856l6.656,0l0,-1.408c0,-7.168 -3.52,-11.264 -10.368,-11.264c-6.848,0 -10.368,4.096 -10.368,11.264Z" style="fill:#fff;fill-rule:nonzero;"/><path d="M90.074,22.247l-10.304,0l-7.168,44.8l6.464,0l1.216,-8.128l8.64,0l1.216,8.128l7.104,0l-7.168,-44.8Zm-5.504,7.936l3.392,22.656l-6.784,0l3.392,-22.656Z" style="fill:#fff;fill-rule:nonzero;"/><path d="M103.706,67.047l18.624,0l0,-6.4l-11.584,0l0,-38.4l-7.04,0l0,44.8Z" style="fill:#fff;fill-rule:nonzero;"/><path d="M135.066,32.551c0,-3.2 1.408,-4.416 3.648,-4.416c2.24,0 3.648,1.216 3.648,4.416l0,24.192c0,3.2 -1.408,4.416 -3.648,4.416c-2.24,0 -3.648,-1.216 -3.648,-4.416l0,-24.192Zm-7.04,23.744c0,7.168 3.776,11.264 10.688,11.264c6.912,0 10.688,-4.096 10.688,-11.264l0,-23.296c0,-7.168 -3.776,-11.264 -10.688,-11.264c-6.912,0 -10.688,4.096 -10.688,11.264l0,23.296Zm11.328,-43.52l-4.352,7.104l4.736,0l6.528,-7.104l-6.912,0Z" style="fill:#fff;fill-rule:nonzero;"/><path d="M172.186,67.047l7.232,0l0,-44.8l-6.272,0l0,26.816l-7.232,-26.816l-8.832,0l0,44.8l6.336,0l0,-32.448l8.768,32.448Z" style="fill:#fff;fill-rule:nonzero;"/><path d="M200.794,67.047l11.136,0c7.04,0 10.496,-3.904 10.496,-11.072l0,-22.656c0,-7.168 -3.456,-11.072 -10.496,-11.072l-11.136,0l0,44.8Zm11.008,-38.4c2.24,0 3.584,1.152 3.584,4.352l0,23.296c0,3.2 -1.344,4.352 -3.584,4.352l-3.968,0l0,-32l3.968,0Z" style="fill:#fff;fill-rule:nonzero;"/><path d="M237.146,28.647l12.16,0l0,-6.4l-19.2,0l0,44.8l19.2,0l0,-6.4l-12.16,0l0,-13.12l9.664,0l0,-6.4l-9.664,0l0,-12.48Z" style="fill:#fff;fill-rule:nonzero;"/></g><path d="M51.335,170.578l0,28.551l23.09,19.304l0,-42.303l-23.09,-5.552Z" style="fill:#213e28;fill-rule:nonzero;"/><path d="M47.127,181.908l-32.733,0l17.439,19.372l-17.439,19.374l55.823,0l-23.09,-19.304l0,-19.442Z" style="fill:#e2e4b9;fill-rule:nonzero;"/><path d="M249.341,170.578l0,28.551l-23.089,19.304l0,-42.303l23.089,-5.552Z" style="fill:#213e28;fill-rule:nonzero;"/><path d="M286.284,181.908l-32.735,0l0,19.442l-23.087,19.304l55.822,0l-17.441,-19.374l17.441,-19.372Z" style="fill:#e2e4b9;fill-rule:nonzero;"/><rect x="51.334" y="160.375" width="198.007" height="38.754" style="fill:#e2e4b9;"/><g><path d="M84.051,173.243l3.06,0l0,19.224l3.96,0l0,-25.2l-2.664,0c-0.612,1.692 -1.296,3.168 -4.356,3.168l0,2.808Z" style="fill:#213e28;fill-rule:nonzero;"/><path d="M107.487,173.315c0,-4.032 -2.124,-6.336 -6.012,-6.336c-3.888,0 -6.012,2.304 -6.012,6.336l0,4.608c0,3.708 1.476,5.76 4.392,5.76c1.764,0 2.988,-0.792 3.672,-2.232l0,4.608c0,2.412 -0.792,3.096 -2.196,3.096c-1.26,0 -2.052,-0.684 -2.052,-2.484l0,-0.9l-3.744,0l0,0.648c0,4.032 2.016,6.336 5.904,6.336c4.104,0 6.048,-2.304 6.048,-6.552l0,-12.888Zm-6.012,6.768c-1.26,0 -2.052,-0.684 -2.052,-2.484l0,-4.536c0,-1.8 0.792,-2.448 2.052,-2.448c1.26,0 2.052,0.648 2.052,2.448l0,4.536c0,1.8 -0.792,2.484 -2.052,2.484Z" style="fill:#213e28;fill-rule:nonzero;"/><path d="M109.935,184.331l0,2.088c0,4.032 2.016,6.336 5.904,6.336c3.888,0 5.904,-2.304 5.904,-6.336l0,-5.616c0,-3.708 -1.476,-5.76 -4.392,-5.76c-1.584,0 -2.736,0.648 -3.456,1.836l0.324,-6.012l6.876,0l0,-3.6l-10.44,0l-0.72,14.616l3.744,0l0,-0.756c0,-1.8 0.792,-2.484 2.052,-2.484c1.26,0 2.052,0.684 2.052,2.484l0,5.544c0,1.8 -0.792,2.448 -2.052,2.448c-1.26,0 -2.052,-0.648 -2.052,-2.448l0,-2.34l-3.744,0Z" style="fill:#213e28;fill-rule:nonzero;"/><path d="M135.999,173.315c0,-4.032 -2.124,-6.336 -6.012,-6.336c-3.888,0 -6.012,2.304 -6.012,6.336l0,4.608c0,3.708 1.476,5.76 4.392,5.76c1.764,0 2.988,-0.792 3.672,-2.232l0,4.608c0,2.412 -0.792,3.096 -2.196,3.096c-1.26,0 -2.052,-0.684 -2.052,-2.484l0,-0.9l-3.744,0l0,0.648c0,4.032 2.016,6.336 5.904,6.336c4.104,0 6.048,-2.304 6.048,-6.552l0,-12.888Zm-6.012,6.768c-1.26,0 -2.052,-0.684 -2.052,-2.484l0,-4.536c0,-1.8 0.792,-2.448 2.052,-2.448c1.26,0 2.052,0.648 2.052,2.448l0,4.536c0,1.8 -0.792,2.484 -2.052,2.484Z" style="fill:#213e28;fill-rule:nonzero;"/><rect x="144.027" y="178.067" width="7.2" height="3.6" style="fill:#213e28;fill-rule:nonzero;"/><path d="M156.375,173.243l3.06,0l0,19.224l3.96,0l0,-25.2l-2.664,0c-0.612,1.692 -1.296,3.168 -4.356,3.168l0,2.808Z" style="fill:#213e28;fill-rule:nonzero;"/><path d="M179.811,173.315c0,-4.032 -2.124,-6.336 -6.012,-6.336c-3.888,0 -6.012,2.304 -6.012,6.336l0,4.608c0,3.708 1.476,5.76 4.392,5.76c1.764,0 2.988,-0.792 3.672,-2.232l0,4.608c0,2.412 -0.792,3.096 -2.196,3.096c-1.26,0 -2.052,-0.684 -2.052,-2.484l0,-0.9l-3.744,0l0,0.648c0,4.032 2.016,6.336 5.904,6.336c4.104,0 6.048,-2.304 6.048,-6.552l0,-12.888Zm-6.012,6.768c-1.26,0 -2.052,-0.684 -2.052,-2.484l0,-4.536c0,-1.8 0.792,-2.448 2.052,-2.448c1.26,0 2.052,0.648 2.052,2.448l0,4.536c0,1.8 -0.792,2.484 -2.052,2.484Z" style="fill:#213e28;fill-rule:nonzero;"/><path d="M182.187,186.419c0,4.032 2.124,6.336 6.012,6.336c3.888,0 6.012,-2.304 6.012,-6.336l0,-4.608c0,-3.708 -1.476,-5.76 -4.392,-5.76c-1.764,0 -2.988,0.792 -3.672,2.232l0,-4.608c0,-2.412 0.792,-3.096 2.196,-3.096c1.26,0 2.052,0.684 2.052,2.484l0,0.9l3.744,0l0,-0.648c0,-4.032 -2.016,-6.336 -5.904,-6.336c-4.104,0 -6.048,2.304 -6.048,6.552l0,12.888Zm6.012,-6.768c1.26,0 2.052,0.684 2.052,2.484l0,4.536c0,1.8 -0.792,2.448 -2.052,2.448c-1.26,0 -2.052,-0.648 -2.052,-2.448l0,-4.536c0,-1.8 0.792,-2.484 2.052,-2.484Z" style="fill:#213e28;fill-rule:nonzero;"/><path d="M208.323,173.315c0,-4.032 -2.124,-6.336 -6.012,-6.336c-3.888,0 -6.012,2.304 -6.012,6.336l0,4.608c0,3.708 1.476,5.76 4.392,5.76c1.764,0 2.988,-0.792 3.672,-2.232l0,4.608c0,2.412 -0.792,3.096 -2.196,3.096c-1.26,0 -2.052,-0.684 -2.052,-2.484l0,-0.9l-3.744,0l0,0.648c0,4.032 2.016,6.336 5.904,6.336c4.104,0 6.048,-2.304 6.048,-6.552l0,-12.888Zm-6.012,6.768c-1.26,0 -2.052,-0.684 -2.052,-2.484l0,-4.536c0,-1.8 0.792,-2.448 2.052,-2.448c1.26,0 2.052,0.648 2.052,2.448l0,4.536c0,1.8 -0.792,2.484 -2.052,2.484Z" style="fill:#213e28;fill-rule:nonzero;"/></g></svg>