<?xml version="1.0" encoding="UTF-8" standalone="no"?><!DOCTYPE svg PUBLIC "-//W3C//DTD SVG 1.1//EN" "http://www.w3.org/Graphics/SVG/1.1/DTD/svg11.dtd"><svg width="100%" height="100%" viewBox="0 0 280 53" version="1.1" xmlns="http://www.w3.org/2000/svg" xmlns:xlink="http://www.w3.org/1999/xlink" xml:space="preserve" xmlns:serif="http://www.serif.com/" style="fill-rule:evenodd;clip-rule:evenodd;stroke-linejoin:round;stroke-miterlimit:2;"><g><path d="M66.003,16.911l-7.058,0l0,-11.315l1.756,0l0,9.7l5.302,0l0,1.615Z" style="fill:#fff;fill-rule:nonzero;"/><path d="M68.038,5.846c0,-0.588 0.463,-1.035 1.089,-1.035c0.628,0 1.092,0.447 1.092,1.035c0,0.58 -0.464,1.027 -1.092,1.027c-0.626,0 -1.089,-0.447 -1.089,-1.027Zm0.252,2.526l1.677,0l0,8.539l-1.677,0l0,-8.539Z" style="fill:#fff;fill-rule:nonzero;"/><path d="M75.801,8.207c1.922,0 3.178,0.895 3.342,2.4l-1.615,0c-0.157,-0.627 -0.768,-1.027 -1.727,-1.027c-0.939,0 -1.653,0.447 -1.653,1.113c0,0.509 0.431,0.831 1.356,1.042l1.42,0.331c1.622,0.376 2.383,1.073 2.383,2.328c0,1.608 -1.498,2.681 -3.537,2.681c-2.031,0 -3.356,-0.916 -3.504,-2.431l1.685,0c0.212,0.659 0.839,1.068 1.86,1.068c1.051,0 1.795,-0.471 1.795,-1.153c0,-0.51 -0.399,-0.84 -1.255,-1.042l-1.49,-0.345c-1.624,-0.385 -2.376,-1.115 -2.376,-2.386c0,-1.513 1.387,-2.579 3.316,-2.579Z" style="fill:#fff;fill-rule:nonzero;"/><path d="M83.79,6.247l0,2.163l1.85,0l0,1.42l-1.85,0l0,4.391c0,0.894 0.368,1.287 1.206,1.287c0.259,0 0.409,-0.015 0.644,-0.039l0,1.404c-0.275,0.047 -0.589,0.085 -0.918,0.085c-1.874,0 -2.619,-0.658 -2.619,-2.305l0,-4.823l-1.356,0l0,-1.42l1.356,0l0,-2.163l1.687,0Z" style="fill:#fff;fill-rule:nonzero;"/><path d="M94.984,14.606c-0.385,1.529 -1.748,2.469 -3.701,2.469c-2.447,0 -3.946,-1.677 -3.946,-4.405c0,-2.73 1.53,-4.463 3.937,-4.463c2.376,0 3.812,1.623 3.812,4.306l0,0.587l-6.031,0l0,0.095c0.055,1.497 0.925,2.446 2.274,2.446c1.02,0 1.717,-0.369 2.031,-1.035l1.624,0Zm-5.929,-2.752l4.314,0c-0.04,-1.342 -0.856,-2.212 -2.102,-2.212c-1.247,0 -2.117,0.878 -2.212,2.212Z" style="fill:#fff;fill-rule:nonzero;"/><path d="M97.339,8.372l1.624,0l0,1.356l0.126,0c0.414,-0.949 1.261,-1.521 2.548,-1.521c1.905,0 2.956,1.145 2.956,3.176l0,5.528l-1.686,0l0,-5.105c0,-1.372 -0.595,-2.055 -1.843,-2.055c-1.247,0 -2.039,0.833 -2.039,2.165l0,4.995l-1.686,0l0,-8.539Z" style="fill:#fff;fill-rule:nonzero;"/><path d="M111.395,12.637c0,-2.752 1.537,-4.43 4.031,-4.43c2.486,0 4.023,1.678 4.023,4.43c0,2.768 -1.53,4.438 -4.023,4.438c-2.502,0 -4.031,-1.67 -4.031,-4.438Zm6.322,0c0,-1.851 -0.832,-2.933 -2.29,-2.933c-1.468,0 -2.291,1.082 -2.291,2.933c0,1.867 0.823,2.942 2.291,2.942c1.458,0 2.29,-1.083 2.29,-2.942Z" style="fill:#fff;fill-rule:nonzero;"/><path d="M121.703,8.372l1.624,0l0,1.356l0.126,0c0.414,-0.949 1.261,-1.521 2.548,-1.521c1.905,0 2.956,1.145 2.956,3.176l0,5.528l-1.686,0l0,-5.105c0,-1.372 -0.595,-2.055 -1.843,-2.055c-1.247,0 -2.039,0.833 -2.039,2.165l0,4.995l-1.686,0l0,-8.539Z" style="fill:#fff;fill-rule:nonzero;"/><path d="M72.617,40.956l-8.846,0l-2.125,6.272l-3.746,0l8.378,-23.207l3.893,0l8.379,23.207l-3.811,0l-2.122,-6.272Zm-7.93,-2.895l7.012,0l-3.457,-10.18l-0.096,0l-3.459,10.18Z" style="fill:#fff;fill-rule:nonzero;"/><path d="M96.645,38.769c0,5.258 -2.814,8.636 -7.061,8.636c-2.411,0 -4.325,-1.078 -5.323,-2.96l-0.081,0l0,8.381l-3.473,0l0,-22.518l3.362,0l0,2.815l0.064,0c0.965,-1.816 3.024,-2.992 5.387,-2.992c4.294,0 7.125,3.395 7.125,8.638Zm-3.57,0c0,-3.425 -1.77,-5.677 -4.471,-5.677c-2.654,0 -4.438,2.299 -4.438,5.677c0,3.41 1.784,5.693 4.438,5.693c2.701,0 4.471,-2.236 4.471,-5.693Z" style="fill:#fff;fill-rule:nonzero;"/><path d="M115.268,38.769c0,5.258 -2.815,8.636 -7.061,8.636c-2.411,0 -4.326,-1.078 -5.324,-2.96l-0.08,0l0,8.381l-3.473,0l0,-22.518l3.361,0l0,2.815l0.064,0c0.966,-1.816 3.024,-2.992 5.388,-2.992c4.294,0 7.125,3.395 7.125,8.638Zm-3.57,0c0,-3.425 -1.77,-5.677 -4.471,-5.677c-2.654,0 -4.439,2.299 -4.439,5.677c0,3.41 1.785,5.693 4.439,5.693c2.701,0 4.471,-2.236 4.471,-5.693Z" style="fill:#fff;fill-rule:nonzero;"/><rect x="118.08" y="24.021" width="3.475" height="23.207" style="fill:#fff;"/><path d="M139.637,42.259c-0.467,3.072 -3.458,5.179 -7.285,5.179c-4.922,0 -7.977,-3.297 -7.977,-8.588c0,-5.307 3.071,-8.749 7.831,-8.749c4.681,0 7.625,3.215 7.625,8.345l0,1.19l-11.951,0l0,0.21c0,2.895 1.818,4.793 4.552,4.793c1.929,0 3.442,-0.916 3.907,-2.38l3.298,0Zm-11.74,-5.05l8.459,0c-0.08,-2.59 -1.737,-4.294 -4.15,-4.294c-2.396,0 -4.132,1.737 -4.309,4.294Z" style="fill:#fff;fill-rule:nonzero;"/><path d="M158.329,24.021c4.503,0 7.64,3.105 7.64,7.624c0,4.535 -3.201,7.654 -7.753,7.654l-4.986,0l0,7.929l-3.602,0l0,-23.207l8.701,0Zm-5.099,12.255l4.134,0c3.135,0 4.92,-1.69 4.92,-4.615c0,-2.927 -1.785,-4.601 -4.904,-4.601l-4.15,0l0,9.216Z" style="fill:#fff;fill-rule:nonzero;"/><path d="M167.237,38.769c0,-5.323 3.136,-8.669 8.025,-8.669c4.906,0 8.026,3.346 8.026,8.669c0,5.339 -3.104,8.669 -8.026,8.669c-4.92,0 -8.025,-3.33 -8.025,-8.669Zm12.513,0c0,-3.651 -1.674,-5.807 -4.488,-5.807c-2.814,0 -4.488,2.172 -4.488,5.807c0,3.667 1.674,5.806 4.488,5.806c2.814,0 4.488,-2.139 4.488,-5.806Z" style="fill:#fff;fill-rule:nonzero;"/><path d="M185.727,38.769c0,-5.227 2.878,-8.638 7.075,-8.638c2.429,0 4.344,1.126 5.307,2.992l0.066,0l0,-9.102l3.49,0l0,23.207l-3.378,0l0,-2.878l-0.064,0c-0.997,1.93 -2.928,3.056 -5.388,3.056c-4.23,-0.001 -7.108,-3.41 -7.108,-8.637Zm3.553,0c0,3.473 1.77,5.693 4.471,5.693c2.67,0 4.455,-2.252 4.455,-5.693c0,-3.411 -1.785,-5.677 -4.455,-5.677c-2.701,0 -4.471,2.235 -4.471,5.677Z" style="fill:#fff;fill-rule:nonzero;"/><path d="M216.444,36.13c-0.305,-1.784 -1.705,-3.118 -3.988,-3.118c-2.67,0 -4.44,2.235 -4.44,5.758c0,3.602 1.787,5.772 4.471,5.772c2.155,0 3.572,-1.077 3.957,-3.038l3.345,0c-0.385,3.553 -3.232,5.935 -7.333,5.935c-4.825,0 -7.977,-3.298 -7.977,-8.669c0,-5.26 3.152,-8.669 7.944,-8.669c4.342,0 7.045,2.734 7.335,6.03l-3.314,0l0,-0.001Z" style="fill:#fff;fill-rule:nonzero;"/><path d="M221.917,42.419c0,-2.958 2.267,-4.745 6.287,-4.986l4.632,-0.257l0,-1.287c0,-1.881 -1.237,-2.943 -3.343,-2.943c-1.931,0 -3.282,0.918 -3.555,2.381l-3.249,0c0.097,-3.057 2.942,-5.227 6.899,-5.227c4.037,0 6.707,2.203 6.707,5.532l0,11.596l-3.329,0l0,-2.783l-0.08,0c-0.982,1.882 -3.121,3.073 -5.34,3.073c-3.313,0.001 -5.629,-2.058 -5.629,-5.099Zm10.919,-1.527l0,-1.303l-4.164,0.257c-2.076,0.13 -3.249,1.029 -3.249,2.477c0,1.48 1.223,2.445 3.088,2.445c2.429,0 4.325,-1.673 4.325,-3.876Z" style="fill:#fff;fill-rule:nonzero;"/><path d="M245.989,30.117c3.749,0 6.433,2.073 6.514,5.064l-3.265,0c-0.144,-1.494 -1.415,-2.41 -3.346,-2.41c-1.881,0 -3.135,0.867 -3.135,2.186c0,1.013 0.836,1.688 2.59,2.122l2.847,0.661c3.409,0.82 4.696,2.073 4.696,4.552c0,3.055 -2.895,5.146 -7.029,5.146c-3.989,0 -6.674,-2.044 -6.931,-5.132l3.44,0c0.243,1.624 1.544,2.493 3.652,2.493c2.075,0 3.378,-0.852 3.378,-2.203c0,-1.045 -0.644,-1.608 -2.413,-2.058l-3.024,-0.739c-3.057,-0.741 -4.601,-2.302 -4.601,-4.649c0.001,-2.991 2.687,-5.033 6.627,-5.033Z" style="fill:#fff;fill-rule:nonzero;"/><path d="M260.436,26.305l0,4.004l3.218,0l0,2.75l-3.218,0l0,9.328c0,1.449 0.644,2.124 2.059,2.124c0.354,0 0.918,-0.049 1.142,-0.08l0,2.734c-0.385,0.096 -1.157,0.16 -1.929,0.16c-3.425,0 -4.761,-1.287 -4.761,-4.568l0,-9.698l-2.461,0l0,-2.751l2.461,0l0,-4.004l3.489,0l0,0.001Z" style="fill:#fff;fill-rule:nonzero;"/><path d="M272.992,30.117c3.749,0 6.434,2.073 6.514,5.064l-3.265,0c-0.144,-1.494 -1.414,-2.41 -3.345,-2.41c-1.882,0 -3.136,0.867 -3.136,2.186c0,1.013 0.836,1.688 2.59,2.122l2.847,0.661c3.409,0.82 4.696,2.073 4.696,4.552c0,3.055 -2.895,5.146 -7.028,5.146c-3.99,0 -6.674,-2.044 -6.932,-5.132l3.44,0c0.243,1.624 1.544,2.493 3.652,2.493c2.075,0 3.378,-0.852 3.378,-2.203c0,-1.045 -0.644,-1.608 -2.412,-2.058l-3.024,-0.739c-3.057,-0.741 -4.601,-2.302 -4.601,-4.649c0,-2.991 2.686,-5.033 6.626,-5.033Z" style="fill:#fff;fill-rule:nonzero;"/><path id="XMLID_1383_" d="M47.337,43.585c-0.457,1.161 -1.512,2.796 -3.008,3.947c-0.863,0.665 -1.894,1.301 -3.31,1.721c-1.51,0.447 -3.37,0.598 -5.684,0.598l-21.161,0c-2.314,0 -4.174,-0.151 -5.684,-0.598c-1.416,-0.42 -2.447,-1.056 -3.311,-1.721c-1.495,-1.151 -2.55,-2.786 -3.007,-3.947c-0.921,-2.34 -0.93,-4.994 -0.93,-6.666l0,-21.161c0,-1.672 0.009,-4.326 0.93,-6.666c0.457,-1.161 1.512,-2.796 3.008,-3.947c0.863,-0.665 1.894,-1.301 3.31,-1.721c1.51,-0.447 3.37,-0.598 5.684,-0.598l21.161,0c2.314,0 4.174,0.151 5.684,0.598c1.416,0.42 2.447,1.056 3.311,1.721c1.495,1.152 2.55,2.786 3.007,3.947c0.921,2.34 0.93,4.994 0.93,6.666l0,21.161c0,1.672 -0.009,4.326 -0.93,6.666Z" style="fill:url(#_Linear1);"/><path id="XMLID_1381_" d="M47.337,43.585c-0.457,1.161 -1.512,2.796 -3.008,3.947c-0.863,0.665 -1.894,1.301 -3.31,1.721c-1.51,0.447 -3.37,0.598 -5.684,0.598l-21.161,0c-2.314,0 -4.174,-0.151 -5.684,-0.598c-1.416,-0.42 -2.447,-1.056 -3.311,-1.721c-1.495,-1.151 -2.55,-2.786 -3.007,-3.947c-0.921,-2.34 -0.93,-4.994 -0.93,-6.666l0,-21.161c0,-1.672 0.009,-4.326 0.93,-6.666c0.457,-1.161 1.512,-2.796 3.008,-3.947c0.863,-0.665 1.894,-1.301 3.31,-1.721c1.51,-0.447 3.37,-0.598 5.684,-0.598l21.161,0c2.314,0 4.174,0.151 5.684,0.598c1.416,0.42 2.447,1.056 3.311,1.721c1.495,1.152 2.55,2.786 3.007,3.947c0.921,2.34 0.93,4.994 0.93,6.666l0,21.161c0,1.672 -0.009,4.326 -0.93,6.666Z" style="fill:none;"/><path id="XMLID_1369_" d="M28.165,29.855c-0.706,-0.744 -1.945,-1.222 -3.408,-1.222c-1.464,0 -2.703,0.478 -3.409,1.222c-0.368,0.389 -0.563,0.787 -0.624,1.354c-0.119,1.099 -0.052,2.045 0.077,3.558c0.122,1.441 0.355,3.363 0.659,5.32c0.216,1.393 0.392,2.145 0.552,2.684c0.259,0.872 1.229,1.635 2.745,1.635c1.515,0 2.485,-0.763 2.744,-1.635c0.16,-0.539 0.336,-1.291 0.552,-2.684c0.304,-1.957 0.537,-3.879 0.659,-5.32c0.129,-1.513 0.196,-2.459 0.077,-3.558c-0.061,-0.567 -0.256,-0.965 -0.624,-1.354Zm-7.253,-6.629c0,2.125 1.723,3.848 3.848,3.848c2.126,0 3.849,-1.723 3.849,-3.848c0,-2.126 -1.723,-3.849 -3.849,-3.849c-2.125,0 -3.848,1.723 -3.848,3.849Zm3.801,-15.188c-9.001,0.025 -16.377,7.327 -16.488,16.328c-0.09,7.29 4.564,13.527 11.062,15.813c0.158,0.056 0.318,-0.075 0.293,-0.241c-0.085,-0.566 -0.165,-1.135 -0.239,-1.694c-0.026,-0.198 -0.152,-0.368 -0.335,-0.448c-5.136,-2.244 -8.723,-7.396 -8.666,-13.363c0.076,-7.831 6.47,-14.216 14.302,-14.279c8.005,-0.065 14.539,6.429 14.539,14.42c0,5.908 -3.571,10.996 -8.668,13.222c-0.183,0.08 -0.308,0.251 -0.334,0.448c-0.074,0.56 -0.154,1.128 -0.239,1.694c-0.025,0.165 0.135,0.296 0.293,0.241c6.437,-2.264 11.064,-8.404 11.064,-15.605c0,-9.134 -7.444,-16.562 -16.584,-16.536Zm-0.299,7.587c5.102,-0.198 9.316,3.895 9.316,8.955c0,2.573 -1.09,4.896 -2.832,6.532c-0.148,0.138 -0.227,0.335 -0.216,0.538c0.035,0.615 0.022,1.213 -0.019,1.888c-0.011,0.18 0.191,0.295 0.34,0.194c2.922,-1.997 4.843,-5.354 4.843,-9.152c0,-6.254 -5.209,-11.315 -11.516,-11.07c-5.861,0.227 -10.564,5.06 -10.639,10.925c-0.049,3.858 1.884,7.275 4.843,9.297c0.149,0.102 0.35,-0.014 0.339,-0.193c-0.041,-0.676 -0.053,-1.274 -0.019,-1.889c0.012,-0.202 -0.068,-0.399 -0.215,-0.538c-1.797,-1.687 -2.9,-4.104 -2.83,-6.773c0.124,-4.696 3.91,-8.533 8.605,-8.714Z" style="fill:#fff;fill-rule:nonzero;"/></g><defs><linearGradient id="_Linear1" x1="0" y1="0" x2="1" y2="0" gradientUnits="userSpaceOnUse" gradientTransform="matrix(2.87948e-15,47.0254,-47.0254,2.87948e-15,24.754,2.8258)"><stop offset="0" style="stop-color:#f452ff;stop-opacity:1"/><stop offset="1" style="stop-color:#832bc1;stop-opacity:1"/></linearGradient></defs></svg>