<?xml version="1.0" encoding="UTF-8" standalone="no"?><!DOCTYPE svg PUBLIC "-//W3C//DTD SVG 1.1//EN" "http://www.w3.org/Graphics/SVG/1.1/DTD/svg11.dtd"><svg width="100%" height="100%" viewBox="0 0 288 240" version="1.1" xmlns="http://www.w3.org/2000/svg" xmlns:xlink="http://www.w3.org/1999/xlink" xml:space="preserve" xmlns:serif="http://www.serif.com/" style="fill-rule:evenodd;clip-rule:evenodd;stroke-linejoin:round;stroke-miterlimit:2;"><g><path d="M48.536,178.164l0,-2.52l9.19,-0.014l0,7.969c-1.411,1.113 -2.866,1.95 -4.366,2.512c-1.5,0.561 -3.039,0.842 -4.617,0.842c-2.131,0 -4.068,-0.452 -5.809,-1.355c-1.741,-0.903 -3.056,-2.209 -3.944,-3.918c-0.888,-1.709 -1.332,-3.619 -1.332,-5.728c0,-2.09 0.442,-4.04 1.325,-5.852c0.883,-1.811 2.153,-3.157 3.811,-4.036c1.657,-0.878 3.566,-1.318 5.727,-1.318c1.568,0 2.987,0.252 4.255,0.754c1.267,0.503 2.261,1.204 2.982,2.102c0.72,0.899 1.267,2.071 1.642,3.516l-2.59,0.703c-0.325,-1.094 -0.73,-1.953 -1.213,-2.578c-0.484,-0.625 -1.174,-1.125 -2.072,-1.501c-0.898,-0.376 -1.894,-0.564 -2.989,-0.564c-1.313,0 -2.447,0.197 -3.404,0.593c-0.957,0.395 -1.729,0.915 -2.316,1.56c-0.587,0.645 -1.044,1.353 -1.369,2.124c-0.553,1.328 -0.829,2.769 -0.829,4.321c0,1.914 0.333,3.516 0.999,4.805c0.666,1.289 1.635,2.246 2.908,2.871c1.273,0.625 2.624,0.938 4.055,0.938c1.243,0 2.457,-0.237 3.641,-0.711c1.183,-0.473 2.081,-0.979 2.693,-1.516l0,-3.999l-6.378,0Z" style="fill:#5baef6;fill-rule:nonzero;"/><path d="M82.065,165.291l2.871,0l0,12.407c0,2.158 -0.247,3.872 -0.74,5.142c-0.494,1.269 -1.384,2.302 -2.672,3.098c-1.287,0.796 -2.977,1.194 -5.068,1.194c-2.033,0 -3.695,-0.347 -4.988,-1.04c-1.292,-0.694 -2.215,-1.697 -2.767,-3.01c-0.553,-1.314 -0.829,-3.108 -0.829,-5.384l0,-12.407l2.871,0l0,12.393c0,1.865 0.175,3.239 0.526,4.123c0.35,0.884 0.952,1.565 1.805,2.044c0.853,0.478 1.897,0.717 3.13,0.717c2.111,0 3.616,-0.473 4.514,-1.421c0.898,-0.947 1.347,-2.768 1.347,-5.463l0,-12.393Z" style="fill:#5baef6;fill-rule:nonzero;"/><path d="M93.815,186.656l8.332,-21.474l3.093,0l8.88,21.474l-3.271,0l-2.53,-6.504l-9.072,0l-2.383,6.504l-3.049,0Zm6.261,-8.818l7.355,0l-2.265,-5.947c-0.69,-1.807 -1.203,-3.291 -1.539,-4.454c-0.276,1.377 -0.666,2.745 -1.169,4.102l-2.382,6.299Z" style="fill:#5baef6;fill-rule:nonzero;"/><path d="M125.852,186.656l0,-9.096l-8.361,-12.378l3.492,0l4.277,6.474c0.79,1.211 1.525,2.422 2.205,3.633c0.652,-1.123 1.441,-2.388 2.368,-3.794l4.203,-6.313l3.345,0l-8.658,12.378l0,9.096l-2.871,0Z" style="fill:#5baef6;fill-rule:nonzero;"/><path d="M140.42,186.656l8.332,-21.474l3.093,0l8.879,21.474l-3.271,0l-2.53,-6.504l-9.072,0l-2.383,6.504l-3.048,0Zm6.26,-8.818l7.355,0l-2.264,-5.947c-0.691,-1.807 -1.204,-3.291 -1.54,-4.454c-0.276,1.377 -0.665,2.745 -1.169,4.102l-2.382,6.299Z" style="fill:#5baef6;fill-rule:nonzero;"/><path d="M185.46,184.356c1.332,0.909 2.56,1.573 3.685,1.993l-0.844,1.977c-1.559,-0.556 -3.113,-1.435 -4.662,-2.637c-1.608,0.889 -3.384,1.333 -5.327,1.333c-1.964,0 -3.744,-0.468 -5.343,-1.406c-1.598,-0.937 -2.829,-2.256 -3.692,-3.955c-0.863,-1.699 -1.295,-3.613 -1.295,-5.742c0,-2.119 0.434,-4.048 1.302,-5.786c0.869,-1.738 2.104,-3.062 3.707,-3.97c1.604,-0.908 3.397,-1.362 5.38,-1.362c2.003,0 3.808,0.471 5.416,1.413c1.609,0.943 2.834,2.261 3.678,3.955c0.844,1.695 1.265,3.606 1.265,5.735c0,1.768 -0.271,3.357 -0.814,4.768c-0.542,1.411 -1.361,2.64 -2.456,3.684Zm-6.32,-3.632c1.658,0.459 3.024,1.142 4.1,2.05c1.687,-1.523 2.531,-3.813 2.531,-6.87c0,-1.738 -0.299,-3.257 -0.896,-4.555c-0.597,-1.299 -1.47,-2.307 -2.619,-3.025c-1.15,-0.718 -2.44,-1.077 -3.87,-1.077c-2.141,0 -3.917,0.725 -5.328,2.175c-1.411,1.451 -2.116,3.616 -2.116,6.497c0,2.793 0.698,4.936 2.094,6.431c1.396,1.494 3.179,2.241 5.35,2.241c1.026,0 1.993,-0.191 2.9,-0.571c-0.897,-0.577 -1.845,-0.987 -2.841,-1.231l0.695,-2.065Z" style="fill:#5baef6;fill-rule:nonzero;"/><path d="M214.75,165.182l2.871,0l0,12.407c0,2.158 -0.247,3.872 -0.74,5.141c-0.494,1.27 -1.384,2.303 -2.672,3.099c-1.287,0.796 -2.977,1.193 -5.068,1.193c-2.033,0 -3.695,-0.346 -4.988,-1.04c-1.292,-0.693 -2.214,-1.696 -2.767,-3.01c-0.552,-1.313 -0.829,-3.108 -0.829,-5.383l0,-12.407l2.871,0l0,12.392c0,1.865 0.175,3.24 0.526,4.124c0.35,0.884 0.952,1.565 1.805,2.043c0.854,0.479 1.897,0.718 3.13,0.718c2.112,0 3.616,-0.474 4.514,-1.421c0.898,-0.947 1.347,-2.768 1.347,-5.464l0,-12.392Z" style="fill:#5baef6;fill-rule:nonzero;"/><rect x="229.609" y="165.182" width="2.871" height="21.475" style="fill:#5baef6;"/><path d="M244.863,186.656l0,-21.474l2.871,0l0,18.94l10.685,0l0,2.534l-13.556,0Z" style="fill:#5baef6;fill-rule:nonzero;"/></g><g><rect x="29.143" y="142.216" width="2.318" height="16.464" style="fill:#273c83;"/><path d="M36.484,158.679l0,-16.463l2.378,0l9.201,12.926l0,-12.926l2.223,0l0,16.463l-2.378,0l-9.201,-12.937l0,12.937l-2.223,0Z" style="fill:#273c83;fill-rule:nonzero;"/><path d="M55.032,158.712l0,-16.464l6.034,0c1.362,0 2.402,0.079 3.119,0.236c1.004,0.217 1.86,0.61 2.569,1.179c0.924,0.734 1.615,1.672 2.073,2.813c0.459,1.142 0.688,2.447 0.688,3.914c0,1.25 -0.156,2.358 -0.466,3.324c-0.311,0.966 -0.709,1.765 -1.195,2.398c-0.486,0.633 -1.018,1.131 -1.596,1.494c-0.577,0.363 -1.274,0.638 -2.091,0.825c-0.816,0.187 -1.755,0.281 -2.814,0.281l-6.321,0Zm2.318,-1.943l3.74,0c1.155,0 2.061,-0.101 2.719,-0.303c0.657,-0.202 1.181,-0.487 1.571,-0.854c0.55,-0.516 0.978,-1.211 1.285,-2.083c0.306,-0.872 0.46,-1.93 0.46,-3.173c0,-1.722 -0.301,-3.045 -0.903,-3.97c-0.601,-0.924 -1.332,-1.544 -2.192,-1.858c-0.622,-0.225 -1.622,-0.337 -3,-0.337l-3.68,0l0,12.578Z" style="fill:#273c83;fill-rule:nonzero;"/><path d="M74.343,158.679l0,-16.463l9.372,0l0,1.942l-7.657,0l0,5.043l7.171,0l0,1.932l-7.171,0l0,5.604l7.958,0l0,1.942l-9.673,0Z" style="fill:#273c83;fill-rule:nonzero;"/><path d="M87.218,158.679l0,-16.463l6.609,0c1.163,0 2.051,0.052 2.664,0.157c0.861,0.135 1.582,0.391 2.163,0.769c0.582,0.378 1.05,0.908 1.404,1.589c0.355,0.681 0.532,1.43 0.532,2.246c0,1.4 -0.474,2.585 -1.422,3.555c-0.948,0.969 -2.661,1.454 -5.138,1.454l-4.493,0l0,6.693l-2.319,0Zm2.319,-8.636l4.529,0c1.497,0 2.561,-0.262 3.19,-0.786c0.63,-0.524 0.944,-1.262 0.944,-2.212c0,-0.689 -0.185,-1.279 -0.555,-1.769c-0.371,-0.491 -0.859,-0.814 -1.464,-0.972c-0.391,-0.097 -1.112,-0.146 -2.163,-0.146l-4.481,0l0,5.885Z" style="fill:#273c83;fill-rule:nonzero;"/><path d="M103.59,158.679l0,-16.463l9.514,0l0,1.942l-7.773,0l0,5.043l7.279,0l0,1.932l-7.279,0l0,5.604l8.078,0l0,1.942l-9.819,0Z" style="fill:#273c83;fill-rule:nonzero;"/><path d="M118.222,158.818l0,-16.464l2.378,0l9.201,12.927l0,-12.927l2.223,0l0,16.464l-2.378,0l-9.202,-12.937l0,12.937l-2.222,0Z" style="fill:#273c83;fill-rule:nonzero;"/><path d="M137.539,158.679l0,-16.463l5.344,0c1.207,0 2.127,0.078 2.762,0.235c0.889,0.217 1.648,0.611 2.276,1.18c0.818,0.733 1.43,1.671 1.836,2.813c0.406,1.142 0.608,2.446 0.608,3.914c0,1.25 -0.137,2.358 -0.412,3.324c-0.275,0.966 -0.628,1.765 -1.059,2.398c-0.43,0.632 -0.901,1.13 -1.412,1.493c-0.512,0.363 -1.129,0.638 -1.852,0.826c-0.724,0.187 -1.554,0.28 -2.493,0.28l-5.598,0Zm2.053,-1.942l3.312,0c1.023,0 1.826,-0.102 2.408,-0.304c0.582,-0.202 1.046,-0.486 1.392,-0.853c0.487,-0.517 0.866,-1.211 1.137,-2.083c0.272,-0.873 0.408,-1.93 0.408,-3.173c0,-1.722 -0.266,-3.045 -0.799,-3.97c-0.533,-0.925 -1.18,-1.544 -1.942,-1.859c-0.551,-0.224 -1.436,-0.337 -2.657,-0.337l-3.259,0l0,12.579Z" style="fill:#273c83;fill-rule:nonzero;"/><path d="M155.02,158.679l0,-16.463l9.42,0l0,1.942l-7.696,0l0,5.043l7.208,0l0,1.932l-7.208,0l0,5.604l7.998,0l0,1.942l-9.722,0Z" style="fill:#273c83;fill-rule:nonzero;"/><path d="M168.632,158.679l0,-16.463l2.378,0l9.201,12.926l0,-12.926l2.223,0l0,16.463l-2.378,0l-9.202,-12.937l0,12.937l-2.222,0Z" style="fill:#273c83;fill-rule:nonzero;"/><path d="M200.509,152.907l2.318,0.55c-0.486,1.79 -1.36,3.154 -2.623,4.094c-1.263,0.939 -2.806,1.409 -4.631,1.409c-1.888,0 -3.423,-0.361 -4.606,-1.084c-1.183,-0.722 -2.083,-1.768 -2.701,-3.139c-0.617,-1.37 -0.926,-2.841 -0.926,-4.413c0,-1.715 0.349,-3.21 1.046,-4.487c0.697,-1.276 1.689,-2.246 2.975,-2.908c1.287,-0.663 2.703,-0.994 4.248,-0.994c1.753,0 3.227,0.419 4.422,1.258c1.195,0.838 2.027,2.017 2.497,3.537l-2.282,0.506c-0.407,-1.198 -0.996,-2.071 -1.769,-2.617c-0.773,-0.547 -1.744,-0.82 -2.916,-0.82c-1.346,0 -2.471,0.303 -3.375,0.91c-0.905,0.606 -1.54,1.42 -1.906,2.442c-0.367,1.022 -0.55,2.076 -0.55,3.162c0,1.4 0.217,2.622 0.651,3.666c0.434,1.045 1.11,1.825 2.026,2.342c0.916,0.517 1.908,0.775 2.975,0.775c1.299,0 2.398,-0.352 3.298,-1.056c0.901,-0.704 1.51,-1.748 1.829,-3.133Z" style="fill:#273c83;fill-rule:nonzero;"/><rect x="206.317" y="142.216" width="2.318" height="16.464" style="fill:#273c83;"/><path d="M210.798,158.679l6.082,-16.463l2.258,0l6.481,16.463l-2.387,0l-1.848,-4.986l-6.621,0l-1.739,4.986l-2.226,0Zm4.57,-6.76l5.368,0l-1.652,-4.56c-0.504,-1.385 -0.879,-2.523 -1.124,-3.414c-0.201,1.056 -0.486,2.104 -0.853,3.145l-1.739,4.829Z" style="fill:#273c83;fill-rule:nonzero;"/><path d="M235.344,158.679l0,-16.463l6.035,0c1.362,0 2.402,0.078 3.119,0.235c1.003,0.217 1.86,0.611 2.569,1.18c0.924,0.733 1.615,1.671 2.073,2.813c0.458,1.142 0.687,2.446 0.687,3.914c0,1.25 -0.155,2.358 -0.466,3.324c-0.311,0.966 -0.709,1.765 -1.195,2.398c-0.486,0.632 -1.018,1.13 -1.595,1.493c-0.578,0.363 -1.275,0.638 -2.091,0.826c-0.817,0.187 -1.755,0.28 -2.815,0.28l-6.321,0Zm2.318,-1.942l3.741,0c1.155,0 2.061,-0.102 2.718,-0.304c0.657,-0.202 1.181,-0.486 1.572,-0.853c0.549,-0.517 0.977,-1.211 1.284,-2.083c0.307,-0.873 0.46,-1.93 0.46,-3.173c0,-1.722 -0.301,-3.045 -0.902,-3.97c-0.601,-0.925 -1.332,-1.544 -2.193,-1.859c-0.621,-0.224 -1.621,-0.337 -2.999,-0.337l-3.681,0l0,12.579Z" style="fill:#273c83;fill-rule:nonzero;"/><path d="M254.266,158.679l0,-16.463l9.089,0l0,1.942l-7.426,0l0,5.043l6.954,0l0,1.932l-6.954,0l0,5.604l7.718,0l0,1.942l-9.381,0Z" style="fill:#273c83;fill-rule:nonzero;"/></g><g><path d="M27.241,110.633l8.247,0c1.633,0 2.851,0.081 3.653,0.242c0.802,0.16 1.52,0.496 2.153,1.005c0.634,0.51 1.161,1.189 1.584,2.037c0.422,0.848 0.633,1.798 0.633,2.851c0,1.141 -0.26,2.189 -0.781,3.142c-0.521,0.953 -1.227,1.668 -2.118,2.145c1.257,0.432 2.224,1.169 2.899,2.211c0.676,1.041 1.013,2.266 1.013,3.674c0,1.108 -0.218,2.186 -0.654,3.233c-0.436,1.047 -1.032,1.884 -1.787,2.51c-0.756,0.627 -1.687,1.012 -2.794,1.156c-0.695,0.089 -2.37,0.144 -5.025,0.166l-7.023,0l0,-24.372Zm4.166,4.057l0,5.636l2.73,0c1.624,0 2.632,-0.028 3.026,-0.084c0.713,-0.099 1.274,-0.39 1.682,-0.872c0.408,-0.482 0.613,-1.117 0.613,-1.904c0,-0.753 -0.176,-1.366 -0.528,-1.837c-0.352,-0.471 -0.875,-0.756 -1.57,-0.856c-0.412,-0.055 -1.599,-0.083 -3.561,-0.083l-2.392,0Zm0,9.692l0,6.517l3.856,0c1.502,0 2.454,-0.05 2.857,-0.15c0.62,-0.133 1.124,-0.457 1.513,-0.972c0.39,-0.516 0.585,-1.206 0.585,-2.07c0,-0.732 -0.151,-1.352 -0.451,-1.862c-0.3,-0.51 -0.734,-0.881 -1.302,-1.114c-0.567,-0.233 -1.799,-0.349 -3.694,-0.349l-3.364,0Z" style="fill:#273c83;fill-rule:nonzero;"/><rect x="48.032" y="110.422" width="4.569" height="24.372" style="fill:#273c83;"/><path d="M72.631,126.07l4.43,1.513c-0.679,2.66 -1.808,4.635 -3.388,5.927c-1.58,1.291 -3.584,1.936 -6.012,1.936c-3.005,0 -5.474,-1.105 -7.409,-3.316c-1.934,-2.211 -2.902,-5.234 -2.902,-9.069c0,-4.056 0.973,-7.207 2.917,-9.451c1.945,-2.244 4.502,-3.367 7.672,-3.367c2.768,0 5.016,0.882 6.745,2.644c1.029,1.042 1.801,2.538 2.315,4.488l-4.522,1.164c-0.268,-1.263 -0.826,-2.261 -1.675,-2.992c-0.849,-0.732 -1.88,-1.097 -3.095,-1.097c-1.677,0 -3.038,0.648 -4.082,1.945c-1.045,1.296 -1.567,3.397 -1.567,6.3c0,3.081 0.514,5.276 1.544,6.584c1.029,1.307 2.366,1.961 4.013,1.961c1.214,0 2.258,-0.415 3.133,-1.247c0.875,-0.831 1.502,-2.139 1.883,-3.923Z" style="fill:#273c83;fill-rule:nonzero;"/><path d="M82.131,135.203l0,-24.371l14.685,0l0,4.122l-10.686,0l0,5.403l9.943,0l0,4.107l-9.943,0l0,6.633l11.064,0l0,4.106l-15.063,0Z" style="fill:#273c83;fill-rule:nonzero;"/><path d="M101.086,134.893l0,-24.372l4.932,0l10.276,16.275l0,-16.275l4.71,0l0,24.372l-5.086,0l-10.122,-15.893l0,15.893l-4.71,0Z" style="fill:#273c83;fill-rule:nonzero;"/><path d="M131.453,134.821l0,-20.249l-7.418,0l0,-4.123l19.867,0l0,4.123l-7.401,0l0,20.249l-5.048,0Z" style="fill:#273c83;fill-rule:nonzero;"/><path d="M145.377,134.834l0,-24.371l14.878,0l0,4.123l-10.827,0l0,5.403l10.074,0l0,4.106l-10.074,0l0,6.633l11.21,0l0,4.106l-15.261,0Z" style="fill:#273c83;fill-rule:nonzero;"/><path d="M164.608,134.891l0,-24.372l4.979,0l10.374,16.276l0,-16.276l4.755,0l0,24.372l-5.135,0l-10.218,-15.893l0,15.893l-4.755,0Z" style="fill:#273c83;fill-rule:nonzero;"/><path d="M208.802,134.882l-4.97,0l-1.976,-5.536l-9.045,0l-1.868,5.536l-4.846,0l8.813,-24.372l4.832,0l9.06,24.372Zm-8.412,-9.642l-3.118,-9.044l-3.056,9.044l6.174,0Z" style="fill:#273c83;fill-rule:nonzero;"/><path d="M209.763,134.793l0,-24.371l9.616,0c2.418,0 4.175,0.218 5.271,0.656c1.096,0.438 1.973,1.217 2.632,2.336c0.658,1.119 0.988,2.4 0.988,3.84c0,1.829 -0.499,3.339 -1.498,4.53c-0.998,1.192 -2.49,1.943 -4.476,2.253c0.988,0.621 1.804,1.302 2.447,2.045c0.643,0.743 1.51,2.061 2.6,3.957l2.763,4.754l-5.464,0l-3.303,-5.303c-1.173,-1.895 -1.976,-3.089 -2.408,-3.583c-0.432,-0.493 -0.89,-0.831 -1.373,-1.014c-0.484,-0.183 -1.251,-0.274 -2.3,-0.274l-0.926,0l0,10.174l-4.569,0Zm4.569,-14.064l3.38,0c2.192,0 3.56,-0.1 4.106,-0.299c0.545,-0.2 0.972,-0.543 1.281,-1.031c0.308,-0.488 0.463,-1.097 0.463,-1.829c0,-0.82 -0.203,-1.482 -0.61,-1.986c-0.406,-0.505 -0.98,-0.823 -1.721,-0.956c-0.37,-0.056 -1.482,-0.084 -3.334,-0.084l-3.565,0l0,6.185Z" style="fill:#273c83;fill-rule:nonzero;"/><rect x="232.437" y="110.422" width="4.569" height="24.372" style="fill:#273c83;"/><path d="M242.153,122.975c0,-2.482 0.344,-4.566 1.034,-6.251c0.514,-1.241 1.217,-2.355 2.107,-3.341c0.89,-0.987 1.865,-1.718 2.925,-2.195c1.409,-0.642 3.035,-0.964 4.877,-0.964c3.334,0 6.002,1.114 8.003,3.342c2.002,2.227 3.003,5.325 3.003,9.293c0,3.934 -0.993,7.013 -2.979,9.235c-1.986,2.222 -4.641,3.333 -7.965,3.333c-3.365,0 -6.04,-1.106 -8.026,-3.317c-1.986,-2.211 -2.979,-5.256 -2.979,-9.135Zm4.707,-0.166c0,2.76 0.592,4.852 1.775,6.276c1.184,1.424 2.686,2.136 4.508,2.136c1.821,0 3.316,-0.707 4.483,-2.12c1.168,-1.413 1.752,-3.532 1.752,-6.359c0,-2.793 -0.568,-4.876 -1.705,-6.25c-1.137,-1.375 -2.647,-2.062 -4.53,-2.062c-1.884,0 -3.401,0.696 -4.554,2.087c-1.152,1.39 -1.729,3.488 -1.729,6.292Z" style="fill:#273c83;fill-rule:nonzero;"/></g><g><g><ellipse cx="191.863" cy="57.806" rx="32.405" ry="31.797" style="fill:#3da7d3;"/><ellipse cx="150.152" cy="57.937" rx="32.405" ry="31.797" style="fill:#004abd;"/><path d="M69.485,89.094l59.309,0l0,-33.926l-22.653,0l-36.656,33.926Z" style="fill:#3da7d3;"/><path d="M129.174,55.257c-1.374,-16.616 -14.534,-29.365 -30.311,-29.365c-15.777,0 -28.937,12.749 -30.312,29.365l60.623,0Z" style="fill:#004abd;"/></g><path d="M128.926,55.511l2.75,8.854l8.899,0l-7.2,5.473l2.75,8.854l-7.199,-5.472l-7.2,5.472l2.75,-8.854l-7.2,-5.473l8.9,0l2.75,-8.854Z" style="fill:#ebebeb;"/></g><path d="M123.17,39.488c3.816,2.137 5.612,15.668 5.612,15.668l-22.449,0c0,0 16.807,-15.685 16.837,-15.668Z" style="fill:#0027bd;"/></svg>