<?xml version="1.0" encoding="UTF-8" standalone="no"?><!DOCTYPE svg PUBLIC "-//W3C//DTD SVG 1.1//EN" "http://www.w3.org/Graphics/SVG/1.1/DTD/svg11.dtd"><svg width="100%" height="100%" viewBox="0 0 48 48" version="1.1" xmlns="http://www.w3.org/2000/svg" xmlns:xlink="http://www.w3.org/1999/xlink" xml:space="preserve" xmlns:serif="http://www.serif.com/" style="fill-rule:evenodd;clip-rule:evenodd;"><path d="M23.907,26.67c-0.01,0 -0.02,-0.001 -0.03,-0.002c-0.01,0.001 -0.019,0.002 -0.03,0.002l0.06,0Z" style="fill:#fff;fill-rule:nonzero;"/><path d="M18.018,9.234c0.302,0 0.545,-0.244 0.545,-0.546c0,-0.3 -0.243,-0.545 -0.545,-0.545c-0.301,0 -0.546,0.245 -0.546,0.545c0,0.302 0.245,0.546 0.546,0.546" style="fill:#fff;fill-rule:nonzero;"/><path d="M29.877,9.234c0.301,0 0.546,-0.244 0.546,-0.546c0,-0.3 -0.245,-0.545 -0.546,-0.545c-0.301,0 -0.545,0.245 -0.545,0.545c0,0.302 0.244,0.546 0.545,0.546" style="fill:#fff;fill-rule:nonzero;"/><path d="M31.857,13.295c-0.787,1.536 0.101,3.132 0.101,3.132l1.616,3.212c0.687,1.111 0.506,2.728 0.506,2.728c-0.1,1.918 -0.769,0.484 -0.769,0.484l-0.201,-0.687c-0.222,-0.808 -1.374,-3.534 -1.374,-3.534c-0.262,-1.032 -2.403,-4.243 -2.403,-4.243l-1.88,-2.547c-0.748,-0.99 -0.961,-2.262 -0.961,-2.262c-0.18,-0.95 0.406,-0.808 0.406,-0.808c0.484,0.02 0.515,0.867 0.515,0.867c0.303,0.971 0.626,1.294 0.626,1.294c0.566,1.01 2.424,0.526 2.424,0.526l6.465,-3.031l0.515,-0.151c0.395,0.06 0,0.545 0,0.545l-2.535,2.01l-3.051,2.465Zm-2.02,-5.759c0.77,0 1.393,0.579 1.393,1.295c0,0.713 -0.623,1.292 -1.393,1.292c-0.771,0 -1.394,-0.579 -1.394,-1.292c0,-0.716 0.623,-1.295 1.394,-1.295m2.969,0.487l3.587,-0.445l-3.425,1.091c-1.171,-0.041 -0.162,-0.646 -0.162,-0.646m-7.091,10.707c-0.39,0 -0.708,-0.227 -0.708,-0.506c0,-0.278 0.318,-0.505 0.708,-0.505c0.391,0 0.707,0.227 0.707,0.505c0,0.279 -0.316,0.506 -0.707,0.506m0.111,4.697c-0.202,0.111 -0.545,0.191 -0.545,0.191l-2.444,0l-0.545,-0.181c0,0 -0.395,-0.101 -0.132,-0.253l3.697,0c0,0 0.172,0.132 -0.031,0.243m-4.414,-5.203c0,-0.278 0.316,-0.505 0.708,-0.505c0.39,0 0.706,0.227 0.706,0.505c0,0.279 -0.316,0.506 -0.706,0.506c-0.392,0 -0.708,-0.227 -0.708,-0.506m-2.85,-3.837c0,0 -2.14,3.211 -2.403,4.243c0,0 -1.151,2.726 -1.373,3.534l-0.203,0.687c0,0 -0.666,1.434 -0.767,-0.484c0,0 -0.182,-1.617 0.505,-2.728l1.615,-3.212c0,0 0.89,-1.596 0.102,-3.132l-3.051,-2.465l-2.535,-2.01c0,0 -0.394,-0.485 0,-0.545l0.515,0.151l6.465,3.031c0,0 1.859,0.484 2.424,-0.526c0,0 0.323,-0.323 0.627,-1.294c0,0 0.031,-0.847 0.515,-0.867c0,0 0.586,-0.142 0.404,0.808c0,0 -0.212,1.272 -0.96,2.262l-1.88,2.547Zm-3.635,-5.718l-3.423,-1.091l3.584,0.445c0,0 1.011,0.605 -0.161,0.646m3.132,-1.133c0.77,0 1.393,0.579 1.393,1.295c0,0.713 -0.623,1.292 -1.393,1.292c-0.77,0 -1.395,-0.579 -1.395,-1.292c0,-0.716 0.625,-1.295 1.395,-1.295m20.909,11.134l-2.605,0c-0.909,-0.335 -0.03,-0.819 -0.03,-0.819l2.151,0c0.91,-0.03 0.879,-0.486 0.879,-0.486l0,-1.059c0,-0.637 -1,-0.425 -1,-0.425l-1,0.333l-1.03,0.182c-0.515,-0.12 -0.091,-0.667 -0.091,-0.667c0.454,-0.212 2.363,-0.605 2.363,-0.605c0.879,-0.031 0.789,-0.516 0.789,-0.516l0,-1.394c-0.243,-0.819 -0.727,-0.515 -0.727,-0.515l-2.122,0.94c-0.697,0.364 -0.697,0.06 -0.697,0.06c-0.182,-0.485 0.485,-0.698 0.485,-0.698l2.425,-0.998c0.605,-0.061 0.575,-0.88 0.575,-0.88l0,-4.001c-0.061,-0.938 -1.03,-0.817 -1.03,-0.817l-10.909,0c0,0 -1.759,0.302 -2.183,1.696c0,0 -0.486,0.576 -0.091,2.819l0.485,1.092l1.121,1.999c0,0 1.03,1.94 1.152,2.577c0,0 0.121,1.333 -0.697,0.151c0,0 -0.486,-2.577 -3.274,-2.91l-0.06,0c-2.788,0.333 -3.274,2.91 -3.274,2.91c-0.817,1.182 -0.697,-0.151 -0.697,-0.151c0.121,-0.637 1.153,-2.577 1.153,-2.577l1.121,-1.999l0.483,-1.092c0.396,-2.243 -0.089,-2.819 -0.089,-2.819c-0.424,-1.394 -2.183,-1.696 -2.183,-1.696l-10.91,0c0,0 -0.97,-0.121 -1.029,0.817l0,4.001c0,0 -0.032,0.819 0.575,0.88l2.424,0.998c0,0 0.667,0.213 0.485,0.698c0,0 0,0.304 -0.697,-0.06l-2.121,-0.94c0,0 -0.485,-0.304 -0.728,0.515l0,1.394c0,0 -0.09,0.485 0.789,0.516c0,0 1.909,0.393 2.362,0.605c0,0 0.426,0.547 -0.09,0.667l-1.03,-0.182l-1,-0.333c0,0 -1.001,-0.212 -1.001,0.425l0,1.059c0,0 -0.03,0.456 0.879,0.486l2.152,0c0,0 0.879,0.484 -0.03,0.819l-2.607,0c0,0 -0.575,0 -0.484,0.908l0,6.486c0,0 0.273,0.908 0.788,0.09c0,0 0.849,-0.998 1.484,-3.455l0.577,-1.788c0,0 0.362,-1.121 0.576,0.183c0,0 0.241,3.999 1.424,4.97c0,0 1.363,1.454 2.666,-0.151c0,0 0.424,-0.516 0.94,-3.001c0,0 0.546,-2.273 1.455,-2.06c0,0 1.333,0 1.212,2.423c0,0 -0.516,1.606 -1.061,0.849l-0.151,-0.454c0,0 -0.455,-0.577 -0.879,0.09c0,0 -0.455,0.94 0.061,2.242c0,0 0.757,1.303 1.667,0.03l1.393,-1.483c0,0 0.784,2.103 3.425,2.119c2.641,-0.016 3.425,-2.119 3.425,-2.119l1.394,1.483c0.909,1.273 1.666,-0.03 1.666,-0.03c0.516,-1.302 0.062,-2.242 0.062,-2.242c-0.424,-0.667 -0.88,-0.09 -0.88,-0.09l-0.152,0.454c-0.544,0.757 -1.06,-0.849 -1.06,-0.849c-0.121,-2.423 1.212,-2.423 1.212,-2.423c0.909,-0.213 1.455,2.06 1.455,2.06c0.516,2.485 0.94,3.001 0.94,3.001c1.303,1.605 2.667,0.151 2.667,0.151c1.181,-0.971 1.424,-4.97 1.424,-4.97c0.212,-1.304 0.576,-0.183 0.576,-0.183l0.575,1.788c0.636,2.457 1.486,3.455 1.486,3.455c0.514,0.818 0.788,-0.09 0.788,-0.09l0,-0.395l0,-6.091c0.09,-0.908 -0.487,-0.908 -0.487,-0.908" style="fill:#fff;fill-rule:nonzero;"/><path d="M1.745,31.034c-0.406,-0.365 -0.507,-0.843 -0.507,-1.241c0,-0.281 0.096,-0.772 0.47,-1.145c0.251,-0.252 0.633,-0.449 1.279,-0.449c0.167,0 0.402,0.013 0.608,0.051c0.159,0.029 0.293,0.054 0.427,0.062c0.046,0.005 0.055,0.022 0.055,0.046c0,0.034 -0.013,0.084 -0.021,0.236c-0.009,0.138 -0.009,0.368 -0.013,0.431c-0.004,0.063 -0.012,0.089 -0.038,0.089c-0.029,0 -0.033,-0.03 -0.033,-0.089c0,-0.163 -0.067,-0.335 -0.176,-0.427c-0.147,-0.126 -0.47,-0.24 -0.839,-0.24c-0.558,0 -0.818,0.164 -0.964,0.307c-0.307,0.293 -0.378,0.667 -0.378,1.094c0,0.801 0.616,1.535 1.514,1.535c0.315,0 0.562,-0.038 0.73,-0.209c0.088,-0.093 0.142,-0.278 0.155,-0.353c0.008,-0.046 0.017,-0.063 0.042,-0.063c0.021,0 0.029,0.03 0.029,0.063c0,0.03 -0.05,0.394 -0.092,0.537c-0.025,0.08 -0.034,0.088 -0.109,0.122c-0.168,0.067 -0.486,0.096 -0.755,0.096c-0.629,0 -1.052,-0.155 -1.384,-0.453" style="fill:#fff;fill-rule:nonzero;"/><path d="M1.745,31.034c-0.406,-0.365 -0.507,-0.843 -0.507,-1.241c0,-0.281 0.096,-0.772 0.47,-1.145c0.251,-0.252 0.633,-0.449 1.279,-0.449c0.167,0 0.402,0.013 0.608,0.051c0.159,0.029 0.293,0.054 0.427,0.062c0.046,0.005 0.055,0.022 0.055,0.046c0,0.034 -0.013,0.084 -0.021,0.236c-0.009,0.138 -0.009,0.368 -0.013,0.431c-0.004,0.063 -0.012,0.089 -0.038,0.089c-0.029,0 -0.033,-0.03 -0.033,-0.089c0,-0.163 -0.067,-0.335 -0.176,-0.427c-0.147,-0.126 -0.47,-0.24 -0.839,-0.24c-0.558,0 -0.818,0.164 -0.964,0.307c-0.307,0.293 -0.378,0.667 -0.378,1.094c0,0.801 0.616,1.535 1.514,1.535c0.315,0 0.562,-0.038 0.73,-0.209c0.088,-0.093 0.142,-0.278 0.155,-0.353c0.008,-0.046 0.017,-0.063 0.042,-0.063c0.021,0 0.029,0.03 0.029,0.063c0,0.03 -0.05,0.394 -0.092,0.537c-0.025,0.08 -0.034,0.088 -0.109,0.122c-0.168,0.067 -0.486,0.096 -0.755,0.096c-0.629,0 -1.052,-0.155 -1.384,-0.453Z" style="fill:none;fill-rule:nonzero;stroke:#fff;stroke-width:0.2px;"/><path d="M5.997,30.288c0.017,0 0.017,-0.009 0.013,-0.025l-0.365,-0.978c-0.021,-0.054 -0.042,-0.054 -0.063,0l-0.344,0.978c-0.004,0.016 0,0.025 0.013,0.025l0.746,0Zm-0.411,-1.485c0.047,-0.117 0.063,-0.138 0.088,-0.138c0.038,0 0.051,0.05 0.089,0.13c0.067,0.151 0.658,1.622 0.884,2.164c0.134,0.318 0.235,0.364 0.315,0.39c0.054,0.016 0.109,0.02 0.147,0.02c0.02,0 0.046,0.009 0.046,0.03c0,0.021 -0.042,0.029 -0.084,0.029c-0.055,0 -0.327,0 -0.583,-0.008c-0.071,-0.004 -0.13,-0.004 -0.13,-0.025c0,-0.017 0.008,-0.017 0.025,-0.026c0.021,-0.008 0.059,-0.037 0.034,-0.096l-0.332,-0.818c-0.008,-0.016 -0.012,-0.021 -0.033,-0.021l-0.851,0c-0.017,0 -0.03,0.009 -0.038,0.03l-0.21,0.57c-0.033,0.088 -0.054,0.176 -0.054,0.239c0,0.071 0.062,0.096 0.126,0.096l0.033,0c0.029,0 0.037,0.013 0.037,0.03c0,0.021 -0.02,0.029 -0.054,0.029c-0.088,0 -0.289,-0.012 -0.331,-0.012c-0.038,0 -0.222,0.012 -0.373,0.012c-0.046,0 -0.072,-0.008 -0.072,-0.029c0,-0.017 0.017,-0.03 0.034,-0.03c0.025,0 0.08,-0.004 0.109,-0.008c0.168,-0.021 0.239,-0.147 0.31,-0.327l0.868,-2.231Z" style="fill:#fff;fill-rule:nonzero;stroke:#fff;stroke-width:0.2px;"/><path d="M7.398,31.378c-0.051,-0.025 -0.055,-0.038 -0.055,-0.134c0,-0.176 0.017,-0.319 0.021,-0.378c0,-0.037 0.009,-0.058 0.029,-0.058c0.022,0 0.034,0.012 0.034,0.042c0,0.029 0,0.079 0.013,0.13c0.058,0.259 0.335,0.352 0.583,0.352c0.364,0 0.553,-0.206 0.553,-0.474c0,-0.256 -0.138,-0.377 -0.465,-0.621l-0.168,-0.125c-0.398,-0.298 -0.528,-0.516 -0.528,-0.764c0,-0.419 0.331,-0.671 0.817,-0.671c0.147,0 0.294,0.022 0.382,0.042c0.071,0.017 0.1,0.017 0.13,0.017c0.029,0 0.037,0.004 0.037,0.025c0,0.017 -0.016,0.134 -0.016,0.378c0,0.054 -0.004,0.079 -0.03,0.079c-0.025,0 -0.029,-0.016 -0.033,-0.046c-0.004,-0.042 -0.034,-0.138 -0.055,-0.176c-0.025,-0.042 -0.146,-0.176 -0.478,-0.176c-0.268,0 -0.49,0.134 -0.49,0.386c0,0.226 0.113,0.356 0.478,0.604l0.105,0.071c0.448,0.306 0.603,0.553 0.603,0.859c0,0.21 -0.079,0.437 -0.343,0.609c-0.155,0.1 -0.386,0.126 -0.587,0.126c-0.172,0 -0.386,-0.026 -0.537,-0.097" style="fill:#fff;fill-rule:nonzero;"/><path d="M7.398,31.378c-0.051,-0.025 -0.055,-0.038 -0.055,-0.134c0,-0.176 0.017,-0.319 0.021,-0.378c0,-0.037 0.009,-0.058 0.029,-0.058c0.022,0 0.034,0.012 0.034,0.042c0,0.029 0,0.079 0.013,0.13c0.058,0.259 0.335,0.352 0.583,0.352c0.364,0 0.553,-0.206 0.553,-0.474c0,-0.256 -0.138,-0.377 -0.465,-0.621l-0.168,-0.125c-0.398,-0.298 -0.528,-0.516 -0.528,-0.764c0,-0.419 0.331,-0.671 0.817,-0.671c0.147,0 0.294,0.022 0.382,0.042c0.071,0.017 0.1,0.017 0.13,0.017c0.029,0 0.037,0.004 0.037,0.025c0,0.017 -0.016,0.134 -0.016,0.378c0,0.054 -0.004,0.079 -0.03,0.079c-0.025,0 -0.029,-0.016 -0.033,-0.046c-0.004,-0.042 -0.034,-0.138 -0.055,-0.176c-0.025,-0.042 -0.146,-0.176 -0.478,-0.176c-0.268,0 -0.49,0.134 -0.49,0.386c0,0.226 0.113,0.356 0.478,0.604l0.105,0.071c0.448,0.306 0.603,0.553 0.603,0.859c0,0.21 -0.079,0.437 -0.343,0.609c-0.155,0.1 -0.386,0.126 -0.587,0.126c-0.172,0 -0.386,-0.026 -0.537,-0.097Z" style="fill:none;fill-rule:nonzero;stroke:#fff;stroke-width:0.2px;"/><path d="M10.908,30.288c0.016,0 0.016,-0.009 0.012,-0.025l-0.365,-0.978c-0.021,-0.054 -0.041,-0.054 -0.063,0l-0.343,0.978c-0.005,0.016 0,0.025 0.012,0.025l0.747,0Zm-0.411,-1.485c0.046,-0.117 0.063,-0.138 0.088,-0.138c0.038,0 0.05,0.05 0.088,0.13c0.067,0.151 0.658,1.622 0.885,2.164c0.134,0.318 0.235,0.364 0.314,0.39c0.055,0.016 0.109,0.02 0.147,0.02c0.021,0 0.046,0.009 0.046,0.03c0,0.021 -0.042,0.029 -0.084,0.029c-0.054,0 -0.327,0 -0.583,-0.008c-0.071,-0.004 -0.13,-0.004 -0.13,-0.025c0,-0.017 0.009,-0.017 0.026,-0.026c0.02,-0.008 0.058,-0.037 0.033,-0.096l-0.331,-0.818c-0.009,-0.016 -0.013,-0.021 -0.034,-0.021l-0.851,0c-0.017,0 -0.029,0.009 -0.038,0.03l-0.209,0.57c-0.034,0.088 -0.055,0.176 -0.055,0.239c0,0.071 0.063,0.096 0.126,0.096l0.033,0c0.03,0 0.038,0.013 0.038,0.03c0,0.021 -0.021,0.029 -0.055,0.029c-0.087,0 -0.289,-0.012 -0.331,-0.012c-0.037,0 -0.222,0.012 -0.373,0.012c-0.046,0 -0.071,-0.008 -0.071,-0.029c0,-0.017 0.017,-0.03 0.033,-0.03c0.026,0 0.08,-0.004 0.11,-0.008c0.167,-0.021 0.238,-0.147 0.31,-0.327l0.868,-2.231Z" style="fill:#fff;fill-rule:nonzero;stroke:#fff;stroke-width:0.2px;"/><path d="M14.308,30.149c0,0.378 0,0.709 0.004,0.776c0.005,0.088 0.013,0.218 0.042,0.256c0.046,0.067 0.177,0.142 0.613,0.142c0.339,0 0.641,-0.113 0.863,-0.322c0.193,-0.181 0.29,-0.52 0.29,-0.847c0,-0.454 -0.197,-0.743 -0.348,-0.894c-0.348,-0.352 -0.755,-0.398 -1.195,-0.398c-0.072,0 -0.189,0.012 -0.223,0.025c-0.033,0.013 -0.046,0.03 -0.046,0.071l0,1.191Zm-0.335,-0.386c0,-0.553 0,-0.654 -0.009,-0.767c-0.008,-0.122 -0.029,-0.18 -0.15,-0.197c-0.03,-0.004 -0.093,-0.008 -0.126,-0.008c-0.013,0 -0.03,-0.017 -0.03,-0.03c0,-0.021 0.017,-0.029 0.059,-0.029c0.168,0 0.407,0.008 0.428,0.008c0.042,0 0.276,-0.008 0.495,-0.008c0.369,0 1.044,-0.034 1.48,0.407c0.185,0.184 0.36,0.482 0.36,0.905c0,0.449 -0.192,0.793 -0.398,1.002c-0.159,0.164 -0.491,0.412 -1.119,0.412c-0.16,0 -0.357,-0.013 -0.517,-0.022c-0.159,-0.012 -0.284,-0.02 -0.301,-0.02c-0.008,0 -0.076,0.004 -0.151,0.004c-0.076,0.004 -0.164,0.008 -0.223,0.008c-0.037,0 -0.058,-0.008 -0.058,-0.029c0,-0.013 0.008,-0.03 0.029,-0.03c0.034,0 0.08,-0.008 0.113,-0.016c0.072,-0.017 0.08,-0.084 0.097,-0.189c0.021,-0.147 0.021,-0.428 0.021,-0.771l0,-0.63Z" style="fill:#fff;fill-rule:nonzero;stroke:#fff;stroke-width:0.2px;"/><path d="M17.361,29.763c0,-0.553 0,-0.654 -0.008,-0.767c-0.009,-0.122 -0.03,-0.18 -0.151,-0.197c-0.03,-0.004 -0.093,-0.008 -0.126,-0.008c-0.013,0 -0.03,-0.017 -0.03,-0.03c0,-0.021 0.017,-0.029 0.059,-0.029c0.168,0 0.407,0.008 0.428,0.008c0.025,0 0.797,0.004 0.881,0c0.071,-0.004 0.138,-0.017 0.167,-0.021c0.017,-0.004 0.034,-0.016 0.051,-0.016c0.012,0 0.016,0.016 0.016,0.033c0,0.025 -0.021,0.067 -0.029,0.168c-0.004,0.033 -0.013,0.193 -0.021,0.235c-0.004,0.017 -0.017,0.037 -0.034,0.037c-0.021,0 -0.029,-0.016 -0.029,-0.046c0,-0.025 -0.004,-0.084 -0.021,-0.126c-0.025,-0.058 -0.063,-0.084 -0.264,-0.109c-0.063,-0.008 -0.491,-0.012 -0.533,-0.012c-0.017,0 -0.02,0.012 -0.02,0.037l0,0.969c0,0.025 0,0.038 0.02,0.038c0.046,0 0.533,0 0.617,-0.009c0.088,-0.008 0.142,-0.012 0.18,-0.05c0.025,-0.025 0.042,-0.046 0.055,-0.046c0.012,0 0.021,0.009 0.021,0.029c0,0.021 -0.021,0.08 -0.03,0.198c-0.008,0.071 -0.017,0.205 -0.017,0.23c0,0.03 -0.008,0.067 -0.033,0.067c-0.017,0 -0.025,-0.012 -0.025,-0.033c0,-0.034 0,-0.072 -0.017,-0.117c-0.013,-0.051 -0.046,-0.093 -0.189,-0.11c-0.1,-0.012 -0.495,-0.017 -0.557,-0.017c-0.022,0 -0.025,0.013 -0.025,0.026l0,0.298c0,0.121 -0.005,0.536 0,0.608c0.008,0.238 0.075,0.285 0.44,0.285c0.096,0 0.272,0 0.369,-0.038c0.096,-0.042 0.146,-0.105 0.168,-0.247c0.008,-0.042 0.016,-0.055 0.037,-0.055c0.021,0 0.025,0.029 0.025,0.055c0,0.025 -0.029,0.268 -0.05,0.343c-0.025,0.093 -0.063,0.093 -0.205,0.093c-0.277,0 -0.491,-0.009 -0.642,-0.013c-0.155,-0.008 -0.252,-0.008 -0.306,-0.008c-0.008,0 -0.08,0 -0.159,0.004c-0.072,0.004 -0.156,0.008 -0.214,0.008c-0.038,0 -0.059,-0.008 -0.059,-0.029c0,-0.013 0.008,-0.03 0.029,-0.03c0.034,0 0.08,-0.012 0.114,-0.016c0.071,-0.013 0.079,-0.084 0.096,-0.189c0.021,-0.147 0.021,-0.428 0.021,-0.771l0,-0.63Z" style="fill:#fff;fill-rule:nonzero;stroke:#fff;stroke-width:0.2px;"/><path d="M21.429,30.401c0,0.524 0.008,0.738 0.075,0.801c0.059,0.058 0.201,0.084 0.49,0.084c0.194,0 0.357,-0.004 0.445,-0.109c0.046,-0.055 0.076,-0.13 0.088,-0.202c0.004,-0.025 0.017,-0.046 0.038,-0.046c0.017,0 0.025,0.017 0.025,0.055c0,0.037 -0.025,0.251 -0.054,0.356c-0.026,0.084 -0.038,0.097 -0.235,0.097c-0.264,0 -0.47,-0.004 -0.642,-0.013c-0.168,-0.004 -0.293,-0.008 -0.402,-0.008c-0.017,0 -0.08,0 -0.151,0.004c-0.076,0.004 -0.156,0.008 -0.214,0.008c-0.038,0 -0.059,-0.008 -0.059,-0.029c0,-0.013 0.008,-0.03 0.03,-0.03c0.033,0 0.079,-0.008 0.113,-0.016c0.071,-0.017 0.079,-0.084 0.096,-0.189c0.021,-0.147 0.021,-0.428 0.021,-0.771l0,-0.63c0,-0.553 0,-0.654 -0.008,-0.767c-0.009,-0.122 -0.03,-0.18 -0.151,-0.197c-0.03,-0.004 -0.093,-0.008 -0.126,-0.008c-0.013,0 -0.03,-0.017 -0.03,-0.03c0,-0.021 0.017,-0.029 0.059,-0.029c0.168,0 0.399,0.008 0.42,0.008c0.016,0 0.293,-0.008 0.406,-0.008c0.038,0 0.059,0.008 0.059,0.029c0,0.013 -0.017,0.026 -0.029,0.026c-0.026,0 -0.08,0.004 -0.122,0.008c-0.109,0.021 -0.13,0.075 -0.138,0.201c-0.004,0.113 -0.004,0.214 -0.004,0.767l0,0.638Z" style="fill:#fff;fill-rule:nonzero;stroke:#fff;stroke-width:0.2px;"/><path d="M24.376,30.288c0.017,0 0.017,-0.009 0.013,-0.025l-0.365,-0.978c-0.021,-0.054 -0.042,-0.054 -0.063,0l-0.344,0.978c-0.004,0.016 0,0.025 0.013,0.025l0.746,0Zm-0.411,-1.485c0.047,-0.117 0.063,-0.138 0.088,-0.138c0.038,0 0.051,0.05 0.088,0.13c0.068,0.151 0.659,1.622 0.885,2.164c0.134,0.318 0.235,0.364 0.315,0.39c0.055,0.016 0.109,0.02 0.147,0.02c0.021,0 0.046,0.009 0.046,0.03c0,0.021 -0.042,0.029 -0.084,0.029c-0.054,0 -0.327,0 -0.583,-0.008c-0.072,-0.004 -0.13,-0.004 -0.13,-0.025c0,-0.017 0.008,-0.017 0.025,-0.026c0.021,-0.008 0.059,-0.037 0.033,-0.096l-0.33,-0.818c-0.009,-0.016 -0.013,-0.021 -0.034,-0.021l-0.851,0c-0.017,0 -0.03,0.009 -0.038,0.03l-0.21,0.57c-0.033,0.088 -0.054,0.176 -0.054,0.239c0,0.071 0.063,0.096 0.126,0.096l0.033,0c0.029,0 0.038,0.013 0.038,0.03c0,0.021 -0.021,0.029 -0.055,0.029c-0.088,0 -0.289,-0.012 -0.331,-0.012c-0.038,0 -0.222,0.012 -0.373,0.012c-0.046,0 -0.071,-0.008 -0.071,-0.029c0,-0.017 0.017,-0.03 0.033,-0.03c0.025,0 0.08,-0.004 0.109,-0.008c0.168,-0.021 0.239,-0.147 0.31,-0.327l0.868,-2.231Z" style="fill:#fff;fill-rule:nonzero;stroke:#fff;stroke-width:0.2px;"/><path d="M27.568,31.034c-0.407,-0.365 -0.508,-0.843 -0.508,-1.241c0,-0.281 0.097,-0.772 0.47,-1.145c0.251,-0.252 0.633,-0.449 1.279,-0.449c0.168,0 0.402,0.013 0.608,0.051c0.159,0.029 0.293,0.054 0.428,0.062c0.046,0.005 0.054,0.022 0.054,0.046c0,0.034 -0.013,0.084 -0.021,0.236c-0.008,0.138 -0.008,0.368 -0.013,0.431c-0.003,0.063 -0.012,0.089 -0.037,0.089c-0.029,0 -0.034,-0.03 -0.034,-0.089c0,-0.163 -0.067,-0.335 -0.176,-0.427c-0.147,-0.126 -0.469,-0.24 -0.839,-0.24c-0.557,0 -0.817,0.164 -0.964,0.307c-0.306,0.293 -0.378,0.667 -0.378,1.094c0,0.801 0.617,1.535 1.514,1.535c0.315,0 0.563,-0.038 0.73,-0.209c0.088,-0.093 0.143,-0.278 0.155,-0.353c0.009,-0.046 0.017,-0.063 0.042,-0.063c0.021,0 0.029,0.03 0.03,0.063c0,0.03 -0.051,0.394 -0.093,0.537c-0.025,0.08 -0.033,0.088 -0.109,0.122c-0.168,0.067 -0.486,0.096 -0.755,0.096c-0.629,0 -1.052,-0.155 -1.383,-0.453" style="fill:#fff;fill-rule:nonzero;"/><path d="M27.568,31.034c-0.407,-0.365 -0.508,-0.843 -0.508,-1.241c0,-0.281 0.097,-0.772 0.47,-1.145c0.251,-0.252 0.633,-0.449 1.279,-0.449c0.168,0 0.402,0.013 0.608,0.051c0.159,0.029 0.293,0.054 0.428,0.062c0.046,0.005 0.054,0.022 0.054,0.046c0,0.034 -0.013,0.084 -0.021,0.236c-0.008,0.138 -0.008,0.368 -0.013,0.431c-0.003,0.063 -0.012,0.089 -0.037,0.089c-0.029,0 -0.034,-0.03 -0.034,-0.089c0,-0.163 -0.067,-0.335 -0.176,-0.427c-0.147,-0.126 -0.469,-0.24 -0.839,-0.24c-0.557,0 -0.817,0.164 -0.964,0.307c-0.306,0.293 -0.378,0.667 -0.378,1.094c0,0.801 0.617,1.535 1.514,1.535c0.315,0 0.563,-0.038 0.73,-0.209c0.088,-0.093 0.143,-0.278 0.155,-0.353c0.009,-0.046 0.017,-0.063 0.042,-0.063c0.021,0 0.029,0.03 0.03,0.063c0,0.03 -0.051,0.394 -0.093,0.537c-0.025,0.08 -0.033,0.088 -0.109,0.122c-0.168,0.067 -0.486,0.096 -0.755,0.096c-0.629,0 -1.052,-0.155 -1.383,-0.453Z" style="fill:none;fill-rule:nonzero;stroke:#fff;stroke-width:0.2px;"/><path d="M30.658,29.763c0,-0.553 0,-0.654 -0.009,-0.767c-0.008,-0.113 -0.029,-0.18 -0.15,-0.197c-0.03,-0.004 -0.093,-0.008 -0.126,-0.008c-0.013,0 -0.03,-0.017 -0.03,-0.03c0,-0.021 0.017,-0.029 0.059,-0.029c0.167,0 0.39,0.008 0.424,0.008c0.033,0 0.264,-0.008 0.373,-0.008c0.042,0 0.063,0.008 0.063,0.029c0,0.013 -0.017,0.03 -0.034,0.03c-0.025,0 -0.046,0 -0.092,0.008c-0.097,0.017 -0.118,0.08 -0.126,0.197c-0.008,0.113 -0.008,0.214 -0.008,0.767l0,0.5c0,0.515 0.113,0.729 0.272,0.871c0.181,0.164 0.34,0.194 0.55,0.194c0.226,0 0.444,-0.101 0.57,-0.252c0.172,-0.206 0.21,-0.499 0.21,-0.864l0,-0.449c0,-0.553 -0.005,-0.654 -0.009,-0.767c-0.004,-0.113 -0.025,-0.18 -0.147,-0.197c-0.029,-0.004 -0.092,-0.008 -0.125,-0.008c-0.017,0 -0.03,-0.017 -0.03,-0.03c0,-0.021 0.017,-0.029 0.059,-0.029c0.163,0 0.377,0.008 0.398,0.008c0.025,0 0.201,-0.008 0.311,-0.008c0.041,0 0.058,0.008 0.058,0.029c0,0.013 -0.012,0.03 -0.029,0.03c-0.025,0 -0.046,0 -0.092,0.008c-0.101,0.021 -0.122,0.08 -0.13,0.197c-0.009,0.113 -0.004,0.214 -0.004,0.767l0,0.382c0,0.386 -0.051,0.818 -0.345,1.07c-0.268,0.23 -0.553,0.259 -0.771,0.259c-0.122,0 -0.507,-0.008 -0.767,-0.251c-0.181,-0.168 -0.323,-0.416 -0.323,-0.935l0,-0.525Z" style="fill:#fff;fill-rule:nonzero;stroke:#fff;stroke-width:0.2px;"/><path d="M34.281,30.401c0,0.524 0.008,0.738 0.075,0.801c0.059,0.058 0.201,0.084 0.491,0.084c0.193,0 0.356,-0.004 0.445,-0.109c0.046,-0.055 0.075,-0.13 0.087,-0.202c0.005,-0.025 0.017,-0.046 0.038,-0.046c0.017,0 0.025,0.017 0.025,0.055c0,0.037 -0.025,0.251 -0.054,0.356c-0.025,0.084 -0.038,0.097 -0.235,0.097c-0.264,0 -0.47,-0.004 -0.642,-0.013c-0.167,-0.004 -0.293,-0.008 -0.402,-0.008c-0.017,0 -0.08,0 -0.151,0.004c-0.075,0.004 -0.155,0.008 -0.214,0.008c-0.038,0 -0.058,-0.008 -0.058,-0.029c0,-0.013 0.008,-0.03 0.029,-0.03c0.033,0 0.079,-0.008 0.113,-0.016c0.071,-0.017 0.08,-0.084 0.096,-0.189c0.022,-0.147 0.022,-0.428 0.022,-0.771l0,-0.63c0,-0.553 0,-0.654 -0.009,-0.767c-0.008,-0.122 -0.029,-0.18 -0.151,-0.197c-0.029,-0.004 -0.092,-0.008 -0.126,-0.008c-0.012,0 -0.029,-0.017 -0.029,-0.03c0,-0.021 0.017,-0.029 0.059,-0.029c0.167,0 0.398,0.008 0.419,0.008c0.017,0 0.294,-0.008 0.407,-0.008c0.038,0 0.058,0.008 0.058,0.029c0,0.013 -0.017,0.026 -0.029,0.026c-0.025,0 -0.08,0.004 -0.122,0.008c-0.109,0.021 -0.13,0.075 -0.138,0.201c-0.004,0.113 -0.004,0.214 -0.004,0.767l0,0.638Z" style="fill:#fff;fill-rule:nonzero;stroke:#fff;stroke-width:0.2px;"/><path d="M36.797,30.392c0,0.344 0,0.625 0.017,0.772c0.012,0.105 0.029,0.172 0.142,0.189c0.051,0.008 0.134,0.016 0.168,0.016c0.025,0 0.03,0.017 0.03,0.03c0,0.017 -0.017,0.029 -0.059,0.029c-0.201,0 -0.436,-0.012 -0.458,-0.012c-0.016,0 -0.272,0.012 -0.381,0.012c-0.042,0 -0.059,-0.008 -0.059,-0.029c0,-0.013 0.009,-0.025 0.03,-0.025c0.033,0 0.075,-0.009 0.108,-0.017c0.076,-0.017 0.097,-0.088 0.11,-0.193c0.017,-0.147 0.017,-0.428 0.017,-0.772l0,-1.497l-0.533,0.009c-0.231,0.004 -0.319,0.029 -0.373,0.113c-0.043,0.063 -0.046,0.088 -0.059,0.113c-0.008,0.03 -0.021,0.034 -0.038,0.034c-0.008,0 -0.025,-0.009 -0.025,-0.03c0,-0.037 0.076,-0.356 0.079,-0.385c0.009,-0.021 0.026,-0.067 0.038,-0.067c0.026,0 0.064,0.029 0.164,0.041c0.105,0.013 0.247,0.017 0.289,0.017l1.393,0c0.121,0 0.205,-0.008 0.264,-0.017c0.055,-0.008 0.088,-0.016 0.105,-0.016c0.017,0 0.017,0.021 0.017,0.042c0,0.108 -0.013,0.364 -0.013,0.406c0,0.03 -0.017,0.046 -0.034,0.046c-0.017,0 -0.025,-0.012 -0.029,-0.062l-0.004,-0.038c-0.013,-0.109 -0.093,-0.189 -0.445,-0.197l-0.461,-0.009l0,1.497Z" style="fill:#fff;fill-rule:nonzero;stroke:#fff;stroke-width:0.2px;"/><path d="M38.39,29.763c0,-0.553 0,-0.654 -0.008,-0.767c-0.009,-0.113 -0.029,-0.18 -0.151,-0.197c-0.029,-0.004 -0.092,-0.008 -0.126,-0.008c-0.013,0 -0.029,-0.017 -0.029,-0.03c0,-0.021 0.016,-0.029 0.058,-0.029c0.168,0 0.391,0.008 0.424,0.008c0.033,0 0.264,-0.008 0.373,-0.008c0.042,0 0.063,0.008 0.063,0.029c0,0.013 -0.017,0.03 -0.034,0.03c-0.025,0 -0.046,0 -0.092,0.008c-0.096,0.017 -0.117,0.08 -0.125,0.197c-0.009,0.113 -0.009,0.214 -0.009,0.767l0,0.5c0,0.515 0.113,0.729 0.273,0.871c0.18,0.164 0.339,0.194 0.549,0.194c0.226,0 0.444,-0.101 0.57,-0.252c0.173,-0.206 0.21,-0.499 0.21,-0.864l0,-0.449c0,-0.553 -0.004,-0.654 -0.008,-0.767c-0.005,-0.113 -0.026,-0.18 -0.147,-0.197c-0.03,-0.004 -0.093,-0.008 -0.126,-0.008c-0.017,0 -0.029,-0.017 -0.029,-0.03c0,-0.021 0.017,-0.029 0.058,-0.029c0.164,0 0.378,0.008 0.398,0.008c0.025,0 0.202,-0.008 0.311,-0.008c0.042,0 0.059,0.008 0.059,0.029c0,0.013 -0.013,0.03 -0.029,0.03c-0.026,0 -0.047,0 -0.093,0.008c-0.1,0.021 -0.122,0.08 -0.13,0.197c-0.008,0.113 -0.004,0.214 -0.004,0.767l0,0.382c0,0.386 -0.05,0.818 -0.344,1.07c-0.268,0.23 -0.553,0.259 -0.771,0.259c-0.122,0 -0.508,-0.008 -0.768,-0.251c-0.18,-0.168 -0.323,-0.416 -0.323,-0.935l0,-0.525Z" style="fill:#fff;fill-rule:nonzero;stroke:#fff;stroke-width:0.2px;"/><path d="M41.996,30.065c0,0.021 0.009,0.034 0.026,0.047c0.054,0.029 0.243,0.054 0.406,0.054c0.088,0 0.189,-0.004 0.277,-0.063c0.126,-0.084 0.222,-0.273 0.222,-0.545c0,-0.445 -0.243,-0.701 -0.637,-0.701c-0.109,0 -0.226,0.013 -0.264,0.021c-0.017,0.009 -0.03,0.022 -0.03,0.043l0,1.144Zm-0.318,-0.302c0,-0.553 0,-0.654 -0.008,-0.767c-0.009,-0.122 -0.03,-0.18 -0.151,-0.197c-0.03,-0.004 -0.093,-0.008 -0.126,-0.008c-0.013,0 -0.03,-0.017 -0.03,-0.03c0,-0.021 0.017,-0.029 0.059,-0.029c0.168,0 0.415,0.008 0.436,0.008c0.038,0 0.348,-0.008 0.462,-0.008c0.234,0 0.494,0.021 0.687,0.155c0.092,0.067 0.256,0.239 0.256,0.487c0,0.264 -0.109,0.52 -0.453,0.813c0.302,0.378 0.558,0.7 0.772,0.922c0.197,0.202 0.318,0.235 0.41,0.248c0.072,0.012 0.11,0.012 0.131,0.012c0.02,0 0.033,0.017 0.033,0.03c0,0.021 -0.021,0.029 -0.088,0.029l-0.231,0c-0.209,0 -0.301,-0.021 -0.394,-0.071c-0.159,-0.084 -0.293,-0.256 -0.503,-0.524c-0.155,-0.193 -0.319,-0.424 -0.398,-0.52c-0.017,-0.017 -0.026,-0.021 -0.051,-0.021l-0.469,-0.009c-0.017,0 -0.026,0.009 -0.026,0.03l0,0.084c0,0.344 0,0.62 0.018,0.767c0.012,0.105 0.033,0.172 0.146,0.189c0.05,0.008 0.13,0.016 0.164,0.016c0.025,0 0.029,0.017 0.029,0.03c0,0.017 -0.017,0.029 -0.059,0.029c-0.201,0 -0.436,-0.012 -0.452,-0.012c-0.005,0 -0.252,0.012 -0.365,0.012c-0.038,0 -0.059,-0.008 -0.059,-0.029c0,-0.013 0.008,-0.03 0.029,-0.03c0.033,0 0.08,-0.008 0.113,-0.016c0.072,-0.017 0.08,-0.084 0.097,-0.189c0.021,-0.147 0.021,-0.428 0.021,-0.772l0,-0.629Z" style="fill:#fff;fill-rule:nonzero;stroke:#fff;stroke-width:0.2px;"/><path d="M45.519,30.288c0.016,0 0.016,-0.009 0.012,-0.025l-0.364,-0.978c-0.021,-0.054 -0.042,-0.054 -0.063,0l-0.344,0.978c-0.004,0.016 0,0.025 0.012,0.025l0.747,0Zm-0.411,-1.485c0.046,-0.117 0.063,-0.138 0.088,-0.138c0.038,0 0.05,0.05 0.088,0.13c0.068,0.151 0.659,1.622 0.885,2.164c0.134,0.318 0.235,0.364 0.314,0.39c0.055,0.016 0.11,0.02 0.147,0.02c0.021,0 0.046,0.009 0.046,0.03c0,0.021 -0.041,0.029 -0.083,0.029c-0.055,0 -0.328,0 -0.583,-0.008c-0.072,-0.004 -0.131,-0.004 -0.131,-0.025c0,-0.017 0.009,-0.017 0.026,-0.026c0.021,-0.008 0.058,-0.037 0.033,-0.096l-0.331,-0.818c-0.008,-0.016 -0.012,-0.021 -0.034,-0.021l-0.851,0c-0.017,0 -0.03,0.009 -0.037,0.03l-0.21,0.57c-0.034,0.088 -0.055,0.176 -0.055,0.239c0,0.071 0.063,0.096 0.126,0.096l0.034,0c0.029,0 0.037,0.013 0.037,0.03c0,0.021 -0.02,0.029 -0.055,0.029c-0.087,0 -0.289,-0.012 -0.33,-0.012c-0.038,0 -0.222,0.012 -0.373,0.012c-0.047,0 -0.072,-0.008 -0.072,-0.029c0,-0.017 0.017,-0.03 0.034,-0.03c0.025,0 0.079,-0.004 0.109,-0.008c0.168,-0.021 0.239,-0.147 0.31,-0.327l0.868,-2.231Z" style="fill:#fff;fill-rule:nonzero;stroke:#fff;stroke-width:0.2px;"/><path d="M3.255,33.424c0,-0.654 0,-0.771 -0.008,-0.906c-0.009,-0.142 -0.043,-0.209 -0.181,-0.239c-0.033,-0.008 -0.105,-0.012 -0.142,-0.012c-0.017,0 -0.034,-0.009 -0.034,-0.025c0,-0.026 0.021,-0.034 0.067,-0.034c0.097,0 0.21,0 0.302,0.004l0.172,0.009c0.03,0 0.864,0 0.96,-0.005c0.08,-0.004 0.147,-0.012 0.181,-0.02c0.02,-0.005 0.037,-0.022 0.058,-0.022c0.013,0 0.017,0.017 0.017,0.038c0,0.03 -0.021,0.08 -0.033,0.197c-0.005,0.042 -0.013,0.227 -0.022,0.277c-0.004,0.021 -0.012,0.046 -0.029,0.046c-0.025,0 -0.033,-0.021 -0.033,-0.054c0,-0.03 -0.004,-0.101 -0.025,-0.151c-0.03,-0.068 -0.072,-0.118 -0.298,-0.143c-0.071,-0.008 -0.528,-0.012 -0.575,-0.012c-0.016,0 -0.025,0.012 -0.025,0.041l0,1.158c0,0.029 0.004,0.042 0.025,0.042c0.055,0 0.571,0 0.667,-0.008c0.101,-0.009 0.159,-0.017 0.197,-0.059c0.03,-0.034 0.046,-0.055 0.063,-0.055c0.013,0 0.021,0.009 0.021,0.034c0,0.025 -0.021,0.096 -0.033,0.235c-0.009,0.083 -0.017,0.239 -0.017,0.268c0,0.034 0,0.08 -0.03,0.08c-0.021,0 -0.029,-0.017 -0.029,-0.038c0,-0.042 0,-0.084 -0.017,-0.138c-0.017,-0.059 -0.054,-0.13 -0.218,-0.148c-0.113,-0.012 -0.528,-0.02 -0.599,-0.02c-0.021,0 -0.03,0.012 -0.03,0.029l0,0.369c0,0.143 -0.004,0.629 0,0.717c0.013,0.29 0.076,0.344 0.487,0.344c0.109,0 0.293,0 0.402,-0.046c0.109,-0.046 0.159,-0.13 0.189,-0.302c0.008,-0.046 0.017,-0.063 0.037,-0.063c0.026,0 0.026,0.034 0.026,0.063c0,0.034 -0.034,0.319 -0.055,0.407c-0.029,0.109 -0.063,0.109 -0.226,0.109c-0.315,0 -0.545,-0.009 -0.709,-0.013c-0.163,-0.008 -0.264,-0.012 -0.327,-0.012c-0.008,0 -0.08,0 -0.168,0.004c-0.083,0 -0.18,0.008 -0.243,0.008c-0.046,0 -0.067,-0.008 -0.067,-0.033c0,-0.013 0.008,-0.026 0.033,-0.026c0.039,0 0.089,-0.008 0.126,-0.016c0.084,-0.017 0.105,-0.109 0.122,-0.231c0.021,-0.176 0.021,-0.507 0.021,-0.91l0,-0.738Z" style="fill:#fff;fill-rule:nonzero;stroke:#fff;stroke-width:0.2px;"/><path d="M7.004,35.043c-0.361,-0.311 -0.449,-0.717 -0.449,-1.057c0,-0.239 0.088,-0.654 0.415,-0.973c0.222,-0.214 0.558,-0.382 1.124,-0.382c0.147,0 0.356,0.013 0.537,0.043c0.138,0.025 0.256,0.05 0.377,0.054c0.038,0 0.046,0.017 0.046,0.038c0,0.029 -0.008,0.071 -0.017,0.201c-0.004,0.117 -0.004,0.314 -0.008,0.365c-0.004,0.054 -0.021,0.075 -0.042,0.075c-0.025,0 -0.029,-0.025 -0.029,-0.075c0,-0.139 -0.059,-0.281 -0.155,-0.357c-0.13,-0.109 -0.399,-0.197 -0.726,-0.197c-0.474,0 -0.7,0.126 -0.83,0.248c-0.272,0.251 -0.331,0.57 -0.331,0.931c0,0.683 0.541,1.291 1.329,1.291c0.277,0 0.461,-0.021 0.608,-0.168c0.08,-0.079 0.13,-0.23 0.142,-0.297c0.009,-0.038 0.013,-0.051 0.038,-0.051c0.017,0 0.034,0.026 0.034,0.051c0,0.025 -0.05,0.335 -0.088,0.457c-0.021,0.067 -0.03,0.079 -0.092,0.105c-0.151,0.058 -0.428,0.079 -0.667,0.079c-0.554,0 -0.927,-0.13 -1.216,-0.381" style="fill:#fff;fill-rule:nonzero;"/><path d="M7.004,35.043c-0.361,-0.311 -0.449,-0.717 -0.449,-1.057c0,-0.239 0.088,-0.654 0.415,-0.973c0.222,-0.214 0.558,-0.382 1.124,-0.382c0.147,0 0.356,0.013 0.537,0.043c0.138,0.025 0.256,0.05 0.377,0.054c0.038,0 0.046,0.017 0.046,0.038c0,0.029 -0.008,0.071 -0.017,0.201c-0.004,0.117 -0.004,0.314 -0.008,0.365c-0.004,0.054 -0.021,0.075 -0.042,0.075c-0.025,0 -0.029,-0.025 -0.029,-0.075c0,-0.139 -0.059,-0.281 -0.155,-0.357c-0.13,-0.109 -0.399,-0.197 -0.726,-0.197c-0.474,0 -0.7,0.126 -0.83,0.248c-0.272,0.251 -0.331,0.57 -0.331,0.931c0,0.683 0.541,1.291 1.329,1.291c0.277,0 0.461,-0.021 0.608,-0.168c0.08,-0.079 0.13,-0.23 0.142,-0.297c0.009,-0.038 0.013,-0.051 0.038,-0.051c0.017,0 0.034,0.026 0.034,0.051c0,0.025 -0.05,0.335 -0.088,0.457c-0.021,0.067 -0.03,0.079 -0.092,0.105c-0.151,0.058 -0.428,0.079 -0.667,0.079c-0.554,0 -0.927,-0.13 -1.216,-0.381Z" style="fill:none;fill-rule:nonzero;stroke:#fff;stroke-width:0.2px;"/><path d="M11.013,33.714c0,-0.554 0,-0.655 -0.009,-0.768c-0.008,-0.113 -0.029,-0.18 -0.151,-0.197c-0.029,-0.004 -0.092,-0.008 -0.125,-0.008c-0.013,0 -0.03,-0.017 -0.03,-0.03c0,-0.021 0.017,-0.029 0.059,-0.029c0.167,0 0.39,0.008 0.423,0.008c0.034,0 0.265,-0.008 0.374,-0.008c0.041,0 0.062,0.008 0.062,0.029c0,0.013 -0.016,0.03 -0.033,0.03c-0.025,0 -0.046,0 -0.092,0.008c-0.097,0.017 -0.118,0.079 -0.126,0.197c-0.009,0.113 -0.009,0.214 -0.009,0.768l0,0.499c0,0.515 0.114,0.729 0.273,0.872c0.18,0.163 0.34,0.193 0.549,0.193c0.227,0 0.445,-0.101 0.571,-0.252c0.171,-0.206 0.209,-0.499 0.209,-0.864l0,-0.448c0,-0.554 -0.004,-0.655 -0.008,-0.768c-0.004,-0.113 -0.025,-0.18 -0.147,-0.197c-0.029,-0.004 -0.092,-0.008 -0.126,-0.008c-0.016,0 -0.029,-0.017 -0.029,-0.03c0,-0.021 0.017,-0.029 0.059,-0.029c0.163,0 0.377,0.008 0.398,0.008c0.025,0 0.201,-0.008 0.31,-0.008c0.042,0 0.059,0.008 0.059,0.029c0,0.013 -0.013,0.03 -0.029,0.03c-0.026,0 -0.047,0 -0.093,0.008c-0.1,0.021 -0.121,0.079 -0.129,0.197c-0.009,0.113 -0.005,0.214 -0.005,0.768l0,0.381c0,0.386 -0.05,0.818 -0.344,1.069c-0.268,0.231 -0.553,0.26 -0.771,0.26c-0.122,0 -0.508,-0.008 -0.768,-0.251c-0.18,-0.168 -0.322,-0.416 -0.322,-0.935l0,-0.524Z" style="fill:#fff;fill-rule:nonzero;stroke:#fff;stroke-width:0.2px;"/><path d="M16.434,34.238c0.017,0 0.017,-0.009 0.013,-0.025l-0.365,-0.978c-0.021,-0.054 -0.042,-0.054 -0.063,0l-0.343,0.978c-0.005,0.016 0,0.025 0.012,0.025l0.746,0Zm-0.411,-1.485c0.047,-0.117 0.063,-0.138 0.089,-0.138c0.037,0 0.05,0.05 0.088,0.13c0.067,0.151 0.658,1.623 0.884,2.163c0.135,0.319 0.235,0.365 0.315,0.39c0.054,0.018 0.109,0.021 0.147,0.021c0.021,0 0.046,0.009 0.046,0.03c0,0.021 -0.042,0.029 -0.084,0.029c-0.055,0 -0.327,0 -0.583,-0.008c-0.071,-0.004 -0.13,-0.004 -0.13,-0.025c0,-0.017 0.008,-0.017 0.025,-0.026c0.021,-0.008 0.059,-0.037 0.034,-0.096l-0.331,-0.818c-0.009,-0.016 -0.013,-0.02 -0.034,-0.02l-0.851,0c-0.017,0 -0.03,0.008 -0.038,0.029l-0.21,0.57c-0.033,0.088 -0.054,0.176 -0.054,0.239c0,0.071 0.063,0.096 0.126,0.096l0.033,0c0.029,0 0.038,0.013 0.038,0.03c0,0.021 -0.021,0.029 -0.055,0.029c-0.088,0 -0.289,-0.012 -0.331,-0.012c-0.038,0 -0.222,0.012 -0.373,0.012c-0.046,0 -0.072,-0.008 -0.072,-0.029c0,-0.017 0.018,-0.03 0.034,-0.03c0.025,0 0.08,-0.003 0.109,-0.008c0.168,-0.021 0.239,-0.147 0.31,-0.327l0.868,-2.231Z" style="fill:#fff;fill-rule:nonzero;stroke:#fff;stroke-width:0.2px;"/><path d="M19.873,34.342c0,0.344 0,0.625 0.017,0.772c0.012,0.105 0.029,0.172 0.142,0.189c0.051,0.008 0.134,0.016 0.168,0.016c0.025,0 0.029,0.017 0.029,0.03c0,0.016 -0.016,0.029 -0.058,0.029c-0.201,0 -0.437,-0.013 -0.457,-0.013c-0.017,0 -0.273,0.013 -0.382,0.013c-0.042,0 -0.059,-0.008 -0.059,-0.029c0,-0.013 0.009,-0.025 0.03,-0.025c0.033,0 0.075,-0.009 0.109,-0.017c0.075,-0.017 0.096,-0.088 0.109,-0.193c0.016,-0.147 0.016,-0.428 0.016,-0.772l0,-1.497l-0.532,0.009c-0.231,0.004 -0.319,0.029 -0.373,0.113c-0.042,0.063 -0.046,0.088 -0.059,0.113c-0.008,0.03 -0.021,0.034 -0.038,0.034c-0.008,0 -0.025,-0.009 -0.025,-0.03c0,-0.037 0.076,-0.356 0.08,-0.385c0.008,-0.021 0.025,-0.068 0.037,-0.068c0.026,0 0.064,0.03 0.164,0.043c0.105,0.012 0.248,0.016 0.29,0.016l1.392,0c0.121,0 0.205,-0.008 0.264,-0.016c0.054,-0.009 0.088,-0.017 0.105,-0.017c0.017,0 0.017,0.021 0.017,0.042c0,0.109 -0.013,0.364 -0.013,0.406c0,0.03 -0.017,0.046 -0.034,0.046c-0.017,0 -0.025,-0.012 -0.029,-0.063l-0.004,-0.037c-0.013,-0.109 -0.093,-0.189 -0.445,-0.197l-0.461,-0.009l0,1.497Z" style="fill:#fff;fill-rule:nonzero;stroke:#fff;stroke-width:0.2px;"/><path d="M23.915,35.278c0.332,0 0.998,-0.176 0.998,-1.208c0,-0.855 -0.52,-1.304 -1.103,-1.304c-0.616,0 -1.06,0.385 -1.06,1.161c0,0.83 0.498,1.351 1.165,1.351m-0.084,-2.647c0.83,0 1.459,0.508 1.459,1.338c0,0.797 -0.591,1.455 -1.48,1.455c-1.01,0 -1.442,-0.758 -1.442,-1.4c0,-0.575 0.444,-1.393 1.463,-1.393" style="fill:#fff;fill-rule:nonzero;"/><path d="M23.915,35.278c0.332,0 0.998,-0.176 0.998,-1.208c0,-0.855 -0.52,-1.304 -1.103,-1.304c-0.616,0 -1.06,0.385 -1.06,1.161c0,0.83 0.498,1.351 1.165,1.351Zm-0.084,-2.647c0.83,0 1.459,0.508 1.459,1.338c0,0.797 -0.591,1.455 -1.48,1.455c-1.01,0 -1.442,-0.758 -1.442,-1.4c0,-0.575 0.444,-1.393 1.463,-1.393Z" style="fill:none;fill-rule:nonzero;stroke:#fff;stroke-width:0.2px;"/><path d="M27.639,34.015c0,0.021 0.008,0.034 0.025,0.047c0.054,0.029 0.243,0.054 0.407,0.054c0.088,0 0.189,-0.004 0.277,-0.063c0.126,-0.084 0.222,-0.272 0.222,-0.545c0,-0.445 -0.243,-0.7 -0.637,-0.7c-0.11,0 -0.227,0.012 -0.264,0.02c-0.017,0.009 -0.03,0.022 -0.03,0.043l0,1.144Zm-0.319,-0.301c0,-0.554 0,-0.655 -0.008,-0.768c-0.008,-0.121 -0.029,-0.18 -0.151,-0.197c-0.029,-0.004 -0.092,-0.008 -0.126,-0.008c-0.012,0 -0.029,-0.017 -0.029,-0.03c0,-0.021 0.017,-0.029 0.058,-0.029c0.168,0 0.416,0.008 0.437,0.008c0.037,0 0.348,-0.008 0.461,-0.008c0.235,0 0.495,0.021 0.688,0.155c0.092,0.067 0.255,0.239 0.255,0.487c0,0.264 -0.108,0.519 -0.452,0.813c0.302,0.377 0.557,0.7 0.771,0.923c0.197,0.201 0.319,0.234 0.411,0.247c0.071,0.012 0.109,0.012 0.13,0.012c0.021,0 0.034,0.017 0.034,0.03c0,0.021 -0.021,0.029 -0.089,0.029l-0.23,0c-0.21,0 -0.302,-0.021 -0.394,-0.071c-0.16,-0.084 -0.294,-0.256 -0.503,-0.524c-0.156,-0.193 -0.319,-0.424 -0.399,-0.52c-0.017,-0.017 -0.025,-0.021 -0.05,-0.021l-0.47,-0.008c-0.017,0 -0.025,0.008 -0.025,0.029l0,0.084c0,0.343 0,0.62 0.017,0.767c0.013,0.105 0.034,0.172 0.147,0.189c0.05,0.008 0.13,0.016 0.163,0.016c0.025,0 0.03,0.017 0.03,0.03c0,0.017 -0.017,0.029 -0.059,0.029c-0.202,0 -0.436,-0.012 -0.453,-0.012c-0.004,0 -0.252,0.012 -0.365,0.012c-0.038,0 -0.059,-0.008 -0.059,-0.029c0,-0.013 0.009,-0.03 0.03,-0.03c0.033,0 0.08,-0.008 0.113,-0.016c0.071,-0.017 0.08,-0.084 0.096,-0.189c0.021,-0.147 0.021,-0.428 0.021,-0.772l0,-0.628Z" style="fill:#fff;fill-rule:nonzero;stroke:#fff;stroke-width:0.2px;"/><path d="M31.732,34.342c0,0.344 0,0.625 0.017,0.772c0.012,0.105 0.025,0.172 0.134,0.189c0.054,0.008 0.134,0.016 0.167,0.016c0.022,0 0.03,0.017 0.03,0.03c0,0.016 -0.017,0.029 -0.059,0.029c-0.205,0 -0.445,-0.013 -0.461,-0.013c-0.021,0 -0.252,0.013 -0.365,0.013c-0.038,0 -0.059,-0.008 -0.059,-0.029c0,-0.013 0.008,-0.03 0.03,-0.03c0.033,0 0.079,-0.008 0.113,-0.016c0.071,-0.017 0.084,-0.084 0.096,-0.189c0.017,-0.147 0.021,-0.428 0.021,-0.772l0,-0.628c0,-0.554 0,-0.655 -0.008,-0.768c-0.009,-0.121 -0.038,-0.176 -0.118,-0.193c-0.041,-0.008 -0.087,-0.012 -0.113,-0.012c-0.017,0 -0.029,-0.017 -0.029,-0.03c0,-0.021 0.016,-0.029 0.059,-0.029c0.121,0 0.352,0.008 0.373,0.008c0.016,0 0.256,-0.008 0.369,-0.008c0.042,0 0.059,0.008 0.059,0.029c0,0.013 -0.017,0.03 -0.03,0.03c-0.025,0 -0.05,0 -0.092,0.008c-0.101,0.021 -0.122,0.071 -0.13,0.197c-0.004,0.113 -0.004,0.214 -0.004,0.768l0,0.628Z" style="fill:#fff;fill-rule:nonzero;stroke:#fff;stroke-width:0.2px;"/><path d="M35.258,34.238c0.017,0 0.017,-0.009 0.013,-0.025l-0.365,-0.978c-0.021,-0.054 -0.042,-0.054 -0.063,0l-0.344,0.978c-0.004,0.016 0,0.025 0.013,0.025l0.746,0Zm-0.411,-1.485c0.046,-0.117 0.063,-0.138 0.088,-0.138c0.038,0 0.051,0.05 0.088,0.13c0.068,0.151 0.659,1.623 0.885,2.163c0.134,0.319 0.235,0.365 0.315,0.39c0.054,0.018 0.109,0.021 0.146,0.021c0.021,0 0.046,0.009 0.046,0.03c0,0.021 -0.041,0.029 -0.083,0.029c-0.055,0 -0.327,0 -0.583,-0.008c-0.072,-0.004 -0.13,-0.004 -0.13,-0.025c0,-0.017 0.008,-0.017 0.025,-0.026c0.021,-0.008 0.059,-0.037 0.033,-0.096l-0.331,-0.818c-0.008,-0.016 -0.012,-0.02 -0.033,-0.02l-0.851,0c-0.017,0 -0.03,0.008 -0.039,0.029l-0.209,0.57c-0.034,0.088 -0.054,0.176 -0.054,0.239c0,0.071 0.062,0.096 0.125,0.096l0.034,0c0.029,0 0.037,0.013 0.037,0.03c0,0.021 -0.02,0.029 -0.054,0.029c-0.088,0 -0.289,-0.012 -0.331,-0.012c-0.038,0 -0.222,0.012 -0.373,0.012c-0.047,0 -0.072,-0.008 -0.072,-0.029c0,-0.017 0.017,-0.03 0.034,-0.03c0.025,0 0.08,-0.003 0.109,-0.008c0.168,-0.021 0.239,-0.147 0.31,-0.327l0.868,-2.231Z" style="fill:#fff;fill-rule:nonzero;stroke:#fff;stroke-width:0.2px;"/><path d="M38.315,34.892c0.009,0.293 0.042,0.381 0.143,0.406c0.067,0.018 0.151,0.021 0.184,0.021c0.017,0 0.03,0.013 0.03,0.03c0,0.021 -0.025,0.029 -0.067,0.029c-0.21,0 -0.357,-0.012 -0.391,-0.012c-0.033,0 -0.188,0.012 -0.356,0.012c-0.038,0 -0.059,-0.004 -0.059,-0.029c0,-0.017 0.013,-0.03 0.03,-0.03c0.029,0 0.096,-0.003 0.151,-0.021c0.092,-0.025 0.105,-0.121 0.105,-0.444l0,-2.042c0,-0.143 0.02,-0.181 0.05,-0.181c0.042,0 0.105,0.072 0.142,0.11c0.06,0.058 0.596,0.629 1.166,1.216c0.365,0.377 0.759,0.8 0.872,0.918l-0.037,-1.786c-0.005,-0.231 -0.025,-0.311 -0.138,-0.331c-0.068,-0.013 -0.152,-0.017 -0.181,-0.017c-0.025,0 -0.029,-0.021 -0.029,-0.034c0,-0.021 0.029,-0.025 0.071,-0.025c0.167,0 0.344,0.008 0.385,0.008c0.043,0 0.164,-0.008 0.315,-0.008c0.038,0 0.067,0.004 0.067,0.025c0,0.013 -0.016,0.034 -0.041,0.034c-0.017,0 -0.047,0 -0.088,0.008c-0.122,0.025 -0.131,0.096 -0.131,0.31l-0.008,2.089c0,0.234 -0.004,0.255 -0.029,0.255c-0.038,0 -0.076,-0.029 -0.281,-0.218c-0.038,-0.033 -0.571,-0.557 -0.961,-0.964c-0.428,-0.449 -0.842,-0.885 -0.956,-1.011l0.042,1.682Z" style="fill:#fff;fill-rule:nonzero;stroke:#fff;stroke-width:0.2px;"/><path d="M43.884,34.238c0.016,0 0.016,-0.009 0.012,-0.025l-0.365,-0.978c-0.02,-0.054 -0.042,-0.054 -0.063,0l-0.343,0.978c-0.005,0.016 0,0.025 0.012,0.025l0.747,0Zm-0.411,-1.485c0.046,-0.117 0.063,-0.138 0.088,-0.138c0.038,0 0.05,0.05 0.088,0.13c0.067,0.151 0.658,1.623 0.885,2.163c0.134,0.319 0.234,0.365 0.314,0.39c0.055,0.018 0.109,0.021 0.147,0.021c0.021,0 0.046,0.009 0.046,0.03c0,0.021 -0.042,0.029 -0.084,0.029c-0.054,0 -0.327,0 -0.583,-0.008c-0.071,-0.004 -0.13,-0.004 -0.13,-0.025c0,-0.017 0.009,-0.017 0.025,-0.026c0.022,-0.008 0.059,-0.037 0.034,-0.096l-0.331,-0.818c-0.009,-0.016 -0.012,-0.02 -0.034,-0.02l-0.851,0c-0.017,0 -0.03,0.008 -0.038,0.029l-0.21,0.57c-0.033,0.088 -0.054,0.176 -0.054,0.239c0,0.071 0.063,0.096 0.126,0.096l0.033,0c0.03,0 0.038,0.013 0.038,0.03c0,0.021 -0.021,0.029 -0.055,0.029c-0.088,0 -0.289,-0.012 -0.331,-0.012c-0.037,0 -0.222,0.012 -0.373,0.012c-0.046,0 -0.071,-0.008 -0.071,-0.029c0,-0.017 0.017,-0.03 0.034,-0.03c0.024,0 0.079,-0.003 0.108,-0.008c0.168,-0.021 0.239,-0.147 0.311,-0.327l0.868,-2.231Z" style="fill:#fff;fill-rule:nonzero;stroke:#fff;stroke-width:0.2px;"/><path d="M1.122,36.954l45.48,0" style="fill:none;fill-rule:nonzero;stroke:#fff;stroke-width:0.2px;"/><rect x="1.122" y="36.897" width="45.48" height="0.115" style="fill:#fff;"/><path d="M1.168,36.966l45.387,0l0,-0.023l-45.387,0l0,0.023Zm45.479,0.092l-45.571,0l0,-0.207l45.571,0l0,0.207Z" style="fill:#fff;fill-rule:nonzero;"/><path d="M2.629,40.485c0.06,0 0.105,0.008 0.105,0.035c0,0.043 -0.066,0.05 -0.123,0.061c-0.095,0.014 -0.718,0.098 -0.838,0.13c-0.067,0.018 -0.127,0.053 -0.144,0.053c-0.022,0 -0.025,-0.022 -0.018,-0.053l0.053,-0.198c0.007,-0.024 0.021,-0.028 0.077,-0.028l0.888,0Z" style="fill:#fff;fill-rule:nonzero;stroke:#fff;stroke-width:0.2px;"/><path d="M3.604,41.109c0.008,0.289 0.043,0.38 0.138,0.408c0.067,0.018 0.144,0.022 0.176,0.022c0.018,0 0.028,0.007 0.028,0.021c0,0.021 -0.021,0.028 -0.063,0.028c-0.201,0 -0.342,-0.011 -0.374,-0.011c-0.031,0 -0.179,0.011 -0.338,0.011c-0.035,0 -0.056,-0.004 -0.056,-0.028c0,-0.014 0.01,-0.021 0.028,-0.021c0.028,0 0.092,-0.004 0.144,-0.022c0.088,-0.024 0.106,-0.126 0.106,-0.447l0.004,-2.018c0,-0.138 0.01,-0.177 0.039,-0.177c0.028,0 0.087,0.079 0.123,0.114c0.053,0.059 0.577,0.626 1.12,1.208c0.348,0.373 0.732,0.803 0.845,0.919l-0.039,-1.789c-0.003,-0.229 -0.028,-0.307 -0.137,-0.335c-0.063,-0.014 -0.144,-0.018 -0.172,-0.018c-0.025,0 -0.029,-0.01 -0.029,-0.024c0,-0.021 0.029,-0.025 0.071,-0.025c0.158,0 0.327,0.011 0.366,0.011c0.039,0 0.155,-0.011 0.299,-0.011c0.039,0 0.064,0.004 0.064,0.025c0,0.014 -0.014,0.024 -0.039,0.024c-0.018,0 -0.042,0 -0.084,0.011c-0.117,0.025 -0.131,0.102 -0.131,0.313l-0.007,2.065c0,0.232 -0.007,0.249 -0.032,0.249c-0.028,0 -0.07,-0.038 -0.257,-0.225c-0.038,-0.035 -0.546,-0.553 -0.919,-0.954c-0.409,-0.441 -0.807,-0.884 -0.919,-1.011l0.045,1.687Z" style="fill:#fff;fill-rule:nonzero;stroke:#fff;stroke-width:0.2px;"/><path d="M8.31,38.446c0.018,0.032 0,0.042 -0.014,0.042c-0.01,0 -0.046,-0.007 -0.105,0c-0.173,0.018 -0.42,0.099 -0.536,0.148c-0.024,0.011 -0.046,0.018 -0.052,0.018c-0.008,0 -0.018,-0.007 -0.018,-0.021c0,-0.011 0.007,-0.018 0.024,-0.028c0.127,-0.089 0.455,-0.286 0.48,-0.3c0.059,-0.035 0.08,-0.046 0.098,-0.046c0.011,0 0.018,0.007 0.035,0.032c0.025,0.035 0.05,0.085 0.088,0.155m-1.645,1.5c0,-0.549 0,-0.648 -0.007,-0.76c-0.007,-0.12 -0.035,-0.176 -0.151,-0.201c-0.028,-0.007 -0.088,-0.011 -0.12,-0.011c-0.014,0 -0.028,-0.007 -0.028,-0.02c0,-0.022 0.017,-0.029 0.056,-0.029c0.159,0 0.373,0.011 0.405,0.011c0.032,0 0.243,-0.011 0.349,-0.011c0.039,0 0.057,0.007 0.057,0.029c0,0.013 -0.015,0.02 -0.029,0.02c-0.025,0 -0.045,0.004 -0.088,0.011c-0.095,0.014 -0.123,0.077 -0.13,0.201c-0.007,0.112 -0.007,0.211 -0.007,0.76l0,0.494c0,0.507 0.113,0.725 0.264,0.87c0.173,0.162 0.331,0.193 0.532,0.193c0.215,0 0.426,-0.102 0.553,-0.253c0.162,-0.201 0.204,-0.5 0.204,-0.863l0,-0.441c0,-0.549 0,-0.648 -0.007,-0.76c-0.007,-0.12 -0.035,-0.176 -0.151,-0.201c-0.029,-0.007 -0.088,-0.011 -0.12,-0.011c-0.014,0 -0.028,-0.007 -0.028,-0.02c0,-0.022 0.017,-0.029 0.056,-0.029c0.159,0 0.352,0.011 0.374,0.011c0.024,0 0.19,-0.011 0.296,-0.011c0.038,0 0.056,0.007 0.056,0.029c0,0.013 -0.014,0.02 -0.028,0.02c-0.025,0 -0.046,0.004 -0.088,0.011c-0.096,0.021 -0.124,0.077 -0.131,0.201c-0.007,0.112 -0.007,0.211 -0.007,0.76l0,0.377c0,0.381 -0.042,0.803 -0.324,1.054c-0.254,0.225 -0.518,0.26 -0.726,0.26c-0.119,0 -0.475,-0.014 -0.725,-0.25c-0.173,-0.165 -0.307,-0.412 -0.307,-0.926l0,-0.515Z" style="fill:#fff;fill-rule:nonzero;"/><path d="M8.31,38.446c0.018,0.032 0,0.042 -0.014,0.042c-0.01,0 -0.046,-0.007 -0.105,0c-0.173,0.018 -0.42,0.099 -0.536,0.148c-0.024,0.011 -0.046,0.018 -0.052,0.018c-0.008,0 -0.018,-0.007 -0.018,-0.021c0,-0.011 0.007,-0.018 0.024,-0.028c0.127,-0.089 0.455,-0.286 0.48,-0.3c0.059,-0.035 0.08,-0.046 0.098,-0.046c0.011,0 0.018,0.007 0.035,0.032c0.025,0.035 0.05,0.085 0.088,0.155Zm-1.645,1.5c0,-0.549 0,-0.648 -0.007,-0.76c-0.007,-0.12 -0.035,-0.176 -0.151,-0.201c-0.028,-0.007 -0.088,-0.011 -0.12,-0.011c-0.014,0 -0.028,-0.007 -0.028,-0.02c0,-0.022 0.017,-0.029 0.056,-0.029c0.159,0 0.373,0.011 0.405,0.011c0.032,0 0.243,-0.011 0.349,-0.011c0.039,0 0.057,0.007 0.057,0.029c0,0.013 -0.015,0.02 -0.029,0.02c-0.025,0 -0.045,0.004 -0.088,0.011c-0.095,0.014 -0.123,0.077 -0.13,0.201c-0.007,0.112 -0.007,0.211 -0.007,0.76l0,0.494c0,0.507 0.113,0.725 0.264,0.87c0.173,0.162 0.331,0.193 0.532,0.193c0.215,0 0.426,-0.102 0.553,-0.253c0.162,-0.201 0.204,-0.5 0.204,-0.863l0,-0.441c0,-0.549 0,-0.648 -0.007,-0.76c-0.007,-0.12 -0.035,-0.176 -0.151,-0.201c-0.029,-0.007 -0.088,-0.011 -0.12,-0.011c-0.014,0 -0.028,-0.007 -0.028,-0.02c0,-0.022 0.017,-0.029 0.056,-0.029c0.159,0 0.352,0.011 0.374,0.011c0.024,0 0.19,-0.011 0.296,-0.011c0.038,0 0.056,0.007 0.056,0.029c0,0.013 -0.014,0.02 -0.028,0.02c-0.025,0 -0.046,0.004 -0.088,0.011c-0.096,0.021 -0.124,0.077 -0.131,0.201c-0.007,0.112 -0.007,0.211 -0.007,0.76l0,0.377c0,0.381 -0.042,0.803 -0.324,1.054c-0.254,0.225 -0.518,0.26 -0.726,0.26c-0.119,0 -0.475,-0.014 -0.725,-0.25c-0.173,-0.165 -0.307,-0.412 -0.307,-0.926l0,-0.515Z" style="fill:none;fill-rule:nonzero;stroke:#fff;stroke-width:0.2px;"/><path d="M9.843,41.257c-0.342,-0.306 -0.426,-0.708 -0.426,-1.043c0,-0.236 0.081,-0.648 0.394,-0.961c0.211,-0.212 0.532,-0.377 1.074,-0.377c0.141,0 0.338,0.01 0.511,0.042c0.134,0.025 0.247,0.046 0.359,0.053c0.039,0.003 0.046,0.018 0.046,0.038c0,0.029 -0.01,0.071 -0.018,0.198c-0.006,0.116 -0.006,0.31 -0.01,0.363c-0.004,0.052 -0.01,0.074 -0.032,0.074c-0.024,0 -0.028,-0.025 -0.028,-0.074c0,-0.138 -0.056,-0.282 -0.148,-0.359c-0.123,-0.106 -0.394,-0.202 -0.704,-0.202c-0.469,0 -0.687,0.138 -0.811,0.258c-0.257,0.246 -0.316,0.56 -0.316,0.919c0,0.673 0.517,1.289 1.271,1.289c0.264,0 0.472,-0.032 0.613,-0.176c0.074,-0.077 0.12,-0.232 0.13,-0.296c0.007,-0.039 0.015,-0.052 0.035,-0.052c0.018,0 0.025,0.024 0.025,0.052c0,0.025 -0.042,0.332 -0.077,0.451c-0.022,0.067 -0.028,0.074 -0.092,0.102c-0.141,0.057 -0.409,0.081 -0.634,0.081c-0.528,0 -0.884,-0.13 -1.162,-0.38" style="fill:#fff;fill-rule:nonzero;"/><path d="M9.843,41.257c-0.342,-0.306 -0.426,-0.708 -0.426,-1.043c0,-0.236 0.081,-0.648 0.394,-0.961c0.211,-0.212 0.532,-0.377 1.074,-0.377c0.141,0 0.338,0.01 0.511,0.042c0.134,0.025 0.247,0.046 0.359,0.053c0.039,0.003 0.046,0.018 0.046,0.038c0,0.029 -0.01,0.071 -0.018,0.198c-0.006,0.116 -0.006,0.31 -0.01,0.363c-0.004,0.052 -0.01,0.074 -0.032,0.074c-0.024,0 -0.028,-0.025 -0.028,-0.074c0,-0.138 -0.056,-0.282 -0.148,-0.359c-0.123,-0.106 -0.394,-0.202 -0.704,-0.202c-0.469,0 -0.687,0.138 -0.811,0.258c-0.257,0.246 -0.316,0.56 -0.316,0.919c0,0.673 0.517,1.289 1.271,1.289c0.264,0 0.472,-0.032 0.613,-0.176c0.074,-0.077 0.12,-0.232 0.13,-0.296c0.007,-0.039 0.015,-0.052 0.035,-0.052c0.018,0 0.025,0.024 0.025,0.052c0,0.025 -0.042,0.332 -0.077,0.451c-0.022,0.067 -0.028,0.074 -0.092,0.102c-0.141,0.057 -0.409,0.081 -0.634,0.081c-0.528,0 -0.884,-0.13 -1.162,-0.38Z" style="fill:none;fill-rule:nonzero;stroke:#fff;stroke-width:0.2px;"/><path d="M12.974,40.574c0,0.518 0.014,0.743 0.077,0.806c0.057,0.057 0.149,0.081 0.423,0.081c0.187,0 0.342,-0.003 0.427,-0.106c0.045,-0.056 0.081,-0.144 0.091,-0.211c0.004,-0.028 0.011,-0.046 0.032,-0.046c0.017,0 0.021,0.014 0.021,0.053c0,0.039 -0.025,0.25 -0.053,0.352c-0.024,0.082 -0.035,0.095 -0.222,0.095c-0.254,0 -0.437,-0.006 -0.585,-0.01c-0.148,-0.007 -0.257,-0.01 -0.359,-0.01c-0.014,0 -0.074,0.003 -0.144,0.003c-0.071,0.004 -0.148,0.007 -0.201,0.007c-0.039,0 -0.056,-0.007 -0.056,-0.028c0,-0.011 0.007,-0.021 0.028,-0.021c0.032,0 0.074,-0.007 0.106,-0.015c0.07,-0.014 0.088,-0.091 0.102,-0.193c0.017,-0.148 0.017,-0.426 0.017,-0.764l0,-0.621c0,-0.549 0,-0.648 -0.007,-0.76c-0.007,-0.12 -0.035,-0.177 -0.151,-0.201c-0.029,-0.007 -0.088,-0.011 -0.12,-0.011c-0.014,0 -0.028,-0.006 -0.028,-0.021c0,-0.021 0.017,-0.028 0.056,-0.028c0.159,0 0.381,0.01 0.398,0.01c0.018,0 0.275,-0.01 0.381,-0.01c0.038,0 0.056,0.007 0.056,0.028c0,0.015 -0.014,0.021 -0.028,0.021c-0.025,0 -0.074,0.004 -0.116,0.011c-0.103,0.018 -0.131,0.077 -0.138,0.201c-0.007,0.112 -0.007,0.211 -0.007,0.76l0,0.628Z" style="fill:#fff;fill-rule:nonzero;stroke:#fff;stroke-width:0.2px;"/><path d="M14.788,39.946c0,-0.549 0,-0.648 -0.007,-0.76c-0.007,-0.12 -0.035,-0.177 -0.151,-0.201c-0.029,-0.007 -0.089,-0.011 -0.12,-0.011c-0.014,0 -0.028,-0.006 -0.028,-0.021c0,-0.021 0.017,-0.028 0.056,-0.028c0.081,0 0.176,0 0.254,0.004l0.144,0.006c0.025,0 0.726,0 0.807,-0.003c0.067,-0.003 0.123,-0.01 0.151,-0.018c0.018,-0.003 0.032,-0.017 0.049,-0.017c0.011,0 0.015,0.014 0.015,0.032c0,0.024 -0.018,0.067 -0.029,0.165c-0.003,0.035 -0.01,0.19 -0.017,0.233c-0.004,0.017 -0.011,0.038 -0.025,0.038c-0.021,0 -0.028,-0.017 -0.028,-0.046c0,-0.024 -0.004,-0.084 -0.021,-0.126c-0.025,-0.057 -0.06,-0.099 -0.25,-0.12c-0.06,-0.007 -0.444,-0.011 -0.483,-0.011c-0.014,0 -0.021,0.011 -0.021,0.036l0,0.972c0,0.024 0.004,0.035 0.021,0.035c0.046,0 0.479,0 0.56,-0.007c0.085,-0.007 0.134,-0.014 0.166,-0.049c0.024,-0.029 0.039,-0.046 0.053,-0.046c0.01,0 0.017,0.007 0.017,0.028c0,0.022 -0.017,0.081 -0.028,0.197c-0.007,0.071 -0.014,0.201 -0.014,0.226c0,0.028 0,0.067 -0.025,0.067c-0.018,0 -0.024,-0.014 -0.024,-0.032c0,-0.035 0,-0.071 -0.014,-0.116c-0.015,-0.05 -0.046,-0.109 -0.184,-0.123c-0.095,-0.011 -0.443,-0.018 -0.503,-0.018c-0.018,0 -0.025,0.01 -0.025,0.024l0,0.311c0,0.119 -0.004,0.528 0,0.602c0.011,0.243 0.063,0.289 0.409,0.289c0.091,0 0.246,0 0.338,-0.039c0.091,-0.039 0.134,-0.109 0.158,-0.254c0.007,-0.038 0.014,-0.053 0.032,-0.053c0.021,0 0.021,0.028 0.021,0.053c0,0.029 -0.028,0.268 -0.046,0.342c-0.024,0.091 -0.053,0.091 -0.19,0.091c-0.264,0 -0.458,-0.006 -0.595,-0.01c-0.138,-0.007 -0.222,-0.011 -0.275,-0.011c-0.007,0 -0.067,0 -0.141,0.004c-0.07,0 -0.151,0.007 -0.204,0.007c-0.039,0 -0.056,-0.007 -0.056,-0.028c0,-0.011 0.006,-0.021 0.028,-0.021c0.031,0 0.074,-0.007 0.105,-0.015c0.071,-0.013 0.088,-0.091 0.102,-0.193c0.018,-0.148 0.018,-0.426 0.018,-0.764l0,-0.621Z" style="fill:#fff;fill-rule:nonzero;stroke:#fff;stroke-width:0.2px;"/><path d="M18.021,41.503c0.318,0 0.973,-0.183 0.973,-1.208c0,-0.845 -0.515,-1.3 -1.071,-1.3c-0.588,0 -1.028,0.388 -1.028,1.159c0,0.821 0.492,1.349 1.126,1.349m-0.074,-2.628c0.793,0 1.385,0.501 1.385,1.322c0,0.789 -0.557,1.44 -1.405,1.44c-0.966,0 -1.367,-0.75 -1.367,-1.384c0,-0.571 0.415,-1.378 1.387,-1.378" style="fill:#fff;fill-rule:nonzero;"/><path d="M18.021,41.503c0.318,0 0.973,-0.183 0.973,-1.208c0,-0.845 -0.515,-1.3 -1.071,-1.3c-0.588,0 -1.028,0.388 -1.028,1.159c0,0.821 0.492,1.349 1.126,1.349Zm-0.074,-2.628c0.793,0 1.385,0.501 1.385,1.322c0,0.789 -0.557,1.44 -1.405,1.44c-0.966,0 -1.367,-0.75 -1.367,-1.384c0,-0.571 0.415,-1.378 1.387,-1.378Z" style="fill:none;fill-rule:nonzero;stroke:#fff;stroke-width:0.2px;"/><path d="M21.674,40.327c0,0.373 0.004,0.697 0.007,0.764c0.004,0.089 0.011,0.229 0.039,0.268c0.046,0.067 0.183,0.141 0.599,0.141c0.328,0 0.631,-0.12 0.838,-0.327c0.184,-0.18 0.282,-0.518 0.282,-0.843c0,-0.447 -0.194,-0.736 -0.338,-0.887c-0.331,-0.349 -0.733,-0.398 -1.152,-0.398c-0.071,0 -0.201,0.011 -0.229,0.025c-0.032,0.014 -0.042,0.031 -0.042,0.07c-0.004,0.12 -0.004,0.479 -0.004,0.75l0,0.437Zm-0.296,-0.38c0,-0.55 0,-0.649 -0.007,-0.761c-0.007,-0.12 -0.035,-0.176 -0.151,-0.201c-0.028,-0.007 -0.088,-0.011 -0.12,-0.011c-0.014,0 -0.028,-0.007 -0.028,-0.021c0,-0.021 0.017,-0.028 0.056,-0.028c0.159,0 0.381,0.011 0.399,0.011c0.042,0 0.264,-0.011 0.475,-0.011c0.349,0 0.993,-0.032 1.412,0.402c0.177,0.183 0.342,0.475 0.342,0.894c0,0.444 -0.183,0.786 -0.38,0.994c-0.152,0.158 -0.469,0.405 -1.068,0.405c-0.151,0 -0.338,-0.011 -0.489,-0.021c-0.155,-0.011 -0.275,-0.022 -0.292,-0.022c-0.008,0 -0.068,0 -0.141,0.004c-0.071,0 -0.152,0.007 -0.205,0.007c-0.038,0 -0.056,-0.007 -0.056,-0.028c0,-0.011 0.007,-0.021 0.028,-0.021c0.032,0 0.074,-0.007 0.106,-0.015c0.07,-0.014 0.088,-0.091 0.102,-0.193c0.017,-0.148 0.017,-0.426 0.017,-0.764l0,-0.62Z" style="fill:#fff;fill-rule:nonzero;stroke:#fff;stroke-width:0.2px;"/><path d="M24.601,39.946c0,-0.549 0,-0.648 -0.006,-0.76c-0.008,-0.12 -0.036,-0.177 -0.152,-0.201c-0.028,-0.007 -0.088,-0.011 -0.12,-0.011c-0.014,0 -0.028,-0.006 -0.028,-0.021c0,-0.021 0.017,-0.028 0.057,-0.028c0.08,0 0.175,0 0.253,0.004l0.144,0.006c0.025,0 0.726,0 0.807,-0.003c0.067,-0.003 0.123,-0.01 0.152,-0.018c0.017,-0.003 0.031,-0.017 0.049,-0.017c0.01,0 0.014,0.014 0.014,0.032c0,0.024 -0.018,0.067 -0.028,0.165c-0.004,0.035 -0.011,0.19 -0.018,0.233c-0.003,0.017 -0.011,0.038 -0.025,0.038c-0.021,0 -0.028,-0.017 -0.028,-0.046c0,-0.024 -0.003,-0.084 -0.021,-0.126c-0.025,-0.057 -0.06,-0.099 -0.25,-0.12c-0.06,-0.007 -0.444,-0.011 -0.482,-0.011c-0.015,0 -0.022,0.011 -0.022,0.036l0,0.972c0,0.024 0.004,0.035 0.022,0.035c0.045,0 0.479,0 0.559,-0.007c0.085,-0.007 0.134,-0.014 0.166,-0.049c0.025,-0.029 0.039,-0.046 0.053,-0.046c0.011,0 0.017,0.007 0.017,0.028c0,0.022 -0.017,0.081 -0.028,0.197c-0.007,0.071 -0.014,0.201 -0.014,0.226c0,0.028 0,0.067 -0.024,0.067c-0.018,0 -0.025,-0.014 -0.025,-0.032c0,-0.035 0,-0.071 -0.014,-0.116c-0.014,-0.05 -0.046,-0.109 -0.183,-0.123c-0.095,-0.011 -0.444,-0.018 -0.504,-0.018c-0.018,0 -0.025,0.01 -0.025,0.024l0,0.311c0,0.119 -0.003,0.528 0,0.602c0.011,0.243 0.064,0.289 0.409,0.289c0.092,0 0.246,0 0.338,-0.039c0.092,-0.039 0.134,-0.109 0.158,-0.254c0.008,-0.038 0.015,-0.053 0.032,-0.053c0.021,0 0.021,0.028 0.021,0.053c0,0.029 -0.028,0.268 -0.045,0.342c-0.025,0.091 -0.053,0.091 -0.19,0.091c-0.265,0 -0.459,-0.006 -0.596,-0.01c-0.137,-0.007 -0.222,-0.011 -0.275,-0.011c-0.007,0 -0.067,0 -0.14,0.004c-0.071,0 -0.152,0.007 -0.205,0.007c-0.038,0 -0.056,-0.007 -0.056,-0.028c0,-0.011 0.007,-0.021 0.028,-0.021c0.032,0 0.074,-0.007 0.106,-0.015c0.07,-0.013 0.087,-0.091 0.102,-0.193c0.017,-0.148 0.017,-0.426 0.017,-0.764l0,-0.621Z" style="fill:#fff;fill-rule:nonzero;stroke:#fff;stroke-width:0.2px;"/><path d="M27.071,40.574c0,0.518 0.014,0.743 0.077,0.806c0.056,0.057 0.148,0.081 0.422,0.081c0.187,0 0.343,-0.003 0.427,-0.106c0.046,-0.056 0.081,-0.144 0.091,-0.211c0.004,-0.028 0.011,-0.046 0.032,-0.046c0.018,0 0.021,0.014 0.021,0.053c0,0.039 -0.025,0.25 -0.053,0.352c-0.024,0.082 -0.035,0.095 -0.221,0.095c-0.254,0 -0.437,-0.006 -0.585,-0.01c-0.148,-0.007 -0.257,-0.01 -0.359,-0.01c-0.015,0 -0.074,0.003 -0.145,0.003c-0.07,0.004 -0.148,0.007 -0.201,0.007c-0.039,0 -0.056,-0.007 -0.056,-0.028c0,-0.011 0.007,-0.021 0.028,-0.021c0.032,0 0.074,-0.007 0.106,-0.015c0.07,-0.014 0.088,-0.091 0.102,-0.193c0.018,-0.148 0.018,-0.426 0.018,-0.764l0,-0.621c0,-0.549 0,-0.648 -0.008,-0.76c-0.007,-0.12 -0.035,-0.177 -0.151,-0.201c-0.028,-0.007 -0.088,-0.011 -0.12,-0.011c-0.014,0 -0.028,-0.006 -0.028,-0.021c0,-0.021 0.018,-0.028 0.057,-0.028c0.158,0 0.38,0.01 0.398,0.01c0.017,0 0.274,-0.01 0.38,-0.01c0.039,0 0.056,0.007 0.056,0.028c0,0.015 -0.014,0.021 -0.028,0.021c-0.024,0 -0.074,0.004 -0.116,0.011c-0.102,0.018 -0.13,0.077 -0.138,0.201c-0.006,0.112 -0.006,0.211 -0.006,0.76l0,0.628Z" style="fill:#fff;fill-rule:nonzero;stroke:#fff;stroke-width:0.2px;"/><path d="M31.727,40.69c0,-0.285 -0.018,-0.324 -0.158,-0.363c-0.029,-0.007 -0.089,-0.011 -0.12,-0.011c-0.014,0 -0.028,-0.006 -0.028,-0.021c0,-0.021 0.017,-0.028 0.056,-0.028c0.159,0 0.381,0.011 0.398,0.011c0.018,0 0.24,-0.011 0.345,-0.011c0.039,0 0.057,0.007 0.057,0.028c0,0.015 -0.015,0.021 -0.029,0.021c-0.024,0 -0.046,0.004 -0.088,0.011c-0.095,0.018 -0.123,0.078 -0.13,0.201c-0.007,0.112 -0.007,0.218 -0.007,0.366l0,0.395c0,0.158 -0.003,0.165 -0.046,0.19c-0.225,0.12 -0.542,0.158 -0.747,0.158c-0.267,0 -0.768,-0.035 -1.159,-0.377c-0.214,-0.186 -0.418,-0.563 -0.418,-1.004c0,-0.563 0.274,-0.961 0.587,-1.158c0.317,-0.198 0.666,-0.223 0.938,-0.223c0.221,0 0.472,0.047 0.538,0.061c0.074,0.018 0.198,0.031 0.286,0.035c0.035,0.003 0.042,0.018 0.042,0.032c0,0.049 -0.024,0.148 -0.024,0.5c0,0.056 -0.008,0.074 -0.032,0.074c-0.018,0 -0.022,-0.022 -0.025,-0.053c-0.003,-0.05 -0.021,-0.148 -0.074,-0.233c-0.088,-0.133 -0.373,-0.285 -0.828,-0.285c-0.222,0 -0.486,0.021 -0.753,0.233c-0.205,0.162 -0.349,0.482 -0.349,0.894c0,0.497 0.25,0.856 0.373,0.976c0.279,0.271 0.599,0.377 0.923,0.377c0.127,0 0.31,-0.021 0.402,-0.074c0.046,-0.025 0.07,-0.063 0.07,-0.123l0,-0.599Z" style="fill:#fff;fill-rule:nonzero;stroke:#fff;stroke-width:0.2px;"/><path d="M32.911,39.946c0,-0.549 0,-0.648 -0.008,-0.76c-0.006,-0.12 -0.035,-0.177 -0.151,-0.201c-0.028,-0.007 -0.088,-0.011 -0.12,-0.011c-0.014,0 -0.028,-0.006 -0.028,-0.021c0,-0.021 0.018,-0.028 0.057,-0.028c0.158,0 0.373,0.01 0.405,0.01c0.031,0 0.243,-0.01 0.348,-0.01c0.039,0 0.057,0.007 0.057,0.028c0,0.015 -0.014,0.021 -0.028,0.021c-0.025,0 -0.046,0.004 -0.089,0.011c-0.095,0.014 -0.123,0.077 -0.13,0.201c-0.007,0.112 -0.007,0.211 -0.007,0.76l0,0.494c0,0.507 0.113,0.725 0.264,0.87c0.173,0.162 0.331,0.193 0.532,0.193c0.215,0 0.426,-0.102 0.553,-0.253c0.162,-0.201 0.204,-0.5 0.204,-0.863l0,-0.441c0,-0.549 0,-0.648 -0.007,-0.76c-0.007,-0.12 -0.035,-0.177 -0.151,-0.201c-0.028,-0.007 -0.088,-0.011 -0.12,-0.011c-0.014,0 -0.028,-0.006 -0.028,-0.021c0,-0.021 0.018,-0.028 0.056,-0.028c0.159,0 0.352,0.01 0.374,0.01c0.024,0 0.19,-0.01 0.296,-0.01c0.038,0 0.056,0.007 0.056,0.028c0,0.015 -0.014,0.021 -0.028,0.021c-0.025,0 -0.046,0.004 -0.088,0.011c-0.095,0.021 -0.123,0.077 -0.131,0.201c-0.007,0.112 -0.007,0.211 -0.007,0.76l0,0.377c0,0.381 -0.042,0.804 -0.324,1.054c-0.253,0.225 -0.517,0.26 -0.725,0.26c-0.12,0 -0.476,-0.014 -0.726,-0.25c-0.172,-0.165 -0.306,-0.412 -0.306,-0.926l0,-0.515Z" style="fill:#fff;fill-rule:nonzero;stroke:#fff;stroke-width:0.2px;"/><path d="M36.877,40.422c0.017,0 0.017,-0.01 0.014,-0.025l-0.335,-0.951c-0.017,-0.053 -0.035,-0.053 -0.053,0l-0.309,0.951c-0.007,0.018 0,0.025 0.01,0.025l0.673,0Zm-0.367,-1.409c0.043,-0.116 0.057,-0.138 0.078,-0.138c0.021,0 0.035,0.019 0.078,0.128c0.053,0.133 0.606,1.588 0.82,2.124c0.127,0.313 0.229,0.369 0.303,0.39c0.053,0.018 0.106,0.022 0.141,0.022c0.021,0 0.035,0.003 0.035,0.021c0,0.021 -0.031,0.028 -0.07,0.028c-0.053,0 -0.31,0 -0.553,-0.007c-0.067,-0.004 -0.106,-0.004 -0.106,-0.024c0,-0.015 0.011,-0.022 0.025,-0.025c0.021,-0.008 0.042,-0.039 0.021,-0.095l-0.328,-0.867c-0.007,-0.014 -0.014,-0.021 -0.031,-0.021l-0.758,0c-0.017,0 -0.028,0.01 -0.035,0.028l-0.211,0.624c-0.032,0.088 -0.05,0.172 -0.05,0.236c0,0.07 0.074,0.102 0.134,0.102l0.036,0c0.024,0 0.035,0.007 0.035,0.021c0,0.021 -0.021,0.028 -0.053,0.028c-0.084,0 -0.236,-0.011 -0.275,-0.011c-0.038,0 -0.232,0.011 -0.398,0.011c-0.046,0 -0.067,-0.007 -0.067,-0.028c0,-0.014 0.014,-0.021 0.032,-0.021c0.025,0 0.074,-0.004 0.102,-0.007c0.162,-0.021 0.233,-0.155 0.296,-0.331l0.799,-2.188Z" style="fill:#fff;fill-rule:nonzero;stroke:#fff;stroke-width:0.2px;"/><path d="M38.712,40.676c0,-0.191 -0.035,-0.268 -0.081,-0.37c-0.025,-0.056 -0.497,-0.831 -0.62,-1.015c-0.088,-0.13 -0.176,-0.218 -0.239,-0.26c-0.053,-0.035 -0.12,-0.057 -0.152,-0.057c-0.017,0 -0.035,-0.006 -0.035,-0.024c0,-0.015 0.014,-0.025 0.046,-0.025c0.067,0 0.331,0.01 0.348,0.01c0.025,0 0.159,-0.01 0.296,-0.01c0.039,0 0.046,0.01 0.046,0.025c0,0.014 -0.021,0.018 -0.053,0.031c-0.028,0.015 -0.046,0.036 -0.046,0.064c0,0.042 0.018,0.084 0.046,0.137c0.057,0.102 0.585,1.011 0.648,1.113c0.068,-0.148 0.514,-0.919 0.585,-1.035c0.046,-0.074 0.059,-0.134 0.059,-0.18c0,-0.049 -0.013,-0.088 -0.055,-0.099c-0.032,-0.01 -0.053,-0.017 -0.053,-0.035c0,-0.014 0.021,-0.021 0.056,-0.021c0.092,0 0.204,0.01 0.233,0.01c0.021,0 0.274,-0.01 0.341,-0.01c0.025,0 0.046,0.007 0.046,0.021c0,0.018 -0.017,0.028 -0.046,0.028c-0.039,0 -0.106,0.015 -0.162,0.05c-0.071,0.042 -0.109,0.084 -0.186,0.179c-0.117,0.141 -0.61,0.969 -0.673,1.12c-0.053,0.127 -0.053,0.236 -0.053,0.353l0,0.303c0,0.056 0,0.204 0.01,0.352c0.008,0.102 0.039,0.18 0.145,0.193c0.049,0.008 0.126,0.015 0.159,0.015c0.021,0 0.028,0.01 0.028,0.021c0,0.017 -0.018,0.028 -0.057,0.028c-0.193,0 -0.416,-0.011 -0.433,-0.011c-0.017,0 -0.24,0.011 -0.345,0.011c-0.039,0 -0.056,-0.007 -0.056,-0.028c0,-0.011 0.007,-0.021 0.027,-0.021c0.032,0 0.075,-0.007 0.106,-0.015c0.07,-0.013 0.102,-0.091 0.11,-0.193c0.01,-0.148 0.01,-0.296 0.01,-0.352l0,-0.303Z" style="fill:#fff;fill-rule:nonzero;stroke:#fff;stroke-width:0.2px;"/><path d="M41.368,40.422c0.017,0 0.017,-0.01 0.014,-0.025l-0.335,-0.951c-0.017,-0.053 -0.035,-0.053 -0.052,0l-0.311,0.951c-0.006,0.018 0,0.025 0.011,0.025l0.673,0Zm-0.367,-1.409c0.043,-0.116 0.057,-0.138 0.079,-0.138c0.02,0 0.034,0.019 0.076,0.128c0.054,0.133 0.606,1.588 0.821,2.124c0.127,0.313 0.23,0.369 0.303,0.39c0.053,0.018 0.106,0.022 0.141,0.022c0.021,0 0.035,0.003 0.035,0.021c0,0.021 -0.031,0.028 -0.07,0.028c-0.053,0 -0.31,0 -0.553,-0.007c-0.067,-0.004 -0.106,-0.004 -0.106,-0.024c0,-0.015 0.011,-0.022 0.025,-0.025c0.021,-0.008 0.042,-0.039 0.021,-0.095l-0.327,-0.867c-0.008,-0.014 -0.015,-0.021 -0.033,-0.021l-0.757,0c-0.017,0 -0.028,0.01 -0.035,0.028l-0.211,0.624c-0.032,0.088 -0.05,0.172 -0.05,0.236c0,0.07 0.075,0.102 0.134,0.102l0.036,0c0.024,0 0.035,0.007 0.035,0.021c0,0.021 -0.022,0.028 -0.053,0.028c-0.084,0 -0.236,-0.011 -0.275,-0.011c-0.038,0 -0.232,0.011 -0.398,0.011c-0.046,0 -0.067,-0.007 -0.067,-0.028c0,-0.014 0.014,-0.021 0.032,-0.021c0.025,0 0.074,-0.004 0.102,-0.007c0.162,-0.021 0.233,-0.155 0.296,-0.331l0.799,-2.188Z" style="fill:#fff;fill-rule:nonzero;stroke:#fff;stroke-width:0.2px;"/><path d="M42.794,41.542c-0.049,-0.024 -0.053,-0.039 -0.053,-0.134c0,-0.176 0.015,-0.317 0.019,-0.373c0.003,-0.039 0.01,-0.056 0.027,-0.056c0.022,0 0.025,0.01 0.025,0.038c0,0.032 0,0.081 0.011,0.131c0.053,0.26 0.285,0.359 0.521,0.359c0.338,0 0.504,-0.243 0.504,-0.468c0,-0.244 -0.102,-0.384 -0.406,-0.635l-0.157,-0.13c-0.374,-0.306 -0.459,-0.525 -0.459,-0.764c0,-0.377 0.282,-0.635 0.73,-0.635c0.137,0 0.239,0.015 0.327,0.036c0.067,0.014 0.095,0.018 0.123,0.018c0.028,0 0.036,0.007 0.036,0.024c0,0.018 -0.014,0.134 -0.014,0.374c0,0.056 -0.008,0.081 -0.025,0.081c-0.021,0 -0.025,-0.018 -0.028,-0.046c-0.004,-0.043 -0.025,-0.137 -0.046,-0.176c-0.022,-0.039 -0.117,-0.187 -0.441,-0.187c-0.242,0 -0.433,0.152 -0.433,0.409c0,0.201 0.092,0.327 0.43,0.591l0.099,0.078c0.415,0.327 0.514,0.546 0.514,0.828c0,0.144 -0.056,0.412 -0.299,0.584c-0.152,0.106 -0.342,0.148 -0.533,0.148c-0.165,0 -0.327,-0.025 -0.472,-0.095" style="fill:#fff;fill-rule:nonzero;"/><path d="M42.794,41.542c-0.049,-0.024 -0.053,-0.039 -0.053,-0.134c0,-0.176 0.015,-0.317 0.019,-0.373c0.003,-0.039 0.01,-0.056 0.027,-0.056c0.022,0 0.025,0.01 0.025,0.038c0,0.032 0,0.081 0.011,0.131c0.053,0.26 0.285,0.359 0.521,0.359c0.338,0 0.504,-0.243 0.504,-0.468c0,-0.244 -0.102,-0.384 -0.406,-0.635l-0.157,-0.13c-0.374,-0.306 -0.459,-0.525 -0.459,-0.764c0,-0.377 0.282,-0.635 0.73,-0.635c0.137,0 0.239,0.015 0.327,0.036c0.067,0.014 0.095,0.018 0.123,0.018c0.028,0 0.036,0.007 0.036,0.024c0,0.018 -0.014,0.134 -0.014,0.374c0,0.056 -0.008,0.081 -0.025,0.081c-0.021,0 -0.025,-0.018 -0.028,-0.046c-0.004,-0.043 -0.025,-0.137 -0.046,-0.176c-0.022,-0.039 -0.117,-0.187 -0.441,-0.187c-0.242,0 -0.433,0.152 -0.433,0.409c0,0.201 0.092,0.327 0.43,0.591l0.099,0.078c0.415,0.327 0.514,0.546 0.514,0.828c0,0.144 -0.056,0.412 -0.299,0.584c-0.152,0.106 -0.342,0.148 -0.533,0.148c-0.165,0 -0.327,-0.025 -0.472,-0.095Z" style="fill:none;fill-rule:nonzero;stroke:#fff;stroke-width:0.2px;"/><path d="M45.57,40.485c0.06,0 0.106,0.008 0.106,0.035c0,0.043 -0.067,0.05 -0.123,0.061c-0.096,0.014 -0.719,0.098 -0.839,0.13c-0.067,0.018 -0.127,0.053 -0.144,0.053c-0.022,0 -0.025,-0.022 -0.018,-0.053l0.053,-0.198c0.007,-0.024 0.021,-0.028 0.077,-0.028l0.888,0Z" style="fill:#fff;fill-rule:nonzero;stroke:#fff;stroke-width:0.2px;"/></svg>