<?xml version="1.0" standalone="no"?>
<!DOCTYPE svg PUBLIC "-//W3C//DTD SVG 20010904//EN"
 "http://www.w3.org/TR/2001/REC-SVG-20010904/DTD/svg10.dtd">
<svg version="1.0" xmlns="http://www.w3.org/2000/svg"
 width="1280.000000pt" height="1001.000000pt" viewBox="0 0 1280.000000 1001.000000"
 preserveAspectRatio="xMidYMid meet">
<metadata>
Created by potrace 1.15, written by Peter Selinger 2001-2017
</metadata>
<g transform="translate(0.000000,1001.000000) scale(0.100000,-0.100000)"
fill="#ffc107" stroke="none">
<path d="M9876 9835 c-17 -46 -1 -317 40 -674 13 -118 23 -216 20 -218 -8 -9
-34 153 -71 452 -33 268 -61 442 -71 432 -10 -10 66 -632 97 -792 25 -133 72
-435 103 -669 54 -395 27 -310 -118 382 -64 301 -123 572 -132 602 -8 30 -31
147 -50 259 -37 219 -53 273 -54 182 0 -98 43 -318 145 -736 31 -125 97 -476
91 -482 -7 -8 -91 260 -156 497 -33 124 -80 288 -104 365 -24 77 -58 186 -75
243 -18 56 -35 102 -40 102 -13 0 -3 -40 64 -270 99 -333 117 -400 113 -411
-2 -6 -48 126 -101 292 -129 399 -119 373 -145 377 -12 2 -22 -1 -22 -6 0 -14
97 -368 126 -457 14 -44 68 -210 121 -370 52 -159 96 -296 98 -302 3 -7 2 -13
0 -13 -16 0 -158 323 -218 495 -19 55 -62 165 -95 245 -33 80 -64 157 -67 173
-4 15 -11 27 -16 27 -4 0 -17 19 -27 43 -24 51 -48 84 -57 76 -3 -4 22 -69 56
-145 34 -77 95 -224 135 -329 41 -104 84 -215 96 -245 12 -30 55 -125 96 -210
104 -218 123 -260 114 -260 -18 0 -290 534 -431 845 -106 235 -143 308 -158
313 -18 5 -16 -16 5 -46 10 -15 29 -52 41 -82 13 -30 50 -113 83 -183 33 -71
58 -131 56 -133 -5 -4 -113 181 -194 330 -27 49 -55 91 -62 94 -25 8 1 -41
288 -553 89 -157 223 -415 219 -420 -2 -2 -78 94 -168 213 -316 416 -480 628
-500 646 -53 48 -5 -23 181 -271 111 -147 271 -359 355 -471 222 -295 403
-556 392 -567 -5 -5 -229 271 -450 555 -331 426 -553 690 -581 690 -16 0 8
-32 133 -180 130 -155 416 -509 464 -575 33 -47 -317 302 -522 520 -78 82
-144 147 -148 144 -13 -14 100 -142 392 -446 169 -175 317 -330 328 -343 l20
-23 -20 11 c-11 6 -119 104 -240 219 -203 191 -475 435 -526 470 -11 8 -22 13
-25 11 -6 -7 48 -61 212 -209 147 -132 508 -485 469 -458 -11 7 -54 41 -95 74
-95 78 -203 154 -410 292 -186 123 -259 167 -266 160 -7 -6 83 -70 281 -199
175 -114 362 -252 581 -429 167 -135 356 -301 349 -307 -2 -3 -127 87 -277
200 -150 113 -340 252 -423 308 -82 57 -237 166 -343 242 -197 142 -222 158
-222 140 0 -14 168 -139 480 -357 242 -169 600 -433 665 -490 l30 -27 -35 21
c-19 12 -93 58 -165 102 -282 174 -1037 593 -1057 587 -17 -6 24 -31 282 -173
118 -65 271 -150 340 -190 69 -40 175 -101 235 -135 126 -72 350 -211 380
-235 35 -29 -226 109 -569 302 -329 185 -655 353 -683 353 -34 0 10 -28 163
-101 90 -43 183 -91 206 -106 24 -14 131 -75 238 -134 107 -59 236 -130 285
-158 50 -28 129 -72 178 -99 300 -162 295 -168 -17 -20 -116 56 -265 125 -330
154 -203 92 -556 293 -685 391 -61 47 -66 30 -7 -23 90 -82 347 -237 566 -341
220 -104 469 -227 466 -230 -9 -10 -506 192 -651 265 -121 60 -250 139 -345
212 -43 33 -82 60 -86 60 -14 0 42 -52 115 -108 163 -122 364 -222 751 -372
276 -107 340 -133 340 -140 0 -11 -66 -30 -101 -30 -68 0 -275 67 -444 143
-99 44 -365 190 -460 252 -44 28 -111 78 -148 109 -71 61 -94 68 -59 18 94
-131 675 -446 972 -527 36 -10 69 -21 73 -25 5 -4 -12 -19 -37 -34 -54 -31
-147 -106 -231 -186 -33 -32 -79 -67 -102 -79 -48 -24 -377 -120 -504 -147
-80 -17 -107 -30 -91 -46 4 -4 133 26 287 67 153 41 281 72 284 70 7 -8 -53
-89 -104 -139 -42 -42 -76 -61 -214 -121 -150 -65 -199 -95 -157 -95 8 0 71
24 138 54 68 30 133 57 146 61 l23 7 -21 -42 c-12 -23 -20 -44 -17 -46 2 -2
22 19 43 47 31 40 61 64 139 107 186 103 879 432 910 432 3 0 -52 -75 -122
-167 -136 -180 -415 -596 -557 -833 -133 -221 -373 -722 -471 -986 -174 -467
-321 -838 -361 -914 -53 -100 -163 -265 -175 -262 -17 4 -29 -17 -29 -55 0
-38 -15 -51 -29 -26 -11 20 -13 16 -26 -42 -7 -32 -175 -205 -199 -205 -7 0
-70 121 -147 282 -240 505 -402 781 -927 1575 -78 118 -141 217 -139 220 3 2
30 -19 61 -48 31 -28 59 -49 62 -47 6 7 -43 57 -130 132 -66 57 -131 134 -121
144 2 3 36 -14 74 -37 73 -45 171 -86 171 -73 0 4 -35 25 -77 46 -77 38 -213
121 -213 130 0 3 25 -4 57 -15 31 -10 69 -19 84 -19 16 0 63 -12 106 -26 80
-27 231 -46 220 -27 -4 6 -33 13 -66 16 -72 8 -194 37 -186 45 3 3 54 9 113
13 95 6 172 22 161 34 -2 2 -47 -3 -98 -10 -81 -12 -109 -12 -202 0 -112 14
-174 28 -199 44 -11 8 -8 12 15 21 46 18 176 50 201 50 13 0 88 20 167 45 79
24 265 80 413 124 329 98 642 209 775 276 95 48 48 42 -86 -11 -199 -78 -510
-186 -671 -233 -78 -22 -192 -57 -254 -76 -62 -20 -115 -33 -118 -30 -3 2 4 8
14 11 74 27 455 189 513 218 38 20 137 66 218 102 198 89 351 166 337 171 -11
4 -276 -113 -586 -258 -170 -80 -454 -198 -642 -268 -140 -52 -316 -104 -316
-93 1 12 228 164 355 239 187 110 610 335 764 407 92 43 162 69 207 77 79 13
98 24 63 37 -51 19 -191 -32 -448 -163 -91 -46 -167 -83 -169 -81 -2 2 57 41
130 87 179 112 262 145 581 230 45 12 49 29 6 29 -53 0 -224 -39 -308 -70 -97
-36 -149 -61 -221 -110 -30 -20 -89 -56 -130 -80 -41 -24 -94 -54 -117 -67
-24 -14 -43 -23 -43 -20 0 11 251 188 341 240 137 80 274 144 349 163 100 25
105 33 20 34 l-75 0 43 26 c24 14 42 33 42 43 0 9 5 22 12 29 23 23 -11 13
-93 -29 -45 -22 -83 -38 -85 -36 -3 2 17 19 44 36 27 17 58 41 68 52 l19 22
-35 -18 c-56 -29 -240 -146 -300 -191 -125 -94 -647 -431 -654 -423 -4 5 153
148 309 280 146 125 292 237 447 343 120 83 172 126 152 126 -12 0 -319 -207
-429 -290 -100 -75 -266 -223 -487 -432 -80 -76 -149 -138 -153 -138 -11 0 88
112 220 249 195 202 452 439 568 524 59 44 105 82 103 85 -7 7 -84 -40 -152
-93 -113 -87 -119 -88 -39 -6 44 45 122 114 173 153 79 61 111 98 85 98 -24 0
-225 -157 -538 -419 -83 -69 -159 -133 -170 -141 -19 -14 -19 -14 -4 5 129
166 455 505 563 586 61 45 79 69 52 69 -20 0 -136 -94 -285 -231 -216 -200
-251 -231 -251 -223 0 15 258 269 350 344 104 84 136 117 127 126 -8 8 -86
-47 -195 -139 -52 -43 -96 -77 -98 -75 -6 7 92 127 162 198 66 67 74 80 51 80
-30 0 -130 -117 -433 -505 -208 -265 -253 -331 -359 -516 -85 -148 -95 -163
-95 -133 0 24 57 194 94 282 58 136 271 511 451 792 62 96 118 186 125 200 32
61 -24 -8 -108 -134 -105 -155 -203 -317 -336 -556 -109 -194 -121 -212 -111
-160 52 268 105 395 347 843 39 71 68 131 65 133 -12 13 -93 -120 -202 -334
-31 -62 -59 -111 -62 -109 -2 3 34 96 81 208 90 218 105 261 87 244 -23 -23
-172 -367 -204 -475 -19 -63 -55 -169 -81 -235 -26 -65 -95 -270 -153 -455
-58 -184 -110 -342 -115 -350 -12 -20 -1 177 18 305 46 316 179 757 329 1090
56 122 64 145 55 145 -4 0 -38 -57 -75 -127 -72 -141 -74 -135 -9 41 46 126
55 166 29 132 -56 -73 -292 -795 -341 -1039 -13 -66 -26 -123 -29 -125 -19
-20 7 451 46 806 28 267 36 419 20 377 -5 -11 -11 -47 -15 -80 -3 -33 -23
-211 -43 -395 -37 -331 -38 -340 -38 -740 0 -223 3 -425 8 -450 17 -100 -14
-8 -54 160 -48 205 -101 412 -124 490 -25 83 -14 394 25 715 16 138 33 266 36
286 6 36 -8 61 -21 39 -12 -19 -73 -570 -81 -719 -4 -80 -10 -156 -14 -170
l-7 -26 -11 27 c-13 31 -264 452 -366 613 -79 126 -117 178 -123 171 -3 -3 58
-107 134 -233 155 -253 258 -427 324 -548 l44 -80 6 -230 c5 -227 6 -231 37
-315 27 -75 28 -82 9 -57 -20 26 -194 327 -274 477 -47 87 -66 114 -133 186
-45 48 -63 79 -92 155 -45 117 -106 318 -143 466 -28 114 -44 151 -62 140 -6
-4 -1 -39 14 -94 51 -184 125 -421 157 -500 37 -92 34 -97 -34 -63 -22 11 -66
26 -98 34 -96 22 -118 41 -175 146 -41 76 -62 143 -78 258 -15 111 -34 121
-25 13 5 -55 4 -81 -3 -81 -6 0 -11 10 -11 23 0 23 -17 47 -32 47 -16 0 -7
-34 32 -121 37 -83 50 -139 33 -139 -5 0 -43 54 -85 120 -68 106 -98 140 -98
112 0 -5 25 -49 56 -98 156 -246 166 -265 144 -279 -17 -10 -67 50 -163 193
-49 73 -93 132 -98 132 -20 0 -8 -22 91 -170 42 -63 85 -130 94 -148 l17 -32
-28 -10 c-55 -20 -76 -36 -110 -80 -40 -52 -61 -59 -191 -59 -79 -1 -122 9
-122 29 0 9 27 19 147 50 46 12 83 26 83 31 0 9 -27 5 -145 -22 -171 -40 -186
-10 -17 36 112 30 161 53 87 40 -22 -4 -105 -23 -183 -42 -79 -19 -146 -32
-148 -30 -6 6 164 80 270 119 80 29 105 43 95 53 -7 6 -150 -33 -314 -85 -164
-52 -462 -130 -495 -129 -19 1 -11 7 35 29 33 16 70 29 82 30 67 1 437 163
581 254 53 33 57 61 8 53 -38 -6 -239 -91 -440 -186 -71 -34 -131 -59 -133
-57 -7 6 40 36 302 195 126 76 231 143 233 150 8 25 -252 -125 -688 -396 -187
-116 -277 -166 -291 -161 -30 10 552 429 830 598 57 35 99 66 92 68 -23 8
-157 -66 -371 -203 -229 -146 -287 -188 -476 -340 -136 -110 -264 -199 -273
-189 -3 3 12 21 34 39 188 154 472 385 575 467 321 256 410 332 399 342 -6 6
-465 -354 -695 -544 -109 -91 -235 -194 -279 -230 -44 -35 -89 -71 -100 -79
-54 -43 101 117 294 303 377 366 423 409 563 528 75 65 139 122 143 128 13 21
-2 20 -29 -1 -34 -27 -42 -20 -22 20 19 35 19 41 6 41 -5 0 -23 -20 -40 -44
-42 -62 -200 -216 -293 -286 -86 -66 -265 -176 -272 -168 -9 8 139 172 342
380 106 109 193 202 193 208 0 5 -5 10 -12 10 -18 0 -309 -301 -503 -518 -93
-105 -171 -189 -173 -187 -5 5 66 99 164 216 39 47 99 126 134 175 75 105 165
217 210 259 17 17 36 39 42 49 9 17 7 17 -20 -3 -45 -32 -144 -143 -215 -241
-33 -47 -102 -137 -152 -200 -50 -63 -146 -187 -213 -275 -116 -154 -201 -256
-186 -225 25 51 386 573 533 772 191 258 222 303 200 296 -8 -2 -83 -94 -166
-204 -151 -197 -240 -322 -459 -644 -62 -91 -123 -175 -137 -188 -31 -29 -45
-13 -23 25 9 16 31 64 49 108 57 139 287 513 396 645 90 109 209 268 227 302
28 55 -8 26 -56 -44 -65 -95 -204 -261 -208 -249 -5 14 80 185 120 243 18 25
51 67 72 92 61 73 28 75 -86 6 -37 -22 -69 -40 -72 -40 -3 0 10 26 29 58 19
31 35 60 35 65 0 22 -22 -1 -65 -68 -26 -42 -68 -93 -92 -115 -52 -49 -230
-167 -258 -172 -30 -5 -22 35 39 186 46 113 76 210 100 319 4 15 2 27 -3 27
-12 0 -27 -40 -50 -138 -11 -45 -32 -111 -46 -145 -41 -99 -63 -158 -80 -219
-13 -50 -23 -63 -68 -98 -142 -110 -168 -132 -181 -159 -26 -49 -37 -185 -46
-571 -7 -293 -13 -386 -25 -427 -9 -29 -20 -53 -24 -53 -14 0 -124 111 -283
285 -174 192 -254 269 -413 400 -66 55 -196 177 -290 273 -154 158 -404 370
-485 412 -24 13 -24 12 -10 -5 8 -10 82 -72 165 -139 82 -66 229 -200 325
-297 96 -96 220 -211 275 -254 55 -43 138 -115 184 -159 107 -103 395 -425
388 -433 -24 -23 -491 311 -682 488 -170 157 -267 225 -566 400 -47 28 -119
79 -160 115 -41 36 -87 75 -103 86 -28 21 -28 21 -17 1 6 -11 39 -46 73 -78
57 -52 59 -54 18 -27 -64 42 -130 74 -130 63 0 -4 73 -59 163 -122 89 -62 241
-172 337 -243 96 -72 294 -211 439 -308 146 -98 260 -178 254 -178 -11 0 -243
144 -458 285 -66 43 -196 128 -290 188 -93 60 -217 144 -275 186 -142 105
-261 184 -266 178 -6 -6 -2 -9 226 -173 91 -65 207 -146 258 -179 51 -33 214
-139 362 -236 148 -97 312 -203 365 -235 52 -32 95 -61 95 -65 0 -8 -235 103
-465 218 -186 94 -336 161 -500 223 -83 32 -200 80 -260 108 -128 58 -161 70
-150 52 11 -18 166 -89 361 -166 91 -36 239 -99 327 -141 283 -131 772 -376
761 -380 -20 -7 -153 47 -312 127 -87 42 -197 93 -247 112 -49 20 -128 50
-175 68 -47 18 -166 74 -265 125 -175 90 -305 145 -346 145 -11 0 -47 9 -80
20 -34 12 -64 19 -67 16 -13 -13 33 -46 63 -46 77 0 227 -49 354 -116 201
-107 268 -138 483 -225 197 -79 324 -137 317 -144 -7 -6 -463 151 -564 194
-253 109 -683 267 -694 255 -8 -8 8 -15 155 -68 82 -29 246 -92 364 -139 246
-97 557 -210 710 -257 142 -44 152 -48 144 -61 -18 -30 -227 26 -734 195 -411
137 -607 196 -644 196 -19 -1 -19 -2 -4 -11 10 -5 160 -57 335 -115 175 -59
325 -110 333 -115 26 -15 -19 -11 -174 16 -169 28 -232 43 -376 90 -58 18
-120 37 -138 40 -48 10 -40 -12 11 -26 78 -21 132 -40 157 -54 22 -12 11 -13
-92 -8 -85 4 -118 3 -118 -5 0 -7 12 -14 27 -17 105 -22 175 -43 329 -97 96
-35 174 -65 174 -68 0 -3 -15 -5 -32 -3 -79 7 -417 43 -453 48 -30 5 -37 3
-29 -5 15 -15 131 -31 499 -70 311 -33 432 -49 590 -80 55 -10 217 -31 360
-45 143 -15 267 -31 275 -36 20 -11 -37 -11 -251 1 -96 5 -336 17 -534 25
-198 8 -481 26 -628 40 -281 26 -390 31 -350 15 31 -12 530 -59 714 -66 85 -4
160 -10 168 -14 22 -12 -559 -23 -750 -15 -149 6 -169 5 -169 -9 0 -9 12 -17
33 -20 17 -3 257 -8 532 -11 586 -7 961 -17 970 -26 7 -7 -171 -15 -525 -24
-496 -12 -950 -44 -950 -68 0 -11 162 -3 345 19 161 19 960 41 1000 27 25 -8
2 -12 -125 -22 -250 -20 -1142 -100 -1183 -107 -47 -7 -44 -29 4 -28 19 0 95
6 169 13 74 7 169 11 210 9 l75 -3 -155 -38 c-167 -40 -279 -74 -294 -88 -18
-17 31 -9 165 26 368 95 626 137 809 133 l124 -3 -209 -39 c-523 -96 -870
-170 -881 -187 -9 -15 13 -11 348 57 346 71 641 125 647 118 2 -2 -2 -6 -10
-8 -8 -3 -59 -21 -114 -40 -155 -53 -715 -266 -758 -288 -70 -35 -29 -32 65 5
336 132 917 341 925 333 8 -7 -28 -23 -224 -100 -103 -41 -242 -99 -308 -129
-220 -101 -453 -216 -460 -226 -14 -24 33 -7 166 60 341 170 842 379 1068 444
240 69 204 41 -114 -90 -110 -46 -252 -106 -315 -135 -63 -29 -159 -72 -213
-96 -171 -77 -547 -262 -547 -269 0 -13 48 5 181 66 72 33 133 58 135 57 1 -2
-52 -35 -119 -72 -168 -95 -167 -95 -167 -112 0 -32 33 -24 127 29 186 104
740 367 1113 527 74 32 189 84 255 115 105 50 246 108 251 102 3 -4 -202 -175
-316 -263 -65 -49 -191 -142 -281 -205 -303 -213 -793 -591 -858 -663 -59 -63
15 -15 192 128 238 190 478 372 662 501 111 77 296 214 403 298 6 5 12 7 12 5
0 -7 -306 -278 -415 -368 -49 -41 -130 -113 -180 -159 -49 -46 -137 -120 -194
-164 -124 -96 -382 -326 -389 -346 -7 -21 33 10 173 131 66 57 163 138 215
179 52 42 133 111 180 154 47 43 146 130 220 194 197 168 316 278 481 438 81
79 150 143 154 143 14 0 -7 -55 -84 -219 -113 -241 -288 -672 -406 -1000 -57
-157 -117 -321 -134 -364 -33 -82 -42 -134 -15 -84 22 41 83 197 154 397 168
473 435 1120 461 1120 9 0 20 -406 27 -1057 5 -434 10 -595 19 -604 9 -9 10
66 6 322 -3 184 -2 366 3 404 8 69 9 68 15 -75 4 -80 7 -255 8 -390 2 -135 6
-254 11 -265 6 -12 7 293 3 743 -4 528 -3 762 4 762 7 0 13 -43 17 -107 4 -60
15 -268 26 -463 26 -448 59 -932 65 -938 16 -17 16 69 -4 352 -21 309 -40 658
-40 741 0 78 17 11 34 -135 9 -80 27 -208 40 -285 13 -77 31 -192 40 -255 22
-157 58 -348 62 -330 2 9 -19 162 -47 340 -27 179 -57 386 -65 460 -9 74 -27
192 -40 263 -14 70 -25 134 -25 142 0 31 19 13 53 -52 64 -123 105 -255 212
-679 96 -378 125 -477 125 -418 0 22 -34 163 -123 514 -35 140 -67 271 -70
290 -6 33 -6 34 9 15 8 -11 45 -69 81 -130 154 -255 206 -327 605 -831 291
-369 452 -560 638 -759 130 -138 220 -247 242 -290 9 -17 26 -39 37 -49 15
-14 18 -22 10 -27 -17 -10 -4 -26 28 -34 40 -10 58 -26 41 -37 -10 -7 -7 -13
12 -26 13 -9 49 -44 80 -77 157 -170 317 -320 430 -404 203 -152 311 -221 344
-221 23 0 46 29 46 56 0 45 -490 528 -705 695 -55 42 -113 91 -129 108 -33 34
-46 39 -46 16 0 -23 -16 -18 -28 10 -6 13 -29 33 -51 44 -96 49 -510 487 -767
811 -394 498 -539 687 -631 825 -125 188 -234 366 -257 417 -27 62 -220 728
-212 735 2 3 17 -2 33 -11 15 -9 84 -42 153 -74 69 -32 145 -71 170 -87 25
-16 108 -65 185 -110 77 -45 201 -120 275 -166 74 -47 160 -98 190 -113 30
-15 91 -53 135 -86 44 -32 121 -83 171 -114 133 -81 135 -86 30 -86 -99 0
-109 -8 -82 -65 25 -51 47 -59 159 -57 53 1 97 -2 97 -7 0 -11 -61 -21 -132
-21 -59 0 -86 -14 -43 -22 14 -3 69 -1 123 5 53 6 131 10 172 10 102 0 270 -6
267 -9 -7 -7 -282 -56 -411 -73 -145 -19 -166 -24 -153 -38 17 -16 428 52 639
107 152 39 227 67 439 161 96 43 189 80 205 83 39 8 -151 -86 -365 -180 -326
-143 -396 -172 -458 -187 -70 -18 -346 -141 -351 -157 -6 -18 20 -11 132 39
61 27 165 67 231 89 66 22 205 77 309 121 105 44 192 79 193 77 2 -2 -33 -25
-79 -51 -46 -27 -139 -85 -208 -131 -69 -45 -136 -85 -150 -89 -14 -5 -77 -32
-140 -61 -64 -29 -133 -55 -155 -59 -63 -10 -73 -16 -50 -25 11 -5 36 -9 55
-9 l35 -1 -32 -20 c-48 -29 -40 -44 9 -19 57 29 418 189 426 189 4 0 -13 -12
-38 -26 -166 -97 -233 -138 -295 -184 -72 -53 -87 -70 -62 -70 32 0 425 241
639 392 53 37 100 68 104 68 15 0 -62 -73 -126 -118 -36 -26 -102 -75 -147
-109 -103 -78 -288 -188 -372 -223 -75 -31 -94 -51 -69 -76 15 -15 20 -14 75
19 32 19 91 51 131 71 115 58 198 112 332 216 119 92 268 199 300 214 40 20
-235 -214 -378 -321 -53 -40 -146 -101 -207 -137 -174 -103 -185 -110 -185
-118 0 -14 20 -8 58 17 44 30 72 35 51 8 -13 -15 -12 -15 10 -4 13 7 26 22 28
32 3 10 13 19 22 19 35 0 235 127 445 282 91 68 137 94 90 51 -139 -126 -573
-478 -611 -496 -29 -13 -30 -27 0 -27 25 0 96 46 178 117 31 26 130 110 220
187 90 76 236 207 324 290 88 83 153 142 145 131 -83 -111 -428 -500 -632
-711 -48 -50 -88 -97 -88 -103 0 -19 32 3 75 51 21 24 131 144 246 268 202
220 331 369 574 663 66 80 121 141 123 137 6 -15 -46 -105 -109 -190 -35 -47
-130 -183 -211 -304 -82 -120 -180 -260 -219 -311 -80 -107 -298 -342 -340
-367 -33 -20 -42 -56 -11 -39 33 17 206 187 283 276 41 47 160 212 264 365
236 347 358 520 363 516 5 -5 -59 -130 -114 -223 -25 -43 -118 -220 -205 -393
-88 -173 -182 -351 -209 -395 -68 -108 -157 -283 -136 -266 20 17 180 282 266
441 34 63 100 196 147 295 84 179 123 247 84 148 -69 -177 -330 -697 -417
-830 -45 -71 -50 -83 -34 -83 13 0 83 105 136 204 24 44 44 77 44 72 0 -4 -27
-69 -59 -145 -67 -155 -76 -181 -63 -181 5 0 33 53 62 118 29 64 109 236 178
382 148 316 255 565 317 738 88 246 97 248 36 10 -71 -280 -176 -581 -292
-835 -38 -86 -72 -170 -75 -187 l-5 -31 17 35 c143 292 195 417 293 710 62
183 75 190 41 24 -26 -126 -67 -270 -130 -459 -49 -146 -59 -192 -41 -181 16
10 169 496 190 601 10 55 32 182 47 283 28 182 47 247 32 108 -6 -61 -67 -495
-94 -666 -5 -35 -4 -42 6 -34 17 16 25 61 70 362 22 147 43 272 45 277 3 6 3
-24 0 -65 -2 -41 -7 -156 -10 -255 -7 -255 11 -184 33 130 l18 250 18 -55 c22
-65 87 -212 92 -207 2 2 -21 82 -51 178 -31 96 -54 180 -53 188 2 8 33 -26 70
-75 87 -116 135 -170 142 -163 4 3 -29 49 -71 103 -82 101 -141 196 -124 196
40 0 612 -865 921 -1390 169 -288 427 -833 438 -925 5 -51 -30 -145 -144 -386
-118 -249 -129 -302 -59 -285 37 9 127 97 183 176 93 132 124 172 132 163 13
-13 68 -257 94 -418 33 -199 46 -331 46 -480 0 -141 -6 -185 -27 -185 -12 0
-13 -11 -8 -55 7 -52 6 -55 -14 -55 -20 0 -21 -1 -7 -35 12 -29 13 -36 2 -42
-14 -8 -20 -58 -32 -278 -10 -165 32 -607 62 -652 65 -100 99 100 115 667 5
190 10 352 10 360 0 8 -5 38 -10 65 -17 84 -29 165 -41 275 -18 162 -65 423
-119 664 l-49 219 62 126 c35 69 83 175 107 235 24 60 60 134 81 165 25 38 34
57 26 62 -8 5 -3 20 17 49 15 22 32 43 36 46 4 2 5 19 3 37 -4 25 24 103 126
357 73 179 178 449 235 600 57 151 111 293 120 315 59 138 286 613 339 708 63
113 277 449 446 702 90 134 279 379 287 372 2 -3 -25 -85 -60 -183 -36 -99
-95 -264 -132 -369 -37 -104 -89 -246 -115 -315 -58 -151 -116 -330 -125 -385
-3 -22 -16 -70 -27 -108 l-20 -67 -34 30 c-40 35 -54 38 -54 11 0 -25 35 -66
104 -121 32 -25 51 -47 45 -51 -6 -4 44 -51 113 -106 146 -118 222 -183 213
-183 -9 0 -434 336 -477 378 -21 20 -41 32 -45 28 -20 -21 496 -438 864 -699
95 -67 173 -125 173 -129 0 -4 -55 29 -122 72 -212 135 -624 367 -635 357 -7
-7 38 -36 212 -137 307 -178 652 -396 642 -407 -3 -3 -25 8 -49 25 -24 16 -79
45 -123 64 -44 19 -174 87 -290 151 -115 65 -216 117 -223 117 -24 0 -2 -19
66 -56 160 -88 322 -188 319 -198 -6 -18 -86 -18 -135 -1 -168 60 -225 62 -82
4 44 -18 79 -38 77 -43 -2 -5 -33 -17 -70 -26 -70 -17 -85 -25 -73 -37 4 -4
55 5 114 20 l107 27 75 -28 c49 -19 74 -33 73 -43 -1 -8 -8 -35 -14 -62 -10
-37 -10 -50 0 -60 9 -9 14 -9 21 2 7 12 19 11 74 -7 71 -23 194 -47 301 -58
36 -4 68 -10 70 -14 3 -4 -36 -15 -85 -25 -50 -10 -90 -21 -90 -25 0 -9 38 -5
175 15 49 8 91 13 93 11 5 -6 -87 -477 -112 -571 -39 -143 -82 -252 -170 -432
-213 -432 -534 -938 -926 -1457 -124 -164 -245 -328 -270 -365 -77 -112 -363
-490 -451 -596 -46 -55 -130 -147 -186 -204 -90 -91 -105 -103 -127 -97 -21 5
-26 3 -26 -11 0 -10 -10 -38 -21 -63 -19 -42 -21 -44 -34 -26 -13 17 -15 15
-35 -27 -19 -41 -30 -49 -115 -91 -120 -60 -175 -118 -341 -366 -69 -102 -139
-204 -156 -227 -37 -50 -32 -73 15 -73 26 0 64 22 177 100 78 55 146 100 150
100 11 0 207 230 257 302 24 34 43 67 43 74 0 8 9 18 19 24 11 5 26 22 33 38
8 16 23 28 38 30 35 5 46 18 30 37 -11 13 -7 22 24 58 21 23 74 93 118 156 44
63 146 200 227 305 229 297 388 511 481 646 47 68 158 223 247 343 339 455
679 1000 893 1427 90 179 156 415 236 838 10 50 20 92 23 92 3 0 55 -75 114
-167 59 -91 110 -163 114 -160 4 5 -63 123 -135 235 -8 12 -12 22 -9 22 3 0
80 -81 172 -181 92 -99 169 -178 172 -175 7 7 -53 80 -182 221 -55 61 -107
119 -115 129 -14 18 -13 19 1 10 9 -5 106 -84 216 -176 109 -92 209 -175 223
-185 l25 -16 -22 24 c-42 47 -23 40 55 -19 116 -88 173 -125 180 -117 4 4 0
12 -9 18 -238 178 -579 440 -590 453 -18 24 1 10 311 -216 405 -297 611 -432
628 -415 8 8 11 6 -203 148 -194 128 -525 368 -525 380 0 5 26 -6 58 -24 31
-18 167 -94 302 -169 135 -75 286 -162 335 -192 115 -71 155 -91 155 -78 0 24
-163 124 -590 360 -321 177 -443 250 -436 258 13 13 593 -289 971 -506 231
-132 280 -158 270 -143 -24 40 -367 241 -782 458 -310 163 -414 222 -333 189
19 -8 67 -28 105 -45 39 -17 160 -65 270 -106 110 -42 347 -137 527 -211 180
-75 335 -134 345 -132 12 3 -8 17 -57 40 -101 49 -584 249 -800 332 -179 68
-306 124 -298 131 15 16 388 -102 653 -206 266 -104 486 -189 509 -196 33 -10
8 15 -36 38 -41 21 -330 132 -613 236 -82 30 -157 59 -165 65 -12 8 -11 8 3 4
11 -3 143 -45 295 -92 153 -47 328 -104 390 -126 121 -42 172 -46 82 -6 -57
26 -175 66 -483 163 -184 58 -229 79 -97 45 152 -39 287 -63 365 -63 153 0
324 15 336 29 18 22 -29 27 -142 12 -176 -22 -321 -11 -514 38 -55 14 -255 59
-444 100 -189 40 -346 76 -349 79 -8 7 39 6 150 -5 53 -5 233 -19 400 -30 396
-27 676 -55 766 -77 12 -3 22 -1 22 5 0 23 -288 66 -595 87 -121 9 -227 18
-235 20 -30 9 323 -6 623 -26 292 -20 364 -19 327 0 -8 5 -40 11 -70 15 -104
12 -725 46 -839 46 -65 0 -111 4 -105 9 5 4 124 16 264 25 302 20 633 53 675
66 41 14 -139 5 -415 -20 -435 -39 -873 -65 -850 -51 37 23 914 146 1187 167
99 7 138 23 115 46 -18 18 -127 13 -397 -18 -266 -30 -494 -63 -715 -103 -90
-17 -166 -28 -168 -27 -5 6 187 78 313 119 214 68 401 101 749 132 93 8 171
17 174 20 25 25 -88 23 -352 -5 -99 -11 -182 -18 -184 -16 -5 5 89 21 313 51
228 31 228 31 220 45 -11 18 -116 11 -306 -20 -101 -16 -195 -33 -209 -36 -16
-3 -22 -2 -15 4 6 6 61 24 123 42 62 17 164 49 227 71 62 21 121 39 131 39 13
0 15 3 7 11 -16 16 -78 1 -403 -102 -156 -49 -291 -88 -299 -87 -14 3 199 89
439 177 74 27 156 59 183 71 74 33 55 56 -23 26 -19 -8 -109 -41 -200 -73 -91
-33 -257 -97 -370 -143 -262 -105 -542 -211 -547 -206 -6 6 233 158 402 256
200 115 311 171 495 249 80 33 161 71 180 83 65 40 11 30 -98 -17 -59 -26
-150 -65 -202 -88 -145 -63 -480 -251 -670 -376 -119 -78 -114 -75 -106 -62
10 15 291 225 406 303 99 66 350 197 554 289 102 45 116 54 98 62 -12 5 -22
15 -24 23 -3 12 -84 -19 -273 -104 -81 -37 -291 -178 -547 -369 -117 -88 -220
-163 -228 -167 -27 -15 358 369 618 616 138 133 252 245 252 249 0 5 -4 9 -8
9 -17 0 -221 -190 -591 -554 -211 -207 -386 -374 -388 -372 -5 5 305 391 406
506 36 41 105 118 152 170 48 52 134 150 192 217 58 68 113 130 122 139 11 11
13 20 6 27 -14 14 -28 1 -130 -118 -47 -55 -135 -154 -196 -220 -106 -116
-205 -234 -520 -620 -81 -99 -156 -189 -168 -200 -32 -31 36 87 105 183 68 95
406 510 664 817 60 72 124 151 142 177 53 78 17 64 -50 -19 -35 -42 -142 -172
-238 -288 -96 -116 -238 -288 -314 -383 -77 -94 -141 -170 -143 -168 -9 9 458
809 569 973 26 40 48 75 48 79 0 19 -50 -44 -132 -166 -50 -74 -95 -139 -101
-145 -5 -5 30 66 78 158 48 92 85 170 82 173 -7 7 -80 -85 -166 -211 -81 -119
-194 -322 -361 -653 -67 -134 -124 -241 -127 -238 -7 6 93 253 183 451 73 162
292 583 346 664 16 24 28 45 26 46 -2 1 -28 15 -58 30 -62 31 -244 142 -307
188 -84 60 -34 36 108 -51 162 -100 249 -147 249 -133 0 23 -133 127 -310 244
-604 397 -799 529 -835 562 l-40 37 40 -23 c139 -77 192 -108 290 -168 61 -37
135 -82 165 -101 30 -18 172 -94 315 -168 143 -74 296 -157 340 -183 44 -26
82 -45 84 -43 9 9 -36 44 -169 133 -74 50 -131 91 -126 91 4 0 59 -27 122 -60
63 -33 123 -60 134 -60 10 0 22 -4 25 -10 3 -5 16 -10 28 -10 20 1 18 4 -14
33 -20 18 -77 54 -125 81 -49 27 -116 68 -149 90 -33 23 -136 81 -230 129 -93
49 -163 86 -155 84 8 -3 87 -33 175 -67 277 -107 541 -200 573 -200 24 0 11
17 -25 33 -21 9 -122 48 -225 87 -236 87 -345 133 -332 137 6 2 85 -19 175
-46 328 -99 485 -134 437 -97 -10 7 -140 48 -290 91 -263 75 -465 140 -403
130 17 -3 174 -45 350 -94 176 -49 324 -86 329 -83 5 3 1 11 -8 18 -16 11 -16
13 4 19 12 4 18 11 14 15 -5 5 -92 27 -194 50 -419 95 -1054 259 -1069 277
-16 17 190 -19 819 -142 430 -84 470 -90 470 -76 0 5 -8 12 -17 15 -23 6 -788
158 -994 197 -86 16 -167 33 -180 38 -23 9 -22 10 8 10 17 1 105 -8 195 -20
234 -29 504 -83 783 -155 178 -46 214 -53 220 -44 3 4 -2 13 -10 20 -8 7 -15
18 -15 26 0 16 -26 31 -77 43 l-38 9 52 1 c55 1 78 15 40 25 -12 3 -49 6 -82
6 -95 0 -213 17 -450 65 -229 47 -367 68 -520 81 -88 8 -89 8 -40 15 28 4 293
11 590 15 297 4 529 11 515 15 -63 18 -1045 6 -1365 -17 -49 -3 -87 -4 -84 0
8 8 253 43 430 61 85 8 278 22 429 30 424 23 633 55 597 92 -3 3 -61 -4 -129
-15 -138 -23 -290 -38 -483 -47 -304 -14 -658 -53 -880 -96 -55 -10 -112 -19
-126 -19 l-26 0 -9 203 c-4 111 -6 216 -4 232 8 73 4 549 -7 740 -7 116 -16
289 -20 385 -5 129 -9 166 -15 140 -12 -47 0 -488 18 -675 18 -194 28 -495 16
-475 -5 8 -12 53 -16 100 -3 47 -15 189 -25 315 -11 127 -25 322 -32 435 -6
113 -15 221 -20 240 -11 45 -2 -403 11 -520 20 -177 60 -842 60 -984 0 -27 -3
-47 -6 -44 -7 8 -68 533 -84 723 -6 77 -25 259 -41 405 -17 146 -33 337 -36
425 -6 158 -13 205 -27 170z m-5732 -777 c-4 -7 -22 -31 -39 -53 -44 -56 -92
-139 -165 -285 -34 -69 -88 -165 -120 -215 -64 -100 -115 -189 -215 -378 -37
-71 -69 -126 -71 -124 -10 9 63 184 157 379 97 202 128 261 221 423 25 44 54
98 64 120 14 28 41 55 93 93 77 55 87 60 75 40z m5690 -502 c59 -158 105 -290
102 -293 -15 -16 -277 699 -275 752 0 11 15 -23 33 -75 18 -52 81 -225 140
-384z m-5894 356 c0 -4 -34 -66 -76 -137 -86 -147 -284 -555 -334 -688 -36
-96 -50 -110 -26 -26 9 30 27 117 42 194 14 77 41 202 60 277 19 75 34 150 34
166 0 35 20 54 130 120 47 28 101 62 120 76 37 26 50 31 50 18z m-364 -408
c-19 -76 -42 -179 -50 -229 -42 -239 -139 -565 -168 -565 -12 0 -1 615 12 738
10 90 30 119 148 208 l87 66 3 -40 c2 -21 -13 -102 -32 -178z m-1548 -125
c147 -90 342 -240 422 -325 l45 -47 -40 23 c-97 57 -565 398 -565 412 0 11 64
-19 138 -63z m7872 -119 c12 -23 12 -24 -3 -11 -10 7 -17 20 -17 29 0 18 3 16
20 -18z m-6030 -271 c-162 -159 -304 -295 -314 -301 -11 -6 20 34 70 88 49 55
135 153 191 219 55 66 120 139 144 162 42 40 173 123 194 122 6 0 -123 -130
-285 -290z m1576 83 c4 -21 3 -32 -5 -32 -14 0 -27 33 -36 86 l-6 39 20 -31
c12 -17 24 -45 27 -62z m4464 -58 c18 -10 20 -13 8 -14 -20 0 -119 37 -133 51
-12 12 92 -19 125 -37z m-162 20 c33 -13 35 -16 19 -26 -31 -17 -135 11 -122
33 9 14 61 11 103 -7z m-4241 -46 c11 -13 48 -64 81 -114 152 -229 487 -607
732 -827 46 -42 82 -79 79 -81 -10 -10 -313 250 -410 351 -197 205 -529 632
-529 679 0 21 24 17 47 -8z m243 -56 c41 -26 51 -41 135 -207 111 -220 194
-355 296 -477 43 -51 79 -97 79 -103 0 -15 -140 126 -282 285 -157 176 -438
541 -438 571 0 13 163 -41 210 -69z m3915 53 c39 -8 96 -15 128 -15 31 0 57
-4 57 -9 0 -14 -119 -56 -310 -110 -96 -27 -213 -63 -260 -80 l-85 -30 82 78
c45 43 116 102 158 130 87 58 111 61 230 36z m-4255 -14 c17 -33 11 -48 -10
-22 -11 13 -20 27 -20 32 0 16 19 9 30 -10z m-730 4 c0 -6 -74 -38 -305 -130
-313 -125 -542 -205 -530 -185 11 18 188 123 253 150 37 16 162 54 277 84 116
31 230 62 255 70 25 8 46 15 48 15 1 1 2 -1 2 -4z m676 -22 c30 -31 102 -148
165 -270 82 -157 139 -242 225 -328 117 -119 262 -221 521 -370 57 -32 101
-61 98 -63 -16 -17 -244 91 -441 208 -72 43 -164 95 -205 115 -41 21 -85 45
-99 55 -14 10 -88 52 -165 95 -150 83 -202 117 -307 202 -94 76 -98 103 -15
103 21 0 37 5 37 11 0 8 -16 10 -50 6 -27 -3 -50 -4 -50 -1 0 13 153 205 173
216 23 13 77 36 89 37 4 1 14 -7 24 -16z m5109 -14 c31 -6 21 -7 -40 -4 -45 2
-92 9 -105 15 -19 8 -10 9 40 4 36 -3 83 -10 105 -15z m-5685 -39 c0 -5 -17
-13 -37 -18 -21 -5 -105 -26 -188 -47 -82 -20 -163 -39 -180 -41 -50 -7 90 45
220 81 122 34 185 43 185 25z m790 -117 c52 -70 132 -173 176 -229 86 -107 98
-124 91 -124 -9 0 -259 277 -293 326 -33 45 -84 136 -84 149 0 19 26 -10 110
-122z m4080 51 c-90 -52 -614 -314 -618 -309 -11 11 111 156 146 174 51 26
222 83 372 125 151 42 157 43 100 10z m-3659 -172 c114 -190 228 -412 201
-388 -32 28 -162 225 -227 346 -153 280 -133 310 26 42z m1297 151 c-190 -201
-406 -437 -525 -575 -188 -219 -206 -230 -82 -47 122 178 348 425 534 582 96
82 132 101 73 40z m2732 10 c-10 -30 -96 -420 -179 -812 -28 -128 -52 -236
-55 -239 -3 -3 -22 12 -41 34 -43 49 -45 29 -4 -43 29 -50 33 -83 10 -83 -5 0
-26 23 -47 50 -35 46 -54 61 -54 43 0 -5 21 -39 46 -78 43 -66 45 -73 42 -127
-3 -32 -8 -61 -12 -65 -9 -9 -100 87 -121 128 -13 24 -9 40 40 185 77 231 356
1002 371 1025 11 18 13 8 4 -18z m-5262 5 c22 -22 13 -46 -20 -57 -48 -15
-383 -95 -523 -124 -133 -28 -323 -53 -332 -43 -15 15 21 22 180 35 4 1 7 5 7
9 0 4 -17 6 -37 5 -27 -3 -33 -1 -23 5 12 8 561 156 645 175 40 9 91 7 103 -5z
m5841 -388 c120 -107 215 -208 259 -276 30 -44 32 -54 31 -128 0 -45 -4 -103
-7 -131 l-7 -50 -41 60 c-59 86 -71 113 -84 185 -16 93 -23 103 -30 40 l-5
-55 -105 149 c-58 82 -178 253 -268 380 l-164 231 159 -156 c87 -86 205 -198
262 -249z m-8954 369 c39 -6 115 -22 170 -35 96 -24 424 -122 475 -143 l25
-10 -25 0 c-32 -1 -302 43 -395 64 -113 26 -204 55 -295 93 -133 55 -131 56
45 31z m8514 -130 c32 -79 94 -220 137 -314 72 -157 78 -175 76 -229 -4 -99
95 -547 214 -968 42 -149 55 -214 33 -158 -6 14 -55 178 -109 365 -55 187
-127 429 -160 538 -33 109 -60 204 -60 212 0 8 -4 15 -9 15 -31 0 -23 -38 74
-340 72 -224 155 -504 155 -522 0 -81 -218 511 -274 742 -79 327 -167 835
-141 808 3 -2 31 -69 64 -149z m-5079 95 c-18 -25 -38 -48 -46 -51 -13 -5 -93
45 -94 58 0 10 100 37 138 38 l33 1 -31 -46z m-2969 -20 c70 -13 153 -33 185
-45 33 -11 160 -47 283 -80 230 -61 279 -78 229 -79 -48 0 -245 30 -325 50
-71 19 -534 159 -593 181 -41 15 81 0 221 -27z m8112 -21 c117 -153 482 -683
494 -717 20 -57 30 -240 13 -234 -22 7 -118 178 -130 230 -5 27 -10 78 -10
113 0 102 -26 81 -32 -25 l-3 -45 -105 185 c-57 102 -141 257 -186 345 -111
218 -121 252 -41 148z m-5268 2 l40 -34 -33 -1 c-39 0 -92 23 -118 51 -17 18
-16 19 27 19 36 0 52 -7 84 -35z m-123 -2 c26 -24 23 -30 -22 -38 -30 -5 -47
-2 -67 10 -25 17 -26 18 -8 31 26 19 75 18 97 -3z m1466 -103 c11 -41 28 -115
37 -165 9 -49 32 -155 51 -234 19 -79 34 -152 34 -163 0 -59 -72 67 -120 210
-38 115 -55 243 -45 356 4 48 10 84 14 80 4 -5 17 -43 29 -84z m3811 -112 c67
-351 123 -584 186 -773 79 -236 177 -474 205 -497 15 -12 40 -74 77 -190 30
-95 84 -251 119 -346 35 -96 64 -177 63 -180 0 -13 -92 173 -127 258 -19 47
-90 231 -157 410 -125 329 -327 835 -339 847 -3 3 -6 -3 -6 -15 0 -28 46 -156
125 -347 75 -181 152 -378 262 -670 42 -110 95 -244 119 -299 87 -196 42 -120
-135 229 -228 449 -294 616 -356 898 -20 89 -45 190 -55 224 -16 52 -20 110
-26 343 -5 178 -4 280 2 280 6 0 25 -78 43 -172z m-5099 148 c0 -26 -25 -37
-48 -20 -32 22 -27 34 13 34 23 0 35 -5 35 -14z m829 -274 c104 -102 267 -247
347 -310 52 -41 -169 80 -231 126 -144 108 -335 329 -379 437 -15 36 -9 32 65
-50 45 -49 134 -141 198 -203z m-904 243 c38 -28 41 -48 9 -53 -21 -3 -134 66
-134 81 0 19 90 -1 125 -28z m-163 -34 c286 -180 897 -500 1148 -601 139 -55
135 -62 -18 -25 -179 43 -465 168 -722 316 -257 147 -518 275 -544 266 -6 -2
77 -47 184 -99 107 -52 238 -121 290 -152 52 -32 181 -100 285 -153 198 -99
204 -113 21 -51 -121 41 -227 91 -248 117 -11 13 -29 21 -48 21 -46 0 -90 22
-208 103 -114 78 -310 192 -318 184 -5 -4 28 -27 247 -170 63 -41 121 -82 128
-91 11 -13 8 -14 -26 -9 -21 3 -108 20 -193 38 -294 63 -486 83 -939 95 -214
6 -368 14 -389 21 -47 15 -28 25 68 33 128 11 248 35 451 92 261 72 350 91
499 104 69 5 141 12 160 14 19 1 45 4 57 4 12 1 64 -24 115 -57z m63 9 c92
-57 120 -78 114 -84 -6 -6 -183 99 -198 118 -23 28 3 17 84 -34z m5176 -96
c-6 -77 -11 -233 -12 -349 0 -115 -4 -230 -8 -255 l-7 -45 -14 28 c-12 24 -30
37 -30 21 0 -3 14 -48 32 -100 22 -65 29 -97 21 -105 -12 -12 -109 195 -118
256 -5 28 5 96 30 220 43 216 105 478 112 472 2 -3 -1 -67 -6 -143z m-4912 91
c61 -57 237 -174 374 -249 59 -32 107 -63 107 -68 0 -20 -468 247 -538 307
-16 14 -23 28 -19 38 10 26 24 21 76 -28z m5908 -108 c48 -29 128 -75 176
-101 48 -27 86 -51 83 -53 -6 -6 -244 122 -361 192 -39 24 -88 51 -108 61 -20
10 -37 21 -37 26 0 11 136 -58 247 -125z m-5912 31 c117 -73 193 -120 224
-138 146 -85 464 -249 533 -275 26 -10 53 -24 59 -32 7 -7 -39 5 -102 28 -63
22 -138 49 -167 60 -187 65 -586 294 -652 374 -12 15 -6 35 11 35 5 0 47 -24
94 -52z m-1245 12 c-110 -34 -239 -64 -246 -58 -7 8 131 68 178 77 23 5 70 9
103 9 l60 1 -95 -29z m6536 -235 c75 -132 145 -263 155 -291 18 -51 39 -162
38 -199 -1 -31 -26 29 -40 98 -7 36 -16 56 -23 54 -7 -3 -66 115 -148 295 -75
165 -132 296 -128 292 5 -5 70 -117 146 -249z m600 -52 c128 -85 244 -165 258
-178 27 -25 35 -55 14 -55 -20 0 -490 351 -519 386 -19 25 -21 25 247 -153z
m-7991 128 c-27 -25 -329 -76 -505 -85 -154 -8 -89 7 183 44 127 17 246 35
266 39 50 12 67 13 56 2z m1359 -45 c125 -14 274 -37 330 -51 55 -13 157 -34
226 -45 148 -24 219 -46 328 -98 l80 -39 -146 -5 c-144 -5 -365 -41 -527 -84
-33 -9 -76 -17 -95 -17 -40 0 -927 297 -1023 343 l-62 30 330 -4 c267 -4 374
-10 559 -30z m5706 -441 c6 -82 13 -168 16 -190 4 -39 3 -39 -29 25 l-32 65 2
190 c1 105 5 228 10 275 l7 85 8 -150 c4 -82 12 -217 18 -300z m-6038 244 c95
-33 225 -78 288 -98 63 -21 249 -88 413 -150 164 -62 306 -110 315 -108 21 5
-35 30 -234 107 -234 89 -236 92 -83 115 52 8 135 24 184 35 51 11 168 25 270
31 l180 11 335 -85 c184 -47 380 -98 434 -113 119 -34 136 -28 -214 -83 -657
-105 -1004 -146 -1033 -123 -7 6 -87 43 -178 83 -241 104 -538 245 -626 297
-43 25 -115 65 -160 89 -79 42 -94 53 -74 53 5 0 88 -27 183 -61z m6915 20
c63 -54 73 -67 73 -101 0 -38 -13 -35 -47 10 -54 68 -94 132 -84 132 5 0 31
-18 58 -41z m-8372 -41 c-113 -58 -728 -339 -733 -334 -12 12 272 165 451 243
115 49 309 122 327 122 8 0 -12 -14 -45 -31z m7885 -98 c51 -115 69 -188 116
-485 20 -126 44 -272 55 -324 21 -105 19 -131 -5 -49 -60 209 -226 912 -226
960 0 23 17 -6 60 -102z m-4504 16 c87 -29 146 -51 258 -95 16 -6 26 -14 23
-17 -5 -5 -357 119 -387 137 -30 17 8 8 106 -25z m5225 3 c47 -30 78 -59 64
-59 -12 0 -102 59 -115 76 -19 22 -1 17 51 -17z m-111 -21 c0 -24 -5 -50 -10
-58 -7 -11 -10 2 -10 43 0 31 4 57 10 57 6 0 10 -19 10 -42z m-92 -8 c26 -39
27 -53 7 -156 -17 -89 -28 -106 -45 -73 -15 27 -25 182 -16 234 8 43 22 42 54
-5z m206 -31 c36 -23 66 -46 66 -52 0 -20 -41 -146 -49 -152 -11 -6 -74 63
-96 106 -13 24 -15 45 -10 85 3 30 10 54 15 54 5 0 38 -19 74 -41z m254 -19
c56 -33 102 -65 102 -70 0 -5 -48 -96 -106 -202 -194 -353 -297 -579 -432
-944 -55 -148 -92 -235 -78 -179 3 11 35 139 71 285 109 438 207 815 214 823
4 4 20 -10 36 -33 50 -71 64 -44 15 30 -16 25 -30 55 -30 66 0 38 41 155 56
161 8 3 31 -7 52 -24 49 -39 80 -55 92 -48 19 12 10 22 -49 58 -62 39 -109 83
-61 57 14 -7 50 -30 80 -50 76 -51 98 -62 104 -51 4 5 -27 33 -66 61 -112 81
-150 120 -115 120 7 0 59 -27 115 -60z m-6815 -190 c144 -65 224 -107 218
-113 -5 -5 -45 -8 -89 -6 -78 4 -82 6 -154 55 -40 29 -132 84 -203 124 -112
62 -235 143 -235 154 0 2 53 -22 118 -54 64 -31 220 -103 345 -160z m5507 50
c43 -201 88 -329 204 -585 64 -141 2 -40 -109 178 -116 226 -117 230 -130 437
-7 126 4 117 35 -30z m708 55 l52 -64 -11 -103 c-7 -57 -15 -107 -19 -111 -10
-11 -56 62 -69 109 -10 34 -16 234 -8 234 2 0 27 -29 55 -65z m201 -7 c-10
-72 -30 -147 -40 -154 -11 -6 -11 -10 1 62 14 82 31 144 40 144 3 0 3 -24 -1
-52z m-1101 -115 c73 -159 85 -194 80 -253 l-3 -45 -67 91 c-87 120 -108 160
-108 211 0 55 20 147 30 136 4 -4 35 -67 68 -140z m744 55 c30 -51 59 -106 66
-121 11 -25 32 -175 32 -222 l-1 -20 -15 20 c-31 40 -82 152 -108 235 -29 94
-47 200 -35 200 4 0 32 -42 61 -92z m497 -78 c8 -15 -36 -200 -48 -200 -3 0
-28 32 -54 70 l-48 70 16 83 c10 45 20 86 23 91 5 9 95 -83 111 -114z m-4951
84 c-29 -29 -900 -236 -1132 -269 -168 -24 -212 -21 -282 21 -32 19 -63 39
-68 44 -10 10 133 24 171 17 16 -3 39 -8 52 -13 20 -6 22 -4 17 12 -5 18 7 21
192 42 232 27 449 58 694 101 146 25 261 42 347 50 8 0 12 -1 9 -5z m4406
-210 c35 -138 54 -258 72 -442 8 -86 21 -211 29 -276 8 -66 13 -121 10 -124
-2 -2 -6 6 -9 19 -16 70 -176 989 -176 1004 2 29 52 -95 74 -181z m-4454 149
c-46 -20 -202 -59 -265 -67 -70 -8 -42 2 125 45 156 40 195 46 140 22z m4765
-27 c10 -29 -6 -143 -27 -192 -12 -28 -13 -26 -16 36 -5 91 7 192 21 187 7 -2
16 -16 22 -31z m-846 -190 c5 -25 5 -46 1 -46 -14 0 -53 104 -56 150 l-4 45
25 -51 c14 -28 29 -72 34 -98z m-4389 93 c-173 -60 -627 -176 -738 -189 -102
-12 -175 -5 -237 21 l-30 13 40 4 c56 5 166 -2 189 -13 16 -7 18 -5 13 7 -7
19 -6 19 168 48 120 20 428 86 605 129 118 30 115 23 -10 -20z m5270 -79 c-13
-80 -29 -125 -29 -80 -1 34 18 160 26 185 14 39 16 -26 3 -105z m-5054 95
c-38 -28 -182 -78 -414 -141 -128 -35 -263 -68 -300 -74 -37 -6 -78 -13 -92
-16 -17 -4 -22 -2 -15 5 12 11 190 64 390 116 77 19 199 55 270 80 72 24 141
44 155 44 24 0 24 0 6 -14z m3992 -105 c97 -128 145 -221 115 -220 -9 1 -141
168 -185 234 -16 23 -28 49 -28 59 0 37 35 11 98 -73z m930 -150 c4 -190 -6
-367 -19 -333 -4 12 -11 83 -15 157 -6 120 -5 136 9 136 14 0 14 3 1 29 -8 16
-16 74 -20 137 l-6 109 24 -35 c21 -32 23 -47 26 -200z m237 156 l39 -57 -108
-437 c-60 -240 -113 -444 -118 -452 -7 -12 -8 -10 -4 5 11 46 38 256 61 485
28 273 54 488 60 508 8 23 28 8 70 -52z m-1396 -55 c19 -25 27 -50 32 -95 5
-61 5 -61 19 -31 11 26 14 27 17 10 9 -42 13 -48 26 -37 7 6 18 7 25 3 7 -4
68 -71 135 -149 67 -78 178 -200 246 -272 68 -71 119 -130 114 -130 -5 0 -74
57 -153 126 -80 69 -202 169 -273 223 -210 161 -337 273 -337 296 0 25 27 121
43 150 9 18 12 17 45 -20 19 -22 46 -55 61 -74z m-3809 80 c0 -13 -35 -33
-140 -81 -185 -83 -260 -101 -500 -116 -145 -9 -120 9 49 35 211 34 384 81
515 142 67 31 76 33 76 20z m3895 -78 c-10 -53 -19 -31 -10 24 5 26 10 40 13
30 2 -11 1 -35 -3 -54z m980 -57 c19 -38 25 -66 25 -115 0 -37 9 -165 20 -286
21 -238 23 -261 15 -253 -3 3 -19 106 -36 229 -16 123 -43 287 -60 363 -16 77
-29 144 -29 150 1 17 37 -33 65 -88z m-869 14 c26 -30 137 -167 247 -305 272
-339 477 -586 556 -669 36 -38 57 -64 46 -58 -25 13 -560 553 -676 682 -133
148 -250 291 -260 319 -9 22 -4 73 8 94 7 12 30 -6 79 -63z m-3901 34 c-98
-75 -268 -187 -379 -249 -157 -88 -454 -230 -463 -221 -3 3 45 30 108 59 63
30 195 104 294 165 309 190 522 309 440 246z m4288 -219 c68 -121 174 -305
236 -408 62 -104 110 -191 108 -194 -12 -11 -370 555 -438 692 -39 80 -63 160
-41 140 6 -5 67 -109 135 -230z m-169 151 c39 -78 59 -136 48 -136 -9 1 -67
77 -86 115 -17 32 -22 95 -7 95 5 0 25 -33 45 -74z m788 -96 l-10 -55 -1 80
c0 44 3 91 7 105 11 40 15 -64 4 -130z m-4793 54 c-59 -60 -237 -205 -291
-236 l-33 -20 35 30 c19 17 103 88 185 159 83 71 152 128 154 126 3 -2 -20
-28 -50 -59z m4847 -76 c-11 -181 -67 -653 -78 -663 -17 -17 -1 235 32 504 17
134 33 247 36 252 14 23 16 1 10 -93z m-794 -76 c34 -48 114 -157 178 -242
237 -318 234 -324 -9 -20 -184 230 -251 321 -251 344 0 26 14 12 82 -82z m96
-49 c57 -90 75 -123 67 -123 -7 0 -125 180 -125 191 0 18 9 7 58 -68z m1597
-525 c-41 -10 -282 -75 -313 -84 -9 -3 -6 2 8 10 58 36 234 84 305 84 l40 0
-40 -10z m-1387 -173 c83 -41 152 -76 152 -79 0 -9 -291 99 -352 130 -24 12
-28 18 -17 25 22 13 54 2 217 -76z m41 -95 c75 -21 163 -48 196 -59 l60 -21
-80 6 c-153 10 -339 53 -349 80 -8 20 1 34 21 34 9 0 77 -18 152 -40z"/>
<path d="M1785 5185 c11 -166 55 -537 105 -886 48 -331 56 -409 45 -397 -16
15 -174 855 -209 1108 -29 203 -38 250 -48 250 -6 0 -7 -37 -3 -97 25 -405 29
-433 148 -928 65 -271 132 -606 125 -627 -3 -7 -12 26 -22 73 -31 147 -105
466 -161 689 -77 309 -121 514 -146 680 -25 171 -43 216 -35 90 8 -137 49
-335 176 -850 130 -530 223 -931 216 -938 -3 -2 -9 11 -14 30 -5 18 -64 231
-132 473 -67 242 -153 551 -191 686 -38 135 -83 308 -100 384 -17 77 -33 142
-36 145 -23 21 48 -285 147 -640 99 -354 240 -868 245 -895 10 -50 -51 74
-121 245 -67 166 -109 300 -148 470 -14 58 -25 94 -25 80 -1 -25 14 -136 25
-195 l5 -30 -18 30 c-37 59 -134 277 -253 564 -66 161 -129 309 -140 329 l-21
37 7 -35 c13 -70 95 -303 153 -432 32 -73 111 -242 175 -376 125 -261 200
-431 194 -438 -16 -15 -417 775 -533 1051 -77 183 -94 219 -101 212 -8 -8 103
-290 177 -450 81 -174 269 -536 414 -797 116 -210 188 -350 182 -356 -6 -6
-199 292 -281 435 -43 74 -102 183 -132 244 -30 60 -58 107 -60 104 -3 -3 0
-15 6 -27 13 -25 3 -43 -12 -20 -35 57 -242 420 -277 485 -23 44 -51 91 -62
105 l-19 25 10 -30 c6 -16 24 -50 39 -75 16 -25 31 -56 34 -70 9 -35 138 -261
248 -432 113 -175 233 -377 228 -382 -2 -3 -49 61 -104 141 -55 81 -158 228
-229 327 -241 337 -277 391 -348 504 -38 62 -72 111 -75 109 -13 -14 118 -221
376 -592 129 -186 469 -689 496 -734 4 -7 -78 74 -183 180 -104 107 -208 208
-231 224 -22 17 -41 37 -41 45 0 8 -28 47 -62 85 -34 39 -104 123 -155 188
-52 64 -97 117 -100 117 -3 0 6 -15 19 -32 41 -54 184 -252 192 -265 4 -7 5
-13 2 -13 -11 0 -74 73 -241 280 -96 118 -194 238 -218 265 -76 85 -59 45 25
-60 181 -226 291 -370 299 -394 5 -14 25 -36 43 -49 49 -33 449 -465 526 -567
8 -11 -7 -1 -35 21 -76 63 -278 274 -389 407 -54 64 -100 117 -103 117 -3 0
15 -28 39 -62 62 -88 67 -97 42 -78 -61 47 -284 253 -375 347 -108 112 -142
164 -166 258 l-13 50 5 -64 c3 -37 15 -85 27 -110 28 -58 208 -239 468 -473
221 -198 500 -467 485 -467 -5 0 -73 52 -150 116 -300 249 -639 514 -796 623
-90 62 -177 122 -193 134 -16 11 -26 14 -22 8 4 -7 134 -108 289 -225 155
-116 444 -344 642 -506 406 -332 440 -361 423 -361 -7 0 -58 22 -113 50 -89
44 -155 90 -435 297 -106 79 -84 50 35 -47 57 -46 102 -86 100 -88 -4 -5 -116
53 -271 138 -209 117 -904 472 -916 468 -12 -4 200 -122 522 -288 280 -145
531 -282 526 -287 -3 -3 -166 65 -301 127 -72 33 -201 87 -290 122 -27 11
-120 50 -205 88 -184 81 -260 112 -260 104 0 -10 280 -139 485 -224 290 -119
480 -203 469 -207 -6 -2 -91 26 -189 62 -261 96 -747 264 -784 271 -17 4 -31
4 -31 1 0 -13 64 -38 309 -121 537 -183 1319 -491 1299 -512 -12 -11 -487 119
-587 161 -37 15 -70 23 -84 20 -14 -4 -127 25 -293 75 -239 72 -451 130 -479
130 -29 0 23 -22 125 -54 168 -51 716 -212 780 -229 75 -19 219 -81 199 -85
-9 -1 -140 24 -292 58 -151 33 -367 76 -479 95 -112 20 -270 49 -352 65 -153
31 -218 37 -200 21 12 -12 143 -40 429 -91 127 -22 356 -68 510 -100 154 -32
300 -63 325 -68 l45 -10 -62 -1 c-121 -2 -1011 84 -1188 115 -22 3 -26 2 -15
-5 43 -27 484 -84 940 -120 505 -41 565 -48 614 -70 l41 -19 -60 -1 c-33 0
-118 4 -190 9 -304 21 -808 32 -1115 24 -430 -11 -331 -22 199 -23 345 -1 897
-20 996 -34 70 -11 -422 -37 -705 -38 -253 -1 -275 -11 -55 -25 132 -8 133 -7
-59 -44 -62 -12 -163 -42 -236 -70 -93 -36 -153 -52 -221 -61 -133 -17 -154
-30 -42 -26 51 2 93 0 93 -3 0 -4 -45 -39 -100 -80 -65 -47 -100 -79 -100 -91
0 -26 15 -24 159 16 69 19 226 58 350 86 124 27 259 59 300 70 85 22 95 23 86
9 -10 -16 3 -14 347 50 177 33 337 62 353 65 l30 6 -25 -15 c-74 -45 -231 -84
-625 -156 -391 -71 -593 -116 -780 -172 -119 -36 -54 -31 87 6 205 55 713 157
766 155 9 0 -32 -15 -93 -33 -139 -41 -152 -47 -90 -40 47 5 49 4 25 -10 -14
-8 -194 -71 -400 -140 -206 -70 -381 -129 -389 -132 -9 -3 -11 -8 -5 -14 11
-11 20 -9 623 182 517 163 676 215 704 230 10 5 21 7 24 4 7 -6 -280 -150
-452 -226 -119 -53 -386 -140 -522 -171 -31 -7 -66 -24 -85 -41 l-33 -29 42 5
c23 4 79 18 124 32 44 14 83 24 85 21 4 -4 -188 -113 -326 -184 -75 -40 -92
-53 -65 -53 10 0 79 33 154 74 165 89 402 207 531 264 116 51 490 184 504 179
14 -5 -151 -118 -319 -219 -77 -47 -214 -134 -303 -194 -90 -60 -176 -117
-190 -126 -15 -10 -22 -18 -16 -18 14 0 214 119 329 196 50 33 160 104 245
157 85 54 217 141 293 195 146 104 257 170 257 153 0 -16 -165 -157 -490 -419
-357 -288 -489 -389 -562 -432 -42 -25 -47 -30 -23 -25 38 8 151 79 235 146
36 29 156 127 268 217 112 90 205 162 208 159 8 -8 -425 -411 -589 -547 -87
-73 -156 -134 -153 -137 18 -18 388 309 868 770 196 187 244 228 187 157 -20
-25 -69 -92 -109 -150 -218 -311 -419 -497 -746 -690 -66 -38 -116 -70 -111
-70 17 0 177 86 257 138 105 68 184 127 275 206 126 110 27 5 -178 -189 -108
-102 -197 -189 -197 -192 0 -7 -4 -10 145 118 164 140 279 259 391 404 193
248 230 285 134 129 -126 -201 -247 -349 -519 -634 -79 -82 -139 -150 -133
-150 11 0 371 372 438 451 50 60 176 236 259 363 74 111 227 317 232 312 2 -2
-29 -55 -70 -117 -82 -127 -151 -249 -251 -444 -91 -178 -144 -243 -304 -369
-158 -125 -267 -222 -289 -256 -11 -18 -3 -13 28 15 24 22 121 102 215 177
233 186 271 229 375 430 100 194 420 729 439 736 19 7 -78 -354 -140 -523 -53
-142 -185 -451 -274 -639 -70 -148 -72 -175 -4 -41 205 401 354 778 413 1041
14 66 33 124 41 130 8 6 14 19 14 30 0 13 3 15 11 7 16 -16 28 -249 29 -567 0
-154 3 -276 8 -272 22 23 17 657 -8 809 -5 33 -8 63 -5 65 23 23 165 -533 165
-647 0 -51 10 -101 21 -101 34 0 -48 432 -126 659 -14 41 -25 79 -25 84 0 18
235 -364 289 -471 12 -24 25 -42 27 -39 7 7 -33 85 -158 304 -60 106 -108 198
-106 204 4 11 493 -229 603 -296 33 -20 92 -53 130 -72 39 -20 142 -77 230
-128 88 -51 243 -136 345 -190 233 -123 318 -171 555 -310 105 -62 294 -172
420 -245 127 -73 345 -201 485 -285 140 -83 313 -184 383 -224 128 -73 434
-291 472 -337 11 -13 33 -28 49 -34 22 -8 26 -14 18 -22 -19 -19 -14 -26 31
-46 23 -11 92 -63 152 -117 120 -106 280 -216 507 -348 253 -148 307 -169 338
-132 50 61 -250 333 -580 526 -195 114 -368 209 -383 209 -7 0 -24 11 -37 25
-16 18 -26 22 -31 13 -7 -11 -34 3 -228 124 -42 26 -123 73 -180 105 -56 32
-196 114 -310 182 -216 129 -832 490 -1055 618 -72 42 -150 89 -173 104 -23
16 -160 92 -305 168 -145 76 -353 190 -463 253 -292 168 -401 227 -688 373
l-258 132 92 6 c51 4 135 8 188 8 201 3 147 17 -69 18 -131 1 -220 5 -215 10
6 5 91 30 190 56 365 95 393 115 49 35 -119 -28 -218 -49 -221 -47 -2 2 49 28
114 57 295 132 483 238 578 325 50 45 39 39 -105 -57 -63 -42 -169 -103 -235
-136 -128 -65 -316 -145 -322 -138 -2 2 60 55 139 117 388 309 516 435 617
608 49 82 29 72 -30 -16 -63 -94 -247 -278 -425 -425 -162 -135 -405 -320
-412 -314 -6 6 55 107 136 226 55 80 222 356 351 577 119 206 150 257 204 338
33 50 53 84 43 76 -35 -29 -187 -261 -302 -461 -177 -310 -272 -466 -300 -497
-20 -22 -17 -12 17 52 23 44 70 127 104 185 128 216 214 384 371 728 13 28 20
52 16 52 -7 0 -62 -85 -62 -96 0 -14 -255 -512 -333 -649 -152 -270 -198 -347
-203 -342 -6 6 67 201 143 382 76 181 213 461 284 581 54 92 119 244 119 279
0 33 -18 12 -29 -32 -7 -27 -57 -131 -111 -233 -55 -102 -133 -256 -176 -343
-42 -87 -78 -156 -80 -154 -13 13 103 302 190 476 86 170 203 475 193 504 -2
6 -14 -19 -27 -58 -39 -118 -75 -205 -184 -437 -65 -138 -135 -310 -185 -453
-118 -334 -153 -429 -163 -440 -5 -5 -6 3 -3 20 2 17 9 102 15 190 18 270 85
739 145 1020 28 131 105 538 105 556 0 8 -3 9 -9 4 -6 -6 -40 -158 -76 -340
-37 -181 -71 -337 -76 -345 -7 -10 -8 -2 -4 25 3 22 14 122 25 222 11 100 29
241 40 314 23 151 24 167 10 153 -18 -18 -49 -243 -110 -794 -69 -629 -79
-701 -92 -715 -7 -7 -8 -3 -5 10 3 11 11 106 17 210 19 324 40 623 56 790 28
299 41 515 30 504 -14 -14 -91 -936 -115 -1387 -5 -96 -12 -176 -15 -180 -3
-3 -7 312 -7 699 -1 388 -5 684 -10 659 -4 -25 -8 -421 -8 -879 -1 -500 -5
-831 -10 -825 -21 21 -32 99 -41 284 -6 107 -17 276 -25 375 -17 214 -33 554
-44 905 l-8 255 -1 -380 c-2 -331 1 -416 23 -660 25 -278 29 -342 21 -334 -9
8 -136 925 -167 1194 -17 154 -35 287 -40 295 -7 10 -8 -16 -4 -75z m44 -1807
c18 -21 29 -38 25 -38 -11 0 -257 266 -263 283 -3 12 170 -168 238 -245z
m-174 -147 l60 -21 -56 4 c-55 4 -193 46 -211 64 -12 12 125 -20 207 -47z
m-26 -186 c-9 -8 -868 -117 -1114 -140 -83 -8 -79 3 11 33 137 47 409 89 649
101 185 9 460 13 454 6z m-244 -61 c-5 -2 -120 -26 -255 -54 -135 -28 -288
-62 -341 -75 -53 -14 -170 -41 -260 -60 -145 -31 -305 -72 -353 -91 -73 -28
102 109 186 145 24 10 94 24 158 31 129 13 688 86 765 99 51 9 118 13 100 5z
m569 -41 c-60 -81 -266 -324 -271 -319 -11 11 134 201 236 309 60 63 78 69 35
10z m-149 -10 c-28 -22 -405 -206 -411 -200 -6 5 405 216 421 216 6 0 1 -7
-10 -16z"/>
</g>
</svg>
