<?xml version="1.0" encoding="UTF-8" standalone="no"?><!DOCTYPE svg PUBLIC "-//W3C//DTD SVG 1.1//EN" "http://www.w3.org/Graphics/SVG/1.1/DTD/svg11.dtd"><svg width="100%" height="100%" viewBox="0 0 108 48" version="1.1" xmlns="http://www.w3.org/2000/svg" xmlns:xlink="http://www.w3.org/1999/xlink" xml:space="preserve" xmlns:serif="http://www.serif.com/" style="fill-rule:evenodd;clip-rule:evenodd;stroke-linejoin:round;stroke-miterlimit:2;"><path d="M34.208,15.409l-2.437,0.406l0,2.028c0,0.552 0.406,0.76 1.218,0.625c1.063,-0.177 1.949,-0.043 2.659,0.4c0.756,0.472 1.135,1.199 1.135,2.181l0,2.651c0,0.486 -0.19,0.933 -0.568,1.34c-0.373,0.402 -0.817,0.645 -1.333,0.731l-3.785,0.63c-0.516,0.086 -0.96,-0.01 -1.334,-0.287c-0.377,-0.282 -0.566,-0.665 -0.566,-1.151l0,-2.59l2.574,-0.429l0,1.968l2.437,-0.406l0,-2.028c0,-0.552 -0.406,-0.76 -1.219,-0.625c-1.062,0.176 -1.948,0.043 -2.658,-0.401c-0.756,-0.471 -1.134,-1.199 -1.134,-2.181l0,-2.651c0,-0.486 0.189,-0.932 0.566,-1.34c0.374,-0.401 0.818,-0.645 1.334,-0.731l3.785,-0.629c0.516,-0.086 0.96,0.01 1.333,0.287c0.378,0.281 0.568,0.665 0.568,1.151l0,2.582l-2.575,0.429l0,-1.96Z" style="fill:#fff;fill-rule:nonzero;"/><path d="M40.912,14.294l0,8.096l2.437,-0.405l0,-8.097l-2.437,0.406Zm3.111,-2.895c0.516,-0.086 0.96,0.01 1.334,0.287c0.377,0.281 0.566,0.665 0.566,1.151l0,9.343c0,0.485 -0.189,0.932 -0.566,1.339c-0.374,0.402 -0.818,0.645 -1.334,0.731l-3.785,0.63c-0.516,0.086 -0.96,-0.01 -1.333,-0.287c-0.378,-0.281 -0.567,-0.666 -0.567,-1.151l0,-9.343c0,-0.486 0.189,-0.933 0.567,-1.34c0.373,-0.401 0.817,-0.645 1.333,-0.731l3.785,-0.629Z" style="fill:#fff;fill-rule:nonzero;"/><path d="M51.127,9.024c-0.077,-0.037 -0.154,-0.05 -0.23,-0.037c-0.2,0.033 -0.391,0.242 -0.575,0.627l-0.123,0.317l-0.896,-0.436l0.122,-0.317c0.276,-0.724 0.646,-1.257 1.111,-1.597c0.235,-0.171 0.47,-0.276 0.705,-0.315c0.261,-0.043 0.524,-0.004 0.79,0.119l0.949,0.465c0.077,0.038 0.154,0.05 0.231,0.038c0.199,-0.033 0.39,-0.245 0.574,-0.635l0.123,-0.309l0.897,0.435l-0.123,0.31c-0.276,0.724 -0.646,1.259 -1.111,1.605c-0.236,0.17 -0.468,0.275 -0.697,0.313c-0.266,0.045 -0.532,0 -0.797,-0.133l-0.95,-0.45Zm-0.629,5.87l0,8.279l-2.575,0.428l0,-12.851l3.571,-0.594l2.107,7.966l0,-8.317l2.575,-0.428l0,12.851l-3.563,0.593l-2.115,-7.927Z" style="fill:#fff;fill-rule:nonzero;"/><path d="M60.804,19.081l4.291,-0.714l0,2.377l-6.866,1.142l0,-12.851l6.866,-1.143l0,2.378l-4.291,0.714l0,2.856l3.571,-0.594l0,2.385l-3.571,0.594l0,2.856Z" style="fill:#fff;fill-rule:nonzero;"/><path d="M78.29,5.697l0,12.852l-2.575,0.428l0,-8.469l-1.793,8.767l-3.126,0.521l-1.808,-8.168l0,8.469l-2.575,0.428l0,-12.851l3.571,-0.595l2.375,10.049l2.36,-10.837l3.571,-0.594Z" style="fill:#fff;fill-rule:nonzero;"/><path d="M82.795,7.325l0,8.097l2.437,-0.406l0,-8.096l-2.437,0.405Zm3.111,-2.895c0.516,-0.086 0.96,0.01 1.334,0.287c0.377,0.281 0.566,0.665 0.566,1.151l0,9.343c0,0.486 -0.189,0.933 -0.566,1.34c-0.374,0.401 -0.818,0.645 -1.334,0.73l-3.785,0.63c-0.516,0.086 -0.961,-0.01 -1.333,-0.287c-0.379,-0.281 -0.568,-0.665 -0.568,-1.151l0,-9.342c0,-0.487 0.189,-0.933 0.568,-1.34c0.372,-0.402 0.817,-0.645 1.333,-0.731l3.785,-0.63Z" style="fill:#fff;fill-rule:nonzero;"/><path d="M94.603,5.36l-2.437,0.406l0,2.028c0,0.552 0.406,0.76 1.218,0.625c1.063,-0.177 1.949,-0.043 2.66,0.401c0.755,0.471 1.133,1.198 1.133,2.181l0,2.65c0,0.487 -0.189,0.933 -0.567,1.341c-0.373,0.401 -0.817,0.644 -1.333,0.73l-3.785,0.63c-0.516,0.086 -0.961,-0.01 -1.334,-0.287c-0.377,-0.282 -0.566,-0.665 -0.566,-1.151l0,-2.59l2.574,-0.429l0,1.968l2.437,-0.406l0,-2.028c0,-0.552 -0.406,-0.76 -1.219,-0.625c-1.062,0.177 -1.948,0.043 -2.658,-0.401c-0.757,-0.471 -1.134,-1.199 -1.134,-2.181l0,-2.65c0,-0.487 0.189,-0.933 0.566,-1.341c0.373,-0.401 0.818,-0.645 1.334,-0.73l3.785,-0.63c0.516,-0.086 0.96,0.01 1.333,0.287c0.378,0.282 0.567,0.665 0.567,1.151l0,2.582l-2.574,0.429l0,-1.96Z" style="fill:#fff;fill-rule:nonzero;"/><path d="M31.986,38.307l4.291,-0.713l0,2.377l-6.866,1.142l0,-12.851l6.866,-1.143l0,2.378l-4.291,0.714l0,2.856l3.57,-0.595l0,2.385l-3.57,0.594l0,2.856Z" style="fill:#14b3e4;fill-rule:nonzero;"/><path d="M40.169,31.044l0,8.279l-2.575,0.429l0,-12.852l3.571,-0.594l2.107,7.966l0,-8.317l2.575,-0.428l0,12.851l-3.563,0.593l-2.115,-7.927Z" style="fill:#14b3e4;fill-rule:nonzero;"/><path d="M52.789,32.643l-1.218,0.203l0,-2.377l3.793,-0.631l0,5.203c0,0.486 -0.19,0.932 -0.567,1.34c-0.373,0.401 -0.818,0.644 -1.334,0.73l-3.785,0.63c-0.516,0.086 -0.96,-0.01 -1.333,-0.287c-0.378,-0.281 -0.567,-0.665 -0.567,-1.151l0,-9.343c0,-0.486 0.189,-0.932 0.567,-1.34c0.373,-0.401 0.817,-0.644 1.333,-0.73l3.785,-0.63c0.516,-0.086 0.961,0.01 1.334,0.287c0.377,0.281 0.567,0.665 0.567,1.151l0,2.582l-2.575,0.429l0,-1.96l-2.437,0.406l0,8.096l2.437,-0.405l0,-2.203Z" style="fill:#fff;fill-rule:nonzero;"/><path d="M61.187,28.869c0.245,-0.041 0.46,-0.158 0.644,-0.35c0.184,-0.188 0.276,-0.398 0.276,-0.631l0,-2.689l-2.437,0.405l0,3.517l1.517,-0.252Zm-1.517,2.63l0,4.58l-2.575,0.428l0,-12.852l5.686,-0.945c0.516,-0.086 0.96,0.009 1.333,0.287c0.378,0.281 0.567,0.665 0.567,1.151l0,3.311c0,0.841 -0.329,1.567 -0.988,2.178c0.659,0.391 0.988,1.013 0.988,1.863l0,3.745l-2.574,0.428l0,-3.744c0,-0.233 -0.092,-0.418 -0.276,-0.554c-0.184,-0.127 -0.399,-0.17 -0.644,-0.129l-1.517,0.253Z" style="fill:#fff;fill-rule:nonzero;"/><path d="M69.386,29.479l1.256,-0.209l-0.628,-5.371l-0.628,5.58Zm-0.468,2.456l-0.521,2.692l-2.605,0.433l2.514,-13.27l3.424,-0.57l2.506,12.435l-2.613,0.435l-0.505,-2.521l-2.2,0.366Z" style="fill:#fff;fill-rule:nonzero;"/><path d="M77.876,24.77l0,8.279l-2.575,0.429l0,-12.852l3.571,-0.594l2.107,7.966l0,-8.317l2.575,-0.428l0,12.851l-3.564,0.594l-2.114,-7.928Z" style="fill:#fff;fill-rule:nonzero;"/><path d="M88.182,20.861l0,8.096l1.218,-0.202c0.812,-0.136 1.218,-0.482 1.218,-1.039l0,-7.261l-2.436,0.406Zm-2.575,-1.95l5.686,-0.945c0.516,-0.086 0.96,0.009 1.333,0.287c0.378,0.281 0.567,0.665 0.567,1.151l0,7.884c0,0.982 -0.378,1.835 -1.134,2.558c-0.71,0.68 -1.596,1.109 -2.659,1.286l-3.793,0.631l0,-12.852Z" style="fill:#fff;fill-rule:nonzero;"/><path d="M97.683,27.376l4.291,-0.714l0,2.378l-6.866,1.142l0,-12.852l6.866,-1.142l0,2.378l-4.291,0.714l0,2.856l3.571,-0.595l0,2.385l-3.571,0.594l0,2.856Z" style="fill:#fff;fill-rule:nonzero;"/><path d="M18.218,30.374l0.196,-4.311l-3.664,0.623l-0.196,4.31l3.664,-0.622Zm4.945,-5.118l-0.18,4.308l3.413,-0.58l0.568,4.506l-4.199,0.713l-0.34,7.865l-4.749,0.807l0.341,-7.864l-3.664,0.622l-0.339,7.881l-4.765,0.809l0.354,-7.883l-1.965,0.335l-0.569,-4.507l2.736,-0.465l0.179,-4.307l-3.443,0.585l-0.567,-4.49l4.214,-0.716l0.285,-6.278l4.749,-0.807l-0.269,6.275l3.664,-0.623l0.267,-6.291l4.765,-0.81l-0.283,6.294l1.935,-0.329l0.566,4.49l-2.704,0.46Z" style="fill:#14b3e4;fill-rule:nonzero;"/></svg>