<?xml version="1.0" encoding="UTF-8" standalone="no"?><!DOCTYPE svg PUBLIC "-//W3C//DTD SVG 1.1//EN" "http://www.w3.org/Graphics/SVG/1.1/DTD/svg11.dtd"><svg width="100%" height="100%" viewBox="0 0 650 375" version="1.1" xmlns="http://www.w3.org/2000/svg" xmlns:xlink="http://www.w3.org/1999/xlink" xml:space="preserve" xmlns:serif="http://www.serif.com/" style="fill-rule:evenodd;clip-rule:evenodd;stroke-linejoin:round;stroke-miterlimit:2;"><path d="M308.002,58.116c0,-7.284 -5.708,-13.198 -12.738,-13.198l-192.377,0c-7.03,0 -12.738,5.914 -12.738,13.198l0,199.326c0,7.284 5.708,13.198 12.738,13.198l192.377,0c7.03,0 12.738,-5.914 12.738,-13.198l0,-199.326Z" style="fill:#71e2ef;"/><path d="M307.752,129.516l-53.41,-56.169l-108.336,168.091l33.813,29.182c-0.262,0.001 113.425,-0.07 113.492,0c0.161,0.167 13.74,0.539 14.441,-13.664c0.039,-0.793 0.083,-125.475 0,-127.44l0,0Z" style="fill:#38c6d9;fill-rule:nonzero;"/><path d="M144.705,84.904l-0.001,144.954c0,6.837 5.349,12.38 11.948,12.38l87.024,0c6.599,0 11.947,-5.542 11.947,-12.379l0.001,-144.954c0,-6.837 -5.349,-12.379 -11.948,-12.379l-87.024,0c-6.598,-0.001 -11.947,5.542 -11.947,12.378l0,0Z" style="fill:#fff;fill-rule:nonzero;"/><path d="M243.676,72.525l-44.24,0l0,169.712l44.24,0c6.598,0 11.947,-5.542 11.947,-12.378l0.001,-144.954c0,-6.836 -5.35,-12.379 -11.948,-12.379l0,-0.001Z" style="fill:#d8d8d8;fill-rule:nonzero;"/><path d="M243.676,68.906l-87.025,0c-8.514,0 -15.441,7.177 -15.441,15.998l0,144.954c0,8.822 6.926,15.999 15.441,15.999l87.025,0c8.514,0 15.441,-7.177 15.441,-15.998l0,-144.955c0,-8.822 -6.927,-15.999 -15.441,-15.999l0,0.001Zm-87.024,7.239l87.025,0c4.661,0 8.454,3.93 8.454,8.76l-0.001,136.155l-103.933,0l0.001,-136.157c0,-4.829 3.793,-8.758 8.454,-8.758l0,0Z" style="fill:#263a7a;fill-rule:nonzero;"/><path d="M243.676,68.906l-44.24,0l0,7.239l44.24,0c4.661,0 8.454,3.93 8.454,8.76l-0.001,136.155l-52.693,0l0,24.796l44.239,0c8.514,0 15.441,-7.177 15.441,-15.998l0.001,-144.953c0,-8.822 -6.927,-15.999 -15.441,-15.999l0,0Z" style="fill:#121149;fill-rule:nonzero;"/><g><path d="M214.575,100.37l-28.822,0c-1.447,0 -2.62,-1.215 -2.62,-2.715c0,-1.499 1.173,-2.714 2.62,-2.714l28.822,0c1.448,0 2.62,1.215 2.62,2.714c0,1.5 -1.172,2.715 -2.62,2.715Z" style="fill:#366695;fill-rule:nonzero;"/><path d="M238.593,115.302l-76.858,0c-1.448,0 -2.621,-1.216 -2.621,-2.715c0,-1.5 1.173,-2.715 2.621,-2.715l76.858,0c1.448,0 2.62,1.215 2.62,2.715c0,1.499 -1.173,2.715 -2.62,2.715Z" style="fill:#366695;fill-rule:nonzero;"/><path d="M238.593,130.233l-76.858,0c-1.448,0 -2.621,-1.215 -2.621,-2.715c0,-1.499 1.173,-2.715 2.621,-2.715l76.858,0c1.448,0 2.62,1.216 2.62,2.715c0,1.5 -1.173,2.715 -2.62,2.715Z" style="fill:#366695;fill-rule:nonzero;"/><path d="M238.593,145.165l-76.858,0c-1.448,0 -2.621,-1.216 -2.621,-2.715c0,-1.5 1.173,-2.715 2.621,-2.715l76.858,0c1.448,0 2.62,1.215 2.62,2.715c0,1.499 -1.173,2.715 -2.62,2.715Z" style="fill:#366695;fill-rule:nonzero;"/><path d="M238.593,160.096l-76.858,0c-1.448,0 -2.621,-1.215 -2.621,-2.715c0,-1.499 1.173,-2.714 2.621,-2.714l76.858,0c1.448,0 2.62,1.215 2.62,2.714c0,1.5 -1.173,2.715 -2.62,2.715Z" style="fill:#366695;fill-rule:nonzero;"/><path d="M238.593,175.028l-76.858,0c-1.448,0 -2.621,-1.215 -2.621,-2.715c0,-1.5 1.173,-2.715 2.621,-2.715l76.858,0c1.448,0 2.62,1.215 2.62,2.715c0,1.5 -1.173,2.715 -2.62,2.715Z" style="fill:#366695;fill-rule:nonzero;"/><path d="M238.593,189.96l-76.858,0c-1.448,0 -2.621,-1.216 -2.621,-2.715c0,-1.5 1.173,-2.715 2.621,-2.715l76.858,0c1.448,0 2.62,1.215 2.62,2.715c0,1.499 -1.173,2.715 -2.62,2.715Z" style="fill:#366695;fill-rule:nonzero;"/><path d="M238.593,204.89l-76.858,0c-1.448,0 -2.621,-1.215 -2.621,-2.715c0,-1.5 1.173,-2.715 2.621,-2.715l76.858,0c1.448,0 2.62,1.215 2.62,2.715c0,1.5 -1.173,2.715 -2.62,2.715Z" style="fill:#366695;fill-rule:nonzero;"/></g><ellipse cx="199.462" cy="232.094" rx="4.839" ry="5.014" style="fill:#ebebeb;"/><g><rect x="111.013" y="325.568" width="8.609" height="8.995" style="fill:#121149;"/><path d="M183.896,334.563l0,-25.171c0,-8.467 -3.94,-14.06 -12.33,-14.06c-4.669,0 -9.411,2.494 -11.381,7.256c-1.605,-4.686 -5.544,-7.256 -11.016,-7.256c-4.158,0 -8.39,2.116 -10.36,6.425l-0.583,-5.443l-5.399,0l0,38.249l6.201,0l0,-20.334c0,-3.174 0.657,-7.256 2.481,-9.675c1.532,-2.041 3.647,-3.402 6.274,-3.402c5.909,0 7.441,3.704 7.441,9.071l0,24.34l6.201,0l0,-20.334c0,-4.006 0.657,-7.861 3.138,-10.507c1.459,-1.587 3.283,-2.57 5.617,-2.57c5.837,0 7.515,3.704 7.515,9.071l0,24.34l6.201,0Z" style="fill:#121149;fill-rule:nonzero;"/><path d="M226.867,315.439c0,-6.047 -1.24,-11.566 -5.253,-15.647c-2.699,-2.722 -6.493,-4.46 -11.162,-4.46c-4.669,0 -8.463,1.738 -11.162,4.46c-4.013,4.081 -5.253,9.6 -5.253,15.647c0,6.047 1.24,11.565 5.253,15.647c2.699,2.721 6.493,4.46 11.162,4.46c4.669,0 8.463,-1.739 11.162,-4.46c4.013,-4.082 5.253,-9.6 5.253,-15.647Zm-6.347,0c0,4.46 -0.803,9.071 -3.429,11.868c-1.532,1.587 -3.721,2.721 -6.639,2.721c-2.918,0 -5.107,-1.134 -6.639,-2.721c-2.626,-2.797 -3.429,-7.408 -3.429,-11.868c0,-4.46 0.803,-9.071 3.429,-11.868c1.532,-1.587 3.721,-2.721 6.639,-2.721c2.918,0 5.107,1.134 6.639,2.721c2.626,2.797 3.429,7.408 3.429,11.868Z" style="fill:#121149;fill-rule:nonzero;"/><path d="M270.275,315.514c0,-6.576 -1.897,-12.623 -5.617,-16.327c-2.408,-2.343 -5.837,-3.855 -10.141,-3.855c-4.013,0 -8.755,1.965 -10.725,5.442l0,-20.787l-6.201,0l0,54.576l5.472,0l0.438,-4.989c2.115,3.855 6.857,5.972 11.016,5.972c4.523,0 8.025,-1.588 10.432,-4.158c3.502,-3.704 5.326,-9.524 5.326,-15.874Zm-6.347,-0.075c0,7.03 -2.189,14.664 -10.433,14.664c-2.699,0 -4.523,-1.133 -5.982,-2.494c-3.064,-2.797 -4.085,-7.408 -4.085,-12.17c0,-4.762 1.021,-9.373 4.085,-12.17c1.459,-1.361 3.283,-2.495 5.982,-2.495c8.244,0 10.433,7.635 10.433,14.665Z" style="fill:#121149;fill-rule:nonzero;"/><path d="M287.784,287.546l0,-7.559l-7.222,0l0,7.559l7.222,0Zm-0.437,47.017l0,-38.249l-6.347,0l0,38.249l6.347,0Z" style="fill:#121149;fill-rule:nonzero;"/></g><g><path d="M407.883,320.74c4.272,0 7.295,-1.811 9.822,-4.556l2.885,2.687c-3.126,3.619 -6.924,6.054 -12.828,6.054c-8.563,0 -15.544,-6.809 -15.544,-16.86c0,-9.361 6.327,-16.856 14.946,-16.856c9.21,0 14.516,7.617 14.516,17.107c0,0.438 0,0.938 -0.057,1.498l-24.71,0c0.661,6.998 5.486,10.926 10.97,10.926Zm9.103,-14.483c-0.485,-5.869 -3.74,-10.991 -9.953,-10.991c-5.411,0 -9.515,4.689 -10.122,10.991l20.075,0Z" style="fill:#86b918;fill-rule:nonzero;"/><path d="M445.6,308.757l-10.243,0l0,15.424l-4.759,0l0,-43.71l15.793,0c9.516,0 15.785,5.249 15.785,13.927c0,9.491 -7.594,14.359 -16.576,14.359Zm0.419,-23.727l-10.663,0l0,19.228l10.429,0c6.986,0 11.567,-3.867 11.567,-9.676c0.001,-6.304 -4.514,-9.552 -11.333,-9.552Z" style="fill:#41281b;fill-rule:nonzero;"/><path d="M505.312,305.502c0,12.741 -7.043,19.36 -17.593,19.36c-10.421,0 -17.53,-6.619 -17.53,-18.98l0,-25.411l4.757,0l0,25.1c0,9.424 4.823,14.734 12.901,14.734c7.772,0 12.715,-4.873 12.715,-14.423l0,-25.411l4.75,0l0,25.031Z" style="fill:#41281b;fill-rule:nonzero;"/><path d="M547.802,291.402c0,5.741 -3.376,8.675 -6.688,10.177c5.002,1.555 9.032,4.551 9.032,10.613c0,7.548 -6.084,11.989 -15.301,11.989l-19.041,0l0,-43.71l18.257,0c8.315,0 13.741,4.243 13.741,10.931Zm-4.822,0.686c0,-4.375 -3.321,-7.181 -9.337,-7.181l-13.144,0l0,15.051l12.779,0c5.721,-0.003 9.702,-2.691 9.702,-7.87Zm2.351,19.79c0,-4.811 -3.861,-7.556 -11.214,-7.556l-13.618,0l0,15.418l14.468,0c6.39,0 10.364,-2.928 10.364,-7.862Z" style="fill:#41281b;fill-rule:nonzero;"/></g><path d="M471.179,207.36l-64.338,-66.667l64.338,-66.657l21.448,22.218l-42.895,44.439l21.446,22.222l64.338,-66.657l-56.047,-58.07c-4.576,-4.746 -11.999,-4.746 -16.58,0l-90.648,93.923c-4.576,4.741 -4.576,12.433 0,17.179l90.648,93.92c4.581,4.744 12.004,4.744 16.58,0l90.649,-93.92c4.576,-4.746 4.576,-12.438 0,-17.179l-13.159,-13.631l-85.78,88.88Z" style="fill:#86b918;fill-rule:nonzero;"/></svg>