<?xml version="1.0" encoding="utf-8"?>
<!-- Generator: Adobe Illustrator 22.0.0, SVG Export Plug-In . SVG Version: 6.00 Build 0)  -->
<svg version="1.1" xmlns="http://www.w3.org/2000/svg" xmlns:xlink="http://www.w3.org/1999/xlink" x="0px" y="0px"
	 viewBox="0 0 841.9 311.8" style="enable-background:new 0 0 841.9 311.8;" xml:space="preserve">
<style type="text/css">
	.st0{opacity:0.53;}
	.st1{fill:#00979F;}
	.st2{fill:#9A0078;}
	.st3{fill:#222D80;}
	.st4{fill:#FFFFFF;}
	.st5{font-family:'RobotoCondensed-Bold';}
	.st6{font-size:26px;}
	.st7{letter-spacing:-2.2;}
	.st8{font-family:'RobotoCondensed-Regular';}
	.st9{font-size:22px;}
</style>
<g id="Capa_2">
</g>
<g id="Capa_4">
</g>
<g id="octubre" class="st0">
</g>
<g id="filo">
</g>
<g id="Capa_1">
</g>
<g id="logo">
	<polygon class="st1" points="552.3,217.6 552.3,153.5 528.2,153.5 528.2,217.6 528.2,233 552.3,233 595.3,233 595.3,217.6 	"/>
	<polygon class="st1" points="298.1,185.3 257.6,185.3 257.6,167.5 300.6,167.5 300.6,152.1 257.6,152.1 233.4,152.1 233.4,167.5 
		233.4,233 257.6,233 257.6,200.1 298.1,200.1 	"/>
	<polygon class="st2" points="479.5,153.5 458.8,153.5 457.7,153.5 457,154.6 457,192.5 469.1,171.5 504.6,233 526.4,233 
		480.6,153.5 	"/>
	<polygon class="st3" points="408.5,233 363.4,154.7 363.4,192.6 386.7,233 	"/>
	<polygon class="st3" points="411.9,233 433.7,233 457,192.5 457,154.6 	"/>
	<g>
		<polygon class="st2" points="595.3,191.4 570.4,178.4 570.4,153.5 595.3,153.5 		"/>
		<g>
			<text transform="matrix(0.91 0 0 1 572.4957 175.9433)" class="st4 st5 st6 st7">19</text>
		</g>
	</g>
	<g>
		<path d="M351.1,159.7l-2.5-1.6c-3.6,2-7.5,3.5-11.6,4.6c-6.7,1.7-12.7,1.4-18.3-0.8c-5.5-2.2-8.9-5.7-10.1-10.5
			c-0.8-3-0.6-4.7,0.4-4.9c0.5-0.1,0.8,0.5,1,1.9c0.7,2.7,2.3,3.7,4.9,3c1.6-0.4,2.7-1.4,3.5-2.9c0.8-1.6,1-3.2,0.5-5
			c-1-3.8-3.2-5.3-6.7-4.4c-2.2,0.5-3.8,2-4.9,4.4c-1.1,2.4-1.3,5-0.6,7.9c1.4,5.7,5.2,9.7,11.3,12c6.1,2.3,13.2,2.5,21.4,0.4
			C343.5,162.9,347.4,161.5,351.1,159.7"/>
	</g>
	<g>
		<text transform="matrix(1 0 0 1 379.1406 145.4805)" class="st8 st9">de Artes al Aire Libre</text>
	</g>
	<polygon class="st2" points="362.7,153.5 361.6,153.5 340.9,153.5 339.8,153.5 294,233 315.8,233 351.3,171.5 363.4,192.6 
		363.4,154.7 	"/>
	<g>
		<path d="M403.4,114c-1.6,2.6-3.3,4.4-5.2,5.6c-1.9,1.2-4.3,1.7-7.4,1.7c-2.2,0-4-0.7-5.3-2c-1.3-1.3-1.9-3.2-1.9-5.6
			c0-0.6,0.1-1.3,0.2-2c-0.8,1.5-1.5,2.3-2.2,3l-1.3-0.9c1.3-1.3,2-2.8,3-4c2.1-2.7,3.7-4.6,5-5.6c1.9-1.5,3.8-2.3,5.8-2.3
			c1.1,0,2,0.3,2.7,1c0.7,0.6,1.1,1.5,1.1,2.5c0,3.5-3,6.9-9.1,10.2c0.8,1.9,2.5,2.9,5.2,2.9c1.3,0,2.6-0.5,4.2-1.4
			c1.5-0.9,2.9-2.2,4.2-4L403.4,114z M387.9,113.9c4.4-2.2,6.6-4.6,6.6-7.2c0-0.8-0.2-1.5-0.7-2c-0.4-0.5-1-0.8-1.8-0.8
			c-1.4,0-2.5,0.6-3.4,1.9c-0.9,1.3-1.4,2.8-1.4,4.5c0,1,0.1,1.8,0.3,2.4C387.8,113.5,387.9,113.9,387.9,113.9z"/>
		<path d="M411,101c2.1,1.1,3.7,2.6,5,4.7c1.3,2.1,1.9,4.1,1.9,6.2c0,2.5-0.7,4.6-2.2,6.5c-1.5,1.8-3.3,2.8-5.6,2.8
			c-1.1,0-2.3-0.4-3.6-1.1c-1.3-0.7-2.4-1.8-3.4-3.3c0.8-1.3,2-2.4,3.6-3.3l0.3,0.4c-0.1,0.3-0.1,0.7-0.1,1.2c0,1.1,0.4,2.2,1.2,3.1
			c0.8,0.9,1.7,1.3,2.7,1.3c1.2,0,2.3-0.5,3.1-1.6c0.8-1.1,1.2-2.4,1.2-4c0-3.3-2-6.2-5.9-8.8l-3.4,5.4c-1.4,2.2-2.3,3.6-3,4.4
			l-1.2-1c2.7-4,5.4-8.9,8.1-14.7l1,0.1L411,101z"/>
		<path d="M438.7,113.9c-3,4.8-6.2,7.2-9.5,7.2c-1.6,0-2.6-0.4-3-1.1c-0.4-0.8-0.6-2-0.6-3.6v-9.6c-1.8,3-3.5,5.6-5.2,7.9l-1.3-0.9
			c1-1.5,1.8-2.7,2.5-3.8c0.7-1.1,1.5-2.5,2.5-4.3c1-1.8,1.5-2.8,1.5-3V86.3l4-3.9v15.2l6.1-9.6l1.6,1.2l-7.7,12.1v12.3
			c0,1.9,0.1,3.1,0.2,3.7c0.2,0.6,0.6,0.9,1.3,0.9c1.8,0,4-1.8,6.5-5.4L438.7,113.9z"/>
		<path d="M454.1,114c-1.5,2.3-3.1,4-4.7,5.3c-1.6,1.2-3,1.8-4.3,1.8c-1.4,0-2.3-0.4-2.7-1.2c-0.4-0.8-0.6-2.1-0.6-4.1v-7.3
			c-0.8,2.1-2,4.2-3.6,6.2l-1.2-1c2.5-3.4,4.1-6.8,4.8-10l4-2.1v12.7c0,1.6,0.1,2.6,0.2,3.1c0.1,0.5,0.5,0.8,1.1,0.8
			c1.2,0,3.1-1.7,5.8-5.2L454.1,114z M447.3,93.9l-2.8,3.6l-2.8-3.6l2.8-3.4L447.3,93.9z"/>
		<path d="M462.9,94.6c0.6-0.4,1.5-0.6,2.6-0.6c2.1,0,3.9,0.9,5.5,2.7c1.5,1.8,2.3,4.1,2.3,6.8c0,6.3-3.5,12.4-10.4,18.1l-0.5-0.3
			c0.1-0.8,0.1-1.5,0.1-2.2c0-2.4-1.6-5.8-4.7-10.1c-0.6,0.6-1.4,1.6-2.3,3.1l-1.8,2.8l-1.2-1.1c0.5-0.6,1.1-1.6,1.9-2.8
			c0.8-1.3,1.4-2.3,1.8-2.9c1.4-1.9,2.2-3.9,2.5-5.9h0.6c0.3,1.4,1.2,3.2,2.7,5.4c1.6,2.2,2.5,3.9,2.9,5.1c0.4,1.2,0.5,2.3,0.5,3.4
			v1.1c4.2-4.3,6.3-8.9,6.3-13.7c0-1.8-0.4-3.2-1.3-4.3c-0.9-1.1-2-1.6-3.4-1.6c-1.1,0-2.1,0.3-3.1,0.8
			C463.2,97.3,462.9,96,462.9,94.6z"/>
		<path d="M501.7,114c-3,4.7-6,7.1-8.9,7.1c-1.1,0-1.9-0.3-2.4-0.9c-0.5-0.6-0.7-1.8-0.8-3.7c-1.6,2-3,3.3-4.1,3.9
			c-1.1,0.6-2.4,0.9-3.8,0.9c-2.1,0-3.7-0.7-4.9-2.1c-1.2-1.4-1.8-3.3-1.8-5.7v-1.7c-0.3,0.4-1,1.3-2,2.9l-1.3-0.9
			c2.3-3.6,4.8-6.5,7.4-8.5c2.6-2.1,4.9-3.1,6.8-3.1c1.4,0,2.8,0.4,4.1,1.2l3.5-1.8v13.6c0,1.4,0.1,2.3,0.2,2.6
			c0.1,0.3,0.5,0.4,1.1,0.4c0.5,0,1.3-0.5,2.3-1.4c1-0.9,2.1-2.2,3.3-3.9L501.7,114z M489.6,113.5v-8c-1.1-1.1-2.4-1.6-3.9-1.6
			c-1.6,0-3,0.7-4.3,2.2c-1.3,1.5-1.9,3.3-1.9,5.6c0,1.9,0.5,3.4,1.4,4.5c0.9,1.1,2.2,1.6,3.7,1.6c1.2,0,2.4-0.6,3.4-1.8
			C489.1,114.7,489.6,113.9,489.6,113.5z"/>
		<path d="M500,113.8c0.5-0.7,1-1.4,1.4-2c0.4-0.6,0.8-1.3,1.3-2.2c0.4-0.8,0.9-1.9,1.4-3.2c0.5-1.3,0.8-2.2,0.8-2.6V88.3
			c0-3.8,1.2-7.3,3.6-10.3c2.4-3.1,4.9-4.6,7.5-4.6c1.4,0,2.5,0.5,3.3,1.4c0.8,1,1.2,2.2,1.2,3.8c0,2.1-0.9,5-2.6,8.6
			c-1.8,3.6-4.7,8.7-8.9,15.2v11.5c0,1.7,0.1,2.8,0.2,3.4c0.1,0.6,0.5,0.9,1,0.9c1.2,0,3.1-1.7,5.8-5.2l1.2,1
			c-3.2,4.7-6.3,7.1-9.4,7.1c-0.9,0-1.6-0.3-2.1-0.9c-0.5-0.6-0.7-2.1-0.7-4.3v-7.3c-0.8,2.1-2,4.2-3.6,6.2L500,113.8z M508.8,99.5
			c3.6-5.9,5.9-10.1,7.1-12.8c1.1-2.7,1.7-4.9,1.7-6.9c0-3-0.9-4.5-2.8-4.5c-1.7,0-3.1,0.9-4.3,2.8c-1.2,1.9-1.7,4.5-1.7,7.7V99.5z"
			/>
		<g>
			<path d="M366.6,118l-1.1,0.3c-4.4,1.1-7,3.6-7.9,7.4c-0.1,0.6-0.2,0.9-0.4,1c-0.3,0.1-0.5,0-0.6-0.4c-0.4-1.6,0.3-3.3,2.2-5.3
				c1.9-2,4.1-3.2,6.5-3.9l1.7-0.4L366.6,118z M341.4,162.2 M341.4,162.2l-1.8-1.1 M339.6,161.1c4-2.2,7.5-5.1,10.5-8.8
				c5-6.1,9.8-15.7,14.3-28.8c0.4-1.1,1-2.7,1.7-4.9l0.4-1.3c6.4-18.2,14.7-31.2,24.7-39.1c-3.2,0.1-6.5,0.1-10,0.1
				c-11.3-0.1-19.8,0.5-25.6,2c-1.2,0.3-2.3,0.6-3.3,1c2.5,2.9,4.3,6.3,5.3,10.4c2.1,8.6,0.8,17.5-4,26.8
				c-4.8,9.3-11.1,14.9-18.7,16.8c-3.2,0.8-6.1,0.4-8.6-1.1c-2.5-1.5-4.2-3.9-5-7.2c-1.9-7.5,0.1-16,6-25.5s13.3-16.5,22.3-20.9
				c-4.1-3.7-9.3-4.8-15.4-3.2c-10.1,2.5-18.1,9.7-23.8,21.6c-0.5,0.8-0.8,1.3-0.9,1.3c-0.2,0.1-0.4,0-0.6-0.3c-0.2-0.7,1-3,3.6-6.9
				c5.9-9,12.9-14.5,21.1-16.6c7.3-1.8,13.1-0.7,17.6,3.5c3.9-2.1,8.6-3.9,14.2-5.2c3.5-0.9,6.8-1.4,9.9-1.6
				c3.1-0.2,10.6-0.3,22.6-0.5c7.9-5.6,15.8-9.3,23.5-11.3c4.5-1.1,8.3-1.5,11.3-1.2c3,0.3,4.8,1.3,5.2,3c0.5,1.9-1,4.1-4.6,6.4
				c-3.5,2.3-8,4.2-13.4,5.5c-7.1,1.8-16.1,2.9-26.9,3.3c-4.4,3.6-8.1,8.4-11.1,14.2c-3,5.9-5.8,14-8.5,24.3l-0.3,1.2
				c-0.3,1.1-0.8,2.8-1.3,5c-1.9,6.9-3.5,11.9-5,15.1c-1.5,3.1-3.7,6.4-6.6,9.8c-5.6,6.4-11.7,11.2-18.5,14.4 M354.7,89.4
				c-0.7-2.6-2-5.1-3.9-7.5c-8.8,3.4-16.2,9.9-22.3,19.3c-6.1,9.5-8.2,17.9-6.3,25.3c0.7,2.8,2.2,4.9,4.4,6.4
				c2.2,1.5,4.7,1.9,7.3,1.3c6.9-1.7,12.6-7.5,17.1-17.4C355.5,107,356.8,97.9,354.7,89.4z M436.6,63.5c-0.3-1.2-1.9-2-4.7-2.2
				c-2.8-0.2-6,0.1-9.6,1c-8.6,2.1-16.1,5.6-22.5,10.4l8.4-0.2c7-0.1,13.3-0.9,18.8-2.3c2.8-0.7,5.2-1.7,7.1-3.1
				C436,65.8,436.8,64.6,436.6,63.5z"/>
		</g>
		<path d="M372.2,116.1l1.2,0c4.6-0.1,7.2-1.7,9.4-5.3c0.2-0.6,0.4-0.9,0.7-0.9c0.3,0,0.7,0.1,0.7,0.5c0,1.6-1.3,3.8-3.6,5.3
			c-2.3,1.5-4.6,1.7-7.2,1.8l-1.8-0.1L372.2,116.1z"/>
	</g>
</g>
<g id="Capa_5">
</g>
</svg>
