<?xml version="1.0" encoding="UTF-8" standalone="no"?><!DOCTYPE svg PUBLIC "-//W3C//DTD SVG 1.1//EN" "http://www.w3.org/Graphics/SVG/1.1/DTD/svg11.dtd"><svg width="100%" height="100%" viewBox="0 0 842 312" version="1.1" xmlns="http://www.w3.org/2000/svg" xmlns:xlink="http://www.w3.org/1999/xlink" xml:space="preserve" xmlns:serif="http://www.serif.com/" style="fill-rule:evenodd;clip-rule:evenodd;stroke-linejoin:round;stroke-miterlimit:2;"><g id="logo"><g><path d="M729.744,163.029l-44.483,-23.223l0,-44.483l44.483,0l0,67.706Z" style="fill:#801830;fill-rule:nonzero;"/><g><path d="M703.348,108.67c0,9.696 -9.522,11.328 -9.522,21.216l0,4.128l13.89,0l0,-4.8l-9.086,0c-0.043,-0.24 -0.043,-0.48 -0.043,-0.72c0,-5.52 9.566,-9.456 9.566,-20.016c0,-5.376 -2.446,-8.448 -7.164,-8.448c-4.717,0 -7.163,3.072 -7.163,8.448l0,3.264l4.542,0l0,-3.6c0,-2.4 0.961,-3.312 2.49,-3.312c1.529,0 2.49,0.816 2.49,3.84Z" style="fill:#fff;fill-rule:nonzero;"/><path d="M714.574,108.142c0,-2.4 0.961,-3.312 2.489,-3.312c1.529,0 2.49,0.912 2.49,3.312l0,18.144c0,2.4 -0.961,3.312 -2.49,3.312c-1.528,0 -2.489,-0.912 -2.489,-3.312l0,-18.144Zm-4.805,17.808c0,5.376 2.577,8.448 7.294,8.448c4.718,0 7.295,-3.072 7.295,-8.448l0,-17.472c0,-5.376 -2.577,-8.448 -7.295,-8.448c-4.717,0 -7.294,3.072 -7.294,8.448l0,17.472Z" style="fill:#fff;fill-rule:nonzero;"/></g></g><path d="M655.006,209.796l0,-115.219l-43.33,0l0,142.793l120.635,0l0,-27.574l-77.305,0Z" style="fill:#004c98;fill-rule:nonzero;"/><path d="M198.514,151.694l-72.873,0l0,-32.005l77.305,0l0,-27.573l-77.305,0l-43.33,0l0,145.254l43.33,0l0,-59.087l72.873,0l0,-26.589Z" style="fill:#004c98;fill-rule:nonzero;"/><path d="M524.27,94.577l-37.23,0l-1.97,0l-1.138,1.977l-81.091,140.816l39.201,0l41.89,-72.744l21.723,-37.723l63.614,110.467l39.2,0l-82.229,-142.793l-1.97,0Z" style="fill:#00aeef;fill-rule:nonzero;"/><path d="M314.514,94.577l-1.97,0l-37.231,0l-1.97,0l-82.228,142.793l39.2,0l63.614,-110.467l21.845,37.935l41.768,72.532l39.2,0l-80.968,-140.604l-1.26,-2.189Z" style="fill:#00aeef;fill-rule:nonzero;"/></g></svg>