<?xml version="1.0" encoding="UTF-8" standalone="no"?><!DOCTYPE svg PUBLIC "-//W3C//DTD SVG 1.1//EN" "http://www.w3.org/Graphics/SVG/1.1/DTD/svg11.dtd"><svg width="100%" height="100%" viewBox="0 0 2813 646" version="1.1" xmlns="http://www.w3.org/2000/svg" xmlns:xlink="http://www.w3.org/1999/xlink" xml:space="preserve" xmlns:serif="http://www.serif.com/" style="fill-rule:evenodd;clip-rule:evenodd;stroke-linejoin:round;stroke-miterlimit:2;"><g><path d="M2170.65,124.671l0,62.012l-13.05,0l0,-41.866l-5.216,41.866l-9.255,0l-5.495,-40.908l0,40.908l-13.05,0l0,-62.012l19.325,0c0.57,3.729 1.17,8.117 1.812,13.175l2.054,15.779l3.404,-28.954l19.471,0Z" style="fill:#3eadd7;fill-rule:nonzero;"/><path d="M2210.58,124.671l0,41.442c0,4.7 -0.141,8 -0.425,9.899c-0.283,1.9 -1.125,3.859 -2.521,5.863c-1.391,2.004 -3.233,3.521 -5.508,4.554c-2.287,1.038 -4.971,1.55 -8.071,1.55c-3.425,0 -6.45,-0.608 -9.079,-1.833c-2.625,-1.229 -4.587,-2.825 -5.887,-4.788c-1.3,-1.966 -2.071,-4.041 -2.304,-6.221c-0.238,-2.187 -0.355,-6.774 -0.355,-13.774l0,-36.692l14.93,0l0,46.496c0,2.708 0.137,4.437 0.408,5.191c0.275,0.755 0.821,1.13 1.65,1.13c0.946,0 1.554,-0.413 1.829,-1.242c0.267,-0.834 0.408,-2.792 0.408,-5.883l0,-45.692l14.925,0Z" style="fill:#3eadd7;fill-rule:nonzero;"/><path d="M2248,143.438l-13.867,-0.001l0,-4.595c0,-2.142 -0.179,-3.513 -0.533,-4.096c-0.354,-0.588 -0.946,-0.888 -1.775,-0.888c-0.896,0 -1.579,0.396 -2.037,1.192c-0.459,0.796 -0.692,1.992 -0.692,3.6c0,2.071 0.258,3.625 0.779,4.671c0.496,1.05 1.904,2.316 4.221,3.796c6.641,4.262 10.829,7.762 12.554,10.496c1.725,2.729 2.592,7.133 2.592,13.212c0,4.417 -0.484,7.675 -1.438,9.767c-0.958,2.096 -2.808,3.846 -5.554,5.266c-2.738,1.417 -5.929,2.121 -9.575,2.121c-3.992,0 -7.404,-0.812 -10.225,-2.446c-2.825,-1.637 -4.675,-3.72 -5.554,-6.245c-0.871,-2.53 -1.313,-6.113 -1.313,-10.759l0,-4.062l13.871,0l0,7.541c0,2.325 0.196,3.817 0.583,4.484c0.388,0.662 1.084,0.995 2.075,0.995c0.992,0 1.734,-0.416 2.213,-1.262c0.487,-0.842 0.729,-2.092 0.729,-3.754c0,-3.65 -0.462,-6.038 -1.379,-7.167c-0.95,-1.117 -3.275,-2.996 -6.992,-5.629c-3.708,-2.654 -6.166,-4.579 -7.371,-5.783c-1.208,-1.196 -2.204,-2.859 -3,-4.98c-0.791,-2.12 -1.187,-4.825 -1.187,-8.12c0,-4.75 0.562,-8.221 1.683,-10.417c1.129,-2.196 2.938,-3.913 5.442,-5.15c2.512,-1.242 5.537,-1.858 9.083,-1.858c3.875,0 7.179,0.679 9.913,2.029c2.729,1.354 4.537,3.058 5.425,5.112c0.883,2.059 1.329,5.546 1.329,10.475l0,2.454Z" style="fill:#3eadd7;fill-rule:nonzero;"/><path d="M2253.92,124.671l24.896,0l0,12.408l-9.967,0l0,11.759l9.325,0l0,11.795l-9.325,0l0,13.638l10.958,0l0,12.412l-25.887,0l0,-62.012Z" style="fill:#3eadd7;fill-rule:nonzero;"/><path d="M2318.22,160.979c0,6.233 -0.138,10.642 -0.409,13.238c-0.275,2.591 -1.125,4.958 -2.554,7.104c-1.429,2.141 -3.367,3.787 -5.796,4.941c-2.437,1.146 -5.275,1.721 -8.516,1.721c-3.067,0 -5.829,-0.541 -8.279,-1.629c-2.446,-1.083 -4.413,-2.712 -5.9,-4.883c-1.492,-2.171 -2.376,-4.534 -2.659,-7.088c-0.287,-2.554 -0.429,-7.021 -0.429,-13.404l0,-10.604c0,-6.233 0.138,-10.646 0.408,-13.238c0.275,-2.591 1.125,-4.958 2.555,-7.104c1.425,-2.15 3.358,-3.796 5.795,-4.941c2.438,-1.15 5.275,-1.725 8.509,-1.725c3.075,0 5.837,0.545 8.283,1.629c2.446,1.087 4.417,2.712 5.904,4.883c1.492,2.171 2.375,4.529 2.659,7.083c0.283,2.555 0.429,7.025 0.429,13.413l0,10.604Zm-14.934,-20.379c0,-2.883 -0.15,-4.729 -0.441,-5.533c-0.3,-0.8 -0.909,-1.209 -1.825,-1.209c-0.784,0 -1.379,0.329 -1.796,0.984c-0.413,0.645 -0.621,2.57 -0.621,5.758l0,28.958c0,3.6 0.138,5.821 0.408,6.663c0.275,0.846 0.905,1.266 1.9,1.266c1.017,0 1.667,-0.483 1.95,-1.454c0.28,-0.971 0.421,-3.283 0.421,-6.933l0,-28.5l0.004,0Z" style="fill:#3eadd7;fill-rule:nonzero;"/><path d="M2408.25,124.671l0,62.012l-13.046,0l0,-41.866l-5.212,41.866l-9.254,0l-5.505,-40.908l0,40.908l-13.045,0l0,-62.012l19.325,0c0.57,3.729 1.17,8.117 1.808,13.175l2.058,15.779l3.409,-28.954l19.462,0Z" style="fill:#3eadd7;fill-rule:nonzero;"/><path d="M2448.18,124.671l0,41.442c0,4.7 -0.141,8 -0.429,9.899c-0.279,1.9 -1.116,3.859 -2.512,5.863c-1.4,2.004 -3.234,3.521 -5.521,4.554c-2.279,1.038 -4.967,1.55 -8.063,1.55c-3.429,0 -6.454,-0.608 -9.079,-1.833c-2.625,-1.229 -4.587,-2.825 -5.883,-4.788c-1.304,-1.966 -2.075,-4.041 -2.308,-6.221c-0.238,-2.187 -0.355,-6.774 -0.355,-13.774l0,-36.692l14.93,0l0,46.496c0,2.708 0.137,4.437 0.408,5.191c0.267,0.755 0.825,1.13 1.65,1.13c0.946,0 1.554,-0.413 1.825,-1.242c0.275,-0.834 0.408,-2.792 0.408,-5.883l0,-45.692l14.929,0Z" style="fill:#3eadd7;fill-rule:nonzero;"/><path d="M2487.3,124.671l0,62.012l-13.087,0l-7.767,-28.191l0,28.191l-12.484,0l0,-62.012l12.484,0l8.371,27.917l0,-27.917l12.483,0Z" style="fill:#3eadd7;fill-rule:nonzero;"/><rect x="2493.29" y="124.671" width="14.929" height="62.008" style="fill:#3eadd7;"/><path d="M2549.08,151.708l-14.929,0l0,-10.796c0,-3.145 -0.159,-5.104 -0.479,-5.883c-0.317,-0.779 -1.025,-1.171 -2.109,-1.171c-1.233,0 -2.012,0.475 -2.341,1.421c-0.334,0.942 -0.496,2.984 -0.496,6.125l0,28.804c0,3.017 0.162,4.98 0.496,5.9c0.329,0.917 1.07,1.375 2.229,1.375c1.117,0 1.841,-0.458 2.183,-1.375c0.346,-0.921 0.517,-3.075 0.517,-6.475l0,-7.775l14.925,0l0,2.413c0,6.412 -0.417,10.958 -1.258,13.637c-0.838,2.679 -2.692,5.029 -5.563,7.046c-2.875,2.017 -6.417,3.025 -10.625,3.025c-4.375,0 -7.975,-0.854 -10.813,-2.562c-2.841,-1.713 -4.716,-4.08 -5.641,-7.109c-0.921,-3.025 -1.384,-7.579 -1.384,-13.654l0,-18.112c0,-4.471 0.138,-7.825 0.43,-10.055c0.279,-2.233 1.129,-4.387 2.533,-6.454c1.408,-2.066 3.358,-3.7 5.85,-4.883c2.496,-1.188 5.362,-1.783 8.6,-1.783c4.404,0 8.029,0.92 10.887,2.758c2.863,1.842 4.742,4.133 5.638,6.879c0.9,2.746 1.35,7.017 1.35,12.808l0,5.896Z" style="fill:#3eadd7;fill-rule:nonzero;"/><rect x="2554.43" y="124.671" width="14.929" height="62.008" style="fill:#3eadd7;"/><path d="M2575.35,124.671l15.038,0c4.066,0 7.187,0.341 9.379,1.029c2.183,0.696 3.833,1.688 4.929,2.992c1.104,1.304 1.846,2.879 2.237,4.729c0.388,1.85 0.584,4.716 0.584,8.6l0,5.4c0,3.958 -0.38,6.841 -1.134,8.654c-0.758,1.813 -2.146,3.208 -4.166,4.175c-2.021,0.971 -4.663,1.454 -7.925,1.454l-4.013,0l0,24.975l-14.929,0l0,-62.008Zm14.929,10.608l0,15.783c0.429,0.025 0.796,0.038 1.104,0.038c1.371,0 2.317,-0.367 2.85,-1.092c0.538,-0.729 0.8,-2.241 0.8,-4.537l0,-5.096c0,-2.121 -0.308,-3.5 -0.92,-4.138c-0.617,-0.637 -1.892,-0.958 -3.834,-0.958Z" style="fill:#3eadd7;fill-rule:nonzero;"/><path d="M2635.78,124.671l8.546,62.012l-15.283,0l-0.746,-11.15l-5.354,0l-0.888,11.15l-15.462,0l7.591,-62.012l21.596,0Zm-7.908,39.875c-0.754,-7.025 -1.513,-15.692 -2.271,-26.008c-1.512,11.85 -2.454,20.516 -2.833,26.008l5.104,0Z" style="fill:#3eadd7;fill-rule:nonzero;"/><path d="M2661.81,124.671l0,49.6l9.084,0l0,12.412l-24.009,0l0,-62.012l14.925,0Z" style="fill:#3eadd7;fill-rule:nonzero;"/><path d="M2197.65,198.754l11.175,0c7.213,0 12.088,0.359 14.629,1.071c2.542,0.717 4.475,1.896 5.796,3.529c1.325,1.634 2.15,3.45 2.484,5.454c0.333,2.005 0.5,5.942 0.5,11.821l0,21.713c0,5.566 -0.242,9.287 -0.73,11.166c-0.487,1.88 -1.329,3.346 -2.537,4.409c-1.208,1.058 -2.696,1.8 -4.467,2.221c-1.775,0.42 -4.446,0.633 -8.016,0.633l-18.834,0l0,-62.017Zm14.934,10.613l-0.001,40.787c2.155,0 3.475,-0.462 3.971,-1.396c0.5,-0.933 0.746,-3.466 0.746,-7.6l0,-24.095c0,-2.809 -0.083,-4.609 -0.246,-5.4c-0.166,-0.796 -0.546,-1.371 -1.133,-1.742c-0.592,-0.371 -1.704,-0.554 -3.338,-0.554Z" style="fill:#3eadd7;fill-rule:nonzero;"/><path d="M2237.8,198.754l24.896,0l0,12.413l-9.963,0l0,11.758l9.325,0l0,11.796l-9.325,0l0,13.637l10.955,0l0,12.409l-25.888,0l0,-62.013Z" style="fill:#3eadd7;fill-rule:nonzero;"/><path d="M2327.84,221.579l-14.929,0l0,-5.629c0,-3.546 -0.138,-5.771 -0.43,-6.662c-0.283,-0.892 -0.954,-1.342 -2.02,-1.342c-0.917,0 -1.55,0.383 -1.88,1.15c-0.329,0.767 -0.495,2.733 -0.495,5.9l-0.001,29.762c0.001,2.78 0.167,4.613 0.496,5.492c0.33,0.883 0.996,1.321 1.988,1.321c1.087,0 1.825,-0.496 2.217,-1.496c0.391,-0.992 0.583,-2.933 0.583,-5.817l0,-7.354l-3.013,0l0,-9.425l17.484,0l0,33.288l-9.396,0l-1.388,-4.446c-1.012,1.917 -2.295,3.35 -3.845,4.312c-1.546,0.955 -3.371,1.43 -5.48,1.43c-2.504,0 -4.85,-0.65 -7.037,-1.971c-2.188,-1.313 -3.85,-2.938 -4.983,-4.884c-1.134,-1.937 -1.842,-3.97 -2.125,-6.108c-0.288,-2.133 -0.43,-5.333 -0.43,-9.592l0,-18.425c0,-5.92 0.296,-10.225 0.888,-12.908c0.592,-2.675 2.292,-5.137 5.092,-7.371c2.795,-2.229 6.42,-3.35 10.866,-3.35c4.375,0 8.004,0.971 10.888,2.909c2.883,1.945 4.762,4.245 5.637,6.916c0.875,2.667 1.313,6.542 1.313,11.625l0,2.675Z" style="fill:#3eadd7;fill-rule:nonzero;"/><path d="M2367.56,198.754l0,41.446c0,4.696 -0.146,7.996 -0.434,9.9c-0.279,1.9 -1.121,3.858 -2.517,5.863c-1.395,2.004 -3.229,3.52 -5.512,4.554c-2.279,1.037 -4.971,1.554 -8.067,1.554c-3.429,0 -6.454,-0.613 -9.079,-1.838c-2.621,-1.229 -4.587,-2.825 -5.887,-4.787c-1.3,-1.967 -2.071,-4.042 -2.304,-6.225c-0.238,-2.183 -0.355,-6.771 -0.355,-13.771l0,-36.692l14.93,0l0,46.5c0,2.705 0.137,4.434 0.408,5.188c0.271,0.754 0.821,1.129 1.65,1.129c0.946,0 1.554,-0.412 1.825,-1.242c0.275,-0.833 0.408,-2.791 0.408,-5.883l0,-45.692l14.934,0l-0.001,-0.004Z" style="fill:#3eadd7;fill-rule:nonzero;"/><path d="M2399.12,198.754l8.546,62.017l-15.279,0l-0.75,-11.15l-5.355,0l-0.883,11.15l-15.462,0l7.587,-62.017l21.596,0Zm-7.909,39.875c-0.758,-7.025 -1.512,-15.691 -2.27,-26.008c-1.513,11.846 -2.459,20.517 -2.838,26.008l5.109,0Z" style="fill:#3eadd7;fill-rule:nonzero;"/><path d="M2437.67,198.754l-10.892,39.567l0,22.45l-13.825,0l0,-22.45l-10.5,-39.567l13.721,0c2.154,12.079 3.358,20.213 3.617,24.4c0.833,-6.617 2.212,-14.746 4.15,-24.4l13.729,0Z" style="fill:#3eadd7;fill-rule:nonzero;"/><path d="M2462.39,198.754l8.546,62.017l-15.287,0l-0.742,-11.15l-5.354,0l-0.892,11.15l-15.458,0l7.587,-62.017l21.6,0Zm-7.908,39.875c-0.758,-7.025 -1.512,-15.691 -2.271,-26.008c-1.512,11.846 -2.454,20.517 -2.837,26.008l5.108,0Z" style="fill:#3eadd7;fill-rule:nonzero;"/><path d="M2507.64,260.771l0,7.504l-11.28,0c-2.716,0 -4.633,-0.225 -5.741,-0.675c-1.113,-0.442 -1.863,-1.113 -2.255,-2.008c-0.387,-0.892 -0.583,-2.5 -0.583,-4.821c-3.379,-0.109 -6.287,-1.067 -8.729,-2.879c-2.429,-1.813 -4.042,-4.113 -4.821,-6.913c-0.775,-2.796 -1.171,-6.975 -1.171,-12.541l0,-19.192c0,-4.213 0.234,-7.421 0.692,-9.633c0.467,-2.209 1.417,-4.292 2.858,-6.246c1.442,-1.95 3.296,-3.421 5.571,-4.421c2.267,-0.992 4.784,-1.496 7.55,-1.496c3.333,0 6.308,0.613 8.921,1.842c2.612,1.225 4.563,2.783 5.85,4.671c1.287,1.891 2.129,3.854 2.521,5.883c0.387,2.025 0.583,5.046 0.583,9.054l0,20.146c0,5.521 -0.25,9.258 -0.746,11.225c-0.496,1.971 -1.446,3.529 -2.854,4.692c-1.404,1.166 -3.279,2.049 -5.625,2.666c0.075,1.375 0.342,2.246 0.8,2.604c0.458,0.359 1.554,0.538 3.279,0.538l5.18,0Zm-14.971,-46.084c0,-2.883 -0.142,-4.729 -0.434,-5.537c-0.3,-0.8 -0.908,-1.204 -1.829,-1.204c-0.779,0 -1.375,0.329 -1.791,0.983c-0.409,0.646 -0.625,2.571 -0.625,5.758l0,28.959c0,3.6 0.137,5.825 0.408,6.666c0.275,0.842 0.904,1.263 1.904,1.263c1.013,0 1.663,-0.483 1.946,-1.454c0.283,-0.971 0.425,-3.284 0.425,-6.934l0,-28.5l-0.004,0Z" style="fill:#3eadd7;fill-rule:nonzero;"/><path d="M2547.1,198.754l0,41.446c0,4.696 -0.137,7.996 -0.421,9.9c-0.287,1.9 -1.125,3.858 -2.521,5.863c-1.4,2.004 -3.233,3.52 -5.516,4.554c-2.284,1.037 -4.967,1.554 -8.067,1.554c-3.429,0 -6.454,-0.613 -9.075,-1.838c-2.625,-1.229 -4.587,-2.825 -5.892,-4.787c-1.3,-1.967 -2.07,-4.042 -2.304,-6.225c-0.233,-2.183 -0.35,-6.771 -0.35,-13.771l0,-36.692l14.925,0l0,46.5c0,2.705 0.138,4.434 0.409,5.188c0.275,0.754 0.825,1.129 1.65,1.129c0.945,0 1.55,-0.412 1.825,-1.242c0.27,-0.833 0.408,-2.791 0.408,-5.883l0,-45.692l14.929,0l0,-0.004Z" style="fill:#3eadd7;fill-rule:nonzero;"/><rect x="2552.88" y="198.754" width="14.929" height="62.008" style="fill:#3eadd7;"/><path d="M2588.74,198.754l0,49.604l9.079,0l0,12.413l-24.009,0l0,-62.017l14.93,0Z" style="fill:#3eadd7;fill-rule:nonzero;"/><path d="M2211.35,434.892l94.946,-10.704l-6.546,-12.384l-16.387,3.342l13.104,-6.625l-6.563,-10.708l-78.554,37.079Z" style="fill:#d6d6db;fill-rule:nonzero;"/><path d="M2344.03,473.621c0,0 249.083,-86.588 250.979,-91.592c1.904,-5.008 -6.85,-11.029 -24.546,-6.758c-17.67,4.308 -145.72,20.3 -145.72,20.3l-13.271,14.375l138.358,-20.059l-169.325,57.98l30.967,-37.917l65.721,-72.288c0,0 -15.813,-4.308 -22.763,0.726c-6.971,4.991 -83.862,32.895 -83.862,32.895l-0.638,10.746l54.813,-22.187l-35.392,40.087l-20.696,3.567l-0.621,10.716l8.679,-1.429l-8.058,10.309l-0.621,29.075l-24.004,21.454Z" style="fill:#d6d6db;fill-rule:nonzero;"/><path d="M2349.76,384.088l21.633,-15.542l-2.704,86.375l-22.104,18.583l3.175,-89.417Z" style="fill:#cbc3c0;fill-rule:nonzero;"/><path d="M2350.2,384.379l-3.117,88.059l21.159,-17.792l2.662,-85.167l-20.704,14.9Zm-4.091,90.167l0.033,-1.075l3.175,-89.667l0.2,-0.146l22.354,-16.091l-0.025,0.979l-2.712,86.646l-0.18,0.15l-22.845,19.204Z" style="fill:#cbc3c0;fill-rule:nonzero;"/><path d="M2286.97,366.379l21.95,-15.421l23.696,35.842l-1.305,45.338l-44.341,-65.759Z" style="fill:#cbc3c0;fill-rule:nonzero;"/><path d="M2219.4,347.763l22.371,-14.409l-0.421,45.675l-21.125,21.808l-0.825,-53.075Z" style="fill:#cbc3c0;fill-rule:nonzero;"/><path d="M2219.87,348.067l0.8,51.633l20.237,-20.917l0.413,-44.525l-21.45,13.809Zm-0.063,53.921l-0.858,-54.542l23.291,-14.971l-0.429,46.771l-0.15,0.158l-21.854,22.583Z" style="fill:#cbc3c0;fill-rule:nonzero;"/><path d="M2278.76,384.667l-3.845,-6.38l-58.488,54.738l27.342,-13.333l34.991,-35.025Z" style="fill:#cbc3c0;fill-rule:nonzero;"/><path d="M2274.83,379.029l-55.646,52.084l24.338,-11.85l34.625,-34.659l-3.317,-5.575Zm-58.213,54.471l-0.475,-0.875l58.875,-55.113l4.35,7.246l-35.425,35.417l-27.324,13.325Z" style="fill:#cbc3c0;fill-rule:nonzero;"/><path d="M2201.86,342.083l1.088,81.646c0,0 4.212,14.2 13.479,9.296l57.871,-54.225l64.162,95.242c0,0 11.83,3.933 10.142,-9.259l2.529,-81.1l-19.008,-5.387l-0.825,53.725l-44.329,-65.95l-24.929,-7.804l-41.805,41.516l-0.829,-52.275l-17.546,-5.425Z" style="fill:#938379;fill-rule:nonzero;"/><path d="M2338.72,473.579c0.425,0.142 1.808,0.496 3.362,0.496c2.238,0 3.909,-0.708 4.942,-2.075c1.158,-1.529 1.533,-3.937 1.117,-7.15l2.521,-80.771l-18.101,-5.112l-0.841,54.546l-0.779,-1.167l-44.238,-65.808l-24.55,-7.709l-42.35,42.071l-0.841,-52.987l-16.642,-5.146l1.079,80.879c0.287,0.917 3.3,9.879 9.262,9.879c1.121,0 2.313,-0.313 3.53,-0.95l58.17,-54.521l64.359,95.525Zm3.362,1.542c-2.012,0 -3.687,-0.538 -3.754,-0.571l-0.142,-0.046l-0.091,-0.141l-63.875,-94.838l-57.6,53.975c-1.346,0.696 -2.692,1.075 -3.959,1.075c-6.895,0 -10.012,-10.225 -10.145,-10.671l-0.025,-0.158l-1.1,-82.35l18.466,5.729l0.009,0.379l0.795,51.163l41.255,-40.954l25.312,7.912l0.083,0.121l43.55,64.787l0.821,-52.879l19.917,5.613l-2.563,81.541c0.459,3.413 0,6.075 -1.32,7.867c-1.209,1.588 -3.15,2.446 -5.634,2.446" style="fill:#938379;fill-rule:nonzero;"/><path d="M2210.97,250.667l30.504,0.504l51.375,78.912l-17.954,18.625l-63.925,-98.041Z" style="fill:#a1a2a9;fill-rule:nonzero;"/><path d="M2211.88,251.225l63.083,96.717l17.284,-17.925l-50.996,-78.338l-29.371,-0.454Zm62.95,98.246l-0.296,-0.454l-64.483,-98.863l31.658,0.509l0.129,0.195l51.617,79.3l-0.296,0.309l-18.329,19.004Z" style="fill:#a1a2a9;fill-rule:nonzero;"/><path d="M2340.68,283.958l22.904,-12.054c0,0 9.358,1.079 10.654,11.013l-3.229,86.025l-20.004,14.871l1.633,-90.63c0,0 -6.141,-9.583 -11.958,-9.225" style="fill:#a1a2a9;fill-rule:nonzero;"/><path d="M2342.44,283.6c5.35,1.258 10.321,8.908 10.546,9.267l0.1,0.137l0,0.179l-1.617,89.65l19.083,-14.2l3.238,-85.729c-1.15,-8.75 -9.084,-10.283 -10.129,-10.462l-21.221,11.158Zm8.091,101.158l0,-0.954l1.638,-90.462c-0.771,-1.163 -6.333,-9.221 -11.467,-8.859l-0.221,-0.991l23.03,-12.1l0.112,0.012c0.104,0.004 9.738,1.229 11.063,11.442l-3.242,86.379l-20.913,15.533Z" style="fill:#a1a2a9;fill-rule:nonzero;"/><path d="M2217.43,348.488l25.692,-14.717l0,-4.367l-24.938,-33.404l-0.754,52.488Z" style="fill:#a1a2a9;fill-rule:nonzero;"/><path d="M2218.62,297.375l-0.729,50.279l24.766,-14.204l0,-3.854l-24.037,-32.221Zm-1.655,51.963l0.013,-0.85l0.767,-53.863l25.816,34.588l0,4.887l-26.596,15.238Z" style="fill:#a1a2a9;fill-rule:nonzero;"/><path d="M2287.5,366.279l19.083,-13.037l27.159,-29.292l-46.242,42.329Z" style="fill:#acadb3;fill-rule:nonzero;"/><path d="M2325.33,332.337l-32.35,29.617l13.383,-9.158l18.967,-20.458Zm-37.596,34.395l-0.5,-0.85l46.246,-42.329l0.592,0.788l-27.18,29.291l-19.158,13.1Z" style="fill:#acadb3;fill-rule:nonzero;"/><path d="M2201.96,344.979l-1.263,-84.787c0,0 -0.638,-6.575 10.254,-9.488l62.467,96.092l67.141,-62.659c0,0 12.68,1.455 12.68,14.963l-2.542,84.775l-18.983,-3.854l1.67,-56.363l-46.845,43.355l-25.355,-6.734l-42.62,-64.55l0.87,52.338l-17.475,-3.088Z" style="fill:#371711;fill-rule:nonzero;"/><path d="M2332.17,379.596l18.1,3.687l2.504,-84.216c0,-12.005 -10.554,-14.138 -12.071,-14.388l-67.362,62.85l-0.271,-0.433l-62.304,-95.8c-10.025,2.791 -9.634,8.596 -9.621,8.837l1.267,84.388l16.566,2.946l-0.904,-53.313l43.379,65.65l24.967,6.654l47.454,-43.916l-1.704,57.054Zm18.971,4.912l-19.892,-4.05l1.667,-55.675l-46.271,42.792l-0.208,-0.038l-25.509,-6.791l-0.108,-0.163l-41.783,-63.275l0.862,51.388l-18.375,-3.279l0,-0.442l-1.271,-84.771c-0.029,-0.25 -0.558,-7.012 10.592,-10.012l0.283,-0.075l62.371,95.912l66.933,-62.429l0.18,0.013c0.137,0.025 13.07,1.675 13.07,15.487l-2.541,85.408Z" style="fill:#371711;fill-rule:nonzero;"/></g><g><path d="M1295.48,496.967l12.354,0l-0.354,-7.592c-0.262,-5.646 -0.529,-11.029 -0.704,-17.121l-0.35,0c-2.475,5.913 -4.683,11.384 -7.416,17.121l-3.53,7.592Zm5.913,-33.984l14.475,0l5.733,57.555l-12.617,0l-0.704,-14.48l-17.129,0l-6.792,14.48l-13.329,0l30.363,-57.555Z" style="fill:#08c2f1;fill-rule:nonzero;"/><path d="M1324.61,513.033c0,-1.587 0.18,-3.175 0.617,-5.383l9.796,-48.988l12.096,0l-9.975,49.513c-0.175,0.883 -0.175,1.237 -0.175,1.683c0,1.496 0.791,2.025 1.675,2.025c0.529,0 0.796,0 1.591,-0.175l-0.354,8.917c-1.504,0.529 -3.621,0.971 -6.446,0.971c-6.262,0 -8.825,-3.271 -8.825,-8.563" style="fill:#08c2f1;fill-rule:nonzero;"/><path d="M1344.65,503.588c0,-15.184 11.383,-27.892 25.771,-27.892c5.471,0 9.529,2.65 11.741,5.387l-6.708,7.146c-1.767,-1.854 -3.354,-2.825 -5.825,-2.825c-6.975,0 -12.625,8.125 -12.625,17.917c0,5.296 2.471,8.562 7.413,8.562c3.004,0 5.12,-1.408 6.975,-2.825l5.033,7.413c-3.267,2.475 -7.771,5.121 -14.654,5.121c-9.709,0 -17.121,-6.617 -17.121,-18.004" style="fill:#08c2f1;fill-rule:nonzero;"/><path d="M1406.08,505.263l3.088,-15.534c-1.409,-2.908 -3.792,-4.146 -5.825,-4.146c-6.092,0 -11.738,7.946 -11.738,18.446c0,5.3 1.942,7.675 5.121,7.675c2.912,0 6.529,-1.491 9.354,-6.442m-27.013,0.267c0,-16.683 11.305,-29.833 23.392,-29.833c3.971,0 7.858,2.208 9.538,5.737l0.17,0l1.946,-4.675l9.617,0l-8.733,43.779l-9.8,0l0.179,-5.737l-0.267,0c-3.971,4.146 -9.092,6.796 -13.683,6.796c-7.675,0 -12.359,-5.738 -12.359,-16.067" style="fill:#08c2f1;fill-rule:nonzero;"/><path d="M1424.79,513.033c0,-1.587 0.175,-3.175 0.616,-5.383l9.796,-48.988l12.096,0l-9.975,49.513c-0.179,0.883 -0.179,1.237 -0.179,1.683c0,1.496 0.796,2.025 1.679,2.025c0.533,0 0.792,0 1.587,-0.175l-0.35,8.917c-1.504,0.529 -3.62,0.971 -6.446,0.971c-6.266,0 -8.825,-3.271 -8.825,-8.563" style="fill:#08c2f1;fill-rule:nonzero;"/><path d="M1472.01,505.263l3.088,-15.534c-1.413,-2.908 -3.796,-4.146 -5.821,-4.146c-6.092,0 -11.746,7.946 -11.746,18.446c0,5.3 1.942,7.675 5.125,7.675c2.913,0 6.35,-1.491 9.354,-6.442m6.617,-32.566l2.65,-14.033l12.092,0l-12.446,61.875l-9.796,0l0.175,-5.738l-0.267,0c-3.971,4.146 -9.087,6.796 -13.675,6.796c-7.683,0 -12.358,-5.738 -12.358,-16.067c0,-16.683 11.296,-29.833 23.392,-29.833c3.97,0 7.233,2.121 8.912,5.3l0.263,0l1.058,-8.3Z" style="fill:#08c2f1;fill-rule:nonzero;"/><path d="M1496.98,462.633l16.33,-14.65l7.237,9.18l-18.271,12.358l-5.296,-6.888Zm0,14.125l12.005,0l-8.738,43.779l-12.087,0l8.82,-43.779Z" style="fill:#08c2f1;fill-rule:nonzero;"/><path d="M1536.53,505.263l3.088,-15.534c-1.413,-2.908 -3.792,-4.146 -5.825,-4.146c-6.092,0 -11.742,7.946 -11.742,18.446c0,5.3 1.946,7.675 5.121,7.675c2.916,0 6.537,-1.491 9.358,-6.442m-27.008,0.267c0,-16.683 11.296,-29.833 23.387,-29.833c3.975,0 7.859,2.208 9.534,5.737l0.179,0l1.937,-4.675l9.621,0l-8.737,43.779l-9.796,0l0.179,-5.737l-0.267,0c-3.971,4.146 -9.091,6.796 -13.679,6.796c-7.683,0 -12.358,-5.738 -12.358,-16.067" style="fill:#08c2f1;fill-rule:nonzero;"/><path d="M1570.86,497.5c0,-19.862 13.416,-35.571 31.508,-35.571c7.417,0 12.796,3.442 16.067,9.179l-8.213,6.355c-2.204,-3.355 -4.767,-5.034 -8.471,-5.034c-10.679,0 -18.446,11.475 -18.446,24.275c0,8.825 3.442,14.563 12.446,14.563c2.379,0 4.675,-0.796 6.263,-1.938l2.471,-11.304l-9.442,0l1.854,-9.883l20.033,0l-5.291,27.45c-4.417,3.441 -10.771,6.004 -18.005,6.004c-14.212,0 -22.774,-8.913 -22.774,-24.096" style="fill:#08c2f1;fill-rule:nonzero;"/><path d="M1654.36,520.538l-9.795,0l0.179,-5.917l-0.359,0c-3.97,3.704 -9,6.975 -14.3,6.975c-7.233,0 -10.325,-3.975 -10.325,-11.3c0,-1.938 0.267,-3.971 0.709,-6.175l5.475,-27.363l12,0l-5.121,25.863c-0.442,1.758 -0.704,3 -0.704,4.146c0,3 1.587,4.5 4.416,4.5c2.555,0 5.292,-1.767 8.734,-5.646l5.65,-28.863l12.096,0l-8.655,43.78Z" style="fill:#08c2f1;fill-rule:nonzero;"/><path d="M1690.64,505.263l3.087,-15.534c-1.413,-2.908 -3.796,-4.146 -5.829,-4.146c-6.084,0 -11.738,7.946 -11.738,18.446c0,5.3 1.942,7.675 5.125,7.675c2.909,0 6.529,-1.491 9.354,-6.442m-27.008,0.267c0,-16.683 11.296,-29.833 23.392,-29.833c3.971,0 7.85,2.208 9.529,5.737l0.179,0l1.938,-4.675l9.616,0l-8.733,43.779l-9.796,0l0.175,-5.737l-0.267,0c-3.97,4.146 -9.091,6.796 -13.679,6.796c-7.679,0 -12.354,-5.738 -12.354,-16.067" style="fill:#08c2f1;fill-rule:nonzero;"/><path d="M1702.99,535.892l3.704,-8.65c0.883,0.529 2.121,0.883 3.271,0.883c3.179,0 6.354,-2.467 8.296,-6.35l1.058,-2.208l-7.588,-42.809l12,0l2.034,19.771c0.437,3.792 0.704,9 0.787,13.15l0.359,0c1.854,-4.058 3.97,-9.179 5.825,-13.15l9.179,-19.771l11.741,0l-23.658,44.746c-6.087,10.504 -11.737,16.154 -20.742,16.154c-1.591,0 -4.5,-0.796 -6.266,-1.766" style="fill:#08c2f1;fill-rule:nonzero;"/><path d="M1775.63,505.263l3.092,-15.534c-1.417,-2.908 -3.8,-4.146 -5.825,-4.146c-6.092,0 -11.742,7.946 -11.742,18.446c0,5.3 1.938,7.675 5.121,7.675c2.908,0 6.529,-1.491 9.354,-6.442m-27.008,0.267c0,-16.683 11.296,-29.833 23.392,-29.833c3.97,0 7.854,2.208 9.529,5.737l0.179,0l1.942,-4.675l9.62,0l-8.741,43.779l-9.792,0l0.171,-5.737l-0.267,0c-3.971,4.146 -9.083,6.796 -13.679,6.796c-7.679,0 -12.354,-5.738 -12.354,-16.067" style="fill:#08c2f1;fill-rule:nonzero;"/><path d="M1820.82,505.263l3.087,-15.534c-1.408,-2.908 -3.791,-4.146 -5.825,-4.146c-6.087,0 -11.733,7.946 -11.733,18.446c0,5.3 1.938,7.675 5.121,7.675c2.733,0 6.354,-1.491 9.35,-6.442m-0.704,9.538l-0.179,0c-3.971,4.146 -9.18,6.796 -13.767,6.796c-7.679,0 -12.354,-5.738 -12.354,-16.067c0,-16.683 11.296,-29.833 23.391,-29.833c3.971,0 7.85,2.208 9.53,5.737l0.175,0l1.941,-4.675l9.621,0l-12.004,60.017l-12.092,0l2.471,-11.829l3.267,-10.146Z" style="fill:#08c2f1;fill-rule:nonzero;"/><path d="M1874.31,520.538l-9.795,0l0.179,-5.917l-0.354,0c-3.971,3.704 -9.005,6.975 -14.3,6.975c-7.238,0 -10.325,-3.975 -10.325,-11.3c0,-1.938 0.266,-3.971 0.704,-6.175l5.475,-27.363l12.004,0l-5.121,25.863c-0.446,1.758 -0.708,3 -0.708,4.146c0,3 1.591,4.5 4.416,4.5c2.555,0 5.292,-1.767 8.738,-5.646l5.646,-28.863l12.096,0l-8.655,43.78Z" style="fill:#08c2f1;fill-rule:nonzero;"/><path d="M1892.67,464.4c0,-3.888 3.354,-7.154 7.504,-7.154c3.354,0 6.533,2.033 6.533,5.829c0,4.146 -3.266,7.15 -7.504,7.15c-3.267,0 -6.533,-1.942 -6.533,-5.825m-1.763,12.358l12.004,0l-8.741,43.779l-12.088,0l8.825,-43.779Z" style="fill:#08c2f1;fill-rule:nonzero;"/><path d="M1903.97,513.033c0,-1.587 0.179,-3.175 0.616,-5.383l9.796,-48.988l12.096,0l-9.975,49.513c-0.175,0.883 -0.175,1.237 -0.175,1.683c0,1.496 0.792,2.025 1.675,2.025c0.533,0 0.796,0 1.588,-0.175l-0.351,8.917c-1.504,0.529 -3.62,0.971 -6.445,0.971c-6.267,0 -8.825,-3.271 -8.825,-8.563" style="fill:#08c2f1;fill-rule:nonzero;"/><path d="M1553.21,219.996l-102.633,21.5l69.429,42.7l-81.908,145.6l132.987,-104.242l118.271,85.934l-15.775,-55.492c0.867,-7.604 4.992,-13.871 11.571,-17.754c12,-7.075 27.325,-6.096 40.621,-4.559c11.446,1.325 22.796,3.8 34.5,3.938c16.571,0.2 33.175,-2.429 48.866,-7.754c21.242,-7.209 37.209,-20.559 55.096,-33.492c-0.254,0.183 -32.091,22.983 -90.633,9.325c-19.163,-4.471 -38.95,-9.704 -58.621,-11.392c-24.15,-2.066 -48.2,2.8 -60.171,25.771c-3.533,6.775 -5.696,14.25 -6.779,21.796c-0.15,1.004 -1.754,9.15 -0.737,9.842c-0.05,-0.034 -73.992,-50.517 -73.992,-50.517l-80.971,68.225l48.704,-95.187l-47.595,-29.888l69.733,-12.179l38.646,-75.142l1.2,-2.333l16.087,66.054l89.854,-17.758c0,0 -50.9,42.104 -47.133,40.071c3.763,-2.03 49.783,-40.605 116.95,-26.384c28.417,6.017 57.725,11.196 86.846,7.963c26.65,-2.954 52.591,-14.171 75.054,-28.492c18.904,-12.05 35.358,-26.771 53.062,-40.346c-35.704,27.379 -65.983,30.134 -65.983,30.134c-55.742,8.87 -47.446,4.187 -113.875,-6.188c-66.429,-10.371 -105.837,6.621 -105.837,6.621l-74.55,19.992l-27.159,-88.196l-53.125,101.829Zm311.025,76.379l0,-0.004l0,0.004Z" style="fill:url(#_Linear1);fill-rule:nonzero;"/><path d="M1943.59,218.513c-10.213,7.174 -21.334,13.004 -32.98,17.458c-37.541,14.412 -80.333,12.483 -119.579,7.746c-47.746,-5.767 -111.841,-18.288 -145.041,27.041c-1.58,2.154 -8.363,10.342 -7.588,13.438c0.004,0.021 6.642,26.562 6.642,26.562c-0.592,-2.358 8.633,-10.758 10.329,-12.441c25.458,-25.146 65.233,-30.417 99.146,-24.567c42.354,7.304 84.133,10.267 124.604,-7.242c20.3,-8.783 39.183,-21.308 55.358,-36.116c4.25,-3.888 8.338,-7.967 12.146,-12.3l3.913,-4.734c-2.271,1.775 -4.588,3.5 -6.95,5.154Zm-243.984,39.913l-7.208,-3.45l8.65,-1.654l2.329,-8.254l3.017,7.237l8.642,-1.654l-6.784,6.125l3.017,7.233l-7.204,-3.45l-6.788,6.125l2.329,-8.258Zm65.905,-13l3.024,8.921l9.463,1.237l-7.592,4.275l3.025,8.917l-7.712,-6.279l-7.592,4.271l2.821,-8.155l-7.717,-6.27l9.463,1.237l2.817,-8.154Zm54.666,6.746l3.004,7.579l7.617,0.704l-5.754,3.979l3,7.579l-6.563,-5.12l-5.758,3.979l1.704,-7.138l-6.558,-5.121l7.608,0.709l1.7,-7.15Z" style="fill:url(#_Linear2);fill-rule:nonzero;"/><path d="M1446.28,250.204l46.438,41.038l-60.834,131.304l70.909,-132.184l1.279,-2.129l-57.792,-38.029Z" style="fill:#3bc2f0;fill-rule:nonzero;"/><path d="M1570.46,341.329l104.845,72.8l-114.87,-64.937l10.024,-7.863Z" style="fill:#08c2f2;fill-rule:nonzero;"/><path d="M1531.96,216.342l60.155,-94.492l-47.1,91.771l-13.055,2.721Z" style="fill:#3bc2f0;fill-rule:nonzero;"/><path d="M1445.17,263.508l31.341,31.942l-29.866,69.675l34.891,-69.633l0.892,-1.488l-37.258,-30.496Z" style="fill:#3bc2f0;fill-rule:nonzero;"/><path d="M1553.55,354.079l80.217,47.85l-85.113,-44.216l4.896,-3.634Z" style="fill:#3bc2f0;fill-rule:nonzero;"/><path d="M1518.78,218.654l55.271,-83.158l-49.604,81.996l-5.667,1.162Z" style="fill:#3bc2f0;fill-rule:nonzero;"/></g><g><path d="M590.767,199.4l15.379,0l10.741,28.85l3.851,11.225l0.395,0l3.842,-11.225l10.446,-28.85l15.383,0l0,64.204l-13.608,0l0,-23.537c0,-6.3 1.187,-15.655 1.875,-21.863l-0.392,0l-5.225,14.871l-9.958,24.917l-5.817,0l-9.858,-24.917l-5.125,-14.871l-0.392,0c0.692,6.208 1.871,15.563 1.871,21.863l0,23.537l-13.408,0l0,-64.204Z" style="fill:#fff;fill-rule:nonzero;"/><path d="M661.542,199.4l14.496,0l0,35.942c0,12.604 3.937,16.937 11.137,16.937c7.196,0 11.433,-4.333 11.433,-16.937l0,-35.942l13.996,0l0,34.463c0,21.566 -8.771,30.92 -25.429,30.92c-16.658,0 -25.633,-9.354 -25.633,-30.92l0,-34.463Z" style="fill:#fff;fill-rule:nonzero;"/><path d="M732.521,240.758l-19.325,-41.358l15.479,0l5.813,14.771c1.679,4.825 3.354,9.254 5.229,14.179l0.391,0c1.775,-4.925 3.646,-9.354 5.425,-14.179l5.713,-14.771l15.183,0l-19.421,41.358l0,22.842l-14.487,0l0,-22.842Z" style="fill:#fff;fill-rule:nonzero;"/><rect x="802.304" y="199.396" width="14.588" height="64.204" style="fill:#fff;"/><path d="M827.933,199.4l14.592,0l0,51.992l25.333,0l0,12.212l-39.925,0l0,-64.204Z" style="fill:#fff;fill-rule:nonzero;"/><path d="M870.913,199.4l14.491,0l0,35.942c0,12.604 3.942,16.937 11.138,16.937c7.196,0 11.433,-4.333 11.433,-16.937l0,-35.942l14,0l0,34.463c0,21.566 -8.775,30.92 -25.433,30.92c-16.663,0 -25.629,-9.354 -25.629,-30.92l0,-34.463Z" style="fill:#fff;fill-rule:nonzero;"/><path d="M935.875,245.583c4.533,3.942 10.45,6.696 15.771,6.696c6.012,0 8.971,-2.362 8.971,-6.204c0,-4.037 -3.65,-5.317 -9.267,-7.679l-8.279,-3.546c-6.704,-2.662 -13.013,-8.175 -13.013,-17.529c0,-10.633 9.563,-19.104 22.867,-19.104c7.396,0 15.183,2.954 20.704,8.471l-7.296,9.154c-4.237,-3.25 -8.279,-5.117 -13.408,-5.117c-4.925,0 -8.179,2.163 -8.179,5.808c0,3.938 4.242,5.317 9.854,7.58l8.183,3.35c7.788,3.15 12.717,8.37 12.717,17.429c0,10.637 -8.867,19.896 -24.15,19.896c-8.379,0 -17.25,-3.155 -23.854,-9.259l8.379,-9.946Z" style="fill:#fff;fill-rule:nonzero;"/><path d="M992.946,211.608l-17.742,0l0,-12.208l49.884,0l0,12.208l-17.65,0l0,51.996l-14.492,0l0,-51.996Z" style="fill:#fff;fill-rule:nonzero;"/><path d="M1045.68,228.942l7.392,0c7.592,0 11.729,-3.25 11.729,-9.554c0,-6.3 -4.137,-8.471 -11.729,-8.471l-7.392,0l0,18.025Zm20.209,34.662l-12.321,-23.141l-7.888,0l0,23.141l-14.587,0l0,-64.208l23.166,0c13.605,0 24.838,4.729 24.838,19.992c0,9.454 -4.633,15.462 -11.433,18.512l14.491,25.704l-16.266,0Z" style="fill:#fff;fill-rule:nonzero;"/><path d="M1087.78,199.4l40.317,0l0,12.208l-25.73,0l0,12.9l21.888,0l0,12.113l-21.888,0l0,14.771l26.713,0l0,12.212l-41.3,0l0,-64.204Z" style="fill:#fff;fill-rule:nonzero;"/><path d="M590.767,277.404l15.379,0l10.741,28.854l3.851,11.225l0.395,0l3.842,-11.225l10.446,-28.854l15.383,0l0,64.209l-13.608,0l0,-23.538c0,-6.3 1.187,-15.658 1.875,-21.858l-0.392,0l-5.225,14.866l-9.958,24.917l-5.817,0l-9.858,-24.917l-5.125,-14.866l-0.392,0c0.692,6.2 1.871,15.558 1.871,21.858l0,23.538l-13.408,0l0,-64.209Z" style="fill:#fff;fill-rule:nonzero;"/><path d="M661.542,277.404l14.496,0l0,35.942c0,12.608 3.937,16.942 11.137,16.942c7.196,0 11.433,-4.334 11.433,-16.942l0,-35.942l13.996,0l0,34.471c0,21.563 -8.771,30.921 -25.429,30.921c-16.658,0 -25.633,-9.358 -25.633,-30.921l0,-34.471Z" style="fill:#fff;fill-rule:nonzero;"/><path d="M723.25,277.404l14.883,0l16.763,31.904l6.404,14.184l0.392,0c-0.684,-6.796 -1.871,-15.855 -1.871,-23.438l0,-22.65l13.804,0l0,64.208l-14.888,0l-16.758,-32.004l-6.308,-13.983l-0.396,0c0.692,7.087 1.875,15.658 1.875,23.242l0,22.745l-13.9,0l0,-64.208Z" style="fill:#fff;fill-rule:nonzero;"/><rect x="784.758" y="277.404" width="14.587" height="64.204" style="fill:#fff;"/><path d="M837.988,276.225c7.987,0 14.687,3.937 19.029,8.371l-7.988,8.958c-3.254,-2.954 -6.308,-4.825 -10.841,-4.825c-8.971,0 -15.971,7.779 -15.971,20.679c0,13.2 6.208,20.879 15.579,20.879c5.321,0 9.062,-2.266 12.221,-5.712l7.983,8.762c-5.325,6.209 -12.421,9.459 -20.404,9.459c-16.658,0 -30.263,-11.329 -30.263,-32.896c0,-21.267 14.096,-33.675 30.655,-33.675" style="fill:#fff;fill-rule:nonzero;"/><rect x="863.617" y="277.404" width="14.588" height="64.204" style="fill:#fff;"/><path d="M911.817,308.325c7.987,0 11.829,-3.546 11.829,-10.237c0,-6.7 -4.138,-9.163 -11.829,-9.163l-7.984,0l0,19.4l7.984,0Zm-22.571,-30.921l23.458,0c14.004,0 25.138,5.125 25.138,20.684c0,15.066 -11.529,21.758 -25.138,21.758l-8.871,0l0,21.767l-14.587,0l0,-64.209Z" style="fill:#fff;fill-rule:nonzero;"/><path d="M967.317,315.025l-1.575,-5.913c-1.775,-6.399 -3.45,-13.979 -5.229,-20.679l-0.396,0c-1.475,6.796 -3.246,14.28 -5.025,20.68l-1.575,5.912l13.8,0Zm2.958,11.325l-19.717,0l-3.941,15.263l-14.788,0l20.209,-64.209l17.35,0l20.208,64.209l-15.379,0l-3.942,-15.263Z" style="fill:#fff;fill-rule:nonzero;"/><path d="M992.354,277.404l14.592,0l0,51.996l25.333,0l0,12.213l-39.925,0l0,-64.209Z" style="fill:#fff;fill-rule:nonzero;"/><rect x="1039.27" y="277.404" width="14.588" height="64.204" style="fill:#fff;"/><path d="M1082.25,329.892c10.842,0 18.233,-5.317 18.233,-20.679c0,-15.363 -7.391,-20.088 -18.233,-20.088l-2.762,0l0,40.767l2.762,0Zm-17.35,-52.488l18.138,0c19.712,0 32.333,9.75 32.333,31.809c0,22.062 -12.621,32.395 -31.446,32.395l-19.025,0l0,-64.204Z" style="fill:#fff;fill-rule:nonzero;"/><path d="M1149.78,315.025l-1.579,-5.913c-1.775,-6.399 -3.45,-13.979 -5.225,-20.679l-0.396,0c-1.475,6.796 -3.25,14.28 -5.025,20.68l-1.579,5.912l13.804,0Zm2.958,11.325l-19.716,0l-3.942,15.263l-14.788,0l20.209,-64.209l17.35,0l20.208,64.209l-15.379,0l-3.942,-15.263Z" style="fill:#fff;fill-rule:nonzero;"/><path d="M1192.16,329.892c10.841,0 18.233,-5.317 18.233,-20.679c0,-15.363 -7.392,-20.088 -18.233,-20.088l-2.763,0l0,40.767l2.763,0Zm-17.35,-52.488l18.137,0c19.717,0 32.333,9.75 32.333,31.809c0,22.062 -12.616,32.395 -31.446,32.395l-19.024,0l0,-64.204Z" style="fill:#fff;fill-rule:nonzero;"/><path d="M608.121,407.9c10.842,0 18.233,-5.317 18.233,-20.679c0,-15.363 -7.391,-20.088 -18.233,-20.088l-2.763,0l0,40.767l2.763,0Zm-17.354,-52.487l18.141,0c19.713,0 32.334,9.75 32.334,31.808c0,22.058 -12.621,32.396 -31.446,32.396l-19.029,0l0,-64.204Z" style="fill:#fff;fill-rule:nonzero;"/><path d="M649.317,355.417l40.325,0l0,12.204l-25.734,0l0,12.904l21.884,0l0,12.112l-21.884,0l0,14.771l26.717,0l0,12.209l-41.308,0l0,-64.2Z" style="fill:#fff;fill-rule:nonzero;"/><path d="M744.346,354.229c9.071,0 15.671,4.038 20.012,8.371l-7.987,8.963c-3.254,-2.955 -6.308,-4.825 -11.829,-4.825c-9.859,0 -16.954,7.779 -16.954,20.679c0,13.195 6.012,20.875 18.137,20.875c2.563,0 5.229,-0.684 6.804,-1.967l0,-11.029l-10.65,0l0,-11.813l23.558,0l0,29.538c-4.633,4.037 -12.612,7.779 -21.583,7.779c-17.35,0 -31.15,-11.325 -31.15,-32.892c0,-21.271 14.196,-33.679 31.642,-33.679" style="fill:#fff;fill-rule:nonzero;"/><path d="M774.208,355.417l14.496,0l0,35.941c0,12.604 3.942,16.934 11.138,16.934c7.196,0 11.433,-4.33 11.433,-16.934l0,-35.941l14,0l0,34.462c0,21.567 -8.775,30.921 -25.433,30.921c-16.663,0 -25.634,-9.354 -25.634,-30.921l0,-34.462Z" style="fill:#fff;fill-rule:nonzero;"/><path d="M862.042,393.033l-1.579,-5.912c-1.775,-6.4 -3.451,-13.979 -5.221,-20.679l-0.396,0c-1.483,6.796 -3.254,14.279 -5.029,20.679l-1.579,5.912l13.804,0Zm2.954,11.325l-19.713,0l-3.941,15.263l-14.788,0l20.204,-64.208l17.354,0l20.209,64.208l-15.379,0l-3.946,-15.263Z" style="fill:#fff;fill-rule:nonzero;"/><path d="M896.346,396.775l-19.321,-41.358l15.479,0l5.813,14.77c1.679,4.826 3.354,9.255 5.229,14.176l0.391,0c1.775,-4.921 3.646,-9.35 5.421,-14.176l5.717,-14.77l15.183,0l-19.42,41.358l0,22.842l-14.492,0l0,-22.842Z" style="fill:#fff;fill-rule:nonzero;"/><path d="M958.546,393.033l-1.575,-5.912c-1.775,-6.4 -3.45,-13.979 -5.225,-20.679l-0.396,0c-1.479,6.796 -3.25,14.279 -5.029,20.679l-1.575,5.912l13.8,0Zm2.958,11.325l-19.712,0l-3.942,15.263l-14.787,0l20.204,-64.208l17.35,0l20.208,64.208l-15.379,0l-3.942,-15.263Z" style="fill:#fff;fill-rule:nonzero;"/><path d="M1008.43,408.292c8.771,0 14.288,-8.171 14.288,-21.071c0,-12.8 -5.517,-20.479 -14.288,-20.479c-8.775,0 -14.296,7.679 -14.296,20.479c0,12.9 5.521,21.071 14.296,21.071m32.525,26.787c-2.366,1.184 -6.408,2.067 -11.333,2.067c-13.604,0 -23.267,-6.988 -27.8,-17.034c-13.704,-2.854 -22.575,-14.77 -22.575,-32.891c0,-20.975 11.829,-32.988 29.183,-32.988c17.346,0 29.175,12.109 29.175,32.988c0,17.233 -7.983,28.85 -20.404,32.396c2.958,4.433 8.675,6.008 14.096,6.008c2.758,0 5.225,-0.488 7.1,-1.179l2.558,10.633Z" style="fill:#fff;fill-rule:nonzero;"/><path d="M1045.68,355.417l14.492,0l0,35.941c0,12.604 3.942,16.934 11.138,16.934c7.195,0 11.437,-4.33 11.437,-16.934l0,-35.941l13.996,0l0,34.462c0,21.567 -8.771,30.921 -25.433,30.921c-16.655,0 -25.63,-9.354 -25.63,-30.921l0,-34.462Z" style="fill:#fff;fill-rule:nonzero;"/><rect x="1107.39" y="355.413" width="14.588" height="64.204" style="fill:#fff;"/><path d="M1133.02,355.417l14.592,0l0,51.991l25.333,0l0,12.209l-39.925,0l0,-64.2Z" style="fill:#fff;fill-rule:nonzero;"/><path d="M596.375,462.317c5.225,0 8.096,-2.184 8.096,-6.409c0,-3.041 -2.096,-4.362 -5.825,-4.362l-3.908,0l-2.092,10.771l3.729,0Zm-5.729,-14.679l8.912,0c5.684,0 9.775,2.137 9.775,7.587c0,7.771 -5.825,11 -13.37,11l-4.138,0l-2.183,11.129l-4.909,0l5.913,-29.716Z" style="fill:#08c2f1;fill-rule:nonzero;"/><path d="M623.571,463.725c0,-3.363 -1.363,-5.271 -3.913,-5.271c-3.545,0 -6.862,4.496 -6.862,10.175c0,3.363 1.362,5.321 3.954,5.321c3.55,0 6.821,-4.5 6.821,-10.225m-15.688,5.088c0,-8.542 6.188,-14.313 12.28,-14.313c5.045,0 8.366,3.496 8.366,9.088c0,8.5 -6.183,14.312 -12.321,14.312c-5.008,0 -8.325,-3.542 -8.325,-9.087" style="fill:#08c2f1;fill-rule:nonzero;"/><path d="M633.808,455.046l3.959,0l-0.413,4.317l0.184,0c1.775,-2.771 4.229,-4.863 6.912,-4.863c0.954,0 1.633,0.138 2.229,0.408l-1.637,4.275c-0.546,-0.275 -1.321,-0.362 -2.096,-0.362c-2.088,0 -4.225,1.633 -6.046,5.037l-2.637,13.496l-4.913,0l4.458,-22.308Z" style="fill:#08c2f1;fill-rule:nonzero;"/><path d="M652.688,465.679c0,-9.862 6.495,-18.583 16.05,-18.583c3.679,0 6.275,1.817 7.866,4.542l-3.362,2.587c-1.142,-1.817 -2.596,-2.904 -4.775,-2.904c-6.463,0 -10.784,7.083 -10.784,13.996c0,4.904 2.005,8.404 7.188,8.404c1.683,0 3.137,-0.592 4.137,-1.408l1.455,-6.996l-5.505,0l0.775,-4.004l9.871,0l-2.683,13.541c-2.183,1.775 -5.275,3.046 -8.863,3.046c-7.233,0 -11.37,-4.679 -11.37,-12.221" style="fill:#08c2f1;fill-rule:nonzero;"/><path d="M694.438,477.354l-3.959,0l0.184,-3.179l-0.184,0c-2.225,2 -4.771,3.725 -7.454,3.725c-3.729,0 -5.321,-2.092 -5.321,-5.633c0,-1.046 0.138,-2 0.367,-3.134l2.821,-14.091l4.858,0l-2.683,13.454c-0.225,1.041 -0.363,1.679 -0.363,2.362c0,1.904 0.913,2.863 2.775,2.863c1.5,0 3.275,-1.092 5.504,-3.454l3,-15.225l4.867,0l-4.412,22.312Z" style="fill:#08c2f1;fill-rule:nonzero;"/><path d="M713.996,470.133l1.821,-8.908c-1.004,-1.908 -2.413,-2.725 -3.775,-2.725c-3.775,0 -7.23,4.858 -7.23,10.583c0,3.271 1.271,4.821 3.317,4.821c1.909,0 4.05,-1.092 5.867,-3.771m-14.234,-0.366c0,-8.542 5.821,-15.267 12.005,-15.267c2.183,0 4.137,1.229 5.141,3.137l0.088,0l0.958,-2.591l3.904,0l-4.454,22.308l-4,0l0.229,-3.087l-0.137,0c-2.092,2.179 -4.821,3.633 -7.367,3.633c-3.908,0 -6.366,-2.908 -6.366,-8.133" style="fill:#08c2f1;fill-rule:nonzero;"/><path d="M718.913,485.717l1.55,-3.546c0.45,0.275 1.041,0.454 1.633,0.454c1.908,0 3.775,-1.637 5.004,-4.137l0.683,-1.363l-3.866,-22.079l4.862,0l1.409,11.267c0.229,2 0.458,4.591 0.549,6.679l0.18,0c1,-2.088 2.091,-4.588 3.137,-6.679l5.55,-11.267l4.729,0l-12.55,23.492c-2.775,4.862 -5.55,7.995 -10.004,7.995c-0.729,0 -2.004,-0.316 -2.866,-0.816" style="fill:#08c2f1;fill-rule:nonzero;"/><path d="M756.388,470.133l1.82,-8.908c-1,-1.908 -2.412,-2.725 -3.771,-2.725c-3.779,0 -7.233,4.858 -7.233,10.583c0,3.271 1.271,4.821 3.321,4.821c1.908,0 4.046,-1.092 5.862,-3.771m-14.233,-0.366c0,-8.542 5.825,-15.267 12.004,-15.267c2.184,0 4.142,1.229 5.142,3.137l0.092,0l0.958,-2.591l3.904,0l-4.454,22.308l-4.004,0l0.229,-3.087l-0.133,0c-2.096,2.179 -4.825,3.633 -7.371,3.633c-3.909,0 -6.367,-2.908 -6.367,-8.133" style="fill:#08c2f1;fill-rule:nonzero;"/><path d="M779.317,470.133l1.816,-8.908c-1,-1.908 -2.408,-2.725 -3.77,-2.725c-3.775,0 -7.234,4.858 -7.234,10.583c0,3.271 1.271,4.821 3.321,4.821c1.725,0 4,-1.092 5.867,-3.771m-0.367,4.088l-0.087,0c-2.096,2.179 -4.871,3.679 -7.413,3.679c-3.912,0 -6.371,-2.908 -6.371,-8.133c0,-8.542 5.821,-15.267 12.009,-15.267c2.179,0 4.137,1.229 5.137,3.137l0.087,0l0.959,-2.591l3.908,0l-6.229,31.125l-4.908,0l1.362,-6.634l1.546,-5.316Z" style="fill:#08c2f1;fill-rule:nonzero;"/><path d="M805.283,477.354l-3.958,0l0.183,-3.179l-0.183,0c-2.225,2 -4.771,3.725 -7.454,3.725c-3.729,0 -5.321,-2.092 -5.321,-5.633c0,-1.046 0.138,-2 0.363,-3.134l2.82,-14.091l4.867,0l-2.683,13.454c-0.23,1.041 -0.363,1.679 -0.363,2.362c0,1.904 0.913,2.863 2.775,2.863c1.496,0 3.271,-1.092 5.5,-3.454l3.004,-15.225l4.863,0l-4.413,22.312Z" style="fill:#08c2f1;fill-rule:nonzero;"/><path d="M815.338,448.546c0,-1.721 1.454,-3.179 3.279,-3.179c1.408,0 2.771,0.908 2.771,2.546c0,1.816 -1.455,3.179 -3.275,3.179c-1.409,0 -2.775,-0.909 -2.775,-2.546m-0.817,6.496l4.862,0l-4.454,22.312l-4.908,0l4.5,-22.312Z" style="fill:#08c2f1;fill-rule:nonzero;"/><path d="M820.433,474.267c0,-0.684 0.092,-1.413 0.317,-2.363l5.321,-26.625l4.871,0l-5.367,26.846c-0.092,0.458 -0.092,0.683 -0.092,0.867c0,0.683 0.317,0.958 0.775,0.958c0.271,0 0.404,0 0.813,-0.137l-0.088,3.633c-0.683,0.275 -1.546,0.454 -2.775,0.454c-2.591,0 -3.775,-1.363 -3.775,-3.633" style="fill:#08c2f1;fill-rule:nonzero;"/><path d="M843.129,447.638l4.913,0l-5.913,29.716l-4.912,0l5.912,-29.716Z" style="fill:#08c2f1;fill-rule:nonzero;"/><path d="M851.821,455.046l3.954,0l-0.229,3.133l0.183,0c2.367,-2 4.867,-3.679 7.688,-3.679c3.725,0 5.271,2.046 5.271,5.637c0,1.042 -0.092,1.955 -0.363,3.134l-2.821,14.083l-4.862,0l2.725,-13.45c0.183,-1.046 0.366,-1.679 0.366,-2.362c0,-1.909 -0.908,-2.863 -2.816,-2.863c-1.55,0 -3.275,1.046 -5.642,3.454l-3.004,15.221l-4.908,0l4.458,-22.308Z" style="fill:#08c2f1;fill-rule:nonzero;"/><path d="M884.883,470.133l1.821,-8.908c-1,-1.908 -2.412,-2.725 -3.775,-2.725c-3.775,0 -7.229,4.858 -7.229,10.583c0,3.271 1.271,4.821 3.321,4.821c1.904,0 4,-1.092 5.862,-3.771m3.455,-16.95l1.545,-7.904l4.871,0l-6.462,32.075l-4,0l0.229,-3.087l-0.133,0c-2.096,2.179 -4.825,3.633 -7.371,3.633c-3.909,0 -6.367,-2.908 -6.367,-8.133c0,-8.542 5.821,-15.267 12.004,-15.267c2.184,0 3.959,1.183 4.917,2.954l0.133,0l0.634,-4.271Z" style="fill:#08c2f1;fill-rule:nonzero;"/><path d="M908.308,464.363c0.138,-0.596 0.225,-1.23 0.225,-1.955c0,-2.183 -0.908,-4.137 -3.637,-4.137c-2.679,0 -5.363,2.271 -6.454,6.092l9.866,0Zm-2.821,-9.863c5.188,0 7.096,3.588 7.096,8.225c0,1.954 -0.637,3.996 -0.954,4.725l-13.596,0c-0.5,4.725 2.138,6.725 5.5,6.725c1.592,0 3.321,-0.862 4.55,-1.771l1.813,3.134c-1.813,1.274 -4.454,2.362 -7.638,2.362c-5.316,0 -8.954,-3.454 -8.954,-9.45c0,-8.313 6.321,-13.95 12.183,-13.95" style="fill:#08c2f1;fill-rule:nonzero;"/><path d="M921.229,461.725l-1.912,9.542c0.958,1.862 2.275,2.633 3.683,2.633c3.775,0 7.275,-4.858 7.275,-10.629c0,-3.229 -1.317,-4.771 -3.362,-4.771c-1.73,0 -4,1.042 -5.684,3.225m-3.683,17.813l-1.275,6.629l-4.867,0l6.275,-31.121l3.958,0l-0.091,2.725l0.137,0c2.138,-1.863 4.684,-3.271 7.23,-3.271c3.954,0 6.366,2.908 6.366,8.133c0,8.542 -5.816,15.267 -11.962,15.267c-2.088,0 -3.863,-1.179 -4.955,-2.908l-0.091,0l-0.725,4.546Z" style="fill:#08c2f1;fill-rule:nonzero;"/><path d="M951.613,464.363c0.133,-0.596 0.225,-1.23 0.225,-1.955c0,-2.183 -0.909,-4.137 -3.638,-4.137c-2.683,0 -5.367,2.271 -6.458,6.092l9.87,0Zm-2.82,-9.863c5.183,0 7.091,3.588 7.091,8.225c0,1.954 -0.633,3.996 -0.95,4.725l-13.6,0c-0.495,4.725 2.138,6.725 5.505,6.725c1.591,0 3.316,-0.862 4.545,-1.771l1.817,3.134c-1.817,1.274 -4.454,2.362 -7.637,2.362c-5.317,0 -8.959,-3.454 -8.959,-9.45c0,-8.313 6.321,-13.95 12.188,-13.95" style="fill:#08c2f1;fill-rule:nonzero;"/><path d="M960.938,455.046l3.958,0l-0.229,3.133l0.183,0c2.363,-2 4.867,-3.679 7.683,-3.679c3.73,0 5.275,2.046 5.275,5.637c0,1.042 -0.091,1.955 -0.362,3.134l-2.821,14.083l-4.867,0l2.73,-13.45c0.183,-1.046 0.366,-1.679 0.366,-2.362c0,-1.909 -0.912,-2.863 -2.821,-2.863c-1.545,0 -3.27,1.046 -5.637,3.454l-3.004,15.221l-4.909,0l4.455,-22.308Z" style="fill:#08c2f1;fill-rule:nonzero;"/><path d="M994.004,470.133l1.817,-8.908c-1,-1.908 -2.408,-2.725 -3.771,-2.725c-3.775,0 -7.229,4.858 -7.229,10.583c0,3.271 1.271,4.821 3.317,4.821c1.908,0 4.004,-1.092 5.866,-3.771m3.454,-16.95l1.546,-7.904l4.871,0l-6.462,32.075l-4,0l0.229,-3.087l-0.138,0c-2.091,2.179 -4.821,3.633 -7.366,3.633c-3.909,0 -6.367,-2.908 -6.367,-8.133c0,-8.542 5.821,-15.267 12.004,-15.267c2.179,0 3.958,1.183 4.913,2.954l0.137,0l0.633,-4.271Z" style="fill:#08c2f1;fill-rule:nonzero;"/><path d="M1007.24,448.546c0,-1.721 1.45,-3.179 3.275,-3.179c1.408,0 2.77,0.908 2.77,2.546c0,1.816 -1.454,3.179 -3.27,3.179c-1.413,0 -2.775,-0.909 -2.775,-2.546m-0.821,6.496l4.867,0l-4.455,22.312l-4.912,0l4.5,-22.312Z" style="fill:#08c2f1;fill-rule:nonzero;"/><path d="M1027.02,464.363c0.137,-0.596 0.229,-1.23 0.229,-1.955c0,-2.183 -0.908,-4.137 -3.637,-4.137c-2.684,0 -5.367,2.271 -6.455,6.092l9.863,0Zm-2.821,-9.863c5.188,0 7.1,3.588 7.1,8.225c0,1.954 -0.637,3.996 -0.954,4.725l-13.596,0c-0.504,4.725 2.138,6.725 5.496,6.725c1.592,0 3.325,-0.862 4.55,-1.771l1.817,3.134c-1.817,1.274 -4.455,2.362 -7.638,2.362c-5.321,0 -8.958,-3.454 -8.958,-9.45c0,-8.313 6.321,-13.95 12.183,-13.95" style="fill:#08c2f1;fill-rule:nonzero;"/><path d="M1036.35,455.046l3.954,0l-0.229,3.133l0.184,0c2.362,-2 4.862,-3.679 7.683,-3.679c3.729,0 5.275,2.046 5.275,5.637c0,1.042 -0.088,1.955 -0.363,3.134l-2.82,14.083l-4.863,0l2.725,-13.45c0.183,-1.046 0.363,-1.679 0.363,-2.362c0,-1.909 -0.905,-2.863 -2.817,-2.863c-1.546,0 -3.275,1.046 -5.638,3.454l-3.004,15.221l-4.908,0l4.458,-22.308Z" style="fill:#08c2f1;fill-rule:nonzero;"/><path d="M1056.59,472.446c0,-0.909 0.137,-1.725 0.275,-2.634l2.275,-10.904l-3.138,0l0.725,-3.633l3.413,-0.233l1.77,-5.996l4.092,0l-1.179,5.996l5.362,0l-0.77,3.866l-5.459,0l-2.271,11.088c-0.091,0.546 -0.137,1.046 -0.137,1.587c0,1.638 0.729,2.454 2.592,2.454c0.775,0 1.454,-0.27 2.091,-0.587l0.909,3.45c-1.088,0.454 -2.684,1 -4.725,1c-4.188,0 -5.825,-2.363 -5.825,-5.454" style="fill:#08c2f1;fill-rule:nonzero;"/><path d="M1083.47,464.363c0.137,-0.596 0.225,-1.23 0.225,-1.955c0,-2.183 -0.909,-4.137 -3.633,-4.137c-2.688,0 -5.367,2.271 -6.459,6.092l9.867,0Zm-2.821,-9.863c5.188,0 7.096,3.588 7.096,8.225c0,1.954 -0.638,3.996 -0.954,4.725l-13.596,0c-0.5,4.725 2.137,6.725 5.5,6.725c1.592,0 3.321,-0.862 4.55,-1.771l1.812,3.134c-1.812,1.274 -4.454,2.362 -7.637,2.362c-5.317,0 -8.954,-3.454 -8.954,-9.45c0,-8.313 6.321,-13.95 12.183,-13.95" style="fill:#08c2f1;fill-rule:nonzero;"/><path d="M407.942,375.979l-72.305,-52.533l-72.308,52.533l27.621,-85l-72.308,-52.533l89.375,0l27.621,-85.004l27.616,85.004l89.371,0l-72.304,52.533l27.621,85Zm-72.304,-230.229c-72.321,0 -130.946,58.625 -130.946,130.942c0,72.32 58.625,130.946 130.946,130.946c72.316,0 130.941,-58.625 130.941,-130.946c0,-72.317 -58.625,-130.942 -130.941,-130.942" style="fill:#08c2f1;fill-rule:nonzero;"/><path d="M335.638,418.85c-78.388,0 -142.159,-63.771 -142.159,-142.158c0,-78.384 63.771,-142.159 142.158,-142.159c78.388,0 142.159,63.775 142.159,142.159c0,78.387 -63.771,142.158 -142.159,142.158m0,-288.188c-80.52,0 -146.029,65.513 -146.029,146.03c0,80.52 65.509,146.029 146.029,146.029c80.517,0 146.025,-65.509 146.025,-146.029c0,-80.517 -65.508,-146.03 -146.025,-146.03" style="fill:#08c2f1;fill-rule:nonzero;"/><path d="M363.254,238.446l-27.621,-85.004l-27.616,85.004l-89.375,0l72.308,52.533l-27.621,85l72.304,-52.533l72.309,52.533l-27.621,-85l72.308,-52.533l-89.375,0Z" style="fill:#fff;fill-rule:nonzero;"/><path d="M179.158,171.383c-4.095,9.73 -3.316,14.409 -2.508,16.317c-1.954,4.1 -3.75,8.254 -5.4,12.454c0.129,-2.746 -0.033,-6.25 -0.904,-10.425c-0.792,-3.737 -4.917,-12.121 -6.179,-12.092c-2.084,0.038 -2.988,10.271 -2.329,13.563c2.116,10.458 5.395,13.95 7.133,15.1c-1.679,4.75 -3.175,9.55 -4.467,14.396c-0.175,-2.779 -0.729,-6.334 -2.116,-10.5c-1.209,-3.633 -6.275,-11.513 -7.517,-11.35c-2.063,0.283 -1.783,10.562 -0.746,13.771c3.329,10.258 7.021,13.325 8.854,14.245c-1.129,4.909 -2.071,9.85 -2.808,14.817c-0.496,-2.746 -1.454,-6.225 -3.313,-10.221c-1.62,-3.479 -7.546,-10.754 -8.762,-10.446c-2.013,0.517 -0.554,10.717 0.85,13.792c4.454,9.783 8.454,12.442 10.396,13.171c-0.567,4.937 -0.938,9.896 -1.117,14.862c-0.813,-2.641 -2.158,-5.92 -4.4,-9.587c-2.004,-3.279 -8.717,-9.846 -9.892,-9.404c-1.933,0.733 0.692,10.721 2.434,13.625c5.454,9.079 9.679,11.358 11.725,11.916c-0.004,4.863 0.183,9.726 0.55,14.584c-1.113,-2.471 -2.788,-5.45 -5.309,-8.692c-2.366,-3.033 -9.787,-8.821 -10.891,-8.246c-1.838,0.954 1.921,10.6 3.975,13.292c6.316,8.233 10.712,10.133 12.866,10.512c0.525,4.717 1.238,9.417 2.125,14.092c-1.379,-2.25 -3.312,-4.879 -6.033,-7.666c-2.692,-2.755 -10.713,-7.675 -11.75,-6.98c-1.708,1.159 3.129,10.334 5.479,12.779c7.038,7.309 11.563,8.809 13.8,9c1.038,4.517 2.242,9 3.613,13.446c-1.596,-2.004 -3.734,-4.271 -6.58,-6.591c-2.987,-2.442 -11.508,-6.434 -12.454,-5.625c-1.562,1.346 4.288,9.937 6.909,12.104c7.637,6.325 12.254,7.412 14.554,7.4c1.516,4.279 3.187,8.512 5.021,12.696c-1.775,-1.738 -4.075,-3.654 -7.005,-5.538c-3.245,-2.091 -12.158,-5.104 -13,-4.196c-1.395,1.517 5.396,9.405 8.242,11.271c8.146,5.334 12.834,5.971 15.163,5.738c1.975,4.025 4.091,8 6.375,11.908c-1.938,-1.483 -4.371,-3.075 -7.396,-4.579c-3.458,-1.713 -12.642,-3.7 -13.375,-2.704c-1.208,1.662 6.437,8.754 9.471,10.287c8.596,4.342 13.316,4.496 15.625,4.025c2.412,3.742 4.954,7.438 7.666,11.05c-2.075,-1.241 -4.641,-2.529 -7.758,-3.658c-3.629,-1.321 -12.962,-2.267 -13.571,-1.183c-1.012,1.787 7.388,7.979 10.575,9.166c8.975,3.334 13.671,2.971 15.925,2.246c1.384,1.692 2.792,3.371 4.238,5.025c1.529,1.738 3.083,3.433 4.654,5.104c-2.2,-1.004 -4.879,-1.987 -8.1,-2.766c-3.75,-0.9 -13.117,-0.792 -13.6,0.354c-0.792,1.896 8.25,7.112 11.55,7.933c9.233,2.292 13.85,1.429 16.012,0.458c3.209,3.138 6.492,6.146 9.842,9.005c-2.262,-0.73 -4.975,-1.384 -8.175,-1.784c-3.817,-0.475 -13.096,0.692 -13.442,1.879c-0.566,1.984 9,6.155 12.363,6.6c9.321,1.23 13.796,-0.108 15.867,-1.304c3.512,2.733 7.091,5.325 10.729,7.779c-2.3,-0.458 -5.017,-0.787 -8.171,-0.825c-3.85,-0.041 -12.913,2.163 -13.117,3.388c-0.333,2.033 9.629,5.108 13.017,5.171c9.221,0.171 13.517,-1.6 15.475,-3.017c0.137,0.067 0.275,0.129 0.417,0.196l13.812,9.025c0,0 -10.192,-2.792 -20.408,2.937c0,0 -3.467,1.242 4.783,3.679c0,0 11.354,3.938 23.279,-2.816l7.15,3.141l0.088,-0.108l0.966,-2.062c0,0 0.192,0.058 0.513,0.162l0.012,-0.008l-10.904,-5.442c0,0 2.025,-15.341 -11.129,-25.4c0,0 -5.187,8.15 4.058,21.35l-10.595,-6.933l0.004,-0.009l-0.642,-0.408l-0.008,0.013c-1.059,-0.63 -2.121,-1.263 -3.171,-1.925c0.516,-2.621 0.15,-8.938 -0.759,-11.75c-3.237,-10.013 -8.741,-14.292 -8.741,-14.292c0,0 -4.559,3.146 0.012,16.854c0.363,1.096 1.367,2.85 2.584,4.608c-3.613,-2.516 -7.163,-5.162 -10.63,-7.95c0.838,-2.495 1.213,-8.891 0.625,-11.812c-2.075,-10.292 -7.062,-15.158 -7.062,-15.158c0,0 -4.896,2.612 -1.929,16.725c0.246,1.154 1.075,3.075 2.129,5.008c-3.346,-2.933 -6.583,-6.025 -9.746,-9.229c1.121,-2.384 2.229,-8.684 1.979,-11.65c-0.875,-10.442 -5.279,-15.829 -5.279,-15.829c0,0 -5.175,2.037 -3.85,16.362c0.108,1.171 0.708,3.154 1.525,5.175c-0.65,-0.725 -1.325,-1.417 -1.971,-2.15c-2.316,-2.633 -4.512,-5.333 -6.654,-8.062c1.392,-2.23 3.225,-8.363 3.317,-11.33c0.333,-10.454 -3.429,-16.287 -3.429,-16.287c0,0 -5.392,1.433 -5.717,15.787c-0.029,1.171 0.342,3.205 0.921,5.3c-2.609,-3.633 -5.075,-7.341 -7.4,-11.108c1.641,-2.071 4.162,-7.925 4.596,-10.85c1.537,-10.325 -1.538,-16.537 -1.538,-16.537c0,0 -5.521,0.812 -7.504,15.012c-0.163,1.146 -0.033,3.183 0.296,5.308c-2.167,-3.883 -4.184,-7.829 -6.054,-11.825c1.87,-1.883 5.033,-7.375 5.804,-10.22c2.721,-10.063 0.379,-16.567 0.379,-16.567c0,0 -5.6,0.179 -9.208,14.029c-0.292,1.117 -0.396,3.113 -0.317,5.233c-1.696,-4.07 -3.242,-8.191 -4.642,-12.35c2.084,-1.675 5.842,-6.741 6.929,-9.462c3.875,-9.671 2.292,-16.388 2.292,-16.388c0,0 -5.596,-0.458 -10.783,12.884c-0.413,1.062 -0.746,3.016 -0.913,5.116c-1.216,-4.22 -2.283,-8.47 -3.204,-12.741c2.267,-1.425 6.596,-6.021 7.996,-8.604c4.962,-9.159 4.162,-15.992 4.162,-15.992c0,0 -5.508,-1.079 -12.212,11.55c-0.538,1.012 -1.1,2.929 -1.508,5c-0.738,-4.313 -1.33,-8.646 -1.763,-12.988c2.4,-1.129 7.296,-5.245 8.996,-7.658c6,-8.517 5.987,-15.392 5.987,-15.392c0,0 -5.358,-1.691 -13.487,10.084c-0.663,0.962 -1.463,2.854 -2.117,4.912c-0.254,-4.396 -0.354,-8.791 -0.3,-13.187c2.479,-0.788 7.929,-4.367 9.921,-6.6c6.954,-7.763 7.733,-14.579 7.733,-14.579c0,0 -5.137,-2.284 -14.587,8.475c-0.813,0.92 -1.888,2.841 -2.804,4.925c0.241,-4.475 0.637,-8.938 1.196,-13.384c2.466,-0.395 8.504,-3.416 10.795,-5.446c7.809,-6.925 9.371,-13.595 9.371,-13.595c0,0 -4.846,-2.842 -15.491,6.766c-0.988,0.884 -2.409,2.888 -3.621,5.021c0.754,-4.554 1.675,-9.087 2.766,-13.579c2.338,0.017 9.009,-2.387 11.596,-4.192c8.575,-5.983 10.896,-12.425 10.896,-12.425c0,0 -4.5,-3.358 -16.2,4.963c-1.179,0.837 -3.033,2.933 -4.575,5.121c1.308,-4.634 2.796,-9.221 4.467,-13.75c2.012,0.454 9.375,-1.242 12.275,-2.809c9.225,-4.958 12.275,-11.083 12.275,-11.083c0,0 -4.092,-3.846 -16.696,3.088c-1.392,0.762 -3.767,2.933 -5.654,5.137c1.191,-2.912 2.437,-5.817 3.779,-8.675c1.025,-0.783 5.908,-4.854 9.604,-13.821c1.438,-3.504 2.696,-12.671 1.625,-13.341c-0.117,-0.071 -0.254,-0.105 -0.404,-0.105c-2.2,0 -7.975,7.1 -9.192,9.975Z" style="fill:url(#_Linear3);fill-rule:nonzero;"/><path d="M482.517,161.513c-1.071,0.67 0.183,9.837 1.621,13.341c3.7,8.967 8.583,13.038 9.608,13.821c1.346,2.858 2.587,5.762 3.779,8.675c-1.887,-2.204 -4.262,-4.375 -5.654,-5.138c-12.604,-6.933 -16.696,-3.087 -16.696,-3.087c0,0 3.054,6.125 12.275,11.083c2.9,1.567 10.262,3.263 12.275,2.809c1.675,4.529 3.158,9.116 4.463,13.75c-1.538,-2.188 -3.392,-4.284 -4.575,-5.121c-11.7,-8.321 -16.196,-4.963 -16.196,-4.963c0,0 2.321,6.442 10.896,12.425c2.587,1.804 9.258,4.209 11.595,4.192c1.088,4.492 2.013,9.025 2.767,13.579c-1.212,-2.133 -2.633,-4.137 -3.621,-5.021c-10.646,-9.608 -15.496,-6.766 -15.496,-6.766c0,0 1.563,6.67 9.38,13.595c2.287,2.03 8.325,5.05 10.791,5.446c0.559,4.446 0.959,8.909 1.196,13.384c-0.917,-2.084 -1.992,-4.005 -2.8,-4.925c-9.454,-10.759 -14.592,-8.475 -14.592,-8.475c0,0 0.78,6.816 7.734,14.579c1.991,2.233 7.441,5.812 9.921,6.6c0.054,4.396 -0.046,8.791 -0.305,13.187c-0.65,-2.058 -1.454,-3.95 -2.116,-4.912c-8.125,-11.775 -13.488,-10.084 -13.488,-10.084c0,0 -0.008,6.875 5.992,15.392c1.696,2.413 6.592,6.529 9,7.658c-0.438,4.342 -1.029,8.675 -1.767,12.988c-0.408,-2.071 -0.971,-3.988 -1.508,-5c-6.704,-12.629 -12.213,-11.55 -12.213,-11.55c0,0 -0.8,6.833 4.163,15.992c1.4,2.583 5.729,7.179 7.996,8.604c-0.921,4.271 -1.988,8.521 -3.204,12.741c-0.167,-2.1 -0.5,-4.054 -0.913,-5.116c-5.192,-13.342 -10.783,-12.884 -10.783,-12.884c0,0 -1.584,6.717 2.291,16.388c1.088,2.721 4.85,7.787 6.93,9.462c-1.4,4.159 -2.946,8.28 -4.642,12.35c0.079,-2.12 -0.029,-4.116 -0.313,-5.233c-3.612,-13.85 -9.212,-14.029 -9.212,-14.029c0,0 -2.342,6.504 0.379,16.567c0.767,2.845 3.938,8.337 5.804,10.22c-1.875,3.996 -3.887,7.942 -6.054,11.825c0.325,-2.125 0.458,-4.162 0.296,-5.308c-1.983,-14.2 -7.509,-15.012 -7.509,-15.012c0,0 -3.07,6.212 -1.537,16.537c0.438,2.925 2.962,8.779 4.6,10.85c-2.325,3.767 -4.792,7.475 -7.4,11.108c0.579,-2.095 0.95,-4.129 0.921,-5.3c-0.325,-14.354 -5.717,-15.787 -5.717,-15.787c0,0 -3.762,5.833 -3.429,16.287c0.092,2.967 1.925,9.1 3.317,11.33c-2.142,2.729 -4.338,5.429 -6.655,8.062c-0.645,0.733 -1.32,1.425 -1.97,2.15c0.816,-2.021 1.412,-4.004 1.525,-5.175c1.325,-14.325 -3.85,-16.362 -3.85,-16.362c0,0 -4.404,5.387 -5.279,15.829c-0.25,2.966 0.862,9.266 1.979,11.65c-3.163,3.204 -6.405,6.296 -9.746,9.229c1.05,-1.933 1.883,-3.854 2.125,-5.008c2.971,-14.113 -1.925,-16.725 -1.925,-16.725c0,0 -4.988,4.866 -7.063,15.158c-0.587,2.921 -0.212,9.317 0.625,11.812c-3.466,2.788 -7.012,5.434 -10.633,7.95c1.225,-1.758 2.221,-3.512 2.587,-4.608c4.571,-13.708 0.009,-16.854 0.009,-16.854c0,0 -5.5,4.279 -8.738,14.292c-0.908,2.812 -1.279,9.129 -0.758,11.75c-1.05,0.662 -2.113,1.295 -3.171,1.925l-0.008,-0.013l-0.442,0.288c-0.067,0.037 -0.129,0.083 -0.2,0.12l0.004,0.009l-10.596,6.933c9.242,-13.2 4.055,-21.35 4.055,-21.35c-13.15,10.058 -11.125,25.4 -11.125,25.4l-10.905,5.442l1.575,2.016l7.155,-3.141c11.925,6.754 23.275,2.816 23.275,2.816c8.254,-2.437 4.787,-3.679 4.787,-3.679c-10.216,-5.729 -20.412,-2.937 -20.412,-2.937l13.816,-9.025c0.142,-0.067 0.279,-0.129 0.417,-0.196c1.962,1.417 6.25,3.187 15.471,3.017c3.391,-0.063 13.35,-3.138 13.021,-5.171c-0.205,-1.225 -9.267,-3.429 -13.113,-3.388c-3.158,0.038 -5.879,0.367 -8.175,0.825c3.638,-2.454 7.217,-5.046 10.729,-7.779c2.067,1.196 6.546,2.533 15.867,1.304c3.362,-0.446 12.929,-4.616 12.358,-6.6c-0.337,-1.187 -9.621,-2.354 -13.441,-1.879c-3.2,0.4 -5.913,1.054 -8.171,1.784c3.35,-2.859 6.629,-5.867 9.841,-9.005c2.159,0.971 6.784,1.834 16.017,-0.458c3.296,-0.821 12.333,-6.037 11.546,-7.933c-0.483,-1.146 -9.85,-1.255 -13.6,-0.354c-3.221,0.779 -5.904,1.762 -8.1,2.766c1.567,-1.671 3.121,-3.367 4.65,-5.104c1.454,-1.654 2.858,-3.333 4.246,-5.025c2.246,0.725 6.941,1.087 15.921,-2.246c3.187,-1.187 11.583,-7.379 10.575,-9.167c-0.609,-1.083 -9.942,-0.137 -13.571,1.184c-3.121,1.129 -5.679,2.416 -7.759,3.658c2.713,-3.612 5.25,-7.308 7.667,-11.05c2.313,0.471 7.034,0.317 15.621,-4.025c3.033,-1.533 10.679,-8.625 9.475,-10.287c-0.733,-0.996 -9.917,0.991 -13.375,2.704c-3.021,1.504 -5.463,3.096 -7.396,4.579c2.284,-3.908 4.4,-7.883 6.379,-11.908c2.325,0.233 7.013,-0.405 15.159,-5.738c2.846,-1.867 9.637,-9.754 8.241,-11.271c-0.846,-0.908 -9.754,2.104 -13,4.196c-2.929,1.883 -5.229,3.8 -7.008,5.538c1.837,-4.184 3.508,-8.417 5.021,-12.696c2.304,0.012 6.925,-1.075 14.558,-7.4c2.621,-2.167 8.471,-10.759 6.904,-12.104c-0.946,-0.809 -9.462,3.183 -12.45,5.625c-2.846,2.32 -4.987,4.587 -6.583,6.591c1.375,-4.446 2.579,-8.929 3.617,-13.446c2.237,-0.191 6.762,-1.691 13.8,-9c2.354,-2.445 7.187,-11.62 5.479,-12.779c-1.038,-0.696 -9.054,4.225 -11.754,6.979c-2.721,2.788 -4.65,5.417 -6.03,7.667c0.884,-4.675 1.596,-9.375 2.125,-14.092c2.15,-0.379 6.55,-2.279 12.867,-10.512c2.058,-2.692 5.813,-12.338 3.975,-13.292c-1.104,-0.575 -8.525,5.213 -10.892,8.246c-2.52,3.242 -4.195,6.221 -5.304,8.692c0.363,-4.859 0.55,-9.721 0.542,-14.584c2.054,-0.558 6.275,-2.837 11.729,-11.916c1.742,-2.904 4.367,-12.892 2.433,-13.625c-1.175,-0.442 -7.887,6.125 -9.887,9.404c-2.25,3.667 -3.588,6.946 -4.404,9.587c-0.179,-4.966 -0.55,-9.925 -1.117,-14.862c1.942,-0.729 5.938,-3.388 10.396,-13.171c1.404,-3.075 2.862,-13.275 0.85,-13.792c-1.217,-0.308 -7.142,6.967 -8.763,10.446c-1.858,3.996 -2.816,7.475 -3.308,10.221c-0.742,-4.967 -1.683,-9.908 -2.817,-14.817c1.838,-0.92 5.53,-3.987 8.859,-14.245c1.041,-3.209 1.316,-13.488 -0.75,-13.771c-1.242,-0.163 -6.309,7.716 -7.517,11.35c-1.387,4.166 -1.937,7.721 -2.117,10.5c-1.287,-4.846 -2.783,-9.646 -4.462,-14.396c1.737,-1.15 5.017,-4.642 7.129,-15.1c0.658,-3.292 -0.242,-13.525 -2.329,-13.563c-1.254,-0.029 -5.383,8.355 -6.175,12.092c-0.871,4.175 -1.033,7.679 -0.908,10.425c-1.646,-4.2 -3.442,-8.354 -5.4,-12.454c0.816,-1.908 1.591,-6.588 -2.505,-16.317c-1.216,-2.875 -6.991,-9.975 -9.191,-9.975c-0.154,0 -0.288,0.034 -0.404,0.104Z" style="fill:url(#_Linear4);fill-rule:nonzero;"/><path d="M357.979,454.571l-2.379,2.229c0,0 16.033,-1.2 34.417,-7.583l-0.892,-2.159c0,0 -26.396,7.105 -31.146,7.513Z" style="fill:url(#_Linear5);fill-rule:nonzero;"/><path d="M279.167,448.379l-0.025,0.05c18.075,7.225 40.233,10.534 40.233,10.534l-4.538,-2.542c-4.37,-0.583 -30.254,-8.7 -34.191,-9.942l-1.479,1.9Z" style="fill:url(#_Linear6);fill-rule:nonzero;"/><path d="M279.167,448.379l1.479,-1.9c-0.321,-0.104 -0.513,-0.162 -0.513,-0.162l-0.966,2.062Z" style="fill:url(#_Linear7);fill-rule:nonzero;"/><path d="M379.325,440.192l-2.562,0.408l-0.775,0.346c3.366,0.117 5.945,0.741 5.945,0.741c9.567,2.309 8.463,13.355 8.463,13.355c-0.946,9.462 -11.358,8.516 -11.358,8.516c-15.563,-2 -23.284,-6.75 -23.284,-6.75l-9.737,6.013c0,0 24.608,5.783 36.283,2.733c11.675,-3.046 14.038,-14.171 10.167,-20.683c-2.479,-4.159 -7.379,-4.871 -10.446,-4.871c-1.596,0 -2.696,0.192 -2.696,0.192Z" style="fill:url(#_Radial8);fill-rule:nonzero;"/><path d="M360.354,445.221c-9.112,4.629 -18.508,11.925 -18.508,11.925l0,7.008c2.662,4.35 17.671,-10.937 17.671,-10.937c15.141,-13.042 23.046,-13.209 23.046,-13.209c-12.459,0 -22.209,5.213 -22.209,5.213Z" style="fill:url(#_Linear9);fill-rule:nonzero;"/><path d="M275.238,449.763c-0.163,0.974 -0.213,1.983 -0.155,2.974c0.409,6.592 5.829,11.946 11.784,14.051c5.575,1.97 11.596,1.55 17.395,1.266c8.73,-0.416 21.142,-0.9 21.142,-0.9l3.108,-3.621l-5.212,-4.625c-6.5,-0.321 -12.446,0.567 -18.742,2.117c-6.196,1.521 -12.8,3.012 -19.016,0.721c-7.992,-2.942 -8.413,-9.571 -6.309,-13.25c2.104,-3.684 5.642,-4.142 5.642,-4.142l-3.45,-0.362l-0.2,0c-4.929,0 -5.988,5.77 -5.988,5.77Z" style="fill:url(#_Radial10);fill-rule:nonzero;"/><path d="M279.15,444.379c0,0 8.075,-2.196 27.217,7.588c0,0 7.154,2.941 19.037,11.987l7.654,1.2l5.409,-2.871c0,0 -21.054,-15.112 -35.046,-18.183c-5.396,-1.183 -9.683,-1.613 -13.133,-1.613c-5.488,0 -8.842,1.08 -11.138,1.892Z" style="fill:url(#_Linear11);fill-rule:nonzero;"/><path d="M320.338,467.329c-7.288,9.263 -14.875,21.154 -17.963,37.296c-0.292,1.492 -0.629,3.417 -0.917,5.738c-0.237,1.887 -0.441,3.979 -0.566,6.32l-0.042,0.142c0,0 -0.058,1.963 -0.058,4.363c0,0.537 0,1.083 0.008,1.645c0.017,1.721 0.075,3.492 0.208,4.855l0,0.012l0.004,0l3.663,-1.262c-0.417,-2.471 -0.792,-4.951 -1.125,-7.421c-0.167,-1.25 -0.342,-2.505 -0.517,-3.755c0.009,-0.154 0.009,-0.304 0.004,-0.445c0.025,-7.117 1.963,-13.154 5.109,-19.121c3.621,-6.871 8.512,-12.95 14.05,-18.375c0.058,-0.058 0.116,-0.117 0.175,-0.175c4.012,-3.913 8.529,-7.421 12.287,-11.588c0.754,-0.841 1.475,-1.737 1.979,-2.75l2,-3.995c0,0 -1.254,-0.55 -3.337,-0.55c-3.388,-0.005 -8.975,1.45 -14.963,9.066Z" style="fill:url(#_Linear12);fill-rule:nonzero;"/><path d="M373.533,489.429c0.854,3.396 1.525,9.858 0.009,21.571l-0.005,0c-0.445,5.908 -1.254,12.9 -2.608,21.087l6.35,0.746c1.813,-18.62 1.8,-38.883 -4.729,-49.033c0,0 0.554,1.733 0.983,5.629Z" style="fill:url(#_Linear13);fill-rule:nonzero;"/><path d="M341.004,459.125l0,6.308c0,-0.166 6.671,1.505 7.029,1.63c5.271,1.791 10.246,4.525 14.579,8.012c3.6,2.896 7.1,6.113 9.534,10.992c0.004,0 1.458,2.941 1.891,6.012l3.238,6.004c-0.475,-2.866 -1.192,-5.679 -1.892,-8.5c-0.241,-0.979 -0.537,-1.95 -0.866,-2.912c-0.488,-1.425 -1.055,-2.829 -1.688,-4.196c-0.8,-1.725 -1.712,-3.396 -2.725,-5c-1.183,-1.875 -2.504,-3.663 -3.967,-5.325c-1.641,-1.879 -3.458,-3.608 -5.42,-5.158c-2.2,-1.738 -4.58,-3.242 -7.084,-4.5c-2.854,-1.438 -5.866,-2.55 -8.958,-3.367l-3.671,0Z" style="fill:url(#_Radial14);fill-rule:nonzero;"/><g><g><clipPath id="_clip15"><path d="M333.921,461.338c-0.158,2.166 -1.5,7.212 0.937,7.895c2.43,0.684 5.792,0.159 7.317,-1.995c1.525,-2.159 1.896,-3.996 1.896,-3.996l-3.263,-3.996l-5.496,-1.238c0,0 -1.233,1.159 -1.391,3.329Z"/></clipPath><g clip-path="url(#_clip15)"><rect x="332.425" y="458.008" width="11.646" height="11.913" style="fill:#e02428;"/><path d="M344.908,458.362l0,12.396l0.938,0.159c-2.821,0.87 -6.321,0.846 -9.838,-0.275c-3.512,-1.125 -6.383,-3.138 -8.17,-5.475l3.745,0l0,-7.471l-5.47,0c0.783,-2.45 2.916,-4.217 5.737,-5.084l0,4.555l9.833,0l0,-4.28c3.517,1.121 6.384,3.134 8.171,5.475l-4.946,0Z" style="fill:#e02428;fill-rule:nonzero;"/><path d="M344.908,458.413l0,12.345l0.834,0.025c-2.779,0.855 -6.225,0.834 -9.692,-0.275c-3.467,-1.104 -6.287,-3.087 -8.05,-5.396l3.583,0l0,-7.358l-5.283,0c0.771,-2.417 2.875,-4.154 5.65,-5.008l0,4.421l9.688,0l0,-4.15c3.466,1.108 6.291,3.087 8.054,5.396l-4.784,0Z" style="fill:#df2428;fill-rule:nonzero;"/><path d="M344.908,458.462l0,12.188l0.734,0c-2.738,0.846 -6.134,0.821 -9.546,-0.271c-3.413,-1.087 -6.2,-3.041 -7.933,-5.312l3.42,0l0,-7.254l-5.095,0c0.758,-2.38 2.829,-4.092 5.566,-4.938l0,4.292l9.546,0l0,-4.021c3.413,1.092 6.192,3.046 7.933,5.317l-4.625,0Z" style="fill:#dd2328;fill-rule:nonzero;"/><path d="M344.908,458.513l0,12l0.63,0c-2.696,0.833 -6.042,0.812 -9.4,-0.263c-3.367,-1.075 -6.105,-2.996 -7.817,-5.233l3.262,0l0,-7.142l-4.908,0c0.746,-2.346 2.788,-4.029 5.483,-4.863l0,4.155l9.4,0l0,-3.892c3.359,1.075 6.1,3 7.813,5.238l-4.463,0Z" style="fill:#db2328;fill-rule:nonzero;"/><path d="M344.908,458.563l0,11.816l0.525,0c-2.654,0.817 -5.945,0.796 -9.258,-0.262c-3.308,-1.054 -6.004,-2.95 -7.692,-5.154l3.1,0l0,-7.03l-4.72,0c0.737,-2.308 2.745,-3.966 5.395,-4.787l0,4.021l9.259,0l0,-3.759c3.308,1.055 6.004,2.95 7.691,5.155l-4.3,0Z" style="fill:#db2328;fill-rule:nonzero;"/><path d="M350.646,465.533c-1.454,4.542 -7.913,6.538 -14.429,4.454c-3.255,-1.041 -5.913,-2.904 -7.571,-5.075l2.937,0l0,-6.92l-4.533,0c1.45,-4.538 7.908,-6.534 14.421,-4.455c3.258,1.042 5.912,2.905 7.575,5.075l-4.138,0l0,6.921l5.738,0Z" style="fill:#d82229;fill-rule:nonzero;"/><path d="M350.458,465.471c-1.429,4.471 -7.787,6.433 -14.2,4.387c-6.408,-2.05 -10.45,-7.333 -9.021,-11.804c1.43,-4.471 7.784,-6.433 14.196,-4.387c3.204,1.029 5.817,2.862 7.45,4.995l-3.975,0l0,6.809l5.55,0Z" style="fill:#d62428;fill-rule:nonzero;"/><path d="M350.271,465.413c-1.404,4.399 -7.658,6.329 -13.967,4.312c-6.308,-2.013 -10.283,-7.212 -8.879,-11.613c1.404,-4.4 7.658,-6.329 13.967,-4.312c3.15,1.008 5.725,2.813 7.333,4.913l-3.817,0l0,6.7l5.363,0Z" style="fill:#d52428;fill-rule:nonzero;"/><path d="M350.083,465.354c-1.383,4.325 -7.537,6.225 -13.737,4.242c-6.208,-1.979 -10.117,-7.096 -8.733,-11.421c1.383,-4.329 7.529,-6.229 13.737,-4.242c3.1,0.988 5.629,2.763 7.208,4.83l-3.65,0l0,6.591l5.175,0Z" style="fill:#d32228;fill-rule:nonzero;"/><path d="M349.896,465.292c-1.358,4.254 -7.409,6.12 -13.513,4.175c-6.1,-1.95 -9.946,-6.98 -8.583,-11.234c1.358,-4.254 7.404,-6.12 13.504,-4.171c3.054,0.975 5.542,2.717 7.092,4.75l-3.488,0l0,6.48l4.988,0Z" style="fill:#d22329;fill-rule:nonzero;"/><path d="M349.708,465.233c-1.337,4.184 -7.283,6.021 -13.279,4.1c-6,-1.912 -9.779,-6.858 -8.446,-11.037c1.342,-4.184 7.284,-6.021 13.284,-4.104c3,0.958 5.441,2.675 6.971,4.675l-3.33,0l0,6.366l4.8,0Z" style="fill:#d12028;fill-rule:nonzero;"/><path d="M349.521,465.175c-1.313,4.108 -7.159,5.912 -13.054,4.029c-5.892,-1.883 -9.609,-6.741 -8.296,-10.85c1.317,-4.108 7.158,-5.916 13.05,-4.033c2.95,0.946 5.35,2.629 6.854,4.592l-3.167,0l0,6.262l4.613,0Z" style="fill:#d02329;fill-rule:nonzero;"/><path d="M349.333,465.113c-1.291,4.037 -7.029,5.812 -12.82,3.962c-5.796,-1.85 -9.442,-6.625 -8.155,-10.662c1.292,-4.038 7.034,-5.809 12.825,-3.959c5.792,1.85 9.438,6.621 8.15,10.658" style="fill:#cd2028;fill-rule:nonzero;"/><path d="M349.146,465.054c-1.267,3.963 -6.909,5.709 -12.592,3.888c-5.692,-1.817 -9.275,-6.504 -8.008,-10.467c1.271,-3.967 6.904,-5.708 12.596,-3.892c5.683,1.817 9.27,6.505 8.004,10.471" style="fill:#cc2027;fill-rule:nonzero;"/><path d="M348.958,464.996c-1.246,3.892 -6.779,5.6 -12.362,3.817c-5.588,-1.788 -9.104,-6.388 -7.863,-10.28c1.246,-3.896 6.779,-5.604 12.363,-3.816c5.587,1.783 9.108,6.383 7.862,10.279" style="fill:#cb2327;fill-rule:nonzero;"/><path d="M348.771,464.933c-1.221,3.821 -6.654,5.5 -12.138,3.75c-5.479,-1.754 -8.933,-6.266 -7.712,-10.091c1.225,-3.821 6.654,-5.5 12.133,-3.746c5.484,1.75 8.938,6.267 7.717,10.087" style="fill:#c92327;fill-rule:nonzero;"/><path d="M348.583,464.875c-1.2,3.75 -6.529,5.396 -11.908,3.675c-5.379,-1.717 -8.767,-6.15 -7.567,-9.896c1.2,-3.754 6.529,-5.4 11.909,-3.679c5.375,1.717 8.762,6.15 7.566,9.9" style="fill:#c72326;fill-rule:nonzero;"/><path d="M348.396,464.817c-1.175,3.675 -6.404,5.287 -11.679,3.604c-5.271,-1.688 -8.596,-6.029 -7.421,-9.708c1.175,-3.675 6.4,-5.292 11.679,-3.609c5.275,1.688 8.596,6.034 7.421,9.713" style="fill:#c62326;fill-rule:nonzero;"/><path d="M348.208,464.754c-1.15,3.604 -6.279,5.188 -11.446,3.538c-5.17,-1.655 -8.433,-5.913 -7.279,-9.521c1.154,-3.604 6.28,-5.188 11.446,-3.533c5.171,1.65 8.429,5.912 7.279,9.516" style="fill:#c52326;fill-rule:nonzero;"/><path d="M348.021,464.696c-1.129,3.533 -6.15,5.083 -11.217,3.462c-5.071,-1.616 -8.262,-5.796 -7.133,-9.329c1.129,-3.529 6.15,-5.079 11.216,-3.462c5.071,1.62 8.263,5.796 7.134,9.329" style="fill:#c32326;fill-rule:nonzero;"/><path d="M347.833,464.633c-1.104,3.463 -6.025,4.98 -10.991,3.396c-4.963,-1.587 -8.092,-5.679 -6.984,-9.137c1.104,-3.463 6.025,-4.979 10.992,-3.396c4.962,1.587 8.092,5.679 6.983,9.137" style="fill:#c22026;fill-rule:nonzero;"/><path d="M347.646,464.575c-1.084,3.388 -5.9,4.879 -10.758,3.325c-4.863,-1.554 -7.925,-5.558 -6.842,-8.946c1.083,-3.391 5.9,-4.883 10.762,-3.325c4.859,1.55 7.921,5.554 6.838,8.946" style="fill:#c12026;fill-rule:nonzero;"/><path d="M347.458,464.517c-1.058,3.312 -5.775,4.775 -10.533,3.25c-4.754,-1.517 -7.754,-5.442 -6.692,-8.759c1.059,-3.312 5.775,-4.77 10.534,-3.25c4.754,1.521 7.754,5.442 6.691,8.759" style="fill:#be2026;fill-rule:nonzero;"/><path d="M347.275,464.454c-1.037,3.246 -5.654,4.671 -10.304,3.183c-4.654,-1.483 -7.588,-5.32 -6.55,-8.566c1.037,-3.242 5.65,-4.671 10.3,-3.179c4.654,1.483 7.587,5.32 6.554,8.562" style="fill:#bd2026;fill-rule:nonzero;"/><path d="M347.088,464.396c-1.017,3.171 -5.53,4.567 -10.076,3.112c-4.549,-1.454 -7.416,-5.204 -6.404,-8.379c1.013,-3.171 5.525,-4.562 10.071,-3.112c4.554,1.458 7.417,5.204 6.408,8.379" style="fill:#bb2025;fill-rule:nonzero;"/><path d="M346.9,464.338c-0.992,3.1 -5.4,4.462 -9.846,3.037c-4.45,-1.417 -7.25,-5.083 -6.262,-8.188c0.991,-3.095 5.4,-4.458 9.846,-3.037c4.45,1.421 7.249,5.088 6.262,8.188" style="fill:#ba2025;fill-rule:nonzero;"/><path d="M346.713,464.275c-0.967,3.029 -5.276,4.358 -9.621,2.971c-4.342,-1.388 -7.079,-4.967 -6.113,-7.996c0.971,-3.029 5.275,-4.354 9.621,-2.971c4.342,1.392 7.079,4.967 6.113,7.996" style="fill:#ba2025;fill-rule:nonzero;"/><path d="M346.525,464.217c-0.946,2.954 -5.15,4.254 -9.392,2.9c-4.237,-1.354 -6.908,-4.85 -5.962,-7.809c0.941,-2.954 5.146,-4.25 9.387,-2.895c4.238,1.354 6.909,4.845 5.967,7.804" style="fill:#b82026;fill-rule:nonzero;"/><path d="M346.337,464.158c-0.92,2.884 -5.024,4.15 -9.158,2.829c-4.137,-1.325 -6.746,-4.733 -5.821,-7.616c0.917,-2.883 5.017,-4.15 9.155,-2.829c4.137,1.32 6.745,4.733 5.825,7.616" style="fill:#b52226;fill-rule:nonzero;"/><path d="M346.15,464.096c-0.896,2.812 -4.9,4.046 -8.929,2.758c-4.034,-1.291 -6.575,-4.612 -5.679,-7.425c0.9,-2.812 4.9,-4.046 8.929,-2.754c4.037,1.283 6.575,4.608 5.679,7.421" style="fill:#b52226;fill-rule:nonzero;"/><path d="M345.963,464.038c-0.875,2.737 -4.771,3.941 -8.7,2.687c-3.934,-1.258 -6.405,-4.496 -5.534,-7.233c0.875,-2.742 4.771,-3.946 8.7,-2.692c3.934,1.258 6.409,4.496 5.534,7.237" style="fill:#b32226;fill-rule:nonzero;"/><path d="M345.775,463.979c-0.85,2.667 -4.646,3.838 -8.471,2.613c-3.825,-1.221 -6.237,-4.375 -5.387,-7.042c0.85,-2.671 4.645,-3.837 8.475,-2.617c3.825,1.221 6.233,4.38 5.383,7.046" style="fill:#b32125;fill-rule:nonzero;"/><path d="M345.588,463.917c-0.83,2.596 -4.521,3.737 -8.242,2.546c-3.725,-1.192 -6.071,-4.259 -5.242,-6.855c0.829,-2.595 4.521,-3.733 8.246,-2.545c3.721,1.191 6.067,4.258 5.238,6.854" style="fill:#b22125;fill-rule:nonzero;"/><path d="M345.4,463.858c-0.804,2.521 -4.392,3.634 -8.012,2.471c-3.621,-1.15 -5.901,-4.137 -5.096,-6.658c0.804,-2.525 4.391,-3.633 8.012,-2.479c3.621,1.158 5.904,4.141 5.096,6.666" style="fill:#b11f25;fill-rule:nonzero;"/><path d="M345.213,463.796c-0.784,2.454 -4.271,3.529 -7.784,2.404c-3.516,-1.121 -5.733,-4.017 -4.95,-6.471c0.784,-2.45 4.271,-3.525 7.783,-2.408c3.517,1.129 5.734,4.025 4.95,6.475" style="fill:#b01f24;fill-rule:nonzero;"/><path d="M345.025,463.738c-0.758,2.379 -4.142,3.425 -7.554,2.333c-3.413,-1.088 -5.563,-3.904 -4.804,-6.284c0.758,-2.379 4.141,-3.425 7.558,-2.333c3.412,1.092 5.558,3.904 4.8,6.284" style="fill:#af1f24;fill-rule:nonzero;"/><path d="M344.838,463.679c-0.738,2.304 -4.017,3.321 -7.325,2.263c-3.309,-1.059 -5.396,-3.788 -4.659,-6.092c0.733,-2.308 4.017,-3.325 7.329,-2.262c3.309,1.054 5.392,3.783 4.655,6.091" style="fill:#ad1e24;fill-rule:nonzero;"/><path d="M344.65,463.617c-0.713,2.233 -3.892,3.216 -7.1,2.191c-3.204,-1.02 -5.225,-3.666 -4.508,-5.9c0.712,-2.233 3.891,-3.216 7.096,-2.191c3.204,1.025 5.225,3.666 4.512,5.9" style="fill:#ab1e23;fill-rule:nonzero;"/><path d="M344.463,463.558c-0.692,2.163 -3.763,3.113 -6.867,2.125c-3.104,-0.995 -5.058,-3.554 -4.371,-5.716c0.692,-2.163 3.771,-3.113 6.871,-2.121c3.104,0.992 5.058,3.55 4.367,5.712" style="fill:#ab1e22;fill-rule:nonzero;"/><path d="M344.275,463.5c-0.667,2.088 -3.642,3.008 -6.637,2.05c-3,-0.958 -4.892,-3.433 -4.226,-5.521c0.671,-2.091 3.642,-3.012 6.642,-2.05c3,0.954 4.892,3.429 4.221,5.521" style="fill:#aa1e22;fill-rule:nonzero;"/><path d="M344.088,463.438c-0.646,2.016 -3.513,2.908 -6.409,1.983c-2.896,-0.929 -4.721,-3.313 -4.079,-5.329c0.646,-2.021 3.517,-2.909 6.413,-1.984c2.895,0.925 4.72,3.313 4.075,5.329" style="fill:#a81e22;fill-rule:nonzero;"/><path d="M343.904,463.379c-0.625,1.946 -3.391,2.8 -6.183,1.909c-2.792,-0.892 -4.55,-3.192 -3.933,-5.142c0.625,-1.942 3.391,-2.8 6.187,-1.908c2.792,0.891 4.55,3.191 3.929,5.141" style="fill:#a71e22;fill-rule:nonzero;"/><path d="M343.717,463.321c-0.6,1.875 -3.267,2.696 -5.954,1.833c-2.692,-0.854 -4.384,-3.071 -3.788,-4.946c0.6,-1.875 3.267,-2.7 5.954,-1.837c2.688,0.858 4.384,3.075 3.788,4.95" style="fill:#a62022;fill-rule:nonzero;"/><path d="M343.529,463.258c-0.579,1.805 -3.142,2.596 -5.729,1.767c-2.579,-0.825 -4.212,-2.954 -3.637,-4.758c0.575,-1.8 3.141,-2.596 5.724,-1.767c2.588,0.825 4.213,2.958 3.642,4.758" style="fill:#a52021;fill-rule:nonzero;"/><path d="M343.342,463.2c-0.554,1.729 -3.017,2.492 -5.496,1.696c-2.483,-0.792 -4.05,-2.838 -3.496,-4.571c0.554,-1.729 3.012,-2.487 5.496,-1.696c2.483,0.796 4.046,2.838 3.496,4.571" style="fill:#a41d21;fill-rule:nonzero;"/><path d="M343.154,463.138c-0.529,1.658 -2.887,2.387 -5.266,1.629c-2.38,-0.759 -3.88,-2.721 -3.35,-4.384c0.529,-1.654 2.891,-2.383 5.27,-1.62c2.375,0.758 3.875,2.72 3.346,4.375" style="fill:#a21d21;fill-rule:nonzero;"/><path d="M342.967,463.079c-0.509,1.588 -2.763,2.284 -5.038,1.554c-2.275,-0.725 -3.708,-2.6 -3.204,-4.187c0.508,-1.588 2.762,-2.279 5.038,-1.554c2.275,0.725 3.712,2.6 3.204,4.187" style="fill:#a11d21;fill-rule:nonzero;"/><path d="M342.779,463.021c-0.483,1.512 -2.637,2.175 -4.808,1.483c-2.175,-0.692 -3.542,-2.483 -3.054,-3.996c0.479,-1.512 2.633,-2.179 4.804,-1.487c2.171,0.696 3.541,2.487 3.058,4" style="fill:#a01d21;fill-rule:nonzero;"/><path d="M342.592,462.958c-0.463,1.446 -2.513,2.075 -4.584,1.417c-2.062,-0.658 -3.366,-2.367 -2.908,-3.808c0.463,-1.442 2.513,-2.075 4.579,-1.417c2.071,0.663 3.371,2.367 2.913,3.808" style="fill:#9f1f21;fill-rule:nonzero;"/><path d="M342.404,462.9c-0.437,1.371 -2.387,1.971 -4.35,1.342c-1.966,-0.625 -3.204,-2.246 -2.766,-3.613c0.437,-1.371 2.387,-1.975 4.35,-1.346c1.966,0.625 3.204,2.246 2.766,3.617" style="fill:#9d1c21;fill-rule:nonzero;"/><path d="M342.217,462.842c-0.413,1.296 -2.263,1.866 -4.121,1.271c-1.863,-0.592 -3.038,-2.13 -2.621,-3.425c0.417,-1.3 2.258,-1.871 4.121,-1.275c1.862,0.595 3.033,2.129 2.621,3.429" style="fill:#9d1c21;fill-rule:nonzero;"/><path d="M342.029,462.779c-0.391,1.225 -2.133,1.763 -3.891,1.204c-1.759,-0.562 -2.867,-2.012 -2.475,-3.237c0.391,-1.225 2.137,-1.763 3.891,-1.2c1.759,0.558 2.867,2.008 2.475,3.233" style="fill:#9c1c21;fill-rule:nonzero;"/><path d="M341.842,462.721c-0.367,1.154 -2.009,1.662 -3.663,1.133c-1.654,-0.529 -2.696,-1.896 -2.329,-3.046c0.371,-1.154 2.008,-1.662 3.663,-1.133c1.654,0.529 2.7,1.892 2.329,3.046" style="fill:#9b1c21;fill-rule:nonzero;"/><path d="M341.654,462.658c-0.341,1.084 -1.883,1.559 -3.433,1.067c-1.55,-0.5 -2.529,-1.779 -2.183,-2.858c0.345,-1.084 1.883,-1.559 3.433,-1.059c1.554,0.492 2.529,1.771 2.183,2.85" style="fill:#9a1c21;fill-rule:nonzero;"/><path d="M341.467,462.6c-0.321,1.008 -1.759,1.454 -3.204,0.992c-1.45,-0.467 -2.363,-1.659 -2.038,-2.667c0.325,-1.008 1.758,-1.454 3.204,-0.992c1.45,0.467 2.363,1.659 2.038,2.667" style="fill:#991b20;fill-rule:nonzero;"/><path d="M341.279,462.542c-0.296,0.937 -1.633,1.35 -2.975,0.921c-1.346,-0.434 -2.191,-1.542 -1.891,-2.475c0.3,-0.942 1.629,-1.35 2.979,-0.921c1.341,0.429 2.187,1.533 1.887,2.475" style="fill:#991b20;fill-rule:nonzero;"/><path d="M341.092,462.479c-0.275,0.867 -1.505,1.25 -2.746,0.85c-1.242,-0.396 -2.025,-1.421 -1.746,-2.283c0.279,-0.867 1.508,-1.246 2.746,-0.85c1.242,0.396 2.021,1.421 1.746,2.283" style="fill:#971b20;fill-rule:nonzero;"/><path d="M340.904,462.421c-0.25,0.796 -1.383,1.142 -2.517,0.775c-1.137,-0.363 -1.854,-1.296 -1.599,-2.092c0.254,-0.791 1.379,-1.141 2.516,-0.775c1.142,0.363 1.854,1.3 1.6,2.092" style="fill:#961a1f;fill-rule:nonzero;"/><path d="M340.717,462.363c-0.229,0.72 -1.254,1.037 -2.288,0.704c-1.033,-0.329 -1.683,-1.18 -1.454,-1.9c0.229,-0.725 1.254,-1.042 2.288,-0.709c1.033,0.329 1.687,1.179 1.454,1.904" style="fill:#941a1f;fill-rule:nonzero;"/><path d="M340.529,462.304c-0.208,0.646 -1.129,0.929 -2.058,0.634c-0.933,-0.296 -1.517,-1.063 -1.308,-1.713c0.208,-0.65 1.129,-0.933 2.058,-0.633c0.933,0.296 1.517,1.062 1.308,1.712" style="fill:#941a1e;fill-rule:nonzero;"/><path d="M340.346,462.242c-0.188,0.575 -1.008,0.829 -1.833,0.566c-0.825,-0.266 -1.35,-0.945 -1.163,-1.525c0.183,-0.575 1,-0.829 1.829,-0.562c0.829,0.262 1.35,0.946 1.167,1.521" style="fill:#941a1e;fill-rule:nonzero;"/><path d="M340.158,462.183c-0.162,0.505 -0.879,0.725 -1.604,0.496c-0.725,-0.233 -1.179,-0.829 -1.021,-1.333c0.167,-0.508 0.88,-0.729 1.605,-0.496c0.725,0.229 1.179,0.829 1.02,1.333" style="fill:#92191e;fill-rule:nonzero;"/><path d="M339.971,462.121c-0.142,0.433 -0.758,0.625 -1.375,0.429c-0.621,-0.2 -1.013,-0.712 -0.875,-1.146c0.142,-0.433 0.754,-0.621 1.375,-0.425c0.625,0.2 1.012,0.713 0.875,1.142" style="fill:#91191e;fill-rule:nonzero;"/><path d="M339.783,462.063c-0.116,0.362 -0.629,0.516 -1.146,0.354c-0.516,-0.167 -0.841,-0.592 -0.729,-0.954c0.117,-0.359 0.63,-0.517 1.146,-0.351c0.517,0.163 0.842,0.592 0.729,0.95" style="fill:#91191e;fill-rule:nonzero;"/><path d="M339.596,462.004c-0.092,0.288 -0.504,0.413 -0.917,0.284c-0.412,-0.134 -0.671,-0.476 -0.583,-0.767c0.096,-0.283 0.504,-0.413 0.917,-0.279c0.412,0.133 0.675,0.471 0.583,0.762" style="fill:#8f191d;fill-rule:nonzero;"/><path d="M339.408,461.942c-0.07,0.216 -0.379,0.312 -0.687,0.212c-0.308,-0.096 -0.504,-0.354 -0.438,-0.571c0.071,-0.216 0.379,-0.312 0.688,-0.212c0.308,0.1 0.508,0.358 0.437,0.571" style="fill:#8e181d;fill-rule:nonzero;"/><path d="M339.221,461.883c-0.046,0.146 -0.25,0.205 -0.459,0.142c-0.208,-0.067 -0.337,-0.237 -0.291,-0.383c0.046,-0.142 0.25,-0.204 0.458,-0.138c0.209,0.067 0.338,0.234 0.292,0.379" style="fill:#8e181d;fill-rule:nonzero;"/><path d="M339.033,461.821c-0.02,0.075 -0.125,0.108 -0.229,0.071c-0.104,-0.03 -0.167,-0.117 -0.146,-0.188c0.025,-0.071 0.125,-0.104 0.23,-0.071c0.104,0.034 0.17,0.117 0.145,0.188" style="fill:#8d181d;fill-rule:nonzero;"/></g></g></g><path d="M335.604,457.092c-1.733,1.941 -0.579,3.783 1.946,4.571c2.525,0.791 6.254,0.524 5.417,3.316c-0.492,1.625 -0.679,2.121 -0.75,2.254c0.325,-0.025 2.5,-0.279 2.696,-3.095c0.208,-3.05 0.47,-7.788 -4.263,-8.734c0,0 -0.15,-0.012 -0.4,-0.012c-0.938,0 -3.283,0.162 -4.646,1.7Zm6.571,10.146c0,0 -0.008,0.091 0.042,-0.005c-0.025,0 -0.042,0.005 -0.042,0.005Z" style="fill:url(#_Radial16);fill-rule:nonzero;"/></g><g><path d="M2262.01,493.813l10.367,0l0,2.3l-7.867,0l0,7.9l7.234,0l0,2.3l-7.234,0l0,8.533l8.034,0l0,2.3l-10.534,0l0,-23.333Z" style="fill:#fff;fill-rule:nonzero;"/><path d="M2276.14,514.046c0.421,0.291 1.016,0.562 1.783,0.816c0.767,0.259 1.638,0.384 2.617,0.384c1.246,0 2.254,-0.304 3.033,-0.917c0.779,-0.608 1.167,-1.571 1.167,-2.883c0,-0.867 -0.221,-1.621 -0.667,-2.267c-0.446,-0.642 -1,-1.237 -1.667,-1.783c-0.666,-0.542 -1.383,-1.075 -2.15,-1.6c-0.766,-0.521 -1.483,-1.1 -2.15,-1.733c-0.666,-0.634 -1.22,-1.359 -1.666,-2.184c-0.446,-0.821 -0.667,-1.808 -0.667,-2.966c0,-1.867 0.563,-3.25 1.683,-4.15c1.121,-0.9 2.584,-1.35 4.384,-1.35c1.112,0 2.1,0.1 2.966,0.3c0.867,0.2 1.567,0.458 2.1,0.766l-0.8,2.2c-0.4,-0.241 -0.97,-0.466 -1.716,-0.666c-0.746,-0.2 -1.604,-0.3 -2.584,-0.3c-1.2,0 -2.087,0.295 -2.666,0.883c-0.579,0.592 -0.867,1.329 -0.867,2.217c0,0.779 0.221,1.466 0.667,2.066c0.446,0.6 1,1.167 1.666,1.7c0.667,0.534 1.384,1.075 2.15,1.617c0.767,0.546 1.484,1.15 2.15,1.817c0.667,0.666 1.221,1.425 1.667,2.266c0.446,0.846 0.667,1.846 0.667,3c0,1.959 -0.579,3.492 -1.734,4.6c-1.154,1.113 -2.787,1.667 -4.9,1.667c-1.333,0 -2.429,-0.121 -3.283,-0.367c-0.854,-0.241 -1.537,-0.521 -2.05,-0.833l0.867,-2.3Z" style="fill:#fff;fill-rule:nonzero;"/><path d="M2302.88,496.113l-5.733,0l0,21.033l-2.5,0l0,-21.033l-5.734,0l0,-2.3l13.967,0l0,2.3Z" style="fill:#fff;fill-rule:nonzero;"/><path d="M2312.61,510.613l-6.6,0l-1.866,6.533l-2.467,0l7.033,-23.7l1.367,0l7.033,23.7l-2.6,0l-1.9,-6.533Zm-5.933,-2.234l5.333,0l-2.033,-7.2l-0.633,-3.5l-0.067,0l-0.633,3.567l-1.967,7.133Z" style="fill:#fff;fill-rule:nonzero;"/><path d="M2330.97,499.113c0,0.579 -0.067,1.158 -0.2,1.733c-0.133,0.579 -0.346,1.125 -0.633,1.633c-0.288,0.513 -0.65,0.967 -1.084,1.367c-0.433,0.4 -0.962,0.7 -1.583,0.9l0,0.133c0.533,0.113 1.046,0.296 1.533,0.55c0.488,0.259 0.921,0.613 1.3,1.067c0.379,0.458 0.679,1.012 0.9,1.667c0.221,0.658 0.334,1.441 0.334,2.35c0,1.2 -0.188,2.241 -0.567,3.116c-0.379,0.879 -0.896,1.596 -1.55,2.15c-0.654,0.559 -1.412,0.967 -2.267,1.234c-0.854,0.266 -1.762,0.4 -2.716,0.4l-1.084,0c-0.412,0 -0.85,-0.017 -1.316,-0.05c-0.467,-0.034 -0.93,-0.075 -1.384,-0.134c-0.454,-0.054 -0.87,-0.137 -1.25,-0.25l0,-22.966c0.667,-0.134 1.45,-0.242 2.35,-0.334c0.9,-0.087 1.871,-0.133 2.917,-0.133c0.754,0 1.513,0.075 2.267,0.217c0.754,0.145 1.433,0.416 2.033,0.816c0.6,0.4 1.083,0.963 1.45,1.684c0.367,0.725 0.55,1.675 0.55,2.85Zm-6.333,16c0.6,0 1.154,-0.092 1.666,-0.284c0.513,-0.187 0.963,-0.471 1.35,-0.85c0.388,-0.375 0.696,-0.837 0.917,-1.383c0.221,-0.542 0.333,-1.183 0.333,-1.917c0,-0.908 -0.137,-1.65 -0.416,-2.216c-0.28,-0.567 -0.638,-1.005 -1.084,-1.317c-0.446,-0.308 -0.95,-0.521 -1.516,-0.633c-0.567,-0.109 -1.15,-0.167 -1.75,-0.167l-2.234,0l0,8.533c0.134,0.046 0.304,0.079 0.517,0.1c0.213,0.025 0.446,0.046 0.7,0.067c0.254,0.025 0.517,0.042 0.783,0.05c0.267,0.012 0.513,0.017 0.734,0.017Zm-1.367,-10.934c0.313,0 0.667,-0.008 1.067,-0.033c0.4,-0.021 0.733,-0.054 1,-0.1c0.821,-0.333 1.529,-0.871 2.116,-1.617c0.588,-0.741 0.884,-1.658 0.884,-2.75c0,-0.733 -0.1,-1.35 -0.3,-1.85c-0.2,-0.5 -0.471,-0.891 -0.817,-1.183c-0.346,-0.288 -0.75,-0.492 -1.217,-0.617c-0.466,-0.121 -0.954,-0.183 -1.466,-0.183c-0.579,0 -1.1,0.017 -1.567,0.05c-0.467,0.033 -0.821,0.075 -1.067,0.117l0,8.166l1.367,0Z" style="fill:#fff;fill-rule:nonzero;"/><path d="M2346.34,517.146l-11.234,0l0,-23.333l2.5,0l0,21.033l8.734,0l0,2.3Z" style="fill:#fff;fill-rule:nonzero;"/><path d="M2348.94,493.813l10.366,0l0,2.3l-7.866,0l0,7.9l7.233,0l0,2.3l-7.233,0l0,8.533l8.033,0l0,2.3l-10.533,0l0,-23.333Z" style="fill:#fff;fill-rule:nonzero;"/><path d="M2375.44,516.246c-0.555,0.466 -1.255,0.8 -2.1,1c-0.846,0.2 -1.734,0.3 -2.667,0.3c-1.179,0 -2.267,-0.221 -3.267,-0.667c-1,-0.441 -1.862,-1.15 -2.583,-2.116c-0.721,-0.967 -1.283,-2.217 -1.683,-3.75c-0.4,-1.534 -0.6,-3.375 -0.6,-5.534c0,-2.221 0.229,-4.1 0.683,-5.633c0.454,-1.533 1.062,-2.775 1.817,-3.733c0.754,-0.955 1.629,-1.642 2.616,-2.067c0.988,-0.421 2.005,-0.633 3.05,-0.633c1.067,0 1.95,0.079 2.65,0.233c0.7,0.158 1.304,0.346 1.817,0.567l-0.6,2.266c-0.446,-0.242 -0.967,-0.433 -1.567,-0.566c-0.6,-0.134 -1.287,-0.201 -2.066,-0.201c-0.78,0 -1.513,0.175 -2.2,0.517c-0.688,0.346 -1.3,0.9 -1.834,1.667c-0.533,0.767 -0.954,1.775 -1.266,3.017c-0.313,1.245 -0.467,2.766 -0.467,4.566c0,3.246 0.554,5.684 1.667,7.317c1.112,1.633 2.587,2.45 4.433,2.45c0.754,0 1.433,-0.104 2.033,-0.317c0.6,-0.208 1.113,-0.458 1.534,-0.75l0.6,2.067Z" style="fill:#fff;fill-rule:nonzero;"/><rect x="2379.01" y="493.813" width="2.5" height="23.333" style="fill:#fff;"/><path d="M2386.28,493.813c0.354,-0.067 0.75,-0.117 1.183,-0.15c0.434,-0.034 0.871,-0.055 1.317,-0.067c0.446,-0.008 0.883,-0.021 1.317,-0.034c0.433,-0.008 0.837,-0.016 1.216,-0.016c1.621,0 3,0.279 4.134,0.833c1.133,0.558 2.054,1.35 2.766,2.384c0.713,1.033 1.221,2.275 1.534,3.716c0.312,1.446 0.466,3.058 0.466,4.833c0,1.6 -0.15,3.134 -0.45,4.6c-0.3,1.467 -0.804,2.759 -1.516,3.867c-0.713,1.113 -1.65,2 -2.817,2.667c-1.167,0.666 -2.629,1 -4.383,1c-0.288,0 -0.655,-0.004 -1.1,-0.017c-0.446,-0.008 -0.905,-0.033 -1.384,-0.067c-0.479,-0.033 -0.921,-0.058 -1.333,-0.083c-0.413,-0.021 -0.729,-0.054 -0.95,-0.1l0,-23.367Zm5.167,2.034l-0.717,0c-0.254,0 -0.504,0.012 -0.75,0.033c-0.246,0.025 -0.471,0.046 -0.683,0.067c-0.213,0.025 -0.384,0.046 -0.517,0.066l0,19c0.087,0.025 0.25,0.042 0.483,0.051l1.467,0.066c0.233,0.013 0.404,0.017 0.517,0.017c1.22,0 2.245,-0.267 3.066,-0.8c0.821,-0.534 1.471,-1.25 1.95,-2.15c0.479,-0.9 0.817,-1.942 1.017,-3.134c0.2,-1.187 0.3,-2.45 0.3,-3.783c0,-1.175 -0.088,-2.333 -0.267,-3.467c-0.179,-1.133 -0.496,-2.137 -0.95,-3.016c-0.454,-0.875 -1.079,-1.588 -1.866,-2.134c-0.788,-0.541 -1.805,-0.816 -3.05,-0.816Z" style="fill:#fff;fill-rule:nonzero;"/><path d="M2403.08,505.479c0,-3.954 0.633,-6.954 1.9,-9c1.267,-2.041 3.2,-3.066 5.8,-3.066c1.4,0 2.588,0.283 3.567,0.849c0.979,0.567 1.771,1.375 2.383,2.417c0.613,1.046 1.063,2.313 1.35,3.8c0.287,1.492 0.433,3.159 0.433,5c0,3.959 -0.637,6.959 -1.916,9c-1.279,2.046 -3.217,3.067 -5.817,3.067c-1.379,0 -2.554,-0.284 -3.533,-0.85c-0.979,-0.567 -1.779,-1.371 -2.4,-2.417c-0.621,-1.041 -1.071,-2.308 -1.35,-3.8c-0.279,-1.487 -0.417,-3.154 -0.417,-5Zm2.633,0c0,1.313 0.096,2.559 0.284,3.734c0.187,1.179 0.483,2.212 0.883,3.1c0.4,0.891 0.921,1.6 1.567,2.133c0.646,0.533 1.421,0.8 2.333,0.8c1.667,0 2.933,-0.8 3.8,-2.4c0.867,-1.6 1.3,-4.054 1.3,-7.367c0,-1.287 -0.096,-2.521 -0.283,-3.7c-0.188,-1.175 -0.484,-2.216 -0.884,-3.117c-0.4,-0.899 -0.921,-1.616 -1.566,-2.149c-0.646,-0.534 -1.434,-0.8 -2.367,-0.8c-1.646,0 -2.9,0.8 -3.767,2.399c-0.866,1.601 -1.3,4.059 -1.3,7.367Z" style="fill:#fff;fill-rule:nonzero;"/><path d="M2429.14,493.813l10.366,0l0,2.3l-7.866,0l0,7.9l7.233,0l0,2.3l-7.233,0l0,8.533l8.033,0l0,2.3l-10.533,0l0,-23.333Z" style="fill:#fff;fill-rule:nonzero;"/><path d="M2447.01,502.346l-1.433,-3.667l-0.1,0l0.367,3.667l0,14.8l-2.4,0l0,-23.7l1.5,0l8.633,15.133l1.367,3.5l0.133,0l-0.367,-3.5l0,-14.766l2.4,0l0,23.7l-1.533,0l-8.567,-15.167Z" style="fill:#fff;fill-rule:nonzero;"/><path d="M2469.44,514.913l3.766,0l0,-16.234l0.3,-1.966l-1.133,1.6l-2.8,2.266l-1.267,-1.5l6.067,-5.667l1.233,0l0,21.5l3.634,0l0,2.234l-9.8,0l0,-2.234Z" style="fill:#fff;fill-rule:nonzero;"/><path d="M2482.84,500.879c0,-2.308 0.495,-4.133 1.483,-5.466c0.987,-1.334 2.462,-2 4.417,-2c1.866,0 3.316,0.691 4.35,2.066c1.033,1.379 1.55,3.492 1.55,6.334c0,2.512 -0.234,4.695 -0.7,6.55c-0.467,1.858 -1.113,3.425 -1.934,4.7c-0.821,1.279 -1.787,2.283 -2.9,3.016c-1.112,0.734 -2.312,1.225 -3.6,1.467l-0.633,-1.967c2.133,-0.554 3.787,-1.671 4.967,-3.35c1.179,-1.675 1.92,-3.783 2.233,-6.316c-0.467,0.645 -0.983,1.1 -1.55,1.366c-0.567,0.267 -1.317,0.4 -2.25,0.4c-0.713,0 -1.396,-0.137 -2.05,-0.416c-0.654,-0.275 -1.233,-0.7 -1.733,-1.267c-0.5,-0.567 -0.9,-1.275 -1.2,-2.133c-0.3,-0.855 -0.45,-1.85 -0.45,-2.984Zm2.433,-0.266c0,1.579 0.321,2.791 0.967,3.633c0.645,0.846 1.5,1.267 2.566,1.267c0.846,0 1.563,-0.184 2.15,-0.55c0.588,-0.367 1.017,-0.838 1.284,-1.417c0.045,-0.288 0.066,-0.567 0.066,-0.833l0,-0.767c0,-0.842 -0.071,-1.65 -0.216,-2.417c-0.146,-0.766 -0.367,-1.441 -0.667,-2.033c-0.3,-0.588 -0.683,-1.054 -1.15,-1.4c-0.467,-0.342 -1.021,-0.517 -1.667,-0.517c-1.046,0 -1.862,0.459 -2.45,1.367c-0.587,0.912 -0.883,2.133 -0.883,3.667Z" style="fill:#fff;fill-rule:nonzero;"/><path d="M2497.61,505.479c0,-2.133 0.134,-3.966 0.4,-5.5c0.267,-1.533 0.667,-2.783 1.2,-3.75c0.534,-0.966 1.188,-1.675 1.967,-2.133c0.779,-0.454 1.667,-0.683 2.667,-0.683c1.066,0 1.996,0.229 2.783,0.683c0.788,0.458 1.438,1.167 1.95,2.133c0.513,0.967 0.888,2.217 1.133,3.75c0.246,1.534 0.367,3.367 0.367,5.5c0,2.159 -0.133,3.996 -0.4,5.517c-0.267,1.525 -0.667,2.767 -1.2,3.733c-0.533,0.967 -1.183,1.679 -1.95,2.134c-0.767,0.458 -1.65,0.683 -2.65,0.683c-1.087,0 -2.029,-0.233 -2.817,-0.7c-0.787,-0.467 -1.437,-1.188 -1.95,-2.167c-0.512,-0.975 -0.887,-2.225 -1.133,-3.75c-0.246,-1.521 -0.367,-3.337 -0.367,-5.45Zm2.5,0c0,3.179 0.3,5.625 0.9,7.334c0.6,1.712 1.567,2.566 2.9,2.566c1.288,0 2.229,-0.783 2.817,-2.35c0.588,-1.566 0.883,-4.083 0.883,-7.55c0,-3.154 -0.283,-5.591 -0.85,-7.316c-0.566,-1.721 -1.537,-2.584 -2.916,-2.584c-1.288,0 -2.234,0.779 -2.834,2.334c-0.6,1.558 -0.9,4.079 -0.9,7.566Z" style="fill:#fff;fill-rule:nonzero;"/><path d="M2513.28,511.746c0,-1.488 0.304,-2.754 0.917,-3.8c0.612,-1.042 1.516,-1.988 2.716,-2.834c-0.445,-0.333 -0.862,-0.683 -1.25,-1.05c-0.387,-0.366 -0.729,-0.783 -1.016,-1.25c-0.288,-0.466 -0.517,-0.987 -0.684,-1.566c-0.166,-0.575 -0.25,-1.242 -0.25,-2c0,-1.8 0.471,-3.221 1.417,-4.267c0.946,-1.042 2.238,-1.567 3.883,-1.567c1.534,0 2.75,0.475 3.65,1.417c0.9,0.946 1.35,2.242 1.35,3.883c0,1.267 -0.245,2.392 -0.733,3.367c-0.487,0.979 -1.254,1.933 -2.3,2.867c0.467,0.333 0.913,0.7 1.333,1.1c0.421,0.4 0.796,0.85 1.117,1.35c0.321,0.5 0.571,1.066 0.75,1.7c0.179,0.633 0.267,1.362 0.267,2.183c0,1.892 -0.504,3.408 -1.517,4.55c-1.012,1.146 -2.417,1.717 -4.217,1.717c-0.866,0 -1.633,-0.142 -2.3,-0.433c-0.666,-0.288 -1.233,-0.688 -1.7,-1.201c-0.466,-0.508 -0.82,-1.12 -1.066,-1.833c-0.246,-0.708 -0.367,-1.487 -0.367,-2.333Zm5.2,-5.7c-1.021,0.758 -1.762,1.6 -2.217,2.533c-0.454,0.934 -0.683,1.867 -0.683,2.8c0,1.133 0.279,2.084 0.833,2.85c0.555,0.767 1.367,1.15 2.434,1.15c0.866,0 1.616,-0.316 2.25,-0.95c0.633,-0.633 0.95,-1.637 0.95,-3.016c0,-0.688 -0.1,-1.3 -0.3,-1.834c-0.2,-0.533 -0.467,-1.004 -0.8,-1.416c-0.334,-0.409 -0.713,-0.788 -1.134,-1.134c-0.42,-0.341 -0.866,-0.671 -1.333,-0.983Zm0.9,-1.967c0.754,-0.754 1.333,-1.516 1.733,-2.283c0.4,-0.767 0.6,-1.617 0.6,-2.55c0,-1.221 -0.27,-2.138 -0.816,-2.75c-0.546,-0.608 -1.184,-0.917 -1.917,-0.917c-0.467,0 -0.883,0.096 -1.25,0.284c-0.367,0.191 -0.671,0.45 -0.917,0.783c-0.245,0.333 -0.433,0.717 -0.566,1.15c-0.134,0.433 -0.2,0.896 -0.2,1.383c0,0.6 0.087,1.142 0.266,1.617c0.18,0.479 0.421,0.912 0.734,1.3c0.312,0.392 0.666,0.746 1.066,1.067c0.4,0.325 0.821,0.629 1.267,0.916Z" style="fill:#fff;fill-rule:nonzero;"/></g><defs><linearGradient id="_Linear1" x1="0" y1="0" x2="1" y2="0" gradientUnits="userSpaceOnUse" gradientTransform="matrix(-366.818,235.811,-235.811,-366.818,1943.4,74.8292)"><stop offset="0" style="stop-color:#43c3e8;stop-opacity:1"/><stop offset="0.37" style="stop-color:#43c3e8;stop-opacity:1"/><stop offset="1" style="stop-color:#273c83;stop-opacity:1"/><stop offset="1" style="stop-color:#273c83;stop-opacity:1"/></linearGradient><linearGradient id="_Linear2" x1="0" y1="0" x2="1" y2="0" gradientUnits="userSpaceOnUse" gradientTransform="matrix(-366.817,235.811,-235.811,-366.817,1978,128.655)"><stop offset="0" style="stop-color:#43c3e8;stop-opacity:1"/><stop offset="0.37" style="stop-color:#43c3e8;stop-opacity:1"/><stop offset="1" style="stop-color:#273c83;stop-opacity:1"/><stop offset="1" style="stop-color:#273c83;stop-opacity:1"/></linearGradient><linearGradient id="_Linear3" x1="0" y1="0" x2="1" y2="0" gradientUnits="userSpaceOnUse" gradientTransform="matrix(1.24324e-14,-203.037,203.037,1.24324e-14,211.303,433.154)"><stop offset="0" style="stop-color:#08694c;stop-opacity:1"/><stop offset="0.49" style="stop-color:#23b354;stop-opacity:1"/><stop offset="1" style="stop-color:#08694c;stop-opacity:1"/></linearGradient><linearGradient id="_Linear4" x1="0" y1="0" x2="1" y2="0" gradientUnits="userSpaceOnUse" gradientTransform="matrix(1.24324e-14,-203.037,203.037,1.24324e-14,459.967,433.154)"><stop offset="0" style="stop-color:#08694c;stop-opacity:1"/><stop offset="0.49" style="stop-color:#23b354;stop-opacity:1"/><stop offset="1" style="stop-color:#08694c;stop-opacity:1"/></linearGradient><linearGradient id="_Linear5" x1="0" y1="0" x2="1" y2="0" gradientUnits="userSpaceOnUse" gradientTransform="matrix(1.24324e-14,-203.037,203.037,1.24324e-14,372.809,433.154)"><stop offset="0" style="stop-color:#08694c;stop-opacity:1"/><stop offset="0.49" style="stop-color:#23b354;stop-opacity:1"/><stop offset="1" style="stop-color:#08694c;stop-opacity:1"/></linearGradient><linearGradient id="_Linear6" x1="0" y1="0" x2="1" y2="0" gradientUnits="userSpaceOnUse" gradientTransform="matrix(1.24324e-14,-203.037,203.037,1.24324e-14,299.258,433.154)"><stop offset="0" style="stop-color:#08694c;stop-opacity:1"/><stop offset="0.49" style="stop-color:#23b354;stop-opacity:1"/><stop offset="1" style="stop-color:#08694c;stop-opacity:1"/></linearGradient><linearGradient id="_Linear7" x1="0" y1="0" x2="1" y2="0" gradientUnits="userSpaceOnUse" gradientTransform="matrix(1.24324e-14,-203.037,203.037,1.24324e-14,279.907,433.154)"><stop offset="0" style="stop-color:#08694c;stop-opacity:1"/><stop offset="0.49" style="stop-color:#23b354;stop-opacity:1"/><stop offset="1" style="stop-color:#08694c;stop-opacity:1"/></linearGradient><radialGradient id="_Radial8" cx="0" cy="0" r="1" gradientUnits="userSpaceOnUse" gradientTransform="matrix(32.2982,0,0,32.2982,372.976,468.788)"><stop offset="0" style="stop-color:#e31b3f;stop-opacity:1"/><stop offset="0" style="stop-color:#e31b3f;stop-opacity:1"/><stop offset="0.72" style="stop-color:#8d181d;stop-opacity:1"/><stop offset="1" style="stop-color:#6c0c0e;stop-opacity:1"/></radialGradient><linearGradient id="_Linear9" x1="0" y1="0" x2="1" y2="0" gradientUnits="userSpaceOnUse" gradientTransform="matrix(37.98,-27.8893,27.8893,37.98,341.91,463.463)"><stop offset="0" style="stop-color:#8d181d;stop-opacity:1"/><stop offset="1" style="stop-color:#e31b3f;stop-opacity:1"/></linearGradient><radialGradient id="_Radial10" cx="0" cy="0" r="1" gradientUnits="userSpaceOnUse" gradientTransform="matrix(46.5121,0,0,46.5121,289.727,463.717)"><stop offset="0" style="stop-color:#e31b3f;stop-opacity:1"/><stop offset="0.63" style="stop-color:#8d181d;stop-opacity:1"/><stop offset="0.92" style="stop-color:#6c0c0e;stop-opacity:1"/><stop offset="1" style="stop-color:#6c0c0e;stop-opacity:1"/></radialGradient><linearGradient id="_Linear11" x1="0" y1="0" x2="1" y2="0" gradientUnits="userSpaceOnUse" gradientTransform="matrix(59.3154,0,0,59.3154,279.151,453.821)"><stop offset="0" style="stop-color:#e31c3e;stop-opacity:1"/><stop offset="1" style="stop-color:#8d181d;stop-opacity:1"/></linearGradient><linearGradient id="_Linear12" x1="0" y1="0" x2="1" y2="0" gradientUnits="userSpaceOnUse" gradientTransform="matrix(36.0643,-40.0468,40.0468,36.0643,307.115,502.808)"><stop offset="0" style="stop-color:#e31c3e;stop-opacity:1"/><stop offset="1" style="stop-color:#6c0c0e;stop-opacity:1"/></linearGradient><linearGradient id="_Linear13" x1="0" y1="0" x2="1" y2="0" gradientUnits="userSpaceOnUse" gradientTransform="matrix(10.0535,-56.7196,56.7196,10.0535,370.16,535.142)"><stop offset="0" style="stop-color:#e31c3e;stop-opacity:1"/><stop offset="0" style="stop-color:#e31c3e;stop-opacity:1"/><stop offset="1" style="stop-color:#6c0c0e;stop-opacity:1"/></linearGradient><radialGradient id="_Radial14" cx="0" cy="0" r="1" gradientUnits="userSpaceOnUse" gradientTransform="matrix(32.3587,0,0,32.3587,367.121,476.163)"><stop offset="0" style="stop-color:#e31c3e;stop-opacity:1"/><stop offset="1" style="stop-color:#6c0c0e;stop-opacity:1"/></radialGradient><radialGradient id="_Radial16" cx="0" cy="0" r="1" gradientUnits="userSpaceOnUse" gradientTransform="matrix(6.74383,0,0,6.74383,339.33,462.317)"><stop offset="0" style="stop-color:#e31b3f;stop-opacity:1"/><stop offset="1" style="stop-color:#8d181d;stop-opacity:1"/></radialGradient></defs></svg>