<?xml version="1.0" encoding="UTF-8" standalone="no"?><!DOCTYPE svg PUBLIC "-//W3C//DTD SVG 1.1//EN" "http://www.w3.org/Graphics/SVG/1.1/DTD/svg11.dtd"><svg width="100%" height="100%" viewBox="0 0 675 155" version="1.1" xmlns="http://www.w3.org/2000/svg" xmlns:xlink="http://www.w3.org/1999/xlink" xml:space="preserve" xmlns:serif="http://www.serif.com/" style="fill-rule:evenodd;clip-rule:evenodd;stroke-linejoin:round;stroke-miterlimit:2;"><g><path d="M520.957,29.921l0,14.883l-3.132,0l0,-10.048l-1.252,10.048l-2.221,0l-1.319,-9.818l0,9.818l-3.132,0l0,-14.883l4.638,0c0.137,0.895 0.281,1.948 0.435,3.162l0.493,3.787l0.817,-6.949l4.673,0Z" style="fill:#154267;fill-rule:nonzero;"/><path d="M530.54,29.921l0,9.946c0,1.128 -0.034,1.92 -0.102,2.376c-0.068,0.456 -0.27,0.926 -0.605,1.407c-0.334,0.481 -0.776,0.845 -1.322,1.093c-0.549,0.249 -1.193,0.372 -1.937,0.372c-0.822,0 -1.548,-0.146 -2.179,-0.44c-0.63,-0.295 -1.101,-0.678 -1.413,-1.149c-0.312,-0.472 -0.497,-0.97 -0.553,-1.493c-0.057,-0.525 -0.085,-1.626 -0.085,-3.306l0,-8.806l3.583,0l0,11.159c0,0.65 0.033,1.065 0.098,1.246c0.066,0.181 0.197,0.271 0.396,0.271c0.227,0 0.373,-0.099 0.439,-0.298c0.064,-0.2 0.098,-0.67 0.098,-1.412l0,-10.966l3.582,0Z" style="fill:#154267;fill-rule:nonzero;"/><path d="M539.519,34.425l-3.327,0l0,-1.103c0,-0.514 -0.043,-0.843 -0.128,-0.983c-0.085,-0.141 -0.227,-0.213 -0.426,-0.213c-0.215,0 -0.379,0.095 -0.489,0.286c-0.11,0.191 -0.166,0.478 -0.166,0.864c0,0.497 0.062,0.87 0.187,1.121c0.119,0.252 0.457,0.556 1.013,0.911c1.594,1.023 2.599,1.863 3.013,2.519c0.414,0.655 0.622,1.712 0.622,3.171c0,1.06 -0.116,1.842 -0.345,2.344c-0.23,0.503 -0.674,0.923 -1.333,1.264c-0.657,0.34 -1.423,0.509 -2.298,0.509c-0.958,0 -1.777,-0.195 -2.454,-0.587c-0.678,-0.393 -1.122,-0.893 -1.333,-1.499c-0.209,-0.607 -0.315,-1.467 -0.315,-2.582l0,-0.975l3.329,0l0,1.81c0,0.558 0.047,0.916 0.14,1.076c0.093,0.159 0.26,0.239 0.498,0.239c0.238,0 0.416,-0.1 0.531,-0.303c0.117,-0.202 0.175,-0.502 0.175,-0.901c0,-0.876 -0.111,-1.449 -0.331,-1.72c-0.228,-0.268 -0.786,-0.719 -1.678,-1.351c-0.89,-0.637 -1.48,-1.099 -1.769,-1.388c-0.29,-0.287 -0.529,-0.686 -0.72,-1.195c-0.19,-0.509 -0.285,-1.158 -0.285,-1.949c0,-1.14 0.135,-1.973 0.404,-2.5c0.271,-0.527 0.705,-0.939 1.306,-1.236c0.603,-0.298 1.329,-0.446 2.18,-0.446c0.93,0 1.723,0.163 2.379,0.487c0.655,0.325 1.089,0.734 1.302,1.227c0.212,0.494 0.319,1.331 0.319,2.514l0,0.589l-0.001,0Z" style="fill:#154267;fill-rule:nonzero;"/><path d="M540.941,29.921l5.975,0l0,2.978l-2.392,0l0,2.822l2.238,0l0,2.831l-2.238,0l0,3.273l2.63,0l0,2.979l-6.213,0l0,-14.883Z" style="fill:#154267;fill-rule:nonzero;"/><path d="M556.372,38.635c0,1.496 -0.033,2.554 -0.098,3.177c-0.066,0.622 -0.27,1.19 -0.613,1.705c-0.343,0.514 -0.808,0.909 -1.391,1.186c-0.585,0.275 -1.266,0.413 -2.044,0.413c-0.736,0 -1.399,-0.13 -1.987,-0.391c-0.587,-0.26 -1.059,-0.651 -1.416,-1.172c-0.358,-0.521 -0.57,-1.088 -0.638,-1.701c-0.069,-0.613 -0.103,-1.685 -0.103,-3.217l0,-2.545c0,-1.496 0.033,-2.555 0.098,-3.177c0.066,-0.622 0.27,-1.19 0.613,-1.705c0.342,-0.516 0.806,-0.911 1.391,-1.186c0.585,-0.276 1.266,-0.414 2.042,-0.414c0.738,0 1.401,0.131 1.988,0.391c0.587,0.261 1.06,0.651 1.417,1.172c0.358,0.521 0.57,1.087 0.638,1.7c0.068,0.613 0.103,1.686 0.103,3.219l0,2.545Zm-3.584,-4.891c0,-0.692 -0.036,-1.135 -0.106,-1.328c-0.072,-0.192 -0.218,-0.29 -0.438,-0.29c-0.188,0 -0.331,0.079 -0.431,0.236c-0.099,0.155 -0.149,0.617 -0.149,1.382l0,6.95c0,0.864 0.033,1.397 0.098,1.599c0.066,0.203 0.217,0.304 0.456,0.304c0.244,0 0.4,-0.116 0.468,-0.349c0.067,-0.233 0.101,-0.788 0.101,-1.664l0,-6.84l0.001,0Z" style="fill:#154267;fill-rule:nonzero;"/><path d="M577.98,29.921l0,14.883l-3.131,0l0,-10.048l-1.251,10.048l-2.221,0l-1.321,-9.818l0,9.818l-3.131,0l0,-14.883l4.638,0c0.137,0.895 0.281,1.948 0.434,3.162l0.494,3.787l0.818,-6.949l4.671,0Z" style="fill:#154267;fill-rule:nonzero;"/><path d="M587.564,29.921l0,9.946c0,1.128 -0.034,1.92 -0.103,2.376c-0.067,0.456 -0.268,0.926 -0.603,1.407c-0.336,0.481 -0.776,0.845 -1.325,1.093c-0.547,0.249 -1.192,0.372 -1.935,0.372c-0.823,0 -1.549,-0.146 -2.179,-0.44c-0.63,-0.295 -1.101,-0.678 -1.412,-1.149c-0.313,-0.472 -0.498,-0.97 -0.554,-1.493c-0.057,-0.525 -0.085,-1.626 -0.085,-3.306l0,-8.806l3.583,0l0,11.159c0,0.65 0.033,1.065 0.098,1.246c0.064,0.181 0.198,0.271 0.396,0.271c0.227,0 0.373,-0.099 0.438,-0.298c0.066,-0.2 0.098,-0.67 0.098,-1.412l0,-10.966l3.583,0Z" style="fill:#154267;fill-rule:nonzero;"/><path d="M596.952,29.921l0,14.883l-3.141,0l-1.864,-6.766l0,6.766l-2.996,0l0,-14.883l2.996,0l2.009,6.7l0,-6.7l2.996,0Z" style="fill:#154267;fill-rule:nonzero;"/><rect x="598.389" y="29.921" width="3.583" height="14.882" style="fill:#154267;"/><path d="M611.777,36.41l-3.582,0l0,-2.591c0,-0.755 -0.038,-1.225 -0.115,-1.412c-0.076,-0.187 -0.246,-0.281 -0.506,-0.281c-0.296,0 -0.483,0.114 -0.562,0.341c-0.08,0.226 -0.119,0.716 -0.119,1.47l0,6.913c0,0.724 0.039,1.195 0.119,1.416c0.079,0.22 0.257,0.33 0.535,0.33c0.268,0 0.442,-0.11 0.524,-0.33c0.083,-0.221 0.124,-0.738 0.124,-1.554l0,-1.866l3.582,0l0,0.579c0,1.539 -0.1,2.63 -0.302,3.273c-0.201,0.643 -0.646,1.207 -1.335,1.691c-0.69,0.484 -1.54,0.726 -2.55,0.726c-1.05,0 -1.914,-0.205 -2.595,-0.615c-0.682,-0.411 -1.132,-0.979 -1.354,-1.706c-0.221,-0.726 -0.332,-1.819 -0.332,-3.277l0,-4.347c0,-1.073 0.033,-1.878 0.103,-2.413c0.067,-0.536 0.271,-1.053 0.608,-1.549c0.338,-0.496 0.806,-0.888 1.404,-1.172c0.599,-0.285 1.287,-0.428 2.064,-0.428c1.057,0 1.927,0.221 2.613,0.662c0.687,0.442 1.138,0.992 1.353,1.651c0.216,0.659 0.324,1.684 0.324,3.074l0,1.415l-0.001,0Z" style="fill:#154267;fill-rule:nonzero;"/><rect x="613.063" y="29.921" width="3.583" height="14.882" style="fill:#154267;"/><path d="M618.084,29.921l3.609,0c0.976,0 1.725,0.082 2.251,0.247c0.524,0.167 0.92,0.405 1.183,0.718c0.265,0.313 0.443,0.691 0.537,1.135c0.093,0.444 0.14,1.132 0.14,2.064l0,1.296c0,0.95 -0.091,1.642 -0.272,2.077c-0.182,0.435 -0.515,0.77 -1,1.002c-0.485,0.233 -1.119,0.349 -1.902,0.349l-0.963,0l0,5.994l-3.583,0l0,-14.882Zm3.583,2.546l0,3.788c0.103,0.006 0.191,0.009 0.265,0.009c0.329,0 0.556,-0.088 0.684,-0.262c0.129,-0.175 0.192,-0.538 0.192,-1.089l0,-1.223c0,-0.509 -0.074,-0.84 -0.221,-0.993c-0.148,-0.153 -0.454,-0.23 -0.92,-0.23Z" style="fill:#154267;fill-rule:nonzero;"/><path d="M632.587,29.921l2.051,14.883l-3.668,0l-0.179,-2.676l-1.285,0l-0.213,2.676l-3.711,0l1.822,-14.883l5.183,0Zm-1.898,9.57c-0.181,-1.686 -0.363,-3.766 -0.545,-6.242c-0.363,2.844 -0.589,4.924 -0.68,6.242l1.225,0Z" style="fill:#154267;fill-rule:nonzero;"/><path d="M638.834,29.921l0,11.904l2.18,0l0,2.979l-5.762,0l0,-14.883l3.582,0Z" style="fill:#154267;fill-rule:nonzero;"/><path d="M527.437,47.701l2.682,0c1.731,0 2.901,0.086 3.511,0.257c0.61,0.172 1.074,0.455 1.391,0.847c0.318,0.392 0.516,0.828 0.596,1.309c0.08,0.481 0.12,1.426 0.12,2.837l0,5.211c0,1.336 -0.058,2.229 -0.175,2.68c-0.117,0.451 -0.319,0.803 -0.609,1.058c-0.29,0.254 -0.647,0.432 -1.072,0.533c-0.426,0.101 -1.067,0.152 -1.924,0.152l-4.52,0l0,-14.884Zm3.584,2.547l0,9.789c0.517,0 0.834,-0.111 0.953,-0.335c0.12,-0.224 0.179,-0.832 0.179,-1.824l0,-5.783c0,-0.674 -0.02,-1.106 -0.059,-1.296c-0.04,-0.191 -0.131,-0.329 -0.272,-0.418c-0.142,-0.089 -0.409,-0.133 -0.801,-0.133Z" style="fill:#154267;fill-rule:nonzero;"/><path d="M537.072,47.701l5.975,0l0,2.979l-2.391,0l0,2.822l2.238,0l0,2.831l-2.238,0l0,3.273l2.629,0l0,2.978l-6.213,0l0,-14.883Z" style="fill:#154267;fill-rule:nonzero;"/><path d="M558.682,53.179l-3.583,0l0,-1.351c0,-0.851 -0.033,-1.385 -0.103,-1.599c-0.068,-0.214 -0.229,-0.322 -0.485,-0.322c-0.22,0 -0.372,0.092 -0.451,0.276c-0.079,0.184 -0.119,0.656 -0.119,1.416l0,7.143c0,0.667 0.04,1.107 0.119,1.318c0.079,0.212 0.239,0.317 0.477,0.317c0.261,0 0.438,-0.119 0.532,-0.359c0.094,-0.238 0.14,-0.704 0.14,-1.396l0,-1.765l-0.723,0l0,-2.262l4.196,0l0,7.989l-2.255,0l-0.333,-1.067c-0.243,0.46 -0.551,0.804 -0.923,1.035c-0.371,0.229 -0.809,0.343 -1.315,0.343c-0.601,0 -1.164,-0.156 -1.689,-0.473c-0.525,-0.315 -0.924,-0.705 -1.196,-1.172c-0.272,-0.465 -0.442,-0.953 -0.51,-1.466c-0.069,-0.512 -0.103,-1.28 -0.103,-2.302l0,-4.422c0,-1.421 0.071,-2.454 0.213,-3.098c0.142,-0.642 0.55,-1.233 1.222,-1.769c0.671,-0.535 1.541,-0.804 2.608,-0.804c1.05,0 1.921,0.233 2.613,0.698c0.692,0.467 1.143,1.019 1.353,1.66c0.21,0.64 0.315,1.57 0.315,2.79l0,0.642Z" style="fill:#154267;fill-rule:nonzero;"/><path d="M568.215,47.701l0,9.947c0,1.127 -0.035,1.919 -0.104,2.376c-0.067,0.456 -0.269,0.926 -0.604,1.407c-0.335,0.481 -0.775,0.845 -1.323,1.093c-0.547,0.249 -1.193,0.373 -1.936,0.373c-0.823,0 -1.549,-0.147 -2.179,-0.441c-0.629,-0.295 -1.101,-0.678 -1.413,-1.149c-0.312,-0.472 -0.497,-0.97 -0.553,-1.494c-0.057,-0.524 -0.085,-1.625 -0.085,-3.305l0,-8.806l3.583,0l0,11.16c0,0.649 0.033,1.064 0.098,1.245c0.065,0.181 0.197,0.271 0.396,0.271c0.227,0 0.373,-0.099 0.438,-0.298c0.066,-0.2 0.098,-0.67 0.098,-1.412l0,-10.966l3.584,0l0,-0.001Z" style="fill:#154267;fill-rule:nonzero;"/><path d="M575.789,47.701l2.051,14.884l-3.667,0l-0.18,-2.676l-1.285,0l-0.212,2.676l-3.711,0l1.821,-14.884l5.183,0Zm-1.898,9.57c-0.182,-1.686 -0.363,-3.766 -0.545,-6.242c-0.363,2.843 -0.59,4.924 -0.681,6.242l1.226,0Z" style="fill:#154267;fill-rule:nonzero;"/><path d="M585.041,47.701l-2.614,9.496l0,5.388l-3.318,0l0,-5.388l-2.52,-9.496l3.293,0c0.517,2.899 0.806,4.851 0.868,5.856c0.2,-1.588 0.531,-3.539 0.996,-5.856l3.295,0Z" style="fill:#154267;fill-rule:nonzero;"/><path d="M590.973,47.701l2.051,14.884l-3.669,0l-0.178,-2.676l-1.285,0l-0.214,2.676l-3.71,0l1.821,-14.884l5.184,0Zm-1.898,9.57c-0.182,-1.686 -0.363,-3.766 -0.545,-6.242c-0.363,2.843 -0.589,4.924 -0.681,6.242l1.226,0Z" style="fill:#154267;fill-rule:nonzero;"/><path d="M601.833,62.585l0,1.801l-2.707,0c-0.652,0 -1.112,-0.054 -1.378,-0.162c-0.267,-0.106 -0.447,-0.267 -0.541,-0.482c-0.093,-0.214 -0.14,-0.6 -0.14,-1.157c-0.811,-0.026 -1.509,-0.256 -2.095,-0.691c-0.583,-0.435 -0.97,-0.987 -1.157,-1.659c-0.186,-0.671 -0.281,-1.674 -0.281,-3.01l0,-4.606c0,-1.011 0.056,-1.781 0.166,-2.312c0.112,-0.53 0.34,-1.03 0.686,-1.499c0.346,-0.468 0.791,-0.821 1.337,-1.061c0.544,-0.238 1.148,-0.359 1.812,-0.359c0.8,0 1.514,0.147 2.141,0.442c0.627,0.294 1.095,0.668 1.404,1.121c0.309,0.454 0.511,0.925 0.605,1.412c0.093,0.486 0.14,1.211 0.14,2.173l0,4.835c0,1.325 -0.06,2.222 -0.179,2.694c-0.119,0.473 -0.347,0.847 -0.685,1.126c-0.337,0.28 -0.787,0.492 -1.35,0.64c0.018,0.33 0.082,0.539 0.192,0.625c0.11,0.086 0.373,0.129 0.787,0.129l1.243,0Zm-3.593,-11.06c0,-0.692 -0.034,-1.135 -0.104,-1.329c-0.072,-0.192 -0.218,-0.289 -0.439,-0.289c-0.187,0 -0.33,0.079 -0.43,0.236c-0.098,0.155 -0.15,0.617 -0.15,1.382l0,6.95c0,0.864 0.033,1.398 0.098,1.6c0.066,0.202 0.217,0.303 0.457,0.303c0.243,0 0.399,-0.116 0.467,-0.349c0.068,-0.233 0.102,-0.788 0.102,-1.664l0,-6.84l-0.001,0Z" style="fill:#154267;fill-rule:nonzero;"/><path d="M611.305,47.701l0,9.947c0,1.127 -0.033,1.919 -0.101,2.376c-0.069,0.456 -0.27,0.926 -0.605,1.407c-0.336,0.481 -0.776,0.845 -1.324,1.093c-0.548,0.249 -1.192,0.373 -1.936,0.373c-0.823,0 -1.549,-0.147 -2.178,-0.441c-0.63,-0.295 -1.101,-0.678 -1.414,-1.149c-0.312,-0.472 -0.497,-0.97 -0.553,-1.494c-0.056,-0.524 -0.084,-1.625 -0.084,-3.305l0,-8.806l3.582,0l0,11.16c0,0.649 0.033,1.064 0.098,1.245c0.066,0.181 0.198,0.271 0.396,0.271c0.227,0 0.372,-0.099 0.438,-0.298c0.065,-0.2 0.098,-0.67 0.098,-1.412l0,-10.966l3.583,0l0,-0.001Z" style="fill:#154267;fill-rule:nonzero;"/><rect x="612.692" y="47.701" width="3.583" height="14.882" style="fill:#154267;"/><path d="M621.297,47.701l0,11.905l2.179,0l0,2.979l-5.762,0l0,-14.884l3.583,0Z" style="fill:#154267;fill-rule:nonzero;"/><path d="M530.724,104.374l22.787,-2.569l-1.571,-2.972l-3.933,0.802l3.145,-1.59l-1.575,-2.57l-18.853,8.899Z" style="fill:#d6d6db;fill-rule:nonzero;"/><path d="M562.566,113.669c0,0 59.78,-20.781 60.235,-21.982c0.457,-1.202 -1.644,-2.647 -5.891,-1.622c-4.241,1.034 -34.973,4.872 -34.973,4.872l-3.185,3.45l33.206,-4.814l-40.638,13.915l7.432,-9.1l15.773,-17.349c0,0 -3.795,-1.034 -5.463,0.174c-1.673,1.198 -20.127,7.895 -20.127,7.895l-0.153,2.579l13.155,-5.325l-8.494,9.621l-4.967,0.856l-0.149,2.572l2.083,-0.343l-1.934,2.474l-0.149,6.978l-5.761,5.149Z" style="fill:#d6d6db;fill-rule:nonzero;"/><path d="M563.943,92.181l5.192,-3.73l-0.649,20.73l-5.305,4.46l0.762,-21.46Z" style="fill:#cbc3c0;fill-rule:nonzero;"/><path d="M564.049,92.251l-0.748,21.134l5.078,-4.27l0.639,-20.44l-4.969,3.576Zm-0.982,21.64l0.008,-0.258l0.762,-21.52l0.048,-0.035l5.365,-3.862l-0.006,0.235l-0.651,20.795l-0.043,0.036l-5.483,4.609Z" style="fill:#cbc3c0;fill-rule:nonzero;"/><path d="M548.872,87.931l5.268,-3.701l5.687,8.602l-0.313,10.881l-10.642,-15.782Z" style="fill:#cbc3c0;fill-rule:nonzero;"/><path d="M532.657,83.463l5.369,-3.458l-0.101,10.962l-5.07,5.234l-0.198,-12.738Z" style="fill:#cbc3c0;fill-rule:nonzero;"/><path d="M532.768,83.536l0.192,12.392l4.857,-5.02l0.099,-10.686l-5.148,3.314Zm-0.015,12.941l-0.206,-13.09l5.59,-3.593l-0.103,11.225l-0.036,0.038l-5.245,5.42Z" style="fill:#cbc3c0;fill-rule:nonzero;"/><path d="M546.902,92.32l-0.923,-1.531l-14.037,13.137l6.562,-3.2l8.398,-8.406Z" style="fill:#cbc3c0;fill-rule:nonzero;"/><path d="M545.958,90.967l-13.355,12.5l5.841,-2.844l8.31,-8.318l-0.796,-1.338Zm-13.971,13.073l-0.114,-0.21l14.13,-13.227l1.044,1.739l-8.502,8.5l-6.558,3.198Z" style="fill:#cbc3c0;fill-rule:nonzero;"/><path d="M528.446,82.1l0.261,19.595c0,0 1.011,3.408 3.235,2.231l13.889,-13.014l15.399,22.858c0,0 2.839,0.944 2.434,-2.222l0.607,-19.464l-4.562,-1.293l-0.198,12.894l-10.639,-15.828l-5.983,-1.873l-10.033,9.964l-0.199,-12.546l-4.211,-1.302Z" style="fill:#938379;fill-rule:nonzero;"/><path d="M561.293,113.659c0.102,0.034 0.434,0.119 0.807,0.119c0.537,0 0.938,-0.17 1.186,-0.498c0.278,-0.367 0.368,-0.945 0.268,-1.716l0.605,-19.385l-4.344,-1.227l-0.202,13.091l-0.187,-0.28l-10.617,-15.794l-5.892,-1.85l-10.164,10.097l-0.202,-12.717l-3.994,-1.235l0.259,19.411c0.069,0.22 0.792,2.371 2.223,2.371c0.269,0 0.555,-0.075 0.847,-0.228l13.961,-13.085l15.446,22.926Zm0.807,0.37c-0.483,0 -0.885,-0.129 -0.901,-0.137l-0.034,-0.011l-0.022,-0.034l-15.33,-22.761l-13.824,12.954c-0.323,0.167 -0.646,0.258 -0.95,0.258c-1.655,0 -2.403,-2.454 -2.435,-2.561l-0.006,-0.038l-0.264,-19.764l4.432,1.375l0.002,0.091l0.191,12.279l9.901,-9.829l6.075,1.899l0.02,0.029l10.452,15.549l0.197,-12.691l4.78,1.347l-0.615,19.57c0.11,0.819 0,1.458 -0.317,1.888c-0.29,0.381 -0.756,0.587 -1.352,0.587" style="fill:#938379;fill-rule:nonzero;"/><path d="M530.632,60.16l7.321,0.121l12.33,18.939l-4.309,4.47l-15.342,-23.53Z" style="fill:#a1a2a9;fill-rule:nonzero;"/><path d="M530.85,60.294l15.14,23.212l4.148,-4.302l-12.239,-18.801l-7.049,-0.109Zm15.108,23.579l-0.071,-0.109l-15.476,-23.727l7.598,0.122l0.031,0.047l12.388,19.032l-0.071,0.074l-4.399,4.561Z" style="fill:#a1a2a9;fill-rule:nonzero;"/><path d="M561.762,68.15l5.497,-2.893c0,0 2.246,0.259 2.557,2.643l-0.775,20.646l-4.801,3.569l0.392,-21.751c0,0 -1.474,-2.3 -2.87,-2.214" style="fill:#a1a2a9;fill-rule:nonzero;"/><path d="M562.186,68.064c1.284,0.302 2.477,2.138 2.531,2.224l0.024,0.033l0,0.043l-0.388,21.516l4.58,-3.408l0.777,-20.575c-0.276,-2.1 -2.18,-2.468 -2.431,-2.511l-5.093,2.678Zm1.942,24.278l0,-0.229l0.393,-21.711c-0.185,-0.279 -1.52,-2.213 -2.752,-2.126l-0.053,-0.238l5.527,-2.904l0.027,0.003c0.025,0.001 2.337,0.295 2.655,2.746l-0.778,20.731l-5.019,3.728Z" style="fill:#a1a2a9;fill-rule:nonzero;"/><path d="M532.184,83.637l6.166,-3.532l0,-1.048l-5.985,-8.017l-0.181,12.597Z" style="fill:#a1a2a9;fill-rule:nonzero;"/><path d="M532.468,71.37l-0.175,12.067l5.944,-3.409l0,-0.925l-5.769,-7.733Zm-0.397,12.471l0.003,-0.204l0.184,-12.927l6.196,8.301l0,1.173l-6.383,3.657Z" style="fill:#a1a2a9;fill-rule:nonzero;"/><path d="M549,87.907l4.58,-3.129l6.518,-7.03l-11.098,10.159Z" style="fill:#acadb3;fill-rule:nonzero;"/><path d="M558.078,79.761l-7.764,7.108l3.212,-2.198l4.552,-4.91Zm-9.023,8.255l-0.12,-0.204l11.099,-10.159l0.142,0.189l-6.523,7.03l-4.598,3.144Z" style="fill:#acadb3;fill-rule:nonzero;"/><path d="M528.471,82.795l-0.303,-20.349c0,0 -0.153,-1.578 2.461,-2.277l14.992,23.062l16.114,-15.038c0,0 3.043,0.349 3.043,3.591l-0.61,20.346l-4.556,-0.925l0.401,-13.527l-11.243,10.405l-6.085,-1.616l-10.229,-15.492l0.209,12.561l-4.194,-0.741Z" style="fill:#371711;fill-rule:nonzero;"/><path d="M559.721,91.103l4.344,0.885l0.601,-20.212c0,-2.881 -2.533,-3.393 -2.897,-3.453l-16.167,15.084l-0.065,-0.104l-14.953,-22.992c-2.406,0.67 -2.312,2.063 -2.309,2.121l0.304,20.253l3.976,0.707l-0.217,-12.795l10.411,15.756l5.992,1.597l11.389,-10.54l-0.409,13.693Zm4.553,1.179l-4.774,-0.972l0.4,-13.362l-11.105,10.27l-0.05,-0.009l-6.122,-1.63l-0.026,-0.039l-10.028,-15.186l0.207,12.333l-4.41,-0.787l0,-0.106l-0.305,-20.345c-0.007,-0.06 -0.134,-1.683 2.542,-2.403l0.068,-0.018l14.969,23.019l16.064,-14.983l0.043,0.003c0.033,0.006 3.137,0.402 3.137,3.717l-0.61,20.498Z" style="fill:#371711;fill-rule:nonzero;"/></g><g><path d="M310.916,119.272l2.965,0l-0.085,-1.822c-0.063,-1.355 -0.127,-2.647 -0.169,-4.109l-0.084,0c-0.594,1.419 -1.124,2.732 -1.78,4.109l-0.847,1.822Zm1.419,-8.156l3.474,0l1.376,13.813l-3.028,0l-0.169,-3.475l-4.111,0l-1.63,3.475l-3.199,0l7.287,-13.813Z" style="fill:#08c2f1;fill-rule:nonzero;"/><path d="M317.906,123.128c0,-0.381 0.043,-0.762 0.148,-1.292l2.351,-11.757l2.903,0l-2.394,11.883c-0.042,0.212 -0.042,0.297 -0.042,0.404c0,0.359 0.19,0.486 0.402,0.486c0.127,0 0.191,0 0.382,-0.042l-0.085,2.14c-0.361,0.127 -0.869,0.233 -1.547,0.233c-1.503,0 -2.118,-0.785 -2.118,-2.055" style="fill:#08c2f1;fill-rule:nonzero;"/><path d="M322.715,120.861c0,-3.644 2.732,-6.694 6.185,-6.694c1.313,0 2.287,0.636 2.818,1.293l-1.61,1.715c-0.424,-0.445 -0.805,-0.678 -1.398,-0.678c-1.674,0 -3.03,1.95 -3.03,4.3c0,1.271 0.593,2.055 1.779,2.055c0.721,0 1.229,-0.338 1.674,-0.678l1.208,1.779c-0.784,0.594 -1.865,1.229 -3.517,1.229c-2.33,0 -4.109,-1.588 -4.109,-4.321" style="fill:#08c2f1;fill-rule:nonzero;"/><path d="M337.458,121.263l0.741,-3.728c-0.338,-0.698 -0.91,-0.995 -1.398,-0.995c-1.462,0 -2.817,1.907 -2.817,4.427c0,1.272 0.466,1.842 1.229,1.842c0.699,0 1.567,-0.358 2.245,-1.546m-6.483,0.064c0,-4.004 2.713,-7.16 5.614,-7.16c0.953,0 1.886,0.53 2.289,1.377l0.041,0l0.467,-1.122l2.308,0l-2.096,10.507l-2.352,0l0.043,-1.377l-0.064,0c-0.953,0.995 -2.182,1.631 -3.284,1.631c-1.842,0 -2.966,-1.377 -2.966,-3.856" style="fill:#08c2f1;fill-rule:nonzero;"/><path d="M341.949,123.128c0,-0.381 0.042,-0.762 0.148,-1.292l2.351,-11.757l2.903,0l-2.394,11.883c-0.043,0.212 -0.043,0.297 -0.043,0.404c0,0.359 0.191,0.486 0.403,0.486c0.128,0 0.19,0 0.381,-0.042l-0.084,2.14c-0.361,0.127 -0.869,0.233 -1.547,0.233c-1.504,0 -2.118,-0.785 -2.118,-2.055" style="fill:#08c2f1;fill-rule:nonzero;"/><path d="M353.282,121.263l0.741,-3.728c-0.339,-0.698 -0.911,-0.995 -1.397,-0.995c-1.462,0 -2.819,1.907 -2.819,4.427c0,1.272 0.466,1.842 1.23,1.842c0.699,0 1.524,-0.358 2.245,-1.546m1.588,-7.816l0.636,-3.368l2.902,0l-2.987,14.85l-2.351,0l0.042,-1.377l-0.064,0c-0.953,0.995 -2.181,1.631 -3.282,1.631c-1.844,0 -2.966,-1.377 -2.966,-3.856c0,-4.004 2.711,-7.16 5.614,-7.16c0.953,0 1.736,0.509 2.139,1.272l0.063,0l0.254,-1.992Z" style="fill:#08c2f1;fill-rule:nonzero;"/><path d="M359.276,111.032l3.919,-3.516l1.737,2.203l-4.385,2.966l-1.271,-1.653Zm0,3.39l2.881,0l-2.097,10.507l-2.901,0l2.117,-10.507Z" style="fill:#08c2f1;fill-rule:nonzero;"/><path d="M368.767,121.263l0.741,-3.728c-0.339,-0.698 -0.91,-0.995 -1.398,-0.995c-1.462,0 -2.818,1.907 -2.818,4.427c0,1.272 0.467,1.842 1.229,1.842c0.7,0 1.569,-0.358 2.246,-1.546m-6.482,0.064c0,-4.004 2.711,-7.16 5.613,-7.16c0.954,0 1.886,0.53 2.288,1.377l0.043,0l0.465,-1.122l2.309,0l-2.097,10.507l-2.351,0l0.043,-1.377l-0.064,0c-0.953,0.995 -2.182,1.631 -3.283,1.631c-1.844,0 -2.966,-1.377 -2.966,-3.856" style="fill:#08c2f1;fill-rule:nonzero;"/><path d="M377.007,119.4c0,-4.767 3.22,-8.537 7.562,-8.537c1.78,0 3.071,0.826 3.856,2.203l-1.971,1.525c-0.529,-0.805 -1.144,-1.208 -2.033,-1.208c-2.563,0 -4.427,2.754 -4.427,5.826c0,2.118 0.826,3.495 2.987,3.495c0.571,0 1.122,-0.191 1.503,-0.465l0.593,-2.713l-2.266,0l0.445,-2.372l4.808,0l-1.27,6.588c-1.06,0.826 -2.585,1.441 -4.321,1.441c-3.411,0 -5.466,-2.139 -5.466,-5.783" style="fill:#08c2f1;fill-rule:nonzero;"/><path d="M397.046,124.929l-2.351,0l0.043,-1.42l-0.086,0c-0.953,0.889 -2.16,1.674 -3.432,1.674c-1.736,0 -2.478,-0.954 -2.478,-2.712c0,-0.465 0.064,-0.953 0.17,-1.482l1.314,-6.567l2.88,0l-1.229,6.207c-0.106,0.422 -0.169,0.72 -0.169,0.995c0,0.72 0.381,1.08 1.06,1.08c0.613,0 1.27,-0.424 2.096,-1.355l1.356,-6.927l2.903,0l-2.077,10.507Z" style="fill:#08c2f1;fill-rule:nonzero;"/><path d="M405.753,121.263l0.741,-3.728c-0.339,-0.698 -0.911,-0.995 -1.399,-0.995c-1.46,0 -2.817,1.907 -2.817,4.427c0,1.272 0.466,1.842 1.23,1.842c0.698,0 1.567,-0.358 2.245,-1.546m-6.482,0.064c0,-4.004 2.711,-7.16 5.614,-7.16c0.953,0 1.884,0.53 2.287,1.377l0.043,0l0.465,-1.122l2.308,0l-2.096,10.507l-2.351,0l0.042,-1.377l-0.064,0c-0.953,0.995 -2.182,1.631 -3.283,1.631c-1.843,0 -2.965,-1.377 -2.965,-3.856" style="fill:#08c2f1;fill-rule:nonzero;"/><path d="M408.718,128.614l0.889,-2.076c0.212,0.127 0.509,0.212 0.785,0.212c0.763,0 1.525,-0.592 1.991,-1.524l0.254,-0.53l-1.821,-10.274l2.88,0l0.488,4.745c0.105,0.91 0.169,2.16 0.189,3.156l0.086,0c0.445,-0.974 0.953,-2.203 1.398,-3.156l2.203,-4.745l2.818,0l-5.678,10.739c-1.461,2.521 -2.817,3.877 -4.978,3.877c-0.382,0 -1.08,-0.191 -1.504,-0.424" style="fill:#08c2f1;fill-rule:nonzero;"/><path d="M426.152,121.263l0.742,-3.728c-0.34,-0.698 -0.912,-0.995 -1.398,-0.995c-1.462,0 -2.818,1.907 -2.818,4.427c0,1.272 0.465,1.842 1.229,1.842c0.698,0 1.567,-0.358 2.245,-1.546m-6.482,0.064c0,-4.004 2.711,-7.16 5.614,-7.16c0.953,0 1.885,0.53 2.287,1.377l0.043,0l0.466,-1.122l2.309,0l-2.098,10.507l-2.35,0l0.041,-1.377l-0.064,0c-0.953,0.995 -2.18,1.631 -3.283,1.631c-1.843,0 -2.965,-1.377 -2.965,-3.856" style="fill:#08c2f1;fill-rule:nonzero;"/><path d="M436.997,121.263l0.741,-3.728c-0.338,-0.698 -0.91,-0.995 -1.398,-0.995c-1.461,0 -2.816,1.907 -2.816,4.427c0,1.272 0.465,1.842 1.229,1.842c0.656,0 1.525,-0.358 2.244,-1.546m-0.169,2.289l-0.043,0c-0.953,0.995 -2.203,1.631 -3.304,1.631c-1.843,0 -2.965,-1.377 -2.965,-3.856c0,-4.004 2.711,-7.16 5.614,-7.16c0.953,0 1.884,0.53 2.287,1.377l0.042,0l0.466,-1.122l2.309,0l-2.881,14.404l-2.902,0l0.593,-2.839l0.784,-2.435Z" style="fill:#08c2f1;fill-rule:nonzero;"/><path d="M449.834,124.929l-2.351,0l0.043,-1.42l-0.085,0c-0.953,0.889 -2.161,1.674 -3.432,1.674c-1.737,0 -2.478,-0.954 -2.478,-2.712c0,-0.465 0.064,-0.953 0.169,-1.482l1.314,-6.567l2.881,0l-1.229,6.207c-0.107,0.422 -0.17,0.72 -0.17,0.995c0,0.72 0.382,1.08 1.06,1.08c0.613,0 1.27,-0.424 2.097,-1.355l1.355,-6.927l2.903,0l-2.077,10.507Z" style="fill:#08c2f1;fill-rule:nonzero;"/><path d="M454.24,111.456c0,-0.933 0.805,-1.717 1.801,-1.717c0.805,0 1.568,0.488 1.568,1.399c0,0.995 -0.784,1.716 -1.801,1.716c-0.784,0 -1.568,-0.466 -1.568,-1.398m-0.423,2.966l2.881,0l-2.098,10.507l-2.901,0l2.118,-10.507Z" style="fill:#08c2f1;fill-rule:nonzero;"/><path d="M456.952,123.128c0,-0.381 0.043,-0.762 0.148,-1.292l2.351,-11.757l2.903,0l-2.394,11.883c-0.042,0.212 -0.042,0.297 -0.042,0.404c0,0.359 0.19,0.486 0.402,0.486c0.128,0 0.191,0 0.381,-0.042l-0.084,2.14c-0.361,0.127 -0.869,0.233 -1.547,0.233c-1.504,0 -2.118,-0.785 -2.118,-2.055" style="fill:#08c2f1;fill-rule:nonzero;"/><path d="M372.77,52.799l-24.632,5.16l16.663,10.248l-19.658,34.944l31.917,-25.018l28.385,20.624l-3.786,-13.318c0.208,-1.825 1.198,-3.329 2.777,-4.261c2.88,-1.698 6.558,-1.463 9.749,-1.094c2.747,0.318 5.471,0.912 8.28,0.945c3.977,0.048 7.962,-0.583 11.728,-1.861c5.098,-1.73 8.93,-4.934 13.223,-8.038c-0.061,0.044 -7.702,5.516 -21.752,2.238c-4.599,-1.073 -9.348,-2.329 -14.069,-2.734c-5.796,-0.496 -11.568,0.672 -14.441,6.185c-0.848,1.626 -1.367,3.42 -1.627,5.231c-0.036,0.241 -0.421,2.196 -0.177,2.362c-0.012,-0.008 -17.758,-12.124 -17.758,-12.124l-19.433,16.374l11.689,-22.845l-11.423,-7.173l16.736,-2.923l9.275,-18.034l0.288,-0.56l3.861,15.853l21.565,-4.262c0,0 -12.216,10.105 -11.312,9.617c0.903,-0.487 11.948,-9.745 28.068,-6.332c6.82,1.444 13.854,2.687 20.843,1.911c6.396,-0.709 12.622,-3.401 18.013,-6.838c4.537,-2.892 8.486,-6.425 12.735,-9.683c-8.569,6.571 -15.836,7.232 -15.836,7.232c-13.378,2.129 -11.387,1.005 -27.33,-1.485c-15.943,-2.489 -25.401,1.589 -25.401,1.589l-17.892,4.798l-6.518,-21.167l-12.75,24.439Zm74.646,18.331l0,-0.001l0,0.001Z" style="fill:url(#_Linear1);fill-rule:nonzero;"/><path d="M466.462,52.443c-2.451,1.722 -5.12,3.121 -7.915,4.19c-9.01,3.459 -19.28,2.996 -28.699,1.859c-11.459,-1.384 -26.842,-4.389 -34.81,6.49c-0.379,0.517 -2.007,2.482 -1.821,3.225c0.001,0.005 1.594,6.375 1.594,6.375c-0.142,-0.566 2.072,-2.582 2.479,-2.986c6.11,-6.035 15.656,-7.3 23.795,-5.896c10.165,1.753 20.192,2.464 29.905,-1.738c4.872,-2.108 9.404,-5.114 13.286,-8.668c1.02,-0.933 2.001,-1.912 2.915,-2.952l0.939,-1.136c-0.545,0.426 -1.101,0.84 -1.668,1.237Zm-58.556,9.579l-1.73,-0.828l2.076,-0.397l0.559,-1.981l0.724,1.737l2.074,-0.397l-1.628,1.47l0.724,1.736l-1.729,-0.828l-1.629,1.47l0.559,-1.982Zm15.817,-3.12l0.726,2.141l2.271,0.297l-1.822,1.026l0.726,2.14l-1.851,-1.507l-1.822,1.025l0.677,-1.957l-1.852,-1.505l2.271,0.297l0.676,-1.957Zm13.12,1.619l0.721,1.819l1.828,0.169l-1.381,0.955l0.72,1.819l-1.575,-1.229l-1.382,0.955l0.409,-1.713l-1.574,-1.229l1.826,0.17l0.408,-1.716Z" style="fill:url(#_Linear2);fill-rule:nonzero;"/><path d="M347.107,60.049l11.145,9.849l-14.6,31.513l17.018,-31.724l0.307,-0.511l-13.87,-9.127Z" style="fill:#3bc2f0;fill-rule:nonzero;"/><path d="M376.911,81.919l25.163,17.472l-27.569,-15.585l2.406,-1.887Z" style="fill:#08c2f2;fill-rule:nonzero;"/><path d="M367.67,51.922l14.437,-22.678l-11.304,22.025l-3.133,0.653Z" style="fill:#3bc2f0;fill-rule:nonzero;"/><path d="M346.84,63.242l7.522,7.666l-7.168,16.722l8.374,-16.712l0.214,-0.357l-8.942,-7.319Z" style="fill:#3bc2f0;fill-rule:nonzero;"/><path d="M372.853,84.979l19.252,11.484l-20.427,-10.612l1.175,-0.872Z" style="fill:#3bc2f0;fill-rule:nonzero;"/><path d="M364.506,52.477l13.265,-19.958l-11.905,19.679l-1.36,0.279Z" style="fill:#3bc2f0;fill-rule:nonzero;"/></g><g><path d="M141.784,47.856l3.691,0l2.578,6.924l0.924,2.694l0.095,0l0.922,-2.694l2.507,-6.924l3.692,0l0,15.409l-3.266,0l0,-5.649c0,-1.512 0.285,-3.757 0.45,-5.247l-0.094,0l-1.254,3.569l-2.39,5.98l-1.396,0l-2.366,-5.98l-1.23,-3.569l-0.094,0c0.166,1.49 0.449,3.735 0.449,5.247l0,5.649l-3.218,0l0,-15.409Z" style="fill:#231f20;fill-rule:nonzero;"/><path d="M158.77,47.856l3.479,0l0,8.626c0,3.025 0.945,4.065 2.673,4.065c1.727,0 2.744,-1.04 2.744,-4.065l0,-8.626l3.359,0l0,8.271c0,5.176 -2.105,7.421 -6.103,7.421c-3.998,0 -6.152,-2.245 -6.152,-7.421l0,-8.271Z" style="fill:#231f20;fill-rule:nonzero;"/><path d="M175.805,57.782l-4.638,-9.926l3.715,0l1.395,3.545c0.403,1.158 0.805,2.221 1.255,3.403l0.094,0c0.426,-1.182 0.875,-2.245 1.302,-3.403l1.371,-3.545l3.644,0l-4.661,9.926l0,5.482l-3.477,0l0,-5.482Z" style="fill:#231f20;fill-rule:nonzero;"/><rect x="192.553" y="47.855" width="3.501" height="15.409" style="fill:#231f20;"/><path d="M198.704,47.856l3.502,0l0,12.478l6.08,0l0,2.931l-9.582,0l0,-15.409Z" style="fill:#231f20;fill-rule:nonzero;"/><path d="M209.019,47.856l3.478,0l0,8.626c0,3.025 0.946,4.065 2.673,4.065c1.727,0 2.744,-1.04 2.744,-4.065l0,-8.626l3.36,0l0,8.271c0,5.176 -2.106,7.421 -6.104,7.421c-3.999,0 -6.151,-2.245 -6.151,-7.421l0,-8.271Z" style="fill:#231f20;fill-rule:nonzero;"/><path d="M224.61,58.94c1.088,0.946 2.508,1.607 3.785,1.607c1.443,0 2.153,-0.567 2.153,-1.489c0,-0.969 -0.876,-1.276 -2.224,-1.843l-1.987,-0.851c-1.609,-0.639 -3.123,-1.962 -3.123,-4.207c0,-2.552 2.295,-4.585 5.488,-4.585c1.775,0 3.644,0.709 4.969,2.033l-1.751,2.197c-1.017,-0.78 -1.987,-1.228 -3.218,-1.228c-1.182,0 -1.963,0.519 -1.963,1.394c0,0.945 1.018,1.276 2.365,1.819l1.964,0.804c1.869,0.756 3.052,2.009 3.052,4.183c0,2.553 -2.128,4.775 -5.796,4.775c-2.011,0 -4.14,-0.757 -5.725,-2.222l2.011,-2.387Z" style="fill:#231f20;fill-rule:nonzero;"/><path d="M238.307,50.786l-4.258,0l0,-2.93l11.972,0l0,2.93l-4.236,0l0,12.479l-3.478,0l0,-12.479Z" style="fill:#231f20;fill-rule:nonzero;"/><path d="M250.964,54.946l1.774,0c1.822,0 2.815,-0.78 2.815,-2.293c0,-1.512 -0.993,-2.033 -2.815,-2.033l-1.774,0l0,4.326Zm4.85,8.319l-2.957,-5.554l-1.893,0l0,5.554l-3.501,0l0,-15.41l5.56,0c3.265,0 5.961,1.135 5.961,4.798c0,2.269 -1.112,3.711 -2.744,4.443l3.478,6.169l-3.904,0Z" style="fill:#231f20;fill-rule:nonzero;"/><path d="M261.066,47.856l9.676,0l0,2.93l-6.175,0l0,3.096l5.253,0l0,2.907l-5.253,0l0,3.545l6.411,0l0,2.931l-9.912,0l0,-15.409Z" style="fill:#231f20;fill-rule:nonzero;"/><path d="M141.784,66.577l3.691,0l2.578,6.925l0.924,2.694l0.095,0l0.922,-2.694l2.507,-6.925l3.692,0l0,15.41l-3.266,0l0,-5.649c0,-1.512 0.285,-3.758 0.45,-5.246l-0.094,0l-1.254,3.568l-2.39,5.98l-1.396,0l-2.366,-5.98l-1.23,-3.568l-0.094,0c0.166,1.488 0.449,3.734 0.449,5.246l0,5.649l-3.218,0l0,-15.41Z" style="fill:#231f20;fill-rule:nonzero;"/><path d="M158.77,66.577l3.479,0l0,8.626c0,3.026 0.945,4.066 2.673,4.066c1.727,0 2.744,-1.04 2.744,-4.066l0,-8.626l3.359,0l0,8.273c0,5.175 -2.105,7.421 -6.103,7.421c-3.998,0 -6.152,-2.246 -6.152,-7.421l0,-8.273Z" style="fill:#231f20;fill-rule:nonzero;"/><path d="M173.58,66.577l3.572,0l4.023,7.657l1.537,3.404l0.094,0c-0.164,-1.631 -0.449,-3.805 -0.449,-5.625l0,-5.436l3.313,0l0,15.41l-3.573,0l-4.022,-7.681l-1.514,-3.356l-0.095,0c0.166,1.701 0.45,3.758 0.45,5.578l0,5.459l-3.336,0l0,-15.41Z" style="fill:#231f20;fill-rule:nonzero;"/><rect x="188.342" y="66.577" width="3.501" height="15.409" style="fill:#231f20;"/><path d="M201.117,66.294c1.917,0 3.525,0.945 4.567,2.009l-1.917,2.15c-0.781,-0.709 -1.514,-1.158 -2.602,-1.158c-2.153,0 -3.833,1.867 -3.833,4.963c0,3.168 1.49,5.011 3.739,5.011c1.277,0 2.175,-0.544 2.933,-1.371l1.916,2.103c-1.278,1.49 -2.981,2.27 -4.897,2.27c-3.998,0 -7.263,-2.719 -7.263,-7.895c0,-5.104 3.383,-8.082 7.357,-8.082" style="fill:#231f20;fill-rule:nonzero;"/><rect x="207.268" y="66.577" width="3.501" height="15.409" style="fill:#231f20;"/><path d="M218.836,73.998c1.917,0 2.839,-0.851 2.839,-2.457c0,-1.608 -0.993,-2.199 -2.839,-2.199l-1.916,0l0,4.656l1.916,0Zm-5.417,-7.421l5.63,0c3.361,0 6.033,1.23 6.033,4.964c0,3.616 -2.767,5.222 -6.033,5.222l-2.129,0l0,5.224l-3.501,0l0,-15.41Z" style="fill:#231f20;fill-rule:nonzero;"/><path d="M232.156,75.606l-0.378,-1.419c-0.426,-1.536 -0.828,-3.355 -1.255,-4.963l-0.095,0c-0.354,1.631 -0.779,3.427 -1.206,4.963l-0.378,1.419l3.312,0Zm0.71,2.718l-4.732,0l-0.946,3.663l-3.549,0l4.85,-15.41l4.164,0l4.85,15.41l-3.691,0l-0.946,-3.663Z" style="fill:#231f20;fill-rule:nonzero;"/><path d="M238.165,66.577l3.502,0l0,12.479l6.08,0l0,2.931l-9.582,0l0,-15.41Z" style="fill:#231f20;fill-rule:nonzero;"/><rect x="249.425" y="66.577" width="3.501" height="15.409" style="fill:#231f20;"/><path d="M259.741,79.174c2.602,0 4.376,-1.276 4.376,-4.963c0,-3.687 -1.774,-4.821 -4.376,-4.821l-0.663,0l0,9.784l0.663,0Zm-4.164,-12.597l4.353,0c4.731,0 7.76,2.34 7.76,7.634c0,5.295 -3.029,7.775 -7.547,7.775l-4.566,0l0,-15.409Z" style="fill:#231f20;fill-rule:nonzero;"/><path d="M275.946,75.606l-0.379,-1.419c-0.426,-1.536 -0.828,-3.355 -1.254,-4.963l-0.095,0c-0.354,1.631 -0.78,3.427 -1.206,4.963l-0.379,1.419l3.313,0Zm0.71,2.718l-4.732,0l-0.946,3.663l-3.549,0l4.85,-15.41l4.164,0l4.85,15.41l-3.691,0l-0.946,-3.663Z" style="fill:#231f20;fill-rule:nonzero;"/><path d="M286.119,79.174c2.602,0 4.376,-1.276 4.376,-4.963c0,-3.687 -1.774,-4.821 -4.376,-4.821l-0.663,0l0,9.784l0.663,0Zm-4.164,-12.597l4.353,0c4.732,0 7.76,2.34 7.76,7.634c0,5.295 -3.028,7.775 -7.547,7.775l-4.566,0l0,-15.409Z" style="fill:#231f20;fill-rule:nonzero;"/><path d="M145.949,97.896c2.602,0 4.376,-1.276 4.376,-4.963c0,-3.687 -1.774,-4.821 -4.376,-4.821l-0.663,0l0,9.784l0.663,0Zm-4.165,-12.597l4.354,0c4.731,0 7.76,2.34 7.76,7.634c0,5.294 -3.029,7.775 -7.547,7.775l-4.567,0l0,-15.409Z" style="fill:#231f20;fill-rule:nonzero;"/><path d="M155.836,85.3l9.678,0l0,2.929l-6.176,0l0,3.097l5.252,0l0,2.907l-5.252,0l0,3.545l6.412,0l0,2.93l-9.914,0l0,-15.408Z" style="fill:#231f20;fill-rule:nonzero;"/><path d="M178.643,85.015c2.177,0 3.761,0.969 4.803,2.009l-1.917,2.151c-0.781,-0.709 -1.514,-1.158 -2.839,-1.158c-2.366,0 -4.069,1.867 -4.069,4.963c0,3.167 1.443,5.01 4.353,5.01c0.615,0 1.255,-0.164 1.633,-0.472l0,-2.647l-2.556,0l0,-2.835l5.654,0l0,7.089c-1.112,0.969 -3.027,1.867 -5.18,1.867c-4.164,0 -7.476,-2.718 -7.476,-7.894c0,-5.105 3.407,-8.083 7.594,-8.083" style="fill:#231f20;fill-rule:nonzero;"/><path d="M185.81,85.3l3.479,0l0,8.626c0,3.025 0.946,4.064 2.673,4.064c1.727,0 2.744,-1.039 2.744,-4.064l0,-8.626l3.36,0l0,8.271c0,5.176 -2.106,7.421 -6.104,7.421c-3.999,0 -6.152,-2.245 -6.152,-7.421l0,-8.271Z" style="fill:#231f20;fill-rule:nonzero;"/><path d="M206.89,94.328l-0.379,-1.419c-0.426,-1.536 -0.828,-3.355 -1.253,-4.963l-0.095,0c-0.356,1.631 -0.781,3.427 -1.207,4.963l-0.379,1.419l3.313,0Zm0.709,2.718l-4.731,0l-0.946,3.663l-3.549,0l4.849,-15.41l4.165,0l4.85,15.41l-3.691,0l-0.947,-3.663Z" style="fill:#231f20;fill-rule:nonzero;"/><path d="M215.123,95.226l-4.637,-9.926l3.715,0l1.395,3.545c0.403,1.158 0.805,2.221 1.255,3.402l0.094,0c0.426,-1.181 0.875,-2.244 1.301,-3.402l1.372,-3.545l3.644,0l-4.661,9.926l0,5.482l-3.478,0l0,-5.482Z" style="fill:#231f20;fill-rule:nonzero;"/><path d="M230.051,94.328l-0.378,-1.419c-0.426,-1.536 -0.828,-3.355 -1.254,-4.963l-0.095,0c-0.355,1.631 -0.78,3.427 -1.207,4.963l-0.378,1.419l3.312,0Zm0.71,2.718l-4.731,0l-0.946,3.663l-3.549,0l4.849,-15.41l4.164,0l4.85,15.41l-3.691,0l-0.946,-3.663Z" style="fill:#231f20;fill-rule:nonzero;"/><path d="M242.023,97.99c2.105,0 3.429,-1.961 3.429,-5.057c0,-3.072 -1.324,-4.915 -3.429,-4.915c-2.106,0 -3.431,1.843 -3.431,4.915c0,3.096 1.325,5.057 3.431,5.057m7.806,6.429c-0.568,0.284 -1.538,0.496 -2.72,0.496c-3.265,0 -5.584,-1.677 -6.672,-4.088c-3.289,-0.685 -5.418,-3.545 -5.418,-7.894c0,-5.034 2.839,-7.917 7.004,-7.917c4.163,0 7.002,2.906 7.002,7.917c0,4.136 -1.916,6.924 -4.897,7.775c0.71,1.064 2.082,1.442 3.383,1.442c0.662,0 1.254,-0.117 1.704,-0.283l0.614,2.552Z" style="fill:#231f20;fill-rule:nonzero;"/><path d="M250.964,85.3l3.478,0l0,8.626c0,3.025 0.946,4.064 2.673,4.064c1.727,0 2.745,-1.039 2.745,-4.064l0,-8.626l3.359,0l0,8.271c0,5.176 -2.105,7.421 -6.104,7.421c-3.997,0 -6.151,-2.245 -6.151,-7.421l0,-8.271Z" style="fill:#231f20;fill-rule:nonzero;"/><rect x="265.774" y="85.299" width="3.501" height="15.409" style="fill:#231f20;"/><path d="M271.925,85.3l3.502,0l0,12.478l6.08,0l0,2.93l-9.582,0l0,-15.408Z" style="fill:#231f20;fill-rule:nonzero;"/><path d="M143.13,110.956c1.254,0 1.943,-0.524 1.943,-1.538c0,-0.73 -0.503,-1.047 -1.398,-1.047l-0.938,0l-0.502,2.585l0.895,0Zm-1.375,-3.523l2.139,0c1.364,0 2.346,0.513 2.346,1.821c0,1.865 -1.398,2.64 -3.209,2.64l-0.993,0l-0.524,2.671l-1.178,0l1.419,-7.132Z" style="fill:#08c2f1;fill-rule:nonzero;"/><path d="M149.657,111.294c0,-0.807 -0.327,-1.265 -0.939,-1.265c-0.851,0 -1.647,1.079 -1.647,2.442c0,0.807 0.327,1.277 0.949,1.277c0.852,0 1.637,-1.08 1.637,-2.454m-3.765,1.221c0,-2.05 1.485,-3.435 2.947,-3.435c1.211,0 2.008,0.839 2.008,2.181c0,2.04 -1.484,3.435 -2.957,3.435c-1.202,0 -1.998,-0.85 -1.998,-2.181" style="fill:#08c2f1;fill-rule:nonzero;"/><path d="M152.114,109.211l0.95,0l-0.099,1.036l0.044,0c0.426,-0.665 1.015,-1.167 1.659,-1.167c0.229,0 0.392,0.033 0.535,0.098l-0.393,1.026c-0.131,-0.066 -0.317,-0.087 -0.503,-0.087c-0.501,0 -1.014,0.392 -1.451,1.209l-0.633,3.239l-1.179,0l1.07,-5.354Z" style="fill:#08c2f1;fill-rule:nonzero;"/><path d="M156.645,111.763c0,-2.367 1.559,-4.46 3.852,-4.46c0.883,0 1.506,0.436 1.888,1.09l-0.807,0.621c-0.274,-0.436 -0.623,-0.697 -1.146,-0.697c-1.551,0 -2.588,1.7 -2.588,3.359c0,1.177 0.481,2.017 1.725,2.017c0.404,0 0.753,-0.142 0.993,-0.338l0.349,-1.679l-1.321,0l0.186,-0.961l2.369,0l-0.644,3.25c-0.524,0.426 -1.266,0.731 -2.127,0.731c-1.736,0 -2.729,-1.123 -2.729,-2.933" style="fill:#08c2f1;fill-rule:nonzero;"/><path d="M166.665,114.565l-0.95,0l0.044,-0.763l-0.044,0c-0.534,0.48 -1.145,0.894 -1.789,0.894c-0.895,0 -1.277,-0.502 -1.277,-1.352c0,-0.251 0.033,-0.48 0.088,-0.752l0.677,-3.382l1.166,0l-0.644,3.229c-0.054,0.25 -0.087,0.403 -0.087,0.567c0,0.457 0.219,0.687 0.666,0.687c0.36,0 0.786,-0.262 1.321,-0.829l0.72,-3.654l1.168,0l-1.059,5.355Z" style="fill:#08c2f1;fill-rule:nonzero;"/><path d="M171.359,112.832l0.437,-2.138c-0.241,-0.458 -0.579,-0.654 -0.906,-0.654c-0.906,0 -1.735,1.166 -1.735,2.54c0,0.785 0.305,1.157 0.796,1.157c0.458,0 0.972,-0.262 1.408,-0.905m-3.416,-0.088c0,-2.05 1.397,-3.664 2.881,-3.664c0.524,0 0.993,0.295 1.234,0.753l0.021,0l0.23,-0.622l0.937,0l-1.069,5.354l-0.96,0l0.055,-0.741l-0.033,0c-0.502,0.523 -1.157,0.872 -1.768,0.872c-0.938,0 -1.528,-0.698 -1.528,-1.952" style="fill:#08c2f1;fill-rule:nonzero;"/><path d="M172.539,116.572l0.372,-0.851c0.108,0.066 0.25,0.109 0.392,0.109c0.458,0 0.906,-0.393 1.201,-0.993l0.164,-0.327l-0.928,-5.299l1.167,0l0.338,2.704c0.055,0.48 0.11,1.102 0.132,1.603l0.043,0c0.24,-0.501 0.502,-1.101 0.753,-1.603l1.332,-2.704l1.135,0l-3.012,5.638c-0.666,1.167 -1.332,1.919 -2.401,1.919c-0.175,0 -0.481,-0.076 -0.688,-0.196" style="fill:#08c2f1;fill-rule:nonzero;"/><path d="M181.533,112.832l0.437,-2.138c-0.24,-0.458 -0.579,-0.654 -0.905,-0.654c-0.907,0 -1.736,1.166 -1.736,2.54c0,0.785 0.305,1.157 0.797,1.157c0.458,0 0.971,-0.262 1.407,-0.905m-3.416,-0.088c0,-2.05 1.398,-3.664 2.881,-3.664c0.524,0 0.994,0.295 1.234,0.753l0.022,0l0.23,-0.622l0.937,0l-1.069,5.354l-0.961,0l0.055,-0.741l-0.032,0c-0.503,0.523 -1.158,0.872 -1.769,0.872c-0.938,0 -1.528,-0.698 -1.528,-1.952" style="fill:#08c2f1;fill-rule:nonzero;"/><path d="M187.036,112.832l0.436,-2.138c-0.24,-0.458 -0.578,-0.654 -0.905,-0.654c-0.906,0 -1.736,1.166 -1.736,2.54c0,0.785 0.305,1.157 0.797,1.157c0.414,0 0.96,-0.262 1.408,-0.905m-0.088,0.981l-0.021,0c-0.503,0.523 -1.169,0.883 -1.779,0.883c-0.939,0 -1.529,-0.698 -1.529,-1.952c0,-2.05 1.397,-3.664 2.882,-3.664c0.523,0 0.993,0.295 1.233,0.753l0.021,0l0.23,-0.622l0.938,0l-1.495,7.47l-1.178,0l0.327,-1.592l0.371,-1.276Z" style="fill:#08c2f1;fill-rule:nonzero;"/><path d="M193.268,114.565l-0.95,0l0.044,-0.763l-0.044,0c-0.534,0.48 -1.145,0.894 -1.789,0.894c-0.895,0 -1.277,-0.502 -1.277,-1.352c0,-0.251 0.033,-0.48 0.087,-0.752l0.677,-3.382l1.168,0l-0.644,3.229c-0.055,0.25 -0.087,0.403 -0.087,0.567c0,0.457 0.219,0.687 0.666,0.687c0.359,0 0.785,-0.262 1.32,-0.829l0.721,-3.654l1.167,0l-1.059,5.355Z" style="fill:#08c2f1;fill-rule:nonzero;"/><path d="M195.681,107.651c0,-0.413 0.349,-0.763 0.787,-0.763c0.338,0 0.665,0.218 0.665,0.611c0,0.436 -0.349,0.763 -0.786,0.763c-0.338,0 -0.666,-0.218 -0.666,-0.611m-0.196,1.559l1.167,0l-1.069,5.355l-1.178,0l1.08,-5.355Z" style="fill:#08c2f1;fill-rule:nonzero;"/><path d="M196.904,113.824c0,-0.164 0.022,-0.339 0.076,-0.567l1.277,-6.39l1.169,0l-1.288,6.443c-0.022,0.11 -0.022,0.164 -0.022,0.208c0,0.164 0.076,0.23 0.186,0.23c0.065,0 0.097,0 0.195,-0.033l-0.021,0.872c-0.164,0.066 -0.371,0.109 -0.666,0.109c-0.622,0 -0.906,-0.327 -0.906,-0.872" style="fill:#08c2f1;fill-rule:nonzero;"/><path d="M202.351,107.433l1.179,0l-1.419,7.132l-1.179,0l1.419,-7.132Z" style="fill:#08c2f1;fill-rule:nonzero;"/><path d="M204.437,109.211l0.949,0l-0.055,0.752l0.044,0c0.568,-0.48 1.168,-0.883 1.845,-0.883c0.894,0 1.265,0.491 1.265,1.353c0,0.25 -0.022,0.469 -0.087,0.752l-0.677,3.38l-1.167,0l0.654,-3.228c0.044,-0.251 0.088,-0.403 0.088,-0.567c0,-0.458 -0.218,-0.687 -0.676,-0.687c-0.372,0 -0.786,0.251 -1.354,0.829l-0.721,3.653l-1.178,0l1.07,-5.354Z" style="fill:#08c2f1;fill-rule:nonzero;"/><path d="M212.372,112.832l0.437,-2.138c-0.24,-0.458 -0.579,-0.654 -0.906,-0.654c-0.906,0 -1.735,1.166 -1.735,2.54c0,0.785 0.305,1.157 0.797,1.157c0.457,0 0.96,-0.262 1.407,-0.905m0.829,-4.068l0.371,-1.897l1.169,0l-1.551,7.698l-0.96,0l0.055,-0.741l-0.032,0c-0.503,0.523 -1.158,0.872 -1.769,0.872c-0.938,0 -1.528,-0.698 -1.528,-1.952c0,-2.05 1.397,-3.664 2.881,-3.664c0.524,0 0.95,0.284 1.18,0.709l0.032,0l0.152,-1.025Z" style="fill:#08c2f1;fill-rule:nonzero;"/><path d="M217.994,111.447c0.033,-0.143 0.054,-0.295 0.054,-0.469c0,-0.524 -0.218,-0.993 -0.873,-0.993c-0.643,0 -1.287,0.545 -1.549,1.462l2.368,0Zm-0.677,-2.367c1.245,0 1.703,0.861 1.703,1.974c0,0.469 -0.153,0.959 -0.229,1.134l-3.263,0c-0.12,1.134 0.513,1.614 1.32,1.614c0.382,0 0.797,-0.207 1.092,-0.425l0.435,0.752c-0.435,0.306 -1.069,0.567 -1.833,0.567c-1.276,0 -2.149,-0.829 -2.149,-2.268c0,-1.995 1.517,-3.348 2.924,-3.348" style="fill:#08c2f1;fill-rule:nonzero;"/><path d="M221.095,110.814l-0.459,2.29c0.23,0.447 0.546,0.632 0.884,0.632c0.906,0 1.746,-1.166 1.746,-2.551c0,-0.775 -0.316,-1.145 -0.807,-1.145c-0.415,0 -0.96,0.25 -1.364,0.774m-0.884,4.275l-0.306,1.591l-1.168,0l1.506,-7.469l0.95,0l-0.022,0.654l0.033,0c0.513,-0.447 1.124,-0.785 1.735,-0.785c0.949,0 1.528,0.698 1.528,1.952c0,2.05 -1.396,3.664 -2.871,3.664c-0.501,0 -0.927,-0.283 -1.189,-0.698l-0.022,0l-0.174,1.091Z" style="fill:#08c2f1;fill-rule:nonzero;"/><path d="M228.387,111.447c0.032,-0.143 0.054,-0.295 0.054,-0.469c0,-0.524 -0.218,-0.993 -0.873,-0.993c-0.644,0 -1.288,0.545 -1.55,1.462l2.369,0Zm-0.677,-2.367c1.244,0 1.702,0.861 1.702,1.974c0,0.469 -0.152,0.959 -0.228,1.134l-3.264,0c-0.119,1.134 0.513,1.614 1.321,1.614c0.382,0 0.796,-0.207 1.091,-0.425l0.436,0.752c-0.436,0.306 -1.069,0.567 -1.833,0.567c-1.276,0 -2.15,-0.829 -2.15,-2.268c0,-1.995 1.517,-3.348 2.925,-3.348" style="fill:#08c2f1;fill-rule:nonzero;"/><path d="M230.625,109.211l0.95,0l-0.055,0.752l0.044,0c0.567,-0.48 1.168,-0.883 1.844,-0.883c0.895,0 1.266,0.491 1.266,1.353c0,0.25 -0.022,0.469 -0.087,0.752l-0.677,3.38l-1.168,0l0.655,-3.228c0.044,-0.251 0.088,-0.403 0.088,-0.567c0,-0.458 -0.219,-0.687 -0.677,-0.687c-0.371,0 -0.785,0.251 -1.353,0.829l-0.721,3.653l-1.178,0l1.069,-5.354Z" style="fill:#08c2f1;fill-rule:nonzero;"/><path d="M238.561,112.832l0.436,-2.138c-0.24,-0.458 -0.578,-0.654 -0.905,-0.654c-0.906,0 -1.735,1.166 -1.735,2.54c0,0.785 0.305,1.157 0.796,1.157c0.458,0 0.961,-0.262 1.408,-0.905m0.829,-4.068l0.371,-1.897l1.169,0l-1.551,7.698l-0.96,0l0.055,-0.741l-0.033,0c-0.502,0.523 -1.157,0.872 -1.768,0.872c-0.938,0 -1.528,-0.698 -1.528,-1.952c0,-2.05 1.397,-3.664 2.881,-3.664c0.523,0 0.95,0.284 1.179,0.709l0.033,0l0.152,-1.025Z" style="fill:#08c2f1;fill-rule:nonzero;"/><path d="M241.738,107.651c0,-0.413 0.348,-0.763 0.786,-0.763c0.338,0 0.665,0.218 0.665,0.611c0,0.436 -0.349,0.763 -0.785,0.763c-0.339,0 -0.666,-0.218 -0.666,-0.611m-0.197,1.559l1.168,0l-1.069,5.355l-1.179,0l1.08,-5.355Z" style="fill:#08c2f1;fill-rule:nonzero;"/><path d="M246.485,111.447c0.033,-0.143 0.055,-0.295 0.055,-0.469c0,-0.524 -0.218,-0.993 -0.873,-0.993c-0.644,0 -1.288,0.545 -1.549,1.462l2.367,0Zm-0.677,-2.367c1.245,0 1.704,0.861 1.704,1.974c0,0.469 -0.153,0.959 -0.229,1.134l-3.263,0c-0.121,1.134 0.513,1.614 1.319,1.614c0.382,0 0.798,-0.207 1.092,-0.425l0.436,0.752c-0.436,0.306 -1.069,0.567 -1.833,0.567c-1.277,0 -2.15,-0.829 -2.15,-2.268c0,-1.995 1.517,-3.348 2.924,-3.348" style="fill:#08c2f1;fill-rule:nonzero;"/><path d="M248.725,109.211l0.949,0l-0.055,0.752l0.044,0c0.567,-0.48 1.167,-0.883 1.844,-0.883c0.895,0 1.266,0.491 1.266,1.353c0,0.25 -0.021,0.469 -0.087,0.752l-0.677,3.38l-1.167,0l0.654,-3.228c0.044,-0.251 0.087,-0.403 0.087,-0.567c0,-0.458 -0.217,-0.687 -0.676,-0.687c-0.371,0 -0.786,0.251 -1.353,0.829l-0.721,3.653l-1.178,0l1.07,-5.354Z" style="fill:#08c2f1;fill-rule:nonzero;"/><path d="M253.582,113.387c0,-0.218 0.033,-0.414 0.066,-0.632l0.546,-2.617l-0.753,0l0.174,-0.872l0.819,-0.056l0.425,-1.439l0.982,0l-0.283,1.439l1.287,0l-0.185,0.928l-1.31,0l-0.545,2.661c-0.022,0.131 -0.033,0.251 -0.033,0.381c0,0.393 0.175,0.589 0.622,0.589c0.186,0 0.349,-0.065 0.502,-0.141l0.218,0.828c-0.261,0.109 -0.644,0.24 -1.134,0.24c-1.005,0 -1.398,-0.567 -1.398,-1.309" style="fill:#08c2f1;fill-rule:nonzero;"/><path d="M260.033,111.447c0.033,-0.143 0.054,-0.295 0.054,-0.469c0,-0.524 -0.218,-0.993 -0.872,-0.993c-0.645,0 -1.288,0.545 -1.55,1.462l2.368,0Zm-0.677,-2.367c1.245,0 1.703,0.861 1.703,1.974c0,0.469 -0.153,0.959 -0.229,1.134l-3.263,0c-0.12,1.134 0.513,1.614 1.32,1.614c0.382,0 0.797,-0.207 1.092,-0.425l0.435,0.752c-0.435,0.306 -1.069,0.567 -1.833,0.567c-1.276,0 -2.149,-0.829 -2.149,-2.268c0,-1.995 1.517,-3.348 2.924,-3.348" style="fill:#08c2f1;fill-rule:nonzero;"/><path d="M97.906,90.235l-17.353,-12.608l-17.354,12.608l6.629,-20.4l-17.354,-12.608l21.45,0l6.629,-20.401l6.628,20.401l21.449,0l-17.353,12.608l6.629,20.4Zm-17.353,-55.255c-17.357,0 -31.427,14.07 -31.427,31.426c0,17.357 14.07,31.427 31.427,31.427c17.356,0 31.426,-14.07 31.426,-31.427c0,-17.356 -14.07,-31.426 -31.426,-31.426" style="fill:#08c2f1;fill-rule:nonzero;"/><path d="M80.553,100.524c-18.813,0 -34.118,-15.305 -34.118,-34.118c0,-18.812 15.305,-34.118 34.118,-34.118c18.813,0 34.118,15.306 34.118,34.118c0,18.813 -15.305,34.118 -34.118,34.118m0,-69.165c-19.325,0 -35.047,15.723 -35.047,35.047c0,19.325 15.722,35.047 35.047,35.047c19.324,0 35.046,-15.722 35.046,-35.047c0,-19.324 -15.722,-35.047 -35.046,-35.047" style="fill:#08c2f1;fill-rule:nonzero;"/><path d="M87.181,57.227l-6.629,-20.401l-6.628,20.401l-21.45,0l17.354,12.608l-6.629,20.4l17.353,-12.608l17.354,12.608l-6.629,-20.4l17.354,-12.608l-21.45,0Z" style="fill:#fff;fill-rule:nonzero;"/><path d="M42.998,41.132c-0.983,2.335 -0.796,3.458 -0.602,3.916c-0.469,0.984 -0.9,1.981 -1.296,2.989c0.031,-0.659 -0.008,-1.5 -0.217,-2.502c-0.19,-0.897 -1.18,-2.909 -1.483,-2.902c-0.5,0.009 -0.717,2.465 -0.559,3.255c0.508,2.51 1.295,3.348 1.712,3.624c-0.403,1.14 -0.762,2.292 -1.072,3.455c-0.042,-0.667 -0.175,-1.52 -0.508,-2.52c-0.29,-0.872 -1.506,-2.763 -1.804,-2.724c-0.495,0.068 -0.428,2.535 -0.179,3.305c0.799,2.462 1.685,3.198 2.125,3.419c-0.271,1.178 -0.497,2.364 -0.674,3.556c-0.119,-0.659 -0.349,-1.494 -0.795,-2.453c-0.389,-0.835 -1.811,-2.581 -2.103,-2.507c-0.483,0.124 -0.133,2.572 0.204,3.31c1.069,2.348 2.029,2.986 2.495,3.161c-0.136,1.185 -0.225,2.375 -0.268,3.567c-0.195,-0.634 -0.518,-1.421 -1.056,-2.301c-0.481,-0.787 -2.092,-2.363 -2.374,-2.257c-0.464,0.176 0.166,2.573 0.584,3.27c1.309,2.179 2.323,2.726 2.814,2.86c-0.001,1.167 0.044,2.334 0.132,3.5c-0.267,-0.593 -0.669,-1.308 -1.274,-2.086c-0.568,-0.728 -2.349,-2.117 -2.614,-1.979c-0.441,0.229 0.461,2.544 0.954,3.19c1.516,1.976 2.571,2.432 3.088,2.523c0.126,1.132 0.297,2.26 0.51,3.382c-0.331,-0.54 -0.795,-1.171 -1.448,-1.84c-0.646,-0.661 -2.571,-1.842 -2.82,-1.675c-0.41,0.278 0.751,2.48 1.315,3.067c1.689,1.754 2.775,2.114 3.312,2.16c0.249,1.084 0.538,2.16 0.867,3.227c-0.383,-0.481 -0.896,-1.025 -1.579,-1.582c-0.717,-0.586 -2.762,-1.544 -2.989,-1.35c-0.375,0.323 1.029,2.385 1.658,2.905c1.833,1.518 2.941,1.779 3.493,1.776c0.364,1.027 0.765,2.043 1.205,3.047c-0.426,-0.417 -0.978,-0.877 -1.681,-1.329c-0.779,-0.502 -2.918,-1.225 -3.12,-1.007c-0.335,0.364 1.295,2.257 1.978,2.705c1.955,1.28 3.08,1.433 3.639,1.377c0.474,0.966 0.982,1.92 1.53,2.858c-0.465,-0.356 -1.049,-0.738 -1.775,-1.099c-0.83,-0.411 -3.034,-0.888 -3.21,-0.649c-0.29,0.399 1.545,2.101 2.273,2.469c2.063,1.042 3.196,1.079 3.75,0.966c0.579,0.898 1.189,1.785 1.84,2.652c-0.498,-0.298 -1.114,-0.607 -1.862,-0.878c-0.871,-0.317 -3.111,-0.544 -3.257,-0.284c-0.243,0.429 1.773,1.915 2.538,2.2c2.154,0.8 3.281,0.713 3.822,0.539c0.332,0.406 0.67,0.809 1.017,1.206c0.367,0.417 0.74,0.824 1.117,1.225c-0.528,-0.241 -1.171,-0.477 -1.944,-0.664c-0.9,-0.216 -3.148,-0.19 -3.264,0.085c-0.19,0.455 1.98,1.707 2.772,1.904c2.216,0.55 3.324,0.343 3.843,0.11c0.77,0.753 1.558,1.475 2.362,2.161c-0.543,-0.175 -1.194,-0.332 -1.962,-0.428c-0.916,-0.114 -3.143,0.166 -3.226,0.451c-0.136,0.476 2.16,1.477 2.967,1.584c2.237,0.295 3.311,-0.026 3.808,-0.313c0.843,0.656 1.702,1.278 2.575,1.867c-0.552,-0.11 -1.204,-0.189 -1.961,-0.198c-0.924,-0.01 -3.099,0.519 -3.148,0.813c-0.08,0.488 2.311,1.226 3.124,1.241c2.213,0.041 3.244,-0.384 3.714,-0.724c0.033,0.016 0.066,0.031 0.1,0.047l3.315,2.166c0,0 -2.446,-0.67 -4.898,0.705c0,0 -0.832,0.298 1.148,0.883c0,0 2.725,0.945 5.587,-0.676l1.716,0.754l0.021,-0.026l0.232,-0.495c0,0 0.046,0.014 0.123,0.039l0.003,-0.002l-2.617,-1.306c0,0 0.486,-3.682 -2.671,-6.096c0,0 -1.245,1.956 0.974,5.124l-2.543,-1.664l0.001,-0.002l-0.154,-0.098l-0.002,0.003c-0.254,-0.151 -0.509,-0.303 -0.761,-0.462c0.124,-0.629 0.036,-2.145 -0.182,-2.82c-0.777,-2.403 -2.098,-3.43 -2.098,-3.43c0,0 -1.094,0.755 0.003,4.045c0.087,0.263 0.328,0.684 0.62,1.106c-0.867,-0.604 -1.719,-1.239 -2.551,-1.908c0.201,-0.599 0.291,-2.134 0.15,-2.835c-0.498,-2.47 -1.695,-3.638 -1.695,-3.638c0,0 -1.175,0.627 -0.463,4.014c0.059,0.277 0.258,0.738 0.511,1.202c-0.803,-0.704 -1.58,-1.446 -2.339,-2.215c0.269,-0.572 0.535,-2.084 0.475,-2.796c-0.21,-2.506 -1.267,-3.799 -1.267,-3.799c0,0 -1.242,0.489 -0.924,3.927c0.026,0.281 0.17,0.757 0.366,1.242c-0.156,-0.174 -0.318,-0.34 -0.473,-0.516c-0.556,-0.632 -1.083,-1.28 -1.597,-1.935c0.334,-0.535 0.774,-2.007 0.796,-2.719c0.08,-2.509 -0.823,-3.909 -0.823,-3.909c0,0 -1.294,0.344 -1.372,3.789c-0.007,0.281 0.082,0.769 0.221,1.272c-0.626,-0.872 -1.218,-1.762 -1.776,-2.666c0.394,-0.497 0.999,-1.902 1.103,-2.604c0.369,-2.478 -0.369,-3.969 -0.369,-3.969c0,0 -1.325,0.195 -1.801,3.603c-0.039,0.275 -0.008,0.764 0.071,1.274c-0.52,-0.932 -1.004,-1.879 -1.453,-2.838c0.449,-0.452 1.208,-1.77 1.393,-2.453c0.653,-2.415 0.091,-3.976 0.091,-3.976c0,0 -1.344,0.043 -2.21,3.367c-0.07,0.268 -0.095,0.747 -0.076,1.256c-0.407,-0.977 -0.778,-1.966 -1.114,-2.964c0.5,-0.402 1.402,-1.618 1.663,-2.271c0.93,-2.321 0.55,-3.933 0.55,-3.933c0,0 -1.343,-0.11 -2.588,3.092c-0.099,0.255 -0.179,0.724 -0.219,1.228c-0.292,-1.013 -0.548,-2.033 -0.769,-3.058c0.544,-0.342 1.583,-1.445 1.919,-2.065c1.191,-2.198 0.999,-3.838 0.999,-3.838c0,0 -1.322,-0.259 -2.931,2.772c-0.129,0.243 -0.264,0.703 -0.362,1.2c-0.177,-1.035 -0.319,-2.075 -0.423,-3.117c0.576,-0.271 1.751,-1.259 2.159,-1.838c1.44,-2.044 1.437,-3.694 1.437,-3.694c0,0 -1.286,-0.406 -3.237,2.42c-0.159,0.231 -0.351,0.685 -0.508,1.179c-0.061,-1.055 -0.085,-2.11 -0.072,-3.165c0.595,-0.189 1.903,-1.048 2.381,-1.584c1.669,-1.863 1.856,-3.499 1.856,-3.499c0,0 -1.233,-0.548 -3.501,2.034c-0.195,0.221 -0.453,0.682 -0.673,1.182c0.058,-1.074 0.153,-2.145 0.287,-3.212c0.592,-0.095 2.041,-0.82 2.591,-1.307c1.874,-1.662 2.249,-3.263 2.249,-3.263c0,0 -1.163,-0.682 -3.718,1.624c-0.237,0.212 -0.578,0.693 -0.869,1.205c0.181,-1.093 0.402,-2.181 0.664,-3.259c0.561,0.004 2.162,-0.573 2.783,-1.006c2.058,-1.436 2.615,-2.982 2.615,-2.982c0,0 -1.08,-0.806 -3.888,1.191c-0.283,0.201 -0.728,0.704 -1.098,1.229c0.314,-1.112 0.671,-2.213 1.072,-3.3c0.483,0.109 2.25,-0.298 2.946,-0.674c2.214,-1.19 2.946,-2.66 2.946,-2.66c0,0 -0.982,-0.923 -4.007,0.741c-0.334,0.183 -0.904,0.704 -1.357,1.233c0.286,-0.699 0.585,-1.396 0.907,-2.082c0.246,-0.188 1.418,-1.165 2.305,-3.317c0.345,-0.841 0.647,-3.041 0.39,-3.202c-0.028,-0.017 -0.061,-0.025 -0.097,-0.025c-0.528,0 -1.914,1.704 -2.206,2.394Z" style="fill:url(#_Linear3);fill-rule:nonzero;"/><path d="M115.804,38.763c-0.257,0.161 0.044,2.361 0.389,3.202c0.888,2.152 2.06,3.129 2.306,3.317c0.323,0.686 0.621,1.383 0.907,2.082c-0.453,-0.529 -1.023,-1.05 -1.357,-1.233c-3.025,-1.664 -4.007,-0.741 -4.007,-0.741c0,0 0.733,1.47 2.946,2.66c0.696,0.376 2.463,0.783 2.946,0.674c0.402,1.087 0.758,2.188 1.071,3.3c-0.369,-0.525 -0.814,-1.028 -1.098,-1.229c-2.808,-1.997 -3.887,-1.191 -3.887,-1.191c0,0 0.557,1.546 2.615,2.982c0.621,0.433 2.222,1.01 2.783,1.006c0.261,1.078 0.483,2.166 0.664,3.259c-0.291,-0.512 -0.632,-0.993 -0.869,-1.205c-2.555,-2.306 -3.719,-1.624 -3.719,-1.624c0,0 0.375,1.601 2.251,3.263c0.549,0.487 1.998,1.212 2.59,1.307c0.134,1.067 0.23,2.138 0.287,3.212c-0.22,-0.5 -0.478,-0.961 -0.672,-1.182c-2.269,-2.582 -3.502,-2.034 -3.502,-2.034c0,0 0.187,1.636 1.856,3.499c0.478,0.536 1.786,1.395 2.381,1.584c0.013,1.055 -0.011,2.11 -0.073,3.165c-0.156,-0.494 -0.349,-0.948 -0.508,-1.179c-1.95,-2.826 -3.237,-2.42 -3.237,-2.42c0,0 -0.002,1.65 1.438,3.694c0.407,0.579 1.582,1.567 2.16,1.838c-0.105,1.042 -0.247,2.082 -0.424,3.117c-0.098,-0.497 -0.233,-0.957 -0.362,-1.2c-1.609,-3.031 -2.931,-2.772 -2.931,-2.772c0,0 -0.192,1.64 0.999,3.838c0.336,0.62 1.375,1.723 1.919,2.065c-0.221,1.025 -0.477,2.045 -0.769,3.058c-0.04,-0.504 -0.12,-0.973 -0.219,-1.228c-1.246,-3.202 -2.588,-3.092 -2.588,-3.092c0,0 -0.38,1.612 0.55,3.933c0.261,0.653 1.164,1.869 1.663,2.271c-0.336,0.998 -0.707,1.987 -1.114,2.964c0.019,-0.509 -0.007,-0.988 -0.075,-1.256c-0.867,-3.324 -2.211,-3.367 -2.211,-3.367c0,0 -0.562,1.561 0.091,3.976c0.184,0.683 0.945,2.001 1.393,2.453c-0.45,0.959 -0.933,1.906 -1.453,2.838c0.078,-0.51 0.11,-0.999 0.071,-1.274c-0.476,-3.408 -1.802,-3.603 -1.802,-3.603c0,0 -0.737,1.491 -0.369,3.969c0.105,0.702 0.711,2.107 1.104,2.604c-0.558,0.904 -1.15,1.794 -1.776,2.666c0.139,-0.503 0.228,-0.991 0.221,-1.272c-0.078,-3.445 -1.372,-3.789 -1.372,-3.789c0,0 -0.903,1.4 -0.823,3.909c0.022,0.712 0.462,2.184 0.796,2.719c-0.514,0.655 -1.041,1.303 -1.597,1.935c-0.155,0.176 -0.317,0.342 -0.473,0.516c0.196,-0.485 0.339,-0.961 0.366,-1.242c0.318,-3.438 -0.924,-3.927 -0.924,-3.927c0,0 -1.057,1.293 -1.267,3.799c-0.06,0.712 0.207,2.224 0.475,2.796c-0.759,0.769 -1.537,1.511 -2.339,2.215c0.252,-0.464 0.452,-0.925 0.51,-1.202c0.713,-3.387 -0.462,-4.014 -0.462,-4.014c0,0 -1.197,1.168 -1.695,3.638c-0.141,0.701 -0.051,2.236 0.15,2.835c-0.832,0.669 -1.683,1.304 -2.552,1.908c0.294,-0.422 0.533,-0.843 0.621,-1.106c1.097,-3.29 0.002,-4.045 0.002,-4.045c0,0 -1.32,1.027 -2.097,3.43c-0.218,0.675 -0.307,2.191 -0.182,2.82c-0.252,0.159 -0.507,0.311 -0.761,0.462l-0.002,-0.003l-0.106,0.069c-0.016,0.009 -0.031,0.02 -0.048,0.029l0.001,0.002l-2.543,1.664c2.218,-3.168 0.973,-5.124 0.973,-5.124c-3.156,2.414 -2.67,6.096 -2.67,6.096l-2.617,1.306l0.378,0.484l1.717,-0.754c2.862,1.621 5.586,0.676 5.586,0.676c1.981,-0.585 1.149,-0.883 1.149,-0.883c-2.452,-1.375 -4.899,-0.705 -4.899,-0.705l3.316,-2.166c0.034,-0.016 0.067,-0.031 0.1,-0.047c0.471,0.34 1.5,0.765 3.713,0.724c0.814,-0.015 3.204,-0.753 3.125,-1.241c-0.049,-0.294 -2.224,-0.823 -3.147,-0.813c-0.758,0.009 -1.411,0.088 -1.962,0.198c0.873,-0.589 1.732,-1.211 2.575,-1.867c0.496,0.287 1.571,0.608 3.808,0.313c0.807,-0.107 3.103,-1.108 2.966,-1.584c-0.081,-0.285 -2.309,-0.565 -3.226,-0.451c-0.768,0.096 -1.419,0.253 -1.961,0.428c0.804,-0.686 1.591,-1.408 2.362,-2.161c0.518,0.233 1.628,0.44 3.844,-0.11c0.791,-0.197 2.96,-1.449 2.771,-1.904c-0.116,-0.275 -2.364,-0.301 -3.264,-0.085c-0.773,0.187 -1.417,0.423 -1.944,0.664c0.376,-0.401 0.749,-0.808 1.116,-1.225c0.349,-0.397 0.686,-0.8 1.019,-1.206c0.539,0.174 1.666,0.261 3.821,-0.539c0.765,-0.285 2.78,-1.771 2.538,-2.2c-0.146,-0.26 -2.386,-0.033 -3.257,0.284c-0.749,0.271 -1.363,0.58 -1.862,0.878c0.651,-0.867 1.26,-1.754 1.84,-2.652c0.555,0.113 1.688,0.076 3.749,-0.966c0.728,-0.368 2.563,-2.07 2.274,-2.469c-0.176,-0.239 -2.38,0.238 -3.21,0.649c-0.725,0.361 -1.311,0.743 -1.775,1.099c0.548,-0.938 1.056,-1.892 1.531,-2.858c0.558,0.056 1.683,-0.097 3.638,-1.377c0.683,-0.448 2.313,-2.341 1.978,-2.705c-0.203,-0.218 -2.341,0.505 -3.12,1.007c-0.703,0.452 -1.255,0.912 -1.682,1.329c0.441,-1.004 0.842,-2.02 1.205,-3.047c0.553,0.003 1.662,-0.258 3.494,-1.776c0.629,-0.52 2.033,-2.582 1.657,-2.905c-0.227,-0.194 -2.271,0.764 -2.988,1.35c-0.683,0.557 -1.197,1.101 -1.58,1.582c0.33,-1.067 0.619,-2.143 0.868,-3.227c0.537,-0.046 1.623,-0.406 3.312,-2.16c0.565,-0.587 1.725,-2.789 1.315,-3.067c-0.249,-0.167 -2.173,1.014 -2.821,1.675c-0.653,0.669 -1.116,1.3 -1.447,1.84c0.212,-1.122 0.383,-2.25 0.51,-3.382c0.516,-0.091 1.572,-0.547 3.088,-2.523c0.494,-0.646 1.395,-2.961 0.954,-3.19c-0.265,-0.138 -2.046,1.251 -2.614,1.979c-0.605,0.778 -1.007,1.493 -1.273,2.086c0.087,-1.166 0.132,-2.333 0.13,-3.5c0.493,-0.134 1.506,-0.681 2.815,-2.86c0.418,-0.697 1.048,-3.094 0.584,-3.27c-0.282,-0.106 -1.893,1.47 -2.373,2.257c-0.54,0.88 -0.861,1.667 -1.057,2.301c-0.043,-1.192 -0.132,-2.382 -0.268,-3.567c0.466,-0.175 1.425,-0.813 2.495,-3.161c0.337,-0.738 0.687,-3.186 0.204,-3.31c-0.292,-0.074 -1.714,1.672 -2.103,2.507c-0.446,0.959 -0.676,1.794 -0.794,2.453c-0.178,-1.192 -0.404,-2.378 -0.676,-3.556c0.441,-0.221 1.327,-0.957 2.126,-3.419c0.25,-0.77 0.316,-3.237 -0.18,-3.305c-0.298,-0.039 -1.514,1.852 -1.804,2.724c-0.333,1 -0.465,1.853 -0.508,2.52c-0.309,-1.163 -0.668,-2.315 -1.071,-3.455c0.417,-0.276 1.204,-1.114 1.711,-3.624c0.158,-0.79 -0.058,-3.246 -0.559,-3.255c-0.301,-0.007 -1.292,2.005 -1.482,2.902c-0.209,1.002 -0.248,1.843 -0.218,2.502c-0.395,-1.008 -0.826,-2.005 -1.296,-2.989c0.196,-0.458 0.382,-1.581 -0.601,-3.916c-0.292,-0.69 -1.678,-2.394 -2.206,-2.394c-0.037,0 -0.069,0.008 -0.097,0.025Z" style="fill:url(#_Linear4);fill-rule:nonzero;"/><path d="M85.915,109.097l-0.571,0.535c0,0 3.848,-0.288 8.26,-1.82l-0.214,-0.518c0,0 -6.335,1.705 -7.475,1.803Z" style="fill:url(#_Linear5);fill-rule:nonzero;"/><path d="M67,107.611l-0.006,0.012c4.338,1.734 9.656,2.528 9.656,2.528l-1.089,-0.61c-1.049,-0.14 -7.261,-2.088 -8.206,-2.386l-0.355,0.456Z" style="fill:url(#_Linear6);fill-rule:nonzero;"/><path d="M67,107.611l0.355,-0.456c-0.077,-0.025 -0.123,-0.039 -0.123,-0.039l-0.232,0.495Z" style="fill:url(#_Linear7);fill-rule:nonzero;"/><path d="M91.038,105.646l-0.615,0.098l-0.186,0.083c0.808,0.028 1.427,0.178 1.427,0.178c2.296,0.554 2.031,3.205 2.031,3.205c-0.227,2.271 -2.726,2.044 -2.726,2.044c-3.735,-0.48 -5.588,-1.62 -5.588,-1.62l-2.337,1.443c0,0 5.906,1.388 8.708,0.656c2.802,-0.731 3.369,-3.401 2.44,-4.964c-0.595,-0.998 -1.771,-1.169 -2.507,-1.169c-0.383,0 -0.647,0.046 -0.647,0.046Z" style="fill:url(#_Radial8);fill-rule:nonzero;"/><path d="M86.485,106.853c-2.187,1.111 -4.442,2.862 -4.442,2.862l0,1.682c0.639,1.044 4.241,-2.625 4.241,-2.625c3.634,-3.13 5.531,-3.17 5.531,-3.17c-2.99,0 -5.33,1.251 -5.33,1.251Z" style="fill:url(#_Linear9);fill-rule:nonzero;"/><path d="M66.057,107.943c-0.039,0.234 -0.051,0.476 -0.037,0.714c0.098,1.582 1.399,2.867 2.828,3.372c1.338,0.473 2.783,0.372 4.175,0.304c2.095,-0.1 5.074,-0.216 5.074,-0.216l0.746,-0.869l-1.251,-1.11c-1.56,-0.077 -2.987,0.136 -4.498,0.508c-1.487,0.365 -3.072,0.723 -4.564,0.173c-1.918,-0.706 -2.019,-2.297 -1.514,-3.18c0.505,-0.884 1.354,-0.994 1.354,-0.994l-0.828,-0.087l-0.048,0c-1.183,0 -1.437,1.385 -1.437,1.385Z" style="fill:url(#_Radial10);fill-rule:nonzero;"/><path d="M66.996,106.651c0,0 1.938,-0.527 6.532,1.821c0,0 1.717,0.706 4.569,2.877l1.837,0.288l1.298,-0.689c0,0 -5.053,-3.627 -8.411,-4.364c-1.295,-0.284 -2.324,-0.387 -3.152,-0.387c-1.317,0 -2.122,0.259 -2.673,0.454Z" style="fill:url(#_Linear11);fill-rule:nonzero;"/><path d="M76.881,112.159c-1.749,2.223 -3.57,5.077 -4.311,8.951c-0.07,0.358 -0.151,0.82 -0.22,1.377c-0.057,0.453 -0.106,0.955 -0.136,1.517l-0.01,0.034c0,0 -0.014,0.471 -0.014,1.047c0,0.129 0,0.26 0.002,0.395c0.004,0.413 0.018,0.838 0.05,1.165l0,0.003l0.001,0l0.879,-0.303c-0.1,-0.593 -0.19,-1.188 -0.27,-1.781c-0.04,-0.3 -0.082,-0.601 -0.124,-0.901c0.002,-0.037 0.002,-0.073 0.001,-0.107c0.006,-1.708 0.471,-3.157 1.226,-4.589c0.869,-1.649 2.043,-3.108 3.372,-4.41c0.014,-0.014 0.028,-0.028 0.042,-0.042c0.963,-0.939 2.047,-1.781 2.949,-2.781c0.181,-0.202 0.354,-0.417 0.475,-0.66l0.48,-0.959c0,0 -0.301,-0.132 -0.801,-0.132c-0.813,-0.001 -2.154,0.348 -3.591,2.176Z" style="fill:url(#_Linear12);fill-rule:nonzero;"/><path d="M89.648,117.463c0.205,0.815 0.366,2.366 0.002,5.177l-0.001,0c-0.107,1.418 -0.301,3.096 -0.626,5.061l1.524,0.179c0.435,-4.469 0.432,-9.332 -1.135,-11.768c0,0 0.133,0.416 0.236,1.351Z" style="fill:url(#_Linear13);fill-rule:nonzero;"/><path d="M81.841,110.19l0,1.514c0,-0.04 1.601,0.361 1.687,0.391c1.265,0.43 2.459,1.086 3.499,1.923c0.864,0.695 1.704,1.467 2.288,2.638c0.001,0 0.35,0.706 0.454,1.443l0.777,1.441c-0.114,-0.688 -0.286,-1.363 -0.454,-2.04c-0.058,-0.235 -0.129,-0.468 -0.208,-0.699c-0.117,-0.342 -0.253,-0.679 -0.405,-1.007c-0.192,-0.414 -0.411,-0.815 -0.654,-1.2c-0.284,-0.45 -0.601,-0.879 -0.952,-1.278c-0.394,-0.451 -0.83,-0.866 -1.301,-1.238c-0.528,-0.417 -1.099,-0.778 -1.7,-1.08c-0.685,-0.345 -1.408,-0.612 -2.15,-0.808l-0.881,0Z" style="fill:url(#_Radial14);fill-rule:nonzero;"/><g><clipPath id="_clip15"><path d="M80.141,110.721c-0.038,0.52 -0.36,1.731 0.225,1.895c0.583,0.164 1.39,0.038 1.756,-0.479c0.366,-0.518 0.455,-0.959 0.455,-0.959l-0.783,-0.959l-1.319,-0.297c0,0 -0.296,0.278 -0.334,0.799Z"/></clipPath><g clip-path="url(#_clip15)"><rect x="79.782" y="109.922" width="2.795" height="2.859" style="fill:#e02428;"/><path d="M82.778,111.8l0,1.182l0.225,0.038c-0.677,0.209 -1.517,0.203 -2.361,-0.066c-0.843,-0.27 -1.532,-0.753 -1.961,-1.314l0.899,0l0,-1.793l-1.313,0c0.188,-0.588 0.7,-1.012 1.377,-1.22l0,1.093l2.36,0l0,-1.027c0.844,0.269 1.532,0.752 1.961,1.314l-1.187,0l0,1.793Z" style="fill:#e02428;fill-rule:nonzero;"/><path d="M82.778,111.785l0,1.197l0.2,0.006c-0.667,0.205 -1.494,0.2 -2.326,-0.066c-0.832,-0.265 -1.509,-0.741 -1.932,-1.295l0.86,0l0,-1.766l-1.268,0c0.185,-0.58 0.69,-0.997 1.356,-1.202l0,1.061l2.325,0l0,-0.996c0.832,0.266 1.51,0.741 1.933,1.295l-1.148,0l0,1.766Z" style="fill:#df2428;fill-rule:nonzero;"/><path d="M82.778,111.771l0,1.185l0.176,0c-0.657,0.203 -1.472,0.197 -2.291,-0.065c-0.819,-0.261 -1.488,-0.73 -1.904,-1.275l0.821,0l0,-1.741l-1.223,0c0.182,-0.571 0.679,-0.982 1.336,-1.185l0,1.03l2.291,0l0,-0.965c0.819,0.262 1.486,0.731 1.904,1.276l-1.11,0l0,1.74Z" style="fill:#dd2328;fill-rule:nonzero;"/><path d="M82.778,111.757l0,1.166l0.151,0c-0.647,0.2 -1.45,0.195 -2.256,-0.063c-0.808,-0.258 -1.465,-0.719 -1.876,-1.256l0.783,0l0,-1.714l-1.178,0c0.179,-0.563 0.669,-0.967 1.316,-1.167l0,0.997l2.256,0l0,-0.934c0.806,0.258 1.464,0.72 1.875,1.257l-1.071,0l0,1.714Z" style="fill:#db2328;fill-rule:nonzero;"/><path d="M82.778,111.742l0,1.149l0.126,0c-0.637,0.196 -1.427,0.191 -2.222,-0.063c-0.794,-0.253 -1.441,-0.708 -1.846,-1.237l0.744,0l0,-1.687l-1.133,0c0.177,-0.554 0.659,-0.952 1.295,-1.149l0,0.965l2.222,0l0,-0.902c0.794,0.253 1.441,0.708 1.846,1.237l-1.032,0l0,1.687Z" style="fill:#db2328;fill-rule:nonzero;"/><path d="M84.155,111.728c-0.349,1.09 -1.899,1.569 -3.463,1.069c-0.781,-0.25 -1.419,-0.697 -1.817,-1.218l0.705,0l0,-1.661l-1.088,0c0.348,-1.089 1.898,-1.568 3.461,-1.069c0.782,0.25 1.419,0.697 1.818,1.218l-0.993,0l0,1.661l1.377,0Z" style="fill:#d82229;fill-rule:nonzero;"/><path d="M84.11,111.713c-0.343,1.073 -1.869,1.544 -3.408,1.053c-1.538,-0.492 -2.508,-1.76 -2.165,-2.833c0.343,-1.073 1.868,-1.544 3.407,-1.053c0.769,0.247 1.396,0.687 1.788,1.199l-0.954,0l0,1.634l1.332,0Z" style="fill:#d62428;fill-rule:nonzero;"/><path d="M84.065,111.699c-0.337,1.056 -1.838,1.519 -3.352,1.035c-1.514,-0.483 -2.468,-1.731 -2.131,-2.787c0.337,-1.056 1.838,-1.519 3.352,-1.035c0.756,0.242 1.374,0.675 1.76,1.179l-0.916,0l0,1.608l1.287,0Z" style="fill:#d52428;fill-rule:nonzero;"/><path d="M84.02,111.685c-0.332,1.038 -1.809,1.494 -3.297,1.018c-1.49,-0.475 -2.428,-1.703 -2.096,-2.741c0.332,-1.039 1.807,-1.495 3.297,-1.018c0.744,0.237 1.351,0.663 1.73,1.159l-0.876,0l0,1.582l1.242,0Z" style="fill:#d32228;fill-rule:nonzero;"/><path d="M83.975,111.67c-0.326,1.021 -1.778,1.469 -3.243,1.002c-1.464,-0.468 -2.387,-1.675 -2.06,-2.696c0.326,-1.021 1.777,-1.469 3.241,-1.001c0.733,0.234 1.33,0.652 1.702,1.14l-0.837,0l0,1.555l1.197,0Z" style="fill:#d22329;fill-rule:nonzero;"/><path d="M83.93,111.656c-0.321,1.004 -1.748,1.445 -3.187,0.984c-1.44,-0.459 -2.347,-1.646 -2.027,-2.649c0.322,-1.004 1.748,-1.445 3.188,-0.985c0.72,0.23 1.306,0.642 1.673,1.122l-0.799,0l0,1.528l1.152,0Z" style="fill:#d12028;fill-rule:nonzero;"/><path d="M83.885,111.642c-0.315,0.986 -1.718,1.419 -3.133,0.967c-1.414,-0.452 -2.306,-1.618 -1.991,-2.604c0.316,-0.986 1.718,-1.42 3.132,-0.968c0.708,0.227 1.284,0.631 1.645,1.102l-0.76,0l0,1.503l1.107,0Z" style="fill:#d02329;fill-rule:nonzero;"/><path d="M83.84,111.627c-0.31,0.969 -1.687,1.395 -3.077,0.951c-1.391,-0.444 -2.266,-1.59 -1.957,-2.559c0.31,-0.969 1.688,-1.394 3.078,-0.95c1.39,0.444 2.265,1.589 1.956,2.558" style="fill:#cd2028;fill-rule:nonzero;"/><path d="M83.795,111.613c-0.304,0.951 -1.658,1.37 -3.022,0.933c-1.366,-0.436 -2.226,-1.561 -1.922,-2.512c0.305,-0.952 1.657,-1.37 3.023,-0.934c1.364,0.436 2.225,1.561 1.921,2.513" style="fill:#cc2027;fill-rule:nonzero;"/><path d="M83.75,111.599c-0.299,0.934 -1.627,1.344 -2.967,0.916c-1.341,-0.429 -2.185,-1.533 -1.887,-2.467c0.299,-0.935 1.627,-1.345 2.967,-0.916c1.341,0.428 2.186,1.532 1.887,2.467" style="fill:#cb2327;fill-rule:nonzero;"/><path d="M83.705,111.584c-0.293,0.917 -1.597,1.32 -2.913,0.9c-1.315,-0.421 -2.144,-1.504 -1.851,-2.422c0.294,-0.917 1.597,-1.32 2.912,-0.899c1.316,0.42 2.145,1.504 1.852,2.421" style="fill:#c92327;fill-rule:nonzero;"/><path d="M83.66,111.57c-0.288,0.9 -1.567,1.295 -2.858,0.882c-1.291,-0.412 -2.104,-1.476 -1.816,-2.375c0.288,-0.901 1.567,-1.296 2.858,-0.883c1.29,0.412 2.103,1.476 1.816,2.376" style="fill:#c72326;fill-rule:nonzero;"/><path d="M83.615,111.556c-0.282,0.882 -1.537,1.269 -2.803,0.865c-1.265,-0.405 -2.063,-1.447 -1.781,-2.33c0.282,-0.882 1.536,-1.27 2.803,-0.866c1.266,0.405 2.063,1.448 1.781,2.331" style="fill:#c62326;fill-rule:nonzero;"/><path d="M83.57,111.541c-0.276,0.865 -1.507,1.245 -2.747,0.849c-1.241,-0.397 -2.024,-1.419 -1.747,-2.285c0.277,-0.865 1.507,-1.245 2.747,-0.848c1.241,0.396 2.023,1.419 1.747,2.284" style="fill:#c52326;fill-rule:nonzero;"/><path d="M83.525,111.527c-0.271,0.848 -1.476,1.22 -2.692,0.831c-1.217,-0.388 -1.983,-1.391 -1.712,-2.239c0.271,-0.847 1.476,-1.219 2.692,-0.831c1.217,0.389 1.983,1.391 1.712,2.239" style="fill:#c32326;fill-rule:nonzero;"/><path d="M83.48,111.512c-0.265,0.831 -1.446,1.195 -2.638,0.815c-1.191,-0.381 -1.942,-1.363 -1.676,-2.193c0.265,-0.831 1.446,-1.195 2.638,-0.815c1.191,0.381 1.942,1.363 1.676,2.193" style="fill:#c22026;fill-rule:nonzero;"/><path d="M83.435,111.498c-0.26,0.813 -1.416,1.171 -2.582,0.798c-1.167,-0.373 -1.902,-1.334 -1.642,-2.147c0.26,-0.814 1.416,-1.172 2.583,-0.798c1.166,0.372 1.901,1.333 1.641,2.147" style="fill:#c12026;fill-rule:nonzero;"/><path d="M83.39,111.484c-0.254,0.795 -1.386,1.146 -2.528,0.78c-1.141,-0.364 -1.861,-1.306 -1.606,-2.102c0.254,-0.795 1.386,-1.145 2.528,-0.78c1.141,0.365 1.861,1.306 1.606,2.102" style="fill:#be2026;fill-rule:nonzero;"/><path d="M83.346,111.469c-0.249,0.779 -1.357,1.121 -2.473,0.764c-1.117,-0.356 -1.821,-1.277 -1.572,-2.056c0.249,-0.778 1.356,-1.121 2.472,-0.763c1.117,0.356 1.821,1.277 1.573,2.055" style="fill:#bd2026;fill-rule:nonzero;"/><path d="M83.301,111.455c-0.244,0.761 -1.327,1.096 -2.418,0.747c-1.092,-0.349 -1.78,-1.249 -1.537,-2.011c0.243,-0.761 1.326,-1.095 2.417,-0.747c1.093,0.35 1.78,1.249 1.538,2.011" style="fill:#bb2025;fill-rule:nonzero;"/><path d="M83.256,111.441c-0.238,0.744 -1.296,1.071 -2.363,0.729c-1.068,-0.34 -1.74,-1.22 -1.503,-1.965c0.238,-0.743 1.296,-1.07 2.363,-0.729c1.068,0.341 1.74,1.221 1.503,1.965" style="fill:#ba2025;fill-rule:nonzero;"/><path d="M83.211,111.426c-0.232,0.727 -1.266,1.046 -2.309,0.713c-1.042,-0.333 -1.699,-1.192 -1.467,-1.919c0.233,-0.727 1.266,-1.045 2.309,-0.713c1.042,0.334 1.699,1.192 1.467,1.919" style="fill:#ba2025;fill-rule:nonzero;"/><path d="M83.166,111.412c-0.227,0.709 -1.236,1.021 -2.254,0.696c-1.017,-0.325 -1.658,-1.164 -1.431,-1.874c0.226,-0.709 1.235,-1.02 2.253,-0.695c1.017,0.325 1.658,1.163 1.432,1.873" style="fill:#b82026;fill-rule:nonzero;"/><path d="M83.121,111.398c-0.221,0.692 -1.206,0.996 -2.198,0.679c-0.993,-0.318 -1.619,-1.136 -1.397,-1.828c0.22,-0.692 1.204,-0.996 2.197,-0.679c0.993,0.317 1.619,1.136 1.398,1.828" style="fill:#b52226;fill-rule:nonzero;"/><path d="M83.076,111.383c-0.215,0.675 -1.176,0.971 -2.143,0.662c-0.968,-0.31 -1.578,-1.107 -1.363,-1.782c0.216,-0.675 1.176,-0.971 2.143,-0.661c0.969,0.308 1.578,1.106 1.363,1.781" style="fill:#b52226;fill-rule:nonzero;"/><path d="M83.031,111.369c-0.21,0.657 -1.145,0.946 -2.088,0.645c-0.944,-0.302 -1.537,-1.079 -1.328,-1.736c0.21,-0.658 1.145,-0.947 2.088,-0.646c0.944,0.302 1.538,1.079 1.328,1.737" style="fill:#b32226;fill-rule:nonzero;"/><path d="M82.986,111.355c-0.204,0.64 -1.115,0.921 -2.033,0.627c-0.918,-0.293 -1.497,-1.05 -1.293,-1.69c0.204,-0.641 1.115,-0.921 2.034,-0.628c0.918,0.293 1.496,1.051 1.292,1.691" style="fill:#b32125;fill-rule:nonzero;"/><path d="M82.941,111.34c-0.199,0.623 -1.085,0.897 -1.978,0.611c-0.894,-0.286 -1.457,-1.022 -1.258,-1.645c0.199,-0.623 1.085,-0.896 1.979,-0.611c0.893,0.286 1.456,1.022 1.257,1.645" style="fill:#b22125;fill-rule:nonzero;"/><path d="M82.896,111.326c-0.193,0.605 -1.054,0.872 -1.923,0.593c-0.869,-0.276 -1.416,-0.993 -1.223,-1.598c0.193,-0.606 1.054,-0.872 1.923,-0.595c0.869,0.278 1.417,0.994 1.223,1.6" style="fill:#b11f25;fill-rule:nonzero;"/><path d="M82.851,111.311c-0.188,0.589 -1.025,0.847 -1.868,0.577c-0.844,-0.269 -1.376,-0.964 -1.188,-1.553c0.188,-0.588 1.025,-0.846 1.868,-0.578c0.844,0.271 1.376,0.966 1.188,1.554" style="fill:#b01f24;fill-rule:nonzero;"/><path d="M82.806,111.297c-0.182,0.571 -0.994,0.822 -1.813,0.56c-0.819,-0.261 -1.335,-0.937 -1.153,-1.508c0.182,-0.571 0.994,-0.822 1.814,-0.56c0.819,0.262 1.334,0.937 1.152,1.508" style="fill:#af1f24;fill-rule:nonzero;"/><path d="M82.761,111.283c-0.177,0.553 -0.964,0.797 -1.758,0.543c-0.794,-0.254 -1.295,-0.909 -1.118,-1.462c0.176,-0.554 0.964,-0.798 1.759,-0.543c0.794,0.253 1.294,0.908 1.117,1.462" style="fill:#ad1e24;fill-rule:nonzero;"/><path d="M82.716,111.268c-0.171,0.536 -0.934,0.772 -1.704,0.526c-0.769,-0.245 -1.254,-0.88 -1.082,-1.416c0.171,-0.536 0.934,-0.772 1.703,-0.526c0.769,0.246 1.254,0.88 1.083,1.416" style="fill:#ab1e23;fill-rule:nonzero;"/><path d="M82.671,111.254c-0.166,0.519 -0.903,0.747 -1.648,0.51c-0.745,-0.239 -1.214,-0.853 -1.049,-1.372c0.166,-0.519 0.905,-0.747 1.649,-0.509c0.745,0.238 1.214,0.852 1.048,1.371" style="fill:#ab1e22;fill-rule:nonzero;"/><path d="M82.626,111.24c-0.16,0.501 -0.874,0.722 -1.593,0.492c-0.72,-0.23 -1.174,-0.824 -1.014,-1.325c0.161,-0.502 0.874,-0.723 1.594,-0.492c0.72,0.229 1.174,0.823 1.013,1.325" style="fill:#aa1e22;fill-rule:nonzero;"/><path d="M82.581,111.225c-0.155,0.484 -0.843,0.698 -1.538,0.476c-0.695,-0.223 -1.133,-0.795 -0.979,-1.279c0.155,-0.485 0.844,-0.698 1.539,-0.476c0.695,0.222 1.133,0.795 0.978,1.279" style="fill:#a81e22;fill-rule:nonzero;"/><path d="M82.537,111.211c-0.15,0.467 -0.814,0.672 -1.484,0.458c-0.67,-0.214 -1.092,-0.766 -0.944,-1.234c0.15,-0.466 0.814,-0.672 1.485,-0.458c0.67,0.214 1.092,0.766 0.943,1.234" style="fill:#a71e22;fill-rule:nonzero;"/><path d="M82.492,111.197c-0.144,0.45 -0.784,0.647 -1.429,0.44c-0.646,-0.205 -1.052,-0.737 -0.909,-1.187c0.144,-0.45 0.784,-0.648 1.429,-0.441c0.645,0.206 1.052,0.738 0.909,1.188" style="fill:#a62022;fill-rule:nonzero;"/><path d="M82.447,111.182c-0.139,0.433 -0.754,0.623 -1.375,0.424c-0.619,-0.198 -1.011,-0.709 -0.873,-1.142c0.138,-0.432 0.754,-0.623 1.374,-0.424c0.621,0.198 1.011,0.71 0.874,1.142" style="fill:#a52021;fill-rule:nonzero;"/><path d="M82.402,111.168c-0.133,0.415 -0.724,0.598 -1.319,0.407c-0.596,-0.19 -0.972,-0.681 -0.839,-1.097c0.133,-0.415 0.723,-0.597 1.319,-0.407c0.596,0.191 0.971,0.681 0.839,1.097" style="fill:#a41d21;fill-rule:nonzero;"/><path d="M82.357,111.153c-0.127,0.398 -0.693,0.573 -1.264,0.391c-0.571,-0.182 -0.931,-0.653 -0.804,-1.052c0.127,-0.397 0.694,-0.572 1.265,-0.389c0.57,0.182 0.93,0.653 0.803,1.05" style="fill:#a21d21;fill-rule:nonzero;"/><path d="M82.312,111.139c-0.122,0.381 -0.663,0.548 -1.209,0.373c-0.546,-0.174 -0.89,-0.624 -0.769,-1.005c0.122,-0.381 0.663,-0.547 1.209,-0.373c0.546,0.174 0.891,0.624 0.769,1.005" style="fill:#a11d21;fill-rule:nonzero;"/><path d="M82.267,111.125c-0.116,0.363 -0.633,0.522 -1.154,0.356c-0.522,-0.166 -0.85,-0.596 -0.733,-0.959c0.115,-0.363 0.632,-0.523 1.153,-0.357c0.521,0.167 0.85,0.597 0.734,0.96" style="fill:#a01d21;fill-rule:nonzero;"/><path d="M82.222,111.11c-0.111,0.347 -0.603,0.498 -1.1,0.34c-0.495,-0.158 -0.808,-0.568 -0.698,-0.914c0.111,-0.346 0.603,-0.498 1.099,-0.34c0.497,0.159 0.809,0.568 0.699,0.914" style="fill:#9f1f21;fill-rule:nonzero;"/><path d="M82.177,111.096c-0.105,0.329 -0.573,0.473 -1.044,0.322c-0.472,-0.15 -0.769,-0.539 -0.664,-0.867c0.105,-0.329 0.573,-0.474 1.044,-0.323c0.472,0.15 0.769,0.539 0.664,0.868" style="fill:#9d1c21;fill-rule:nonzero;"/><path d="M82.132,111.082c-0.099,0.311 -0.543,0.448 -0.989,0.305c-0.447,-0.142 -0.729,-0.511 -0.629,-0.822c0.1,-0.312 0.542,-0.449 0.989,-0.306c0.447,0.143 0.728,0.511 0.629,0.823" style="fill:#9d1c21;fill-rule:nonzero;"/><path d="M82.087,111.067c-0.094,0.294 -0.512,0.423 -0.934,0.289c-0.422,-0.135 -0.688,-0.483 -0.594,-0.777c0.094,-0.294 0.513,-0.423 0.934,-0.288c0.422,0.134 0.688,0.482 0.594,0.776" style="fill:#9c1c21;fill-rule:nonzero;"/><path d="M82.042,111.053c-0.088,0.277 -0.482,0.399 -0.879,0.272c-0.397,-0.127 -0.647,-0.455 -0.559,-0.731c0.089,-0.277 0.482,-0.399 0.879,-0.272c0.397,0.127 0.648,0.454 0.559,0.731" style="fill:#9b1c21;fill-rule:nonzero;"/><path d="M81.997,111.038c-0.082,0.26 -0.452,0.374 -0.824,0.256c-0.372,-0.12 -0.607,-0.427 -0.524,-0.686c0.083,-0.26 0.452,-0.374 0.824,-0.254c0.373,0.118 0.607,0.425 0.524,0.684" style="fill:#9a1c21;fill-rule:nonzero;"/><path d="M81.952,111.024c-0.077,0.242 -0.422,0.349 -0.769,0.238c-0.348,-0.112 -0.567,-0.398 -0.489,-0.64c0.078,-0.242 0.422,-0.349 0.769,-0.238c0.348,0.112 0.567,0.398 0.489,0.64" style="fill:#991b20;fill-rule:nonzero;"/><path d="M81.907,111.01c-0.071,0.225 -0.392,0.324 -0.714,0.221c-0.323,-0.104 -0.526,-0.37 -0.454,-0.594c0.072,-0.226 0.391,-0.324 0.715,-0.221c0.322,0.103 0.525,0.368 0.453,0.594" style="fill:#991b20;fill-rule:nonzero;"/><path d="M81.862,110.995c-0.066,0.208 -0.361,0.3 -0.659,0.204c-0.298,-0.095 -0.486,-0.341 -0.419,-0.548c0.067,-0.208 0.362,-0.299 0.659,-0.204c0.298,0.095 0.485,0.341 0.419,0.548" style="fill:#971b20;fill-rule:nonzero;"/><path d="M81.817,110.981c-0.06,0.191 -0.332,0.274 -0.604,0.186c-0.273,-0.087 -0.445,-0.311 -0.384,-0.502c0.061,-0.19 0.331,-0.274 0.604,-0.186c0.274,0.087 0.445,0.312 0.384,0.502" style="fill:#961a1f;fill-rule:nonzero;"/><path d="M81.772,110.967c-0.055,0.173 -0.301,0.249 -0.549,0.169c-0.248,-0.079 -0.404,-0.283 -0.349,-0.456c0.055,-0.174 0.301,-0.25 0.549,-0.17c0.248,0.079 0.405,0.283 0.349,0.457" style="fill:#941a1f;fill-rule:nonzero;"/><path d="M81.727,110.953c-0.05,0.155 -0.271,0.223 -0.494,0.152c-0.224,-0.071 -0.364,-0.255 -0.314,-0.411c0.05,-0.156 0.271,-0.224 0.494,-0.152c0.224,0.071 0.364,0.255 0.314,0.411" style="fill:#941a1e;fill-rule:nonzero;"/><path d="M81.683,110.938c-0.045,0.138 -0.242,0.199 -0.44,0.136c-0.198,-0.064 -0.324,-0.227 -0.279,-0.366c0.044,-0.138 0.24,-0.199 0.439,-0.135c0.199,0.063 0.324,0.227 0.28,0.365" style="fill:#941a1e;fill-rule:nonzero;"/><path d="M81.638,110.924c-0.039,0.121 -0.211,0.174 -0.385,0.119c-0.174,-0.056 -0.283,-0.199 -0.245,-0.32c0.04,-0.122 0.211,-0.175 0.385,-0.119c0.174,0.055 0.283,0.199 0.245,0.32" style="fill:#92191e;fill-rule:nonzero;"/><path d="M81.593,110.909c-0.034,0.104 -0.182,0.15 -0.33,0.103c-0.149,-0.048 -0.243,-0.171 -0.21,-0.275c0.034,-0.104 0.181,-0.149 0.33,-0.102c0.15,0.048 0.243,0.171 0.21,0.274" style="fill:#91191e;fill-rule:nonzero;"/><path d="M81.548,110.895c-0.028,0.087 -0.151,0.124 -0.275,0.085c-0.124,-0.04 -0.202,-0.142 -0.175,-0.229c0.028,-0.086 0.151,-0.124 0.275,-0.084c0.124,0.039 0.202,0.142 0.175,0.228" style="fill:#91191e;fill-rule:nonzero;"/><path d="M81.503,110.881c-0.022,0.069 -0.121,0.099 -0.22,0.068c-0.099,-0.032 -0.161,-0.114 -0.14,-0.184c0.023,-0.068 0.121,-0.099 0.22,-0.067c0.099,0.032 0.162,0.113 0.14,0.183" style="fill:#8f191d;fill-rule:nonzero;"/><path d="M81.458,110.866c-0.017,0.052 -0.091,0.075 -0.165,0.051c-0.074,-0.023 -0.121,-0.085 -0.105,-0.137c0.017,-0.052 0.091,-0.075 0.165,-0.051c0.074,0.024 0.122,0.086 0.105,0.137" style="fill:#8e181d;fill-rule:nonzero;"/><path d="M81.413,110.852c-0.011,0.035 -0.06,0.049 -0.11,0.034c-0.05,-0.016 -0.081,-0.057 -0.07,-0.092c0.011,-0.034 0.06,-0.049 0.11,-0.033c0.05,0.016 0.081,0.056 0.07,0.091" style="fill:#8e181d;fill-rule:nonzero;"/><path d="M81.368,110.837c-0.005,0.018 -0.03,0.026 -0.055,0.017c-0.025,-0.007 -0.04,-0.028 -0.035,-0.045c0.006,-0.017 0.03,-0.025 0.055,-0.017c0.025,0.008 0.041,0.028 0.035,0.045" style="fill:#8d181d;fill-rule:nonzero;"/></g></g><path d="M80.545,109.702c-0.416,0.466 -0.139,0.908 0.467,1.097c0.606,0.19 1.501,0.126 1.3,0.796c-0.118,0.39 -0.163,0.509 -0.18,0.541c0.078,-0.006 0.6,-0.067 0.647,-0.743c0.05,-0.732 0.113,-1.869 -1.023,-2.096c0,0 -0.036,-0.003 -0.096,-0.003c-0.225,0 -0.788,0.039 -1.115,0.408Zm1.577,2.435c0,0 -0.002,0.022 0.01,-0.001c-0.006,0 -0.01,0.001 -0.01,0.001Z" style="fill:url(#_Radial16);fill-rule:nonzero;"/></g><g><path d="M542.882,118.515l2.488,0l0,0.552l-1.888,0l0,1.896l1.736,0l0,0.552l-1.736,0l0,2.048l1.928,0l0,0.552l-2.528,0l0,-5.6Z" style="fill:#371711;fill-rule:nonzero;"/><path d="M546.274,123.371c0.101,0.07 0.244,0.135 0.428,0.196c0.184,0.062 0.393,0.092 0.628,0.092c0.299,0 0.541,-0.073 0.728,-0.22c0.187,-0.146 0.28,-0.377 0.28,-0.692c0,-0.208 -0.053,-0.389 -0.16,-0.544c-0.107,-0.154 -0.24,-0.297 -0.4,-0.428c-0.16,-0.13 -0.332,-0.258 -0.516,-0.384c-0.184,-0.125 -0.356,-0.264 -0.516,-0.416c-0.16,-0.152 -0.293,-0.326 -0.4,-0.524c-0.107,-0.197 -0.16,-0.434 -0.16,-0.712c0,-0.448 0.135,-0.78 0.404,-0.996c0.269,-0.216 0.62,-0.324 1.052,-0.324c0.267,0 0.504,0.024 0.712,0.072c0.208,0.048 0.376,0.11 0.504,0.184l-0.192,0.528c-0.096,-0.058 -0.233,-0.112 -0.412,-0.16c-0.179,-0.048 -0.385,-0.072 -0.62,-0.072c-0.288,0 -0.501,0.071 -0.64,0.212c-0.139,0.142 -0.208,0.319 -0.208,0.532c0,0.187 0.053,0.352 0.16,0.496c0.107,0.144 0.24,0.28 0.4,0.408c0.16,0.128 0.332,0.258 0.516,0.388c0.184,0.131 0.356,0.276 0.516,0.436c0.16,0.16 0.293,0.342 0.4,0.544c0.107,0.203 0.16,0.443 0.16,0.72c0,0.47 -0.139,0.838 -0.416,1.104c-0.277,0.267 -0.669,0.4 -1.176,0.4c-0.32,0 -0.583,-0.029 -0.788,-0.088c-0.205,-0.058 -0.369,-0.125 -0.492,-0.2l0.208,-0.552Z" style="fill:#371711;fill-rule:nonzero;"/><path d="M552.69,119.067l-1.376,0l0,5.048l-0.6,0l0,-5.048l-1.376,0l0,-0.552l3.352,0l0,0.552Z" style="fill:#371711;fill-rule:nonzero;"/><path d="M555.026,122.547l-1.584,0l-0.448,1.568l-0.592,0l1.688,-5.688l0.328,0l1.688,5.688l-0.624,0l-0.456,-1.568Zm-1.424,-0.536l1.28,0l-0.488,-1.728l-0.152,-0.84l-0.016,0l-0.152,0.856l-0.472,1.712Z" style="fill:#371711;fill-rule:nonzero;"/><path d="M559.434,119.787c0,0.139 -0.016,0.278 -0.048,0.416c-0.032,0.139 -0.083,0.27 -0.152,0.392c-0.069,0.123 -0.156,0.232 -0.26,0.328c-0.104,0.096 -0.231,0.168 -0.38,0.216l0,0.032c0.128,0.027 0.251,0.071 0.368,0.132c0.117,0.062 0.221,0.147 0.312,0.256c0.091,0.11 0.163,0.243 0.216,0.4c0.053,0.158 0.08,0.346 0.08,0.564c0,0.288 -0.045,0.538 -0.136,0.748c-0.091,0.211 -0.215,0.383 -0.372,0.516c-0.157,0.134 -0.339,0.232 -0.544,0.296c-0.205,0.064 -0.423,0.096 -0.652,0.096l-0.26,0c-0.099,0 -0.204,-0.004 -0.316,-0.012c-0.112,-0.008 -0.223,-0.018 -0.332,-0.032c-0.109,-0.013 -0.209,-0.033 -0.3,-0.06l0,-5.512c0.16,-0.032 0.348,-0.058 0.564,-0.08c0.216,-0.021 0.449,-0.032 0.7,-0.032c0.181,0 0.363,0.018 0.544,0.052c0.181,0.035 0.344,0.1 0.488,0.196c0.144,0.096 0.26,0.231 0.348,0.404c0.088,0.174 0.132,0.402 0.132,0.684Zm-1.52,3.84c0.144,0 0.277,-0.022 0.4,-0.068c0.123,-0.045 0.231,-0.113 0.324,-0.204c0.093,-0.09 0.167,-0.201 0.22,-0.332c0.053,-0.13 0.08,-0.284 0.08,-0.46c0,-0.218 -0.033,-0.396 -0.1,-0.532c-0.067,-0.136 -0.153,-0.241 -0.26,-0.316c-0.107,-0.074 -0.228,-0.125 -0.364,-0.152c-0.136,-0.026 -0.276,-0.04 -0.42,-0.04l-0.536,0l0,2.048c0.032,0.011 0.073,0.019 0.124,0.024c0.051,0.006 0.107,0.011 0.168,0.016c0.061,0.006 0.124,0.01 0.188,0.012c0.064,0.003 0.123,0.004 0.176,0.004Zm-0.328,-2.624c0.075,0 0.16,-0.002 0.256,-0.008c0.096,-0.005 0.176,-0.013 0.24,-0.024c0.197,-0.08 0.367,-0.209 0.508,-0.388c0.141,-0.178 0.212,-0.398 0.212,-0.66c0,-0.176 -0.024,-0.324 -0.072,-0.444c-0.048,-0.12 -0.113,-0.214 -0.196,-0.284c-0.083,-0.069 -0.18,-0.118 -0.292,-0.148c-0.112,-0.029 -0.229,-0.044 -0.352,-0.044c-0.139,0 -0.264,0.004 -0.376,0.012c-0.112,0.008 -0.197,0.018 -0.256,0.028l0,1.96l0.328,0Z" style="fill:#371711;fill-rule:nonzero;"/><path d="M563.122,124.115l-2.696,0l0,-5.6l0.6,0l0,5.048l2.096,0l0,0.552Z" style="fill:#371711;fill-rule:nonzero;"/><path d="M563.746,118.515l2.488,0l0,0.552l-1.888,0l0,1.896l1.736,0l0,0.552l-1.736,0l0,2.048l1.928,0l0,0.552l-2.528,0l0,-5.6Z" style="fill:#371711;fill-rule:nonzero;"/><path d="M570.106,123.899c-0.133,0.112 -0.301,0.192 -0.504,0.24c-0.203,0.048 -0.416,0.072 -0.64,0.072c-0.283,0 -0.544,-0.053 -0.784,-0.16c-0.24,-0.106 -0.447,-0.276 -0.62,-0.508c-0.173,-0.232 -0.308,-0.532 -0.404,-0.9c-0.096,-0.368 -0.144,-0.81 -0.144,-1.328c0,-0.533 0.055,-0.984 0.164,-1.352c0.109,-0.368 0.255,-0.666 0.436,-0.896c0.181,-0.229 0.391,-0.394 0.628,-0.496c0.237,-0.101 0.481,-0.152 0.732,-0.152c0.256,0 0.468,0.019 0.636,0.056c0.168,0.038 0.313,0.083 0.436,0.136l-0.144,0.544c-0.107,-0.058 -0.232,-0.104 -0.376,-0.136c-0.144,-0.032 -0.309,-0.048 -0.496,-0.048c-0.187,0 -0.363,0.042 -0.528,0.124c-0.165,0.083 -0.312,0.216 -0.44,0.4c-0.128,0.184 -0.229,0.426 -0.304,0.724c-0.075,0.299 -0.112,0.664 -0.112,1.096c0,0.779 0.133,1.364 0.4,1.756c0.267,0.392 0.621,0.588 1.064,0.588c0.181,0 0.344,-0.025 0.488,-0.076c0.144,-0.05 0.267,-0.11 0.368,-0.18l0.144,0.496Z" style="fill:#371711;fill-rule:nonzero;"/><rect x="570.962" y="118.515" width="0.6" height="5.6" style="fill:#371711;fill-rule:nonzero;"/><path d="M572.706,118.515c0.085,-0.016 0.18,-0.028 0.284,-0.036c0.104,-0.008 0.209,-0.013 0.316,-0.016c0.107,-0.002 0.212,-0.005 0.316,-0.008c0.104,-0.002 0.201,-0.004 0.292,-0.004c0.389,0 0.72,0.067 0.992,0.2c0.272,0.134 0.493,0.324 0.664,0.572c0.171,0.248 0.293,0.546 0.368,0.892c0.075,0.347 0.112,0.734 0.112,1.16c0,0.384 -0.036,0.752 -0.108,1.104c-0.072,0.352 -0.193,0.662 -0.364,0.928c-0.171,0.267 -0.396,0.48 -0.676,0.64c-0.28,0.16 -0.631,0.24 -1.052,0.24c-0.069,0 -0.157,-0.001 -0.264,-0.004c-0.107,-0.002 -0.217,-0.008 -0.332,-0.016c-0.115,-0.008 -0.221,-0.014 -0.32,-0.02c-0.099,-0.005 -0.175,-0.013 -0.228,-0.024l0,-5.608Zm1.24,0.488l-0.172,0c-0.061,0 -0.121,0.003 -0.18,0.008c-0.059,0.006 -0.113,0.011 -0.164,0.016c-0.051,0.006 -0.092,0.011 -0.124,0.016l0,4.56c0.021,0.006 0.06,0.01 0.116,0.012l0.352,0.016c0.056,0.003 0.097,0.004 0.124,0.004c0.293,0 0.539,-0.064 0.736,-0.192c0.197,-0.128 0.353,-0.3 0.468,-0.516c0.115,-0.216 0.196,-0.466 0.244,-0.752c0.048,-0.285 0.072,-0.588 0.072,-0.908c0,-0.282 -0.021,-0.56 -0.064,-0.832c-0.043,-0.272 -0.119,-0.513 -0.228,-0.724c-0.109,-0.21 -0.259,-0.381 -0.448,-0.512c-0.189,-0.13 -0.433,-0.196 -0.732,-0.196Z" style="fill:#371711;fill-rule:nonzero;"/><path d="M576.738,121.315c0,-0.949 0.152,-1.669 0.456,-2.16c0.304,-0.49 0.768,-0.736 1.392,-0.736c0.336,0 0.621,0.068 0.856,0.204c0.235,0.136 0.425,0.33 0.572,0.58c0.147,0.251 0.255,0.555 0.324,0.912c0.069,0.358 0.104,0.758 0.104,1.2c0,0.95 -0.153,1.67 -0.46,2.16c-0.307,0.491 -0.772,0.736 -1.396,0.736c-0.331,0 -0.613,-0.068 -0.848,-0.204c-0.235,-0.136 -0.427,-0.329 -0.576,-0.58c-0.149,-0.25 -0.257,-0.554 -0.324,-0.912c-0.067,-0.357 -0.1,-0.757 -0.1,-1.2Zm0.632,0c0,0.315 0.023,0.614 0.068,0.896c0.045,0.283 0.116,0.531 0.212,0.744c0.096,0.214 0.221,0.384 0.376,0.512c0.155,0.128 0.341,0.192 0.56,0.192c0.4,0 0.704,-0.192 0.912,-0.576c0.208,-0.384 0.312,-0.973 0.312,-1.768c0,-0.309 -0.023,-0.605 -0.068,-0.888c-0.045,-0.282 -0.116,-0.532 -0.212,-0.748c-0.096,-0.216 -0.221,-0.388 -0.376,-0.516c-0.155,-0.128 -0.344,-0.192 -0.568,-0.192c-0.395,0 -0.696,0.192 -0.904,0.576c-0.208,0.384 -0.312,0.974 -0.312,1.768Z" style="fill:#371711;fill-rule:nonzero;"/><path d="M582.994,118.515l2.488,0l0,0.552l-1.888,0l0,1.896l1.736,0l0,0.552l-1.736,0l0,2.048l1.928,0l0,0.552l-2.528,0l0,-5.6Z" style="fill:#371711;fill-rule:nonzero;"/><path d="M587.282,120.563l-0.344,-0.88l-0.024,0l0.088,0.88l0,3.552l-0.576,0l0,-5.688l0.36,0l2.072,3.632l0.328,0.84l0.032,0l-0.088,-0.84l0,-3.544l0.576,0l0,5.688l-0.368,0l-2.056,-3.64Z" style="fill:#371711;fill-rule:nonzero;"/><path d="M592.666,123.579l0.904,0l0,-3.896l0.072,-0.472l-0.272,0.384l-0.672,0.544l-0.304,-0.36l1.456,-1.36l0.296,0l0,5.16l0.872,0l0,0.536l-2.352,0l0,-0.536Z" style="fill:#371711;fill-rule:nonzero;"/><path d="M595.882,120.211c0,-0.554 0.119,-0.992 0.356,-1.312c0.237,-0.32 0.591,-0.48 1.06,-0.48c0.448,0 0.796,0.166 1.044,0.496c0.248,0.331 0.372,0.838 0.372,1.52c0,0.603 -0.056,1.127 -0.168,1.572c-0.112,0.446 -0.267,0.822 -0.464,1.128c-0.197,0.307 -0.429,0.548 -0.696,0.724c-0.267,0.176 -0.555,0.294 -0.864,0.352l-0.152,-0.472c0.512,-0.133 0.909,-0.401 1.192,-0.804c0.283,-0.402 0.461,-0.908 0.536,-1.516c-0.112,0.155 -0.236,0.264 -0.372,0.328c-0.136,0.064 -0.316,0.096 -0.54,0.096c-0.171,0 -0.335,-0.033 -0.492,-0.1c-0.157,-0.066 -0.296,-0.168 -0.416,-0.304c-0.12,-0.136 -0.216,-0.306 -0.288,-0.512c-0.072,-0.205 -0.108,-0.444 -0.108,-0.716Zm0.584,-0.064c0,0.379 0.077,0.67 0.232,0.872c0.155,0.203 0.36,0.304 0.616,0.304c0.203,0 0.375,-0.044 0.516,-0.132c0.141,-0.088 0.244,-0.201 0.308,-0.34c0.011,-0.069 0.016,-0.136 0.016,-0.2l0,-0.184c0,-0.202 -0.017,-0.396 -0.052,-0.58c-0.035,-0.184 -0.088,-0.346 -0.16,-0.488c-0.072,-0.141 -0.164,-0.253 -0.276,-0.336c-0.112,-0.082 -0.245,-0.124 -0.4,-0.124c-0.251,0 -0.447,0.11 -0.588,0.328c-0.141,0.219 -0.212,0.512 -0.212,0.88Z" style="fill:#371711;fill-rule:nonzero;"/><path d="M599.426,121.315c0,-0.512 0.032,-0.952 0.096,-1.32c0.064,-0.368 0.16,-0.668 0.288,-0.9c0.128,-0.232 0.285,-0.402 0.472,-0.512c0.187,-0.109 0.4,-0.164 0.64,-0.164c0.256,0 0.479,0.055 0.668,0.164c0.189,0.11 0.345,0.28 0.468,0.512c0.123,0.232 0.213,0.532 0.272,0.9c0.059,0.368 0.088,0.808 0.088,1.32c0,0.518 -0.032,0.959 -0.096,1.324c-0.064,0.366 -0.16,0.664 -0.288,0.896c-0.128,0.232 -0.284,0.403 -0.468,0.512c-0.184,0.11 -0.396,0.164 -0.636,0.164c-0.261,0 -0.487,-0.056 -0.676,-0.168c-0.189,-0.112 -0.345,-0.285 -0.468,-0.52c-0.123,-0.234 -0.213,-0.534 -0.272,-0.9c-0.059,-0.365 -0.088,-0.801 -0.088,-1.308Zm0.6,0c0,0.763 0.072,1.35 0.216,1.76c0.144,0.411 0.376,0.616 0.696,0.616c0.309,0 0.535,-0.188 0.676,-0.564c0.141,-0.376 0.212,-0.98 0.212,-1.812c0,-0.757 -0.068,-1.342 -0.204,-1.756c-0.136,-0.413 -0.369,-0.62 -0.7,-0.62c-0.309,0 -0.536,0.187 -0.68,0.56c-0.144,0.374 -0.216,0.979 -0.216,1.816Z" style="fill:#371711;fill-rule:nonzero;"/><path d="M603.186,122.819c0,-0.357 0.073,-0.661 0.22,-0.912c0.147,-0.25 0.364,-0.477 0.652,-0.68c-0.107,-0.08 -0.207,-0.164 -0.3,-0.252c-0.093,-0.088 -0.175,-0.188 -0.244,-0.3c-0.069,-0.112 -0.124,-0.237 -0.164,-0.376c-0.04,-0.138 -0.06,-0.298 -0.06,-0.48c0,-0.432 0.113,-0.773 0.34,-1.024c0.227,-0.25 0.537,-0.376 0.932,-0.376c0.368,0 0.66,0.114 0.876,0.34c0.216,0.227 0.324,0.538 0.324,0.932c0,0.304 -0.059,0.574 -0.176,0.808c-0.117,0.235 -0.301,0.464 -0.552,0.688c0.112,0.08 0.219,0.168 0.32,0.264c0.101,0.096 0.191,0.204 0.268,0.324c0.077,0.12 0.137,0.256 0.18,0.408c0.043,0.152 0.064,0.327 0.064,0.524c0,0.454 -0.121,0.818 -0.364,1.092c-0.243,0.275 -0.58,0.412 -1.012,0.412c-0.208,0 -0.392,-0.034 -0.552,-0.104c-0.16,-0.069 -0.296,-0.165 -0.408,-0.288c-0.112,-0.122 -0.197,-0.269 -0.256,-0.44c-0.059,-0.17 -0.088,-0.357 -0.088,-0.56Zm1.248,-1.368c-0.245,0.182 -0.423,0.384 -0.532,0.608c-0.109,0.224 -0.164,0.448 -0.164,0.672c0,0.272 0.067,0.5 0.2,0.684c0.133,0.184 0.328,0.276 0.584,0.276c0.208,0 0.388,-0.076 0.54,-0.228c0.152,-0.152 0.228,-0.393 0.228,-0.724c0,-0.165 -0.024,-0.312 -0.072,-0.44c-0.048,-0.128 -0.112,-0.241 -0.192,-0.34c-0.08,-0.098 -0.171,-0.189 -0.272,-0.272c-0.101,-0.082 -0.208,-0.161 -0.32,-0.236Zm0.216,-0.472c0.181,-0.181 0.32,-0.364 0.416,-0.548c0.096,-0.184 0.144,-0.388 0.144,-0.612c0,-0.293 -0.065,-0.513 -0.196,-0.66c-0.131,-0.146 -0.284,-0.22 -0.46,-0.22c-0.112,0 -0.212,0.023 -0.3,0.068c-0.088,0.046 -0.161,0.108 -0.22,0.188c-0.059,0.08 -0.104,0.172 -0.136,0.276c-0.032,0.104 -0.048,0.215 -0.048,0.332c0,0.144 0.021,0.274 0.064,0.388c0.043,0.115 0.101,0.219 0.176,0.312c0.075,0.094 0.16,0.179 0.256,0.256c0.096,0.078 0.197,0.151 0.304,0.22Z" style="fill:#371711;fill-rule:nonzero;"/></g><defs><linearGradient id="_Linear1" x1="0" y1="0" x2="1" y2="0" gradientUnits="userSpaceOnUse" gradientTransform="matrix(-88.0363,56.5947,-56.5947,-88.0363,466.415,17.959)"><stop offset="0" style="stop-color:#43c3e8;stop-opacity:1"/><stop offset="0.37" style="stop-color:#43c3e8;stop-opacity:1"/><stop offset="1" style="stop-color:#273c83;stop-opacity:1"/><stop offset="1" style="stop-color:#273c83;stop-opacity:1"/></linearGradient><linearGradient id="_Linear2" x1="0" y1="0" x2="1" y2="0" gradientUnits="userSpaceOnUse" gradientTransform="matrix(-88.0361,56.5946,-56.5946,-88.0361,474.72,30.8771)"><stop offset="0" style="stop-color:#43c3e8;stop-opacity:1"/><stop offset="0.37" style="stop-color:#43c3e8;stop-opacity:1"/><stop offset="1" style="stop-color:#273c83;stop-opacity:1"/><stop offset="1" style="stop-color:#273c83;stop-opacity:1"/></linearGradient><linearGradient id="_Linear3" x1="0" y1="0" x2="1" y2="0" gradientUnits="userSpaceOnUse" gradientTransform="matrix(2.98378e-15,-48.7288,48.7288,2.98378e-15,50.7126,103.957)"><stop offset="0" style="stop-color:#08694c;stop-opacity:1"/><stop offset="0.49" style="stop-color:#23b354;stop-opacity:1"/><stop offset="1" style="stop-color:#08694c;stop-opacity:1"/></linearGradient><linearGradient id="_Linear4" x1="0" y1="0" x2="1" y2="0" gradientUnits="userSpaceOnUse" gradientTransform="matrix(2.98378e-15,-48.7288,48.7288,2.98378e-15,110.392,103.957)"><stop offset="0" style="stop-color:#08694c;stop-opacity:1"/><stop offset="0.49" style="stop-color:#23b354;stop-opacity:1"/><stop offset="1" style="stop-color:#08694c;stop-opacity:1"/></linearGradient><linearGradient id="_Linear5" x1="0" y1="0" x2="1" y2="0" gradientUnits="userSpaceOnUse" gradientTransform="matrix(2.98378e-15,-48.7288,48.7288,2.98378e-15,89.4741,103.957)"><stop offset="0" style="stop-color:#08694c;stop-opacity:1"/><stop offset="0.49" style="stop-color:#23b354;stop-opacity:1"/><stop offset="1" style="stop-color:#08694c;stop-opacity:1"/></linearGradient><linearGradient id="_Linear6" x1="0" y1="0" x2="1" y2="0" gradientUnits="userSpaceOnUse" gradientTransform="matrix(2.98378e-15,-48.7288,48.7288,2.98378e-15,71.8219,103.957)"><stop offset="0" style="stop-color:#08694c;stop-opacity:1"/><stop offset="0.49" style="stop-color:#23b354;stop-opacity:1"/><stop offset="1" style="stop-color:#08694c;stop-opacity:1"/></linearGradient><linearGradient id="_Linear7" x1="0" y1="0" x2="1" y2="0" gradientUnits="userSpaceOnUse" gradientTransform="matrix(2.98378e-15,-48.7288,48.7288,2.98378e-15,67.1777,103.957)"><stop offset="0" style="stop-color:#08694c;stop-opacity:1"/><stop offset="0.49" style="stop-color:#23b354;stop-opacity:1"/><stop offset="1" style="stop-color:#08694c;stop-opacity:1"/></linearGradient><radialGradient id="_Radial8" cx="0" cy="0" r="1" gradientUnits="userSpaceOnUse" gradientTransform="matrix(7.75156,0,0,7.75156,89.5143,112.509)"><stop offset="0" style="stop-color:#e31b3f;stop-opacity:1"/><stop offset="0" style="stop-color:#e31b3f;stop-opacity:1"/><stop offset="0.72" style="stop-color:#8d181d;stop-opacity:1"/><stop offset="1" style="stop-color:#6c0c0e;stop-opacity:1"/></radialGradient><linearGradient id="_Linear9" x1="0" y1="0" x2="1" y2="0" gradientUnits="userSpaceOnUse" gradientTransform="matrix(9.11519,-6.69344,6.69344,9.11519,82.0583,111.231)"><stop offset="0" style="stop-color:#8d181d;stop-opacity:1"/><stop offset="1" style="stop-color:#e31b3f;stop-opacity:1"/></linearGradient><radialGradient id="_Radial10" cx="0" cy="0" r="1" gradientUnits="userSpaceOnUse" gradientTransform="matrix(11.1629,0,0,11.1629,69.5344,111.292)"><stop offset="0" style="stop-color:#e31b3f;stop-opacity:1"/><stop offset="0.63" style="stop-color:#8d181d;stop-opacity:1"/><stop offset="0.92" style="stop-color:#6c0c0e;stop-opacity:1"/><stop offset="1" style="stop-color:#6c0c0e;stop-opacity:1"/></radialGradient><linearGradient id="_Linear11" x1="0" y1="0" x2="1" y2="0" gradientUnits="userSpaceOnUse" gradientTransform="matrix(14.2357,0,0,14.2357,66.9963,108.917)"><stop offset="0" style="stop-color:#e31c3e;stop-opacity:1"/><stop offset="1" style="stop-color:#8d181d;stop-opacity:1"/></linearGradient><linearGradient id="_Linear12" x1="0" y1="0" x2="1" y2="0" gradientUnits="userSpaceOnUse" gradientTransform="matrix(8.65542,-9.61123,9.61123,8.65542,73.7075,120.674)"><stop offset="0" style="stop-color:#e31c3e;stop-opacity:1"/><stop offset="1" style="stop-color:#6c0c0e;stop-opacity:1"/></linearGradient><linearGradient id="_Linear13" x1="0" y1="0" x2="1" y2="0" gradientUnits="userSpaceOnUse" gradientTransform="matrix(2.41283,-13.6127,13.6127,2.41283,88.8383,128.434)"><stop offset="0" style="stop-color:#e31c3e;stop-opacity:1"/><stop offset="0" style="stop-color:#e31c3e;stop-opacity:1"/><stop offset="1" style="stop-color:#6c0c0e;stop-opacity:1"/></linearGradient><radialGradient id="_Radial14" cx="0" cy="0" r="1" gradientUnits="userSpaceOnUse" gradientTransform="matrix(7.76608,0,0,7.76608,88.1091,114.279)"><stop offset="0" style="stop-color:#e31c3e;stop-opacity:1"/><stop offset="1" style="stop-color:#6c0c0e;stop-opacity:1"/></radialGradient><radialGradient id="_Radial16" cx="0" cy="0" r="1" gradientUnits="userSpaceOnUse" gradientTransform="matrix(1.61852,0,0,1.61852,81.4391,110.956)"><stop offset="0" style="stop-color:#e31b3f;stop-opacity:1"/><stop offset="1" style="stop-color:#8d181d;stop-opacity:1"/></radialGradient></defs></svg>