<?xml version="1.0" encoding="UTF-8" standalone="no"?><!DOCTYPE svg PUBLIC "-//W3C//DTD SVG 1.1//EN" "http://www.w3.org/Graphics/SVG/1.1/DTD/svg11.dtd"><svg width="100%" height="100%" viewBox="0 0 72 72" version="1.1" xmlns="http://www.w3.org/2000/svg" xmlns:xlink="http://www.w3.org/1999/xlink" xml:space="preserve" xmlns:serif="http://www.serif.com/" style="fill-rule:evenodd;clip-rule:evenodd;stroke-linejoin:round;stroke-miterlimit:2;"><g><path d="M71.391,9.275c0,-4.729 -3.84,-8.568 -8.569,-8.568l-53.599,0c-4.729,0 -8.569,3.839 -8.569,8.568l0,53.841c0,4.729 3.84,8.568 8.569,8.568l53.599,0c4.729,0 8.569,-3.839 8.569,-8.568l0,-53.841Z" style="fill:#ea7819;"/><ellipse cx="18.104" cy="54.203" rx="6.546" ry="6.801" style="fill:#fff;"/><path d="M11.558,10.892c0,0 -0.209,10.157 0,10.166c39.29,1.618 39.837,39.22 39.837,39.22l9.422,0c0,0 0.299,-45.792 -49.259,-49.386Z" style="fill:#fff;"/><path d="M11.526,27.404c0,0 -0.136,9.736 0,9.75c23.504,2.442 23.367,23.124 23.367,23.124l8.883,0c0,0 2.285,-29.772 -32.25,-32.874Z" style="fill:#fff;"/></g></svg>