<?xml version="1.0" encoding="UTF-8" standalone="no"?><!DOCTYPE svg PUBLIC "-//W3C//DTD SVG 1.1//EN" "http://www.w3.org/Graphics/SVG/1.1/DTD/svg11.dtd"><svg width="100%" height="100%" viewBox="0 0 1700 1100" version="1.1" xmlns="http://www.w3.org/2000/svg" xmlns:xlink="http://www.w3.org/1999/xlink" xml:space="preserve" xmlns:serif="http://www.serif.com/" style="fill-rule:evenodd;clip-rule:evenodd;stroke-linejoin:round;stroke-miterlimit:1.41421;"><ellipse cx="1049.11" cy="997.4" rx="104.797" ry="100.744" style="fill:#808080;fill-opacity:0.636788;"/><path d="M-12.666,-10.877l1735.13,0l0,1141.61l-1735.13,0l0,-1141.61Zm1393.47,1117.11c-3.483,-3.109 -18.755,-41.714 -18.755,-41.714l73.273,-37.192l79.266,79.086l40.179,0l-104.425,-116.035l-133.762,58.973l0,15.168c0,0 -3.75,43.375 0,41.894c0,0 58.136,-0.886 64.224,-0.18c0.19,0.168 0.344,0.233 0.459,0.18c0.152,-0.069 -0.015,-0.129 -0.459,-0.18Zm-95.521,0.18l0,-69.652l-19.121,-182.059l0,-10.601l-46.219,10.601l-12.945,-48.933l0,-16.29l-90.594,-29.871l-33.227,46.161l8.157,0l25.07,88.273l14.945,0l75.649,-39.34l0,9.781l-75.649,43.864l19.684,37.738l7.172,0l61.738,-13.418l0,13.418l18.414,61.445l14.031,56.188l13.774,42.695l19.121,0Zm-818.418,-268.648l-28.297,0l-6.91,-72.278l-42.641,11.02l-59.398,0l0,42.722l-15.367,0l-42.27,-116.8l-132.551,30.851l-53.242,140.313l-68.164,0l0,-35.828l-16.664,-80.364l0,135.125l16.664,158.407l93.766,0l101.207,-15.602l12.472,70.078l34.579,0l-14.395,-54.476l-32.656,-54.399l-42.426,0l-46.594,18.375l-60.097,20.422l-25.2,-89.711l-10.847,-53.094l36.047,0l0,44.668l22.308,59.34l25.602,-8.39l-25.602,-95.618l37.789,-18.933l15.453,105.57l0,-8.476l73.567,0l0,-55.731l-17.703,-51.68l30.175,-15.988l61.809,167.621l42.34,-18.375l0,-122.941l-15.367,-44.406l33.859,8.578l12.5,68.562l0,53.184l16.203,0l0,-130.324l43.25,0l0,108.007l113.129,-44.668l-9.516,-73.297l33.579,0l0,73.297l78.441,22.43l0,-8.629l-27.133,-87.098l-18.367,-61.828l-123.332,19.106l0,61.258Zm35.895,165.168l37.242,0l-10.664,-75.106l-126.567,43.188l-30.488,22.168l0,54.32l-27.875,-10.399l0,26.34l58.363,0l0,-46.453l99.989,-45.976l0,31.918Zm428.773,53.32l41.402,-9.906l-20.301,-95.223l-21.101,-85.789l-40.766,33.113l8.375,63.656l16.782,72.954l-25.157,-10.098l-8.375,-62.856l-16.785,-63.656l-31.375,16.203l0,-16.203l118.402,-101.679l-21.101,-11.973l-49.141,35.019l-16.785,12.582l-22.504,9.5l-32.172,23.438l-136.105,85.789l0,19.586l-8.215,20.875l68.348,-20.875l60.828,-38.066l-9.188,38.066l-64.043,20.875l-66.418,33.375l-13.773,21.387l32.461,0l99.367,-34.235l21.594,-50.008l38.445,0l31.375,94.149l65.926,0Zm-360.41,-23.012l0,14.149l47.101,0l0,-14.149l-47.101,0Zm-68.363,-7.449l0,18.449l37.242,0l0,-18.449l-37.242,0Zm803.085,-83.507l75.418,-33.497l46.746,57.981l-111.429,57.265c0,0 -15.949,-90.379 -10.735,-81.749Zm-281.711,-52.489l42.153,99.547l65.062,-24.723l-14.945,-31.953l-24.898,18.91l0,-27.012l16.336,-8.406l-50.168,-106.785l24.789,-59.52l0,-41.253l-34.145,-15.149l-12.297,15.149l12.297,41.253l-81.82,0l34.379,46.915l35.144,-11.973l12.297,24.578l-24.184,23.016l-23.257,-23.016l-48.243,31.66l0,15.692l30.868,156.714l17.375,8.575l23.257,0l0,-17.817l-40.632,-114.402l40.632,0Zm-396.238,120.379l14.469,-59.051l-83.797,-36.473l12.555,95.524l56.773,0Zm1075.31,-13.345l0,-43.818l-30.318,0l0,-77.318l-11.838,-24.541l-33.657,0l-46.948,44.432l-31.494,-19.891l21.296,-24.541l10.198,-12.339l-31.494,-69.937l-157.812,-23.382l51.059,-114.976l-69.93,-16.481l-25.386,50.012l-17.247,66.898l0,46.828l42.633,0l0,44.032l-75.179,17.006l0,69.974l94.05,-25.019l81.219,-114.892l88.867,52.931l-23.433,73.777l55.07,30.75l34.531,-42.566l25.711,0l7.946,103.738c0,0 40.343,10.646 42.156,9.323Zm-1086.17,-243.128c1.188,-6.372 81.799,-20.66 81.799,-20.66l67.16,-20.027l26.836,61.371l124.011,-10.946l-12.722,17.018l-104.586,61.525c0,0 -20.186,-23.099 -14.24,-27.656c5.945,-4.556 32.853,-11.416 33.027,-11.873c2.154,-5.664 -33.025,-17.135 -33.027,-17.176c-0.002,-0.041 -19.299,-41.22 -19.299,-41.22c0,0 -0.678,36.552 -4.645,36.4c-3.967,-0.152 -10.056,-26.756 -10.056,-26.756c0,0 -1.057,47.194 -39.434,48.752c-47.065,1.912 -61.045,23.379 -61.445,24.215c-0.401,0.836 -13.682,-7.299 -13.682,-7.299l13.682,22.613l15.613,23.661l13.129,52.857l-6.895,10.48l-21.847,-53.15c-0.362,1.741 -36.393,-105.971 -33.379,-122.129Zm1062.56,-29.285l-33.968,0l25.261,113.141l8.707,0l13.403,24.929l-13.403,0l20.77,66.356l0,-178.262l-20.77,-26.164Zm-990.322,169.994l4.209,14.781l8.5,0l0,-14.781l-12.709,-31.514l0,31.514Zm37.121,0l29.239,-15.478l14.716,-12.51c0,0 -28.849,-29.694 -43.955,-18.473c-15.105,11.221 10.373,8.168 11.487,10.024c1.113,1.855 -28.082,-2.305 -28.012,0c0.07,2.304 -4.695,15.289 0,20.959c4.695,5.67 10.008,13.025 16.525,15.478Zm39.604,-67.742l19.299,24.568l-4.358,7.256l-14.941,-31.824Zm-710.141,27.982l22.653,-62.656l26.511,-89.566l-77.187,30.851l18.199,121.371l9.824,0Zm1272.51,-404.894l-76.137,0l0,33.828l-10.285,155.73l0,19.391l-25.363,107.707l8.898,10.078l16.465,61.543l65.16,-22.89l0,-113.118l21.262,-85.105l-21.262,-7.66l-15.222,30.054l-21.52,0l0,-30.054l9.031,-28.93l48.973,-130.574Zm256.437,219.418l-119.371,0l-19.66,44.094l130.863,34l26.875,75.511l18.094,-25.668l-36.801,-127.937Zm-390.304,88.047l32.004,-114.535l12.547,-184.52l-33.922,-8.969l-10.629,86.317l0,119.648l-24.004,102.059l24.004,0Zm-827.887,-121.45c0,0 -70.844,-22.941 -62.137,38.219c8.707,61.16 33.597,37.734 47.543,44.938c8.864,4.578 42.617,-33.071 41.629,-30.684c-1.311,3.17 31.192,-14.254 31.192,-14.254l0,70.848l-107.02,8.863l-30.789,-101.605l-105.262,21.894l-29.461,-68.656l52.563,-25.168c0,0 48.183,52.633 99.605,25.168c51.422,-27.465 49.352,-54.285 62.137,-46.309c12.785,7.977 0,-30.144 0,-30.144l58.227,8.41l0,68.043l-58.227,30.437Zm177.93,-72.406l0,94.551l59.254,-32.047l0,-71.359l-18.993,-10.973l0,-65.059l-90.914,39.024l0,37.008l-38.711,-10.973l0,82.332l-88.566,32.047c6.078,-21.035 -75.282,-4.682 -48.68,33.586c26.559,38.205 58.672,-17.512 58.672,-17.512l67.364,-16.074l-10.43,63.434l0,23.468l10.43,0l0,-23.468l84.093,-63.434l-9.203,-57.762l0,-36.789l25.684,0Zm-21.02,129.43l10.465,40.215l-61.121,9.707l0,-9.707l50.656,-40.215Zm597.774,2.449l35.289,9.637l0,34.453l-35.289,-21.301l0,-22.789Zm-263.383,-12.691l0,55.308l60.547,0l0,-34.429l-60.547,-20.879Zm-71.672,-9.446l14.625,64.754l37.59,0l0,-55.308l-52.215,-9.446Zm230.578,13.426l-66.832,0l0,47.699l66.832,-23.921l0,-23.778Zm-418.234,-24.164l0,52.207l-38.227,9.93l-8.797,-31.711l47.024,-30.426Zm1112.34,-186.012l-44.504,0l-129.453,165.793l68.293,0l14.121,11.36l11.078,33.023l16.133,13.742l35.187,0l20.289,10.036l0,-23.778l-55.476,0l0,-61.019l-65.887,-14.161l121.363,-108.542l8.856,-26.454Zm-1072.41,161.762l0,65.313l7.699,0l103.902,-18.715l0,-22.348l-111.601,-24.25Zm519.464,42.93l18.02,-196.266l0,-36.262l-37.754,-8.957l-14.965,102.024l0,139.461l34.699,0Zm-118.976,-133.094l0,118.688l41.699,0l0,-95.79l-41.699,-22.898Zm-79.11,-29.437l60.707,29.437l-8.957,68.754l8.957,49.371l-60.707,-11.195l-8.132,-38.176l8.132,-98.191Zm-45.836,-17.301l-59.148,0l0,142.664l59.148,12.488l0,-36.738l11.141,-71.942l-11.141,-46.472Zm732.86,-64.52l-53.75,0l-41.766,-81.179l-77.125,246.543l-8.246,40.089l24.988,0l142.289,-167.656l73.856,0l0,-52.211l-143.727,-184.836l143.727,31.551l0,-31.551l-216.145,-88.093l-16.742,26.164l172.641,261.179Zm-909,78.719l79.652,-14.199l10.629,139.25l-56.566,-11.727l0,-31.019l-33.715,-82.305Zm-98.82,0l-12,29.57l0,56.809l102.929,24.074l-10.008,-51.289l-21.093,-59.164l-59.828,0Zm816.738,59.59l40.961,-128.625l26.656,-121.18l-8.309,-8.519l-59.308,-99.879l-33.953,99.879l12.453,38.836l21.5,81.179l-21.5,81.77l0,13.98l-56.172,-13.98l19.883,-81.77l23.836,0l-23.836,-81.179l-72.508,195.636l120.051,23.852l10.246,0Z" style="fill:#333;"/><path d="M921.558,991.171l0,-60.801l-57.129,0l0,-41.97l57.129,0l0,-60.801l38.085,0l0,60.801l57.278,0l0,41.97l-57.278,0l0,60.801l-38.085,0Z" style="fill:#b20c0e;fill-rule:nonzero;stroke:#fff;stroke-width:1px;"/><path d="M1213.26,1053.95c-2.543,0.594 -13.382,1.212 -13.537,18.073c-0.154,16.861 9.13,18.594 13.537,18.074c4.406,-0.52 13.113,-1.349 13.585,-18.074c0.473,-16.725 -12.261,-18.382 -13.585,-18.073" style="fill:#de4f20;fill-rule:nonzero;"/><path d="M1001.8,1027.45c1.381,1.921 3.07,3.657 5.066,5.213c1.996,1.556 4.323,2.828 6.985,3.812c2.661,0.987 5.628,1.478 8.905,1.478c3.377,0 6.421,-0.595 9.134,-1.79c2.711,-1.19 5.013,-2.8 6.908,-4.822c1.893,-2.023 3.351,-4.408 4.375,-7.157c1.022,-2.749 1.536,-5.681 1.536,-8.793c0,-4.77 -1.204,-8.559 -3.607,-11.359c-2.407,-2.801 -5.401,-5.135 -8.982,-7.002c-3.584,-1.867 -7.446,-3.579 -11.591,-5.135c-4.145,-1.557 -8.009,-3.501 -11.59,-5.835c-3.584,-2.334 -6.578,-5.315 -8.982,-8.947c-2.405,-3.63 -3.607,-8.505 -3.607,-14.627c0,-4.357 0.768,-8.325 2.302,-11.903c1.536,-3.579 3.762,-6.665 6.679,-9.259c2.917,-2.592 6.422,-4.615 10.516,-6.068c4.093,-1.452 8.698,-2.179 13.817,-2.179c4.912,0 9.158,0.598 12.742,1.789c3.582,1.195 6.908,3.035 9.979,5.524c-0.921,1.766 -1.689,3.633 -2.303,5.603c-0.614,1.971 -1.228,4.461 -1.843,7.468l-1.841,0c-0.514,-1.451 -1.204,-3.035 -2.073,-4.745c-0.871,-1.712 -2.049,-3.292 -3.531,-4.746c-1.485,-1.452 -3.25,-2.67 -5.296,-3.657c-2.049,-0.985 -4.505,-1.478 -7.37,-1.478c-2.866,0 -5.502,0.466 -7.905,1.4c-2.406,0.933 -4.505,2.257 -6.295,3.967c-1.792,1.713 -3.173,3.762 -4.145,6.147c-0.974,2.388 -1.459,4.98 -1.459,7.78c0,4.878 1.202,8.714 3.608,11.515c2.404,2.8 5.397,5.162 8.981,7.08c3.582,1.92 7.446,3.632 11.591,5.135c4.145,1.505 8.007,3.346 11.591,5.524c3.581,2.178 6.575,4.978 8.98,8.402c2.404,3.423 3.608,7.989 3.608,13.693c0,4.773 -0.844,9.285 -2.533,13.537c-1.688,4.255 -4.145,7.963 -7.369,11.126c-3.224,3.166 -7.165,5.602 -11.821,7.313c-4.658,1.712 -9.954,2.568 -15.889,2.568c-6.347,0 -11.49,-0.856 -15.429,-2.568c-3.941,-1.711 -7.241,-3.656 -9.902,-5.835c0.921,-2.385 1.559,-4.536 1.919,-6.457c0.358,-1.918 0.691,-4.382 0.998,-7.39l1.842,0c0.818,1.866 1.919,3.76 3.301,5.678" style="fill:#e4d5d3;fill-rule:nonzero;"/><path d="M1078.25,955.018c-0.257,-6.637 -0.538,-13.277 -0.844,-19.917c4.605,0.209 9.184,0.389 13.739,0.544c4.554,0.156 9.136,0.234 13.74,0.234c4.606,0 9.159,-0.078 13.664,-0.234c4.502,-0.155 9.058,-0.335 13.663,-0.544c-0.307,1.556 -0.46,3.112 -0.46,4.668c0,1.556 0.153,3.112 0.46,4.668c-3.277,-0.206 -6.27,-0.413 -8.981,-0.622c-2.713,-0.206 -5.579,-0.413 -8.597,-0.623c-3.02,-0.206 -6.321,-0.389 -9.902,-0.544c-3.584,-0.155 -7.882,-0.234 -12.895,-0.234c-0.104,3.321 -0.23,6.485 -0.384,9.492c-0.154,3.01 -0.23,6.434 -0.23,10.27c0,4.046 0.024,7.989 0.076,11.826c0.05,3.839 0.077,6.744 0.077,8.713c4.502,0 8.545,-0.051 12.128,-0.155c3.581,-0.102 6.855,-0.234 9.825,-0.389c2.968,-0.155 5.704,-0.311 8.213,-0.466c2.507,-0.157 4.887,-0.337 7.139,-0.545c-0.307,1.555 -0.461,3.165 -0.461,4.823c0,1.556 0.154,3.112 0.461,4.668c-2.662,-0.312 -5.757,-0.569 -9.288,-0.777c-3.531,-0.208 -7.062,-0.336 -10.593,-0.39c-3.531,-0.051 -6.858,-0.102 -9.978,-0.155c-3.123,-0.052 -5.603,-0.078 -7.446,-0.078c0,0.933 -0.027,1.945 -0.077,3.034c-0.052,1.089 -0.076,2.466 -0.076,4.124l0,15.404c0,5.913 0.024,10.79 0.076,14.627c0.05,3.839 0.127,6.744 0.23,8.714l10.747,0c3.888,0 7.7,-0.078 11.437,-0.234c3.735,-0.155 7.265,-0.362 10.593,-0.622c3.325,-0.258 6.217,-0.647 8.674,-1.167c-0.206,0.727 -0.333,1.531 -0.384,2.412c-0.053,0.882 -0.077,1.687 -0.077,2.411c0,1.661 0.154,3.01 0.461,4.046c-4.606,-0.209 -9.187,-0.311 -13.74,-0.311l-13.894,0l-13.97,0c-4.606,0 -9.265,0.102 -13.97,0.311c0.306,-6.637 0.587,-13.25 0.844,-19.839c0.254,-6.587 0.383,-13.305 0.383,-20.15l0,-26.764c0,-6.847 -0.129,-13.589 -0.383,-20.229" style="fill:#e4d5d3;fill-rule:nonzero;"/><path d="M1172.67,984.894c1.689,0.105 3.555,0.155 5.603,0.155c3.172,0 6.472,-0.362 9.902,-1.089c3.428,-0.724 6.576,-1.996 9.441,-3.812c2.864,-1.814 5.244,-4.253 7.139,-7.313c1.893,-3.058 2.841,-6.925 2.841,-11.593c0,-4.045 -0.744,-7.391 -2.226,-10.036c-1.486,-2.645 -3.404,-4.746 -5.757,-6.302c-2.356,-1.556 -4.913,-2.618 -7.677,-3.189c-2.763,-0.57 -5.476,-0.857 -8.136,-0.857c-3.584,0 -6.551,0.078 -8.905,0.233c-2.355,0.156 -4.351,0.339 -5.986,0.545c-0.207,5.707 -0.411,11.359 -0.615,16.962c-0.206,5.601 -0.307,11.202 -0.307,16.804l0,8.87c1.432,0.311 2.993,0.52 4.683,0.622m-17.654,-29.642c-0.258,-6.587 -0.538,-13.304 -0.845,-20.151c2.967,0.209 5.884,0.389 8.75,0.544c2.864,0.156 5.781,0.234 8.751,0.234c2.967,0 5.884,-0.128 8.75,-0.389c2.865,-0.258 5.782,-0.389 8.751,-0.389c4.299,0 8.391,0.416 12.282,1.245c3.888,0.831 7.291,2.205 10.209,4.123c2.916,1.921 5.219,4.435 6.909,7.547c1.689,3.112 2.532,7.002 2.532,11.67c0,4.98 -1.101,9.258 -3.301,12.838c-2.202,3.578 -4.888,6.535 -8.06,8.869c-3.173,2.335 -6.577,4.151 -10.208,5.447c-3.634,1.297 -6.935,2.153 -9.903,2.567c1.229,1.555 2.917,3.734 5.067,6.535c2.149,2.801 4.553,5.889 7.215,9.258c2.661,3.372 5.423,6.9 8.29,10.581c2.864,3.683 5.627,7.211 8.29,10.581c2.66,3.372 5.167,6.457 7.524,9.258c2.352,2.802 4.245,4.928 5.678,6.38c-1.534,-0.209 -3.07,-0.311 -4.604,-0.311l-4.606,0l-4.452,0c-1.536,0 -3.02,0.102 -4.452,0.311c-1.536,-2.179 -3.865,-5.446 -6.986,-9.803c-3.123,-4.356 -6.577,-9.025 -10.362,-14.004c-3.788,-4.979 -7.652,-9.932 -11.591,-14.86c-3.941,-4.927 -7.549,-9.103 -10.823,-12.526l-5.834,0l0,11.359c0,6.846 0.127,13.591 0.384,20.228c0.254,6.641 0.538,13.175 0.844,19.606c-2.356,-0.209 -4.862,-0.311 -7.522,-0.311c-2.662,0 -5.17,0.102 -7.522,0.311c0.307,-6.431 0.587,-12.965 0.845,-19.606c0.253,-6.637 0.383,-13.382 0.383,-20.228l0,-26.764c0,-6.847 -0.13,-13.562 -0.383,-20.15" style="fill:#e4d5d3;fill-rule:nonzero;"/><path d="M995.275,1071.84c0.08,-2.017 0.121,-4.02 0.121,-6.01c0,-1.881 -0.014,-3.925 -0.041,-6.131c-0.028,-2.205 -0.067,-4.437 -0.12,-6.696c1.345,0.269 2.476,0.404 3.392,0.404c0.861,0 1.966,-0.135 3.313,-0.404c-0.271,3.227 -0.473,6.765 -0.606,10.609c-0.135,3.846 -0.202,7.785 -0.202,11.819c0,2.797 0.242,4.934 0.727,6.412c0.484,1.481 1.076,2.596 1.777,3.349c0.754,0.861 1.709,1.573 2.867,2.138c1.158,0.565 2.518,0.847 4.08,0.847c2.262,0 4.146,-0.497 5.654,-1.492c1.508,-0.995 2.612,-2.219 3.313,-3.671c0.376,-0.914 0.673,-1.694 0.889,-2.34c0.213,-0.645 0.39,-1.505 0.525,-2.581c0.133,-1.075 0.214,-2.527 0.242,-4.357c0.027,-1.827 0.041,-4.328 0.041,-7.503l0,-6.775c0,-1.183 -0.014,-2.313 -0.041,-3.389c-0.028,-1.075 -0.068,-2.098 -0.121,-3.066c0.592,0.108 1.157,0.202 1.696,0.282c0.538,0.081 1.104,0.122 1.696,0.122c0.592,0 1.158,-0.041 1.697,-0.122c0.538,-0.08 1.076,-0.174 1.616,-0.282c-0.271,4.195 -0.432,8.243 -0.486,12.141c-0.054,3.901 -0.08,8.028 -0.08,12.384c0,2.421 0.026,4.787 0.08,7.1c0.054,2.312 0.135,4.545 0.243,6.695c-1.077,-0.108 -2.128,-0.161 -3.15,-0.161c-1.024,0 -2.074,0.053 -3.15,0.161c0.052,-0.484 0.093,-0.994 0.12,-1.532c0.027,-0.537 0.041,-1.102 0.041,-1.695l0,-3.468l-0.161,0c-1.402,2.581 -3.205,4.477 -5.414,5.687c-2.208,1.21 -4.604,1.816 -7.189,1.816c-4.201,0 -7.5,-1.117 -9.895,-3.349c-2.397,-2.231 -3.596,-5.446 -3.596,-9.64c0,-2.85 0.041,-5.285 0.122,-7.302" style="fill:#e4d5d3;fill-rule:nonzero;"/><path d="M1056.99,1058.73c-0.781,-0.269 -1.575,-0.404 -2.383,-0.404c-1.292,0 -2.451,0.297 -3.473,0.888c-1.024,0.593 -1.886,1.386 -2.585,2.379c-0.701,0.997 -1.24,2.179 -1.616,3.55c-0.377,1.372 -0.565,2.838 -0.565,4.398l0,8.874c0,3.603 0.012,6.36 0.04,8.269c0.026,1.91 0.121,3.456 0.282,4.638c-1.077,-0.108 -2.154,-0.161 -3.231,-0.161c-1.186,0 -2.316,0.053 -3.392,0.161c0.161,-1.827 0.255,-4.316 0.282,-7.462c0.027,-3.146 0.04,-7.004 0.04,-11.577l0,-2.581c0,-2.098 -0.013,-4.518 -0.04,-7.261c-0.027,-2.743 -0.121,-5.89 -0.282,-9.439c0.592,0.108 1.156,0.202 1.696,0.282c0.537,0.081 1.103,0.121 1.696,0.121c0.485,0 0.997,-0.04 1.535,-0.121c0.537,-0.08 1.103,-0.174 1.696,-0.282c-0.216,1.936 -0.336,3.469 -0.363,4.598c-0.028,1.13 -0.041,2.207 -0.041,3.227l0.162,0.082c3.177,-5.809 6.731,-8.714 10.663,-8.714c0.485,0 0.901,0.028 1.253,0.082c0.349,0.053 0.794,0.188 1.333,0.402c-0.271,0.646 -0.432,1.628 -0.485,2.945c-0.054,1.319 -0.082,2.514 -0.082,3.59l-0.565,0.404c-0.269,-0.323 -0.795,-0.618 -1.575,-0.888" style="fill:#e4d5d3;fill-rule:nonzero;"/><path d="M1094.31,1064.34c-0.62,-1.909 -1.428,-3.51 -2.423,-4.8c-0.999,-1.292 -2.155,-2.272 -3.474,-2.945c-1.321,-0.672 -2.68,-1.008 -4.08,-1.008c-1.669,0 -3.271,0.31 -4.807,0.927c-1.534,0.619 -2.867,1.642 -3.998,3.066c-1.131,1.425 -2.033,3.281 -2.706,5.566c-0.674,2.287 -1.01,5.097 -1.01,8.431c0,10.81 3.931,16.216 11.795,16.216c1.668,0 3.203,-0.444 4.603,-1.331c1.401,-0.888 2.626,-2.165 3.677,-3.832c1.049,-1.667 1.87,-3.658 2.463,-5.971c0.592,-2.311 0.889,-4.893 0.889,-7.744c0,-2.474 -0.31,-4.666 -0.929,-6.575m6.624,15.368c-0.943,2.581 -2.235,4.8 -3.877,6.656c-1.645,1.856 -3.583,3.282 -5.817,4.275c-2.235,0.995 -4.645,1.493 -7.23,1.493c-2.585,0 -4.915,-0.552 -6.988,-1.654c-2.074,-1.101 -3.649,-2.433 -4.725,-3.993c-1.939,1.56 -3.744,3.119 -5.413,4.679l-1.454,0c0.108,-1.291 0.202,-2.85 0.283,-4.679c0.081,-1.828 0.147,-3.778 0.202,-5.849c0.052,-2.07 0.093,-4.182 0.121,-6.333c0.026,-2.15 0.04,-4.141 0.04,-5.97l0,-14.602c0,-1.828 -0.014,-3.818 -0.04,-5.97c-0.028,-2.15 -0.069,-4.275 -0.121,-6.373c-0.055,-2.098 -0.121,-4.101 -0.202,-6.011c-0.081,-1.908 -0.175,-3.535 -0.283,-4.88c1.507,0.27 2.719,0.403 3.635,0.403c0.592,0 1.212,-0.04 1.858,-0.121c0.647,-0.08 1.345,-0.174 2.1,-0.282c-0.161,1.076 -0.296,2.783 -0.404,5.123c-0.108,2.339 -0.188,4.949 -0.241,7.825c-0.055,2.878 -0.11,5.836 -0.162,8.874c-0.055,3.039 -0.109,5.796 -0.162,8.269l0.162,0c1.83,-2.904 3.849,-5.027 6.059,-6.373c2.207,-1.343 4.766,-2.017 7.674,-2.017c2.799,0 5.223,0.525 7.27,1.573c2.046,1.05 3.743,2.434 5.089,4.155c1.347,1.722 2.356,3.725 3.03,6.011c0.672,2.286 1.01,4.693 1.01,7.22c0,3.119 -0.473,5.97 -1.414,8.551" style="fill:#e4d5d3;fill-rule:nonzero;"/><path d="M1129.39,1072.04c-1.206,0.216 -2.426,0.444 -3.658,0.686c-1.233,0.242 -2.453,0.553 -3.657,0.928c-1.207,0.377 -2.279,0.887 -3.217,1.532c-0.937,0.646 -1.687,1.453 -2.25,2.421c-0.563,0.968 -0.845,2.206 -0.845,3.711c0,2.528 0.724,4.437 2.17,5.728c1.447,1.29 3.055,1.936 4.825,1.936c2.037,0 3.898,-0.565 5.587,-1.694c1.688,-1.13 2.987,-2.447 3.899,-3.954l0.323,-12.1c-0.913,0.322 -1.971,0.592 -3.177,0.806m-10.072,-18.877c2.045,-0.646 4.145,-0.969 6.301,-0.969c1.939,0 3.717,0.283 5.336,0.848c1.619,0.564 3.002,1.37 4.149,2.42c1.145,1.049 2.045,2.313 2.701,3.791c0.652,1.48 0.981,3.106 0.981,4.881c0,3.066 -0.054,6.118 -0.161,9.157c-0.109,3.039 -0.162,6.252 -0.162,9.64c0,0.646 0.013,1.331 0.041,2.057c0.026,0.727 0.147,1.372 0.363,1.936c0.215,0.566 0.525,1.037 0.929,1.412c0.404,0.377 1.01,0.565 1.818,0.565c0.269,0 0.551,-0.013 0.848,-0.04c0.295,-0.027 0.578,-0.121 0.848,-0.283l0,1.775c-0.593,0.27 -1.332,0.485 -2.221,0.645c-0.889,0.162 -1.872,0.243 -2.949,0.243c-1.749,0 -3.088,-0.444 -4.017,-1.332c-0.928,-0.887 -1.474,-2.029 -1.638,-3.428c-1.932,1.936 -3.839,3.362 -5.716,4.276c-1.878,0.914 -4.185,1.371 -6.922,1.371c-1.343,0 -2.659,-0.189 -3.946,-0.565c-1.288,-0.376 -2.428,-0.993 -3.421,-1.855c-0.993,-0.861 -1.798,-1.896 -2.415,-3.106c-0.618,-1.21 -0.926,-2.594 -0.926,-4.155c0,-3.226 1.007,-5.727 3.019,-7.503c2.012,-1.774 4.791,-2.957 8.332,-3.55c2.899,-0.483 5.165,-0.899 6.803,-1.249c1.637,-0.35 2.845,-0.713 3.622,-1.09c0.778,-0.376 1.247,-0.82 1.409,-1.331c0.161,-0.51 0.243,-1.17 0.243,-1.976c0,-1.344 -0.163,-2.635 -0.486,-3.873c-0.323,-1.236 -0.835,-2.311 -1.535,-3.227c-0.699,-0.913 -1.615,-1.654 -2.746,-2.218c-1.131,-0.565 -2.504,-0.847 -4.119,-0.847c-2.156,0 -4.162,0.484 -6.019,1.452c-1.858,0.968 -3.246,2.313 -4.16,4.034l-0.889,0l0,-4.195c2.424,-1.829 4.657,-3.066 6.705,-3.711" style="fill:#e4d5d3;fill-rule:nonzero;"/><path d="M1176.27,1059.5c-1.562,-2.07 -3.717,-3.105 -6.462,-3.105c-3.771,0 -6.531,1.156 -8.281,3.468c-1.751,2.313 -2.625,5.567 -2.625,9.762l0,6.857c0,2.42 0.04,4.961 0.12,7.623c0.082,2.663 0.256,5.071 0.526,7.221c-1.239,-0.108 -2.452,-0.161 -3.635,-0.161c-1.185,0 -2.397,0.053 -3.635,0.161c0.269,-2.15 0.445,-4.558 0.524,-7.221c0.081,-2.662 0.122,-5.203 0.122,-7.623l0,-8.39c0,-2.42 -0.041,-4.961 -0.122,-7.623c-0.079,-2.663 -0.255,-5.15 -0.524,-7.463c1.507,0.27 2.719,0.404 3.635,0.404c0.431,0 0.901,-0.041 1.414,-0.122c0.511,-0.08 1.116,-0.174 1.818,-0.282c-0.162,2.152 -0.243,4.304 -0.243,6.454l0.162,0c1.511,-2.312 3.322,-4.101 5.428,-5.365c2.107,-1.263 4.619,-1.896 7.537,-1.896c1.513,0 3.038,0.216 4.578,0.645c1.54,0.432 2.931,1.17 4.173,2.219c1.241,1.049 2.256,2.475 3.04,4.276c0.783,1.803 1.174,4.102 1.174,6.898c0,2.312 -0.054,4.693 -0.161,7.139c-0.109,2.448 -0.162,5.043 -0.162,7.785l0,5.245c0,0.861 0.014,1.707 0.04,2.541c0.027,0.834 0.068,1.628 0.122,2.379c-1.09,-0.108 -2.234,-0.161 -3.434,-0.161c-1.145,0 -2.262,0.053 -3.352,0.161c0.108,-2.796 0.229,-5.673 0.364,-8.632c0.133,-2.957 0.202,-5.997 0.202,-9.116l0,-4.921c0,-4.033 -0.781,-7.085 -2.343,-9.157" style="fill:#e4d5d3;fill-rule:nonzero;"/><path d="M1201.59,1078.82c0.404,2.097 1.091,3.967 2.06,5.607c0.969,1.641 2.26,2.944 3.877,3.912c1.616,0.968 3.607,1.453 5.977,1.453c2.37,0 4.364,-0.485 5.979,-1.453c1.615,-0.968 2.908,-2.271 3.877,-3.912c0.97,-1.64 1.657,-3.51 2.061,-5.607c0.404,-2.098 0.605,-4.276 0.605,-6.535c0,-2.259 -0.201,-4.437 -0.605,-6.534c-0.404,-2.098 -1.091,-3.967 -2.061,-5.608c-0.969,-1.639 -2.262,-2.944 -3.877,-3.912c-1.615,-0.968 -3.609,-1.452 -5.979,-1.452c-2.37,0 -4.361,0.484 -5.977,1.452c-1.617,0.968 -2.908,2.273 -3.877,3.912c-0.969,1.641 -1.656,3.51 -2.06,5.608c-0.404,2.097 -0.606,4.275 -0.606,6.534c0,2.259 0.202,4.437 0.606,6.535m-5.978,-15.853c1.158,-2.554 2.678,-4.625 4.564,-6.212c1.885,-1.585 3.999,-2.743 6.341,-3.468c2.343,-0.726 4.672,-1.09 6.987,-1.09c2.37,0 4.713,0.364 7.028,1.09c2.315,0.725 4.416,1.883 6.302,3.468c1.884,1.587 3.406,3.658 4.564,6.212c1.157,2.556 1.737,5.662 1.737,9.318c0,3.658 -0.58,6.764 -1.737,9.318c-1.158,2.556 -2.68,4.626 -4.564,6.212c-1.886,1.587 -3.987,2.702 -6.302,3.348c-2.315,0.645 -4.658,0.969 -7.028,0.969c-2.315,0 -4.644,-0.324 -6.987,-0.969c-2.342,-0.646 -4.456,-1.761 -6.341,-3.348c-1.886,-1.586 -3.406,-3.656 -4.564,-6.212c-1.158,-2.554 -1.737,-5.66 -1.737,-9.318c0,-3.656 0.579,-6.762 1.737,-9.318" style="fill:#e4d5d3;fill-rule:nonzero;"/><path d="M626.541,1068.73c-0.061,-1.544 -0.128,-3.118 -0.201,-4.721c0.317,0.049 0.621,0.09 0.913,0.128c0.292,0.035 0.582,0.055 0.874,0.055c0.292,0 0.584,-0.02 0.876,-0.055c0.292,-0.038 0.594,-0.079 0.911,-0.128c-0.073,1.603 -0.14,3.177 -0.199,4.721c-0.063,1.544 -0.093,3.118 -0.093,4.722c0,3.062 0.012,5.719 0.036,7.967c0.025,2.248 0.049,4.26 0.073,6.034c1.726,0 3.379,-0.018 4.959,-0.055c1.581,-0.036 3.283,-0.176 5.106,-0.419c-0.123,0.438 -0.183,0.802 -0.183,1.094c0,0.267 0.06,0.595 0.183,0.984c-1.119,-0.048 -2.237,-0.073 -3.356,-0.073l-3.354,0l-3.371,0c-1.083,0 -2.208,0.025 -3.375,0.073c0.073,-1.507 0.14,-3.038 0.201,-4.593c0.061,-1.556 0.091,-3.137 0.091,-4.741l0,-6.271c0,-1.604 -0.03,-3.178 -0.091,-4.722" style="fill:#ebebeb;fill-rule:nonzero;"/><path d="M651.962,1080.34c-0.544,0.098 -1.095,0.201 -1.651,0.311c-0.557,0.109 -1.107,0.249 -1.651,0.419c-0.545,0.171 -1.028,0.402 -1.451,0.694c-0.424,0.292 -0.763,0.655 -1.016,1.093c-0.254,0.436 -0.381,0.997 -0.381,1.677c0,1.144 0.325,2.006 0.979,2.59c0.652,0.584 1.379,0.874 2.177,0.874c0.92,0 1.761,-0.255 2.523,-0.766c0.762,-0.51 1.349,-1.104 1.759,-1.787l0.146,-5.468c-0.412,0.145 -0.889,0.266 -1.434,0.363m-4.546,-8.53c0.923,-0.293 1.872,-0.438 2.843,-0.438c0.876,0 1.679,0.128 2.409,0.383c0.731,0.254 1.355,0.619 1.873,1.092c0.517,0.476 0.923,1.046 1.218,1.714c0.297,0.67 0.444,1.405 0.444,2.206c0,1.385 -0.024,2.766 -0.073,4.139c-0.049,1.373 -0.073,2.825 -0.073,4.356c0,0.294 0.006,0.604 0.018,0.933c0.012,0.327 0.067,0.618 0.165,0.874c0.097,0.255 0.237,0.467 0.419,0.639c0.183,0.168 0.456,0.253 0.82,0.253c0.121,0 0.249,-0.004 0.383,-0.018c0.134,-0.012 0.261,-0.055 0.383,-0.128l0,0.802c-0.267,0.123 -0.602,0.22 -1.002,0.293c-0.401,0.073 -0.845,0.11 -1.332,0.11c-0.789,0 -1.393,-0.201 -1.812,-0.604c-0.42,-0.4 -0.666,-0.915 -0.741,-1.548c-0.871,0.875 -1.732,1.519 -2.579,1.931c-0.848,0.414 -1.89,0.622 -3.125,0.622c-0.606,0 -1.199,-0.086 -1.78,-0.255c-0.581,-0.172 -1.096,-0.45 -1.545,-0.84c-0.447,-0.389 -0.812,-0.857 -1.09,-1.403c-0.278,-0.547 -0.417,-1.172 -0.417,-1.878c0,-1.458 0.453,-2.588 1.363,-3.392c0.907,-0.802 2.162,-1.337 3.76,-1.603c1.308,-0.219 2.331,-0.407 3.07,-0.567c0.739,-0.157 1.285,-0.319 1.636,-0.491c0.351,-0.169 0.563,-0.37 0.636,-0.601c0.071,-0.233 0.109,-0.529 0.109,-0.894c0,-0.608 -0.073,-1.191 -0.219,-1.75c-0.146,-0.56 -0.377,-1.045 -0.693,-1.458c-0.317,-0.414 -0.729,-0.748 -1.239,-1.004c-0.511,-0.255 -1.13,-0.383 -1.86,-0.383c-0.973,0 -1.878,0.22 -2.717,0.657c-0.838,0.438 -1.465,1.046 -1.877,1.823l-0.401,0l0,-1.896c1.093,-0.826 2.101,-1.385 3.026,-1.676" style="fill:#ebebeb;fill-rule:nonzero;"/><path d="M673.14,1068.68c-0.061,-1.556 -0.128,-3.111 -0.201,-4.667c1.094,0.049 2.182,0.09 3.263,0.128c1.083,0.035 2.17,0.054 3.265,0.054c1.093,0 2.174,-0.019 3.243,-0.054c1.071,-0.038 2.153,-0.079 3.247,-0.128c-0.073,0.363 -0.11,0.728 -0.11,1.092c0,0.366 0.037,0.731 0.11,1.095c-0.779,-0.049 -1.49,-0.096 -2.134,-0.146c-0.644,-0.049 -1.326,-0.096 -2.042,-0.145c-0.716,-0.049 -1.5,-0.093 -2.35,-0.128c-0.852,-0.038 -1.874,-0.054 -3.064,-0.054c-0.025,0.777 -0.054,1.519 -0.09,2.224c-0.038,0.704 -0.056,1.507 -0.056,2.406c0,0.949 0.006,1.872 0.018,2.772c0.012,0.898 0.018,1.58 0.018,2.042c1.069,0 2.03,-0.012 2.882,-0.038c0.85,-0.023 1.628,-0.055 2.332,-0.091c0.706,-0.037 1.355,-0.072 1.951,-0.11c0.596,-0.036 1.16,-0.077 1.697,-0.128c-0.073,0.367 -0.111,0.744 -0.111,1.13c0,0.367 0.038,0.73 0.111,1.095c-0.633,-0.073 -1.369,-0.134 -2.206,-0.183c-0.84,-0.047 -1.679,-0.079 -2.517,-0.089c-0.839,-0.012 -1.628,-0.025 -2.37,-0.038c-0.741,-0.012 -1.331,-0.019 -1.769,-0.019c0,0.219 -0.006,0.457 -0.018,0.712c-0.012,0.256 -0.018,0.578 -0.018,0.966l0,3.609c0,1.387 0.006,2.529 0.018,3.429c0.012,0.899 0.03,1.58 0.055,2.042l2.553,0c0.923,0 1.829,-0.019 2.715,-0.056c0.888,-0.036 1.726,-0.084 2.517,-0.144c0.789,-0.061 1.476,-0.152 2.06,-0.276c-0.048,0.171 -0.079,0.359 -0.091,0.566c-0.014,0.207 -0.018,0.395 -0.018,0.566c0,0.389 0.036,0.705 0.109,0.947c-1.093,-0.049 -2.182,-0.073 -3.264,-0.073l-3.3,0l-3.318,0c-1.093,0 -2.2,0.024 -3.318,0.073c0.073,-1.554 0.14,-3.105 0.201,-4.648c0.061,-1.544 0.091,-3.117 0.091,-4.723l0,-6.271c0,-1.603 -0.03,-3.184 -0.091,-4.739" style="fill:#ebebeb;fill-rule:nonzero;"/><path d="M691.043,1086.47c0.255,0.291 0.56,0.564 0.912,0.82c0.352,0.255 0.753,0.47 1.203,0.638c0.449,0.171 0.929,0.256 1.44,0.256c0.462,0 0.905,-0.073 1.331,-0.221c0.425,-0.144 0.802,-0.351 1.129,-0.618c0.329,-0.268 0.59,-0.607 0.785,-1.022c0.195,-0.412 0.292,-0.887 0.292,-1.42c0,-0.753 -0.213,-1.331 -0.637,-1.734c-0.428,-0.401 -0.955,-0.728 -1.588,-0.984c-0.632,-0.254 -1.326,-0.48 -2.078,-0.675c-0.753,-0.194 -1.446,-0.467 -2.077,-0.819c-0.633,-0.352 -1.162,-0.821 -1.588,-1.405c-0.424,-0.583 -0.637,-1.386 -0.637,-2.406c0,-0.803 0.134,-1.536 0.4,-2.206c0.268,-0.668 0.657,-1.246 1.168,-1.731c0.509,-0.488 1.142,-0.869 1.896,-1.149c0.753,-0.28 1.616,-0.42 2.588,-0.42c0.9,0 1.66,0.122 2.279,0.364c0.621,0.244 1.209,0.463 1.769,0.656c-0.195,0.365 -0.378,0.815 -0.548,1.351c-0.17,0.533 -0.278,0.947 -0.327,1.239l-0.438,0c-0.194,-0.582 -0.571,-1.105 -1.131,-1.568c-0.558,-0.462 -1.251,-0.693 -2.077,-0.693c-0.365,0 -0.73,0.061 -1.095,0.182c-0.365,0.122 -0.693,0.304 -0.984,0.548c-0.292,0.243 -0.535,0.559 -0.73,0.949c-0.194,0.387 -0.291,0.85 -0.291,1.385c0,0.777 0.212,1.379 0.638,1.805c0.424,0.424 0.954,0.758 1.586,1.002c0.633,0.243 1.325,0.456 2.079,0.638c0.752,0.181 1.446,0.437 2.078,0.765c0.631,0.329 1.16,0.785 1.586,1.369c0.424,0.582 0.637,1.385 0.637,2.407c0,0.704 -0.15,1.397 -0.454,2.077c-0.304,0.681 -0.742,1.294 -1.313,1.841c-0.571,0.548 -1.259,0.972 -2.06,1.277c-0.803,0.303 -1.714,0.455 -2.734,0.455c-1.119,0 -2.056,-0.109 -2.808,-0.327c-0.754,-0.22 -1.386,-0.476 -1.896,-0.766c0.146,-0.316 0.296,-0.748 0.454,-1.296c0.158,-0.546 0.239,-1.002 0.239,-1.367l0.436,0c0.122,0.244 0.311,0.511 0.566,0.803" style="fill:#ebebeb;fill-rule:nonzero;"/><path d="M708.161,1066.85c-0.073,0.923 -0.126,1.829 -0.164,2.716c-0.037,0.888 -0.079,1.782 -0.126,2.681c0.266,0 0.764,-0.007 1.494,-0.019c0.729,-0.012 1.518,-0.041 2.369,-0.089c-0.024,0.071 -0.036,0.205 -0.036,0.4l0,0.764c0,0.171 0.012,0.294 0.036,0.365c-0.316,-0.023 -0.644,-0.042 -0.983,-0.054c-0.341,-0.013 -0.706,-0.017 -1.095,-0.017l-1.785,0c-0.026,0.096 -0.057,0.485 -0.093,1.166c-0.035,0.68 -0.067,1.489 -0.091,2.424c-0.025,0.936 -0.043,1.916 -0.055,2.936c-0.012,1.02 -0.017,1.933 -0.017,2.734c0,0.681 0.017,1.349 0.053,2.006c0.038,0.655 0.152,1.245 0.347,1.768c0.195,0.523 0.487,0.943 0.876,1.257c0.388,0.317 0.947,0.475 1.677,0.475c0.193,0 0.456,-0.024 0.785,-0.073c0.327,-0.049 0.612,-0.11 0.856,-0.183l0,0.876c-0.414,0.073 -0.87,0.163 -1.367,0.272c-0.499,0.111 -0.979,0.166 -1.442,0.166c-1.529,0 -2.661,-0.377 -3.391,-1.131c-0.728,-0.754 -1.093,-1.86 -1.093,-3.318c0,-0.657 0.012,-1.367 0.037,-2.133c0.024,-0.765 0.054,-1.604 0.091,-2.517c0.036,-0.911 0.067,-1.919 0.091,-3.026c0.023,-1.105 0.037,-2.338 0.037,-3.699l-1.167,0c-0.196,0 -0.401,0.004 -0.62,0.017c-0.219,0.012 -0.45,0.031 -0.693,0.054c0.024,-0.144 0.042,-0.284 0.054,-0.419c0.013,-0.133 0.019,-0.274 0.019,-0.419c0,-0.121 -0.006,-0.243 -0.019,-0.364c-0.012,-0.122 -0.03,-0.244 -0.054,-0.365c1.093,0.073 1.896,0.109 2.407,0.109c-0.025,-0.487 -0.043,-1.093 -0.055,-1.823c-0.012,-0.728 -0.043,-1.481 -0.091,-2.261l3.026,-1.276l0.182,0Z" style="fill:#ebebeb;fill-rule:nonzero;"/><path d="M722.881,1080.34c-0.544,0.098 -1.095,0.201 -1.651,0.311c-0.557,0.109 -1.107,0.249 -1.652,0.419c-0.544,0.171 -1.028,0.402 -1.45,0.694c-0.425,0.292 -0.762,0.655 -1.016,1.093c-0.254,0.436 -0.382,0.997 -0.382,1.677c0,1.144 0.326,2.006 0.98,2.59c0.652,0.584 1.379,0.874 2.177,0.874c0.92,0 1.759,-0.255 2.523,-0.766c0.761,-0.51 1.348,-1.104 1.759,-1.787l0.146,-5.468c-0.412,0.145 -0.89,0.266 -1.434,0.363m-4.547,-8.53c0.923,-0.293 1.872,-0.438 2.844,-0.438c0.876,0 1.679,0.128 2.408,0.383c0.732,0.254 1.355,0.619 1.874,1.092c0.517,0.476 0.923,1.046 1.219,1.714c0.295,0.67 0.443,1.405 0.443,2.206c0,1.385 -0.025,2.766 -0.073,4.139c-0.049,1.373 -0.073,2.825 -0.073,4.356c0,0.294 0.006,0.604 0.018,0.933c0.012,0.327 0.067,0.618 0.164,0.874c0.098,0.255 0.237,0.467 0.42,0.639c0.182,0.168 0.456,0.253 0.819,0.253c0.122,0 0.25,-0.004 0.384,-0.018c0.133,-0.012 0.261,-0.055 0.383,-0.128l0,0.802c-0.268,0.123 -0.602,0.22 -1.002,0.293c-0.402,0.073 -0.846,0.11 -1.332,0.11c-0.789,0 -1.393,-0.201 -1.813,-0.604c-0.419,-0.4 -0.666,-0.915 -0.74,-1.548c-0.871,0.875 -1.732,1.519 -2.579,1.931c-0.849,0.414 -1.89,0.622 -3.125,0.622c-0.605,0 -1.2,-0.086 -1.78,-0.255c-0.581,-0.172 -1.097,-0.45 -1.545,-0.84c-0.447,-0.389 -0.812,-0.857 -1.09,-1.403c-0.279,-0.547 -0.417,-1.172 -0.417,-1.878c0,-1.458 0.453,-2.588 1.362,-3.392c0.908,-0.802 2.163,-1.337 3.761,-1.603c1.307,-0.219 2.331,-0.407 3.07,-0.567c0.739,-0.157 1.284,-0.319 1.636,-0.491c0.351,-0.169 0.562,-0.37 0.635,-0.601c0.072,-0.233 0.11,-0.529 0.11,-0.894c0,-0.608 -0.073,-1.191 -0.219,-1.75c-0.146,-0.56 -0.377,-1.045 -0.694,-1.458c-0.316,-0.414 -0.728,-0.748 -1.239,-1.004c-0.511,-0.255 -1.13,-0.383 -1.859,-0.383c-0.972,0 -1.878,0.22 -2.716,0.657c-0.839,0.438 -1.466,1.046 -1.878,1.823l-0.401,0l0,-1.896c1.093,-0.826 2.101,-1.385 3.025,-1.676" style="fill:#ebebeb;fill-rule:nonzero;"/><path d="M733.229,1075.11c-0.036,-1.204 -0.115,-2.328 -0.237,-3.374c0.68,0.123 1.227,0.183 1.641,0.183c0.194,0 0.407,-0.017 0.638,-0.055c0.232,-0.035 0.504,-0.079 0.82,-0.128c-0.073,0.973 -0.109,1.946 -0.109,2.918l0.073,0c1.284,-2.187 3.089,-3.281 5.416,-3.281c0.605,0 1.199,0.091 1.78,0.273c0.583,0.183 1.109,0.432 1.582,0.747c0.473,0.316 0.879,0.699 1.218,1.149c0.339,0.451 0.57,0.93 0.69,1.44l0.073,0c0.585,-1.167 1.384,-2.06 2.395,-2.68c1.012,-0.619 2.176,-0.929 3.493,-0.929c0.804,0 1.549,0.109 2.23,0.328c0.683,0.218 1.274,0.56 1.775,1.02c0.498,0.463 0.889,1.059 1.169,1.787c0.28,0.73 0.421,1.604 0.421,2.626c0,0.412 -0.014,0.862 -0.036,1.349c-0.025,0.486 -0.049,1.05 -0.073,1.695c-0.025,0.645 -0.049,1.373 -0.073,2.187c-0.025,0.816 -0.037,1.757 -0.037,2.826c0,0.656 0.006,1.288 0.018,1.897c0.013,0.608 0.043,1.265 0.092,1.969c-0.268,-0.049 -0.536,-0.073 -0.803,-0.073l-0.765,0l-0.803,0c-0.267,0 -0.535,0.024 -0.801,0.073c0.071,-0.609 0.15,-1.836 0.235,-3.683c0.086,-1.848 0.128,-4.423 0.128,-7.731c0,-0.606 -0.067,-1.177 -0.201,-1.713c-0.133,-0.535 -0.348,-0.996 -0.641,-1.385c-0.292,-0.388 -0.683,-0.698 -1.171,-0.93c-0.49,-0.231 -1.099,-0.346 -1.831,-0.346c-0.879,0 -1.624,0.169 -2.233,0.511c-0.612,0.34 -1.088,0.74 -1.43,1.202c-0.196,0.268 -0.348,0.536 -0.457,0.802c-0.11,0.267 -0.195,0.675 -0.256,1.222c-0.061,0.546 -0.105,1.313 -0.129,2.298c-0.024,0.984 -0.037,2.338 -0.037,4.066c0,1.044 0.019,1.998 0.055,2.86c0.037,0.864 0.079,1.806 0.128,2.827c-0.552,-0.049 -1.081,-0.073 -1.586,-0.073c-0.505,0 -1.034,0.024 -1.586,0.073c0.108,-1.337 0.182,-2.699 0.227,-4.085c0.044,-1.385 0.065,-2.746 0.065,-4.082c0,-1.142 -0.008,-2.036 -0.018,-2.681c-0.014,-0.645 -0.043,-1.154 -0.092,-1.531c-0.048,-0.377 -0.115,-0.687 -0.199,-0.931c-0.085,-0.241 -0.2,-0.509 -0.345,-0.801c-0.266,-0.461 -0.684,-0.858 -1.253,-1.186c-0.569,-0.329 -1.155,-0.491 -1.761,-0.491c-1.596,0 -2.77,0.523 -3.521,1.567c-0.75,1.047 -1.125,2.517 -1.125,4.413l0,3.099c0,1.093 0.018,2.241 0.054,3.444c0.038,1.204 0.116,2.293 0.237,3.265c-0.559,-0.049 -1.106,-0.073 -1.64,-0.073c-0.535,0 -1.083,0.024 -1.641,0.073c0.122,-0.972 0.201,-2.061 0.237,-3.265c0.037,-1.203 0.055,-2.351 0.055,-3.444l0,-3.792c0,-1.094 -0.018,-2.243 -0.055,-3.446" style="fill:#ebebeb;fill-rule:nonzero;"/><path d="M775.89,1076.7c-0.304,-0.949 -0.693,-1.707 -1.166,-2.279c-0.475,-0.57 -1.016,-0.966 -1.623,-1.185c-0.608,-0.219 -1.202,-0.328 -1.786,-0.328c-0.973,0 -1.805,0.207 -2.499,0.62c-0.691,0.414 -1.257,0.966 -1.695,1.659c-0.438,0.692 -0.754,1.507 -0.949,2.442c-0.193,0.937 -0.292,1.928 -0.292,2.971c0,5.058 1.776,7.586 5.325,7.586c0.875,0 1.635,-0.2 2.278,-0.602c0.645,-0.4 1.178,-0.961 1.606,-1.677c0.424,-0.718 0.74,-1.555 0.947,-2.516c0.207,-0.961 0.31,-1.986 0.31,-3.081c0,-1.458 -0.152,-2.663 -0.456,-3.61m-12.725,2.953c-0.013,-0.972 -0.031,-1.937 -0.055,-2.898c-0.024,-0.961 -0.055,-1.878 -0.091,-2.754c-0.037,-0.874 -0.079,-1.628 -0.128,-2.261c0.68,0.123 1.227,0.183 1.641,0.183c0.413,0 0.961,-0.06 1.64,-0.183c-0.096,0.633 -0.169,1.241 -0.217,1.823c-0.049,0.584 -0.075,1.168 -0.075,1.752l0.075,0c0.169,-0.389 0.412,-0.808 0.728,-1.258c0.316,-0.45 0.724,-0.875 1.223,-1.277c0.497,-0.401 1.099,-0.736 1.805,-1.002c0.704,-0.268 1.506,-0.401 2.405,-0.401c0.925,0 1.835,0.176 2.734,0.529c0.9,0.351 1.697,0.892 2.389,1.622c0.693,0.729 1.251,1.659 1.677,2.789c0.426,1.13 0.639,2.474 0.639,4.028c0,1.557 -0.232,2.907 -0.692,4.048c-0.464,1.143 -1.065,2.09 -1.805,2.845c-0.742,0.754 -1.588,1.307 -2.535,1.658c-0.947,0.353 -1.896,0.53 -2.845,0.53c-2.673,0 -4.581,-1.156 -5.723,-3.464l-0.075,0l0,2.297c0,0.777 0.006,1.646 0.02,2.607c0.012,0.959 0.03,1.914 0.055,2.861c0.024,0.949 0.053,1.854 0.09,2.717c0.036,0.863 0.079,1.599 0.127,2.207c-0.679,-0.123 -1.227,-0.184 -1.64,-0.184c-0.414,0 -0.961,0.061 -1.641,0.184c0.049,-0.608 0.091,-1.344 0.128,-2.207c0.036,-0.863 0.067,-1.768 0.091,-2.717c0.024,-0.947 0.042,-1.902 0.055,-2.861c0.012,-0.961 0.018,-1.83 0.018,-2.607l0,-5.907c0,-0.826 -0.006,-1.726 -0.018,-2.699" style="fill:#ebebeb;fill-rule:nonzero;"/><path d="M788.506,1073.16c-0.62,0.414 -1.13,0.929 -1.531,1.551c-0.402,0.619 -0.706,1.3 -0.911,2.041c-0.208,0.742 -0.336,1.441 -0.383,2.096c0.752,0.025 1.536,0.049 2.351,0.073c0.815,0.025 1.61,0.037 2.388,0.037c0.803,0 1.617,-0.012 2.444,-0.037c0.826,-0.024 1.627,-0.048 2.405,-0.073c0,-0.655 -0.054,-1.348 -0.164,-2.078c-0.108,-0.729 -0.328,-1.41 -0.655,-2.042c-0.329,-0.633 -0.785,-1.154 -1.369,-1.568c-0.584,-0.412 -1.348,-0.619 -2.296,-0.619c-0.9,0 -1.659,0.207 -2.279,0.619m-4.011,0.766c1.421,-1.701 3.494,-2.553 6.217,-2.553c1.288,0 2.4,0.201 3.336,0.602c0.935,0.4 1.72,0.936 2.351,1.603c0.633,0.671 1.101,1.454 1.405,2.352c0.303,0.901 0.456,1.862 0.456,2.882c0,0.243 -0.007,0.48 -0.019,0.711c-0.013,0.232 -0.031,0.467 -0.054,0.711c-1.313,-0.023 -2.614,-0.049 -3.901,-0.073c-1.29,-0.023 -2.59,-0.037 -3.902,-0.037c-0.803,0 -1.598,0.014 -2.389,0.037c-0.789,0.024 -1.586,0.05 -2.387,0.073c-0.025,0.121 -0.037,0.304 -0.037,0.547l0,0.473c0,0.949 0.14,1.837 0.418,2.662c0.28,0.828 0.688,1.538 1.223,2.134c0.534,0.596 1.191,1.07 1.968,1.421c0.778,0.352 1.678,0.53 2.699,0.53c0.486,0 0.985,-0.067 1.494,-0.201c0.511,-0.134 1.008,-0.316 1.496,-0.548c0.486,-0.231 0.942,-0.504 1.366,-0.819c0.426,-0.316 0.797,-0.657 1.113,-1.02l0.182,0.108l-0.219,1.786c-0.729,0.584 -1.634,1.083 -2.717,1.495c-1.081,0.413 -2.205,0.62 -3.371,0.62c-1.314,0 -2.51,-0.2 -3.593,-0.6c-1.081,-0.403 -2.018,-0.986 -2.807,-1.752c-0.791,-0.765 -1.397,-1.67 -1.823,-2.716c-0.426,-1.044 -0.639,-2.174 -0.639,-3.391c0,-2.99 0.712,-5.335 2.134,-7.037" style="fill:#ebebeb;fill-rule:nonzero;"/><path d="M809.727,1074.33c-0.353,-0.121 -0.712,-0.182 -1.077,-0.182c-0.582,0 -1.105,0.134 -1.567,0.401c-0.463,0.268 -0.85,0.627 -1.167,1.077c-0.316,0.448 -0.559,0.983 -0.728,1.602c-0.172,0.619 -0.255,1.284 -0.255,1.988l0,4.011c0,1.628 0.006,2.874 0.018,3.737c0.012,0.863 0.055,1.562 0.126,2.097c-0.487,-0.05 -0.972,-0.073 -1.458,-0.073c-0.535,0 -1.045,0.023 -1.531,0.073c0.073,-0.825 0.115,-1.952 0.127,-3.372c0.013,-1.424 0.019,-3.166 0.019,-5.234l0,-1.166c0,-0.948 -0.006,-2.042 -0.019,-3.282c-0.012,-1.239 -0.054,-2.661 -0.127,-4.266c0.267,0.048 0.523,0.091 0.766,0.127c0.243,0.037 0.497,0.055 0.765,0.055c0.219,0 0.45,-0.018 0.693,-0.055c0.244,-0.036 0.499,-0.079 0.765,-0.127c-0.097,0.875 -0.15,1.567 -0.164,2.078c-0.011,0.511 -0.017,0.998 -0.017,1.458l0.073,0.037c1.432,-2.625 3.038,-3.937 4.813,-3.937c0.219,0 0.407,0.011 0.565,0.035c0.157,0.026 0.358,0.087 0.601,0.183c-0.122,0.293 -0.195,0.737 -0.219,1.33c-0.024,0.598 -0.037,1.138 -0.037,1.624l-0.253,0.183c-0.124,-0.146 -0.361,-0.28 -0.712,-0.402" style="fill:#ebebeb;fill-rule:nonzero;"/><path d="M815.123,1075.11c-0.036,-1.204 -0.116,-2.328 -0.237,-3.374c0.68,0.123 1.227,0.183 1.641,0.183c0.413,0 0.959,-0.06 1.64,-0.183c-0.121,1.046 -0.201,2.17 -0.237,3.374c-0.037,1.203 -0.055,2.352 -0.055,3.446l0,3.792c0,1.093 0.018,2.241 0.055,3.444c0.036,1.204 0.116,2.293 0.237,3.265c-0.559,-0.049 -1.107,-0.073 -1.64,-0.073c-0.536,0 -1.083,0.024 -1.641,0.073c0.121,-0.972 0.201,-2.061 0.237,-3.265c0.037,-1.203 0.055,-2.351 0.055,-3.444l0,-3.792c0,-1.094 -0.018,-2.243 -0.055,-3.446m5.924,-12.817c0.243,0 0.505,0.098 0.785,0.292c0.28,0.195 0.419,0.487 0.419,0.875c0,0.438 -0.146,0.784 -0.438,1.038c-0.291,0.256 -0.582,0.482 -0.874,0.677l-5.361,3.427l-1.531,0l5.359,-5.434c0.584,-0.583 1.132,-0.875 1.641,-0.875" style="fill:#ebebeb;fill-rule:nonzero;"/><path d="M832.267,1080.34c-0.544,0.098 -1.095,0.201 -1.651,0.311c-0.557,0.109 -1.107,0.249 -1.652,0.419c-0.544,0.171 -1.027,0.402 -1.452,0.694c-0.422,0.292 -0.76,0.655 -1.014,1.093c-0.254,0.436 -0.382,0.997 -0.382,1.677c0,1.144 0.326,2.006 0.98,2.59c0.652,0.584 1.379,0.874 2.177,0.874c0.92,0 1.759,-0.255 2.523,-0.766c0.762,-0.51 1.348,-1.104 1.759,-1.787l0.146,-5.468c-0.412,0.145 -0.89,0.266 -1.434,0.363m-4.546,-8.53c0.923,-0.293 1.871,-0.438 2.843,-0.438c0.876,0 1.679,0.128 2.409,0.383c0.731,0.254 1.354,0.619 1.873,1.092c0.517,0.476 0.923,1.046 1.219,1.714c0.295,0.67 0.443,1.405 0.443,2.206c0,1.385 -0.024,2.766 -0.073,4.139c-0.049,1.373 -0.073,2.825 -0.073,4.356c0,0.294 0.006,0.604 0.018,0.933c0.012,0.327 0.067,0.618 0.164,0.874c0.098,0.255 0.238,0.467 0.42,0.639c0.183,0.168 0.456,0.253 0.82,0.253c0.121,0 0.249,-0.004 0.383,-0.018c0.134,-0.012 0.261,-0.055 0.383,-0.128l0,0.802c-0.268,0.123 -0.602,0.22 -1.002,0.293c-0.401,0.073 -0.845,0.11 -1.332,0.11c-0.789,0 -1.393,-0.201 -1.813,-0.604c-0.419,-0.4 -0.666,-0.915 -0.74,-1.548c-0.871,0.875 -1.732,1.519 -2.579,1.931c-0.848,0.414 -1.89,0.622 -3.125,0.622c-0.605,0 -1.199,-0.086 -1.78,-0.255c-0.581,-0.172 -1.096,-0.45 -1.545,-0.84c-0.447,-0.389 -0.812,-0.857 -1.09,-1.403c-0.279,-0.547 -0.417,-1.172 -0.417,-1.878c0,-1.458 0.453,-2.588 1.363,-3.392c0.907,-0.802 2.162,-1.337 3.76,-1.603c1.308,-0.219 2.331,-0.407 3.07,-0.567c0.739,-0.157 1.285,-0.319 1.636,-0.491c0.351,-0.169 0.563,-0.37 0.636,-0.601c0.071,-0.233 0.109,-0.529 0.109,-0.894c0,-0.608 -0.073,-1.191 -0.219,-1.75c-0.146,-0.56 -0.377,-1.045 -0.693,-1.458c-0.317,-0.414 -0.729,-0.748 -1.24,-1.004c-0.51,-0.255 -1.129,-0.383 -1.859,-0.383c-0.973,0 -1.878,0.22 -2.716,0.657c-0.839,0.438 -1.466,1.046 -1.878,1.823l-0.401,0l0,-1.896c1.093,-0.826 2.101,-1.385 3.026,-1.676" style="fill:#ebebeb;fill-rule:nonzero;"/><path d="M874.465,1071.36c-0.51,-1.472 -1.221,-2.687 -2.133,-3.646c-0.912,-0.96 -1.981,-1.672 -3.208,-2.134c-1.227,-0.46 -2.559,-0.693 -3.993,-0.693c-1.41,0 -2.73,0.233 -3.957,0.693c-1.227,0.462 -2.297,1.174 -3.208,2.134c-0.911,0.959 -1.622,2.174 -2.133,3.646c-0.51,1.47 -0.765,3.214 -0.765,5.231c0,2.019 0.255,3.763 0.765,5.233c0.511,1.472 1.222,2.686 2.133,3.645c0.911,0.961 1.981,1.673 3.208,2.135c1.227,0.461 2.547,0.692 3.957,0.692c1.434,0 2.766,-0.231 3.993,-0.692c1.227,-0.462 2.296,-1.174 3.208,-2.135c0.912,-0.959 1.623,-2.173 2.133,-3.645c0.511,-1.47 0.765,-3.214 0.765,-5.233c0,-2.017 -0.254,-3.761 -0.765,-5.231m-21.968,-0.292c0.669,-1.616 1.604,-2.983 2.808,-4.103c1.203,-1.117 2.643,-1.969 4.32,-2.551c1.677,-0.584 3.512,-0.876 5.506,-0.876c2.018,0 3.865,0.292 5.542,0.876c1.677,0.582 3.119,1.434 4.322,2.551c1.202,1.12 2.138,2.487 2.807,4.103c0.669,1.616 1.003,3.458 1.003,5.523c0,1.703 -0.231,3.252 -0.693,4.649c-0.462,1.399 -1.113,2.637 -1.951,3.72c-0.839,1.081 -1.848,1.975 -3.026,2.679c-1.18,0.705 -2.498,1.192 -3.956,1.46c1.312,1.044 2.644,2.089 3.992,3.135c1.349,1.045 2.765,2.091 4.247,3.135c-0.632,0.049 -1.216,0.231 -1.75,0.546c-0.535,0.317 -0.898,0.633 -1.093,0.949c-1.338,-1.239 -2.687,-2.468 -4.048,-3.681c-1.361,-1.217 -2.807,-2.444 -4.338,-3.683c-0.122,0.023 -0.306,0.035 -0.547,0.035l-0.511,0c-1.994,0 -3.829,-0.274 -5.506,-0.82c-1.677,-0.545 -3.117,-1.379 -4.32,-2.498c-1.204,-1.117 -2.139,-2.484 -2.808,-4.102c-0.669,-1.615 -1.002,-3.457 -1.002,-5.524c0,-2.065 0.333,-3.907 1.002,-5.523" style="fill:#ebebeb;fill-rule:nonzero;"/><path d="M883.161,1080.25c0.036,-0.912 0.055,-1.816 0.055,-2.716c0,-0.851 -0.006,-1.774 -0.019,-2.77c-0.012,-0.999 -0.03,-2.007 -0.054,-3.029c0.606,0.123 1.117,0.184 1.531,0.184c0.389,0 0.888,-0.061 1.496,-0.184c-0.123,1.46 -0.214,3.058 -0.275,4.796c-0.061,1.738 -0.09,3.518 -0.09,5.341c0,1.264 0.11,2.231 0.329,2.9c0.217,0.668 0.485,1.172 0.801,1.513c0.341,0.389 0.771,0.712 1.294,0.966c0.523,0.255 1.136,0.381 1.841,0.381c1.022,0 1.872,-0.223 2.553,-0.673c0.68,-0.45 1.179,-1.002 1.495,-1.659c0.169,-0.412 0.304,-0.767 0.401,-1.057c0.096,-0.292 0.177,-0.68 0.238,-1.168c0.059,-0.485 0.095,-1.142 0.108,-1.969c0.013,-0.824 0.019,-1.955 0.019,-3.391l0,-3.062c0,-0.534 -0.006,-1.045 -0.019,-1.53c-0.013,-0.488 -0.031,-0.95 -0.054,-1.388c0.266,0.05 0.522,0.093 0.765,0.128c0.243,0.038 0.499,0.056 0.767,0.056c0.266,0 0.521,-0.018 0.764,-0.056c0.244,-0.035 0.487,-0.078 0.73,-0.128c-0.121,1.896 -0.196,3.727 -0.219,5.489c-0.024,1.762 -0.036,3.628 -0.036,5.596c0,1.095 0.012,2.163 0.036,3.21c0.023,1.044 0.061,2.054 0.11,3.026c-0.487,-0.049 -0.961,-0.073 -1.422,-0.073c-0.462,0 -0.937,0.024 -1.422,0.073c0.023,-0.219 0.041,-0.451 0.055,-0.692c0.011,-0.244 0.017,-0.499 0.017,-0.767l0,-1.567l-0.072,0c-0.632,1.166 -1.447,2.023 -2.443,2.569c-0.998,0.548 -2.079,0.821 -3.245,0.821c-1.896,0 -3.386,-0.504 -4.467,-1.513c-1.082,-1.008 -1.623,-2.461 -1.623,-4.357c0,-1.288 0.018,-2.388 0.055,-3.3" style="fill:#ebebeb;fill-rule:nonzero;"/><path d="M904.273,1075.11c-0.037,-1.204 -0.116,-2.328 -0.237,-3.374c0.681,0.123 1.227,0.183 1.64,0.183c0.414,0 0.96,-0.06 1.641,-0.183c-0.122,1.046 -0.201,2.17 -0.237,3.374c-0.037,1.203 -0.055,2.352 -0.055,3.446l0,3.792c0,1.093 0.018,2.241 0.055,3.444c0.036,1.204 0.115,2.293 0.237,3.265c-0.56,-0.049 -1.107,-0.073 -1.641,-0.073c-0.535,0 -1.082,0.024 -1.64,0.073c0.121,-0.972 0.2,-2.061 0.237,-3.265c0.036,-1.203 0.055,-2.351 0.055,-3.444l0,-3.792c0,-1.094 -0.019,-2.243 -0.055,-3.446m0.091,-11.03c0.363,-0.365 0.801,-0.546 1.312,-0.546c0.511,0 0.948,0.181 1.313,0.546c0.364,0.363 0.547,0.801 0.547,1.312c0,0.511 -0.183,0.948 -0.547,1.314c-0.365,0.363 -0.802,0.546 -1.313,0.546c-0.511,0 -0.949,-0.183 -1.312,-0.546c-0.365,-0.366 -0.547,-0.803 -0.547,-1.314c0,-0.511 0.182,-0.949 0.547,-1.312" style="fill:#ebebeb;fill-rule:nonzero;"/><path d="M916.834,1066.85c-0.073,0.923 -0.127,1.829 -0.165,2.716c-0.036,0.888 -0.079,1.782 -0.126,2.681c0.266,0 0.765,-0.007 1.495,-0.019c0.728,-0.012 1.519,-0.041 2.369,-0.089c-0.024,0.071 -0.037,0.205 -0.037,0.4l0,0.764c0,0.171 0.013,0.294 0.037,0.365c-0.316,-0.023 -0.645,-0.042 -0.984,-0.054c-0.34,-0.013 -0.705,-0.017 -1.095,-0.017l-1.785,0c-0.026,0.096 -0.054,0.485 -0.091,1.166c-0.036,0.68 -0.068,1.489 -0.091,2.424c-0.026,0.936 -0.044,1.916 -0.056,2.936c-0.013,1.02 -0.017,1.933 -0.017,2.734c0,0.681 0.017,1.349 0.053,2.006c0.038,0.655 0.152,1.245 0.347,1.768c0.194,0.523 0.486,0.943 0.876,1.257c0.387,0.317 0.947,0.475 1.677,0.475c0.193,0 0.456,-0.024 0.784,-0.073c0.327,-0.049 0.613,-0.11 0.856,-0.183l0,0.876c-0.413,0.073 -0.869,0.163 -1.367,0.272c-0.498,0.111 -0.979,0.166 -1.44,0.166c-1.531,0 -2.662,-0.377 -3.392,-1.131c-0.728,-0.754 -1.093,-1.86 -1.093,-3.318c0,-0.657 0.012,-1.367 0.036,-2.133c0.025,-0.765 0.055,-1.604 0.092,-2.517c0.036,-0.911 0.066,-1.919 0.091,-3.026c0.023,-1.105 0.036,-2.338 0.036,-3.699l-1.166,0c-0.196,0 -0.401,0.004 -0.62,0.017c-0.219,0.012 -0.45,0.031 -0.694,0.054c0.025,-0.144 0.043,-0.284 0.055,-0.419c0.012,-0.133 0.018,-0.274 0.018,-0.419c0,-0.121 -0.006,-0.243 -0.018,-0.364c-0.012,-0.122 -0.03,-0.244 -0.055,-0.365c1.095,0.073 1.896,0.109 2.407,0.109c-0.024,-0.487 -0.042,-1.093 -0.054,-1.823c-0.013,-0.728 -0.043,-1.481 -0.092,-2.261l3.026,-1.276l0.183,0Z" style="fill:#ebebeb;fill-rule:nonzero;"/><path d="M928.301,1073.16c-0.621,0.414 -1.13,0.929 -1.531,1.551c-0.402,0.619 -0.706,1.3 -0.911,2.041c-0.209,0.742 -0.336,1.441 -0.383,2.096c0.752,0.025 1.535,0.049 2.35,0.073c0.815,0.025 1.611,0.037 2.389,0.037c0.803,0 1.616,-0.012 2.444,-0.037c0.825,-0.024 1.628,-0.048 2.405,-0.073c0,-0.655 -0.055,-1.348 -0.164,-2.078c-0.108,-0.729 -0.327,-1.41 -0.655,-2.042c-0.329,-0.633 -0.785,-1.154 -1.369,-1.568c-0.582,-0.412 -1.349,-0.619 -2.296,-0.619c-0.9,0 -1.659,0.207 -2.279,0.619m-4.011,0.766c1.421,-1.701 3.494,-2.553 6.217,-2.553c1.288,0 2.4,0.201 3.336,0.602c0.935,0.4 1.72,0.936 2.351,1.603c0.632,0.671 1.101,1.454 1.405,2.352c0.304,0.901 0.456,1.862 0.456,2.882c0,0.243 -0.007,0.48 -0.02,0.711c-0.012,0.232 -0.03,0.467 -0.053,0.711c-1.314,-0.023 -2.614,-0.049 -3.902,-0.073c-1.289,-0.023 -2.589,-0.037 -3.901,-0.037c-0.802,0 -1.598,0.014 -2.389,0.037c-0.789,0.024 -1.586,0.05 -2.387,0.073c-0.025,0.121 -0.037,0.304 -0.037,0.547l0,0.473c0,0.949 0.14,1.837 0.418,2.662c0.28,0.828 0.688,1.538 1.223,2.134c0.533,0.596 1.19,1.07 1.967,1.421c0.779,0.352 1.679,0.53 2.699,0.53c0.487,0 0.986,-0.067 1.495,-0.201c0.511,-0.134 1.008,-0.316 1.496,-0.548c0.485,-0.231 0.941,-0.504 1.366,-0.819c0.425,-0.316 0.796,-0.657 1.113,-1.02l0.182,0.108l-0.219,1.786c-0.728,0.584 -1.634,1.083 -2.717,1.495c-1.081,0.413 -2.205,0.62 -3.371,0.62c-1.314,0 -2.51,-0.2 -3.593,-0.6c-1.081,-0.403 -2.018,-0.986 -2.807,-1.752c-0.791,-0.765 -1.397,-1.67 -1.823,-2.716c-0.426,-1.044 -0.637,-2.174 -0.637,-3.391c0,-2.99 0.71,-5.335 2.132,-7.037" style="fill:#ebebeb;fill-rule:nonzero;"/><path d="M943.652,1066.38c0.182,-0.438 0.432,-0.839 0.748,-1.202c0.315,-0.365 0.692,-0.663 1.13,-0.895c0.438,-0.229 0.947,-0.345 1.531,-0.345c0.413,0 0.791,0.061 1.13,0.181c0.342,0.123 0.851,0.341 1.532,0.656c0.68,0.342 1.173,0.565 1.477,0.676c0.304,0.108 0.613,0.163 0.929,0.163c0.559,0 1.01,-0.182 1.349,-0.546c0.342,-0.366 0.583,-0.791 0.729,-1.277l1.059,0c-0.05,0.292 -0.146,0.657 -0.292,1.095c-0.146,0.438 -0.371,0.869 -0.675,1.294c-0.304,0.425 -0.698,0.784 -1.185,1.075c-0.486,0.293 -1.093,0.438 -1.823,0.438c-0.341,0 -0.724,-0.061 -1.148,-0.183c-0.426,-0.122 -0.918,-0.339 -1.478,-0.655c-0.632,-0.341 -1.111,-0.567 -1.44,-0.675c-0.328,-0.11 -0.637,-0.165 -0.929,-0.165c-0.56,0 -0.967,0.122 -1.221,0.365c-0.255,0.244 -0.493,0.68 -0.712,1.313l-1.093,0c0.072,-0.438 0.199,-0.876 0.382,-1.313m9.061,8.295c-0.706,-0.935 -1.677,-1.404 -2.917,-1.404c-1.703,0 -2.948,0.524 -3.737,1.57c-0.791,1.044 -1.186,2.515 -1.186,4.411l0,3.099c0,1.094 0.02,2.242 0.055,3.445c0.036,1.205 0.115,2.292 0.237,3.263c-0.558,-0.048 -1.106,-0.073 -1.641,-0.073c-0.534,0 -1.081,0.025 -1.641,0.073c0.122,-0.971 0.201,-2.058 0.238,-3.263c0.036,-1.203 0.054,-2.351 0.054,-3.445l0,-3.793c0,-1.093 -0.018,-2.242 -0.054,-3.445c-0.037,-1.204 -0.116,-2.328 -0.238,-3.374c0.682,0.123 1.227,0.184 1.641,0.184c0.195,0 0.408,-0.019 0.639,-0.057c0.231,-0.034 0.505,-0.077 0.821,-0.127c-0.073,0.973 -0.111,1.946 -0.111,2.918l0.074,0c0.682,-1.045 1.498,-1.852 2.45,-2.424c0.95,-0.572 2.085,-0.858 3.401,-0.858c0.683,0 1.372,0.098 2.067,0.292c0.695,0.195 1.323,0.528 1.884,1.004c0.561,0.473 1.017,1.117 1.371,1.931c0.353,0.815 0.531,1.854 0.531,3.117c0,1.048 -0.024,2.123 -0.073,3.228c-0.049,1.107 -0.073,2.278 -0.073,3.519l0,2.369c0,0.389 0.006,0.772 0.018,1.149c0.012,0.377 0.031,0.735 0.055,1.075c-0.493,-0.048 -1.008,-0.073 -1.549,-0.073c-0.517,0 -1.022,0.025 -1.513,0.073c0.048,-1.263 0.101,-2.563 0.164,-3.9c0.059,-1.336 0.09,-2.711 0.09,-4.121l0,-2.224c0,-1.823 -0.353,-3.204 -1.057,-4.139" style="fill:#ebebeb;fill-rule:nonzero;"/><path d="M970.058,1080.34c-0.545,0.098 -1.095,0.201 -1.652,0.311c-0.556,0.109 -1.107,0.249 -1.651,0.419c-0.544,0.171 -1.028,0.402 -1.451,0.694c-0.424,0.292 -0.763,0.655 -1.015,1.093c-0.256,0.436 -0.382,0.997 -0.382,1.677c0,1.144 0.325,2.006 0.979,2.59c0.652,0.584 1.379,0.874 2.178,0.874c0.92,0 1.759,-0.255 2.522,-0.766c0.762,-0.51 1.349,-1.104 1.759,-1.787l0.146,-5.468c-0.412,0.145 -0.889,0.266 -1.433,0.363m-4.547,-8.53c0.923,-0.293 1.872,-0.438 2.844,-0.438c0.875,0 1.678,0.128 2.408,0.383c0.731,0.254 1.355,0.619 1.873,1.092c0.517,0.476 0.923,1.046 1.218,1.714c0.297,0.67 0.444,1.405 0.444,2.206c0,1.385 -0.024,2.766 -0.073,4.139c-0.048,1.373 -0.073,2.825 -0.073,4.356c0,0.294 0.006,0.604 0.019,0.933c0.012,0.327 0.067,0.618 0.164,0.874c0.097,0.255 0.237,0.467 0.42,0.639c0.182,0.168 0.456,0.253 0.819,0.253c0.122,0 0.249,-0.004 0.383,-0.018c0.134,-0.012 0.262,-0.055 0.383,-0.128l0,0.802c-0.267,0.123 -0.602,0.22 -1.002,0.293c-0.401,0.073 -0.845,0.11 -1.332,0.11c-0.789,0 -1.392,-0.201 -1.812,-0.604c-0.42,-0.4 -0.666,-0.915 -0.741,-1.548c-0.871,0.875 -1.731,1.519 -2.578,1.931c-0.849,0.414 -1.89,0.622 -3.125,0.622c-0.607,0 -1.2,-0.086 -1.781,-0.255c-0.581,-0.172 -1.096,-0.45 -1.545,-0.84c-0.448,-0.389 -0.812,-0.857 -1.09,-1.403c-0.278,-0.547 -0.416,-1.172 -0.416,-1.878c0,-1.458 0.453,-2.588 1.362,-3.392c0.908,-0.802 2.162,-1.337 3.76,-1.603c1.308,-0.219 2.331,-0.407 3.07,-0.567c0.739,-0.157 1.285,-0.319 1.636,-0.491c0.352,-0.169 0.563,-0.37 0.636,-0.601c0.071,-0.233 0.109,-0.529 0.109,-0.894c0,-0.608 -0.073,-1.191 -0.219,-1.75c-0.146,-0.56 -0.377,-1.045 -0.693,-1.458c-0.316,-0.414 -0.728,-0.748 -1.239,-1.004c-0.511,-0.255 -1.13,-0.383 -1.86,-0.383c-0.973,0 -1.878,0.22 -2.717,0.657c-0.838,0.438 -1.464,1.046 -1.876,1.823l-0.402,0l0,-1.896c1.093,-0.826 2.102,-1.385 3.026,-1.676" style="fill:#ebebeb;fill-rule:nonzero;"/></svg>