<?xml version="1.0" encoding="UTF-8" standalone="no"?><!DOCTYPE svg PUBLIC "-//W3C//DTD SVG 1.1//EN" "http://www.w3.org/Graphics/SVG/1.1/DTD/svg11.dtd"><svg width="100%" height="100%" viewBox="0 0 576 420" version="1.1" xmlns="http://www.w3.org/2000/svg" xmlns:xlink="http://www.w3.org/1999/xlink" xml:space="preserve" xmlns:serif="http://www.serif.com/" style="fill-rule:evenodd;clip-rule:evenodd;stroke-linejoin:round;stroke-miterlimit:2;"><g><path d="M269.432,109.529c0.08,0.09 0.166,0.177 0.262,0.254c0.002,0.123 0.001,0.247 0.002,0.371c-0.152,-0.196 -0.243,-0.404 -0.264,-0.625" style="fill:#fff;fill-rule:nonzero;"/><path d="M143.339,227.842c-0.204,-0.049 -0.409,-0.095 -0.612,-0.146c-0.088,-0.189 -0.2,-0.362 -0.316,-0.53c0.356,0.121 0.664,0.351 0.928,0.676m-2.971,-21.75c3.532,2.611 5.468,6.739 6.151,10.992c0.512,3.188 -1.139,6.548 -3.759,8.514c0.191,-0.631 0.312,-1.277 0.392,-1.82c1.259,-1.309 2.434,-2.626 2.626,-4.903c0.35,-4.137 -2.123,-7.622 -5.02,-10.283c-0.003,-0.003 -0.009,0.003 -0.007,0.006c3.069,3.33 5.848,7.562 4.027,12.252c-0.333,0.858 -0.897,1.537 -1.536,2.161c0.293,-2.928 -0.018,-6.387 -1.263,-9.061c-0.055,-0.115 -0.229,-0.04 -0.183,0.079c1.061,2.657 1.54,6.527 0.705,9.665c-0.388,0.342 -0.778,0.683 -1.151,1.038c-0.023,-0.082 -0.053,-0.164 -0.079,-0.246c0.442,-1.445 0.487,-2.95 0.194,-4.828c-0.621,-4.003 -2.247,-7.688 -3.859,-11.37c-0.019,-0.043 -0.094,-0.025 -0.081,0.024c0.901,3.312 2.131,6.458 2.817,9.841c0.291,1.438 0.487,2.856 0.468,4.319c-0.879,-6.349 -3.841,-13.49 -10.006,-14.89c-0.014,-0.003 -0.02,0.021 -0.006,0.024c6.128,1.964 7.696,7.679 8.649,13.372c-1.208,-2.767 -3.217,-5.332 -5.265,-6.882c-0.081,-0.062 -0.163,0.057 -0.092,0.124c1.957,1.866 3.301,4.025 4.275,6.54c0.05,0.127 0.089,0.254 0.132,0.381c-2,-2.502 -4.67,-4.552 -7.13,-5.68c-0.02,-0.01 -0.033,0.021 -0.013,0.031c2.963,1.549 5.634,3.906 7.455,6.748c0.305,1.309 0.435,2.646 0.785,3.939c-0.042,0.075 -0.077,0.155 -0.117,0.232c-1.489,-2.209 -4.259,-3.56 -6.776,-4.114c-0.03,-0.007 -0.04,0.038 -0.014,0.049c1.506,0.637 2.998,1.289 4.334,2.249c0.926,0.667 1.594,1.461 2.147,2.358c-1.053,1.46 -3.094,2.332 -4.45,3.358c-0.066,0.051 0.013,0.148 0.079,0.101c1.179,-0.806 3.04,-1.548 4.222,-2.691c-0.042,0.202 -0.065,0.409 -0.051,0.619c-0.016,0.034 -0.032,0.067 -0.046,0.102c-0.061,0.139 -0.036,0.317 0.06,0.434c0.079,0.092 0.12,0.198 0.123,0.317c0.003,0.024 0.016,0.043 0.023,0.065c-1.974,2.049 -4.964,3.434 -7.191,4.812c-0.025,0.016 0,0.058 0.026,0.044c2.131,-1.15 4.799,-2.275 6.816,-3.947c-1.384,2.21 -2.858,4.327 -5.143,5.799c-0.119,0.076 0.003,0.282 0.126,0.212c2.868,-1.651 4.891,-4.407 6.621,-7.217c-0.028,0.437 -0.068,0.867 -0.114,1.29c-0.603,1.783 -1.683,3.412 -3.353,5.05c-2.669,2.621 -5.975,4.625 -9.033,6.751c-0.023,0.016 0.003,0.047 0.026,0.033c3.715,-2.286 9.145,-5.327 11.962,-9.393c-0.673,2.984 -2.047,5.604 -4.792,7.955c-0.044,0.036 0.007,0.098 0.052,0.067c3.469,-2.41 5.597,-6.231 5.994,-10.357c0.045,-0.119 0.083,-0.24 0.123,-0.36c0.001,0.051 0.007,0.1 0.007,0.15c-0.001,0.177 0.253,0.222 0.281,0.036c0.048,-0.318 0.074,-0.638 0.087,-0.956c0.428,1.082 0.746,2.243 0.935,3.459c-0.14,1.477 -0.483,2.946 -0.895,4.294c-1.117,3.658 -4.024,6.494 -6.553,9.22c-0.037,0.038 0.029,0.103 0.067,0.065c2.924,-2.962 5.76,-5.922 7.121,-9.94c0.16,-0.471 0.321,-1.018 0.468,-1.608c0.191,3.648 -0.558,7.46 -2.078,10.339c-0.021,0.039 0.043,0.075 0.067,0.038c2.239,-3.459 3.132,-8.554 2.479,-13.035c0.147,-1.501 0.074,-3.025 -0.447,-4.226c0.222,0.06 0.444,0.113 0.667,0.171c1.842,2.599 1.383,9.843 1.081,11.521c-0.008,0.044 0.058,0.051 0.068,0.008c0.652,-2.665 1.396,-8.516 -0.476,-11.358c7.891,1.943 16.058,2.423 24.171,1.925c4.875,-0.3 9.684,-1.095 14.44,-2.186c3.979,-0.912 8.457,-2 12.065,-3.929c0.929,-0.496 0.324,-1.975 -0.66,-1.522c-3.848,1.769 -7.399,3.517 -11.515,4.667c-4.408,1.231 -8.989,1.895 -13.537,2.323c-8.314,0.783 -16.911,0.44 -25.08,-1.449c-0.377,-0.518 -0.853,-0.917 -1.442,-1.164c2.592,-1.651 4.885,-4.882 4.766,-7.656c-0.22,-5.11 -2.526,-10.341 -6.91,-13.167c-0.051,-0.033 -0.107,0.039 -0.057,0.075" style="fill:#fff;fill-rule:nonzero;"/><path d="M67.083,266.428c-0.18,-0.107 -0.361,-0.212 -0.54,-0.322c-0.028,-0.205 -0.082,-0.405 -0.145,-0.599c0.305,0.221 0.53,0.532 0.685,0.921m-13.871,-31.611c3.118,1.065 5.44,3.575 6.895,6.461c1.09,2.162 0.673,4.94 -0.753,6.941c-0.007,-0.496 -0.067,-0.984 -0.133,-1.39c0.602,-1.222 1.143,-2.432 0.763,-4.103c-0.689,-3.037 -3.249,-4.966 -5.925,-6.21c-0.003,-0.002 -0.006,0.004 -0.003,0.006c2.95,1.682 5.898,4.077 5.662,7.843c-0.043,0.689 -0.292,1.303 -0.607,1.894c-0.456,-2.16 -1.464,-4.562 -2.963,-6.19c-0.064,-0.07 -0.172,0.024 -0.112,0.097c1.362,1.659 2.584,4.316 2.7,6.75c-0.2,0.333 -0.401,0.665 -0.587,1.003c-0.035,-0.053 -0.075,-0.105 -0.112,-0.157c-0.013,-1.134 -0.322,-2.22 -0.958,-3.497c-1.354,-2.72 -3.354,-4.984 -5.342,-7.251c-0.024,-0.026 -0.073,0.004 -0.053,0.036c1.397,2.163 2.991,4.133 4.25,6.395c0.534,0.962 0.997,1.931 1.316,2.981c-2.071,-4.338 -5.812,-8.771 -10.536,-8.371c-0.011,0.001 -0.01,0.019 0,0.019c4.827,0.011 7.247,3.741 9.222,7.594c-1.492,-1.703 -3.511,-3.08 -5.327,-3.724c-0.073,-0.025 -0.104,0.078 -0.039,0.11c1.823,0.89 3.275,2.128 4.543,3.704c0.064,0.079 0.121,0.161 0.181,0.243c-1.999,-1.335 -4.374,-2.193 -6.388,-2.441c-0.016,-0.003 -0.018,0.022 -0.002,0.025c2.47,0.434 4.915,1.512 6.862,3.13c0.515,0.867 0.912,1.793 1.456,2.638c-0.012,0.063 -0.019,0.128 -0.031,0.192c-1.566,-1.241 -3.853,-1.577 -5.778,-1.401c-0.023,0.001 -0.02,0.036 0.001,0.038c1.221,0.113 2.436,0.24 3.609,0.623c0.814,0.266 1.471,0.683 2.071,1.198c-0.421,1.283 -1.683,2.37 -2.419,3.412c-0.035,0.051 0.043,0.103 0.08,0.054c0.66,-0.844 1.822,-1.798 2.407,-2.883c0.015,0.154 0.046,0.307 0.104,0.454c-0.004,0.028 -0.008,0.055 -0.01,0.083c-0.012,0.114 0.047,0.235 0.142,0.297c0.078,0.048 0.13,0.114 0.16,0.199c0.007,0.016 0.021,0.026 0.031,0.041c-0.946,1.913 -2.769,3.582 -4.048,5.074c-0.014,0.017 0.013,0.041 0.029,0.025c1.262,-1.306 2.914,-2.717 3.976,-4.37c-0.487,1.894 -1.06,3.743 -2.359,5.314c-0.068,0.081 0.067,0.201 0.138,0.123c1.675,-1.832 2.495,-4.262 3.094,-6.664c0.079,0.32 0.148,0.635 0.211,0.949c-0.026,1.411 -0.428,2.821 -1.249,4.371c-1.314,2.48 -3.222,4.664 -4.924,6.879c-0.013,0.017 0.013,0.033 0.026,0.018c2.136,-2.479 5.327,-5.886 6.417,-9.433c0.197,2.285 -0.19,4.471 -1.619,6.775c-0.022,0.036 0.028,0.07 0.053,0.037c1.933,-2.511 2.586,-5.727 1.932,-8.766c0.006,-0.095 0.005,-0.19 0.006,-0.285c0.012,0.036 0.028,0.069 0.039,0.105c0.04,0.127 0.232,0.102 0.209,-0.038c-0.037,-0.238 -0.092,-0.472 -0.155,-0.703c0.552,0.676 1.044,1.433 1.455,2.26c0.235,1.088 0.324,2.216 0.336,3.273c0.032,2.869 -1.402,5.557 -2.59,8.08c-0.018,0.036 0.044,0.067 0.062,0.032c1.418,-2.783 2.773,-5.543 2.833,-8.725c0.007,-0.372 -0.002,-0.8 -0.031,-1.255c0.965,2.565 1.296,5.459 0.863,7.863c-0.006,0.033 0.048,0.044 0.057,0.012c0.814,-2.981 0.296,-6.826 -1.189,-9.881c-0.236,-1.107 -0.635,-2.18 -1.281,-2.919c0.173,-0.009 0.344,-0.021 0.517,-0.031c1.907,1.44 3.224,6.723 3.39,7.991c0.004,0.033 0.053,0.023 0.051,-0.01c-0.14,-2.053 -0.938,-6.405 -2.922,-8.011c6.083,-0.404 12.031,-1.917 17.717,-4.116c3.417,-1.322 6.674,-2.983 9.827,-4.843c2.637,-1.556 5.591,-3.351 7.732,-5.55c0.551,-0.566 -0.216,-1.485 -0.817,-0.938c-2.349,2.138 -4.49,4.196 -7.172,5.952c-2.872,1.881 -5.996,3.397 -9.15,4.737c-5.766,2.449 -11.989,4.157 -18.258,4.662c-0.387,-0.284 -0.819,-0.461 -1.296,-0.504c1.478,-1.77 2.384,-4.6 1.669,-6.556c-1.319,-3.603 -4.156,-6.82 -7.932,-7.844c-0.044,-0.012 -0.067,0.052 -0.024,0.067" style="fill:#fff;fill-rule:nonzero;"/><g opacity="0.61"><path d="M322.455,36.838c0.148,0.053 0.3,0.099 0.459,0.127c0.079,0.14 0.155,0.282 0.234,0.424c-0.296,-0.13 -0.53,-0.311 -0.693,-0.551m-65.223,83.441c3.001,2.677 7.362,3.316 11.207,2.431c2.084,-0.482 4.015,-2.85 4.71,-5.115c0.303,0.386 0.699,0.659 1.16,0.832c3.082,5.683 5.104,12.002 6.229,18.342c0.617,3.469 1.063,7.009 1.055,10.539c-0.01,3.295 -0.58,6.293 -1.104,9.516c-0.135,0.825 1.089,0.97 1.267,0.179c0.692,-3.079 0.581,-6.631 0.442,-9.774c-0.167,-3.76 -0.564,-7.497 -1.341,-11.182c-1.297,-6.132 -3.332,-12.103 -6.397,-17.569c2.497,0.807 6.693,-0.946 8.54,-1.979c0.029,-0.017 0.01,-0.064 -0.02,-0.048c-1.186,0.568 -6.475,2.398 -8.785,1.563c-0.089,-0.154 -0.174,-0.309 -0.264,-0.462c1,0.142 2.148,-0.117 3.233,-0.534c3.464,-0.436 7.067,-2.146 9.177,-4.522c0.024,-0.024 -0.016,-0.064 -0.04,-0.04c-1.828,1.72 -4.508,3.06 -7.259,3.667c0.41,-0.23 0.783,-0.462 1.1,-0.678c2.706,-1.836 4.324,-4.552 5.925,-7.334c0.02,-0.035 -0.04,-0.071 -0.062,-0.037c-1.506,2.441 -3.017,5.183 -5.507,6.765c-0.917,0.582 -1.938,1.139 -3.007,1.547c-0.943,0.109 -1.872,0.111 -2.764,0.014c0.236,-0.073 0.467,-0.159 0.695,-0.26c0.131,-0.058 0.047,-0.238 -0.085,-0.2c-0.038,0.009 -0.076,0.015 -0.113,0.024c0.081,-0.055 0.163,-0.106 0.242,-0.165c2.985,-1.143 5.387,-3.509 6.466,-6.582c0.014,-0.04 -0.043,-0.064 -0.061,-0.026c-1.183,2.524 -2.848,4.084 -4.927,5.197c2.442,-2.93 3.587,-7.59 4.524,-10.82c0.005,-0.021 -0.024,-0.034 -0.03,-0.012c-0.953,2.709 -1.763,5.577 -3.162,8.1c-0.876,1.576 -1.863,2.714 -3.064,3.529c-0.307,0.12 -0.618,0.238 -0.936,0.35c1.732,-1.863 3.365,-3.934 4.003,-6.403c0.027,-0.106 -0.151,-0.155 -0.183,-0.051c-0.624,2.001 -1.896,3.531 -3.254,5.013c0.829,-1.841 1.117,-4.056 1.534,-5.876c0.005,-0.022 -0.031,-0.032 -0.039,-0.011c-0.566,1.939 -0.981,4.445 -2.098,6.334c-0.019,0 -0.035,-0.007 -0.053,-0.004c-0.089,0.021 -0.177,0.013 -0.262,-0.027c-0.106,-0.047 -0.243,-0.028 -0.335,0.044c-0.021,0.02 -0.043,0.039 -0.066,0.056c-0.159,0.034 -0.307,0.093 -0.448,0.166c0.605,-1.114 0.776,-2.649 1.133,-3.691c0.02,-0.06 -0.069,-0.098 -0.093,-0.038c-0.484,1.219 -0.713,2.914 -1.582,3.996c-0.78,-0.226 -1.506,-0.559 -2.193,-1.111c-0.986,-0.794 -1.778,-1.77 -2.56,-2.758c-0.015,-0.018 -0.046,-0.002 -0.034,0.02c0.929,1.758 2.501,3.537 4.449,4.191c-0.049,0.045 -0.102,0.088 -0.149,0.134c-1.032,0.006 -2.054,0.183 -3.088,0.227c-2.487,-0.77 -4.787,-2.272 -6.547,-4.155c-0.012,-0.013 -0.032,0.003 -0.021,0.015c1.344,1.597 3.416,3.16 5.686,4.133c-0.102,-0.005 -0.205,-0.008 -0.309,-0.019c-2.071,-0.209 -3.95,-0.764 -5.739,-1.836c-0.065,-0.037 -0.136,0.047 -0.073,0.095c1.572,1.204 3.891,2.17 6.196,2.5c-4.427,0.461 -8.997,0.469 -11.715,-3.682c-0.006,-0.01 -0.022,0 -0.018,0.009c2.307,4.294 8.225,5.03 13.122,4.379c-1.083,0.313 -2.176,0.46 -3.306,0.539c-2.653,0.186 -5.245,-0.082 -7.892,-0.073c-0.039,0.001 -0.037,0.061 -0.001,0.067c3.068,0.441 6.14,0.892 9.243,0.532c1.456,-0.169 2.565,-0.511 3.548,-1.137c0.066,0.003 0.134,0.008 0.199,0.009c-0.187,0.35 -0.36,0.71 -0.535,1.067c-2.16,1.267 -5.136,1.704 -7.328,1.463c-0.097,-0.011 -0.117,0.135 -0.02,0.152c2.243,0.376 4.877,-0.104 6.993,-0.923c-0.332,0.604 -0.722,1.163 -1.291,1.586c-3.112,2.316 -6.827,1.12 -9.933,-0.476c-0.002,-0.001 -0.006,0.004 -0.002,0.007c2.573,1.606 5.671,2.728 8.672,1.618c1.652,-0.612 2.39,-1.756 3.105,-2.96c0.388,-0.17 0.842,-0.393 1.273,-0.664c-0.923,2.35 -3.082,4.268 -5.557,4.542c-3.3,0.366 -6.765,-0.226 -9.432,-2.314c-0.038,-0.029 -0.078,0.028 -0.044,0.059" style="fill:#fff;fill-rule:nonzero;"/></g><path d="M387.509,205.04c0.018,-0.222 0.029,-0.437 0.052,-0.61c0.159,-1.218 0.544,-2.542 0.581,-3.754c0.073,-2.353 1.285,-5.523 -1.027,-7.177c-0.012,-0.008 -0.026,0.009 -0.015,0.019c1.834,1.648 1.033,5.321 0.474,7.48c-0.178,0.691 -0.279,1.406 -0.382,2.114c-0.514,-3.464 -1.313,-6.779 -3.915,-9.501c-0.026,-0.026 -0.065,0.012 -0.041,0.04c2.538,2.984 3.163,6.637 3.466,10.364c-1.217,-4.118 -4.664,-7.389 -8.003,-9.964c-0.058,-0.044 -0.137,0.054 -0.08,0.102c3.456,2.866 5.926,5.835 7.228,9.778c-2.606,-2.789 -6.226,-5.189 -9.426,-6.24c-0.061,-0.02 -0.085,0.072 -0.027,0.093c3.793,1.427 7.333,4.43 9.771,7.806c-0.007,0.002 -0.014,0.005 -0.02,0.008c-0.389,-0.084 -0.748,-0.058 -1.055,0.124c-1.379,-1.132 -2.974,-2.083 -4.411,-2.995c-2.844,-1.806 -5.837,-3.384 -8.836,-4.915c-0.046,-0.023 -0.088,0.045 -0.042,0.069c2.47,1.323 4.913,2.69 7.29,4.174c1.43,0.893 2.74,1.89 4.024,2.924c-3.467,-1.495 -7.239,-2.078 -10.987,-2.762c-0.046,-0.009 -0.066,0.06 -0.02,0.07c3.987,0.859 7.882,1.648 11.485,3.457c-1.567,-0.079 -3.359,0.064 -3.62,0.078c-3.543,0.195 -8.417,0.308 -11.452,2.39c-0.038,0.026 -0.006,0.089 0.035,0.064c2.549,-1.515 6.39,-1.566 9.247,-1.816c0.697,-0.061 4.678,-0.564 6.669,-0.251c0.142,0.08 0.286,0.157 0.427,0.241c-0.004,0.03 -0.005,0.059 0,0.089c-4.447,-0.507 -9.075,4.251 -12.954,5.554c-0.068,0.024 -0.043,0.133 0.028,0.11c3.707,-1.11 8.611,-5.724 12.806,-5.074c0.022,0.023 0.044,0.045 0.066,0.068c-5.267,3.028 -9.2,8.049 -11.95,13.384c-0.019,0.037 0.034,0.069 0.056,0.033c2.982,-5.055 6.862,-9.663 11.948,-12.653c-0.558,5.592 0.507,11.892 -3.818,16.217c-0.045,0.045 0.019,0.108 0.068,0.07c4.17,-3.289 4.412,-10.353 4.539,-15.727c0.946,4.914 0.933,11.038 -0.753,15.561c-0.013,0.035 0.045,0.06 0.06,0.026c1.861,-4.338 1.608,-8.984 1.356,-13.583c0.535,1.658 1.062,3.325 1.344,5.083c0.546,3.401 0.988,8.37 -1.721,11.015c-0.068,0.066 0.03,0.163 0.102,0.104c2.793,-2.279 2.567,-6.642 2.279,-9.869c-0.187,-2.092 -0.484,-4.898 -1.245,-7.335c1.083,1.088 2.164,2.177 3.178,3.336c2.002,2.29 4.901,5.685 4.357,8.985c-0.017,0.095 0.118,0.138 0.147,0.042c0.808,-2.666 -1.068,-5.449 -2.613,-7.468c-1.361,-1.779 -2.866,-3.447 -4.428,-5.058c0.037,-0.042 0.069,-0.088 0.091,-0.141c0.136,-0.339 0.579,-0.721 0.484,-1.116c-0.03,-0.122 -0.13,-0.234 -0.255,-0.265c-0.078,-0.018 -0.149,-0.017 -0.218,-0.005c-0.007,-0.041 -0.012,-0.081 -0.018,-0.122c0.197,-0.022 0.375,-0.164 0.416,-0.356c1.872,1.493 3.615,3.937 4.586,5.126c2.144,2.628 5.05,6.062 5.875,9.458c0.012,0.052 0.087,0.032 0.078,-0.019c-0.65,-3.935 -3.904,-7.65 -6.359,-10.625c-0.529,-0.639 -2.266,-2.891 -4.027,-4.378c3.651,0.552 7.609,2.639 9.881,4.999c0.098,0.103 0.248,-0.046 0.157,-0.152c-1.762,-2.046 -4.461,-3.397 -6.909,-4.424c-0.641,-0.269 -1.547,-0.684 -2.51,-1.012c3.937,-0.707 8.515,0.813 11.93,2.304c0.066,0.027 0.124,-0.064 0.058,-0.098c-4.077,-2.149 -8.437,-3.054 -12.915,-2.488c-0.174,-0.044 -0.348,-0.085 -0.52,-0.118c-0.005,-0.04 -0.011,-0.08 -0.016,-0.12c3.556,-1.836 7.474,-3.126 11.497,-2.904c0.042,0.003 0.05,-0.061 0.011,-0.07c-3.847,-1.034 -7.914,0.692 -11.559,2.206" style="fill:#fff;fill-rule:nonzero;"/><path d="M384.098,209.038c-2.693,5.652 -5.162,11.469 -6.024,17.715c-0.8,5.794 0.139,13.41 4.357,17.836c0.422,0.442 1.098,-0.095 0.841,-0.619c-1.376,-2.802 -3.095,-5.157 -3.996,-8.216c-0.862,-2.924 -1.002,-5.971 -0.748,-8.993c0.521,-6.173 3.078,-12.127 5.591,-17.711c0.007,-0.013 -0.014,-0.026 -0.021,-0.012" style="fill:#fff;fill-rule:nonzero;"/><path d="M244.162,172.046c-0.143,-0.053 -0.283,-0.101 -0.393,-0.148c-0.775,-0.334 -1.577,-0.836 -2.371,-1.088c-1.541,-0.49 -3.408,-1.885 -4.934,-0.668c-0.007,0.007 0.001,0.019 0.01,0.014c1.432,-0.902 3.709,0.315 5.031,1.089c0.422,0.248 0.876,0.449 1.324,0.649c-2.385,-0.31 -4.725,-0.404 -7.011,0.805c-0.022,0.012 -0.004,0.045 0.019,0.034c2.447,-1.116 4.977,-0.844 7.496,-0.346c-2.948,0.032 -5.755,1.696 -8.082,3.42c-0.04,0.029 0.01,0.099 0.051,0.071c2.542,-1.746 4.967,-2.821 7.816,-2.941c-2.331,1.198 -4.595,3.139 -5.89,5.057c-0.025,0.037 0.032,0.069 0.057,0.035c1.654,-2.239 4.301,-4.014 6.989,-4.992c0,0.005 0,0.01 0.001,0.014c-0.128,0.242 -0.179,0.484 -0.116,0.721c-1.006,0.699 -1.934,1.574 -2.805,2.353c-1.727,1.54 -3.33,3.221 -4.904,4.916c-0.025,0.026 0.013,0.066 0.038,0.04c1.337,-1.383 2.698,-2.741 4.124,-4.033c0.857,-0.777 1.762,-1.456 2.686,-2.11c-1.638,2.01 -2.73,4.392 -3.885,6.741c-0.014,0.028 0.027,0.054 0.043,0.025c1.314,-2.472 2.566,-4.897 4.437,-6.939c-0.346,1.021 -0.588,2.231 -0.627,2.406c-0.535,2.378 -1.375,5.619 -0.568,8.015c0.009,0.029 0.057,0.02 0.049,-0.012c-0.523,-1.968 0.163,-4.515 0.533,-6.449c0.09,-0.472 0.505,-3.196 1.085,-4.453c0.079,-0.079 0.158,-0.159 0.239,-0.237c0.019,0.008 0.039,0.014 0.059,0.017c-1.169,2.843 1.107,6.792 1.241,9.599c0.003,0.05 0.079,0.053 0.078,0.003c-0.039,-2.658 -2.167,-6.763 -0.951,-9.413c0.019,-0.009 0.038,-0.02 0.057,-0.03c1.012,4.047 3.593,7.587 6.601,10.404c0.021,0.019 0.052,-0.01 0.033,-0.03c-2.781,-2.919 -5.098,-6.346 -6.119,-10.267c3.589,1.417 7.951,1.895 9.997,5.563c0.022,0.039 0.075,0.008 0.059,-0.031c-1.391,-3.372 -6.012,-4.856 -9.538,-5.948c3.424,0.297 7.467,1.453 10.139,3.415c0.021,0.015 0.048,-0.018 0.028,-0.034c-2.517,-2.043 -5.634,-2.747 -8.719,-3.444c1.196,-0.042 2.396,-0.077 3.61,0.066c2.349,0.277 5.715,0.916 6.954,3.202c0.031,0.058 0.114,0.011 0.088,-0.047c-0.982,-2.274 -3.906,-2.942 -6.092,-3.357c-1.418,-0.269 -3.327,-0.598 -5.08,-0.552c0.922,-0.512 1.844,-1.022 2.8,-1.474c1.889,-0.894 4.675,-2.172 6.752,-1.194c0.061,0.028 0.115,-0.053 0.056,-0.09c-1.61,-1.034 -3.8,-0.316 -5.424,0.326c-1.43,0.566 -2.814,1.247 -4.171,1.977c-0.021,-0.032 -0.045,-0.062 -0.077,-0.086c-0.198,-0.153 -0.367,-0.519 -0.645,-0.529c-0.087,-0.004 -0.18,0.042 -0.224,0.119c-0.026,0.047 -0.039,0.095 -0.045,0.143c-0.028,-0.004 -0.055,-0.008 -0.083,-0.011c0.022,-0.135 -0.038,-0.278 -0.157,-0.342c1.337,-0.957 3.279,-1.65 4.246,-2.068c2.139,-0.924 4.952,-2.2 7.35,-2.108c0.037,0.001 0.037,-0.052 0.003,-0.055c-2.722,-0.309 -5.787,1.144 -8.213,2.209c-0.521,0.229 -2.333,0.954 -3.647,1.839c1.05,-2.308 3.17,-4.532 5.156,-5.591c0.086,-0.045 0.016,-0.172 -0.071,-0.132c-1.683,0.781 -3.081,2.31 -4.219,3.735c-0.298,0.373 -0.742,0.894 -1.139,1.468c0.272,-2.732 2.134,-5.472 3.759,-7.45c0.031,-0.037 -0.019,-0.093 -0.054,-0.056c-2.184,2.291 -3.599,5.002 -4.065,8.066c-0.062,0.107 -0.121,0.214 -0.176,0.322c-0.027,-0.004 -0.054,-0.009 -0.082,-0.012c-0.546,-2.694 -0.663,-5.524 0.237,-8.141c0.011,-0.027 -0.03,-0.044 -0.044,-0.019c-1.404,2.347 -1.026,5.357 -0.71,8.049" style="fill:#fff;fill-rule:nonzero;"/><path d="M246.164,175.049c3.229,2.839 6.609,5.562 10.574,7.302c3.678,1.615 8.886,2.423 12.6,0.465c0.372,-0.195 0.144,-0.743 -0.251,-0.67c-2.109,0.383 -3.987,1.076 -6.177,1.098c-2.094,0.021 -4.133,-0.457 -6.082,-1.192c-3.981,-1.502 -7.434,-4.307 -10.652,-7.014c-0.008,-0.007 -0.02,0.004 -0.012,0.011" style="fill:#fff;fill-rule:nonzero;"/><path d="M538.179,170.048c-0.114,0.226 -0.298,0.568 -0.549,1.018c-0.254,0.448 -0.579,1.02 -0.954,1.702c-0.404,0.692 -0.868,1.488 -1.384,2.376c-0.538,0.894 -1.145,1.891 -1.812,2.965c-0.676,1.069 -1.422,2.215 -2.208,3.413c-1.58,2.39 -3.428,4.942 -5.317,7.485c-0.942,1.269 -1.885,2.543 -2.816,3.798c-0.933,1.258 -1.85,2.496 -2.739,3.695c-0.895,1.197 -1.769,2.348 -2.613,3.43c-0.844,1.081 -1.663,2.088 -2.431,3.006c-0.774,0.908 -1.49,1.732 -2.151,2.439c0.054,-0.098 0.106,-0.191 0.161,-0.291c0.255,-0.454 0.526,-0.938 0.812,-1.448c0.263,-0.517 0.538,-1.055 0.825,-1.62c0.281,-0.565 0.603,-1.142 0.89,-1.752c0.285,-0.609 0.58,-1.238 0.883,-1.885c0.15,-0.323 0.314,-0.645 0.461,-0.976c0.144,-0.334 0.291,-0.671 0.439,-1.012c0.301,-0.676 0.61,-1.372 0.92,-2.069c0.567,-1.408 1.181,-2.837 1.743,-4.276c0.608,-1.433 1.123,-2.868 1.718,-4.262c0.517,-1.393 1.109,-2.753 1.613,-4.032c0.271,-0.638 0.533,-1.256 0.792,-1.864c0.252,-0.6 0.496,-1.179 0.776,-1.734c0.258,-0.552 0.464,-1.08 0.731,-1.58c0.129,-0.247 0.255,-0.492 0.38,-0.734c0.122,-0.237 0.216,-0.465 0.341,-0.684c0.236,-0.441 0.466,-0.858 0.695,-1.25c0.226,-0.375 0.436,-0.723 0.642,-1.065c0.195,-0.33 0.439,-0.627 0.626,-0.901c0.171,-0.27 0.347,-0.513 0.53,-0.728c0.175,-0.211 0.34,-0.408 0.491,-0.59c0.15,-0.162 0.283,-0.306 0.405,-0.438c0.119,-0.123 0.225,-0.233 0.317,-0.329c0.099,-0.091 0.19,-0.162 0.259,-0.221c0.141,-0.115 0.216,-0.176 0.216,-0.176c0,0 -0.079,0.062 -0.226,0.179c-0.073,0.06 -0.167,0.133 -0.271,0.226c-0.097,0.097 -0.208,0.209 -0.334,0.335c-0.128,0.134 -0.267,0.279 -0.425,0.443c-0.158,0.186 -0.33,0.385 -0.514,0.599c-0.189,0.218 -0.378,0.462 -0.556,0.735c-0.197,0.277 -0.443,0.578 -0.656,0.909c-0.214,0.344 -0.433,0.694 -0.668,1.071c-0.247,0.392 -0.481,0.813 -0.729,1.254c-0.128,0.221 -0.238,0.446 -0.361,0.686c-0.129,0.242 -0.261,0.487 -0.394,0.735c-0.276,0.5 -0.506,1.025 -0.768,1.577c-0.288,0.556 -0.558,1.131 -0.815,1.73c-0.272,0.604 -0.549,1.219 -0.833,1.855c-0.256,0.636 -0.553,1.29 -0.844,1.959c-0.285,0.669 -0.577,1.35 -0.849,2.04c-0.62,1.38 -1.17,2.8 -1.801,4.212c-0.286,0.709 -0.6,1.415 -0.916,2.117c-0.306,0.705 -0.61,1.405 -0.907,2.09c-0.321,0.684 -0.64,1.367 -0.951,2.029c-0.153,0.335 -0.306,0.665 -0.456,0.992c-0.155,0.326 -0.328,0.644 -0.485,0.961c-0.314,0.633 -0.618,1.248 -0.913,1.843c-0.297,0.596 -0.626,1.158 -0.915,1.708c-0.295,0.549 -0.577,1.074 -0.847,1.575c-0.29,0.491 -0.565,0.956 -0.823,1.393c-0.253,0.433 -0.488,0.839 -0.708,1.215c0.078,-0.29 0.154,-0.59 0.228,-0.908c0.209,-0.873 0.398,-1.845 0.647,-2.876c0.244,-1.022 0.596,-2.167 0.932,-3.342c0.338,-1.176 0.694,-2.416 1.056,-3.681c0.176,-0.635 0.35,-1.27 0.503,-1.918c0.153,-0.64 0.341,-1.274 0.478,-1.92c0.145,-0.642 0.327,-1.288 0.459,-1.918l0.222,-0.946l0.211,-0.933c0.276,-1.219 0.545,-2.405 0.807,-3.561c0.131,-0.564 0.241,-1.112 0.376,-1.642c0.121,-0.516 0.243,-1.032 0.36,-1.527c0.475,-1.959 0.948,-3.563 1.378,-4.79c0.107,-0.305 0.191,-0.594 0.312,-0.855c0.099,-0.253 0.194,-0.494 0.283,-0.721c0.192,-0.417 0.355,-0.775 0.491,-1.072c0.286,-0.529 0.449,-0.831 0.449,-0.831c0,0 -0.179,0.305 -0.49,0.841c-0.149,0.289 -0.324,0.642 -0.539,1.085c-0.097,0.23 -0.201,0.473 -0.311,0.73c-0.129,0.263 -0.228,0.555 -0.343,0.864c-0.473,1.238 -1.002,2.855 -1.523,4.82c-0.13,0.496 -0.266,1.013 -0.401,1.53c-0.157,0.53 -0.275,1.079 -0.418,1.641c-0.157,0.565 -0.293,1.144 -0.438,1.736c-0.151,0.596 -0.304,1.199 -0.458,1.81l-0.229,0.926c0,0 -0.065,0.235 -0.13,0.469c-0.06,0.235 -0.12,0.47 -0.12,0.47c-0.147,0.627 -0.329,1.26 -0.499,1.893c-0.151,0.628 -0.353,1.273 -0.521,1.909c-0.169,0.628 -0.359,1.259 -0.543,1.88c-0.391,1.242 -0.775,2.465 -1.141,3.632c-0.368,1.172 -0.726,2.281 -1.022,3.344c-0.115,0.417 -0.209,0.809 -0.303,1.192c0.023,-0.428 0.069,-0.875 0.088,-1.336c0.016,-0.494 0.034,-1.004 0.051,-1.528c0.007,-0.26 0.026,-0.524 0.027,-0.788c-0.005,-0.263 -0.008,-0.528 -0.012,-0.796c0.001,-0.535 0.003,-1.087 0.005,-1.636c-0.058,-1.088 -0.037,-2.218 -0.131,-3.314c-0.032,-1.113 -0.164,-2.193 -0.226,-3.267c-0.134,-1.052 -0.2,-2.099 -0.356,-3.07c-0.095,-0.992 -0.292,-1.903 -0.397,-2.785c-0.082,-0.433 -0.176,-0.845 -0.237,-1.252c-0.036,-0.201 -0.071,-0.4 -0.106,-0.596c-0.042,-0.191 -0.084,-0.377 -0.125,-0.562c-0.079,-0.366 -0.167,-0.719 -0.231,-1.059c-0.064,-0.338 -0.169,-0.645 -0.247,-0.947c-0.088,-0.298 -0.132,-0.587 -0.211,-0.852c-0.087,-0.26 -0.179,-0.505 -0.238,-0.734c-0.068,-0.229 -0.131,-0.443 -0.189,-0.64c-0.071,-0.19 -0.136,-0.365 -0.195,-0.522c-0.116,-0.312 -0.207,-0.557 -0.268,-0.724c-0.064,-0.166 -0.086,-0.255 -0.086,-0.255c0,0 0.018,0.09 0.075,0.259c0.054,0.17 0.134,0.419 0.236,0.735c0.052,0.161 0.109,0.337 0.172,0.531c0.05,0.2 0.105,0.418 0.163,0.65c0.05,0.233 0.132,0.482 0.209,0.746c0.068,0.269 0.102,0.563 0.178,0.866c0.067,0.306 0.16,0.618 0.212,0.961c0.049,0.343 0.128,0.701 0.193,1.073c0.034,0.188 0.069,0.375 0.105,0.569c0.028,0.199 0.057,0.4 0.086,0.604c0.051,0.41 0.127,0.827 0.195,1.264c0.078,0.891 0.247,1.81 0.31,2.809c0.07,0.487 0.104,0.995 0.138,1.512c0.043,0.521 0.086,1.047 0.128,1.569c0.033,1.075 0.13,2.157 0.133,3.265c0.051,1.098 0.021,2.212 0.036,3.298c-0.004,0.543 -0.037,1.087 -0.048,1.62c-0.005,0.267 -0.009,0.529 -0.013,0.79c-0.007,0.26 -0.032,0.521 -0.046,0.777c-0.029,0.516 -0.058,1.018 -0.086,1.504c-0.03,0.489 -0.099,0.967 -0.14,1.426c-0.04,0.456 -0.079,0.889 -0.117,1.307c-0.056,0.416 -0.111,0.812 -0.162,1.183c-0.047,0.373 -0.092,0.723 -0.134,1.046c-0.046,0.325 -0.112,0.632 -0.159,0.906c-0.009,0.05 -0.017,0.095 -0.026,0.144c-0.063,0.136 -0.119,0.26 -0.167,0.363c-0.063,-0.022 -0.134,-0.045 -0.213,-0.072c-0.058,-0.17 -0.121,-0.356 -0.193,-0.565c-0.083,-0.241 -0.175,-0.508 -0.274,-0.799c-0.108,-0.287 -0.226,-0.599 -0.351,-0.931c-0.125,-0.331 -0.257,-0.682 -0.384,-1.061c-0.132,-0.376 -0.29,-0.758 -0.443,-1.162c-0.154,-0.401 -0.315,-0.818 -0.482,-1.25c-0.18,-0.424 -0.352,-0.87 -0.535,-1.323c-0.09,-0.226 -0.181,-0.455 -0.273,-0.687c-0.098,-0.231 -0.195,-0.462 -0.294,-0.696c-0.198,-0.468 -0.404,-0.941 -0.595,-1.432c-0.213,-0.479 -0.439,-0.956 -0.646,-1.45c-0.107,-0.245 -0.205,-0.496 -0.32,-0.739c-0.116,-0.242 -0.238,-0.482 -0.349,-0.729c-0.231,-0.489 -0.431,-0.995 -0.687,-1.472c-0.236,-0.485 -0.473,-0.972 -0.71,-1.459c-0.234,-0.485 -0.494,-0.956 -0.739,-1.43c-0.126,-0.234 -0.229,-0.48 -0.357,-0.711c-0.13,-0.229 -0.259,-0.458 -0.388,-0.686c-0.132,-0.227 -0.248,-0.459 -0.37,-0.687c-0.117,-0.231 -0.238,-0.457 -0.377,-0.672c-0.274,-0.432 -0.505,-0.877 -0.755,-1.304c-0.259,-0.42 -0.515,-0.834 -0.765,-1.239c-0.253,-0.404 -0.485,-0.805 -0.743,-1.179c-0.247,-0.378 -0.509,-0.742 -0.724,-1.109c-0.223,-0.363 -0.486,-0.69 -0.714,-1.02c-0.224,-0.332 -0.437,-0.648 -0.642,-0.953c-0.225,-0.292 -0.444,-0.57 -0.629,-0.84c-0.19,-0.27 -0.369,-0.523 -0.534,-0.756c-0.172,-0.233 -0.352,-0.435 -0.489,-0.629c-0.581,-0.778 -0.913,-1.223 -0.913,-1.223c0,0 0.318,0.453 0.874,1.246c0.131,0.198 0.304,0.404 0.469,0.64c0.157,0.239 0.327,0.496 0.509,0.771c0.175,0.275 0.387,0.558 0.602,0.856c0.194,0.31 0.398,0.633 0.61,0.971c0.217,0.336 0.468,0.669 0.68,1.039c0.203,0.373 0.454,0.743 0.687,1.13c0.245,0.379 0.466,0.788 0.705,1.2c0.236,0.411 0.478,0.832 0.723,1.26c0.236,0.434 0.454,0.886 0.713,1.326c0.132,0.218 0.247,0.448 0.356,0.682c0.115,0.232 0.223,0.468 0.349,0.698c0.121,0.232 0.243,0.464 0.365,0.698c0.121,0.234 0.218,0.483 0.336,0.722c0.229,0.481 0.476,0.957 0.693,1.45c0.223,0.494 0.445,0.987 0.667,1.479c0.238,0.485 0.427,0.995 0.643,1.49c0.102,0.25 0.215,0.494 0.324,0.738c0.109,0.246 0.199,0.499 0.3,0.747c0.19,0.501 0.402,0.983 0.602,1.466c0.179,0.494 0.364,0.976 0.553,1.446c0.092,0.237 0.183,0.469 0.274,0.702c0.084,0.235 0.168,0.467 0.25,0.696c0.17,0.458 0.335,0.903 0.496,1.334c0.154,0.435 0.303,0.855 0.446,1.258c0.141,0.406 0.289,0.792 0.41,1.167c0.121,0.374 0.23,0.738 0.347,1.066c0.115,0.331 0.223,0.642 0.323,0.929c0.065,0.208 0.126,0.4 0.184,0.583c-0.15,-0.053 -0.306,-0.108 -0.468,-0.165c-0.276,-0.107 -0.574,-0.222 -0.892,-0.346c-0.322,-0.121 -0.656,-0.26 -1.009,-0.409c-0.351,-0.161 -0.719,-0.331 -1.103,-0.508c-0.383,-0.182 -0.791,-0.361 -1.201,-0.569c-0.408,-0.212 -0.823,-0.445 -1.257,-0.68c-0.436,-0.227 -0.871,-0.488 -1.309,-0.768c-0.437,-0.279 -0.9,-0.548 -1.347,-0.858c-0.445,-0.316 -0.899,-0.637 -1.356,-0.962c-0.451,-0.339 -0.906,-0.69 -1.352,-1.06c-0.908,-0.728 -1.775,-1.543 -2.64,-2.379c-0.422,-0.427 -0.834,-0.871 -1.241,-1.317c-0.412,-0.442 -0.809,-0.899 -1.179,-1.377c-0.781,-0.92 -1.457,-1.915 -2.119,-2.879c-0.316,-0.494 -0.615,-0.988 -0.909,-1.473c-0.285,-0.493 -0.56,-0.98 -0.807,-1.465c-0.254,-0.48 -0.476,-0.969 -0.703,-1.432c-0.225,-0.463 -0.412,-0.927 -0.589,-1.377c-0.178,-0.449 -0.348,-0.878 -0.509,-1.287c-0.135,-0.422 -0.264,-0.822 -0.384,-1.197c-0.252,-0.745 -0.427,-1.417 -0.552,-1.973c-0.132,-0.553 -0.238,-0.985 -0.292,-1.288c-0.06,-0.3 -0.091,-0.46 -0.091,-0.46c0,0 0.027,0.16 0.079,0.462c0.046,0.305 0.141,0.739 0.26,1.297c0.111,0.558 0.268,1.236 0.501,1.989c0.112,0.38 0.23,0.785 0.355,1.212c0.152,0.415 0.311,0.85 0.478,1.305c0.167,0.457 0.342,0.929 0.557,1.401c0.216,0.471 0.427,0.969 0.67,1.459c0.236,0.495 0.5,0.993 0.775,1.497c0.283,0.498 0.572,1.004 0.877,1.511c0.642,0.991 1.3,2.015 2.065,2.966c0.36,0.495 0.751,0.967 1.154,1.427c0.4,0.464 0.807,0.923 1.221,1.368c0.853,0.871 1.71,1.723 2.611,2.484c0.443,0.389 0.892,0.76 1.342,1.115c0.455,0.344 0.906,0.684 1.348,1.018c0.449,0.323 0.907,0.613 1.344,0.909c0.436,0.299 0.874,0.571 1.308,0.819c0.433,0.252 0.848,0.502 1.26,0.724c0.41,0.224 0.818,0.419 1.201,0.616c0.386,0.193 0.755,0.377 1.106,0.551c0.354,0.167 0.703,0.307 1.025,0.446c0.645,0.277 1.206,0.509 1.67,0.675c0.086,0.033 0.165,0.063 0.244,0.092c-0.066,0.013 -0.13,0.024 -0.201,0.037c-0.245,0.043 -0.518,0.099 -0.812,0.141c-0.294,0.038 -0.611,0.078 -0.951,0.121c-0.341,0.042 -0.705,0.085 -1.089,0.132c-0.386,0.035 -0.794,0.057 -1.222,0.086c-0.423,0.019 -0.866,0.052 -1.325,0.054c-0.46,-0.004 -0.937,-0.007 -1.428,-0.011c-0.245,-0.005 -0.496,-0.003 -0.749,-0.015c-0.253,-0.016 -0.51,-0.033 -0.768,-0.05c-0.521,-0.033 -1.049,-0.077 -1.59,-0.14c-1.079,-0.149 -2.202,-0.306 -3.334,-0.585c-1.144,-0.231 -2.281,-0.609 -3.44,-0.971c-1.135,-0.436 -2.294,-0.858 -3.395,-1.423c-1.126,-0.504 -2.183,-1.161 -3.231,-1.777c-0.514,-0.331 -1.008,-0.681 -1.501,-1.018c-0.247,-0.168 -0.489,-0.341 -0.725,-0.517c-0.236,-0.178 -0.461,-0.367 -0.688,-0.548c-0.453,-0.366 -0.897,-0.716 -1.315,-1.086c-0.42,-0.366 -0.807,-0.749 -1.189,-1.106c-0.381,-0.358 -0.737,-0.727 -1.074,-1.075c-0.329,-0.364 -0.641,-0.708 -0.934,-1.031c-0.287,-0.339 -0.555,-0.656 -0.803,-0.949c-0.246,-0.298 -0.459,-0.585 -0.657,-0.839c-0.393,-0.514 -0.688,-0.942 -0.896,-1.225c-0.205,-0.286 -0.313,-0.439 -0.313,-0.439c0,0 0.105,0.155 0.304,0.448c0.201,0.287 0.488,0.724 0.87,1.247c0.195,0.26 0.402,0.554 0.641,0.858c0.243,0.3 0.506,0.624 0.787,0.972c0.287,0.332 0.592,0.686 0.914,1.059c0.331,0.359 0.681,0.739 1.056,1.107c0.377,0.369 0.758,0.765 1.172,1.145c0.412,0.384 0.854,0.744 1.299,1.127c0.225,0.188 0.448,0.385 0.681,0.57c0.235,0.186 0.477,0.36 0.72,0.538c0.488,0.353 0.98,0.721 1.491,1.07c1.043,0.646 2.098,1.337 3.223,1.877c1.099,0.604 2.264,1.053 3.4,1.532c1.167,0.391 2.308,0.812 3.463,1.071c1.139,0.319 2.279,0.496 3.367,0.683c0.544,0.086 1.086,0.123 1.612,0.177c0.262,0.025 0.521,0.049 0.778,0.073c0.256,0.02 0.51,0.025 0.759,0.037c0.498,0.018 0.981,0.035 1.448,0.052c0.464,0.014 0.923,-0.018 1.356,-0.029c0.435,-0.018 0.85,-0.029 1.244,-0.055c0.395,-0.037 0.768,-0.072 1.12,-0.105c0.35,-0.035 0.677,-0.068 0.98,-0.099c0.301,-0.036 0.567,-0.082 0.817,-0.121c0.047,-0.008 0.088,-0.015 0.133,-0.023c-0.046,0.036 -0.089,0.069 -0.137,0.106c-0.466,0.35 -1.067,0.731 -1.797,1.103c-0.728,0.37 -1.598,0.741 -2.553,1.084c-0.981,0.337 -2.05,0.724 -3.192,1.023c-1.138,0.342 -2.362,0.575 -3.645,0.822c-0.648,0.097 -1.307,0.196 -1.974,0.296c-0.674,0.069 -1.36,0.14 -2.054,0.185c-0.694,0.057 -1.403,0.044 -2.117,0.061c-0.714,0.026 -1.434,-0.033 -2.16,-0.072l-1.09,-0.069l-0.547,-0.062l-0.547,-0.071c-0.729,-0.097 -1.461,-0.191 -2.189,-0.343c-0.726,-0.154 -1.452,-0.287 -2.169,-0.489c-0.718,-0.188 -1.429,-0.399 -2.13,-0.618c-0.698,-0.249 -1.39,-0.483 -2.065,-0.751c-0.677,-0.26 -1.332,-0.577 -1.978,-0.862c-0.323,-0.144 -0.639,-0.301 -0.952,-0.454c-0.31,-0.167 -0.616,-0.333 -0.916,-0.496c-0.601,-0.331 -1.189,-0.642 -1.742,-0.993c-0.553,-0.361 -1.083,-0.707 -1.587,-1.037c-0.253,-0.164 -0.497,-0.336 -0.735,-0.505c-0.235,-0.179 -0.463,-0.352 -0.684,-0.52c-0.439,-0.341 -0.855,-0.663 -1.239,-0.959c-0.38,-0.309 -0.728,-0.605 -1.034,-0.889c-0.618,-0.558 -1.107,-0.997 -1.436,-1.311c-0.327,-0.319 -0.502,-0.488 -0.502,-0.488c0,0 0.173,0.174 0.496,0.5c0.326,0.321 0.808,0.772 1.42,1.345c0.304,0.291 0.648,0.598 1.026,0.912c0.38,0.307 0.793,0.639 1.229,0.991c0.22,0.174 0.446,0.353 0.679,0.538c0.236,0.176 0.481,0.35 0.732,0.522c0.502,0.342 1.03,0.702 1.579,1.078c0.553,0.365 1.139,0.684 1.738,1.034c0.301,0.171 0.605,0.344 0.916,0.521c0.312,0.165 0.63,0.321 0.952,0.474c0.646,0.302 1.302,0.637 1.98,0.915c0.679,0.274 1.371,0.535 2.071,0.8c0.704,0.24 1.42,0.455 2.141,0.666c0.72,0.219 1.45,0.377 2.183,0.537c0.733,0.17 1.47,0.283 2.205,0.397c0,0 0.276,0.039 0.553,0.079c0.276,0.037 0.552,0.074 0.552,0.074l1.101,0.096c0.732,0.062 1.463,0.121 2.185,0.113c0.721,-0.002 1.439,0.03 2.142,-0.015c0.701,-0.051 1.397,-0.103 2.084,-0.154c0.677,-0.086 1.346,-0.171 2.003,-0.255c1.299,-0.212 2.553,-0.446 3.725,-0.771c1.183,-0.285 2.245,-0.647 3.231,-0.965c0.865,-0.291 1.637,-0.599 2.341,-0.929c-0.289,0.291 -0.591,0.597 -0.91,0.92c-0.366,0.344 -0.752,0.707 -1.155,1.085c-0.829,0.729 -1.742,1.51 -2.762,2.262c-1.008,0.767 -2.127,1.498 -3.309,2.221c-1.189,0.711 -2.461,1.38 -3.787,2.006c-1.332,0.608 -2.725,1.177 -4.147,1.659c-1.429,0.472 -2.879,0.892 -4.336,1.255c-1.461,0.349 -2.921,0.66 -4.373,0.841c-1.453,0.178 -2.879,0.317 -4.264,0.316c-1.38,0.03 -2.714,-0.043 -3.961,-0.177c-0.628,-0.086 -1.229,-0.167 -1.801,-0.246c-0.578,-0.106 -1.129,-0.229 -1.648,-0.337c-0.521,-0.136 -1.009,-0.264 -1.461,-0.382c-0.453,-0.115 -0.872,-0.274 -1.25,-0.401c-0.758,-0.247 -1.355,-0.51 -1.762,-0.672c-0.409,-0.167 -0.627,-0.256 -0.627,-0.256c0,0 0.218,0.094 0.625,0.271c0.408,0.17 1.005,0.448 1.764,0.713c0.379,0.136 0.798,0.303 1.252,0.429c0.453,0.128 0.943,0.268 1.467,0.416c0.521,0.12 1.075,0.26 1.655,0.374c0.575,0.091 1.181,0.187 1.813,0.288c1.256,0.164 2.6,0.257 3.993,0.263c1.399,0.036 2.839,-0.086 4.308,-0.228c1.466,-0.158 2.942,-0.445 4.422,-0.761c1.475,-0.336 2.947,-0.72 4.393,-1.177c1.45,-0.468 2.866,-1.007 4.226,-1.598c1.354,-0.606 2.654,-1.259 3.873,-1.96c1.212,-0.712 2.367,-1.448 3.407,-2.215c1.053,-0.751 1.996,-1.531 2.856,-2.265c0.417,-0.381 0.817,-0.746 1.198,-1.093c0.312,-0.308 0.608,-0.598 0.891,-0.877c-0.048,0.085 -0.093,0.167 -0.142,0.255c-0.193,0.347 -0.398,0.716 -0.614,1.106c-0.229,0.384 -0.489,0.78 -0.749,1.199c-0.267,0.414 -0.523,0.861 -0.827,1.298c-0.308,0.436 -0.626,0.886 -0.953,1.349c-0.165,0.23 -0.322,0.471 -0.5,0.702c-0.18,0.228 -0.364,0.458 -0.549,0.691c-0.374,0.464 -0.741,0.952 -1.14,1.425c-0.829,0.919 -1.653,1.902 -2.602,2.794c-0.899,0.944 -1.926,1.78 -2.92,2.655c-1.058,0.795 -2.087,1.635 -3.205,2.32c-1.075,0.747 -2.228,1.342 -3.326,1.951c-0.56,0.286 -1.132,0.53 -1.683,0.787c-0.278,0.126 -0.552,0.25 -0.823,0.373c-0.274,0.116 -0.557,0.213 -0.829,0.313c-0.55,0.193 -1.086,0.382 -1.603,0.565c-0.522,0.175 -1.05,0.292 -1.546,0.43c-0.5,0.128 -0.977,0.263 -1.44,0.366c-0.471,0.083 -0.917,0.163 -1.337,0.238c-0.423,0.073 -0.817,0.14 -1.183,0.203c-0.368,0.058 -0.715,0.069 -1.025,0.097c-1.25,0.088 -1.964,0.137 -1.964,0.137c0,0 0.719,-0.031 1.978,-0.086c0.312,-0.018 0.663,-0.024 1.034,-0.072c0.369,-0.053 0.768,-0.111 1.195,-0.172c0.424,-0.064 0.876,-0.133 1.353,-0.205c0.468,-0.091 0.951,-0.213 1.458,-0.329c0.504,-0.126 1.039,-0.23 1.569,-0.392c0.528,-0.17 1.072,-0.339 1.63,-0.531c0.278,-0.098 0.565,-0.185 0.844,-0.296c0.277,-0.117 0.557,-0.235 0.839,-0.355c0.563,-0.244 1.146,-0.476 1.718,-0.75c1.123,-0.585 2.301,-1.158 3.405,-1.886c1.147,-0.665 2.205,-1.488 3.294,-2.269c1.024,-0.86 2.084,-1.692 3.016,-2.628c0.982,-0.887 1.839,-1.866 2.701,-2.784c0.415,-0.472 0.797,-0.959 1.186,-1.423c0.193,-0.234 0.384,-0.465 0.572,-0.693c0.185,-0.232 0.35,-0.473 0.522,-0.704c0.343,-0.466 0.675,-0.919 0.998,-1.358c0.318,-0.441 0.588,-0.892 0.869,-1.311c0.274,-0.425 0.546,-0.824 0.789,-1.215c0.231,-0.4 0.451,-0.779 0.657,-1.135c0.207,-0.356 0.401,-0.689 0.58,-0.997c0.106,-0.187 0.195,-0.362 0.281,-0.531c-0.013,0.058 -0.024,0.113 -0.036,0.172c-0.062,0.305 -0.127,0.629 -0.197,0.971c-0.083,0.34 -0.173,0.703 -0.266,1.079c-0.098,0.378 -0.178,0.771 -0.291,1.172c-0.115,0.402 -0.234,0.818 -0.357,1.245c-0.062,0.214 -0.118,0.433 -0.187,0.652c-0.072,0.218 -0.146,0.438 -0.22,0.662c-0.148,0.447 -0.299,0.902 -0.454,1.37c-0.353,0.916 -0.684,1.88 -1.108,2.829c-0.38,0.964 -0.857,1.898 -1.3,2.856c-0.5,0.926 -0.965,1.876 -1.514,2.761c-0.507,0.909 -1.09,1.753 -1.63,2.586c-0.28,0.409 -0.576,0.797 -0.855,1.186c-0.14,0.193 -0.279,0.384 -0.417,0.573c-0.14,0.187 -0.29,0.362 -0.432,0.54c-0.287,0.353 -0.566,0.697 -0.836,1.03c-0.273,0.33 -0.562,0.627 -0.826,0.924c-0.268,0.293 -0.519,0.58 -0.77,0.842c-0.258,0.254 -0.504,0.495 -0.735,0.722c-0.231,0.227 -0.447,0.438 -0.647,0.634c-0.203,0.193 -0.403,0.355 -0.576,0.51c-0.704,0.61 -1.105,0.958 -1.105,0.958c0,0 0.414,-0.335 1.137,-0.921c0.179,-0.149 0.386,-0.305 0.595,-0.492c0.207,-0.189 0.43,-0.394 0.67,-0.613c0.238,-0.22 0.493,-0.454 0.76,-0.7c0.259,-0.255 0.521,-0.534 0.8,-0.819c0.275,-0.29 0.574,-0.579 0.858,-0.902c0.283,-0.326 0.574,-0.663 0.873,-1.009c0.148,-0.174 0.305,-0.346 0.452,-0.53c0.144,-0.185 0.29,-0.373 0.438,-0.563c0.292,-0.382 0.601,-0.764 0.896,-1.168c0.569,-0.823 1.183,-1.657 1.722,-2.56c0.58,-0.879 1.079,-1.825 1.612,-2.751c0.475,-0.955 0.987,-1.894 1.4,-2.858c0.454,-0.945 0.816,-1.912 1.201,-2.84c0.18,-0.467 0.336,-0.933 0.501,-1.384c0.083,-0.226 0.164,-0.45 0.243,-0.67c0.077,-0.222 0.14,-0.444 0.21,-0.661c0.137,-0.434 0.271,-0.856 0.4,-1.264c0.127,-0.409 0.221,-0.808 0.329,-1.189c0.103,-0.38 0.202,-0.746 0.296,-1.092c0.082,-0.353 0.16,-0.688 0.233,-1.003c0.074,-0.314 0.144,-0.608 0.208,-0.88c0.061,-0.27 0.099,-0.513 0.145,-0.735c0.032,-0.171 0.061,-0.323 0.089,-0.464c4.752,5.155 10.5,9.362 16.636,12.617c6.15,3.264 12.704,5.577 19.424,7.175l0.321,-1.001c-6.685,-1.587 -13.191,-3.891 -19.285,-7.129c-6.075,-3.234 -11.754,-7.402 -16.426,-12.502c0.005,-0.034 0.011,-0.073 0.016,-0.113c0.142,-0.044 0.521,-0.162 1.096,-0.341c0.739,-0.232 1.791,-0.536 3.059,-0.99c0.16,-0.06 0.31,-0.115 0.491,-0.182c0.161,-0.065 0.325,-0.13 0.493,-0.197c0.334,-0.139 0.675,-0.26 1.032,-0.428c0.354,-0.161 0.717,-0.327 1.089,-0.495c0.362,-0.184 0.732,-0.373 1.109,-0.564c0.746,-0.399 1.508,-0.824 2.259,-1.304l0.571,-0.356l0.563,-0.381c0.376,-0.254 0.753,-0.508 1.118,-0.785c0.74,-0.532 1.455,-1.102 2.149,-1.675c0.342,-0.293 0.681,-0.585 1.016,-0.872c0.325,-0.299 0.647,-0.594 0.964,-0.885c0.618,-0.597 1.215,-1.175 1.753,-1.753c0.551,-0.563 1.037,-1.13 1.498,-1.641c0.44,-0.528 0.857,-1.002 1.2,-1.441c0.344,-0.44 0.655,-0.815 0.891,-1.138c0.477,-0.64 0.75,-1.007 0.75,-1.007c0,0 -0.282,0.36 -0.777,0.988c-0.244,0.316 -0.565,0.682 -0.92,1.111c-0.355,0.43 -0.783,0.89 -1.236,1.404c-0.474,0.494 -0.971,1.044 -1.535,1.587c-0.551,0.557 -1.159,1.112 -1.789,1.684c-0.321,0.277 -0.648,0.559 -0.979,0.845c-0.339,0.273 -0.683,0.55 -1.029,0.829c-0.702,0.543 -1.425,1.081 -2.169,1.581c-0.367,0.259 -0.748,0.498 -1.122,0.733l-0.56,0.353l-0.569,0.328c-0.751,0.444 -1.512,0.833 -2.254,1.198c-0.373,0.174 -0.741,0.345 -1.101,0.512c-0.365,0.15 -0.721,0.297 -1.067,0.44c-0.343,0.148 -0.701,0.262 -1.035,0.387c-0.169,0.06 -0.334,0.118 -0.496,0.176c-0.148,0.048 -0.315,0.103 -0.466,0.152c-0.544,0.169 -1.05,0.316 -1.515,0.445c0.669,-0.405 1.417,-0.878 2.223,-1.424c1.545,-1.041 3.3,-2.353 5.088,-3.879c0.223,-0.193 0.448,-0.388 0.675,-0.585c0.22,-0.198 0.443,-0.398 0.666,-0.599c0.449,-0.395 0.892,-0.826 1.34,-1.253c0.893,-0.859 1.76,-1.766 2.609,-2.692c0.413,-0.472 0.827,-0.944 1.238,-1.414c0.394,-0.485 0.798,-0.958 1.176,-1.443c0.758,-0.971 1.479,-1.942 2.129,-2.903c0.322,-0.483 0.649,-0.949 0.937,-1.424c0.295,-0.471 0.595,-0.926 0.85,-1.382c0.54,-0.902 1.001,-1.765 1.407,-2.558c0.194,-0.397 0.38,-0.777 0.559,-1.139c0.158,-0.36 0.309,-0.703 0.45,-1.024c0.151,-0.321 0.257,-0.619 0.367,-0.895c0.113,-0.275 0.216,-0.527 0.31,-0.755c0.162,-0.453 0.288,-0.805 0.375,-1.046c0.086,-0.239 0.133,-0.367 0.133,-0.367c0,0 -0.05,0.128 -0.143,0.369c-0.092,0.241 -0.226,0.593 -0.399,1.046c-0.099,0.228 -0.209,0.48 -0.328,0.754c-0.12,0.276 -0.23,0.573 -0.388,0.891c-0.149,0.32 -0.307,0.66 -0.473,1.018c-0.185,0.358 -0.38,0.735 -0.582,1.128c-0.423,0.784 -0.898,1.635 -1.455,2.521c-0.263,0.448 -0.57,0.896 -0.874,1.357c-0.295,0.466 -0.635,0.924 -0.966,1.396c-0.665,0.939 -1.401,1.885 -2.172,2.827c-0.385,0.472 -0.796,0.931 -1.195,1.401c-0.418,0.455 -0.838,0.911 -1.257,1.368c-0.858,0.893 -1.738,1.77 -2.636,2.59c-0.45,0.408 -0.889,0.815 -1.353,1.202c-0.228,0.195 -0.455,0.389 -0.681,0.582c-0.226,0.185 -0.45,0.369 -0.672,0.551c-1.796,1.453 -3.554,2.691 -5.104,3.674c-0.861,0.547 -1.653,1.014 -2.353,1.408c0.266,-0.287 0.543,-0.596 0.835,-0.931c0.657,-0.739 1.366,-1.597 2.13,-2.538c0.754,-0.948 1.556,-1.984 2.38,-3.091c0.819,-1.106 1.678,-2.288 2.55,-3.508c0.868,-1.224 1.762,-2.483 2.669,-3.761c0.906,-1.273 1.827,-2.567 2.746,-3.857c1.82,-2.576 3.653,-5.178 5.193,-7.598c0.776,-1.21 1.482,-2.378 2.15,-3.457c0.654,-1.083 1.237,-2.09 1.761,-2.987c0.501,-0.89 0.949,-1.687 1.339,-2.38c0.36,-0.667 0.668,-1.238 0.916,-1.696c0.241,-0.448 0.417,-0.786 0.525,-1.011c0.122,-0.219 0.187,-0.336 0.187,-0.336c0,0 -0.068,0.118 -0.196,0.34" style="fill:#fff;fill-rule:nonzero;"/></g><g id="ICONOS"></g></svg>