<?xml version="1.0" encoding="UTF-8" standalone="no"?><!DOCTYPE svg PUBLIC "-//W3C//DTD SVG 1.1//EN" "http://www.w3.org/Graphics/SVG/1.1/DTD/svg11.dtd"><svg width="100%" height="100%" viewBox="0 0 720 180" version="1.1" xmlns="http://www.w3.org/2000/svg" xmlns:xlink="http://www.w3.org/1999/xlink" xml:space="preserve" xmlns:serif="http://www.serif.com/" style="fill-rule:evenodd;clip-rule:evenodd;stroke-linejoin:round;stroke-miterlimit:1.41421;"><g><path d="M51.496,-13.867l0,116.738l-21.257,0l0,-78.811l-8.491,78.811l-15.076,0l-8.953,-77.008l0,77.008l-21.256,0l0,-116.738l31.48,0c0.924,7.019 1.906,15.287 2.946,24.804l3.35,29.708l5.545,-54.512l31.712,0Z" style="fill:#bfbfbf;fill-rule:nonzero;"/><path d="M110.976,-13.867l0,78.018c0,8.844 -0.231,15.058 -0.693,18.639c-0.462,3.581 -1.829,7.258 -4.101,11.032c-2.272,3.773 -5.266,6.633 -8.982,8.58c-3.716,1.947 -8.096,2.92 -13.141,2.92c-5.584,0 -10.513,-1.153 -14.787,-3.461c-4.274,-2.307 -7.471,-5.311 -9.589,-9.013c-2.118,-3.701 -3.369,-7.607 -3.754,-11.717c-0.385,-4.11 -0.578,-12.75 -0.578,-25.921l0,-69.077l24.318,0l0,87.535c0,5.096 0.222,8.353 0.664,9.771c0.443,1.418 1.339,2.127 2.686,2.127c1.541,0 2.532,-0.781 2.975,-2.344c0.443,-1.562 0.664,-5.251 0.664,-11.068l0,-86.021l24.318,0Z" style="fill:#bfbfbf;fill-rule:nonzero;"/><path d="M166.356,21.465l-22.585,0l0,-8.653c0,-4.038 -0.289,-6.609 -0.867,-7.715c-0.578,-1.106 -1.54,-1.658 -2.888,-1.658c-1.463,0 -2.57,0.745 -3.321,2.235c-0.751,1.49 -1.127,3.749 -1.127,6.778c0,3.893 0.424,6.826 1.271,8.796c0.809,1.971 3.1,4.351 6.874,7.139c10.821,8.027 17.637,14.613 20.448,19.756c2.811,5.144 4.216,13.436 4.216,24.877c0,8.316 -0.779,14.444 -2.339,18.386c-1.56,3.942 -4.573,7.247 -9.04,9.915c-4.467,2.667 -9.665,4.001 -15.596,4.001c-6.508,0 -12.062,-1.538 -16.664,-4.614c-4.602,-3.077 -7.615,-6.994 -9.04,-11.753c-1.425,-4.759 -2.137,-11.513 -2.137,-20.262l0,-7.643l22.585,0l0,14.205c0,4.374 0.318,7.186 0.953,8.436c0.635,1.25 1.762,1.875 3.379,1.875c1.617,0 2.821,-0.793 3.61,-2.38c0.79,-1.586 1.184,-3.941 1.184,-7.066c0,-6.874 -0.751,-11.368 -2.252,-13.484c-1.541,-2.115 -5.334,-5.648 -11.38,-10.599c-6.045,-4.999 -10.05,-8.628 -12.014,-10.888c-1.964,-2.259 -3.591,-5.384 -4.881,-9.373c-1.29,-3.99 -1.935,-9.086 -1.935,-15.287c0,-8.941 0.915,-15.478 2.744,-19.612c1.829,-4.134 4.784,-7.367 8.866,-9.698c4.082,-2.331 9.011,-3.497 14.787,-3.497c6.316,0 11.697,1.274 16.145,3.821c4.448,2.548 7.393,5.757 8.838,9.626c1.444,3.87 2.166,10.444 2.166,19.721l0,4.615Z" style="fill:#bfbfbf;fill-rule:nonzero;"/><path d="M170.442,-13.867l40.549,0l0,23.362l-16.231,0l0,22.136l15.191,0l0,22.209l-15.191,0l0,25.669l17.848,0l0,23.362l-42.166,0l0,-116.738Z" style="fill:#bfbfbf;fill-rule:nonzero;"/><path d="M269.605,54.489c0,11.729 -0.221,20.033 -0.664,24.912c-0.443,4.879 -1.829,9.337 -4.159,13.375c-2.33,4.038 -5.478,7.139 -9.444,9.302c-3.967,2.163 -8.588,3.244 -13.863,3.244c-5.006,0 -9.502,-1.021 -13.488,-3.064c-3.985,-2.043 -7.191,-5.107 -9.617,-9.193c-2.426,-4.086 -3.87,-8.533 -4.332,-13.34c-0.462,-4.807 -0.693,-13.219 -0.693,-25.236l0,-19.973c0,-11.729 0.221,-20.033 0.664,-24.913c0.443,-4.879 1.829,-9.337 4.159,-13.375c2.329,-4.038 5.478,-7.138 9.444,-9.301c3.966,-2.164 8.587,-3.245 13.863,-3.245c5.006,0 9.502,1.021 13.487,3.064c3.986,2.043 7.192,5.108 9.618,9.194c2.426,4.086 3.87,8.532 4.332,13.339c0.462,4.807 0.693,13.219 0.693,25.237l0,19.973Zm-24.318,-38.36c0,-5.432 -0.241,-8.905 -0.722,-10.419c-0.481,-1.514 -1.473,-2.271 -2.975,-2.271c-1.27,0 -2.243,0.612 -2.917,1.838c-0.674,1.226 -1.011,4.843 -1.011,10.852l0,54.511c0,6.778 0.222,10.96 0.665,12.546c0.443,1.587 1.473,2.38 3.09,2.38c1.656,0 2.715,-0.914 3.177,-2.74c0.462,-1.827 0.693,-6.177 0.693,-13.051l0,-53.646Z" style="fill:#bfbfbf;fill-rule:nonzero;"/><path d="M363.439,-13.867l0,116.738l-21.256,0l0,-78.811l-8.491,78.811l-15.076,0l-8.953,-77.008l0,77.008l-21.257,0l0,-116.738l31.48,0c0.925,7.019 1.907,15.287 2.946,24.804l3.351,29.708l5.545,-54.512l31.711,0Z" style="fill:#bfbfbf;fill-rule:nonzero;"/><path d="M422.92,-13.867l0,78.018c0,8.844 -0.231,15.058 -0.694,18.639c-0.462,3.581 -1.829,7.258 -4.101,11.032c-2.272,3.773 -5.266,6.633 -8.982,8.58c-3.716,1.947 -8.096,2.92 -13.141,2.92c-5.583,0 -10.512,-1.153 -14.787,-3.461c-4.274,-2.307 -7.47,-5.311 -9.588,-9.013c-2.118,-3.701 -3.37,-7.607 -3.755,-11.717c-0.385,-4.11 -0.577,-12.75 -0.577,-25.921l0,-69.077l24.317,0l0,87.535c0,5.096 0.222,8.353 0.665,9.771c0.443,1.418 1.338,2.127 2.686,2.127c1.54,0 2.532,-0.781 2.974,-2.344c0.443,-1.562 0.665,-5.251 0.665,-11.068l0,-86.021l24.318,0Z" style="fill:#bfbfbf;fill-rule:nonzero;"/><path d="M481.072,-13.867l0,116.738l-21.315,0l-12.65,-53.069l0,53.069l-20.332,0l0,-116.738l20.332,0l13.632,52.565l0,-52.565l20.333,0Z" style="fill:#bfbfbf;fill-rule:nonzero;"/><rect x="485.273" y="-13.867" width="24.318" height="116.737" style="fill:#bfbfbf;fill-rule:nonzero;"/><path d="M570.574,37.039l-24.318,0l0,-20.333c0,-5.913 -0.26,-9.602 -0.78,-11.068c-0.52,-1.466 -1.666,-2.199 -3.437,-2.199c-2.002,0 -3.273,0.889 -3.812,2.667c-0.539,1.779 -0.809,5.625 -0.809,11.537l0,54.223c0,5.672 0.27,9.373 0.809,11.104c0.539,1.73 1.752,2.596 3.639,2.596c1.81,0 2.994,-0.866 3.552,-2.596c0.558,-1.731 0.838,-5.792 0.838,-12.186l0,-14.637l24.318,0l0,4.543c0,12.065 -0.684,20.622 -2.051,25.669c-1.367,5.047 -4.39,9.47 -9.069,13.267c-4.678,3.798 -10.445,5.696 -17.3,5.696c-7.124,0 -12.996,-1.61 -17.617,-4.831c-4.621,-3.22 -7.682,-7.679 -9.184,-13.375c-1.502,-5.696 -2.253,-14.265 -2.253,-25.705l0,-34.106c0,-8.412 0.231,-14.721 0.693,-18.927c0.462,-4.206 1.839,-8.256 4.13,-12.15c2.291,-3.894 5.468,-6.958 9.531,-9.193c4.063,-2.236 8.732,-3.353 14.007,-3.353c7.163,0 13.074,1.73 17.733,5.191c4.66,3.461 7.721,7.776 9.185,12.943c1.463,5.168 2.195,13.207 2.195,24.119l0,11.104Z" style="fill:#bfbfbf;fill-rule:nonzero;"/><rect x="573.736" y="-13.867" width="24.318" height="116.737" style="fill:#bfbfbf;fill-rule:nonzero;"/><path d="M602.255,-13.867l24.492,0c6.623,0 11.716,0.649 15.278,1.947c3.562,1.298 6.238,3.173 8.029,5.624c1.79,2.452 3.003,5.42 3.639,8.905c0.635,3.485 0.953,8.881 0.953,16.188l0,10.167c0,7.45 -0.616,12.882 -1.849,16.295c-1.232,3.413 -3.494,6.033 -6.787,7.86c-3.292,1.826 -7.595,2.74 -12.909,2.74l-6.528,0l0,47.012l-24.318,0l0,-116.738Zm24.318,19.973l0,29.708c0.694,0.048 1.29,0.072 1.791,0.072c2.233,0 3.783,-0.685 4.65,-2.055c0.866,-1.37 1.3,-4.218 1.3,-8.545l0,-9.59c0,-3.989 -0.501,-6.585 -1.502,-7.787c-1.001,-1.202 -3.081,-1.803 -6.239,-1.803Z" style="fill:#bfbfbf;fill-rule:nonzero;"/><path d="M695.122,-13.867l13.921,116.738l-24.895,0l-1.213,-20.983l-8.722,0l-1.445,20.983l-25.184,0l12.361,-116.738l35.177,0Zm-12.881,75.061c-1.232,-13.219 -2.464,-29.539 -3.696,-48.959c-2.465,22.305 -4.005,38.624 -4.621,48.959l8.317,0Z" style="fill:#bfbfbf;fill-rule:nonzero;"/><path d="M731.96,-13.867l0,93.376l14.787,0l0,23.362l-39.105,0l0,-116.738l24.318,0Z" style="fill:#bfbfbf;fill-rule:nonzero;"/></g><g><path d="M268.276,66.691l8.184,50.454l-14.636,0l-0.713,-9.068l-5.128,0l-0.849,9.068l-14.806,0l7.267,-50.454l20.681,0Zm-7.573,32.442c-0.724,-5.714 -1.449,-12.767 -2.173,-21.16c-1.449,9.639 -2.355,16.693 -2.717,21.16l4.89,0Z" style="fill:#131a22;fill-rule:nonzero;"/><path d="M308.044,66.691l0,50.454l-12.531,0l-7.437,-22.936l0,22.936l-11.953,0l0,-50.454l11.953,0l8.014,22.719l0,-22.719l11.954,0Z" style="fill:#131a22;fill-rule:nonzero;"/><path d="M343.804,85.265l-14.296,0l0,-4.581c0,-2.888 -0.136,-4.696 -0.408,-5.423c-0.271,-0.727 -0.917,-1.09 -1.935,-1.09c-0.883,0 -1.483,0.311 -1.8,0.934c-0.317,0.624 -0.476,2.223 -0.476,4.8l0,24.214c0,2.264 0.159,3.755 0.476,4.472c0.317,0.717 0.951,1.075 1.902,1.075c1.041,0 1.748,-0.405 2.122,-1.215c0.373,-0.811 0.56,-2.39 0.56,-4.737l0,-5.984l-2.886,0l0,-7.666l16.741,0l0,27.081l-8.999,0l-1.324,-3.615c-0.974,1.559 -2.202,2.727 -3.685,3.506c-1.482,0.779 -3.231,1.169 -5.246,1.169c-2.4,0 -4.647,-0.535 -6.741,-1.605c-2.094,-1.07 -3.684,-2.394 -4.771,-3.973c-1.087,-1.579 -1.766,-3.236 -2.037,-4.971c-0.272,-1.735 -0.408,-4.337 -0.408,-7.807l0,-14.989c0,-4.82 0.283,-8.321 0.849,-10.502c0.566,-2.182 2.19,-4.182 4.873,-6c2.683,-1.817 6.152,-2.726 10.408,-2.726c4.188,0 7.663,0.789 10.425,2.368c2.762,1.579 4.562,3.454 5.4,5.625c0.837,2.171 1.256,5.324 1.256,9.458l0,2.182Z" style="fill:#131a22;fill-rule:nonzero;"/><path d="M346.557,66.691l23.839,0l0,10.097l-9.542,0l0,9.568l8.931,0l0,9.598l-8.931,0l0,11.094l10.493,0l0,10.097l-24.79,0l0,-50.454Z" style="fill:#131a22;fill-rule:nonzero;"/><path d="M386.97,66.691l0,40.357l8.694,0l0,10.097l-22.99,0l0,-50.454l14.296,0Z" style="fill:#131a22;fill-rule:nonzero;"/><path d="M427.961,96.234c0,5.07 -0.131,8.659 -0.391,10.768c-0.26,2.108 -1.075,4.035 -2.445,5.78c-1.37,1.746 -3.22,3.086 -5.552,4.021c-2.332,0.934 -5.049,1.402 -8.15,1.402c-2.943,0 -5.586,-0.442 -7.929,-1.325c-2.343,-0.883 -4.228,-2.207 -5.654,-3.973c-1.427,-1.766 -2.276,-3.688 -2.547,-5.765c-0.272,-2.078 -0.408,-5.714 -0.408,-10.908l0,-8.632c0,-5.069 0.13,-8.658 0.391,-10.767c0.26,-2.109 1.075,-4.036 2.445,-5.781c1.369,-1.745 3.22,-3.085 5.552,-4.02c2.332,-0.935 5.048,-1.402 8.15,-1.402c2.943,0 5.586,0.441 7.929,1.324c2.343,0.883 4.228,2.208 5.654,3.973c1.426,1.766 2.275,3.688 2.547,5.766c0.272,2.077 0.408,5.713 0.408,10.907l0,8.632Zm-14.297,-16.579c0,-2.347 -0.141,-3.848 -0.424,-4.503c-0.283,-0.654 -0.866,-0.981 -1.749,-0.981c-0.747,0 -1.319,0.264 -1.715,0.794c-0.396,0.53 -0.594,2.093 -0.594,4.69l0,23.56c0,2.93 0.13,4.737 0.39,5.423c0.261,0.685 0.866,1.028 1.817,1.028c0.973,0 1.596,-0.395 1.868,-1.184c0.271,-0.79 0.407,-2.67 0.407,-5.641l0,-23.186Z" style="fill:#131a22;fill-rule:nonzero;"/><path d="M462.431,66.691l0,50.454l-12.531,0l-7.437,-22.936l0,22.936l-11.953,0l0,-50.454l11.953,0l8.014,22.719l0,-22.719l11.954,0Z" style="fill:#131a22;fill-rule:nonzero;"/><rect x="465.388" y="66.691" width="14.296" height="50.454" style="fill:#131a22;fill-rule:nonzero;"/><path d="M272.385,121.691l0,10.097l-8.49,0l0,40.357l-14.296,0l0,-40.357l-8.456,0l0,-10.097l31.242,0Z" style="fill:#131a22;fill-rule:nonzero;"/><path d="M303.111,121.691l8.184,50.454l-14.636,0l-0.713,-9.068l-5.127,0l-0.849,9.068l-14.806,0l7.267,-50.454l20.68,0Zm-7.572,32.442c-0.725,-5.714 -1.449,-12.767 -2.174,-21.16c-1.448,9.639 -2.354,16.693 -2.716,21.16l4.89,0Z" style="fill:#131a22;fill-rule:nonzero;"/><path d="M319.304,121.691l14.398,0c3.894,0 6.888,0.281 8.982,0.842c2.094,0.561 3.668,1.371 4.72,2.43c1.053,1.06 1.766,2.343 2.14,3.849c0.373,1.506 0.56,3.838 0.56,6.996l0,4.395c0,3.22 -0.362,5.567 -1.087,7.043c-0.724,1.475 -2.054,2.607 -3.99,3.396c-1.935,0.79 -4.465,1.185 -7.589,1.185l-3.838,0l0,20.318l-14.296,0l0,-50.454Zm14.296,8.633l0,12.839c0.408,0.021 0.759,0.031 1.053,0.031c1.313,0 2.224,-0.296 2.734,-0.888c0.509,-0.592 0.764,-1.823 0.764,-3.693l0,-4.145c0,-1.724 -0.295,-2.846 -0.883,-3.365c-0.589,-0.52 -1.811,-0.779 -3.668,-0.779Z" style="fill:#131a22;fill-rule:nonzero;"/><rect x="359.777" y="121.691" width="14.296" height="50.454" style="fill:#131a22;fill-rule:nonzero;"/><path d="M410.063,121.691l8.184,50.454l-14.636,0l-0.713,-9.068l-5.128,0l-0.849,9.068l-14.805,0l7.267,-50.454l20.68,0Zm-7.572,32.442c-0.725,-5.714 -1.449,-12.767 -2.174,-21.16c-1.449,9.639 -2.354,16.693 -2.716,21.16l4.89,0Z" style="fill:#131a22;fill-rule:nonzero;"/></g><g><path d="M312.994,11.887c0,-2.16 -1.44,-4.14 -5.04,-4.14l-5.76,0l0,12.6l3.6,0l0,-4.32l2.16,0c3.6,0 5.04,-1.98 5.04,-4.14Zm-3.6,0c0,0.9 -0.54,1.62 -1.62,1.62l-1.98,0l0,-3.24l1.98,0c1.08,0 1.62,0.72 1.62,1.62Z" style="fill:#f20d0d;fill-rule:nonzero;"/><path d="M317.494,20.347l0,-9l-3.24,0l0,9l3.24,0Zm-1.62,-13.14c-1.26,0 -1.8,0.486 -1.8,1.62c0,1.134 0.54,1.62 1.8,1.62c1.26,0 1.8,-0.486 1.8,-1.62c0,-1.134 -0.54,-1.62 -1.8,-1.62Z" style="fill:#f20d0d;fill-rule:nonzero;"/><path d="M321.814,11.347l-2.52,0l0,9l3.24,0l0,-4.86c0,-1.386 0.378,-1.98 1.26,-1.98c0.882,0 1.26,0.594 1.26,1.98l0,4.86l3.24,0l0,-4.86c0,-3.024 -0.972,-4.32 -3.24,-4.32c-1.404,0 -2.214,0.702 -2.538,2.304l-0.702,-2.124Z" style="fill:#f20d0d;fill-rule:nonzero;"/><path d="M334.054,17.107l0,-3.78l2.52,0l0,-1.98l-2.52,0l0,-2.34l-3.24,0l0,2.34l-1.44,0l0,1.98l1.44,0l0,4.14c0,1.8 1.08,2.88 2.88,2.88l2.88,0l0,-2.34l-1.62,0c-0.54,0 -0.9,-0.36 -0.9,-0.9Z" style="fill:#f20d0d;fill-rule:nonzero;"/><path d="M342.514,11.167c-3.528,0 -5.04,1.404 -5.04,4.68c0,3.276 1.512,4.68 5.04,4.68c3.528,0 5.04,-1.404 5.04,-4.68c0,-3.276 -1.512,-4.68 -5.04,-4.68Zm-1.8,4.68c0,-1.638 0.54,-2.34 1.8,-2.34c1.26,0 1.8,0.702 1.8,2.34c0,1.638 -0.54,2.34 -1.8,2.34c-1.26,0 -1.8,-0.702 -1.8,-2.34Z" style="fill:#f20d0d;fill-rule:nonzero;"/><path d="M352.054,15.847c0,-1.62 0.414,-1.98 1.8,-1.98l1.44,0l0,-2.7l-1.08,0c-1.17,0 -1.854,0.72 -2.16,2.322l-0.72,-2.142l-2.52,0l0,9l3.24,0l0,-4.5Z" style="fill:#f20d0d;fill-rule:nonzero;"/><path d="M368.074,7.387c-4.662,0 -6.66,1.998 -6.66,6.66c0,4.662 1.998,6.66 6.66,6.66c4.662,0 6.66,-1.998 6.66,-6.66c0,-4.662 -1.998,-6.66 -6.66,-6.66Zm0,10.62c-2.016,0 -2.88,-1.188 -2.88,-3.96c0,-2.772 0.864,-3.96 2.88,-3.96c2.016,0 2.88,1.188 2.88,3.96c0,2.772 -0.864,3.96 -2.88,3.96Z" style="fill:#f20d0d;fill-rule:nonzero;"/><path d="M380.674,10.087l1.98,0l0,-2.34l-2.88,0c-1.8,0 -2.88,1.08 -2.88,2.88l0,0.72l-1.44,0l0,1.98l1.44,0l0,7.02l3.24,0l0,-7.02l2.52,0l0,-1.98l-2.52,0l0,-0.72c0,-0.36 0.18,-0.54 0.54,-0.54Z" style="fill:#f20d0d;fill-rule:nonzero;"/><path d="M386.974,20.347l0,-9l-3.24,0l0,9l3.24,0Zm-1.62,-13.14c-1.26,0 -1.8,0.486 -1.8,1.62c0,1.134 0.54,1.62 1.8,1.62c1.26,0 1.8,-0.486 1.8,-1.62c0,-1.134 -0.54,-1.62 -1.8,-1.62Z" style="fill:#f20d0d;fill-rule:nonzero;"/><path d="M394.714,16.927c-0.162,0.882 -0.594,1.26 -1.44,1.26c-1.26,0 -1.8,-0.702 -1.8,-2.34c0,-1.638 0.54,-2.34 1.8,-2.34c0.864,0 1.296,0.378 1.44,1.26l3.24,0c-0.252,-2.52 -1.656,-3.6 -4.68,-3.6c-3.528,0 -5.04,1.404 -5.04,4.68c0,3.276 1.512,4.68 5.04,4.68c3.024,0 4.428,-1.08 4.68,-3.6l-3.24,0Z" style="fill:#f20d0d;fill-rule:nonzero;"/><path d="M402.454,20.347l0,-9l-3.24,0l0,9l3.24,0Zm-1.62,-13.14c-1.26,0 -1.8,0.486 -1.8,1.62c0,1.134 0.54,1.62 1.8,1.62c1.26,0 1.8,-0.486 1.8,-1.62c0,-1.134 -0.54,-1.62 -1.8,-1.62Z" style="fill:#f20d0d;fill-rule:nonzero;"/><path d="M403.714,17.647c0,2.016 0.972,2.88 3.24,2.88c1.386,0 2.196,-0.612 2.52,-1.98l0.72,1.8l2.52,0l0,-5.76c0,-2.394 -1.296,-3.42 -4.32,-3.42c-3.024,0 -4.32,0.864 -4.32,2.88l3.06,0c0,-0.756 0.342,-1.08 1.152,-1.08c0.828,0 1.188,0.378 1.188,1.26l0,0.36l-1.26,0c-3.15,0 -4.5,0.918 -4.5,3.06Zm4.86,-1.26l0.9,0l0,0.36c0,1.134 -0.432,1.62 -1.44,1.62c-0.756,0 -1.08,-0.216 -1.08,-0.9c0,-0.828 0.486,-1.08 1.62,-1.08Z" style="fill:#f20d0d;fill-rule:nonzero;"/><rect x="414.334" y="7.747" width="3.24" height="12.6" style="fill:#f20d0d;fill-rule:nonzero;"/></g></svg>