<?xml version="1.0" encoding="utf-8"?>
<!-- Generator: Adobe Illustrator 22.0.1, SVG Export Plug-In . SVG Version: 6.00 Build 0)  -->
<svg version="1.1" id="Capa_1" xmlns="http://www.w3.org/2000/svg" xmlns:xlink="http://www.w3.org/1999/xlink" x="0px" y="0px"
	 viewBox="0 0 297.6 208" style="enable-background:new 0 0 297.6 208;" xml:space="preserve">
<g>
	<g>
		<path d="M227.3,57.6v1.5C227.3,58.6,227.3,58.1,227.3,57.6z"/>
		<path d="M269.9,100c1.2-2.3-0.5-4.6,0-7.3c-0.8-2.5-0.5-5.5-1.3-8c-0.1-1.5,0.8-3.1,0.3-4.4c1.4-3.9,0.4-8.7,1-12.6
			c0.4-0.6,0.8-1.2,0.8-2c-0.4-4.3-0.3-7.5-0.2-11.9c0.3-1.5,0.7-3.2-0.8-4.3c-1.3-1-2.7-0.5-3.9,0.1c-5.2-0.2-9.9,0.4-15,0.5
			c-6.2-0.8-11.8,0.4-17.6-0.5c-0.8-0.5-1.9-0.5-2.9-0.5c-0.8,1.1-2.8,1-2.9,2.8c-0.1-0.3-0.4-0.5-0.4-0.9c-1-1.5-2.9-2-4.6-1.6
			c-1.5,0.8-3.8,0.2-5.3,0.5c-4.5-0.8-8.7-0.7-13.3-1c-4.9,0-10.2-0.8-14.9,0.7c-3,0.5-7.5-1.8-8.9,2.1c-1,5.2,0.9,10.1-0.1,15.3
			c-0.5,9.8,1.4,19.2,0.9,29c-0.3,1.9,0.5,4.2-0.2,6c-0.7,1.5,0.9,2.5,0.2,3.9c0.6,2.2,3.1,0.8,4.6,1.2c13.1,0.3,24.9,0.6,36.8-2.5
			c1.4-0.1,3.3,0.3,4.4-0.8c-0.9-4.1-1.3-8.3-1.9-12.6c-1.3-7.4-2.4-15.6,1.4-22.3c-0.1-3.5,1-6.4,1.2-9.7v-1.5c0,0.5,0,1,0,1.5v5.9
			c0.6,10.8,1,21.4,0.7,32.4c1.7,2.6-1.1,4.8-0.1,7.6c0.8,1,2.8,0.1,3.9,0.8c5.7-0.8,11.7,0.7,17.1-1.3c2.7,0.3,5.9,0.5,8.6,0.8
			c3.4,1.1,6.8,0.1,10.5,0.4c0.9,0.5,2,0.5,2.9,0C271.3,103.8,270.3,101.8,269.9,100z M196.6,51.2c7.8,0.4,16.3-0.2,24.3,0
			c0.2,1.5,0.2,3.5,0,5.1c-1.1-3.9-6-1.1-8.5-2.8c-0.9-0.7-1.9-1-3-1.2c-1.3,0.9-2.3,2.2-1.7,3.8c1.5,1.9,0.1,4.7,1.9,6.5l0.4,1.5
			c-1.2,0.8-2.5,0-3.5,1.2c-1,0-1.5-1.1-2.3-1.3l-1.7-0.5c0.5-1.7-0.7-3-0.8-4.7c1.1-0.5,2.3-1.4,3.3-2.1c-0.8-1.2-0.4-3.3-2.3-3.5
			c-0.9-0.4-2.1-0.7-3.2-0.4l-1.1,1.1l0.3,8.2c-0.1,0.6,1.3,1.1,0.2,1.5c-1.1-0.4-1.6,0.7-2.2,1.3c-0.4,1.3,1,3.3-1.2,3.3h-0.5
			c0.7-0.2,1.6-1.2,1.1-2.1c-0.5-1.2-2.9-0.3-2.2-2c-0.6-1.5-1.2-3.4,0-5c1.4-0.2,0.8-1.8,1.7-2.5c-0.9-1,0.2-2.7-1.3-3.5
			c-0.6-0.5-1.3-0.6-2.1-0.5C192.9,51.1,195,51.5,196.6,51.2z M220.9,56.8v8.5c-2.9-0.9-5.6,0.1-8.5-0.8c0.6-1.5-0.3-4.2,2-5.4
			c0.4-2.1,2.6-1.7,4.1-2.2C219.2,57.2,220.3,57.8,220.9,56.8z M200.1,67.3l0.1-1l2.1,0.4c-0.3,2.1,1.1,4,0.2,5.9h-0.8
			C202.3,70.7,202,68.6,200.1,67.3z M197.6,101.3h-1c0.7-0.7,0.1-1.4-0.1-2.1c-0.7-2.7,1.9-4.7,0.2-7.2l-0.9-0.7
			c-0.3-3.3-1.2-6.7,0.2-9.7c0-2.6-3.2-4.4-1.7-7.2l0.7-2c0.8-0.1,1.4,0.2,2,0.5c-1,5.9,2.5,10.9,1.6,16.7c0.4,3.3,0.3,6.3,0.1,9.5
			C198.3,100,197.4,100.4,197.6,101.3z M190.8,89.6c0.1-1.4,0.9-2.5,1.3-3.8c0.7-0.2,0.9,0.6,0.9,1c1.1,2.7-0.5,6.1,0.9,8.6
			c0.5,2,1.7,3.8,1.4,5.9l-1.1,0.7c-0.5-1.2-2.6,0-2.5-1.8c-0.7-0.2-0.4-1-0.3-1.5c0.5-0.9,0.5-2.3,1.1-3.4
			C193.2,92.9,190.4,92.1,190.8,89.6z M183,74.4c1-2.5,1.5-5.7,0.5-8.3c0.3-2.1-1.1-4.5,0.1-6.5c-0.7-2-0.3-3.7-0.2-5.9
			c1.5,0.2,2.7-1.3,4.6-0.8c-0.2,0.3-0.4,0.7-0.7,0.8c-1.3-0.3-2.1,0.9-2.8,1.6c0.5,1.7,2.1-0.7,2.3,1.3c2.8-0.3,0.8,2.6,2,3.8
			c0.5,1.1-0.8,2-1.4,2.7c-3.8,0.4-1.5,5.4-2.5,7.7c-1.4,3-0.9,6.9-2,10.1l-0.2,0.2C182.3,79,183.4,77,183,74.4z M209.4,101.2
			l0.2,1.5c-7.6,0.8-14.1,1.7-21.7,1.9c-1.7-0.2-3.2,0.7-4.8,0.4c-0.7-1,1.3-0.9,0.5-2c-1.1-1.8-1.1-4.1-1-6.4
			c-0.5-2.7,0.5-5.8-0.4-8.5c0.9-1.5-0.9-3.9,1-4.4c1-0.5,0.5-2.7,2.3-2.1c0.8-1.3,0.5-3.1,1.7-4.2c0.1-2,0.8-3.6,0.9-5.6
			c0.9,2.2-0.1,4.1,0.6,6.3c-2.6,3.3,0.4,7.1,0.4,10.7c0.1,1.7-0.7,3.1-1.1,4.6c-0.7,3.6,1.8,6.7,0.4,9.8c1.2,1.1,2.6-0.9,3.8,0.1
			c0.8,0.2,1.3-0.4,1.8-0.8c-0.1,1.4,1.5,0.7,2.2,1c2-1.1,3.9,1.1,5.5-0.9l0.2-0.4c-0.5-0.8-2.2-1.1-1.7-2.3
			c-0.5-2.2,0.5-4.1,0.3-6.5c0.2-2.5,1.6-4.5,1.9-6.9c0.8,1.1-0.1,2.4,0.4,3.6c1,3.4,1.3,7.1,2.6,10.3c0.7,0.8,1.4,0,2.2-0.2
			c1.5-0.5-0.2-1.6-0.3-2.3c-0.8-3.7-0.5-7.3-1.7-10.8c-0.9-3.4,1.1-6.1,0.2-9.5c-0.7-2.2,0.2-4.5,0.8-6.4c0.7-1-0.5-3.3,1.6-3.2
			c0.7,5.7,0.2,11.7,0.5,17.4c0.8,1.7,0.3,4.1,0.5,6.3c0.7,2.3,0.1,5.2,1,7.5C210.1,100,210.4,100.8,209.4,101.2z M224,102
			c-3.3-0.2-7.7,0.9-11.7,0.7c-0.2-0.3,0.4-0.4,0.5-0.9c1-1.6-1.9-2-0.1-3.3c0-1,0.5-2.2,0.5-3.4c-0.9-1.7,2.7-2.2,1-4
			c0.3-1.3-1.1-2.2-0.2-3.4c-0.4-0.9-0.8-2.1,0-3c0.3-0.2,0.4-0.7,0.9-0.5c0.2,1,1.3,1.7,1.5,2.7c0.3,4.6,2.4,8.3,3.5,12.5
			c0.3,0.3,0.8,0.6,1.1,0.3l0.3-0.4c0.9-2.2-1.9-4.2,0.4-6c0.5-2.5-2.5-3.1-1.7-5.7c-0.6-1.7-0.8-3.7-2-5.1
			c-0.4-1.3,0.1-2.4,0.9-3.3c-0.5-2,0.2-4.4-1.9-5.8l-1-5c1.4-1.6,3.2,0.3,5.1-0.1c1.3,11.2,0.6,22,2.1,32.8L224,102z M267.8,100.7
			c-9.1,0.2-19.6,0.3-29.1,0.4c-3.2-0.2-6.2,0.8-9,0.7c-0.3-3.2,0.2-5.6,0.8-8.7c0.3-2.8-0.1-5.7,0.2-8.8c2.6-3.6-1.3-8.4,1.8-11.8
			c0.1-5.7-0.3-11.2,0.4-16.7c-0.4-1.1-0.2-2.5-1.3-3.4c3.6,1.5,8.2,0.7,11.5-0.8c2.6-0.7,5.2,0.8,7.8,0.3c5-1.3,9.4-1.3,14.7-1
			l0.5,6.9c-0.5,2.8,0.5,6.1,0.1,9.1c-0.3,10.3,1.7,21.1,1.3,31.4C268.1,99.1,268.1,100,267.8,100.7z"/>
		<path d="M262.6,73.9c0-0.9-0.3-2.2,0.4-3c-0.4-0.9-1.4-1.4-2.3-1.4c-1.6-0.3-1.4,1.6-2.2,2.3c-0.9-0.3-2.1,0.1-2.9-0.4
			c0.2-1.7-0.7-3-0.4-4.7c-0.9-1.9-0.2-4.5-1.7-6.1c-0.5-1,0.8-1.8,1.4-2.4c0.3-1.2-0.4-2.4-1.3-3.3c0.4-0.5,1.3-0.4,1.3-1.1
			c-0.9-1.5-3.1-2-4.7-1.2c0.3,1.2-0.7,2.3-0.4,3.4c0.9,1.2-0.7,2.5,0.3,3.6c-0.5,1-0.7,2.4-0.4,3.4c-1.7,0.1-1.6,2.2-3.1,2.8
			c-3.5,0.8-6.4,3.1-9.4,4.8c-3.2,3.9-3.3,9.1-3,14.2c0.9,4.5,3.2,9,7.8,11c1.1,0.6,2.6,0.6,3.7,1.3c-0.2,1.4,1.4,1.1,2,2.1l2.6,0.4
			c0.7-0.3,1.1-0.8,1.6-1.5c0.5-0.1,0.8,0.3,1.1,0.5c1.1,1.2,2.7,0.1,3.4-1c-0.3-2.9,1.8-5.9-0.3-8.7c-0.4-0.9-0.4-1.8,0-2.7
			c1.5,0.1,2.7-0.8,4.2-0.4c-0.2,0.3-0.2,0.7-0.5,0.9c-1.3,0.1-1.1,1.3-1.1,2.2c0.5,3.4,3.6,5.7,3,9.6c0.4,0.7,1.3,0.5,2,0.5
			c0.3-0.3,0.8-0.4,0.8-0.9c-0.7-3.2,0.2-6,0.2-9.1c0.2-1.5-0.9-1.6-0.9-3c0.3-0.4,0.8-0.5,1.1-0.7c0.6-0.9,1.6-1.9,1.1-3.1
			C264.5,79.6,265.2,76,262.6,73.9z M242.1,71.8l0.3,4.6l-0.3,0.4V71.8z M242.3,93.8c-1.1-0.1-2.3-0.8-3-2c0-1.9-2.1-2.9-1.7-5
			c0.3-3.2-0.3-7.2,0.5-10.2c0.3,4-0.1,9.3,0.8,13.3l0.1,0.1l0.4-0.4c-0.9-6.3,0.7-12.3-0.4-18.3c0.2-0.5,0.7-0.8,1.2-0.8
			c0.3,7.3-0.8,14.7,0.4,22.1c0.2,0.2,0.4,0.3,0.7,0.3l0.5-0.7l0.2-14l0.4,0.4C242.9,83.6,242.3,89.1,242.3,93.8z M244.3,94.6
			c-0.7-3.6-0.9-8.1-0.4-11.8c0.4-1.3-0.3-2.6,0.1-3.7h0.3V94.6z M244.3,75.9h-0.4c-0.1-2.1-0.1-4.6-1.2-6.4l1.7-0.9
			C244.4,70.9,244.8,73.5,244.3,75.9z M246,94l-0.3-0.4c-0.2-4.7-0.1-9.2-0.1-13.8c0.5,0.2,1.2,0.2,1.6-0.3
			C247.6,84.3,247.1,89.5,246,94z M247.3,70.9c-0.3,0.3-0.9,0.4-1,0.9c-0.2,0.9,0.9,1.1,1.2,1.9c-0.4,0.7,0.3,2-0.7,2.2l-1.5-0.1
			c-0.4-2.7,0.9-5.3,0.7-8.2c0.5-0.4,1-0.9,1.6-0.9L247.3,70.9z M251.9,74.2c0.4,0,0.5,0.2,0.7,0.5l-0.9,0.5
			C251.2,74.9,251.8,74.5,251.9,74.2z M250.7,63.3l0.1,1.1C250.6,64.1,250.2,63.6,250.7,63.3z M250.8,65.2c-0.3,1.7,0.7,4.1-0.8,5.2
			h-0.5C249.4,68.6,250.2,66.9,250.8,65.2z M249.8,75.1l-0.3-1.3c0.3-0.1,0.6,0.1,0.7,0.4C250.1,74.6,250.4,75.2,249.8,75.1z
			 M252.3,85.1c-1,0.5-2,0.6-2.8,1.2c0.4-2.7-0.2-5.7,0.4-8.5h0.3c0.1,0.9-0.3,1.9,0.2,2.7c0.8-0.4,0.8-1.6,0.8-2.3
			c0.4-0.3,0.9,0.5,1.3,0.3C253.1,80.4,252.1,82.8,252.3,85.1z M252.7,69.9l-0.5-0.1c-0.1-3.1-0.1-6.1,0.5-8.9
			C252.3,64,254.1,67,252.7,69.9z M255.7,84.3c-0.3-1-0.9-2.3-0.3-3.4c-0.4-0.5,0-1.5,0.3-2c1.3-0.2,2.2-1.3,3.3-2.1l0.5,6.4
			C258.2,83.6,257.1,84.3,255.7,84.3z"/>
		<path d="M256.8,63.9c0.1,2,2.7,2.6,2.9,4.6c3.4,1.1,0.5-2.8,2.1-4.1c0.9-0.2,1,1.2,2,0.9c2.2-0.3,0.3-2.1,1.3-3.2
			c-0.9-1-2.3-1.2-3.4-1.8c-1.8,0.5-4.1-1.4-5.3,0.8C256.1,62.1,255.8,63.3,256.8,63.9z"/>
		<path d="M219.7,99.7c-0.3,0.3-0.1,0.7,0.3,0.9c0.3,0,0.6,0.8,0.9,0.1C220.8,100.1,220.2,99.9,219.7,99.7z"/>
		<path d="M205.5,101.9c0.1,0.4,0.5,0.7,0.9,0.5c0.3-0.1,0.9-0.3,0.7-0.8C206.7,101.1,205.5,101.1,205.5,101.9z"/>
	</g>
	<path d="M197.9,119c0.3,0.6-0.1,1.1-0.1,1.7l-0.8-0.2C197.3,120.1,197.4,119.4,197.9,119z"/>
	<g>
		<path d="M272.1,154.5c0.5-1.7,0.2-4.2-0.3-5.8c-0.1-8.3-2.5-16-2.3-24c0.2-1.7-1-3.1-0.4-4.6c-0.4-4.4,1.9-9.1,0.1-13.1
			c-1.7,0.1-3.5-0.2-5.3-0.3c-7.7-1.2-15.6,0.4-23.3-0.2c-4.1,1.4-9.3-2.3-12.1,1.7l-0.2,13.7l1,31.5l0.3,3.3l2.9,1.7
			c2.9-1.8,7,0.2,10.5-0.9c2.6-0.5,5.5,1.3,8.4,0.7c5.3,2,11.2,0.7,16.6,1.1c1.3-1.3,3.5-0.1,4.8-1.6
			C273.8,156.7,272.2,155.6,272.1,154.5z M245.6,153.8c-2.4,0.8-5,0-7.3,0.9l-4.5,0.2l-0.4-0.2c-0.3-7.6-1.7-14.7-0.3-22
			c1.2,0.2,1.9-1.5,3-0.7c1,0,2.3,0.1,3.5-0.1c1-0.8,1.3-2.1,2.2-2.9c1.5,1.4,0.7,3.8,2.2,5.2c0.2,3.5,0.5,7,0.4,10.5
			c1.6,1.7,1.1,4.4,1.4,6.7C245.5,152.1,245.3,153,245.6,153.8z M250.8,153.8c-0.2-0.2-0.1-0.6-0.1-0.9c0.5-0.2,1.2-0.1,1.4-0.8
			c-0.9-1.7-0.7-3.8-2.2-5.2c0.4-1.5-0.1-3.3-1-4.6c-0.2-2.3-1.3-4.5-0.1-6.7c1.6,2,2.5,4.4,5,5.8c1.1,3.2,5.4,5,5.1,8.8
			c0.4,0.5,0.4,1.1,1.1,1.5c1.4-0.1,1.5-1.6,1.8-2.6c1.2,1.3,1.3,3.2,3,4.4C260.4,153.4,255.5,154.1,250.8,153.8z M266.4,135.7
			c-0.3,4.4,0,10-0.3,14.4c-1.1-1.7-3.3-1.9-4.2-3.5c0.4-1.4-1.2-2.5-1.8-3.8c-1.8-0.5-2-2.4-3.7-3.2V137c-1.4-1.5-1.3-3.7-3-5.1
			c0.3-0.5-1-1,0-1.2c-0.4-1.6-1.7-3.1-2.6-4.5c1-0.2,2.1-0.5,3.2-0.8c2.3-0.8,4.1-3.1,6.9-3c1.1-0.7,3.1-0.1,3.5-1.7
			c0.2-0.8-0.7-1.2-1.3-1.2c-3.4,1.6-7.8,1.1-11.3,2.5c-2.8,2-4.7-1.3-6.8-2.4c-0.2-1.4,1.7-1.3,1.7-2.7c0.9-0.8,2.1-1.1,3.4-0.8
			c0.8,0.7,1.7,0.3,2.7,0.2c0.3-0.3,0.6-0.9,0.3-1.3c-0.8-1-2.2-0.7-3.4-0.8c-1.1,1.5-2.1-0.7-3.3-0.5c-1.8,0.3-3.1-0.3-3.9-1.7
			c-0.8-0.4-1.8-0.8-2.8-0.5c-0.9,0.4-2.4,1-2.4,2.3c-0.8,1.6,0.9,2.9,0.4,4.3c1.5,0.8,1.2,3.3,3.3,3.3l0.9,2.3
			c-2.1,1.7-4.5,2.8-6.8,4.2l-1.4,1.6c0.8-4.6,1.3-9.8,0.5-14.5c0.6-1.4-0.7-3.2,0.7-4.3c7.6,0.4,15.4,0.4,22.9-0.9
			c3.1,0.8,5.9-0.7,8.9-1C267.2,117.9,265.6,126.9,266.4,135.7z"/>
	</g>
	<g>
		<path d="M229,155.5c-0.4-0.9-1.4-0.7-2.2-0.9c-0.6-0.9,0.1-1.9-0.1-3c2.1-4,0.5-8.6,0.3-13c0.5-1,0.6-2.5,0.4-3.5
			c0.8-4-0.1-8,0-12c0.3-4.9,0.4-9.5,0.4-14.4c-0.7-1.9-2.8-2.1-4.6-2.1c-5,0.4-10.8,0.4-15.8,0.5c-9.1,1-17.5,2.6-26.5,1.2
			c-1.2,9.2-1,17.7-0.6,26.9c-0.5,3.2,1,6,0.1,8.9c0.3,5.3-0.4,10.6-0.4,15.8c0.2,0.7,1.1,0.7,1.7,1c3.1-0.8,6.1-1.7,9.4-2
			c8.5-0.7,17.9-0.3,26.9-0.4c2.9,0.5,6.5,0.7,9.2-0.5C227.8,157.5,229.3,156.8,229,155.5z M223.4,155.5c-1.8,1.6-3.7-0.4-5.9,0.3
			c-11.5,0.1-22.1,0.2-33.1,1.4c-0.1,0.2-0.3,0.1-0.4,0.2c0.3-4-0.9-8.9,1.5-12c0.6-1.7,0.3-3.6,0.5-5.6c1.2-2.1-0.2-4.4,0.7-6.4
			c-0.3-1.8,0.5-3.8,0.8-5.6c-0.1-3.2-0.1-6.9-1.5-9.7c-0.2-2.6-1.3-4.8-0.7-7.2c1-0.4,2.7,0.3,3.8-0.5c4.7,0.8,9.1,0.3,13.7-0.7
			c4.1-0.5,8.8-0.2,13-1.1l5.7,0.2c-0.9,14-0.1,27.8,1.3,41.3C223.1,151.9,223.6,153.5,223.4,155.5z"/>
		<path d="M218.2,128.6c-0.5-0.6-0.5-1.4-0.5-2.2c-0.3-0.9-1.6-1-1.8-1.9c0.6-0.9-0.7-1.9-0.2-2.9c1.5-1.1,0.9-4,3.3-3.8
			c1.2-0.5,0.7-1.9,1.2-2.8c-1.7-1.1-3.9-1.6-6.2-1.5c-0.4,1.2-1.7,0.1-2.2,1c-0.5,0.7-1.3,1.4-1.1,2.3c0.3,0.8,0.9,1.6,1.7,2
			c1.3,0.2,1.5,1.7,1.2,2.7c-0.1,2.5-2.7,2-4.4,2.4c-0.4-0.5-0.1-1.4-0.8-1.9c-0.8-0.8-1.9-1-3-1.2c-1.2-0.4-2.6,0.4-3.6-0.2
			c-0.1-2.4-1.5-4.6-0.8-7l-1.3-2.2c-1-0.1-0.8,1.3-1.6,1.7c-0.7,3.4-1.8,6.9-4.7,9.3c-1.7,0.1-3.5,0.2-4.5,2
			c-1,1.8-1.4,4.5-0.7,6.3c-0.1,1.6,0.2,3.4,2,4.2c-0.4,0.7-0.4,1.4,0.3,2c-0.4,3.4,0.4,6.3-0.9,9.4c-0.4,2.9-0.8,5.3-1.1,8.2
			c0.9,1.6,1.7-0.8,2.7-0.9c0.7-1.9,2.6-3.5,1.5-5.7c1-1,0.8-2.4,1.7-3.4c-0.2-1.9,0.7-3.6,1.7-5.2c0.3-0.2,0.7-0.4,1-0.1
			c0.2,4.7-0.7,9.3-1.3,13.8l0.5,0.7l0.8-0.7c0.5-2.8,0.6-5.8,1.5-8.5c0.7-1.8,0.1-4.5,1.8-6.1c2.6-0.2,1.5,2.8,2.5,4.3
			c2,1.8,2.5,4.5,3.5,6.8h0.4c0.5-0.9,0.2-2.1-0.3-2.9c-1-2.7,0.3-5.2-0.1-8c0.4-0.1,1.1,0.2,1.4-0.2c0.7-0.7,0.4-1.3,0.3-2.1
			c0.6-3.2,0.4-5.8,0.7-9c0.9-0.7,2.2-1.5,3.5-0.8l0.1,9c2.2,3.5,0.3,6.9,0.1,10.7c0.9,1.9-0.6,4-0.7,5.9c0.9,0.8,2,1.7,3.4,1.5
			c1.9-0.9,1.3-3.4,1.6-5.1c-2.8-2.3-1.3-6.2-1.3-9.3c0.2-0.3,0-1,0.7-0.9c2.2,4.9,2,10.8,3.3,16.2c0.2,0.6,0.9,0.8,1.4,0.5
			c-0.5-5.7-2.2-10.9-2.1-16.9C218.2,135.2,218.5,131.7,218.2,128.6z"/>
		<path d="M206.8,152.5c0.3,0.5,0.4,1.4,1,1.6c0.5-0.3,1-0.9,1.1-1.5C208.9,151.2,206.8,150.8,206.8,152.5z"/>
	</g>
</g>
<path d="M39.5,52.2v5.2h-5.6v24.5h-5.8V57.4h-5.6v-5.2H39.5z"/>
<path d="M61.6,81.9h-16V52.2h16v5.2H51.4v6.8h10.3v5.1H51.4v7.3h10.3V81.9z"/>
<path d="M75,75.7l-2.3,6.2h-6l11.5-29.7h5l11.4,29.7h-6.2L86,75.7H75z M84.1,70.2l-3.5-9.6L77,70.2H84.1z"/>
<path d="M113.1,52.2v5.2h-5.6v24.5h-5.8V57.4h-5.6v-5.2H113.1z"/>
<path d="M125,81.9h-5.8V52.2h7.1c2.2,0,3.9,0.1,5,0.2c1.1,0.2,2,0.4,2.8,0.8c1.7,0.8,3,1.9,3.9,3.3c0.9,1.4,1.3,3.1,1.3,5
	c0,2.3-0.6,4.2-1.9,5.8c-1.3,1.6-3,2.6-5.2,3l7.4,11.5h-6.9L125,68.1V81.9z M125,66.6h1.3c2.4,0,4.1-0.4,5.4-1.3
	c1.2-0.8,1.8-2.1,1.8-3.7c0-1.6-0.5-2.7-1.5-3.5c-1-0.7-2.6-1.1-4.8-1.1H125V66.6z"/>
<path d="M143.3,67c0-1.6,0.2-3.2,0.7-4.6c0.4-1.4,1.1-2.8,1.9-4.1c1.5-2.1,3.3-3.8,5.5-4.9c2.2-1.2,4.6-1.7,7.3-1.7
	c2,0,3.9,0.4,5.7,1.1c1.8,0.8,3.5,1.9,4.9,3.3c1.5,1.5,2.6,3.1,3.4,5c0.8,1.8,1.2,3.8,1.2,5.8c0,2.1-0.4,4.1-1.1,6
	c-0.7,1.9-1.8,3.5-3.2,5c-1.4,1.5-3.1,2.7-5,3.5c-1.9,0.8-3.9,1.2-5.9,1.2c-2.2,0-4.3-0.4-6.1-1.2c-1.9-0.8-3.5-2-5-3.5
	c-1.4-1.5-2.4-3.1-3.2-4.9C143.6,71,143.3,69.1,143.3,67z M149.4,66.8c0,1.3,0.2,2.5,0.6,3.6c0.4,1.1,1,2.1,1.9,3
	c0.9,1,1.9,1.8,3.1,2.3c1.2,0.5,2.4,0.8,3.6,0.8c2.6,0,4.8-0.9,6.5-2.8c1.8-1.8,2.6-4.2,2.6-6.9c0-2.5-0.9-4.7-2.7-6.5
	c-1.8-1.8-3.9-2.7-6.4-2.7c-2.6,0-4.8,0.9-6.6,2.7C150.3,62.1,149.4,64.2,149.4,66.8z"/>
<path d="M52,100.1h-7.1c-0.8-1.1-1.8-2-3-2.6c-1.2-0.6-2.5-0.9-4-0.9c-1.2,0-2.3,0.2-3.4,0.7c-1.1,0.4-2,1.1-2.9,2
	c-0.9,0.9-1.6,1.9-2,3.1c-0.5,1.2-0.7,2.4-0.7,3.6c0,2.7,0.9,5,2.6,6.8c1.7,1.8,3.9,2.8,6.4,2.8c1.5,0,2.8-0.3,3.9-0.8
	c1.2-0.5,2.1-1.3,2.8-2.4h7.1c-1.4,3-3.2,5.3-5.5,6.8c-2.3,1.5-5.1,2.3-8.3,2.3c-2.2,0-4.3-0.4-6.2-1.3c-1.9-0.9-3.6-2.1-5.1-3.8
	c-1.3-1.4-2.2-3-2.9-4.8c-0.7-1.8-1-3.7-1-5.7c0-2.1,0.4-4,1.2-5.9c0.8-1.9,1.9-3.5,3.5-5.1c1.4-1.4,3-2.5,4.8-3.2
	c1.8-0.7,3.7-1.1,5.7-1.1c3.2,0,6,0.8,8.3,2.3C48.7,94.5,50.6,96.9,52,100.1z"/>
<path d="M71.6,120.9h-16V91.2h16v5.2H61.3v6.8h10.3v5.1H61.3v7.3h10.3V120.9z"/>
<path d="M81.3,120.9h-5.7V91.2h5.5l12.3,19v-19h5.7v29.7h-5.4l-12.4-19.5V120.9z"/>
<path d="M119.6,91.2v5.2h-5.6v24.5h-5.8V96.5h-5.6v-5.2H119.6z"/>
<path d="M128.2,120.9h-5.8V91.2h7.1c2.2,0,3.9,0.1,5,0.2c1.1,0.2,2,0.4,2.8,0.8c1.7,0.8,3,1.9,3.9,3.3c0.9,1.4,1.3,3.1,1.3,5
	c0,2.3-0.6,4.2-1.9,5.8c-1.3,1.6-3,2.6-5.2,3l7.4,11.5h-6.9l-7.7-13.8V120.9z M128.2,105.7h1.3c2.4,0,4.1-0.4,5.4-1.3
	c1.2-0.8,1.8-2.1,1.8-3.7c0-1.6-0.5-2.7-1.5-3.5c-1-0.7-2.6-1.1-4.8-1.1h-2.2V105.7z"/>
<path d="M144.8,106c0-1.6,0.2-3.2,0.7-4.6c0.4-1.4,1.1-2.8,1.9-4.1c1.5-2.1,3.3-3.8,5.5-4.9c2.2-1.2,4.6-1.7,7.3-1.7
	c2,0,3.9,0.4,5.7,1.1c1.8,0.8,3.5,1.9,4.9,3.3c1.5,1.5,2.6,3.1,3.4,5c0.8,1.9,1.2,3.8,1.2,5.8c0,2.1-0.4,4.1-1.1,6
	c-0.7,1.9-1.8,3.5-3.2,5c-1.4,1.5-3.1,2.7-5,3.5c-1.9,0.8-3.9,1.2-5.9,1.2c-2.2,0-4.3-0.4-6.1-1.2c-1.9-0.8-3.5-2-5-3.5
	c-1.4-1.5-2.4-3.1-3.2-4.9C145.2,110.1,144.8,108.1,144.8,106z M150.9,105.8c0,1.3,0.2,2.5,0.6,3.6c0.4,1.1,1,2.1,1.9,3
	c0.9,1,1.9,1.8,3.1,2.3c1.2,0.5,2.4,0.8,3.6,0.8c2.6,0,4.8-0.9,6.5-2.8c1.8-1.9,2.6-4.2,2.6-6.9c0-2.5-0.9-4.7-2.7-6.5
	c-1.8-1.8-3.9-2.7-6.4-2.7c-2.6,0-4.8,0.9-6.6,2.7C151.8,101.1,150.9,103.3,150.9,105.8z"/>
<path d="M34.7,158.8H24.6v-29.7h9.9c2.7,0,4.8,0.3,6.5,0.8c1.6,0.5,3.1,1.5,4.4,2.7c1.4,1.4,2.5,3,3.2,4.9c0.7,1.9,1.1,4.1,1.1,6.5
	c0,2.7-0.5,5.1-1.5,7.2c-1,2.1-2.5,3.9-4.4,5.3c-1.1,0.8-2.3,1.4-3.7,1.7C38.8,158.6,37,158.8,34.7,158.8z M34.4,153.7
	c3.2,0,5.6-0.8,7.1-2.4c1.5-1.6,2.3-4,2.3-7.4c0-3.1-0.8-5.5-2.5-7.2c-1.7-1.7-4-2.6-7-2.6h-3.8v19.5H34.4z"/>
<path d="M69.3,158.8h-16v-29.7h16v5.2H59v6.8h10.3v5.1H59v7.3h10.3V158.8z"/>
<path d="M88.9,152.6l-2.3,6.2h-6l11.5-29.7h5l11.4,29.7h-6.2l-2.3-6.2H88.9z M98,147.1l-3.5-9.6l-3.6,9.6H98z"/>
<path d="M117.3,158.8h-5.8v-29.7h7.1c2.2,0,3.9,0.1,5,0.2c1.1,0.2,2,0.4,2.8,0.8c1.7,0.8,3,1.9,3.9,3.3c0.9,1.4,1.3,3.1,1.3,5
	c0,2.3-0.6,4.2-1.9,5.8c-1.3,1.6-3,2.6-5.2,3l7.4,11.5h-6.9l-7.7-13.8V158.8z M117.3,143.5h1.3c2.4,0,4.1-0.4,5.4-1.3
	c1.2-0.8,1.8-2.1,1.8-3.7c0-1.6-0.5-2.7-1.5-3.5c-1-0.7-2.6-1.1-4.8-1.1h-2.2V143.5z"/>
<path d="M150.8,129.1v5.2h-5.6v24.5h-5.8v-24.5h-5.6v-5.2H150.8z"/>
<path d="M171.3,158.8h-16v-29.7h16v5.2H161v6.8h10.3v5.1H161v7.3h10.3V158.8z"/>
<g>
	<path d="M30.1,37.7h-2.9v3.9h-1.8v-9.3h5.3v1.4h-3.5v2.6h2.9V37.7z"/>
	<path d="M38.2,32.3v6.1c0,1.1-0.3,1.9-0.9,2.5c-0.6,0.6-1.4,0.9-2.4,0.9c-1,0-1.8-0.3-2.4-0.9c-0.6-0.6-0.9-1.4-0.9-2.5v-6.1h1.8
		v6.1c0,0.6,0.1,1.1,0.4,1.4c0.3,0.3,0.6,0.5,1.1,0.5c0.5,0,0.8-0.2,1.1-0.5c0.3-0.3,0.4-0.8,0.4-1.5v-6.1H38.2z"/>
	<path d="M46.1,41.6h-1.8l-2.9-5.9l0,0v5.9h-1.8v-9.3h1.8l2.9,5.9l0,0v-5.9h1.8V41.6z"/>
	<path d="M47.5,41.6v-9.3h2.9c1,0,1.8,0.4,2.4,1.1c0.6,0.7,0.9,1.7,0.9,2.8v1.5c0,1.1-0.3,2.1-0.9,2.8c-0.6,0.7-1.4,1.1-2.4,1.1
		H47.5z M49.3,33.7v6.5h1.1c0.5,0,0.8-0.2,1.1-0.7c0.3-0.5,0.4-1.1,0.4-1.8v-1.5c0-0.7-0.1-1.3-0.4-1.8c-0.3-0.5-0.7-0.7-1.1-0.7
		H49.3z"/>
	<path d="M58.9,39.6h-2.3l-0.5,2h-1.9l2.6-9.3h1.9l2.6,9.3h-1.9L58.9,39.6z M57,38.1h1.6l-0.8-2.9h0L57,38.1z"/>
	<path d="M68.1,38.7L68.1,38.7c0,1-0.2,1.8-0.7,2.3c-0.5,0.5-1.3,0.7-2.2,0.7c-1,0-1.8-0.3-2.4-0.9c-0.6-0.6-0.9-1.4-0.9-2.5v-2.8
		c0-1.1,0.3-1.9,0.8-2.5c0.6-0.6,1.3-0.9,2.3-0.9c1,0,1.8,0.2,2.3,0.7c0.5,0.5,0.8,1.2,0.8,2.2l0,0h-1.7c0-0.6-0.1-1-0.3-1.2
		c-0.2-0.2-0.6-0.4-1.1-0.4c-0.5,0-0.8,0.2-1,0.5c-0.2,0.3-0.3,0.8-0.3,1.5v2.8c0,0.7,0.1,1.2,0.4,1.5c0.2,0.3,0.6,0.5,1.1,0.5
		c0.4,0,0.8-0.1,1-0.4c0.2-0.2,0.3-0.7,0.3-1.3H68.1z"/>
	<path d="M71.1,41.6h-1.8v-9.3h1.8V41.6z"/>
	<path d="M79.2,38.2c0,1.1-0.3,1.9-0.9,2.6c-0.6,0.6-1.4,0.9-2.5,0.9c-1,0-1.8-0.3-2.5-0.9c-0.6-0.6-0.9-1.5-0.9-2.6v-2.6
		c0-1.1,0.3-1.9,0.9-2.6c0.6-0.6,1.4-0.9,2.4-0.9c1,0,1.8,0.3,2.5,0.9c0.6,0.6,0.9,1.5,0.9,2.6V38.2z M77.5,35.6
		c0-0.7-0.1-1.2-0.4-1.5c-0.3-0.3-0.7-0.5-1.2-0.5c-0.5,0-0.9,0.2-1.2,0.5c-0.3,0.3-0.4,0.9-0.4,1.5v2.6c0,0.7,0.1,1.2,0.4,1.5
		c0.3,0.3,0.7,0.5,1.2,0.5c0.5,0,0.9-0.2,1.2-0.5c0.3-0.3,0.4-0.9,0.4-1.5V35.6z M76.1,29.6h2l0,0l-1.6,1.7H75L76.1,29.6z"/>
	<path d="M87.1,41.6h-1.8l-2.9-5.9l0,0v5.9h-1.8v-9.3h1.8l2.9,5.9l0,0v-5.9h1.8V41.6z"/>
	<path d="M95.5,39.2c0-0.4-0.1-0.7-0.3-0.9c-0.2-0.2-0.5-0.4-1-0.6c-0.9-0.3-1.7-0.7-2.1-1.1c-0.5-0.4-0.7-1-0.7-1.8
		c0-0.8,0.3-1.4,0.8-1.9c0.5-0.5,1.2-0.7,2.1-0.7c0.9,0,1.6,0.3,2.2,0.8c0.5,0.5,0.8,1.2,0.8,2l0,0h-1.7c0-0.5-0.1-0.8-0.3-1.1
		c-0.2-0.2-0.5-0.4-0.9-0.4c-0.3,0-0.6,0.1-0.8,0.3c-0.2,0.2-0.3,0.5-0.3,0.8c0,0.3,0.1,0.6,0.3,0.8c0.2,0.2,0.6,0.4,1.1,0.7
		c0.9,0.3,1.6,0.7,2,1.1c0.5,0.5,0.7,1.1,0.7,1.8c0,0.8-0.3,1.4-0.8,1.9c-0.5,0.5-1.3,0.7-2.1,0.7c-0.9,0-1.6-0.2-2.3-0.7
		c-0.6-0.5-0.9-1.2-0.9-2.2l0,0h1.8c0,0.6,0.1,1,0.4,1.3c0.2,0.3,0.6,0.4,1,0.4c0.4,0,0.7-0.1,0.9-0.3
		C95.4,39.8,95.5,39.5,95.5,39.2z"/>
	<path d="M105,38.2c0,1.1-0.3,1.9-0.9,2.6c-0.6,0.6-1.4,0.9-2.5,0.9c-1,0-1.8-0.3-2.5-0.9c-0.6-0.6-0.9-1.5-0.9-2.6v-2.6
		c0-1.1,0.3-1.9,0.9-2.6c0.6-0.6,1.4-0.9,2.4-0.9c1,0,1.8,0.3,2.5,0.9c0.6,0.6,0.9,1.5,0.9,2.6V38.2z M103.2,35.6
		c0-0.7-0.1-1.2-0.4-1.5c-0.3-0.3-0.7-0.5-1.2-0.5c-0.5,0-0.9,0.2-1.2,0.5c-0.3,0.3-0.4,0.9-0.4,1.5v2.6c0,0.7,0.1,1.2,0.4,1.5
		c0.3,0.3,0.7,0.5,1.2,0.5c0.5,0,0.9-0.2,1.2-0.5c0.3-0.3,0.4-0.9,0.4-1.5V35.6z"/>
	<path d="M112.3,38.7L112.3,38.7c0,1-0.2,1.8-0.7,2.3c-0.5,0.5-1.3,0.7-2.2,0.7c-1,0-1.8-0.3-2.4-0.9c-0.6-0.6-0.9-1.4-0.9-2.5v-2.8
		c0-1.1,0.3-1.9,0.8-2.5s1.3-0.9,2.3-0.9c1,0,1.8,0.2,2.3,0.7c0.5,0.5,0.8,1.2,0.8,2.2l0,0h-1.7c0-0.6-0.1-1-0.3-1.2
		c-0.2-0.2-0.6-0.4-1.1-0.4c-0.5,0-0.8,0.2-1,0.5c-0.2,0.3-0.3,0.8-0.3,1.5v2.8c0,0.7,0.1,1.2,0.4,1.5c0.2,0.3,0.6,0.5,1.1,0.5
		c0.4,0,0.8-0.1,1-0.4c0.2-0.2,0.3-0.7,0.3-1.3H112.3z"/>
	<path d="M115.4,41.6h-1.8v-9.3h1.8V41.6z"/>
	<path d="M121.5,37.5h-2.8v2.7h3.4v1.4h-5.2v-9.3h5.2v1.4h-3.4v2.4h2.8V37.5z"/>
	<path d="M123.2,41.6v-9.3h2.9c1,0,1.8,0.4,2.4,1.1c0.6,0.7,0.9,1.7,0.9,2.8v1.5c0,1.1-0.3,2.1-0.9,2.8c-0.6,0.7-1.4,1.1-2.4,1.1
		H123.2z M125,33.7v6.5h1.1c0.5,0,0.8-0.2,1.1-0.7c0.3-0.5,0.4-1.1,0.4-1.8v-1.5c0-0.7-0.1-1.3-0.4-1.8c-0.3-0.5-0.7-0.7-1.1-0.7
		H125z"/>
	<path d="M134.7,39.6h-2.3l-0.5,2h-1.9l2.6-9.3h1.9l2.6,9.3h-1.9L134.7,39.6z M132.7,38.1h1.6l-0.8-2.9h0L132.7,38.1z"/>
	<path d="M137.8,41.6v-9.3h2.9c1,0,1.8,0.4,2.4,1.1c0.6,0.7,0.9,1.7,0.9,2.8v1.5c0,1.1-0.3,2.1-0.9,2.8c-0.6,0.7-1.4,1.1-2.4,1.1
		H137.8z M139.6,33.7v6.5h1.1c0.5,0,0.8-0.2,1.1-0.7c0.3-0.5,0.4-1.1,0.4-1.8v-1.5c0-0.7-0.1-1.3-0.4-1.8c-0.3-0.5-0.7-0.7-1.1-0.7
		H139.6z"/>
	<path d="M152.9,37.7H150v3.9h-1.8v-9.3h5.3v1.4H150v2.6h2.9V37.7z"/>
	<path d="M159.1,37.5h-2.8v2.7h3.4v1.4h-5.2v-9.3h5.2v1.4h-3.4v2.4h2.8V37.5z"/>
	<path d="M164.8,39.2L164.8,39.2l1.8-6.9h2.3v9.3h-1.8v-5.8l0,0l-1.7,5.8h-1.2l-1.7-5.8l0,0v5.8h-1.8v-9.3h2.3L164.8,39.2z"/>
	<path d="M175,37.5h-2.8v2.7h3.4v1.4h-5.2v-9.3h5.2v1.4h-3.4v2.4h2.8V37.5z"/>
	<path d="M183.3,41.6h-1.8l-2.9-5.9l0,0v5.9h-1.8v-9.3h1.8l2.9,5.9l0,0v-5.9h1.8V41.6z"/>
	<path d="M186.6,41.6h-1.8v-9.3h1.8V41.6z"/>
	<path d="M194.7,41.6h-1.8l-2.9-5.9l0,0v5.9h-1.8v-9.3h1.8l2.9,5.9l0,0v-5.9h1.8V41.6z"/>
	<path d="M200.3,39.6H198l-0.5,2h-1.9l2.6-9.3h1.9l2.6,9.3h-1.9L200.3,39.6z M198.4,38.1h1.6l-0.8-2.9h0L198.4,38.1z"/>
	<path d="M206.4,41.6v-9.3h2.9c1,0,1.8,0.4,2.4,1.1c0.6,0.7,0.9,1.7,0.9,2.8v1.5c0,1.1-0.3,2.1-0.9,2.8c-0.6,0.7-1.4,1.1-2.4,1.1
		H206.4z M208.2,33.7v6.5h1.1c0.5,0,0.8-0.2,1.1-0.7c0.3-0.5,0.4-1.1,0.4-1.8v-1.5c0-0.7-0.1-1.3-0.4-1.8c-0.3-0.5-0.7-0.7-1.1-0.7
		H208.2z"/>
	<path d="M218.5,37.5h-2.8v2.7h3.4v1.4h-5.2v-9.3h5.2v1.4h-3.4v2.4h2.8V37.5z"/>
	<path d="M229.1,38.7L229.1,38.7c0,1-0.2,1.8-0.7,2.3c-0.5,0.5-1.3,0.7-2.2,0.7c-1,0-1.8-0.3-2.4-0.9c-0.6-0.6-0.9-1.4-0.9-2.5v-2.8
		c0-1.1,0.3-1.9,0.8-2.5c0.6-0.6,1.3-0.9,2.3-0.9c1,0,1.8,0.2,2.3,0.7c0.5,0.5,0.8,1.2,0.8,2.2l0,0h-1.7c0-0.6-0.1-1-0.3-1.2
		c-0.2-0.2-0.6-0.4-1.1-0.4c-0.5,0-0.8,0.2-1,0.5c-0.2,0.3-0.3,0.8-0.3,1.5v2.8c0,0.7,0.1,1.2,0.4,1.5c0.2,0.3,0.6,0.5,1.1,0.5
		c0.4,0,0.8-0.1,1-0.4c0.2-0.2,0.3-0.7,0.3-1.3H229.1z"/>
	<path d="M236.7,32.3v6.1c0,1.1-0.3,1.9-0.9,2.5c-0.6,0.6-1.4,0.9-2.4,0.9c-1,0-1.8-0.3-2.4-0.9c-0.6-0.6-0.9-1.4-0.9-2.5v-6.1h1.8
		v6.1c0,0.6,0.1,1.1,0.4,1.4c0.3,0.3,0.6,0.5,1.1,0.5c0.5,0,0.8-0.2,1.1-0.5c0.3-0.3,0.4-0.8,0.4-1.5v-6.1H236.7z"/>
	<path d="M239.9,40.2h3.5v1.4h-5.3v-9.3h1.8V40.2z"/>
	<path d="M248.2,33.7H246v7.9h-1.8v-7.9h-2.1v-1.4h6.1V33.7z"/>
	<path d="M255.6,32.3v6.1c0,1.1-0.3,1.9-0.9,2.5c-0.6,0.6-1.4,0.9-2.4,0.9c-1,0-1.8-0.3-2.4-0.9c-0.6-0.6-0.9-1.4-0.9-2.5v-6.1h1.8
		v6.1c0,0.6,0.1,1.1,0.4,1.4c0.3,0.3,0.6,0.5,1.1,0.5c0.5,0,0.8-0.2,1.1-0.5c0.3-0.3,0.4-0.8,0.4-1.5v-6.1H255.6z"/>
	<path d="M258.7,37.8v3.7h-1.8v-9.3h2.8c0.9,0,1.6,0.2,2.2,0.7c0.5,0.5,0.8,1.1,0.8,2c0,0.5-0.1,0.9-0.3,1.2c-0.2,0.4-0.5,0.6-1,0.8
		c0.5,0.2,0.8,0.4,1,0.8c0.2,0.4,0.3,0.8,0.3,1.4V40c0,0.3,0,0.5,0.1,0.8c0.1,0.3,0.2,0.5,0.3,0.6v0.1h-1.9
		c-0.1-0.1-0.2-0.4-0.3-0.7c0-0.3-0.1-0.6-0.1-0.9v-0.6c0-0.5-0.1-0.8-0.3-1.1c-0.2-0.3-0.5-0.4-0.8-0.4H258.7z M258.7,36.4h1
		c0.4,0,0.7-0.1,0.9-0.3c0.2-0.2,0.3-0.6,0.3-1c0-0.4-0.1-0.8-0.3-1c-0.2-0.3-0.5-0.4-0.9-0.4h-1V36.4z"/>
	<path d="M268.2,39.6h-2.3l-0.5,2h-1.9l2.6-9.3h1.9l2.6,9.3h-1.9L268.2,39.6z M266.3,38.1h1.6l-0.8-2.9h0L266.3,38.1z"/>
</g>
<g>
	<path d="M27.2,176.9h3.5v1.4h-5.3V169h1.8V176.9z"/>
	<path d="M42.2,174.2h-2.8v2.7h3.4v1.4h-5.2V169h5.2v1.4h-3.4v2.4h2.8V174.2z"/>
	<path d="M56.3,175c0,1.1-0.3,1.9-0.9,2.6s-1.4,0.9-2.5,0.9c-1,0-1.8-0.3-2.5-0.9c-0.6-0.6-0.9-1.5-0.9-2.6v-2.6
		c0-1.1,0.3-1.9,0.9-2.6c0.6-0.6,1.4-0.9,2.4-0.9c1,0,1.8,0.3,2.5,0.9c0.6,0.6,0.9,1.5,0.9,2.6V175z M54.5,172.4
		c0-0.7-0.1-1.2-0.4-1.5c-0.3-0.3-0.7-0.5-1.2-0.5c-0.5,0-0.9,0.2-1.2,0.5c-0.3,0.3-0.4,0.9-0.4,1.5v2.6c0,0.7,0.1,1.2,0.4,1.5
		c0.3,0.3,0.7,0.5,1.2,0.5c0.5,0,0.9-0.2,1.2-0.5c0.3-0.3,0.4-0.9,0.4-1.5V172.4z M53.2,166.3h2l0,0l-1.6,1.7h-1.6L53.2,166.3z"/>
	<path d="M70,178.3h-1.8l-2.9-5.9l0,0v5.9h-1.8V169h1.8l2.9,5.9l0,0V169H70V178.3z"/>
	<path d="M108.3,174.4h-2.9v3.9h-1.8V169h5.3v1.4h-3.5v2.6h2.9V174.4z"/>
	<path d="M120.4,174.2h-2.8v2.7h3.4v1.4h-5.2V169h5.2v1.4h-3.4v2.4h2.8V174.2z"/>
	<path d="M127.9,178.3V169h2.7c1,0,1.7,0.2,2.3,0.6c0.5,0.4,0.8,1.1,0.8,1.9c0,0.4-0.1,0.8-0.3,1.2c-0.2,0.3-0.5,0.6-0.9,0.8
		c0.5,0.1,0.9,0.4,1.2,0.7c0.3,0.4,0.4,0.8,0.4,1.4c0,0.9-0.3,1.6-0.8,2c-0.5,0.5-1.2,0.7-2.2,0.7H127.9z M129.7,173h0.9
		c0.4,0,0.7-0.1,0.9-0.3c0.2-0.2,0.3-0.5,0.3-0.9c0-0.4-0.1-0.8-0.3-1c-0.2-0.2-0.5-0.3-1-0.3h-0.9V173z M129.7,174.2v2.7h1.3
		c0.4,0,0.7-0.1,0.9-0.3c0.2-0.2,0.3-0.5,0.3-1c0-0.4-0.1-0.8-0.3-1c-0.2-0.2-0.5-0.4-0.9-0.4H131H129.7z"/>
	<path d="M142.9,174.6v3.7h-1.8V169h2.8c0.9,0,1.6,0.2,2.2,0.7c0.5,0.5,0.8,1.1,0.8,2c0,0.5-0.1,0.9-0.3,1.2c-0.2,0.4-0.5,0.6-1,0.8
		c0.5,0.2,0.8,0.4,1,0.8c0.2,0.4,0.3,0.8,0.3,1.4v0.7c0,0.3,0,0.5,0.1,0.8c0.1,0.3,0.2,0.5,0.3,0.6v0.1h-1.9
		c-0.1-0.1-0.2-0.4-0.3-0.7c0-0.3-0.1-0.6-0.1-0.9v-0.6c0-0.5-0.1-0.8-0.3-1.1c-0.2-0.3-0.5-0.4-0.8-0.4H142.9z M142.9,173.2h1
		c0.4,0,0.7-0.1,0.9-0.3c0.2-0.2,0.3-0.6,0.3-1c0-0.4-0.1-0.8-0.3-1c-0.2-0.3-0.5-0.4-0.9-0.4h-1V173.2z"/>
	<path d="M158.8,174.2h-2.8v2.7h3.4v1.4h-5.2V169h5.2v1.4h-3.4v2.4h2.8V174.2z"/>
	<path d="M170.4,175.9c0-0.4-0.1-0.7-0.3-0.9c-0.2-0.2-0.5-0.4-1-0.6c-0.9-0.3-1.7-0.7-2.1-1.1c-0.5-0.4-0.7-1-0.7-1.8
		c0-0.8,0.3-1.4,0.8-1.9c0.5-0.5,1.2-0.7,2.1-0.7c0.9,0,1.6,0.3,2.2,0.8c0.5,0.5,0.8,1.2,0.8,2l0,0h-1.7c0-0.5-0.1-0.8-0.3-1.1
		c-0.2-0.2-0.5-0.4-0.9-0.4c-0.3,0-0.6,0.1-0.8,0.3c-0.2,0.2-0.3,0.5-0.3,0.8c0,0.3,0.1,0.6,0.3,0.8c0.2,0.2,0.6,0.4,1.1,0.7
		c0.9,0.3,1.6,0.7,2,1.1c0.5,0.5,0.7,1.1,0.7,1.8c0,0.8-0.3,1.4-0.8,1.9c-0.5,0.5-1.3,0.7-2.1,0.7c-0.9,0-1.6-0.2-2.3-0.7
		c-0.6-0.5-0.9-1.2-0.9-2.2l0,0h1.8c0,0.6,0.1,1,0.4,1.3c0.2,0.3,0.6,0.4,1,0.4c0.4,0,0.7-0.1,0.9-0.3
		C170.3,176.5,170.4,176.3,170.4,175.9z"/>
	<path d="M182.6,175h-3.2v-1.4h3.2V175z"/>
	<path d="M196.2,175.4L196.2,175.4c0,1-0.2,1.8-0.7,2.3c-0.5,0.5-1.3,0.7-2.2,0.7c-1,0-1.8-0.3-2.4-0.9c-0.6-0.6-0.9-1.4-0.9-2.5
		v-2.8c0-1.1,0.3-1.9,0.8-2.5c0.6-0.6,1.3-0.9,2.3-0.9c1,0,1.8,0.2,2.3,0.7c0.5,0.5,0.8,1.2,0.8,2.2l0,0h-1.7c0-0.6-0.1-1-0.3-1.2
		c-0.2-0.2-0.6-0.4-1.1-0.4c-0.5,0-0.8,0.2-1,0.5c-0.2,0.3-0.3,0.8-0.3,1.5v2.8c0,0.7,0.1,1.2,0.4,1.5c0.2,0.3,0.6,0.5,1.1,0.5
		c0.4,0,0.8-0.1,1-0.4c0.2-0.2,0.3-0.7,0.3-1.3H196.2z"/>
	<path d="M209.7,175c0,1.1-0.3,1.9-0.9,2.6c-0.6,0.6-1.4,0.9-2.5,0.9c-1,0-1.8-0.3-2.5-0.9c-0.6-0.6-0.9-1.5-0.9-2.6v-2.6
		c0-1.1,0.3-1.9,0.9-2.6c0.6-0.6,1.4-0.9,2.4-0.9c1,0,1.8,0.3,2.5,0.9c0.6,0.6,0.9,1.5,0.9,2.6V175z M207.9,172.4
		c0-0.7-0.1-1.2-0.4-1.5c-0.3-0.3-0.7-0.5-1.2-0.5c-0.5,0-0.9,0.2-1.2,0.5c-0.3,0.3-0.4,0.9-0.4,1.5v2.6c0,0.7,0.1,1.2,0.4,1.5
		c0.3,0.3,0.7,0.5,1.2,0.5c0.5,0,0.9-0.2,1.2-0.5s0.4-0.9,0.4-1.5V172.4z"/>
	<path d="M218.7,174.6v3.7h-1.8V169h2.8c0.9,0,1.6,0.2,2.2,0.7c0.5,0.5,0.8,1.1,0.8,2c0,0.5-0.1,0.9-0.3,1.2c-0.2,0.4-0.5,0.6-1,0.8
		c0.5,0.2,0.8,0.4,1,0.8c0.2,0.4,0.3,0.8,0.3,1.4v0.7c0,0.3,0,0.5,0.1,0.8c0.1,0.3,0.2,0.5,0.3,0.6v0.1h-1.9
		c-0.1-0.1-0.2-0.4-0.3-0.7s-0.1-0.6-0.1-0.9v-0.6c0-0.5-0.1-0.8-0.3-1.1c-0.2-0.3-0.5-0.4-0.8-0.4H218.7z M218.7,173.2h1
		c0.4,0,0.7-0.1,0.9-0.3c0.2-0.2,0.3-0.6,0.3-1c0-0.4-0.1-0.8-0.3-1c-0.2-0.3-0.5-0.4-0.9-0.4h-1V173.2z"/>
	<path d="M229.9,178.3V169h2.9c1,0,1.8,0.4,2.4,1.1c0.6,0.7,0.9,1.7,0.9,2.8v1.5c0,1.1-0.3,2.1-0.9,2.8c-0.6,0.7-1.4,1.1-2.4,1.1
		H229.9z M231.7,170.5v6.5h1.1c0.5,0,0.8-0.2,1.1-0.7c0.3-0.5,0.4-1.1,0.4-1.8v-1.5c0-0.7-0.1-1.3-0.4-1.8c-0.3-0.5-0.7-0.7-1.1-0.7
		H231.7z"/>
	<path d="M247.9,174.2H245v2.7h3.4v1.4h-5.2V169h5.2v1.4H245v2.4h2.8V174.2z"/>
	<path d="M257.2,174.6v3.7h-1.8V169h2.8c0.9,0,1.6,0.2,2.2,0.7c0.5,0.5,0.8,1.1,0.8,2c0,0.5-0.1,0.9-0.3,1.2c-0.2,0.4-0.5,0.6-1,0.8
		c0.5,0.2,0.8,0.4,1,0.8c0.2,0.4,0.3,0.8,0.3,1.4v0.7c0,0.3,0,0.5,0.1,0.8c0.1,0.3,0.2,0.5,0.3,0.6v0.1h-1.9
		c-0.2-0.1-0.2-0.4-0.3-0.7c0-0.3-0.1-0.6-0.1-0.9v-0.6c0-0.5-0.1-0.8-0.3-1.1c-0.2-0.3-0.5-0.4-0.8-0.4H257.2z M257.2,173.2h1
		c0.4,0,0.7-0.1,0.9-0.3c0.2-0.2,0.3-0.6,0.3-1c0-0.4-0.1-0.8-0.3-1c-0.2-0.3-0.5-0.4-0.9-0.4h-1V173.2z"/>
	<path d="M275.1,175c0,1.1-0.3,1.9-0.9,2.6c-0.6,0.6-1.4,0.9-2.5,0.9c-1,0-1.8-0.3-2.5-0.9c-0.6-0.6-0.9-1.5-0.9-2.6v-2.6
		c0-1.1,0.3-1.9,0.9-2.6c0.6-0.6,1.4-0.9,2.4-0.9c1,0,1.8,0.3,2.5,0.9c0.6,0.6,0.9,1.5,0.9,2.6V175z M273.3,172.4
		c0-0.7-0.1-1.2-0.4-1.5c-0.3-0.3-0.7-0.5-1.2-0.5c-0.5,0-0.9,0.2-1.2,0.5c-0.3,0.3-0.4,0.9-0.4,1.5v2.6c0,0.7,0.1,1.2,0.4,1.5
		c0.3,0.3,0.7,0.5,1.2,0.5c0.5,0,0.9-0.2,1.2-0.5c0.3-0.3,0.4-0.9,0.4-1.5V172.4z"/>
</g>
</svg>
