<?xml version="1.0" encoding="UTF-8" standalone="no"?><!DOCTYPE svg PUBLIC "-//W3C//DTD SVG 1.1//EN" "http://www.w3.org/Graphics/SVG/1.1/DTD/svg11.dtd"><svg viewBox="0 0 512 512" version="1.1" xmlns="http://www.w3.org/2000/svg" xmlns:xlink="http://www.w3.org/1999/xlink" xml:space="preserve" xmlns:serif="http://www.serif.com/" style="fill-rule:evenodd;clip-rule:evenodd;stroke-linejoin:round;stroke-miterlimit:1.41421;"><clipPath id="_clip1"><path d="M511.303,16.406c0,-8.495 -6.897,-15.393 -15.393,-15.393l-479.59,0c-8.496,0 -15.394,6.898 -15.394,15.393l0,479.664c0,8.496 6.898,15.393 15.394,15.393l479.59,0c8.496,0 15.393,-6.897 15.393,-15.393l0,-479.664Z"/></clipPath><g clip-path="url(#_clip1)"><path d="M515.469,-0.468c0,0 4.797,267.937 0,282.231c-16.072,47.891 -240.031,137.062 -311.218,77.573c-94.31,-78.813 58.96,-151.226 51.357,-160.045c-119.945,-2.1 -231.173,73.114 -257.002,143.491c-1.744,4.754 -0.005,-60.125 0,-61.019c0.189,-29.893 0.001,-281.994 0,-282.231l516.863,0Z" style="fill:#00344a;"/></g><g><path d="M314.737,505.149c-4.027,0 -7.236,-1.475 -9.626,-4.425c-2.434,-2.951 -3.651,-6.885 -3.651,-11.802c0,-5.065 1.217,-9.147 3.651,-12.245c2.39,-3.049 5.599,-4.573 9.626,-4.573c3.983,0 7.192,1.524 9.626,4.573c2.39,3.098 3.585,7.18 3.585,12.245c0,4.917 -1.195,8.851 -3.585,11.802c-2.434,2.95 -5.643,4.425 -9.626,4.425Zm0,-2.434c3.187,0 5.754,-1.254 7.701,-3.762c1.903,-2.508 2.854,-5.851 2.854,-10.031c0,-4.328 -0.951,-7.77 -2.854,-10.327c-1.947,-2.606 -4.514,-3.909 -7.701,-3.909c-3.231,0 -5.798,1.303 -7.701,3.909c-1.947,2.557 -2.921,5.999 -2.921,10.327c0,4.18 0.974,7.523 2.921,10.031c1.903,2.508 4.47,3.762 7.701,3.762Z" style="fill:#df1c01;fill-rule:nonzero;"/><path d="M337.308,504.633l-2.655,0l0,-31.423l2.655,0l0,5.311c0.797,-1.868 2.014,-3.344 3.651,-4.425c1.638,-1.131 3.453,-1.697 5.444,-1.697c2.788,0 5.156,1.008 7.103,3.024c1.992,2.066 2.988,4.524 2.988,7.376l0,21.834l-2.656,0l0,-21.834c0,-2.163 -0.73,-4.007 -2.19,-5.532c-1.461,-1.524 -3.209,-2.286 -5.245,-2.286c-2.213,0 -4.182,0.836 -5.908,2.508c-1.726,1.721 -2.788,3.86 -3.187,6.417l0,20.727Z" style="fill:#df1c01;fill-rule:nonzero;"/><rect x="364.526" y="460.892" width="2.655" height="43.741" style="fill:#df1c01;fill-rule:nonzero;"/><path d="M378.335,504.633l-2.656,0l0,-31.423l2.656,0l0,31.423Zm-2.656,-39.241l0,-4.5l2.656,0l0,4.5l-2.656,0Z" style="fill:#df1c01;fill-rule:nonzero;"/><path d="M389.487,504.633l-2.655,0l0,-31.423l2.655,0l0,5.311c0.797,-1.868 2.014,-3.344 3.652,-4.425c1.637,-1.131 3.452,-1.697 5.443,-1.697c2.788,0 5.156,1.008 7.104,3.024c1.991,2.066 2.987,4.524 2.987,7.376l0,21.834l-2.656,0l0,-21.834c0,-2.163 -0.73,-4.007 -2.19,-5.532c-1.461,-1.524 -3.209,-2.286 -5.245,-2.286c-2.213,0 -4.182,0.836 -5.908,2.508c-1.726,1.721 -2.788,3.86 -3.187,6.417l0,20.727Z" style="fill:#df1c01;fill-rule:nonzero;"/><path d="M427.593,505.739c-3.806,0 -6.86,-1.524 -9.161,-4.573c-2.302,-3.098 -3.452,-7.179 -3.452,-12.244c0,-5.065 1.15,-9.147 3.452,-12.245c2.301,-3.049 5.355,-4.573 9.161,-4.573c3.806,0 6.86,1.401 9.161,4.204c2.301,2.803 3.452,6.541 3.452,11.212l0,1.402l-22.571,0c0,4.278 0.907,7.696 2.722,10.253c1.814,2.557 4.226,3.835 7.236,3.835c2.257,0 4.293,-0.664 6.107,-1.991c1.859,-1.377 3.143,-3.172 3.851,-5.385l2.655,0c-0.442,2.901 -1.859,5.311 -4.249,7.229c-2.389,1.918 -5.178,2.876 -8.364,2.876Zm-9.958,-19.62l19.916,0l0,-1.107c-0.222,-2.901 -1.284,-5.36 -3.187,-7.376c-1.947,-1.967 -4.204,-2.95 -6.771,-2.95c-2.567,0 -4.802,1.008 -6.705,3.024c-1.947,2.065 -3.032,4.598 -3.253,7.597l0,0.812Z" style="fill:#df1c01;fill-rule:nonzero;"/></g><path d="M158.398,347.892c-26.529,-15.812 -43.088,-38.188 -43.088,-62.979c0,-47.867 61.733,-86.729 137.771,-86.729c76.038,0 137.771,38.862 137.771,86.729c0,47.867 -61.733,86.729 -137.771,86.729c-12.388,0 -24.395,-1.031 -35.819,-2.965c4.576,10.332 19.002,21.472 19.002,21.472c0,0 -53.042,-14.68 -77.866,-42.257Z" style="fill:#df1c01;"/><g><path d="M19.93,456.801l0,-63.691l31.3,0c5.804,0 10.24,0.521 13.308,1.564c3.068,1.042 5.541,2.976 7.421,5.8c1.879,2.824 2.819,6.263 2.819,10.318c0,3.534 -0.719,6.582 -2.156,9.145c-1.437,2.564 -3.413,4.642 -5.928,6.235c-1.603,1.014 -3.801,1.854 -6.592,2.52c2.239,0.782 3.869,1.564 4.892,2.346c0.691,0.521 1.693,1.636 3.006,3.345c1.312,1.709 2.19,3.027 2.632,3.954l9.079,18.464l-21.226,0l-10.033,-19.464c-1.271,-2.519 -2.404,-4.156 -3.399,-4.909c-1.354,-0.985 -2.888,-1.477 -4.602,-1.477l-1.658,0l0,25.85l-18.863,0Zm18.863,-37.885l7.918,0c0.857,0 2.515,-0.289 4.975,-0.868c1.244,-0.261 2.26,-0.927 3.047,-1.999c0.788,-1.072 1.182,-2.303 1.182,-3.693c0,-2.056 -0.622,-3.635 -1.866,-4.735c-1.244,-1.101 -3.579,-1.651 -7.006,-1.651l-8.25,0l0,12.946Z" style="fill:#393c48;fill-rule:nonzero;"/><path d="M99.984,425.607l-16.127,-1.781c0.608,-2.954 1.486,-5.279 2.633,-6.973c1.147,-1.695 2.798,-3.165 4.954,-4.41c1.547,-0.898 3.676,-1.593 6.384,-2.085c2.709,-0.493 5.638,-0.739 8.789,-0.739c5.058,0 9.121,0.297 12.189,0.891c3.067,0.593 5.624,1.832 7.669,3.714c1.437,1.304 2.57,3.15 3.4,5.54c0.829,2.389 1.243,4.67 1.243,6.842l0,20.376c0,2.173 0.132,3.874 0.394,5.105c0.263,1.231 0.836,2.803 1.721,4.714l-15.837,0c-0.636,-1.187 -1.05,-2.092 -1.244,-2.715c-0.193,-0.623 -0.387,-1.6 -0.58,-2.933c-2.211,2.23 -4.408,3.824 -6.592,4.779c-2.985,1.275 -6.453,1.912 -10.406,1.912c-5.251,0 -9.238,-1.274 -11.96,-3.823c-2.722,-2.549 -4.084,-5.692 -4.084,-9.428c0,-3.505 0.982,-6.387 2.944,-8.646c1.962,-2.259 5.583,-3.939 10.862,-5.039c6.329,-1.333 10.433,-2.267 12.312,-2.803c1.88,-0.536 3.87,-1.238 5.97,-2.107c0,-2.172 -0.428,-3.693 -1.285,-4.562c-0.857,-0.869 -2.363,-1.303 -4.519,-1.303c-2.764,0 -4.836,0.463 -6.218,1.39c-1.078,0.724 -1.949,2.086 -2.612,4.084Zm14.634,9.298c-2.321,0.868 -4.74,1.636 -7.255,2.302c-3.427,0.956 -5.596,1.897 -6.509,2.824c-0.939,0.956 -1.409,2.042 -1.409,3.259c0,1.39 0.463,2.527 1.389,3.41c0.926,0.883 2.287,1.325 4.083,1.325c1.88,0 3.628,-0.478 5.245,-1.434c1.617,-0.955 2.763,-2.121 3.441,-3.497c0.677,-1.376 1.015,-3.164 1.015,-5.365l0,-2.824Z" style="fill:#393c48;fill-rule:nonzero;"/><path d="M187.583,393.11l0,63.691l-15.795,0l0,-6.821c-2.211,2.897 -4.229,4.852 -6.053,5.865c-2.432,1.333 -5.14,1.999 -8.125,1.999c-5.998,0 -10.579,-2.39 -13.744,-7.169c-3.164,-4.779 -4.746,-10.586 -4.746,-17.421c0,-7.647 1.748,-13.498 5.244,-17.553c3.496,-4.054 7.939,-6.082 13.328,-6.082c2.626,0 5.01,0.463 7.152,1.39c2.142,0.927 4.042,2.317 5.7,4.171l0,-22.07l17.039,0Zm-16.914,40.491c0,-3.62 -0.733,-6.321 -2.198,-8.103c-1.464,-1.781 -3.316,-2.671 -5.555,-2.671c-1.962,0 -3.607,0.854 -4.933,2.563c-1.327,1.709 -1.99,4.576 -1.99,8.602c0,3.765 0.684,6.524 2.052,8.277c1.368,1.752 3.061,2.628 5.078,2.628c2.156,0 3.953,-0.883 5.39,-2.65c1.437,-1.767 2.156,-4.649 2.156,-8.646Z" style="fill:#393c48;fill-rule:nonzero;"/><path d="M198.487,393.11l16.873,0l0,12.034l-16.873,0l0,-12.034Zm0,17.552l16.873,0l0,46.139l-16.873,0l0,-46.139Z" style="fill:#393c48;fill-rule:nonzero;"/><path d="M224.066,433.862c0,-7.038 2.266,-12.838 6.799,-17.4c4.532,-4.562 10.654,-6.843 18.365,-6.843c8.817,0 15.478,2.679 19.983,8.038c3.62,4.315 5.431,9.63 5.431,15.944c0,7.096 -2.246,12.911 -6.737,17.444c-4.491,4.533 -10.703,6.799 -18.635,6.799c-7.076,0 -12.797,-1.883 -17.164,-5.648c-5.361,-4.663 -8.042,-10.775 -8.042,-18.334Zm16.914,-0.044c0,4.113 0.795,7.154 2.384,9.124c1.589,1.97 3.586,2.954 5.991,2.954c2.432,0 4.429,-0.97 5.99,-2.911c1.562,-1.94 2.343,-5.054 2.343,-9.34c0,-3.997 -0.788,-6.973 -2.363,-8.929c-1.576,-1.955 -3.524,-2.932 -5.846,-2.932c-2.46,0 -4.491,0.992 -6.094,2.976c-1.603,1.984 -2.405,5.003 -2.405,9.058Z" style="fill:#393c48;fill-rule:nonzero;"/><path d="M307.934,393.11l57.087,0l0,15.727l-19.154,0l0,47.964l-18.78,0l0,-47.964l-19.153,0l0,-15.727Z" style="fill:#393c48;fill-rule:nonzero;"/><path d="M373.478,393.11l50.329,0l0,13.598l-31.507,0l0,10.123l29.227,0l0,12.99l-29.227,0l0,12.556l32.419,0l0,14.424l-51.241,0l0,-63.691Z" style="fill:#393c48;fill-rule:nonzero;"/><path d="M431.56,435.73l17.868,-1.173c0.387,3.041 1.174,5.358 2.363,6.951c1.934,2.578 4.698,3.867 8.291,3.867c2.681,0 4.747,-0.659 6.198,-1.977c1.451,-1.318 2.177,-2.846 2.177,-4.583c0,-1.651 -0.691,-3.128 -2.073,-4.432c-1.382,-1.303 -4.588,-2.534 -9.618,-3.693c-8.237,-1.94 -14.11,-4.518 -17.62,-7.733c-3.537,-3.215 -5.306,-7.313 -5.306,-12.295c0,-3.273 0.905,-6.365 2.715,-9.276c1.811,-2.911 4.533,-5.199 8.167,-6.864c3.635,-1.666 8.617,-2.499 14.946,-2.499c7.766,0 13.688,1.514 17.764,4.541c4.077,3.026 6.502,7.842 7.276,14.445l-17.702,1.086c-0.47,-2.867 -1.458,-4.952 -2.965,-6.256c-1.506,-1.303 -3.586,-1.955 -6.239,-1.955c-2.183,0 -3.828,0.485 -4.933,1.456c-1.106,0.97 -1.659,2.15 -1.659,3.54c0,1.014 0.456,1.927 1.368,2.738c0.885,0.839 2.985,1.622 6.302,2.346c8.209,1.853 14.089,3.729 17.64,5.626c3.552,1.897 6.136,4.25 7.753,7.06c1.616,2.809 2.425,5.952 2.425,9.428c0,4.083 -1.078,7.849 -3.234,11.295c-2.156,3.447 -5.168,6.061 -9.038,7.842c-3.869,1.782 -8.747,2.672 -14.634,2.672c-10.337,0 -17.495,-2.085 -21.475,-6.256c-3.98,-4.171 -6.232,-9.471 -6.757,-15.901Z" style="fill:#393c48;fill-rule:nonzero;"/></g><g><path id="path3812" d="M455.701,505.715c-1.595,1.159 -3.808,0.778 -4.943,-0.851c-1.135,-1.629 -0.762,-3.889 0.833,-5.048c1.595,-1.16 3.808,-0.779 4.943,0.85c1.135,1.629 0.762,3.889 -0.833,5.049Z" style="fill:#df1c01;fill-rule:nonzero;"/><path id="path3814" d="M474.08,488.837c-3.736,-5.363 -9.041,-8.66 -14.142,-9.347l-1.965,5.071c4.257,0.104 8.88,2.703 12.038,7.234c2.923,4.196 3.901,9.063 3,13.049l5.212,-0.011c0.782,-5.001 -0.577,-10.879 -4.143,-15.996Z" style="fill:#df1c01;fill-rule:nonzero;"/><path id="path3822" d="M464.648,495.044c-2.125,-3.05 -5.177,-5.027 -8.483,-5.816l-1.661,4.284c2.429,0.64 4.66,2.124 6.23,4.377c1.474,2.115 2.13,4.57 2.037,6.975l4.507,-0.011c0.28,-3.362 -0.562,-6.841 -2.63,-9.809Z" style="fill:#df1c01;fill-rule:nonzero;"/><path id="path3824" d="M483.097,482.18c-4.911,-7.048 -11.993,-11.438 -19.275,-12.715l-1.86,4.805c5.897,0.568 12.271,4.47 16.768,10.925c4.463,6.405 5.998,13.771 4.647,19.627l5.191,-0.01c1.161,-7.411 -0.589,-15.626 -5.471,-22.632Z" style="fill:#df1c01;fill-rule:nonzero;"/></g><g><g><path d="M251.416,210.295c-5.974,0.721 -11.286,3.316 -15.453,7.562c-4.072,4.142 -6.661,9.633 -7.336,15.492c-0.108,0.93 -0.135,-7.506 -0.108,17.789l0.041,35.452l0.297,1.442c1.618,7.824 5.919,14.05 12.378,17.89c9.588,5.727 22.155,4.259 30.246,-3.526c4.045,-3.879 6.486,-8.388 7.754,-14.364c0.283,-1.311 0.283,-1.455 0.323,-37.025c0.041,-31.888 0.027,-16.898 -0.162,-18.248c-1.591,-11.258 -9.803,-20.026 -20.766,-22.149c-1.159,-0.236 -2.063,-0.302 -4.112,-0.328c-1.443,-0.026 -2.846,-0.013 -3.102,0.013Z" style="fill:#ebebeb;fill-rule:nonzero;"/><path d="M210.963,272.871c0,0 -0.051,4.065 0,3.955c0.019,-0.042 0.175,13.198 1.132,17.261c2.913,12.267 11.759,22.66 23.8,27.955c3.169,1.39 7.606,2.713 10.64,3.172l1.105,0.157l0,6.789l0,6.789l-10.652,0l-10.653,0l0,9.044l0,5.394l55.421,0l0,-14.438l-10.653,0l-10.652,0l0,-13.578l1.119,-0.157c0.607,-0.092 1.969,-0.367 3.007,-0.616c15.669,-3.722 27.872,-15.57 31.419,-30.511c0.957,-4.063 1.215,-6.776 1.133,-18.048c-0.019,-2.479 0,-2.194 0,-2.194c0,0 -0.323,-7.015 -4.125,-7.242c0,0 -3.253,-0.196 -5.157,0c-4.776,0.491 -4.378,7.242 -4.378,7.242c-0.149,0.57 0.015,2.508 0,3.636c-0.141,10.762 -0.054,11.154 -0.836,14.168c-2.468,9.436 -10.195,17.064 -20.092,19.817c-6.311,1.756 -13.363,1.481 -19.35,-0.761c-8.887,-3.329 -15.481,-10.419 -17.733,-19.056c-0.782,-3.014 -0.782,-3.041 -0.836,-14.168c0,-3.712 0,-4.181 0,-4.61c0,0 0.588,-4.584 -3.861,-6.268c-0.923,-0.349 -4.636,0 -4.636,0c-5.131,0.406 -5.162,6.268 -5.162,6.268Z" style="fill:#ebebeb;fill-rule:nonzero;"/><g><rect x="231.669" y="238.478" width="11.229" height="11.079" style="fill:#df1c01;"/><rect x="247.982" y="238.507" width="11.229" height="11.079" style="fill:#df1c01;"/><rect x="264.131" y="238.421" width="11.229" height="11.079" style="fill:#df1c01;"/><rect x="247.921" y="254.502" width="11.229" height="11.079" style="fill:#df1c01;"/><rect x="248.124" y="270.839" width="11.229" height="11.079" style="fill:#df1c01;"/></g></g></g><g><path d="M40.826,103.843c-1.122,0 -2.157,0.453 -3.104,1.358c-0.947,0.906 -1.42,1.876 -1.42,2.911l0,42.303c0,1.229 0.456,2.248 1.368,3.056c0.911,0.809 1.963,1.213 3.156,1.213c1.403,0 2.542,-0.388 3.419,-1.164c0.877,-0.776 1.315,-1.811 1.315,-3.105l0,-3.881l9.258,-0.388l0,4.269c0,3.622 -1.333,6.662 -3.998,9.12c-2.665,2.458 -5.996,3.687 -9.994,3.687c-2.455,0 -4.699,-0.566 -6.733,-1.698c-2.034,-1.132 -3.647,-2.668 -4.84,-4.608c-1.192,-1.941 -1.788,-4.108 -1.788,-6.501l0,-42.303c0,-2.264 0.596,-4.366 1.788,-6.306c1.193,-1.941 2.823,-3.509 4.892,-4.706c2.069,-1.197 4.296,-1.795 6.681,-1.795c3.016,0 5.716,0.776 8.101,2.329c2.384,1.552 4.032,3.622 4.944,6.209l-8.311,8.538l0,-4.269c0,-1.099 -0.456,-2.086 -1.368,-2.959c-0.911,-0.873 -2.034,-1.31 -3.366,-1.31Z" style="fill:#ffa618;fill-rule:nonzero;"/><path d="M112.47,95.305l0,55.498c0,2.264 -0.614,4.334 -1.841,6.21c-1.227,1.875 -2.911,3.379 -5.05,4.511c-2.139,1.132 -4.506,1.698 -7.101,1.698c-2.385,0 -4.612,-0.566 -6.681,-1.698c-2.069,-1.132 -3.717,-2.652 -4.944,-4.56c-1.228,-1.908 -1.841,-3.962 -1.841,-6.161l0,-55.498l8.837,0l0,55.498c0,1.035 0.491,2.005 1.473,2.911c0.982,0.905 2.034,1.358 3.156,1.358c1.403,0 2.542,-0.436 3.419,-1.31c0.877,-0.873 1.315,-1.859 1.315,-2.959l0,-55.498l9.258,0Z" style="fill:#ffa618;fill-rule:nonzero;"/><path d="M164.652,163.222l-18.306,0l0,-59.573l-2.315,0c0.632,0 2.473,-1.197 5.524,-3.59c3.051,-2.393 4.962,-4.075 5.733,-5.045l0,59.476l18.832,0l-9.468,8.732Z" style="fill:#ffa618;fill-rule:nonzero;"/><path d="M212.52,103.455l0,51.132l-9.364,8.635l0,-59.767l-8.837,0l0,-8.15l27.459,0l0,8.15l-9.258,0Z" style="fill:#ffa618;fill-rule:nonzero;"/><path d="M278.167,95.305l0,55.498c0,2.264 -0.613,4.334 -1.841,6.21c-1.227,1.875 -2.91,3.379 -5.05,4.511c-2.139,1.132 -4.506,1.698 -7.101,1.698c-2.385,0 -4.611,-0.566 -6.68,-1.698c-2.069,-1.132 -3.718,-2.652 -4.945,-4.56c-1.227,-1.908 -1.841,-3.962 -1.841,-6.161l0,-55.498l8.837,0l0,55.498c0,1.035 0.491,2.005 1.473,2.911c0.982,0.905 2.034,1.358 3.156,1.358c1.403,0 2.543,-0.436 3.419,-1.31c0.877,-0.873 1.315,-1.859 1.315,-2.959l0,-55.498l9.258,0Z" style="fill:#ffa618;fill-rule:nonzero;"/><path d="M337.292,111.605c0,3.428 -1.262,6.307 -3.787,8.635c2.525,2.329 3.787,5.175 3.787,8.538l0,34.444l-9.363,0l0,-34.444c0,-1.293 -0.421,-2.328 -1.262,-3.104c-0.842,-0.777 -1.964,-1.165 -3.367,-1.165l-4.734,0l0,38.713l-8.837,0l0,-67.917l13.571,0c2.595,0 4.962,0.55 7.101,1.649c2.14,1.1 3.823,2.604 5.05,4.512c1.228,1.908 1.841,3.994 1.841,6.258l0,3.881Zm-13.992,4.269c1.403,0 2.525,-0.388 3.367,-1.164c0.841,-0.776 1.262,-1.811 1.262,-3.105l0,-3.881c0,-1.099 -0.438,-2.086 -1.315,-2.959c-0.877,-0.873 -1.981,-1.31 -3.314,-1.31l-4.734,0l0,12.419l4.734,0Z" style="fill:#ffa618;fill-rule:nonzero;"/><path d="M382.741,95.305c2.454,0 4.751,0.566 6.891,1.698c2.139,1.132 3.857,2.668 5.155,4.609c1.297,1.94 1.946,4.107 1.946,6.5l0,55.11l-9.363,0l0,-38.033l-9.258,0l0,38.033l-9.258,0l0,-67.917l13.887,0Zm4.629,12.807c0,-1.229 -0.474,-2.248 -1.421,-3.056c-0.946,-0.809 -2.016,-1.213 -3.208,-1.213l-4.629,0l0,12.807l9.258,0l0,-8.538Z" style="fill:#ffa618;fill-rule:nonzero;"/><path d="M448.914,163.222l-18.305,0l0,-59.573l-2.315,0c0.631,0 2.473,-1.197 5.523,-3.59c3.051,-2.393 4.963,-4.075 5.734,-5.045l0,59.476l18.832,0l-9.469,8.732Z" style="fill:#ffa618;fill-rule:nonzero;"/></g><g><path d="M35.671,35.524c0,-1.134 -0.504,-2.15 -1.512,-3.05c-1.008,-0.9 -2.147,-1.35 -3.416,-1.35c-1.418,0 -2.594,0.45 -3.528,1.35c-0.933,0.9 -1.4,1.916 -1.4,3.05l0,13.3c0,0.866 0.579,1.716 1.736,2.55c1.158,0.833 3.043,1.983 5.656,3.45c3.733,2 6.645,3.833 8.736,5.5c2.09,1.666 3.135,3.6 3.135,5.8l0,13.3c0,2.333 -0.634,4.516 -1.903,6.55c-1.27,2.033 -3.006,3.666 -5.208,4.9c-2.203,1.233 -4.611,1.85 -7.224,1.85c-2.762,0 -5.282,-0.617 -7.559,-1.85c-2.278,-1.234 -4.069,-2.867 -5.376,-4.9c-1.307,-2.034 -1.96,-4.217 -1.96,-6.55l0,-4.4l9.967,0l0,4.4c0,1.133 0.467,2.15 1.4,3.05c0.934,0.9 2.11,1.35 3.528,1.35c1.269,0 2.408,-0.467 3.416,-1.4c1.008,-0.934 1.512,-1.934 1.512,-3l0,-13.3c0,-0.934 -0.616,-1.834 -1.848,-2.7c-1.232,-0.867 -3.192,-1.967 -5.88,-3.3c-3.957,-2 -6.962,-3.817 -9.015,-5.45c-2.053,-1.634 -3.08,-3.584 -3.08,-5.85l0,-13.3c0,-2.334 0.653,-4.467 1.96,-6.4c1.307,-1.934 3.098,-3.484 5.376,-4.65c2.277,-1.167 4.797,-1.75 7.559,-1.75c2.613,0 5.021,0.583 7.224,1.75c2.202,1.166 3.938,2.733 5.208,4.7c1.269,1.966 1.903,4.083 1.903,6.35l0,4.5l-9.407,0l0,-4.5Z" style="fill:#fff;fill-rule:nonzero;"/><path d="M108.355,92.724l-29.678,0l0,-70l29.678,0l-9.968,8.8l-9.855,0l0,17.7l9.855,0l0,8.8l-9.855,0l0,25.9l9.855,0l9.968,8.8Z" style="fill:#fff;fill-rule:nonzero;"/><path d="M156.96,57.924c0.672,0 2.613,-1.217 5.824,-3.65c3.21,-2.434 5.226,-4.15 6.047,-5.15l0,30.4c0,2.333 -0.634,4.5 -1.903,6.5c-1.27,2 -3.006,3.616 -5.208,4.85c-2.203,1.233 -4.611,1.85 -7.224,1.85c-2.762,0 -5.263,-0.6 -7.503,-1.8c-2.24,-1.2 -4.013,-2.817 -5.32,-4.85c-1.307,-2.034 -1.96,-4.217 -1.96,-6.55l0,-43.6c0,-2.334 0.653,-4.517 1.96,-6.55c1.307,-2.034 3.08,-3.65 5.32,-4.85c2.24,-1.2 4.741,-1.8 7.503,-1.8c2.987,0 5.712,0.8 8.176,2.4c2.464,1.6 4.33,3.733 5.6,6.4l-8.848,8.8l0,-4.4c0,-1.134 -0.504,-2.15 -1.512,-3.05c-1.008,-0.9 -2.146,-1.35 -3.416,-1.35c-1.418,0 -2.594,0.45 -3.528,1.35c-0.933,0.9 -1.399,1.916 -1.399,3.05l0,43.6c0,1.133 0.466,2.15 1.399,3.05c0.934,0.9 2.11,1.35 3.528,1.35c1.27,0 2.408,-0.467 3.416,-1.4c1.008,-0.934 1.512,-1.934 1.512,-3l0,-21.6l-2.464,0Z" style="fill:#fff;fill-rule:nonzero;"/><path d="M240.507,92.724l0,-57.2c0,-0.667 -0.28,-1.234 -0.839,-1.7c-0.56,-0.467 -1.27,-0.967 -2.128,-1.5c-0.859,-0.534 -1.512,-0.934 -1.96,-1.2c-0.523,0.4 -1.214,0.883 -2.072,1.45c-0.859,0.566 -1.475,1.066 -1.848,1.5c-0.373,0.433 -0.56,0.916 -0.56,1.45l0,57.2l-9.967,0l0,-57.2c0,-1.134 -0.504,-2.15 -1.512,-3.05c-1.008,-0.9 -2.147,-1.35 -3.416,-1.35l-4.928,0l0,61.6l-9.967,0l0,-70l14.895,0c2.165,0 4.2,0.4 6.103,1.2c1.904,0.8 3.491,1.866 4.76,3.2c0.374,0 0.71,-0.134 1.008,-0.4l2.352,-1.2c2.987,-1.6 4.704,-2.534 5.152,-2.8l5.151,2.6l2.8,1.4c2.165,1.333 3.864,2.7 5.096,4.1c1.232,1.4 1.848,2.966 1.848,4.7l0,57.2l-9.968,0Z" style="fill:#fff;fill-rule:nonzero;"/><path d="M312.631,92.724l-29.678,0l0,-70l29.678,0l-9.967,8.8l-9.855,0l0,17.7l9.855,0l0,8.8l-9.855,0l0,25.9l9.855,0l9.967,8.8Z" style="fill:#fff;fill-rule:nonzero;"/><path d="M358.325,22.724c4.256,0 7.821,1.266 10.695,3.8c2.875,2.533 4.312,5.666 4.312,9.4l0,56.8l-9.967,0l0,-56.8c0,-1.334 -0.467,-2.4 -1.4,-3.2c-0.934,-0.8 -2.147,-1.2 -3.64,-1.2l-4.928,0l0,61.2l-9.407,0l0,-70l14.335,0Z" style="fill:#fff;fill-rule:nonzero;"/><path d="M423.505,31.124l0,52.7l-9.967,8.9l0,-61.6l-9.408,0l0,-8.4l29.231,0l0,8.4l-9.856,0Z" style="fill:#fff;fill-rule:nonzero;"/><path d="M478.494,22.724c4.256,0 7.802,1.283 10.64,3.85c2.837,2.566 4.255,5.716 4.255,9.45l0,43.4c0,2.333 -0.653,4.516 -1.96,6.55c-1.306,2.033 -3.098,3.666 -5.375,4.9c-2.278,1.233 -4.797,1.85 -7.56,1.85c-2.538,0 -4.909,-0.617 -7.111,-1.85c-2.203,-1.234 -3.958,-2.867 -5.264,-4.9c-1.307,-2.034 -1.96,-4.217 -1.96,-6.55l0,-43.4c0,-2.467 0.653,-4.717 1.96,-6.75c1.306,-2.034 3.042,-3.634 5.208,-4.8c2.165,-1.167 4.554,-1.75 7.167,-1.75Zm5.04,13.3c0,-1.4 -0.467,-2.567 -1.4,-3.5c-0.933,-0.934 -2.147,-1.4 -3.64,-1.4c-1.269,0 -2.408,0.483 -3.416,1.45c-1.008,0.966 -1.512,2.116 -1.512,3.45l0,43.4c0,1.066 0.523,2.066 1.568,3c1.046,0.933 2.166,1.4 3.36,1.4c1.493,0 2.707,-0.45 3.64,-1.35c0.933,-0.9 1.4,-1.917 1.4,-3.05l0,-43.4Z" style="fill:#fff;fill-rule:nonzero;"/></g></svg>