<?xml version="1.0" encoding="UTF-8" standalone="no"?><!DOCTYPE svg PUBLIC "-//W3C//DTD SVG 1.1//EN" "http://www.w3.org/Graphics/SVG/1.1/DTD/svg11.dtd"><svg width="100%" height="100%" viewBox="0 0 512 512" version="1.1" xmlns="http://www.w3.org/2000/svg" xmlns:xlink="http://www.w3.org/1999/xlink" xml:space="preserve" xmlns:serif="http://www.serif.com/" style="fill-rule:evenodd;clip-rule:evenodd;stroke-linejoin:round;stroke-miterlimit:1.41421;"><clipPath id="_clip1"><path d="M511.303,16.406c0,-8.495 -6.897,-15.393 -15.393,-15.393l-479.59,0c-8.496,0 -15.394,6.898 -15.394,15.393l0,479.664c0,8.496 6.898,15.393 15.394,15.393l479.59,0c8.496,0 15.393,-6.897 15.393,-15.393l0,-479.664Z"/></clipPath><g clip-path="url(#_clip1)"><path d="M515.469,-0.468c0,0 4.797,267.937 0,282.231c-16.072,47.891 -240.031,137.062 -311.218,77.573c-94.31,-78.813 58.96,-151.226 51.357,-160.045c-119.945,-2.1 -231.173,73.114 -257.002,143.491c-1.744,4.754 -0.005,-60.125 0,-61.019c0.189,-29.893 0.001,-281.994 0,-282.231l516.863,0Z" style="fill:#00344a;"/></g><text x="299.004px" y="504.633px" style="font-family:'ShreeDev0714', 'Shree Devanagari 714';font-size:59.378px;fill:#df1c01;">o<tspan x="330.404px 360.278px 371.431px 382.583px 412.457px " y="504.633px 504.633px 504.633px 504.633px 504.633px ">nline</tspan></text><path d="M158.398,347.892c-26.529,-15.812 -43.088,-38.188 -43.088,-62.979c0,-47.867 61.733,-86.729 137.771,-86.729c76.038,0 137.771,38.862 137.771,86.729c0,47.867 -61.733,86.729 -137.771,86.729c-12.388,0 -24.395,-1.031 -35.819,-2.965c4.576,10.332 19.002,21.472 19.002,21.472c0,0 -53.042,-14.68 -77.866,-42.257Z" style="fill:#df1c01;"/><text x="13.462px" y="456.801px" style="font-family:'Arial-Black', 'Arial Black', sans-serif;font-weight:900;font-size:88.977px;fill:#393c48;">R<tspan x="79.504px 136.135px 192.765px 221.039px 277.67px 305.985px 367.301px 428.616px " y="456.801px 456.801px 456.801px 456.801px 456.801px 456.801px 456.801px 456.801px ">adio TES</tspan></text><g><path id="path3812" d="M455.701,505.715c-1.595,1.159 -3.808,0.778 -4.943,-0.851c-1.135,-1.629 -0.762,-3.889 0.833,-5.048c1.595,-1.16 3.808,-0.779 4.943,0.85c1.135,1.629 0.762,3.889 -0.833,5.049Z" style="fill:#df1c01;fill-rule:nonzero;"/><path id="path3814" d="M474.08,488.837c-3.736,-5.363 -9.041,-8.66 -14.142,-9.347l-1.965,5.071c4.257,0.104 8.88,2.703 12.038,7.234c2.923,4.196 3.901,9.063 3,13.049l5.212,-0.011c0.782,-5.001 -0.577,-10.879 -4.143,-15.996Z" style="fill:#df1c01;fill-rule:nonzero;"/><path id="path3822" d="M464.648,495.044c-2.125,-3.05 -5.177,-5.027 -8.483,-5.816l-1.661,4.284c2.429,0.64 4.66,2.124 6.23,4.377c1.474,2.115 2.13,4.57 2.037,6.975l4.507,-0.011c0.28,-3.362 -0.562,-6.841 -2.63,-9.809Z" style="fill:#df1c01;fill-rule:nonzero;"/><path id="path3824" d="M483.097,482.18c-4.911,-7.048 -11.993,-11.438 -19.275,-12.715l-1.86,4.805c5.897,0.568 12.271,4.47 16.768,10.925c4.463,6.405 5.998,13.771 4.647,19.627l5.191,-0.01c1.161,-7.411 -0.589,-15.626 -5.471,-22.632Z" style="fill:#df1c01;fill-rule:nonzero;"/></g><g><g><path d="M251.416,210.295c-5.974,0.721 -11.286,3.316 -15.453,7.562c-4.072,4.142 -6.661,9.633 -7.336,15.492c-0.108,0.93 -0.135,-7.506 -0.108,17.789l0.041,35.452l0.297,1.442c1.618,7.824 5.919,14.05 12.378,17.89c9.588,5.727 22.155,4.259 30.246,-3.526c4.045,-3.879 6.486,-8.388 7.754,-14.364c0.283,-1.311 0.283,-1.455 0.323,-37.025c0.041,-31.888 0.027,-16.898 -0.162,-18.248c-1.591,-11.258 -9.803,-20.026 -20.766,-22.149c-1.159,-0.236 -2.063,-0.302 -4.112,-0.328c-1.443,-0.026 -2.846,-0.013 -3.102,0.013Z" style="fill:#ebebeb;fill-rule:nonzero;"/><path d="M210.963,272.871c0,0 -0.051,4.065 0,3.955c0.019,-0.042 0.175,13.198 1.132,17.261c2.913,12.267 11.759,22.66 23.8,27.955c3.169,1.39 7.606,2.713 10.64,3.172l1.105,0.157l0,6.789l0,6.789l-10.652,0l-10.653,0l0,9.044l0,5.394l55.421,0l0,-14.438l-10.653,0l-10.652,0l0,-13.578l1.119,-0.157c0.607,-0.092 1.969,-0.367 3.007,-0.616c15.669,-3.722 27.872,-15.57 31.419,-30.511c0.957,-4.063 1.215,-6.776 1.133,-18.048c-0.019,-2.479 0,-2.194 0,-2.194c0,0 -0.323,-7.015 -4.125,-7.242c0,0 -3.253,-0.196 -5.157,0c-4.776,0.491 -4.378,7.242 -4.378,7.242c-0.149,0.57 0.015,2.508 0,3.636c-0.141,10.762 -0.054,11.154 -0.836,14.168c-2.468,9.436 -10.195,17.064 -20.092,19.817c-6.311,1.756 -13.363,1.481 -19.35,-0.761c-8.887,-3.329 -15.481,-10.419 -17.733,-19.056c-0.782,-3.014 -0.782,-3.041 -0.836,-14.168c0,-3.712 0,-4.181 0,-4.61c0,0 0.588,-4.584 -3.861,-6.268c-0.923,-0.349 -4.636,0 -4.636,0c-5.131,0.406 -5.162,6.268 -5.162,6.268Z" style="fill:#ebebeb;fill-rule:nonzero;"/><g><rect x="231.669" y="238.478" width="11.229" height="11.079" style="fill:#df1c01;"/><rect x="247.982" y="238.507" width="11.229" height="11.079" style="fill:#df1c01;"/><rect x="264.131" y="238.421" width="11.229" height="11.079" style="fill:#df1c01;"/><rect x="247.921" y="254.502" width="11.229" height="11.079" style="fill:#df1c01;"/><rect x="248.124" y="270.839" width="11.229" height="11.079" style="fill:#df1c01;"/></g></g></g><text x="11.684px" y="163.222px" style="font-family:'POGODisplay', 'POGO';font-size:97.025px;fill:#ffa618;">C<tspan x="69.231px 128.251px 181.169px 234.928px 293.948px 353.073px 412.514px " y="163.222px 163.222px 163.222px 163.222px 163.222px 163.222px 163.222px ">ULTURAL</tspan></text><text x="-0.951px" y="92.724px" style="font-family:'POGODisplay', 'POGO';font-size:100px;fill:#fff;">S<tspan x="61.877px 122.914px 185.631px 266.154px 327.191px 390.131px 447.36px " y="92.724px 92.724px 92.724px 92.724px 92.724px 92.724px 92.724px ">EGMENTO</tspan></text></svg>