<svg xmlns="http://www.w3.org/2000/svg" viewBox="0 0 900 900"><defs><style>.cls-1{fill:#2f373a;}.cls-2{fill:#9ca30c;}.cls-3{fill:#99990d;}.cls-4{fill:#a5b50b;}.cls-5{fill:#df4949;}.cls-6{fill:#c44141;}.cls-7{fill:#ab8844;}.cls-8{fill:#dbcf8a;}.cls-9{fill:#f5e283;}.cls-10{fill:#f9ee9c;}</style></defs><title>20</title><g id="Layer_2" data-name="Layer 2"><g id="bells"><circle class="cls-1" cx="450" cy="450" r="450"/><path class="cls-2" d="M686.21,364.51l-.83-1.12a100.65,100.65,0,0,1-8.57-13.58s-.74,1.31-2.31,3.51c-9.7,13.57-51,61.36-144.16,49.64,0,0-3.48,50.6-30.43,88.29-11.42,16-27.06,29.62-48.43,36.13,0,0,11-3.39,30.77,3.21,10,3.35,22.38,9.26,36.7,19.5,15.09,10.78,32.41,26.35,51.63,48.74A139.36,139.36,0,0,1,582.5,588h0c22.47-18.36,73.43-50.88,124.58-20.59l.64.39q3.35,2,6.68,4.39t6.4,4.93s1.8-5.88,5.34-15.16l.32-.84c6.45-16.78,18.36-44,35.46-67.9,9.7-13.56,21.05-26.06,34-35,1.42-1,2.87-1.92,4.33-2.82a78.75,78.75,0,0,1,14.46-7s-47.67-17.33-88.6-46.65C711,390.91,696.75,378.4,686.21,364.51Z"/><path class="cls-3" d="M450.48,466.25c-35.12-13.63-77.59-36.14-99.23-70.19,0,0-68.12,69.37-114.2,56.63A91.22,91.22,0,0,1,233,465c-8.31,21.39-32.11,68-94.35,119.66,0,0,5.67,2.24,14.67,6.55l1.59.77c22.55,10.93,63.64,33.78,91.05,66.29a147,147,0,0,1,9.69,12.82c4.14-3.17,8.37-6.5,12.68-9.88l0,0c36.38-28.54,79-61.15,129.85-41.4a107.67,107.67,0,0,1,14.92,7.2q1.07.62,2.13,1.27a140.5,140.5,0,0,1,13.23,9.12s1.51-40.32,17.35-80.91c8.82-22.6,22.07-45.28,42-61.15,1.67-1.33,3.4-2.62,5.16-3.85a95.47,95.47,0,0,1,13.89-8.06A382.58,382.58,0,0,1,450.48,466.25Z"/><path class="cls-4" d="M463.35,374.49c-1.69,23.27-16.39,68.83-95.05,116.28,0,0,44,69.64,36.86,153.28A207.29,207.29,0,0,1,401.72,668s54.86,40.29,75.86,102.87c.72,2.15,1.4,4.31,2,6.5A153.42,153.42,0,0,1,483.29,793s2.87-5.3,8.1-13.88q1.7-2.78,3.72-6c19.77-31.38,62.24-91.33,111.6-115.55l.15-.08a114,114,0,0,1,14.88-6.07s-61.63-103.22-65.3-164.13c0,0-53.63-47.39-94.1-128.83C462.35,358.45,464.08,364.36,463.35,374.49Z"/><path class="cls-5" d="M463.77,205.74l-186-84.37c-3.49-1.78-28.3,8.59-37.89,18.77-53.68,57-55.76,123.47-28.34,196.8l21.6,57.76c0,22.53,15,38.14,29.06,30.26L464.84,311.42c14.62-8.19,24.31-29.14,24.31-52.55h0C489.15,234.83,478.94,213.46,463.77,205.74Z"/><path class="cls-5" d="M446.58,205.74l151.74-77.2a65.65,65.65,0,0,1,93.11,41.28c1.24,4.55,2.67,9.18,4.41,13.84A135.69,135.69,0,0,1,702,254.84L677.24,394.71c0,22.53-15,38.14-29.06,30.26L445.5,311.42c-14.62-8.19-24.31-29.14-24.31-52.55h0C421.2,234.83,431.4,213.46,446.58,205.74Z"/><rect class="cls-6" x="424.83" y="187.78" width="60.68" height="148.09" rx="7.44" ry="7.44"/><path class="cls-7" d="M453.06,604.74c-10.77,18.11-66,9.58-126.21-20.66s-101.45-70-92-88.84c29.49-58.77,80.84-40.1,141.09-9.87S486.16,549.07,453.06,604.74Z"/><ellipse class="cls-8" cx="347.79" cy="542.63" rx="41.25" ry="32.47" transform="translate(-293.18 610.12) rotate(-63.35)"/><path class="cls-9" d="M357,529.46c35.09,17.61,73.74,50.76,94.59,77.81,77.38-53.82,58.17-234.93-2.94-265.59s-218,65.68-215.49,156C268.14,497.3,320.32,511.06,357,529.46Z"/><path class="cls-7" d="M487.28,566.28c10.77,18.11,66,9.58,126.21-20.66s101.45-70,92-88.84C676,398,624.66,416.68,564.4,446.92S454.19,510.61,487.28,566.28Z"/><ellipse class="cls-8" cx="592.55" cy="504.17" rx="32.47" ry="41.25" transform="translate(-163.18 319.3) rotate(-26.65)"/><path class="cls-10" d="M583.36,491c-35.09,17.61-73.74,50.76-94.59,77.81C411.4,515,430.61,333.89,491.72,303.22s218,65.68,215.49,156C672.2,458.84,620,472.6,583.36,491Z"/><polygon class="cls-10" points="83.5 367.38 71.28 358.44 56.98 363.44 61.71 349.06 52.53 337.01 67.68 337.06 76.3 324.62 80.93 339.03 95.43 343.38 83.16 352.25 83.5 367.38"/><polygon class="cls-10" points="141.5 506.25 137 503.71 132.34 505.98 133.37 500.9 129.77 497.18 134.91 496.59 137.34 492.02 139.49 496.73 144.59 497.62 140.78 501.12 141.5 506.25"/><polygon class="cls-10" points="479.88 72.95 472.84 68.61 465.28 71.95 467.23 63.92 461.72 57.76 469.96 57.13 474.12 49.98 477.26 57.63 485.34 59.37 479.04 64.72 479.88 72.95"/><polygon class="cls-10" points="830.57 295.01 826.23 292.82 821.97 295.15 822.71 290.35 819.18 287.01 823.98 286.24 826.05 281.85 828.27 286.17 833.09 286.79 829.67 290.23 830.57 295.01"/><polygon class="cls-10" points="839.36 608.77 830.03 599.28 816.93 601.58 823.07 589.78 816.84 578.03 829.96 580.23 839.21 570.67 841.17 583.83 853.13 589.67 841.22 595.6 839.36 608.77"/><polygon class="cls-10" points="310.25 781.35 300.35 778.42 292.33 784.93 292.05 774.6 283.38 768.98 293.12 765.53 295.78 755.55 302.08 763.74 312.39 763.19 306.55 771.71 310.25 781.35"/><polygon class="cls-10" points="158.2 199.51 150.3 193.71 141.05 196.93 144.12 187.62 138.2 179.81 148 179.86 153.6 171.82 156.58 181.16 165.96 183.99 158 189.71 158.2 199.51"/><polygon class="cls-10" points="696.97 671.28 689.49 666.66 681.44 670.21 683.52 661.67 677.66 655.11 686.43 654.45 690.85 646.85 694.19 654.98 702.79 656.84 696.08 662.53 696.97 671.28"/><polygon class="cls-10" points="754.98 244.55 741.14 233.65 724.31 238.87 730.4 222.34 720.24 207.95 737.84 208.63 748.39 194.52 753.18 211.47 769.86 217.14 755.21 226.93 754.98 244.55"/></g></g></svg>