<svg  xmlns="http://www.w3.org/2000/svg" xmlns:xlink="http://www.w3.org/1999/xlink" version="1.1">
<path id="mobile-mobile" d="M3.811,0.227l-1.871,0c-0.303,0 -0.552,0.249 -0.552,0.553l0,4.208c0,0.304 0.249,0.553 0.552,0.553l1.871,0c0.303,0 0.552,-0.249 0.552,-0.553l0,-4.208c0,-0.304 -0.249,-0.553 -0.552,-0.553Zm-0.847,0.361c0,0.05 -0.04,0.09 -0.088,0.09c-0.05,0 -0.089,-0.04 -0.089,-0.09c0,-0.048 0.039,-0.088 0.089,-0.088c0.048,0 0.088,0.04 0.088,0.088Zm0.252,4.584c0,0.037 -0.031,0.068 -0.068,0.068l-0.545,0c-0.037,0 -0.068,-0.031 -0.068,-0.068l0,-0.034c0,-0.037 0.031,-0.068 0.068,-0.068l0.545,0c0.037,0 0.068,0.031 0.068,0.068l0,0.034Zm0.855,-0.394l-2.391,0l0,-3.788l2.391,0l0,3.788Z"/>
<g id="mail-mail">
<path d="M0.695,1.228l0.016,0.002l0.014,0.002l4.287,0l0.027,0.001l0.017,0l0.019,0.002l0.023,0.002l0.025,0.005l0.018,0.005l0.017,0.006l0.019,0.007l0.019,0.009l0.021,0.012l0.011,0.008l0.009,0.007l0.009,0.007l0.002,0.002l0.008,0.008l0.009,0.008l0.002,0.002l0.008,0.009l0.007,0.009l0.002,0.002l0.007,0.009l0.007,0.009l0.007,0.012l0.012,0.021l0.009,0.021l0.007,0.019l0.005,0.019l0.003,0.017l0.003,0.018l0.003,0.025l0,0.021l0,2.627l0,0.02l-0.002,0.023l-0.003,0.023l-0.004,0.024l-0.005,0.023l-0.004,0.014l-0.004,0.013l-0.004,0.013l-0.005,0.014l-0.006,0.014l-0.006,0.014l-0.008,0.015l-0.009,0.015l-0.009,0.016l-0.011,0.015l-0.013,0.016l-0.014,0.015l-0.016,0.016l-0.018,0.015l-0.019,0.014l-0.022,0.014l-0.023,0.011l-0.025,0.011l-0.026,0.008l-0.027,0.005l-0.026,0.004l-0.022,0l-4.309,0l-0.022,0l-0.026,-0.004l-0.027,-0.006l-0.026,-0.007l-0.025,-0.011l-0.023,-0.011l-0.022,-0.014l-0.019,-0.014l-0.018,-0.015l-0.016,-0.016l-0.014,-0.015l-0.013,-0.016l-0.011,-0.015l-0.009,-0.016l-0.009,-0.015l-0.007,-0.014l-0.007,-0.015l-0.006,-0.014l-0.005,-0.013l-0.004,-0.014l-0.004,-0.013l-0.004,-0.014l-0.005,-0.023l-0.004,-0.024l-0.003,-0.023l-0.002,-0.023l0,-0.02l0,-2.619l-0.001,-0.004l-0.001,-0.014l0,-0.022l0.001,-0.02l0.002,-0.021l0.005,-0.023l0.004,-0.014l0.004,-0.012l0.004,-0.012l0.001,-0.003l0.005,-0.012l0.006,-0.012l0.002,-0.004l0.007,-0.012l0.007,-0.011l0.002,-0.003l0.008,-0.012l0.009,-0.01l0.002,-0.003l0.011,-0.012l0.011,-0.011l0.001,-0.001l0.015,-0.013l0.016,-0.011l0.017,-0.011l0.001,0l0.017,-0.009l0.018,-0.007l0.018,-0.006l0.019,-0.004l0.019,-0.003l0,-0.001l0.02,-0.001l0.02,0l0,0l0.006,-0.001l0.023,0l0.02,0.001Zm-0.03,0.249l-0.004,0.001l-0.004,0l-0.004,0.001l-0.003,0.002l-0.004,0.002l-0.001,0.001l-0.002,0l0,0l-0.001,0l-0.001,-0.001l-0.001,0l-0.001,-0.002l-0.001,-0.002l0,-0.001l-0.001,0l0,0l-0.001,0l-0.001,0l-0.001,0.001l-0.002,0.003l-0.003,0.003l-0.001,0.004l-0.002,0.003l-0.001,0.003l0,0.004l-0.001,0.004l0,0.003l0,0.008l0.001,0.008l0,0.008l0.001,0.008l0,2.62l0,0.011l0.001,0.011l0.001,0.011l0.002,0.011l0.003,0.012l0.001,0.006l0.002,0.005l0.002,0.006l0.002,0.006l0.002,0.005l0.002,0.005l0.003,0.006l0.003,0.004l0.003,0.005l0.003,0.005l0.004,0.004l0.003,0.004l0.004,0.004l0.004,0.003l0.005,0.004l0.004,0.002l0.005,0.003l0.005,0.002l0.005,0.001l0.005,0.002l0.006,0l0.006,0l4.299,0l0.006,0l0.006,0l0.005,-0.002l0.005,-0.001l0.005,-0.002l0.005,-0.003l0.005,-0.002l0.004,-0.004l0.004,-0.003l0.004,-0.004l0.003,-0.004l0.004,-0.004l0.003,-0.005l0.003,-0.005l0.003,-0.004l0.003,-0.006l0.002,-0.005l0.002,-0.005l0.002,-0.006l0.002,-0.006l0.002,-0.005l0.001,-0.006l0.003,-0.012l0.002,-0.011l0.001,-0.011l0.001,-0.011l0,-0.011l0,-2.62l0,-0.01l-0.001,-0.008l0,-0.004l-0.001,-0.003l-0.001,-0.003l-0.001,-0.003l-0.001,-0.003l-0.002,-0.003l-0.001,-0.002l-0.002,-0.002l-0.002,-0.002l-0.002,-0.002l-0.002,-0.001l-0.002,-0.002l-0.003,-0.001l-0.003,-0.001l-0.003,-0.001l-0.003,-0.001l-0.007,-0.001l-0.008,-0.001l-0.009,-0.001l-0.01,0l-0.022,-0.001l-4.299,0l-0.005,0l-0.005,0l-0.009,-0.001l-0.009,-0.002l-0.008,-0.001l-0.004,-0.001l-0.004,0l-0.003,0Zm-0.212,0.172l0.003,0.003l-0.002,-0.002l-0.005,-0.007l0.004,0.006Zm-0.025,-0.034l0.004,0.005l-0.008,-0.012l-0.002,-0.004l0.006,0.011Zm0.421,-0.272l0.008,0.014l-0.009,-0.015l-0.004,-0.005l0.005,0.006Zm-0.025,-0.031l-0.001,-0.002l-0.001,-0.001l0.002,0.003Zm-0.044,-0.039l-0.001,-0.001l0,0l0.001,0.001Zm-0.257,-0.007l0,0l0.001,-0.001l-0.001,0.001Zm0.031,-0.017l-0.016,0.009l0.009,-0.005l0.004,-0.002l0.01,-0.004l-0.007,0.002Z" style="fill:#1a1a1a;"/>
<path d="M0.618,1.479l1.762,1.405c0.277,0.212 0.718,0.21 0.992,-0.004l1.74,-1.391" style="fill:none;stroke:#1a1a1a;stroke-width:0.35px;"/>
<path d="M5.112,4.207l-1.431,-1.573" style="fill:none;stroke:#1a1a1a;stroke-width:0.35px;"/>
<path d="M0.611,4.207l1.461,-1.573" style="fill:none;stroke:#1a1a1a;stroke-width:0.35px;"/>
</g>
</svg>
