<?xml version="1.0" encoding="UTF-8" standalone="no"?><!DOCTYPE svg PUBLIC "-//W3C//DTD SVG 1.1//EN" "http://www.w3.org/Graphics/SVG/1.1/DTD/svg11.dtd"><svg viewBox="0 0 193 109" version="1.1" xmlns="http://www.w3.org/2000/svg" xmlns:xlink="http://www.w3.org/1999/xlink" xml:space="preserve" style="fill-rule:evenodd;clip-rule:evenodd;stroke-linejoin:round;stroke-miterlimit:10;"><g><path d="M100.5,61l25.5,0l15,-6l0,-19l-18,-7l-18,7l-1,6l-3.5,19Z" style="fill:#fff;fill-rule:nonzero;"/><path d="M133,14l3,0l0,3l-3,1.5" style="fill:#fff;fill-rule:nonzero;"/><path d="M71,70l-7,38l14,-38" style="fill:#fff;fill-rule:nonzero;"/><path d="M135,70l4,38l-18,-32l-18,32l5,-38" style="fill:#fff;fill-rule:nonzero;"/><path d="M158,70l-92,0l-8,-9l108,0l-8,9Z" style="fill:#fff;fill-rule:nonzero;"/><path d="M154,70l7,38l-14,-38" style="fill:#fff;fill-rule:nonzero;"/><path d="M158,61l-7,0l-2,-13l11,0l-2,13Z" style="fill:#fff;fill-rule:nonzero;"/><path d="M133,23l-10,4l-10,-4l0,-16.5l10,-5.5l10,5.5l0,16.5Z" style="fill:#fff;fill-rule:nonzero;"/><path d="M37,108l-9,0l-5,-19l19,0l-5,19Z" style="fill:#fff;fill-rule:nonzero;"/><path d="M121,76l18,32l-4,-38l-22,0l-3.5,26.4l11.5,-20.4Z" style="fill:#ccefff;fill-rule:nonzero;"/><path d="M155.1,76l-1.1,-6l-7,0l2.2,6l5.9,0Z" style="fill:#ccefff;fill-rule:nonzero;"/><path d="M69.9,76l1.1,-6l7,0l-2.2,6l-5.9,0Z" style="fill:#ccefff;fill-rule:nonzero;"/><path d="M32.5,89l9.5,0l-5,19l-4.5,0l0,-19Z" style="fill:#ccefff;fill-rule:nonzero;"/><path d="M154,61l4,0l2,-13l-6,0l0,13Z" style="fill:#ccefff;fill-rule:nonzero;"/><path d="M113,12l0,-1.5l10,-5.5l10,5.5l0,1.5l-20,0Z" style="fill:#ccefff;fill-rule:nonzero;"/><path d="M133,23l-10,4l-10,-4l0,-16.5l10,-5.5l10,5.5l0,16.5Z" style="fill:none;stroke:#2e5767;stroke-width:2px;"/><path d="M118,16.5l0,-1.5" style="fill:none;stroke:#2e5767;stroke-width:2px;stroke-linecap:round;"/><path d="M126,16.5l0,-1.5" style="fill:none;stroke:#2e5767;stroke-width:2px;stroke-linecap:round;"/><path d="M72.3,61l-7.3,-26l33,0l7.3,26l-33,0Z" style="fill:#fff;fill-rule:nonzero;stroke:#2e5767;stroke-width:2px;stroke-linecap:round;"/><path d="M87.5,47.5l-3,2l-3,-2l0,-3l3,-2l3,2l0,3Z" style="fill:#ccefff;fill-rule:nonzero;stroke:#2e5767;stroke-width:2px;"/><path d="M129.3,31.4l-6.3,12.6l-6.3,-12.6" style="fill:none;stroke:#2e5767;stroke-width:2px;stroke-linecap:round;"/><path d="M133,12l-29,0" style="fill:none;stroke:#2e5767;stroke-width:2px;stroke-linecap:round;"/><path d="M124.5,21l-2.5,1l-2.5,-1" style="fill:none;stroke:#2e5767;stroke-width:2px;stroke-linecap:round;"/><path d="M133,14l3,0l0,3l-3,1.5" style="fill:none;stroke:#2e5767;stroke-width:2px;stroke-linecap:round;"/><path d="M104.2,57l-33,0" style="fill:none;stroke:#2e5767;stroke-width:2px;stroke-linecap:round;"/><path d="M105.3,61l15.7,0l-2,-4l-14.8,0l1.1,4Z" style="fill:#fff;fill-rule:nonzero;stroke:#2e5767;stroke-width:2px;stroke-linecap:round;"/><path d="M135,43l0,7l-15,11l6,0l15,-6l0,-19l-18,-7l-18,7l-1,6" style="fill:none;stroke:#2e5767;stroke-width:2px;stroke-linecap:round;"/><path d="M135,43l0,5" style="fill:none;stroke:#2e5767;stroke-width:2px;stroke-linecap:round;"/><path d="M158,70l-92,0l-8,-9l108,0l-8,9Z" style="fill:none;stroke:#2e5767;stroke-width:2px;stroke-linecap:round;"/><g><path d="M10,108l174,0" style="fill:none;stroke:#f4f1b5;stroke-width:2px;stroke-linecap:round;"/><path d="M189,108l3,0" style="fill:none;stroke:#f4f1b5;stroke-width:2px;stroke-linecap:round;"/><path d="M1,108l3,0" style="fill:none;stroke:#f4f1b5;stroke-width:2px;stroke-linecap:round;"/></g><path d="M135,70l4,38l-18,-32l-18,32l5,-38" style="fill:none;stroke:#2e5767;stroke-width:2px;stroke-linecap:round;"/><g><path d="M151,42l2,-2l-4,-4l2,-2" style="fill:none;stroke:#2e5767;stroke-width:2px;stroke-linecap:round;"/><path d="M158,42l2,-2l-4,-4l2,-2" style="fill:none;stroke:#2e5767;stroke-width:2px;stroke-linecap:round;"/></g><path d="M158,61l-7,0l-2,-13l11,0l-2,13Z" style="fill:none;stroke:#2e5767;stroke-width:2px;stroke-linecap:round;"/><path d="M37,108l-9,0l-5,-19l19,0l-5,19Z" style="fill:none;stroke:#2e5767;stroke-width:2px;stroke-linecap:round;"/><path d="M37,72l4,0l4,-8l-8,4l0,4Z" style="fill:#fff;fill-rule:nonzero;stroke:#2e5767;stroke-width:2px;stroke-linecap:round;"/><path d="M28,79l-4,0l-7,-10l11,6l0,4Z" style="fill:#fff;fill-rule:nonzero;stroke:#2e5767;stroke-width:2px;stroke-linecap:round;"/><path d="M38,53l4,0l7,-10l-11,6l0,4Z" style="fill:#fff;fill-rule:nonzero;stroke:#2e5767;stroke-width:2px;stroke-linecap:round;"/><path d="M24,63l-11,-12l16,7l0,5l-5,0Z" style="fill:#fff;fill-rule:nonzero;stroke:#2e5767;stroke-width:2px;stroke-linecap:round;"/><path d="M33,89l0,-53" style="fill:none;stroke:#2e5767;stroke-width:2px;stroke-linecap:round;"/><path d="M29,41l-10,-8l5,11l5,2l0,-5Z" style="fill:#fff;fill-rule:nonzero;stroke:#2e5767;stroke-width:2px;stroke-linecap:round;"/><path d="M25.5,98l4,-4l3,3l3,-3l4,4" style="fill:none;stroke:#2e5767;stroke-width:2px;stroke-linecap:round;"/><path d="M71,70l-7,38l14,-38" style="fill:none;stroke:#2e5767;stroke-width:2px;stroke-linecap:round;"/><path d="M154,70l7,38l-14,-38" style="fill:none;stroke:#2e5767;stroke-width:2px;stroke-linecap:round;"/></g></svg>