<?xml version="1.0" encoding="UTF-8" standalone="no"?><!DOCTYPE svg PUBLIC "-//W3C//DTD SVG 1.1//EN" "http://www.w3.org/Graphics/SVG/1.1/DTD/svg11.dtd"><svg viewBox="0 -100 2200 315" version="1.1" xmlns="http://www.w3.org/2000/svg" xmlns:xlink="http://www.w3.org/1999/xlink" xml:space="preserve" style="fill-rule:evenodd;clip-rule:evenodd;stroke-linejoin:round;stroke-miterlimit:1.41421;"><g><g clip-path="url(#_clip1)"><path d="M920.371,36.672l-125.559,0l0,161.357l51.841,0l0,-63.799l73.42,0l0,-30.249l-73.42,0l0,-39.218l73.718,0l0,-28.091Z" style="fill:#e6e6e6;fill-opacity:0.81;fill-rule:nonzero;"/><path d="M1330.05,37.393l-51.841,0l0,161.357l123.461,0l0,-27.011l-71.62,0l0,-134.346Z" style="fill:#e6e6e6;fill-rule:nonzero;"/><path d="M898.679,198.697l49.405,0l41.002,-117.443l45.164,117.443l49.969,0l-67.127,-161.615l-51.02,0l-67.393,161.615Z" style="fill:#e6e6e6;fill-opacity:0.873659;"/><path d="M1087.42,198.95l49.404,0l41.003,-117.443l45.163,117.443l49.97,0l-67.128,-161.616l-51.019,0l-67.393,161.616Z" style="fill:#e6e6e6;fill-opacity:0.937643;"/></g></g><g><path d="M1060.9,31.469l0,-3.844c1.237,-1 2.492,-1.969 3.764,-2.906c1.271,-0.938 2.689,-1.953 4.253,-3.047c1.565,-1.094 3.18,-2.141 4.847,-3.141c1.668,-1 3.567,-2.031 5.698,-3.094c1.891,2.5 2.836,4.891 2.836,7.172c0,1.25 -0.292,2.641 -0.877,4.172c-0.584,1.531 -1.383,3.281 -2.397,5.25c-1.014,1.969 -2.278,4.438 -3.79,7.406c-4.056,8.157 -7.09,14.883 -9.101,20.18c-2.011,5.297 -3.016,8.899 -3.016,10.805c0,0.156 0.12,0.765 0.361,1.828c0.24,1.062 0.361,1.859 0.361,2.391c0,0.906 -0.284,1.39 -0.851,1.453c-0.567,0.062 -1.367,-0.125 -2.398,-0.563c-2.647,-1.187 -4.417,-2.312 -5.311,-3.375c-0.894,-1.062 -1.34,-2.437 -1.34,-4.125c0,-3.031 1.22,-7.734 3.661,-14.109c1.237,-3.219 2.681,-6.422 4.331,-9.61c1.65,-3.187 3.48,-6.414 5.491,-9.679c2.011,-3.266 3.91,-6.274 5.698,-9.024c-3.885,1.469 -7.958,3.422 -12.22,5.86Z" style="fill:#bfbfbf;fill-rule:nonzero;"/><path d="M1115.5,45.156c1.581,2.625 2.819,4.891 3.713,6.797c0.893,1.906 1.34,3.672 1.34,5.297c0,4.156 -1.057,7.68 -3.171,10.57c-2.114,2.891 -4.735,5.024 -7.863,6.399c-3.128,1.375 -6.308,2.062 -9.539,2.062c-2.75,0 -5.328,-0.687 -7.735,-2.062c-2.406,-1.375 -3.609,-3.125 -3.609,-5.25c0,-1.532 0.67,-3.391 2.011,-5.578c1.341,-2.188 3.317,-4.696 5.93,-7.524c2.612,-2.828 5.843,-6.039 9.693,-9.633c-5.053,-5.375 -7.579,-10.265 -7.579,-14.672c0,-3.125 0.722,-5.82 2.165,-8.085c1.444,-2.266 3.601,-4.133 6.471,-5.602c2.871,-1.469 6.394,-2.547 10.571,-3.234c4.176,-0.688 9.101,-1.032 14.772,-1.032c3.61,0 6.119,0.133 7.529,0.399c1.409,0.265 2.114,0.929 2.114,1.992c0,0.312 -0.189,0.883 -0.568,1.711c-0.378,0.828 -0.919,1.789 -1.624,2.883c-0.705,1.093 -1.487,2.125 -2.346,3.093c-0.447,0.532 -0.919,0.86 -1.418,0.985c-0.498,0.125 -1.366,0.14 -2.604,0.047c0.619,0.937 0.928,1.703 0.928,2.297c0,0.843 -0.455,1.703 -1.366,2.578c-0.911,0.875 -2.733,2.398 -5.466,4.57c-2.733,2.172 -5.096,4.18 -7.09,6.023c-0.721,0.657 -1.598,1.485 -2.629,2.485c-1.031,1 -1.908,1.828 -2.63,2.484Zm-3.094,-4.031c1.891,-1.531 4.125,-3.313 6.703,-5.344c2.579,-2.031 4.899,-3.859 6.961,-5.484c2.063,-1.625 3.507,-2.828 4.332,-3.61c0.825,-0.781 1.237,-1.281 1.237,-1.5c0,-0.875 -2.286,-1.312 -6.858,-1.312c-5.775,0 -10.123,0.734 -13.045,2.203c-2.922,1.469 -4.383,3.516 -4.383,6.141c0,1.125 0.447,2.468 1.341,4.031c0.894,1.562 2.131,3.187 3.712,4.875Zm-2.732,9.328c-4.607,4.438 -8.19,8.234 -10.751,11.391c-2.561,3.156 -3.842,5.187 -3.842,6.093c0,2.032 1.943,3.047 5.827,3.047c1.237,0 2.561,-0.273 3.97,-0.82c1.41,-0.547 2.681,-1.305 3.816,-2.273c1.134,-0.969 2.071,-2.196 2.81,-3.68c0.739,-1.484 1.109,-3.117 1.109,-4.899c0,-3.406 -0.98,-6.359 -2.939,-8.859Z" style="fill:#bfbfbf;fill-rule:nonzero;"/></g></svg>