<?xml version="1.0" encoding="UTF-8" standalone="no"?><!DOCTYPE svg PUBLIC "-//W3C//DTD SVG 1.1//EN" "http://www.w3.org/Graphics/SVG/1.1/DTD/svg11.dtd"><svg width="100%" height="100%" viewBox="0 0 78 78" version="1.1" xmlns="http://www.w3.org/2000/svg" xmlns:xlink="http://www.w3.org/1999/xlink" xml:space="preserve" style="fill-rule:evenodd;clip-rule:evenodd;stroke-linejoin:round;stroke-miterlimit:1.41421;"><path d="M73.425,39.093c0,18.907 -15.341,34.233 -34.245,34.233c-18.913,0 -34.252,-15.326 -34.252,-34.233c0,-18.917 15.339,-34.249 34.252,-34.249c18.904,0 34.245,15.332 34.245,34.249" style="fill:#ff9800;fill-rule:nonzero;"/><clipPath id="_clip1"><path d="M73.425,39.093c0,18.907 -15.341,34.233 -34.245,34.233c-18.913,0 -34.252,-15.326 -34.252,-34.233c0,-18.917 15.339,-34.249 34.252,-34.249c18.904,0 34.245,15.332 34.245,34.249" clip-rule="nonzero"/></clipPath><g clip-path="url(#_clip1)"><rect x="0.453" y="0.601" width="77.583" height="77.397" style="fill:url(#_Linear2);stroke-width:3px;stroke:#000;"/></g><path d="M73.425,39.093c0,18.907 -15.341,34.233 -34.245,34.233c-18.913,0 -34.252,-15.326 -34.252,-34.233c0,-18.917 15.339,-34.249 34.252,-34.249c18.904,0 34.245,15.332 34.245,34.249" style="fill:none;stroke-width:3px;stroke:#000;"/><path d="M48.142,21.234l0.037,0.001l0.037,0.002l0.037,0.002l0.038,0.002l0.038,0.003l0.039,0.003l0.039,0.004l0.039,0.004l0.039,0.004l0.04,0.005l0.04,0.005l0.04,0.005l0.04,0.006l0.04,0.006l0.04,0.006l0.04,0.007l0.04,0.007l0.04,0.007l0.04,0.008l0.04,0.008l0.039,0.008l0.039,0.008l0.039,0.008l0.038,0.009l0.038,0.009l0.038,0.009l0.037,0.01l0.037,0.009l0.036,0.01l0.036,0.01l0.035,0.01l0.034,0.011l0.034,0.01l0.033,0.011l0.033,0.011l0.032,0.012l0.031,0.012l0.031,0.012l0.03,0.012l0.029,0.013l0.029,0.013l0.028,0.014l0.029,0.015l0.026,0.016l0.016,0.009l0.014,0.009l0.014,0.01l0.015,0.01l0.014,0.011l0.015,0.012l0.015,0.012l0.015,0.014l0.016,0.016l0.016,0.017l0.016,0.019l0.012,0.017l0.094,0.133l0.09,0.129l0.089,0.13l0.09,0.129l0.089,0.13l0.088,0.13l0.089,0.13l0.088,0.131l0.088,0.13l0.087,0.131l0.087,0.131l0.087,0.131l0.086,0.131l0.087,0.132l0.086,0.131l0.085,0.132l0.086,0.132l0.085,0.132l0.085,0.133l0.085,0.132l0.084,0.133l0.084,0.132l0.084,0.133l0.084,0.133l0.083,0.134l0.083,0.133l0.083,0.133l0.083,0.134l0.083,0.134l0.082,0.133l0.082,0.134l0.082,0.134l0.082,0.135l0.081,0.134l0.082,0.134l0.081,0.135l0.081,0.134l0.081,0.135l0.08,0.135l0.081,0.135l0.161,0.269l0.159,0.271l0.16,0.27l0.159,0.271l0.158,0.271l0.158,0.271l0.158,0.271l0.157,0.271l0.157,0.272l0.156,0.272l0.157,0.271l0.156,0.273l0.017,0.029l0.017,0.03l0.016,0.03l0.017,0.03l0.016,0.031l0.015,0.03l0.016,0.031l0.015,0.031l0.015,0.031l0.015,0.031l0.014,0.031l0.014,0.031l0.014,0.032l0.014,0.031l0.013,0.032l0.013,0.031l0.013,0.032l0.012,0.032l0.012,0.032l0.012,0.032l0.012,0.032l0.012,0.032l0.011,0.032l0.011,0.033l0.01,0.032l0.011,0.033l0.01,0.033l0.009,0.032l0.01,0.033l0.009,0.033l0.009,0.033l0.009,0.033l0.008,0.033l0.008,0.033l0.008,0.034l0.008,0.033l0.007,0.033l0.007,0.034l0.007,0.033l0.006,0.034l0.007,0.033l0.006,0.034l0.005,0.034l0.005,0.034l0.006,0.033l0.004,0.034l0.005,0.034l0.004,0.034l0.004,0.034l0.004,0.034l0.003,0.034l0.003,0.034l0.003,0.035l0.002,0.034l0.003,0.034l0.001,0.034l0.002,0.035l0.001,0.034l0.001,0.034l0.001,0.035l0.001,0.034l0,0.034l0,0.035l-0.001,0.034l-0.161,10.448l0.446,7.149l0.001,0.029l0.002,0.029l0.001,0.03l0.001,0.029l0.001,0.03l0.001,0.029l0,0.03l0,0.029l0,0.03l0,0.029l0,0.03l-0.001,0.029l-0.001,0.029l-0.001,0.03l-0.002,0.029l-0.001,0.029l-0.002,0.029l-0.002,0.03l-0.002,0.029l-0.003,0.029l-0.002,0.029l-0.003,0.029l-0.003,0.029l-0.003,0.029l-0.004,0.029l-0.004,0.029l-0.003,0.029l-0.005,0.029l-0.004,0.028l-0.004,0.029l-0.005,0.029l-0.005,0.028l-0.005,0.029l-0.006,0.028l-0.005,0.029l-0.006,0.028l-0.006,0.029l-0.006,0.028l-0.007,0.028l-0.006,0.028l-0.007,0.028l-0.007,0.029l-0.007,0.028l-0.008,0.028l-0.007,0.027l-0.008,0.028l-0.008,0.028l-0.009,0.028l-0.008,0.027l-0.009,0.028l-0.009,0.027l-0.009,0.028l-0.009,0.027l-0.009,0.027l-0.01,0.028l-0.01,0.027l-0.01,0.027l-0.01,0.027l-0.01,0.027l-0.011,0.027l-0.011,0.026l-0.011,0.027l-0.011,0.027l-0.011,0.026l-0.012,0.026l-0.012,0.027l-0.012,0.026l-0.012,0.026l-0.012,0.026l-0.013,0.026l-0.013,0.026l-0.012,0.026l-0.014,0.026l-0.013,0.025l-0.013,0.026l-0.014,0.025l-0.014,0.026l-0.014,0.025l-0.014,0.025l-0.015,0.025l-0.014,0.025l-0.015,0.025l-0.015,0.024l-0.015,0.025l-0.016,0.025l-0.015,0.024l-0.016,0.024l-0.016,0.024l-0.016,0.024l-0.016,0.024l-0.017,0.024l-0.016,0.024l-0.017,0.024l-0.017,0.023l-0.017,0.024l-0.018,0.023l-0.017,0.023l-0.018,0.023l-0.018,0.023l-0.018,0.023l-0.018,0.022l-0.018,0.023l-0.019,0.022l-0.019,0.023l-0.019,0.022l-0.019,0.022l-0.019,0.022l-0.02,0.022l-0.019,0.021l-0.02,0.022l-0.02,0.021l-0.02,0.021l-0.02,0.022l-0.021,0.02l-0.02,0.021l-0.021,0.021l-0.021,0.021l-0.021,0.02l-0.022,0.02l-0.021,0.02l-0.022,0.02l-0.022,0.02l-0.022,0.02l-0.022,0.019l-0.022,0.02l-0.023,0.019l-0.022,0.019l-0.023,0.019l-9.186,7.566l-0.026,0.021l-0.027,0.021l-0.026,0.021l-0.027,0.021l-0.027,0.02l-0.028,0.02l-0.027,0.02l-0.028,0.019l-0.028,0.02l-0.028,0.018l-0.028,0.019l-0.029,0.018l-0.028,0.018l-0.029,0.018l-0.029,0.017l-0.029,0.017l-0.029,0.017l-0.029,0.016l-0.03,0.016l-0.03,0.016l-0.029,0.016l-0.03,0.015l-0.031,0.015l-0.03,0.014l-0.03,0.015l-0.031,0.014l-0.031,0.013l-0.03,0.014l-0.031,0.013l-0.031,0.012l-0.032,0.013l-0.031,0.012l-0.031,0.011l-0.032,0.012l-0.032,0.011l-0.032,0.011l-0.031,0.01l-0.032,0.01l-0.033,0.01l-0.032,0.01l-0.032,0.009l-0.033,0.009l-0.032,0.008l-0.033,0.008l-0.032,0.008l-0.033,0.008l-0.033,0.007l-0.033,0.007l-0.033,0.006l-0.033,0.006l-0.034,0.006l-0.033,0.006l-0.033,0.005l-0.034,0.005l-0.033,0.004l-0.034,0.004l-0.033,0.004l-0.034,0.004l-0.034,0.003l-0.033,0.002l-0.034,0.003l-0.034,0.002l-0.034,0.002l-0.033,0.001l-4.001,0.142l-0.931,0l-4.001,-0.142l-0.033,-0.001l-0.034,-0.002l-0.034,-0.002l-0.034,-0.003l-0.033,-0.002l-0.034,-0.003l-0.034,-0.004l-0.033,-0.004l-0.034,-0.004l-0.033,-0.004l-0.034,-0.005l-0.033,-0.005l-0.034,-0.006l-0.033,-0.006l-0.033,-0.006l-0.033,-0.006l-0.033,-0.007l-0.033,-0.007l-0.033,-0.008l-0.032,-0.008l-0.033,-0.008l-0.032,-0.008l-0.033,-0.009l-0.032,-0.009l-0.032,-0.01l-0.033,-0.01l-0.032,-0.01l-0.032,-0.01l-0.031,-0.011l-0.032,-0.011l-0.032,-0.012l-0.031,-0.011l-0.031,-0.012l-0.032,-0.013l-0.031,-0.012l-0.031,-0.013l-0.031,-0.014l-0.03,-0.013l-0.031,-0.014l-0.03,-0.015l-0.03,-0.014l-0.031,-0.015l-0.03,-0.015l-0.029,-0.016l-0.03,-0.016l-0.03,-0.016l-0.029,-0.016l-0.029,-0.017l-0.029,-0.017l-0.029,-0.017l-0.029,-0.018l-0.029,-0.018l-0.028,-0.018l-0.028,-0.019l-0.028,-0.018l-0.028,-0.02l-0.028,-0.019l-0.027,-0.02l-0.028,-0.02l-0.027,-0.02l-0.027,-0.021l-0.026,-0.021l-0.027,-0.021l-0.026,-0.021l-9.186,-7.566l-0.023,-0.019l-0.022,-0.019l-0.023,-0.019l-0.022,-0.02l-0.022,-0.019l-0.022,-0.02l-0.022,-0.02l-0.022,-0.02l-0.021,-0.02l-0.022,-0.02l-0.021,-0.02l-0.021,-0.021l-0.021,-0.021l-0.02,-0.021l-0.021,-0.021l-0.02,-0.021l-0.02,-0.021l-0.02,-0.021l-0.02,-0.022l-0.02,-0.021l-0.019,-0.022l-0.019,-0.022l-0.019,-0.022l-0.019,-0.022l-0.019,-0.023l-0.019,-0.022l-0.018,-0.023l-0.018,-0.022l-0.018,-0.023l-0.018,-0.023l-0.018,-0.023l-0.017,-0.023l-0.018,-0.023l-0.017,-0.024l-0.017,-0.023l-0.017,-0.024l-0.016,-0.024l-0.017,-0.024l-0.016,-0.024l-0.016,-0.024l-0.016,-0.024l-0.016,-0.024l-0.015,-0.024l-0.016,-0.025l-0.015,-0.025l-0.015,-0.024l-0.015,-0.025l-0.014,-0.025l-0.015,-0.025l-0.014,-0.025l-0.014,-0.025l-0.014,-0.026l-0.014,-0.025l-0.013,-0.026l-0.013,-0.025l-0.014,-0.026l-0.012,-0.026l-0.013,-0.026l-0.013,-0.026l-0.012,-0.026l-0.012,-0.026l-0.012,-0.026l-0.012,-0.027l-0.012,-0.026l-0.011,-0.026l-0.011,-0.027l-0.011,-0.027l-0.011,-0.026l-0.011,-0.027l-0.01,-0.027l-0.01,-0.027l-0.01,-0.027l-0.01,-0.027l-0.01,-0.028l-0.009,-0.027l-0.009,-0.027l-0.01,-0.028l-0.008,-0.027l-0.009,-0.028l-0.008,-0.027l-0.009,-0.028l-0.008,-0.028l-0.008,-0.028l-0.007,-0.027l-0.008,-0.028l-0.007,-0.028l-0.007,-0.029l-0.007,-0.028l-0.006,-0.028l-0.007,-0.028l-0.006,-0.028l-0.006,-0.029l-0.006,-0.028l-0.005,-0.029l-0.006,-0.028l-0.005,-0.029l-0.005,-0.028l-0.005,-0.029l-0.004,-0.029l-0.004,-0.028l-0.005,-0.029l-0.003,-0.029l-0.004,-0.029l-0.004,-0.029l-0.003,-0.029l-0.003,-0.029l-0.003,-0.029l-0.003,-0.029l-0.002,-0.029l-0.002,-0.029l-0.002,-0.03l-0.002,-0.029l-0.001,-0.029l-0.002,-0.029l-0.001,-0.03l-0.001,-0.029l-0.001,-0.029l0,-0.03l0,-0.029l0,-0.03l0,-0.029l0,-0.029l0.001,-0.03l0.001,-0.03l0.001,-0.029l0.001,-0.03l0.002,-0.029l0.001,-0.029l0.446,-7.149l-0.059,-3.837l-0.095,-6.172l-0.001,-0.047l0,-0.049l0,-0.048l0.001,-0.047l0.001,-0.048l0.001,-0.048l0.002,-0.048l0.003,-0.048l0.002,-0.048l0.003,-0.048l0.004,-0.047l0.004,-0.048l0.004,-0.047l0.005,-0.048l0.005,-0.047l0.005,-0.048l0.006,-0.047l0.006,-0.048l0.007,-0.047l0.007,-0.047l0.008,-0.047l0.008,-0.047l0.008,-0.047l0.008,-0.047l0.01,-0.047l0.009,-0.046l0.01,-0.047l0.01,-0.047l0.011,-0.046l0.011,-0.046l0.011,-0.047l0.012,-0.046l0.012,-0.046l0.012,-0.046l0.013,-0.046l0.014,-0.045l0.013,-0.046l0.014,-0.045l0.015,-0.046l0.015,-0.045l0.015,-0.045l0.015,-0.045l0.016,-0.045l0.017,-0.045l0.017,-0.045l0.017,-0.044l0.017,-0.045l0.018,-0.044l0.018,-0.044l0.019,-0.044l0.019,-0.044l0.019,-0.043l0.02,-0.044l0.02,-0.043l0.021,-0.044l0.02,-0.043l0.022,-0.043l0.021,-0.042l0.022,-0.043l0.023,-0.042l0.022,-0.043l0.023,-0.042l0.024,-0.042l0.023,-0.041l0.15,-0.26l0.15,-0.259l0.15,-0.26l0.15,-0.259l0.151,-0.259l0.151,-0.259l0.151,-0.259l0.152,-0.259l0.152,-0.258l0.153,-0.258l0.154,-0.258l0.153,-0.258l0.155,-0.257l0.078,-0.128l0.077,-0.129l0.078,-0.128l0.078,-0.128l0.078,-0.128l0.079,-0.129l0.078,-0.127l0.079,-0.128l0.079,-0.128l0.079,-0.128l0.079,-0.127l0.08,-0.127l0.08,-0.128l0.08,-0.127l0.08,-0.127l0.08,-0.127l0.081,-0.126l0.081,-0.127l0.081,-0.126l0.081,-0.127l0.082,-0.126l0.082,-0.126l0.082,-0.126l0.082,-0.125l0.083,-0.126l0.082,-0.125l0.083,-0.125l0.084,-0.125l0.084,-0.125l0.083,-0.125l0.085,-0.124l0.084,-0.125l0.085,-0.124l0.085,-0.124l0.086,-0.124l0.085,-0.123l0.086,-0.124l0.089,-0.127l0.013,-0.017l0.016,-0.019l0.016,-0.017l0.016,-0.016l0.015,-0.014l0.015,-0.012l0.015,-0.012l0.014,-0.011l0.015,-0.01l0.014,-0.01l0.014,-0.009l0.016,-0.009l0.026,-0.016l0.028,-0.015l0.029,-0.014l0.029,-0.013l0.029,-0.013l0.03,-0.012l0.031,-0.012l0.031,-0.012l0.032,-0.012l0.032,-0.011l0.034,-0.011l0.033,-0.01l0.035,-0.011l0.035,-0.01l0.036,-0.01l0.036,-0.01l0.037,-0.009l0.037,-0.01l0.037,-0.009l0.039,-0.009l0.038,-0.009l0.039,-0.008l0.039,-0.008l0.039,-0.008l0.04,-0.008l0.04,-0.008l0.04,-0.007l0.04,-0.007l0.04,-0.007l0.04,-0.006l0.04,-0.006l0.04,-0.006l0.04,-0.005l0.04,-0.005l0.04,-0.005l0.039,-0.004l0.039,-0.004l0.039,-0.004l0.039,-0.003l0.038,-0.003l0.038,-0.002l0.037,-0.002l0.037,-0.002l0.037,-0.001l0.036,0l0.036,0l0.036,0.001l0.035,0.001l0.034,0.002l0.035,0.003l0.034,0.003l0.033,0.004l0.018,0.003l0.017,0.003l0.017,0.003l0.017,0.004l0.018,0.003l0.017,0.005l0.018,0.004l0.017,0.005l0.018,0.006l0.018,0.007l0.019,0.007l0.017,0.007l0.041,0.018l0.038,0.018l0.037,0.018l0.036,0.019l0.036,0.019l0.034,0.02l0.033,0.02l0.033,0.021l0.032,0.021l0.03,0.022l0.03,0.022l0.029,0.022l0.028,0.023l0.028,0.024l0.026,0.024l0.025,0.025l0.025,0.025l0.023,0.025l0.023,0.026l0.022,0.025l0.02,0.027l0.02,0.026l0.019,0.027l0.018,0.027l0.018,0.027l0.016,0.027l0.016,0.027l0.015,0.027l0.014,0.027l0.014,0.027l0.013,0.027l0.012,0.026l0.012,0.027l0.012,0.027l0.011,0.026l0.01,0.027l0.01,0.026l0.011,0.026l0.019,0.052l0.018,0.051l0.018,0.052l0.019,0.051l0.018,0.052l0.019,0.052l0.009,0.026l0.01,0.026l0.01,0.026l0.011,0.026l0.01,0.027l0.011,0.026l0.012,0.027l0.011,0.027l0.013,0.028l0.012,0.027l0.014,0.028l0.013,0.028l0.014,0.029l0.015,0.028l0.014,0.026l0.014,0.026l0.014,0.025l0.015,0.025l0.016,0.025l0.016,0.025l0.017,0.025l0.017,0.025l0.017,0.025l0.018,0.025l0.018,0.024l0.019,0.025l0.019,0.025l0.02,0.025l0.019,0.024l0.021,0.025l0.02,0.025l0.021,0.025l0.022,0.024l0.021,0.025l0.022,0.025l0.022,0.024l0.046,0.05l0.046,0.05l0.036,0.039l14.011,0l0.036,-0.039l0.046,-0.05l0.046,-0.05l0.022,-0.024l0.022,-0.025l0.021,-0.025l0.021,-0.024l0.021,-0.025l0.021,-0.025l0.02,-0.025l0.02,-0.024l0.02,-0.025l0.019,-0.025l0.019,-0.025l0.018,-0.024l0.018,-0.025l0.017,-0.025l0.017,-0.025l0.017,-0.025l0.016,-0.025l0.015,-0.025l0.016,-0.025l0.014,-0.025l0.014,-0.026l0.014,-0.026l0.014,-0.028l0.015,-0.029l0.013,-0.028l0.014,-0.028l0.012,-0.027l0.012,-0.028l0.012,-0.027l0.012,-0.027l0.011,-0.026l0.01,-0.027l0.011,-0.026l0.01,-0.026l0.01,-0.026l0.009,-0.026l0.019,-0.052l0.018,-0.052l0.019,-0.051l0.018,-0.052l0.018,-0.051l0.019,-0.052l0.011,-0.026l0.01,-0.026l0.01,-0.027l0.011,-0.026l0.012,-0.027l0.012,-0.027l0.012,-0.026l0.013,-0.027l0.014,-0.027l0.014,-0.027l0.015,-0.027l0.016,-0.027l0.016,-0.027l0.018,-0.027l0.018,-0.027l0.019,-0.027l0.02,-0.026l0.02,-0.026l0.022,-0.026l0.023,-0.026l0.023,-0.025l0.025,-0.025l0.025,-0.025l0.026,-0.024l0.028,-0.024l0.028,-0.023l0.029,-0.022l0.03,-0.022l0.03,-0.022l0.032,-0.021l0.033,-0.021l0.033,-0.02l0.034,-0.02l0.036,-0.019l0.036,-0.019l0.037,-0.018l0.038,-0.018l0.041,-0.018l0.017,-0.007l0.019,-0.007l0.018,-0.007l0.018,-0.006l0.017,-0.005l0.018,-0.004l0.017,-0.005l0.018,-0.003l0.017,-0.004l0.017,-0.003l0.017,-0.003l0.018,-0.003l0.033,-0.004l0.034,-0.003l0.035,-0.003l0.034,-0.002l0.035,-0.001l0.036,-0.001l0.036,0l0.036,0ZM29.812,21.954l-0.027,0.001l-0.028,0.001l-0.029,0.002l-0.03,0.001l-0.031,0.003l-0.031,0.002l-0.032,0.003l-0.033,0.004l-0.033,0.003l-0.034,0.004l-0.034,0.005l-0.034,0.004l-0.035,0.005l-0.035,0.005l-0.034,0.006l-0.035,0.006l-0.035,0.006l-0.035,0.006l-0.035,0.007l-0.034,0.007l-0.035,0.007l-0.033,0.007l-0.034,0.007l-0.033,0.008l-0.033,0.007l-0.032,0.008l-0.031,0.008l-0.031,0.008l-0.03,0.008l-0.029,0.008l-0.028,0.008l-0.027,0.009l-0.026,0.008l-0.025,0.008l-0.023,0.008l-0.023,0.008l-0.02,0.008l-0.02,0.007l-0.017,0.008l-0.016,0.006l-0.013,0.007l-0.011,0.005l-0.001,0l-0.06,0.086l-0.085,0.122l-0.084,0.122l-0.085,0.122l-0.084,0.123l-0.084,0.123l-0.083,0.123l-0.084,0.123l-0.083,0.123l-0.083,0.124l-0.082,0.123l-0.082,0.124l-0.082,0.125l-0.082,0.124l-0.082,0.124l-0.081,0.125l-0.081,0.125l-0.081,0.125l-0.081,0.125l-0.08,0.125l-0.08,0.126l-0.08,0.125l-0.08,0.126l-0.079,0.126l-0.08,0.126l-0.079,0.126l-0.079,0.127l-0.078,0.126l-0.079,0.127l-0.078,0.127l-0.079,0.127l-0.078,0.127l-0.077,0.127l-0.078,0.127l-0.078,0.128l-0.077,0.127l-0.077,0.128l-0.077,0.128l-0.154,0.255l-0.153,0.257l-0.153,0.256l-0.152,0.257l-0.151,0.258l-0.152,0.257l-0.151,0.258l-0.15,0.258l-0.15,0.259l-0.15,0.258l-0.15,0.259l-0.149,0.259l-0.149,0.259l-0.021,0.037l-0.021,0.036l-0.02,0.037l-0.02,0.037l-0.019,0.037l-0.019,0.037l-0.019,0.037l-0.019,0.038l-0.018,0.038l-0.018,0.037l-0.018,0.038l-0.017,0.038l-0.017,0.038l-0.016,0.039l-0.017,0.038l-0.016,0.039l-0.015,0.038l-0.015,0.039l-0.015,0.039l-0.015,0.039l-0.014,0.039l-0.014,0.039l-0.014,0.039l-0.013,0.04l-0.013,0.039l-0.013,0.04l-0.012,0.04l-0.012,0.04l-0.012,0.04l-0.011,0.04l-0.011,0.04l-0.01,0.04l-0.011,0.04l-0.01,0.041l-0.009,0.04l-0.009,0.041l-0.009,0.04l-0.009,0.041l-0.008,0.041l-0.008,0.041l-0.008,0.041l-0.007,0.041l-0.007,0.041l-0.006,0.041l-0.006,0.041l-0.006,0.041l-0.006,0.042l-0.005,0.041l-0.005,0.041l-0.004,0.042l-0.004,0.041l-0.004,0.042l-0.003,0.041l-0.003,0.042l-0.003,0.042l-0.002,0.041l-0.002,0.042l-0.002,0.042l-0.001,0.042l-0.001,0.042l-0.001,0.042l0,0.042l0,0.041l0,0.043l0.096,6.171l0.059,3.865l-0.447,7.175l-0.001,0.025l-0.002,0.024l-0.001,0.025l-0.001,0.024l0,0.024l-0.001,0.024l0,0.024l0,0.024l0,0.024l0,0.024l0,0.024l0.001,0.024l0.001,0.024l0.001,0.024l0.001,0.024l0.001,0.024l0.001,0.024l0.002,0.024l0.002,0.024l0.002,0.024l0.002,0.023l0.002,0.024l0.003,0.024l0.002,0.023l0.003,0.024l0.003,0.024l0.004,0.023l0.003,0.024l0.003,0.023l0.004,0.024l0.004,0.023l0.004,0.024l0.004,0.023l0.005,0.023l0.004,0.024l0.005,0.023l0.005,0.023l0.005,0.023l0.005,0.023l0.006,0.023l0.005,0.023l0.006,0.023l0.006,0.023l0.006,0.023l0.006,0.023l0.007,0.023l0.006,0.022l0.007,0.023l0.007,0.022l0.007,0.023l0.007,0.022l0.007,0.023l0.008,0.022l0.008,0.023l0.008,0.022l0.008,0.022l0.008,0.022l0.008,0.022l0.009,0.022l0.008,0.022l0.009,0.022l0.009,0.022l0.009,0.022l0.01,0.021l0.009,0.022l0.01,0.021l0.01,0.022l0.01,0.021l0.01,0.022l0.01,0.021l0.01,0.021l0.011,0.021l0.011,0.021l0.011,0.021l0.011,0.021l0.011,0.021l0.011,0.02l0.012,0.021l0.011,0.021l0.012,0.02l0.012,0.02l0.012,0.021l0.012,0.02l0.013,0.02l0.012,0.02l0.013,0.02l0.013,0.02l0.013,0.02l0.013,0.019l0.013,0.02l0.014,0.019l0.013,0.02l0.014,0.019l0.014,0.019l0.014,0.019l0.014,0.019l0.015,0.019l0.014,0.019l0.015,0.019l0.014,0.019l0.015,0.018l0.015,0.019l0.016,0.018l0.015,0.018l0.015,0.018l0.016,0.018l0.016,0.018l0.016,0.018l0.016,0.018l0.016,0.017l0.016,0.018l0.017,0.017l0.016,0.017l0.017,0.017l0.017,0.018l0.017,0.016l0.017,0.017l0.017,0.017l0.018,0.016l0.017,0.017l0.018,0.016l0.018,0.017l0.018,0.016l0.018,0.016l0.018,0.015l0.019,0.016l0.018,0.016l0.019,0.016l9.185,7.564l0.021,0.018l0.021,0.016l0.021,0.017l0.021,0.016l0.021,0.016l0.021,0.015l0.022,0.016l0.022,0.015l0.021,0.015l0.022,0.015l0.022,0.014l0.023,0.014l0.022,0.014l0.022,0.014l0.023,0.014l0.023,0.013l0.023,0.013l0.023,0.013l0.023,0.013l0.023,0.012l0.023,0.012l0.024,0.012l0.023,0.012l0.024,0.011l0.024,0.011l0.024,0.011l0.024,0.011l0.024,0.01l0.024,0.01l0.024,0.01l0.025,0.01l0.024,0.009l0.025,0.01l0.024,0.009l0.025,0.008l0.025,0.009l0.025,0.008l0.025,0.008l0.025,0.007l0.025,0.008l0.026,0.007l0.025,0.007l0.025,0.007l0.026,0.006l0.026,0.006l0.025,0.006l0.026,0.006l0.026,0.005l0.026,0.005l0.025,0.005l0.026,0.004l0.026,0.005l0.027,0.004l0.026,0.004l0.026,0.003l0.026,0.003l0.026,0.003l0.027,0.003l0.026,0.002l0.027,0.003l0.026,0.001l0.027,0.002l0.026,0.001l0.028,0.002l3.986,0.141l0.905,0l3.986,-0.141l0.028,-0.002l0.026,-0.001l0.027,-0.002l0.026,-0.001l0.027,-0.003l0.026,-0.002l0.027,-0.003l0.026,-0.003l0.026,-0.003l0.026,-0.003l0.026,-0.004l0.026,-0.004l0.026,-0.005l0.026,-0.004l0.026,-0.005l0.026,-0.005l0.026,-0.005l0.026,-0.006l0.025,-0.006l0.026,-0.006l0.025,-0.006l0.026,-0.007l0.025,-0.007l0.026,-0.007l0.025,-0.008l0.025,-0.007l0.025,-0.008l0.025,-0.008l0.025,-0.009l0.025,-0.008l0.024,-0.009l0.025,-0.01l0.024,-0.009l0.025,-0.01l0.024,-0.01l0.024,-0.01l0.024,-0.01l0.024,-0.011l0.024,-0.011l0.024,-0.011l0.024,-0.011l0.023,-0.012l0.024,-0.012l0.023,-0.012l0.023,-0.012l0.023,-0.013l0.023,-0.013l0.023,-0.013l0.023,-0.013l0.023,-0.014l0.022,-0.014l0.022,-0.014l0.023,-0.014l0.022,-0.014l0.022,-0.015l0.021,-0.015l0.022,-0.015l0.022,-0.016l0.021,-0.015l0.021,-0.016l0.021,-0.016l0.021,-0.017l0.021,-0.016l0.021,-0.018l9.185,-7.564l0.019,-0.016l0.018,-0.016l0.019,-0.016l0.018,-0.015l0.018,-0.016l0.018,-0.016l0.018,-0.017l0.018,-0.016l0.017,-0.017l0.018,-0.016l0.017,-0.017l0.017,-0.017l0.017,-0.016l0.017,-0.018l0.017,-0.017l0.016,-0.017l0.017,-0.017l0.016,-0.018l0.016,-0.017l0.016,-0.018l0.016,-0.018l0.016,-0.018l0.016,-0.018l0.015,-0.018l0.015,-0.018l0.016,-0.018l0.015,-0.019l0.015,-0.018l0.014,-0.019l0.015,-0.019l0.014,-0.019l0.015,-0.019l0.014,-0.019l0.014,-0.019l0.014,-0.019l0.014,-0.019l0.013,-0.02l0.014,-0.019l0.013,-0.02l0.013,-0.019l0.013,-0.02l0.013,-0.02l0.013,-0.02l0.012,-0.02l0.013,-0.02l0.012,-0.02l0.012,-0.021l0.012,-0.02l0.012,-0.02l0.011,-0.021l0.012,-0.021l0.011,-0.02l0.011,-0.021l0.011,-0.021l0.011,-0.021l0.011,-0.021l0.011,-0.021l0.01,-0.021l0.01,-0.022l0.01,-0.021l0.01,-0.021l0.01,-0.022l0.01,-0.021l0.009,-0.022l0.009,-0.021l0.01,-0.022l0.009,-0.022l0.008,-0.022l0.009,-0.022l0.009,-0.022l0.008,-0.022l0.008,-0.022l0.008,-0.022l0.008,-0.022l0.008,-0.023l0.007,-0.022l0.008,-0.023l0.007,-0.022l0.007,-0.023l0.007,-0.022l0.007,-0.023l0.006,-0.022l0.007,-0.023l0.006,-0.023l0.006,-0.023l0.006,-0.023l0.006,-0.023l0.005,-0.023l0.006,-0.023l0.005,-0.023l0.005,-0.023l0.005,-0.023l0.005,-0.023l0.004,-0.024l0.005,-0.023l0.004,-0.023l0.004,-0.024l0.004,-0.023l0.003,-0.024l0.004,-0.023l0.003,-0.024l0.004,-0.023l0.003,-0.024l0.002,-0.024l0.003,-0.023l0.003,-0.024l0.002,-0.024l0.002,-0.023l0.002,-0.024l0.002,-0.024l0.002,-0.024l0.001,-0.024l0.001,-0.024l0.001,-0.024l0.001,-0.024l0.001,-0.024l0.001,-0.024l0,-0.024l0,-0.024l0,-0.024l0,-0.024l0,-0.024l-0.001,-0.024l0,-0.024l-0.001,-0.024l-0.001,-0.025l-0.002,-0.024l-0.001,-0.025l-0.448,-7.175l0.163,-10.475l0,-0.029l0,-0.028l0,-0.029l-0.001,-0.028l0,-0.028l-0.001,-0.029l-0.001,-0.028l-0.002,-0.028l-0.001,-0.029l-0.002,-0.028l-0.002,-0.028l-0.002,-0.028l-0.003,-0.028l-0.003,-0.028l-0.003,-0.028l-0.003,-0.028l-0.003,-0.028l-0.004,-0.028l-0.004,-0.028l-0.004,-0.028l-0.005,-0.028l-0.004,-0.028l-0.005,-0.027l-0.005,-0.028l-0.005,-0.028l-0.006,-0.027l-0.006,-0.028l-0.006,-0.027l-0.006,-0.028l-0.007,-0.027l-0.006,-0.027l-0.007,-0.028l-0.007,-0.027l-0.008,-0.027l-0.007,-0.027l-0.008,-0.027l-0.008,-0.027l-0.009,-0.027l-0.008,-0.027l-0.009,-0.027l-0.009,-0.026l-0.009,-0.027l-0.009,-0.026l-0.01,-0.027l-0.01,-0.026l-0.01,-0.027l-0.01,-0.026l-0.011,-0.026l-0.011,-0.026l-0.011,-0.026l-0.011,-0.026l-0.011,-0.026l-0.012,-0.026l-0.012,-0.025l-0.012,-0.026l-0.012,-0.025l-0.013,-0.026l-0.012,-0.025l-0.013,-0.025l-0.013,-0.025l-0.014,-0.025l-0.013,-0.025l-0.014,-0.025l-0.015,-0.025l-0.155,-0.271l-0.156,-0.271l-0.157,-0.271l-0.156,-0.271l-0.157,-0.271l-0.157,-0.27l-0.158,-0.27l-0.157,-0.27l-0.159,-0.27l-0.158,-0.269l-0.16,-0.269l-0.159,-0.269l-0.081,-0.134l-0.08,-0.134l-0.08,-0.134l-0.081,-0.134l-0.08,-0.133l-0.081,-0.134l-0.081,-0.133l-0.082,-0.134l-0.081,-0.133l-0.081,-0.133l-0.082,-0.133l-0.082,-0.132l-0.082,-0.133l-0.083,-0.132l-0.082,-0.133l-0.083,-0.132l-0.083,-0.132l-0.083,-0.132l-0.084,-0.131l-0.083,-0.132l-0.084,-0.131l-0.085,-0.131l-0.084,-0.131l-0.085,-0.131l-0.084,-0.131l-0.086,-0.13l-0.085,-0.13l-0.086,-0.13l-0.086,-0.13l-0.086,-0.13l-0.087,-0.129l-0.086,-0.129l-0.087,-0.129l-0.088,-0.129l-0.088,-0.129l-0.088,-0.128l-0.088,-0.128l-0.089,-0.128l-0.088,-0.127l-0.064,-0.092l-0.001,0l-0.011,-0.005l-0.014,-0.007l-0.015,-0.006l-0.018,-0.008l-0.019,-0.007l-0.02,-0.008l-0.023,-0.008l-0.023,-0.008l-0.025,-0.008l-0.026,-0.008l-0.027,-0.009l-0.028,-0.008l-0.029,-0.008l-0.03,-0.008l-0.031,-0.008l-0.031,-0.008l-0.032,-0.008l-0.033,-0.007l-0.033,-0.008l-0.034,-0.007l-0.034,-0.007l-0.034,-0.007l-0.034,-0.007l-0.035,-0.007l-0.035,-0.006l-0.035,-0.006l-0.035,-0.006l-0.034,-0.006l-0.035,-0.005l-0.035,-0.005l-0.034,-0.004l-0.034,-0.005l-0.034,-0.004l-0.033,-0.003l-0.033,-0.004l-0.032,-0.003l-0.031,-0.002l-0.031,-0.003l-0.03,-0.001l-0.029,-0.002l-0.028,-0.001l-0.027,-0.001l-0.026,0l-0.025,0l-0.023,0.001l-0.022,0l-0.02,0.002l-0.019,0.001l-0.016,0.002l-0.016,0.002l-0.005,0l-0.005,0.001l-0.005,0.001l-0.004,0.001l-0.004,0.001l-0.002,0l-0.002,0.001l-0.023,0.01l-0.026,0.013l-0.025,0.012l-0.023,0.012l-0.022,0.012l-0.021,0.012l-0.02,0.012l-0.018,0.011l-0.018,0.012l-0.016,0.012l-0.016,0.011l-0.014,0.011l-0.014,0.011l-0.013,0.012l-0.012,0.011l-0.011,0.011l-0.011,0.011l-0.011,0.011l-0.009,0.011l-0.01,0.012l-0.009,0.011l-0.009,0.012l-0.009,0.012l-0.008,0.013l-0.008,0.013l-0.009,0.013l-0.008,0.014l-0.008,0.014l-0.007,0.015l-0.008,0.016l-0.008,0.016l-0.008,0.017l-0.008,0.017l-0.007,0.018l-0.008,0.019l-0.008,0.019l-0.008,0.021l-0.008,0.02l-0.016,0.045l-0.017,0.046l-0.018,0.05l-0.018,0.052l-0.019,0.055l-0.021,0.056l-0.011,0.03l-0.012,0.031l-0.011,0.03l-0.013,0.032l-0.013,0.032l-0.013,0.032l-0.014,0.033l-0.015,0.033l-0.015,0.034l-0.016,0.035l-0.016,0.035l-0.017,0.036l-0.018,0.036l-0.019,0.036l-0.019,0.036l-0.02,0.036l-0.021,0.036l-0.021,0.034l-0.021,0.035l-0.022,0.034l-0.022,0.033l-0.022,0.033l-0.023,0.033l-0.023,0.032l-0.023,0.031l-0.024,0.031l-0.024,0.031l-0.024,0.031l-0.024,0.03l-0.024,0.029l-0.025,0.03l-0.024,0.029l-0.025,0.028l-0.025,0.029l-0.025,0.028l-0.025,0.028l-0.049,0.054l-0.05,0.054l-0.05,0.053l-0.049,0.052l-0.048,0.051l-0.056,0.047l-0.063,0.036l-0.07,0.021l-0.072,0.008l-14.321,0l-0.072,-0.008l-0.07,-0.021l-0.063,-0.036l-0.056,-0.047l-0.048,-0.051l-0.049,-0.052l-0.05,-0.053l-0.05,-0.054l-0.049,-0.054l-0.025,-0.028l-0.025,-0.028l-0.025,-0.029l-0.025,-0.028l-0.024,-0.029l-0.025,-0.03l-0.024,-0.029l-0.024,-0.03l-0.024,-0.031l-0.024,-0.031l-0.024,-0.031l-0.023,-0.031l-0.023,-0.032l-0.023,-0.033l-0.022,-0.033l-0.022,-0.033l-0.022,-0.034l-0.021,-0.035l-0.021,-0.034l-0.021,-0.036l-0.02,-0.036l-0.019,-0.036l-0.019,-0.036l-0.018,-0.036l-0.017,-0.036l-0.016,-0.035l-0.016,-0.035l-0.016,-0.034l-0.014,-0.033l-0.014,-0.033l-0.013,-0.032l-0.013,-0.032l-0.013,-0.032l-0.011,-0.03l-0.012,-0.031l-0.011,-0.03l-0.021,-0.056l-0.019,-0.055l-0.019,-0.052l-0.017,-0.05l-0.017,-0.046l-0.016,-0.045l-0.008,-0.02l-0.008,-0.021l-0.008,-0.019l-0.008,-0.019l-0.007,-0.018l-0.008,-0.017l-0.008,-0.017l-0.008,-0.016l-0.008,-0.016l-0.007,-0.015l-0.008,-0.014l-0.008,-0.014l-0.009,-0.013l-0.008,-0.013l-0.008,-0.013l-0.009,-0.012l-0.009,-0.012l-0.009,-0.011l-0.01,-0.012l-0.01,-0.011l-0.01,-0.011l-0.011,-0.011l-0.011,-0.011l-0.012,-0.011l-0.013,-0.011l-0.014,-0.012l-0.014,-0.011l-0.016,-0.011l-0.016,-0.012l-0.018,-0.012l-0.018,-0.011l-0.02,-0.012l-0.021,-0.012l-0.022,-0.012l-0.023,-0.012l-0.025,-0.012l-0.026,-0.013l-0.023,-0.01l-0.002,-0.001l-0.002,0l-0.004,-0.001l-0.004,-0.001l-0.005,-0.001l-0.005,-0.001l-0.005,0l-0.016,-0.002l-0.016,-0.002l-0.019,-0.001l-0.02,-0.002l-0.022,0l-0.023,-0.001l-0.025,0l-0.026,0Z" style="fill:#000;"/><path d="M57.183,33.721l0.024,0.001l0.024,0.001l0.024,0.001l0.025,0.002l0.024,0.003l0.025,0.002l0.025,0.004l0.026,0.004l0.025,0.004l0.026,0.005l0.025,0.006l0.026,0.006l0.027,0.007l0.026,0.008l0.026,0.008l0.026,0.01l0.026,0.01l0.027,0.011l0.026,0.012l0.026,0.013l0.026,0.014l0.026,0.014l0.025,0.016l0.026,0.017l0.025,0.017l0.024,0.019l0.024,0.02l0.024,0.02l0.023,0.022l0.022,0.022l0.022,0.024l0.022,0.024l0.02,0.025l0.02,0.026l0.019,0.027l0.019,0.027l0.017,0.028l0.017,0.029l0.016,0.03l0.015,0.031l0.015,0.031l0.014,0.032l0.013,0.032l0.012,0.033l0.011,0.034l0.011,0.034l0.01,0.036l0.009,0.035l0.009,0.037l0.008,0.037l0.007,0.038l0.006,0.038l0.006,0.039l0.005,0.04l0.005,0.041l0.004,0.041l0.003,0.042l0.002,0.043l0.002,0.044l0.001,0.044l0.001,0.048l0.001,0.048l0,0.049l0,0.049l0,0.049l0,0.05l-0.001,0.1l-0.002,0.102l-0.002,0.104l-0.003,0.105l-0.004,0.106l-0.004,0.108l-0.005,0.109l-0.005,0.11l-0.006,0.111l-0.007,0.113l-0.007,0.113l-0.008,0.114l-0.008,0.115l-0.008,0.115l-0.009,0.117l-0.009,0.117l-0.01,0.117l-0.01,0.118l-0.01,0.118l-0.011,0.118l-0.011,0.119l-0.011,0.119l-0.012,0.118l-0.012,0.119l-0.011,0.119l-0.013,0.119l-0.012,0.118l-0.025,0.235l-0.025,0.234l-0.026,0.231l-0.025,0.228l-0.026,0.225l-0.05,0.435l-0.047,0.412l-0.022,0.197l-0.022,0.188l-0.019,0.181l-0.019,0.172l-0.008,0.082l-0.008,0.08l-0.008,0.077l-0.007,0.075l-0.007,0.072l-0.006,0.069l-0.005,0.066l-0.005,0.065l-0.003,0.027l-0.003,0.029l-0.003,0.029l-0.004,0.028l-0.005,0.028l-0.005,0.029l-0.005,0.028l-0.006,0.027l-0.006,0.028l-0.007,0.027l-0.007,0.027l-0.008,0.027l-0.008,0.027l-0.008,0.026l-0.009,0.027l-0.01,0.026l-0.01,0.025l-0.01,0.026l-0.01,0.025l-0.011,0.025l-0.012,0.025l-0.012,0.024l-0.012,0.024l-0.012,0.024l-0.013,0.024l-0.013,0.023l-0.014,0.023l-0.014,0.023l-0.014,0.023l-0.015,0.022l-0.015,0.022l-0.015,0.021l-0.016,0.021l-0.016,0.021l-0.016,0.021l-0.017,0.02l-0.017,0.02l-0.017,0.02l-0.018,0.019l-0.018,0.019l-0.018,0.018l-0.019,0.018l-0.019,0.018l-0.019,0.018l-0.019,0.017l-0.02,0.016l-0.02,0.017l-0.021,0.015l-0.02,0.016l-0.021,0.015l-0.022,0.015l-0.021,0.014l-0.022,0.014l-0.022,0.013l-0.022,0.013l-0.023,0.012l-0.023,0.012l-0.023,0.012l-0.024,0.011l-0.023,0.01l-0.024,0.01l-0.025,0.009l-0.024,0.009l-0.025,0.008l-0.025,0.008l-0.025,0.007l-0.025,0.007l-0.026,0.006l-0.026,0.005l-0.026,0.005l-0.026,0.004l-0.027,0.003l-0.026,0.003l-0.027,0.002l-0.027,0.001l-0.027,0.001l-0.027,0l-0.027,-0.001l-0.027,-0.002l-0.027,-0.002l-0.028,-0.003l-0.027,-0.004l-0.027,-0.005l-0.027,-0.005l-0.027,-0.007l-0.027,-0.007l-0.027,-0.008l-0.027,-0.008l-0.027,-0.01l-0.026,-0.01l-0.026,-0.011l-0.026,-0.011l-0.026,-0.013l-0.026,-0.013l-0.025,-0.014l-0.025,-0.015l-0.024,-0.015l-0.025,-0.017l-0.024,-0.016l-0.023,-0.018l-0.024,-0.018l-0.023,-0.019l-0.022,-0.02l-0.022,-0.02l-0.022,-0.021l-0.022,-0.022l-0.021,-0.022l-0.021,-0.023l-0.02,-0.023l-0.02,-0.024l-0.019,-0.025l-0.019,-0.025l-0.019,-0.026l-0.019,-0.027l-0.018,-0.027l-0.003,-0.005l-0.037,0.029l-0.051,0.038l-0.053,0.041l-0.056,0.043l-0.058,0.045l-0.121,0.095l-0.129,0.101l-0.134,0.106l-0.139,0.11l-0.142,0.114l-0.144,0.115l-0.145,0.117l-0.146,0.118l-0.144,0.116l-0.142,0.115l-0.138,0.112l-0.262,0.214l-0.235,0.191l-0.198,0.162l-0.153,0.125l-0.133,0.11l-0.058,0.039l-0.066,0.027l-0.069,0.014l-0.07,0l-0.07,-0.014l-0.065,-0.027l-0.058,-0.039l-0.05,-0.05l-0.04,-0.058l-0.027,-0.066l-0.014,-0.069l0,-0.07l0.014,-0.07l0.027,-0.065l0.039,-0.059l0.05,-0.05l0.133,-0.109l0.154,-0.126l0.198,-0.162l0.236,-0.193l0.263,-0.213l0.139,-0.113l0.142,-0.116l0.145,-0.117l0.146,-0.118l0.146,-0.117l0.146,-0.117l0.143,-0.114l0.14,-0.111l0.135,-0.107l0.131,-0.103l0.123,-0.096l0.06,-0.046l0.057,-0.044l0.055,-0.043l0.053,-0.04l0.05,-0.038l0.048,-0.036l0.045,-0.034l0.043,-0.031l0.041,-0.029l0.037,-0.027l0.035,-0.024l0.033,-0.022l0.031,-0.019l0.017,-0.011l0.016,-0.009l0.018,-0.01l0.019,-0.01l0.025,-0.011l0.016,-0.006l0.034,-0.011l0.005,-0.001l0.042,-0.009l0.002,-0.001l0.043,-0.003l0.001,0l0.06,0.003l0.001,0l0.083,0.023l0.001,0l0.098,0.059l0.001,0l0.081,0.097l0.001,0.001l0.024,0.052l0.01,0.027l0.01,0.024l0.009,0.023l0.01,0.023l0.01,0.021l0.009,0.021l0.01,0.02l0.01,0.02l0.01,0.018l0.01,0.018l0.01,0.018l0.01,0.016l0.01,0.016l0.01,0.015l0.01,0.014l0.01,0.014l0.01,0.013l0.01,0.013l0.01,0.012l0.01,0.011l0.009,0.01l0.01,0.011l0.009,0.009l0.01,0.009l0.009,0.008l0.009,0.008l0.009,0.008l0.009,0.007l0.008,0.006l0.009,0.006l0.008,0.006l0.009,0.005l0.008,0.005l0.008,0.004l0.008,0.004l0.008,0.004l0.008,0.004l0.007,0.003l0.008,0.003l0.007,0.003l0.008,0.002l0.007,0.002l0.008,0.002l0.007,0.002l0.007,0.001l0.008,0.002l0.007,0.001l0.007,0l0.008,0.001l0.007,0.001l0.008,0l0.007,0l0.008,0l0.008,-0.001l0.008,0l0.007,-0.001l0.009,-0.001l0.008,-0.001l0.008,-0.002l0.008,-0.002l0.009,-0.002l0.008,-0.002l0.009,-0.002l0.008,-0.003l0.009,-0.003l0.009,-0.003l0.009,-0.003l0.009,-0.004l0.009,-0.004l0.009,-0.005l0.01,-0.004l0.009,-0.005l0.009,-0.005l0.01,-0.005l0.009,-0.006l0.009,-0.006l0.01,-0.006l0.009,-0.007l0.01,-0.007l0.009,-0.007l0.01,-0.007l0.009,-0.008l0.009,-0.008l0.01,-0.008l0.009,-0.008l0.009,-0.009l0.01,-0.009l0.009,-0.009l0.009,-0.01l0.009,-0.009l0.008,-0.01l0.009,-0.011l0.009,-0.01l0.008,-0.011l0.009,-0.011l0.008,-0.011l0.008,-0.011l0.008,-0.012l0.008,-0.012l0.008,-0.012l0.007,-0.012l0.008,-0.013l0.007,-0.012l0.007,-0.013l0.007,-0.013l0.006,-0.014l0.007,-0.013l0.006,-0.014l0.006,-0.013l0.006,-0.014l0.006,-0.014l0.005,-0.015l0.005,-0.014l0.005,-0.015l0.005,-0.014l0.004,-0.015l0.005,-0.015l0.004,-0.015l0.004,-0.015l0.003,-0.016l0.003,-0.015l0.003,-0.016l0.003,-0.015l0.003,-0.016l0.002,-0.016l0.002,-0.016l0.001,-0.016l0.002,-0.019l0.005,-0.065l0.006,-0.069l0.006,-0.072l0.007,-0.074l0.007,-0.077l0.008,-0.08l0.009,-0.081l0.008,-0.084l0.019,-0.175l0.02,-0.182l0.021,-0.19l0.022,-0.197l0.048,-0.413l0.05,-0.435l0.025,-0.223l0.026,-0.227l0.025,-0.23l0.025,-0.232l0.025,-0.234l0.012,-0.117l0.012,-0.118l0.012,-0.117l0.012,-0.118l0.011,-0.117l0.011,-0.117l0.011,-0.117l0.01,-0.117l0.011,-0.116l0.009,-0.116l0.01,-0.116l0.009,-0.114l0.009,-0.114l0.008,-0.114l0.008,-0.112l0.007,-0.111l0.007,-0.111l0.007,-0.109l0.006,-0.108l0.005,-0.107l0.005,-0.105l0.004,-0.104l0.003,-0.103l0.003,-0.101l0.002,-0.099l0.002,-0.097l0.001,-0.096l0,-0.047l0,-0.046l0,-0.046l0,-0.046l-0.001,-0.045l-0.001,-0.043l0,-0.035l-0.002,-0.032l-0.002,-0.031l-0.002,-0.03l-0.003,-0.029l-0.003,-0.028l-0.003,-0.026l-0.004,-0.025l-0.004,-0.024l-0.004,-0.023l-0.005,-0.022l-0.005,-0.021l-0.005,-0.019l-0.005,-0.019l-0.005,-0.017l-0.006,-0.016l-0.006,-0.016l-0.005,-0.014l-0.006,-0.013l-0.006,-0.013l-0.006,-0.011l-0.005,-0.011l-0.006,-0.01l-0.006,-0.009l-0.005,-0.008l-0.006,-0.008l-0.005,-0.007l-0.006,-0.007l-0.005,-0.006l-0.006,-0.006l-0.005,-0.005l-0.005,-0.005l-0.005,-0.004l-0.006,-0.005l-0.005,-0.004l-0.006,-0.004l-0.005,-0.004l-0.006,-0.003l-0.006,-0.004l-0.007,-0.003l-0.006,-0.003l-0.007,-0.003l-0.007,-0.003l-0.008,-0.003l-0.007,-0.003l-0.009,-0.003l-0.008,-0.002l-0.009,-0.003l-0.009,-0.002l-0.01,-0.002l-0.01,-0.002l-0.011,-0.002l-0.01,-0.002l-0.011,-0.001l-0.012,-0.001l-0.012,-0.001l-0.012,-0.001l-0.012,-0.001l-0.013,-0.001l-0.013,0l-0.014,0l-0.013,0l-0.014,0l-0.014,0l-0.014,0.001l-0.015,0l-0.015,0.001l-0.014,0.001l-0.031,0.003l-0.031,0.003l-0.031,0.003l-0.032,0.004l-0.032,0.004l-0.032,0.005l-0.065,0.009l-0.033,0.004l-0.034,0.005l-0.033,0.004l-0.034,0.003l-0.035,0.004l-0.034,0.002l-0.019,0.001l-0.019,0.001l-0.019,0l-0.019,0l-0.02,-0.001l-0.02,-0.001l-0.022,-0.001l-0.022,-0.003l-0.023,-0.003l-0.024,-0.005l-0.025,-0.005l-0.026,-0.008l-0.027,-0.009l-0.029,-0.012l-0.029,-0.014l-0.03,-0.017l-0.03,-0.021l-0.029,-0.024l-0.017,-0.016l-0.022,-0.023l-0.005,-0.006l-0.02,-0.026l-0.005,-0.006l-0.017,-0.027l-0.004,-0.007l-0.015,-0.028l-0.01,-0.022l-0.014,-0.036l-0.009,-0.035l-0.007,-0.035l-0.004,-0.034l-0.002,-0.032l0,-0.031l0.001,-0.029l0.003,-0.028l0.004,-0.022l0.006,-0.039l0.005,-0.034l0.005,-0.036l0.004,-0.036l0.004,-0.037l0.003,-0.038l0.003,-0.039l0.003,-0.04l0.002,-0.041l0.001,-0.042l0.001,-0.043l0.001,-0.043l0,-0.044l0,-0.046l-0.001,-0.045l-0.001,-0.047l-0.002,-0.048l-0.002,-0.048l-0.002,-0.049l-0.003,-0.05l-0.004,-0.051l-0.004,-0.051l-0.004,-0.052l-0.005,-0.053l-0.005,-0.053l-0.006,-0.054l-0.006,-0.055l-0.007,-0.055l-0.007,-0.056l-0.007,-0.057l-0.008,-0.057l-0.009,-0.058l-0.009,-0.059l-0.009,-0.059l-0.01,-0.06l-0.01,-0.06l-0.01,-0.061l-0.011,-0.062l-0.012,-0.062l-0.011,-0.062l-0.013,-0.063l-0.012,-0.064l-0.013,-0.064l-0.014,-0.065l-0.014,-0.065l-0.014,-0.066l-0.014,-0.066l-0.016,-0.067l-0.015,-0.067l-0.016,-0.068l-0.016,-0.068l-0.016,-0.068l-0.017,-0.069l-0.018,-0.07l-0.017,-0.07l-0.018,-0.07l-0.019,-0.071l-0.019,-0.071l-0.019,-0.071l-0.019,-0.072l-0.02,-0.072l-0.02,-0.073l-0.021,-0.073l-0.021,-0.073l-0.021,-0.074l-0.021,-0.074l-0.022,-0.074l-0.023,-0.075l-0.022,-0.075l-0.023,-0.075l-0.023,-0.075l-0.024,-0.076l-0.023,-0.076l-0.025,-0.077l-0.024,-0.077l-0.025,-0.077l-0.025,-0.077l-0.025,-0.077l-0.026,-0.078l-0.026,-0.078l-0.026,-0.078l-0.026,-0.078l-0.027,-0.079l-0.027,-0.079l-0.028,-0.079l-0.027,-0.079l-0.028,-0.079l-0.028,-0.08l-0.029,-0.079l-0.028,-0.08l-0.029,-0.08l-0.029,-0.08l-0.03,-0.08l-0.03,-0.081l-0.029,-0.08l-0.031,-0.081l-0.03,-0.081l-0.031,-0.08l-0.031,-0.081l-0.031,-0.081l-0.031,-0.081l-0.032,-0.081l-0.031,-0.082l-0.032,-0.081l-0.032,-0.081l-0.033,-0.081l-0.032,-0.082l-0.033,-0.081l-0.033,-0.082l-0.033,-0.081l-0.067,-0.163l-0.068,-0.162l-0.069,-0.163l-0.069,-0.163l-0.07,-0.162l-0.07,-0.162l-0.071,-0.161l-0.072,-0.162l-0.072,-0.16l-0.073,-0.16l-0.073,-0.16l-0.037,-0.08l-0.037,-0.079l-0.037,-0.079l-0.037,-0.079l-0.038,-0.079l-0.037,-0.079l-0.038,-0.078l-0.037,-0.079l-0.038,-0.078l-0.038,-0.077l-0.038,-0.078l-0.038,-0.077l-0.038,-0.077l-0.038,-0.077l-0.038,-0.077l-0.038,-0.076l-0.039,-0.076l-0.038,-0.076l-0.039,-0.075l-0.038,-0.076l-0.039,-0.074l-0.038,-0.075l-0.039,-0.074l-0.039,-0.074l-0.039,-0.074l-0.039,-0.073l-0.038,-0.073l-0.039,-0.072l-0.039,-0.072l-0.039,-0.072l-0.039,-0.071l-0.039,-0.071l-0.039,-0.071l-0.04,-0.07l-0.039,-0.07l-0.039,-0.069l-0.039,-0.069l-0.039,-0.069l-0.039,-0.068l-0.039,-0.067l-0.039,-0.067l-0.039,-0.067l-0.039,-0.066l-0.039,-0.066l-0.039,-0.065l-0.039,-0.065l-0.039,-0.064l-0.039,-0.064l-0.039,-0.063l-0.039,-0.063l-0.038,-0.062l-0.039,-0.062l-0.039,-0.061l-0.038,-0.06l-0.039,-0.06l-0.039,-0.06l-0.038,-0.058l-0.038,-0.059l-0.039,-0.057l-0.038,-0.057l-0.038,-0.057l-0.038,-0.056l-0.038,-0.055l-0.038,-0.054l-0.037,-0.054l-0.038,-0.054l-0.038,-0.052l-0.037,-0.052l-0.037,-0.051l-0.038,-0.051l-0.037,-0.05l-0.037,-0.049l-0.036,-0.049l-0.037,-0.047l-0.036,-0.047l-0.037,-0.047l-0.036,-0.045l-0.036,-0.045l-0.036,-0.044l-0.036,-0.044l-0.035,-0.042l-0.035,-0.042l-0.036,-0.041l-0.034,-0.04l-0.035,-0.04l-0.035,-0.038l-0.034,-0.038l-0.034,-0.037l-0.034,-0.036l-0.034,-0.035l-0.033,-0.034l-0.033,-0.034l-0.033,-0.033l-0.033,-0.031l-0.032,-0.031l-0.032,-0.03l-0.032,-0.029l-0.031,-0.028l-0.031,-0.027l-0.031,-0.027l-0.03,-0.025l-0.03,-0.024l-0.03,-0.024l-0.029,-0.022l-0.029,-0.022l-0.028,-0.02l-0.028,-0.02l-0.027,-0.018l-0.027,-0.018l-0.027,-0.016l-0.026,-0.016l-0.026,-0.015l-0.012,-0.006l-0.012,-0.007l-0.012,-0.006l-0.012,-0.007l-0.012,-0.005l-0.012,-0.006l-0.011,-0.006l-0.012,-0.005l-0.011,-0.005l-0.011,-0.005l-0.011,-0.004l-0.011,-0.004l-0.01,-0.004l-0.011,-0.004l-0.01,-0.004l-0.01,-0.003l-0.01,-0.003l-0.009,-0.003l-0.01,-0.003l-0.009,-0.002l-0.009,-0.003l-0.009,-0.002l-0.008,-0.002l-0.01,-0.002l-0.055,-0.01l-0.058,-0.011l-0.06,-0.011l-0.063,-0.011l-0.065,-0.011l-0.068,-0.011l-0.069,-0.011l-0.071,-0.012l-0.074,-0.011l-0.075,-0.012l-0.077,-0.011l-0.079,-0.012l-0.163,-0.024l-0.17,-0.024l-0.177,-0.024l-0.182,-0.025l-0.188,-0.026l-0.193,-0.025l-0.401,-0.053l-0.418,-0.055l-0.431,-0.057l-0.22,-0.029l-0.223,-0.03l-0.225,-0.031l-0.226,-0.031l-0.228,-0.032l-0.229,-0.033l-0.23,-0.034l-0.115,-0.017l-0.115,-0.017l-0.115,-0.017l-0.115,-0.018l-0.115,-0.018l-0.115,-0.018l-0.115,-0.018l-0.114,-0.018l-0.115,-0.019l-0.114,-0.019l-0.114,-0.019l-0.113,-0.019l-0.113,-0.02l-0.112,-0.019l-0.112,-0.02l-0.112,-0.021l-0.111,-0.02l-0.11,-0.021l-0.11,-0.021l-0.109,-0.021l-0.108,-0.021l-0.107,-0.022l-0.107,-0.022l-0.106,-0.022l-0.104,-0.023l-0.104,-0.023l-0.103,-0.023l-0.102,-0.023l-0.101,-0.024l-0.1,-0.024l-0.099,-0.024l-0.097,-0.025l-0.096,-0.025l-0.095,-0.025l-0.094,-0.025l-0.092,-0.026l-0.092,-0.027l-0.089,-0.026l-0.045,-0.014l-0.043,-0.013l-0.044,-0.014l-0.043,-0.013l-0.043,-0.014l-0.043,-0.014l-0.042,-0.014l-0.041,-0.014l-0.042,-0.014l-0.041,-0.015l-0.04,-0.014l-0.04,-0.014l-0.04,-0.015l-0.039,-0.015l-0.039,-0.015l-0.039,-0.015l-0.038,-0.015l-0.037,-0.015l-0.038,-0.015l-0.036,-0.016l-0.037,-0.015l-0.036,-0.016l-0.035,-0.016l-0.035,-0.016l-0.035,-0.016l-0.034,-0.016l-0.034,-0.017l-0.033,-0.016l-0.033,-0.017l-0.032,-0.017l-0.032,-0.017l-0.032,-0.017l-0.031,-0.018l-0.03,-0.017l-0.031,-0.018l-0.029,-0.018l-0.029,-0.019l-0.029,-0.018l-0.028,-0.019l-0.028,-0.019l-0.027,-0.02l-0.027,-0.019l-0.027,-0.02l-0.025,-0.021l-0.026,-0.02l-0.025,-0.021l-0.024,-0.021l-0.024,-0.022l-0.023,-0.022l-0.023,-0.023l-0.022,-0.023l-0.022,-0.023l-0.021,-0.024l-0.02,-0.025l-0.02,-0.025l-0.019,-0.025l-0.018,-0.026l-0.018,-0.027l-0.017,-0.027l-0.016,-0.028l-0.015,-0.029l-0.014,-0.029l-0.014,-0.03l-0.011,-0.029l-0.007,-0.017l-0.005,-0.015l-0.005,-0.016l-0.005,-0.016l-0.005,-0.016l-0.004,-0.016l-0.004,-0.016l-0.004,-0.016l-0.003,-0.017l-0.003,-0.016l-0.003,-0.017l-0.003,-0.016l-0.002,-0.017l-0.001,-0.017l-0.002,-0.017l-0.001,-0.017l-0.001,-0.017l0,-0.016l0,-0.017l0,-0.017l0.001,-0.017l0.001,-0.017l0.001,-0.017l0.002,-0.017l0.002,-0.017l0.002,-0.017l0.003,-0.017l0.003,-0.017l0.003,-0.016l0.004,-0.017l0.004,-0.016l0.004,-0.014l0.005,-0.02l0.004,-0.016l0.004,-0.016l0.004,-0.016l0.003,-0.015l0.003,-0.015l0.003,-0.014l0.003,-0.015l0.002,-0.013l0.003,-0.014l0.002,-0.013l0.001,-0.012l0.002,-0.012l0.001,-0.012l0.001,-0.011l0.001,-0.011l0.001,-0.01l0,-0.01l0.001,-0.009l0,-0.009l0,-0.008l0,-0.008l0,-0.007l-0.001,-0.007l0,-0.006l-0.001,-0.006l0,-0.005l-0.001,-0.005l-0.001,-0.004l-0.001,-0.004l0,-0.003l-0.001,-0.002l0,0l-0.003,-0.001l-0.004,-0.001l-0.004,-0.001l-0.004,-0.002l-0.005,-0.001l-0.006,-0.001l-0.006,-0.002l-0.007,-0.001l-0.008,-0.001l-0.007,-0.001l-0.009,-0.001l-0.009,-0.001l-0.01,-0.001l-0.01,-0.001l-0.011,-0.001l-0.011,0l-0.012,0l-0.013,0l-0.012,0l-0.014,0l-0.014,0.001l-0.015,0l-0.015,0.001l-0.015,0.002l-0.016,0.001l-0.017,0.002l-0.017,0.001l-0.017,0.002l-0.018,0.003l-0.019,0.002l-0.019,0.003l-0.019,0.003l-0.02,0.004l-0.021,0.003l-0.021,0.004l-0.021,0.004l-0.022,0.005l-0.022,0.004l-0.022,0.005l-0.047,0.011l-0.049,0.012l-0.05,0.012l-0.052,0.014l-0.054,0.015l-0.055,0.016l-0.057,0.018l-0.059,0.018l-0.061,0.019l-0.062,0.021l-0.064,0.021l-0.066,0.023l-0.067,0.024l-0.069,0.025l-0.071,0.026l-0.072,0.027l-0.074,0.029l-0.076,0.029l-0.078,0.031l-0.079,0.032l-0.081,0.033l-0.083,0.034l-0.085,0.035l-0.086,0.036l-0.088,0.037l-0.09,0.039l-0.091,0.04l-0.094,0.04l-0.095,0.042l-0.096,0.044l-0.099,0.044l-0.1,0.045l-0.103,0.047l-0.104,0.047l-0.105,0.049l-0.108,0.05l-0.109,0.051l-0.112,0.053l-0.113,0.053l-0.115,0.055l-0.117,0.055l-0.118,0.057l-0.121,0.058l-0.122,0.059l-0.125,0.061l-0.126,0.061l-0.128,0.063l-0.13,0.064l-0.132,0.065l-0.134,0.066l-0.136,0.067l-0.137,0.069l-0.282,0.141l-0.289,0.145l-0.297,0.15l-0.306,0.155l-0.313,0.159l-0.322,0.165l-0.329,0.169l-0.339,0.174l-0.346,0.178l-0.355,0.184l-0.363,0.188l-0.373,0.193l-0.38,0.198l-0.047,0.025l-0.046,0.024l-0.047,0.025l-0.046,0.025l-0.046,0.025l-0.045,0.025l-0.046,0.025l-0.045,0.026l-0.045,0.025l-0.044,0.026l-0.045,0.026l-0.044,0.026l-0.045,0.026l-0.044,0.026l-0.043,0.026l-0.044,0.027l-0.043,0.027l-0.043,0.026l-0.043,0.027l-0.043,0.027l-0.042,0.028l-0.043,0.027l-0.042,0.027l-0.042,0.028l-0.041,0.028l-0.042,0.027l-0.041,0.028l-0.041,0.028l-0.041,0.029l-0.041,0.028l-0.041,0.028l-0.04,0.029l-0.04,0.029l-0.04,0.028l-0.04,0.029l-0.039,0.029l-0.04,0.03l-0.039,0.029l-0.039,0.029l-0.038,0.03l-0.039,0.03l-0.038,0.029l-0.039,0.03l-0.038,0.03l-0.037,0.03l-0.038,0.03l-0.038,0.031l-0.037,0.03l-0.037,0.031l-0.037,0.03l-0.036,0.031l-0.037,0.031l-0.036,0.031l-0.036,0.031l-0.036,0.031l-0.036,0.032l-0.036,0.031l-0.035,0.032l-0.035,0.031l-0.035,0.032l-0.035,0.032l-0.035,0.032l-0.034,0.032l-0.035,0.032l-0.034,0.032l-0.034,0.032l-0.034,0.033l-0.033,0.032l-0.034,0.033l-0.033,0.033l-0.033,0.032l-0.033,0.033l-0.032,0.033l-0.033,0.033l-0.032,0.034l-0.033,0.033l-0.032,0.033l-0.031,0.034l-0.032,0.033l-0.032,0.034l-0.031,0.033l-0.031,0.034l-0.031,0.034l-0.031,0.034l-0.031,0.034l-0.03,0.034l-0.03,0.035l-0.031,0.034l-0.03,0.034l-0.029,0.035l-0.03,0.034l-0.029,0.035l-0.03,0.035l-0.029,0.034l-0.029,0.035l-0.029,0.035l-0.057,0.07l-0.056,0.071l-0.056,0.07l-0.056,0.071l-0.054,0.072l-0.054,0.071l-0.053,0.072l-0.053,0.072l-0.052,0.072l-0.052,0.073l-0.05,0.073l-0.051,0.073l-0.049,0.073l-0.049,0.074l-0.049,0.073l-0.047,0.074l-0.048,0.074l-0.046,0.075l-0.046,0.074l-0.046,0.075l-0.044,0.075l-0.045,0.075l-0.043,0.076l-0.044,0.075l-0.042,0.076l-0.042,0.075l-0.042,0.076l-0.041,0.076l-0.04,0.077l-0.04,0.076l-0.039,0.077l-0.039,0.076l-0.038,0.077l-0.038,0.077l-0.037,0.077l-0.036,0.077l-0.036,0.077l-0.036,0.077l-0.035,0.077l-0.034,0.078l-0.034,0.077l-0.034,0.077l-0.033,0.078l-0.032,0.078l-0.032,0.077l-0.032,0.078l-0.031,0.077l-0.031,0.078l-0.03,0.078l-0.029,0.078l-0.029,0.077l-0.029,0.078l-0.028,0.078l-0.028,0.077l-0.027,0.078l-0.027,0.078l-0.026,0.077l-0.026,0.078l-0.026,0.077l-0.025,0.078l-0.024,0.077l-0.024,0.078l-0.024,0.077l-0.023,0.077l-0.023,0.077l-0.023,0.077l-0.022,0.077l-0.021,0.077l-0.022,0.076l-0.021,0.077l-0.02,0.076l-0.02,0.077l-0.02,0.076l-0.019,0.076l-0.019,0.076l-0.018,0.076l-0.018,0.075l-0.018,0.076l-0.017,0.075l-0.017,0.075l-0.017,0.075l-0.016,0.074l-0.016,0.075l-0.016,0.074l-0.015,0.074l-0.015,0.074l-0.014,0.074l-0.014,0.073l-0.014,0.073l-0.014,0.073l-0.013,0.073l-0.013,0.072l-0.012,0.072l-0.012,0.072l-0.012,0.072l-0.012,0.071l-0.011,0.071l-0.011,0.071l-0.011,0.07l-0.01,0.07l-0.01,0.07l-0.01,0.069l-0.01,0.07l-0.009,0.068l-0.009,0.069l-0.009,0.068l-0.008,0.068l-0.008,0.067l-0.008,0.067l-0.008,0.067l-0.007,0.066l-0.007,0.066l-0.007,0.066l-0.007,0.065l-0.006,0.065l-0.007,0.064l-0.006,0.064l-0.005,0.063l-0.006,0.063l-0.005,0.063l-0.01,0.124l-0.009,0.122l-0.008,0.12l-0.008,0.118l-0.007,0.117l-0.006,0.114l-0.005,0.112l-0.005,0.11l-0.004,0.108l-0.004,0.106l-0.003,0.103l-0.002,0.102l-0.002,0.098l-0.002,0.097l-0.001,0.094l0,0.091l0,0.089l0,0.086l0,0.083l0.001,0.081l0.001,0.078l0.001,0.075l0.001,0.073l0.002,0.069l0.002,0.067l0.001,0.063l0.004,0.118l0.004,0.105l0.004,0.093l0.006,0.146l0.002,0.055l0,0.025l0.001,0.023l-0.001,0.027l-0.001,0.018l-0.004,0.031l0,0.003l-0.011,0.048l-0.001,0.002l-0.062,0.118l0,0.001l-0.238,0.134l0,0l-0.202,-0.033l0,0l-0.06,-0.036l-0.015,-0.011l-0.011,-0.008l-0.011,-0.008l-0.012,-0.007l-0.011,-0.007l-0.011,-0.006l-0.01,-0.006l-0.011,-0.006l-0.011,-0.005l-0.011,-0.004l-0.01,-0.005l-0.011,-0.004l-0.011,-0.004l-0.01,-0.003l-0.011,-0.003l-0.011,-0.003l-0.011,-0.003l-0.01,-0.002l-0.011,-0.002l-0.011,-0.002l-0.011,-0.002l-0.011,-0.001l-0.012,-0.001l-0.011,-0.001l-0.011,-0.001l-0.012,0l-0.012,0l-0.012,0l-0.012,0l-0.012,0.001l-0.012,0.001l-0.013,0.001l-0.012,0.002l-0.013,0.001l-0.013,0.002l-0.013,0.003l-0.013,0.002l-0.013,0.003l-0.013,0.003l-0.014,0.003l-0.013,0.003l-0.014,0.004l-0.014,0.004l-0.014,0.005l-0.014,0.004l-0.013,0.005l-0.015,0.005l-0.014,0.005l-0.014,0.005l-0.014,0.006l-0.014,0.006l-0.014,0.006l-0.015,0.006l-0.014,0.007l-0.014,0.006l-0.014,0.007l-0.015,0.007l-0.014,0.008l-0.014,0.007l-0.014,0.008l-0.014,0.007l-0.014,0.008l-0.028,0.016l-0.028,0.017l-0.028,0.017l-0.027,0.018l-0.026,0.017l-0.026,0.018l-0.026,0.019l-0.025,0.018l-0.025,0.018l-0.024,0.019l-0.023,0.018l-0.023,0.018l-0.022,0.018l-0.021,0.018l-0.02,0.017l-0.019,0.017l-0.019,0.016l-0.017,0.016l-0.017,0.016l-0.015,0.013l0.003,0.074l0.004,0.121l0.005,0.145l0.007,0.165l0.008,0.184l0.004,0.099l0.005,0.103l0.005,0.108l0.006,0.111l0.006,0.114l0.007,0.118l0.007,0.121l0.007,0.125l0.008,0.127l0.009,0.129l0.008,0.132l0.01,0.134l0.01,0.136l0.01,0.137l0.011,0.14l0.012,0.14l0.012,0.142l0.012,0.142l0.013,0.143l0.014,0.144l0.015,0.144l0.015,0.144l0.015,0.144l0.017,0.143l0.008,0.071l0.009,0.072l0.008,0.071l0.009,0.071l0.009,0.07l0.009,0.071l0.01,0.07l0.009,0.07l0.01,0.069l0.01,0.069l0.01,0.069l0.01,0.068l0.01,0.067l0.011,0.067l0.011,0.067l0.011,0.066l0.011,0.066l0.011,0.064l0.012,0.065l0.011,0.063l0.012,0.063l0.012,0.062l0.012,0.062l0.012,0.06l0.013,0.06l0.013,0.059l0.013,0.058l0.013,0.057l0.013,0.056l0.013,0.056l0.014,0.054l0.013,0.053l0.014,0.052l0.014,0.051l0.014,0.05l0.015,0.049l0.014,0.047l0.015,0.047l0.014,0.045l0.015,0.043l0.015,0.042l0.015,0.041l0.015,0.04l0.015,0.038l0.016,0.037l0.007,0.017l0.008,0.017l0.007,0.017l0.008,0.016l0.007,0.016l0.008,0.015l0.016,0.033l0.016,0.031l0.016,0.03l0.016,0.029l0.016,0.028l0.015,0.026l0.016,0.026l0.016,0.025l0.015,0.023l0.015,0.023l0.016,0.021l0.015,0.021l0.015,0.019l0.014,0.019l0.015,0.018l0.014,0.016l0.014,0.016l0.014,0.015l0.014,0.014l0.013,0.014l0.013,0.012l0.013,0.012l0.013,0.011l0.013,0.01l0.012,0.009l0.012,0.009l0.011,0.008l0.012,0.008l0.011,0.007l0.011,0.006l0.01,0.006l0.01,0.006l0.011,0.005l0.009,0.004l0.01,0.004l0.01,0.004l0.009,0.003l0.009,0.003l0.009,0.003l0.009,0.002l0.009,0.002l0.008,0.002l0.009,0.001l0.008,0.002l0.009,0.001l0.009,0l0.008,0.001l0.009,0l0.008,0l0.009,0l0.009,0l0.009,-0.001l0.009,0l0.009,-0.002l0.009,-0.001l0.009,-0.001l0.009,-0.002l0.01,-0.002l0.009,-0.002l0.01,-0.003l0.01,-0.002l0.009,-0.003l0.01,-0.003l0.01,-0.004l0.01,-0.003l0.01,-0.004l0.01,-0.004l0.01,-0.005l0.011,-0.004l0.01,-0.005l0.01,-0.005l0.01,-0.005l0.011,-0.005l0.01,-0.006l0.01,-0.005l0.01,-0.006l0.011,-0.006l0.01,-0.006l0.01,-0.007l0.01,-0.006l0.01,-0.007l0.009,-0.006l0.02,-0.014l0.019,-0.014l0.019,-0.014l0.018,-0.014l0.017,-0.015l0.017,-0.014l0.016,-0.014l0.015,-0.014l0.015,-0.014l0.014,-0.013l0.012,-0.013l0.012,-0.012l0.011,-0.011l0.01,-0.01l0.008,-0.009l0.015,-0.017l0.01,-0.012l0.005,-0.005l0.001,-0.002l0.504,-0.057l3.086,2.432l0.051,0.049l0.041,0.058l0.028,0.065l0.015,0.069l0.001,0.07l-0.012,0.07l-0.026,0.066l-0.038,0.059l-0.049,0.051l-0.058,0.04l-0.064,0.029l-0.069,0.015l-0.071,0.001l-0.069,-0.012l-0.066,-0.026l-0.059,-0.038l-2.836,-2.235l-0.007,0.006l-0.028,0.023l-0.028,0.022l-0.03,0.023l-0.031,0.023l-0.031,0.022l-0.018,0.011l-0.017,0.012l-0.017,0.011l-0.018,0.011l-0.018,0.011l-0.018,0.01l-0.019,0.011l-0.018,0.011l-0.02,0.01l-0.019,0.01l-0.02,0.01l-0.021,0.01l-0.02,0.009l-0.021,0.01l-0.022,0.009l-0.021,0.008l-0.022,0.009l-0.023,0.008l-0.022,0.008l-0.024,0.007l-0.023,0.007l-0.024,0.006l-0.024,0.007l-0.024,0.005l-0.025,0.005l-0.025,0.005l-0.026,0.004l-0.026,0.004l-0.026,0.003l-0.026,0.002l-0.027,0.002l-0.027,0.001l-0.027,0l-0.027,0l-0.028,-0.001l-0.028,-0.002l-0.028,-0.002l-0.028,-0.004l-0.028,-0.004l-0.029,-0.005l-0.028,-0.005l-0.029,-0.007l-0.028,-0.008l-0.029,-0.008l-0.028,-0.009l-0.029,-0.01l-0.028,-0.011l-0.028,-0.012l-0.028,-0.013l-0.028,-0.014l-0.028,-0.014l-0.027,-0.015l-0.028,-0.016l-0.027,-0.018l-0.026,-0.017l-0.027,-0.019l-0.026,-0.02l-0.026,-0.02l-0.026,-0.021l-0.026,-0.022l-0.025,-0.023l-0.025,-0.024l-0.025,-0.024l-0.024,-0.025l-0.024,-0.026l-0.024,-0.027l-0.024,-0.028l-0.023,-0.028l-0.024,-0.03l-0.022,-0.03l-0.023,-0.031l-0.023,-0.031l-0.022,-0.033l-0.022,-0.034l-0.021,-0.034l-0.022,-0.035l-0.021,-0.036l-0.021,-0.037l-0.021,-0.038l-0.021,-0.039l-0.02,-0.04l-0.021,-0.04l-0.01,-0.022l-0.011,-0.022l-0.01,-0.023l-0.01,-0.022l-0.01,-0.023l-0.01,-0.024l-0.019,-0.046l-0.019,-0.047l-0.019,-0.049l-0.018,-0.05l-0.018,-0.05l-0.018,-0.052l-0.017,-0.052l-0.017,-0.054l-0.016,-0.054l-0.016,-0.055l-0.016,-0.056l-0.016,-0.057l-0.015,-0.058l-0.015,-0.058l-0.015,-0.06l-0.015,-0.06l-0.014,-0.06l-0.014,-0.062l-0.014,-0.062l-0.013,-0.063l-0.014,-0.064l-0.013,-0.065l-0.013,-0.065l-0.012,-0.065l-0.013,-0.067l-0.012,-0.066l-0.012,-0.068l-0.012,-0.068l-0.011,-0.068l-0.012,-0.069l-0.011,-0.069l-0.011,-0.07l-0.011,-0.07l-0.01,-0.071l-0.011,-0.071l-0.01,-0.071l-0.01,-0.072l-0.01,-0.072l-0.009,-0.072l-0.01,-0.072l-0.009,-0.073l-0.009,-0.073l-0.009,-0.073l-0.009,-0.073l-0.009,-0.073l-0.016,-0.147l-0.016,-0.147l-0.016,-0.147l-0.014,-0.147l-0.014,-0.146l-0.014,-0.146l-0.013,-0.145l-0.012,-0.144l-0.012,-0.143l-0.011,-0.141l-0.01,-0.14l-0.01,-0.138l-0.01,-0.136l-0.009,-0.134l-0.008,-0.131l-0.008,-0.128l-0.008,-0.126l-0.007,-0.123l-0.007,-0.12l-0.006,-0.116l-0.006,-0.112l-0.005,-0.109l-0.005,-0.104l-0.005,-0.101l-0.008,-0.186l-0.006,-0.168l-0.006,-0.146l-0.004,-0.124l-0.003,-0.099l-0.002,-0.073l-0.002,-0.06l0.096,-0.254l0.014,-0.015l0.017,-0.018l0.023,-0.023l0.028,-0.028l0.033,-0.032l0.019,-0.018l0.02,-0.019l0.021,-0.019l0.022,-0.02l0.023,-0.021l0.024,-0.021l0.026,-0.022l0.026,-0.022l0.028,-0.023l0.029,-0.023l0.03,-0.023l0.03,-0.024l0.032,-0.023l0.033,-0.024l0.033,-0.024l0.035,-0.024l0.035,-0.023l0.037,-0.024l0.037,-0.023l0.039,-0.023l0.038,-0.022l0.021,-0.012l0.02,-0.011l0.02,-0.011l0.021,-0.011l0.02,-0.01l0.021,-0.011l0.022,-0.01l0.021,-0.01l0.022,-0.01l0.022,-0.009l0.022,-0.01l0.022,-0.009l0.023,-0.009l0.022,-0.009l0.023,-0.008l0.024,-0.009l0.023,-0.007l0.024,-0.008l0.024,-0.007l0.024,-0.008l0.024,-0.006l0.024,-0.007l0.025,-0.006l0.025,-0.005l0.025,-0.005l0.026,-0.005l0.025,-0.004l0.026,-0.004l0.026,-0.004l0.026,-0.003l0.027,-0.002l0.026,-0.002l0.027,-0.002l0.027,-0.001l0.027,0l0.027,0l0.028,0.001l0.027,0.001l0.028,0.002l0.028,0.003l0.006,0.001l-0.001,-0.039l-0.002,-0.066l-0.002,-0.069l-0.001,-0.071l-0.002,-0.075l-0.001,-0.078l-0.001,-0.08l-0.001,-0.084l0,-0.086l0,-0.089l0,-0.092l0,-0.094l0.002,-0.097l0.001,-0.099l0.002,-0.102l0.003,-0.105l0.003,-0.106l0.003,-0.109l0.005,-0.112l0.004,-0.114l0.006,-0.115l0.006,-0.118l0.007,-0.121l0.008,-0.122l0.009,-0.124l0.009,-0.126l0.01,-0.128l0.006,-0.064l0.006,-0.066l0.005,-0.065l0.007,-0.066l0.006,-0.067l0.007,-0.066l0.007,-0.068l0.007,-0.067l0.007,-0.069l0.008,-0.068l0.008,-0.069l0.008,-0.069l0.008,-0.07l0.009,-0.07l0.009,-0.071l0.009,-0.07l0.01,-0.072l0.01,-0.071l0.01,-0.072l0.01,-0.072l0.011,-0.073l0.011,-0.073l0.012,-0.073l0.011,-0.073l0.012,-0.074l0.013,-0.074l0.012,-0.075l0.013,-0.074l0.014,-0.075l0.013,-0.076l0.014,-0.075l0.015,-0.076l0.014,-0.076l0.015,-0.077l0.016,-0.076l0.015,-0.077l0.017,-0.077l0.016,-0.077l0.017,-0.078l0.017,-0.078l0.018,-0.077l0.018,-0.079l0.018,-0.078l0.019,-0.079l0.019,-0.078l0.02,-0.079l0.02,-0.079l0.02,-0.079l0.021,-0.08l0.021,-0.079l0.022,-0.08l0.022,-0.08l0.023,-0.08l0.023,-0.08l0.023,-0.08l0.024,-0.081l0.024,-0.08l0.025,-0.081l0.025,-0.08l0.026,-0.081l0.026,-0.081l0.026,-0.081l0.027,-0.081l0.028,-0.081l0.028,-0.081l0.028,-0.081l0.029,-0.081l0.03,-0.081l0.03,-0.082l0.03,-0.081l0.031,-0.081l0.032,-0.082l0.032,-0.081l0.032,-0.081l0.033,-0.082l0.034,-0.081l0.034,-0.081l0.034,-0.081l0.036,-0.082l0.035,-0.081l0.037,-0.081l0.036,-0.081l0.038,-0.081l0.038,-0.081l0.038,-0.081l0.039,-0.081l0.04,-0.081l0.04,-0.081l0.04,-0.08l0.042,-0.081l0.042,-0.08l0.042,-0.08l0.043,-0.081l0.044,-0.08l0.044,-0.079l0.045,-0.08l0.046,-0.08l0.046,-0.079l0.046,-0.08l0.048,-0.079l0.048,-0.079l0.048,-0.078l0.05,-0.079l0.05,-0.078l0.05,-0.079l0.051,-0.078l0.052,-0.077l0.053,-0.078l0.053,-0.077l0.054,-0.077l0.054,-0.077l0.055,-0.077l0.056,-0.076l0.056,-0.076l0.058,-0.076l0.058,-0.076l0.058,-0.075l0.059,-0.075l0.06,-0.075l0.061,-0.074l0.031,-0.037l0.03,-0.037l0.031,-0.037l0.031,-0.037l0.032,-0.037l0.031,-0.036l0.032,-0.037l0.032,-0.036l0.032,-0.037l0.032,-0.036l0.032,-0.036l0.033,-0.037l0.033,-0.036l0.033,-0.036l0.033,-0.036l0.033,-0.035l0.033,-0.036l0.034,-0.036l0.034,-0.035l0.034,-0.036l0.034,-0.035l0.035,-0.036l0.034,-0.035l0.035,-0.035l0.035,-0.035l0.035,-0.035l0.036,-0.034l0.035,-0.035l0.036,-0.035l0.036,-0.034l0.036,-0.034l0.036,-0.035l0.037,-0.034l0.036,-0.034l0.037,-0.034l0.037,-0.034l0.038,-0.034l0.037,-0.033l0.038,-0.034l0.038,-0.033l0.038,-0.033l0.038,-0.034l0.038,-0.033l0.039,-0.033l0.039,-0.032l0.039,-0.033l0.039,-0.033l0.039,-0.032l0.04,-0.033l0.04,-0.032l0.04,-0.032l0.04,-0.032l0.041,-0.032l0.04,-0.032l0.041,-0.031l0.041,-0.032l0.041,-0.031l0.042,-0.032l0.041,-0.031l0.042,-0.031l0.042,-0.031l0.042,-0.03l0.043,-0.031l0.043,-0.031l0.042,-0.03l0.043,-0.03l0.044,-0.03l0.043,-0.03l0.044,-0.03l0.044,-0.03l0.044,-0.029l0.044,-0.03l0.045,-0.029l0.044,-0.029l0.045,-0.029l0.046,-0.029l0.045,-0.029l0.046,-0.028l0.045,-0.029l0.046,-0.028l0.046,-0.028l0.047,-0.028l0.047,-0.028l0.046,-0.028l0.047,-0.027l0.048,-0.028l0.047,-0.027l0.048,-0.027l0.048,-0.027l0.048,-0.027l0.048,-0.027l0.049,-0.026l0.049,-0.026l0.049,-0.027l0.049,-0.026l0.049,-0.025l0.382,-0.199l0.372,-0.193l0.364,-0.189l0.356,-0.184l0.347,-0.179l0.339,-0.174l0.33,-0.169l0.323,-0.165l0.314,-0.16l0.307,-0.155l0.298,-0.151l0.291,-0.146l0.282,-0.141l0.139,-0.069l0.137,-0.068l0.134,-0.067l0.133,-0.065l0.131,-0.064l0.129,-0.064l0.127,-0.062l0.126,-0.061l0.123,-0.059l0.122,-0.059l0.12,-0.057l0.118,-0.057l0.116,-0.055l0.114,-0.054l0.113,-0.053l0.111,-0.052l0.109,-0.05l0.107,-0.05l0.106,-0.048l0.104,-0.048l0.102,-0.046l0.101,-0.045l0.099,-0.044l0.097,-0.043l0.095,-0.041l0.094,-0.041l0.092,-0.04l0.091,-0.038l0.088,-0.038l0.088,-0.036l0.085,-0.035l0.085,-0.034l0.082,-0.033l0.081,-0.032l0.08,-0.031l0.078,-0.03l0.076,-0.029l0.075,-0.027l0.073,-0.027l0.072,-0.025l0.071,-0.025l0.069,-0.023l0.068,-0.022l0.066,-0.022l0.065,-0.02l0.064,-0.019l0.062,-0.018l0.061,-0.017l0.06,-0.016l0.059,-0.015l0.057,-0.014l0.056,-0.013l0.028,-0.006l0.027,-0.006l0.028,-0.005l0.026,-0.005l0.027,-0.005l0.026,-0.005l0.027,-0.004l0.025,-0.004l0.026,-0.004l0.025,-0.004l0.026,-0.003l0.024,-0.003l0.025,-0.003l0.025,-0.002l0.024,-0.002l0.024,-0.002l0.024,-0.001l0.024,-0.002l0.023,-0.001l0.024,0l0.023,0l0.023,0l0.023,0l0.023,0.001l0.023,0.001l0.022,0.002l0.023,0.002l0.022,0.002l0.023,0.003l0.022,0.003l0.022,0.004l0.022,0.004l0.022,0.005l0.022,0.005l0.022,0.005l0.021,0.007l0.022,0.006l0.021,0.008l0.022,0.008l0.021,0.008l0.021,0.009l0.021,0.01l0.021,0.011l0.02,0.011l0.02,0.012l0.02,0.013l0.02,0.013l0.019,0.014l0.018,0.015l0.019,0.015l0.017,0.016l0.017,0.017l0.017,0.017l0.016,0.018l0.015,0.018l0.015,0.019l0.014,0.019l0.013,0.02l0.012,0.02l0.012,0.02l0.011,0.021l0.01,0.021l0.01,0.021l0.009,0.021l0.008,0.022l0.007,0.021l0.007,0.021l0.006,0.022l0.005,0.022l0.005,0.021l0.004,0.022l0.004,0.021l0.003,0.022l0.003,0.022l0.002,0.021l0.002,0.022l0.001,0.021l0.001,0.022l0,0.021l0,0.022l0,0.021l-0.001,0.022l-0.001,0.021l-0.002,0.022l-0.002,0.021l-0.002,0.022l-0.002,0.022l-0.003,0.022l-0.003,0.021l-0.004,0.022l-0.003,0.022l-0.004,0.022l-0.004,0.022l-0.005,0.022l-0.005,0.023l-0.005,0.022l-0.005,0.023l-0.006,0.022l-0.006,0.023l-0.005,0.02l-0.001,0.006l-0.001,0.004l-0.001,0.003l-0.001,0.003l0,0.003l-0.001,0.003l0,0.003l0,0.002l-0.001,0.003l0,0.002l0,0.003l0,0.002l0,0.003l0,0.004l0,0.005l0.001,0.004l0,0.005l0.001,0.004l0.001,0.003l0,0.002l0.001,0.003l0,0.002l0.001,0.003l0.001,0.003l0.001,0.002l0.002,0.005l0.003,0.008l0.003,0.006l0.003,0.007l0.004,0.008l0.005,0.008l0.005,0.008l0.006,0.009l0.006,0.009l0.007,0.01l0.008,0.01l0.009,0.01l0.009,0.01l0.01,0.011l0.011,0.012l0.012,0.011l0.012,0.012l0.013,0.012l0.014,0.012l0.015,0.012l0.015,0.013l0.016,0.013l0.017,0.012l0.018,0.013l0.018,0.013l0.019,0.014l0.02,0.013l0.021,0.013l0.021,0.014l0.022,0.013l0.023,0.013l0.023,0.014l0.024,0.014l0.025,0.013l0.025,0.014l0.026,0.013l0.027,0.014l0.027,0.014l0.028,0.013l0.029,0.014l0.029,0.013l0.03,0.014l0.03,0.013l0.031,0.014l0.032,0.013l0.032,0.014l0.032,0.013l0.033,0.014l0.034,0.013l0.034,0.013l0.035,0.014l0.036,0.013l0.035,0.013l0.037,0.013l0.037,0.013l0.037,0.013l0.038,0.013l0.038,0.013l0.039,0.013l0.039,0.013l0.04,0.013l0.04,0.013l0.041,0.012l0.041,0.013l0.041,0.012l0.084,0.025l0.086,0.025l0.088,0.025l0.089,0.024l0.09,0.024l0.092,0.024l0.094,0.023l0.094,0.023l0.096,0.024l0.098,0.022l0.098,0.023l0.1,0.022l0.1,0.022l0.102,0.022l0.103,0.022l0.104,0.021l0.105,0.022l0.105,0.021l0.107,0.02l0.107,0.021l0.108,0.02l0.109,0.02l0.109,0.02l0.11,0.02l0.111,0.019l0.111,0.019l0.111,0.019l0.112,0.019l0.113,0.019l0.113,0.018l0.113,0.018l0.113,0.018l0.114,0.018l0.113,0.018l0.114,0.017l0.114,0.017l0.114,0.017l0.114,0.017l0.228,0.033l0.227,0.033l0.226,0.032l0.225,0.031l0.224,0.03l0.221,0.03l0.22,0.029l0.43,0.057l0.418,0.055l0.401,0.053l0.195,0.026l0.189,0.025l0.183,0.025l0.179,0.025l0.172,0.024l0.166,0.024l0.08,0.012l0.079,0.012l0.077,0.012l0.076,0.012l0.073,0.012l0.072,0.011l0.07,0.012l0.068,0.012l0.067,0.011l0.064,0.012l0.062,0.011l0.061,0.012l0.02,0.004l0.02,0.005l0.02,0.004l0.02,0.005l0.02,0.006l0.02,0.006l0.019,0.006l0.02,0.006l0.02,0.007l0.019,0.006l0.02,0.008l0.019,0.007l0.02,0.008l0.019,0.008l0.019,0.008l0.019,0.009l0.02,0.008l0.019,0.009l0.019,0.01l0.019,0.009l0.019,0.01l0.019,0.01l0.019,0.01l0.02,0.011l0.036,0.021l0.038,0.023l0.038,0.023l0.037,0.025l0.038,0.025l0.037,0.026l0.037,0.027l0.037,0.028l0.038,0.028l0.037,0.03l0.037,0.03l0.038,0.031l0.037,0.032l0.037,0.033l0.038,0.033l0.037,0.035l0.038,0.035l0.037,0.035l0.038,0.037l0.038,0.037l0.037,0.039l0.038,0.039l0.038,0.039l0.038,0.041l0.038,0.041l0.038,0.042l0.038,0.042l0.038,0.044l0.038,0.044l0.039,0.044l0.038,0.046l0.039,0.046l0.038,0.047l0.039,0.047l0.039,0.048l0.038,0.049l0.039,0.05l0.039,0.05l0.039,0.051l0.039,0.051l0.039,0.052l0.04,0.053l0.039,0.054l0.039,0.054l0.04,0.054l0.039,0.056l0.039,0.056l0.04,0.056l0.04,0.057l0.039,0.058l0.04,0.058l0.04,0.059l0.039,0.059l0.04,0.06l0.04,0.061l0.04,0.061l0.04,0.061l0.04,0.062l0.04,0.063l0.04,0.063l0.04,0.064l0.04,0.064l0.04,0.065l0.04,0.065l0.04,0.066l0.04,0.066l0.04,0.066l0.04,0.068l0.04,0.067l0.041,0.068l0.04,0.069l0.04,0.069l0.04,0.069l0.04,0.07l0.04,0.07l0.04,0.071l0.04,0.071l0.04,0.071l0.04,0.072l0.04,0.072l0.04,0.073l0.04,0.073l0.04,0.073l0.039,0.074l0.04,0.074l0.04,0.074l0.04,0.075l0.039,0.075l0.04,0.075l0.039,0.076l0.04,0.076l0.039,0.076l0.039,0.077l0.04,0.077l0.039,0.077l0.039,0.077l0.039,0.078l0.039,0.078l0.039,0.078l0.038,0.079l0.039,0.078l0.039,0.079l0.038,0.079l0.038,0.08l0.039,0.079l0.038,0.08l0.038,0.08l0.038,0.08l0.038,0.081l0.037,0.08l0.038,0.081l0.037,0.081l0.075,0.162l0.074,0.163l0.073,0.164l0.073,0.163l0.073,0.165l0.071,0.164l0.071,0.165l0.07,0.165l0.07,0.166l0.069,0.165l0.068,0.165l0.034,0.083l0.033,0.083l0.034,0.083l0.033,0.082l0.033,0.083l0.032,0.083l0.033,0.082l0.032,0.083l0.032,0.082l0.032,0.083l0.032,0.082l0.031,0.083l0.031,0.082l0.031,0.082l0.031,0.082l0.031,0.082l0.03,0.082l0.03,0.082l0.03,0.081l0.029,0.082l0.029,0.081l0.029,0.081l0.029,0.081l0.028,0.081l0.029,0.081l0.027,0.081l0.028,0.08l0.027,0.08l0.027,0.08l0.027,0.08l0.027,0.08l0.026,0.079l0.026,0.079l0.025,0.079l0.026,0.079l0.025,0.078l0.024,0.079l0.025,0.078l0.024,0.077l0.024,0.078l0.023,0.077l0.023,0.077l0.023,0.077l0.023,0.076l0.022,0.076l0.021,0.076l0.022,0.075l0.021,0.075l0.021,0.075l0.02,0.074l0.02,0.074l0.02,0.074l0.02,0.074l0.019,0.073l0.018,0.072l0.019,0.073l0.018,0.072l0.017,0.071l0.017,0.071l0.017,0.071l0.017,0.07l0.016,0.07l0.015,0.07l0.016,0.069l0.014,0.069l0.015,0.068l0.014,0.068l0.014,0.067l0.013,0.067l0.013,0.067l0.012,0.066l0.012,0.065l0.012,0.065l0.011,0.065l0.011,0.064l0.01,0.064l0.01,0.063l0.009,0.062l0.009,0.063l0.009,0.061l0.008,0.061l0.008,0.061l0.007,0.06l0.007,0.059l0.006,0.06l0.006,0.058l0.005,0.058l0.005,0.057l0.004,0.057l0.004,0.057l0.004,0.055l0.002,0.055l0.003,0.055l0.002,0.054l0.001,0.054l0.001,0.053l0,0.052l0,0.052l-0.001,0.051l-0.001,0.051l-0.002,0.05l-0.002,0.05l-0.003,0.049l-0.003,0.03l0.035,-0.005l0.037,-0.004l0.039,-0.005l0.04,-0.004l0.041,-0.004l0.041,-0.004l0.023,-0.001l0.022,-0.002l0.022,-0.001l0.022,0l0.023,-0.001l0.023,0l0.023,0l0.023,0ZM21.821,33.898l-0.006,-0.004l-0.001,-0.001l0.007,0.005Z" style="fill:#000;"/><path d="M42.154,49.904l0.045,0.001l0.046,0.002l0.045,0.002l0.045,0.003l0.045,0.003l0.045,0.004l0.044,0.005l0.045,0.005l0.045,0.006l0.044,0.007l0.044,0.007l0.044,0.007l0.044,0.009l0.044,0.009l0.044,0.009l0.043,0.01l0.043,0.011l0.044,0.011l0.042,0.012l0.043,0.012l0.043,0.013l0.042,0.014l0.042,0.014l0.042,0.015l0.042,0.015l0.041,0.016l0.042,0.016l0.041,0.017l0.041,0.017l0.04,0.018l0.04,0.019l0.04,0.019l0.04,0.02l0.04,0.02l0.039,0.021l0.039,0.021l0.039,0.022l0.038,0.022l0.038,0.023l0.038,0.023l0.037,0.024l0.038,0.025l0.036,0.025l0.037,0.025l0.036,0.026l0.036,0.027l0.036,0.027l0.035,0.027l0.035,0.028l0.034,0.029l0.034,0.029l0.034,0.029l0.033,0.03l0.033,0.031l0.033,0.031l0.032,0.031l0.032,0.032l0.031,0.032l0.031,0.033l0.031,0.033l0.03,0.034l0.03,0.035l0.028,0.033l0.291,0.35l0.024,0.033l0.02,0.035l0.016,0.037l0.012,0.038l0.008,0.04l0.003,0.04l-0.001,0.041l-0.006,0.039l-0.011,0.039l-0.014,0.038l-0.019,0.036l-0.023,0.033l-0.026,0.031l-0.03,0.027l-0.032,0.024l-0.035,0.021l-0.037,0.016l-0.039,0.012l-0.039,0.007l-0.041,0.003l-0.04,-0.001l-0.04,-0.006l-0.039,-0.01l-0.038,-0.015l-0.035,-0.019l-0.034,-0.023l-0.03,-0.026l-0.028,-0.029l-0.289,-0.349l-0.024,-0.028l-0.023,-0.026l-0.023,-0.027l-0.024,-0.026l-0.024,-0.025l-0.025,-0.025l-0.025,-0.025l-0.025,-0.025l-0.025,-0.024l-0.026,-0.024l-0.026,-0.023l-0.026,-0.023l-0.027,-0.023l-0.026,-0.022l-0.028,-0.022l-0.027,-0.021l-0.028,-0.021l-0.028,-0.021l-0.028,-0.02l-0.028,-0.02l-0.029,-0.019l-0.029,-0.019l-0.029,-0.019l-0.03,-0.018l-0.029,-0.018l-0.03,-0.017l-0.03,-0.017l-0.031,-0.017l-0.03,-0.016l-0.031,-0.016l-0.031,-0.015l-0.031,-0.015l-0.032,-0.015l-0.031,-0.014l-0.032,-0.013l-0.032,-0.014l-0.032,-0.012l-0.033,-0.013l-0.032,-0.011l-0.033,-0.012l-0.033,-0.011l-0.033,-0.01l-0.033,-0.011l-0.033,-0.009l-0.034,-0.009l-0.033,-0.009l-0.034,-0.008l-0.034,-0.008l-0.034,-0.008l-0.034,-0.007l-0.034,-0.006l-0.035,-0.006l-0.034,-0.006l-0.035,-0.005l-0.034,-0.004l-0.035,-0.004l-0.035,-0.004l-0.035,-0.003l-0.035,-0.003l-0.035,-0.002l-0.035,-0.002l-0.036,-0.001l-0.035,-0.001l-0.037,0l-7.036,0l-0.037,0l-0.036,0.001l-0.036,0.001l-0.036,0.002l-0.036,0.002l-0.036,0.003l-0.036,0.004l-0.035,0.003l-0.036,0.005l-0.035,0.004l-0.035,0.006l-0.035,0.005l-0.035,0.007l-0.035,0.006l-0.035,0.008l-0.035,0.007l-0.034,0.008l-0.035,0.009l-0.034,0.009l-0.034,0.01l-0.034,0.01l-0.034,0.01l-0.033,0.011l-0.034,0.012l-0.033,0.012l-0.033,0.012l-0.033,0.013l-0.033,0.013l-0.032,0.014l-0.032,0.014l-0.033,0.014l-0.032,0.016l-0.031,0.015l-0.032,0.016l-0.031,0.016l-0.031,0.017l-0.031,0.017l-0.03,0.018l-0.031,0.018l-0.03,0.019l-0.03,0.019l-0.029,0.019l-0.03,0.02l-0.029,0.02l-0.028,0.02l-0.029,0.021l-0.028,0.022l-0.028,0.022l-0.028,0.022l-0.027,0.023l-0.027,0.023l-0.027,0.023l-0.026,0.024l-0.027,0.024l-0.025,0.025l-0.026,0.025l-0.025,0.025l-0.025,0.026l-0.025,0.026l-0.024,0.027l-0.024,0.027l-0.023,0.027l-0.023,0.028l-0.024,0.029l-0.346,0.432l-0.027,0.03l-0.031,0.027l-0.033,0.023l-0.035,0.019l-0.037,0.016l-0.039,0.011l-0.04,0.007l-0.04,0.002l-0.041,-0.003l-0.039,-0.007l-0.039,-0.011l-0.037,-0.015l-0.036,-0.02l-0.032,-0.023l-0.031,-0.027l-0.026,-0.031l-0.024,-0.033l-0.019,-0.035l-0.015,-0.037l-0.012,-0.039l-0.006,-0.04l-0.002,-0.04l0.002,-0.04l0.007,-0.04l0.011,-0.039l0.016,-0.037l0.019,-0.036l0.024,-0.032l0.348,-0.435l0.028,-0.035l0.03,-0.035l0.03,-0.035l0.031,-0.035l0.031,-0.034l0.031,-0.033l0.032,-0.033l0.033,-0.033l0.032,-0.032l0.033,-0.032l0.034,-0.031l0.034,-0.03l0.034,-0.03l0.035,-0.03l0.035,-0.029l0.036,-0.029l0.036,-0.028l0.036,-0.027l0.037,-0.027l0.036,-0.027l0.038,-0.025l0.037,-0.026l0.038,-0.025l0.039,-0.024l0.038,-0.024l0.039,-0.023l0.039,-0.023l0.04,-0.022l0.04,-0.021l0.04,-0.021l0.04,-0.021l0.041,-0.02l0.041,-0.019l0.041,-0.019l0.041,-0.018l0.042,-0.017l0.042,-0.017l0.042,-0.017l0.043,-0.016l0.042,-0.015l0.043,-0.015l0.044,-0.014l0.043,-0.013l0.043,-0.013l0.044,-0.012l0.044,-0.012l0.044,-0.011l0.044,-0.011l0.045,-0.009l0.045,-0.01l0.044,-0.008l0.045,-0.008l0.045,-0.008l0.046,-0.006l0.045,-0.007l0.046,-0.005l0.045,-0.005l0.046,-0.004l0.046,-0.004l0.046,-0.003l0.046,-0.002l0.046,-0.002l0.047,-0.001l0.045,0l7.041,0l0.044,0Z" style="fill:#000;"/><path d="M32.14,36.473c0.474,0.159 0.776,0.534 0.674,0.836c-0.102,0.303 -0.569,0.419 -1.042,0.26c-0.474,-0.159 -0.776,-0.534 -0.674,-0.837c0.102,-0.302 0.569,-0.419 1.042,-0.259Z" style="fill:#000;stroke-width:0.5px;stroke-linecap:round;stroke-linejoin:bevel;stroke:#000;"/><path d="M45.452,36.473c-0.474,0.159 -0.776,0.534 -0.674,0.836c0.102,0.303 0.569,0.419 1.042,0.26c0.474,-0.159 0.776,-0.534 0.674,-0.837c-0.102,-0.302 -0.569,-0.419 -1.042,-0.259Z" style="fill:#000;stroke-width:0.5px;stroke-linecap:round;stroke-linejoin:bevel;stroke:#000;"/><path d="M40.323,53.593l0.027,0.003l0.026,0.003l0.026,0.005l0.026,0.007l0.025,0.008l0.025,0.009l0.024,0.011l0.023,0.012l0.023,0.013l0.023,0.014l0.021,0.016l0.02,0.017l0.02,0.018l0.018,0.019l0.018,0.02l0.016,0.02l0.015,0.022l0.014,0.023l0.012,0.023l0.012,0.024l0.01,0.024l0.008,0.025l0.007,0.026l0.006,0.026l0.004,0.026l0.003,0.026l0.002,0.026l0,0.027l-0.002,0.026l-0.003,0.027l-0.004,0.026l-0.006,0.025l-0.007,0.026l-0.008,0.025l-0.01,0.024l-0.012,0.024l-0.012,0.024l-0.014,0.022l-0.015,0.022l-0.016,0.021l-0.018,0.02l-0.018,0.019l-0.02,0.018l-0.02,0.016l-0.021,0.016l-0.023,0.015l-0.023,0.013l-0.023,0.012l-0.024,0.01l-0.025,0.01l-0.025,0.008l-0.026,0.006l-0.026,0.005l-0.026,0.004l-0.027,0.002l-0.026,0.001l-3.71,0l-0.026,-0.001l-0.026,-0.002l-0.027,-0.004l-0.026,-0.005l-0.025,-0.006l-0.026,-0.008l-0.024,-0.01l-0.025,-0.01l-0.023,-0.012l-0.023,-0.013l-0.022,-0.015l-0.021,-0.016l-0.021,-0.016l-0.019,-0.018l-0.019,-0.019l-0.017,-0.02l-0.016,-0.021l-0.015,-0.022l-0.014,-0.022l-0.013,-0.024l-0.011,-0.024l-0.01,-0.024l-0.009,-0.025l-0.007,-0.026l-0.006,-0.025l-0.004,-0.026l-0.003,-0.027l-0.001,-0.026l0,-0.027l0.001,-0.026l0.003,-0.026l0.004,-0.026l0.006,-0.026l0.007,-0.026l0.009,-0.025l0.01,-0.024l0.011,-0.024l0.013,-0.023l0.014,-0.023l0.015,-0.022l0.016,-0.02l0.017,-0.02l0.019,-0.019l0.019,-0.018l0.021,-0.017l0.021,-0.016l0.022,-0.014l0.023,-0.013l0.023,-0.012l0.025,-0.011l0.024,-0.009l0.026,-0.008l0.025,-0.007l0.026,-0.005l0.027,-0.003l0.026,-0.003l0.026,0l3.71,0l0.026,0Z" style="fill:#000;"/><path d="M36.628,44.473l0.04,0.001l0.041,0.001l0.04,0.001l0.039,0.003l0.039,0.002l0.038,0.003l0.038,0.004l0.038,0.004l0.037,0.004l0.037,0.004l0.036,0.005l0.036,0.006l0.035,0.005l0.035,0.006l0.034,0.006l0.034,0.006l0.034,0.007l0.033,0.006l0.033,0.007l0.032,0.007l0.033,0.007l0.062,0.015l0.061,0.014l0.06,0.015l0.059,0.015l0.057,0.014l0.112,0.029l0.054,0.013l0.054,0.013l0.054,0.013l0.025,0.006l0.026,0.005l0.027,0.006l0.026,0.005l0.026,0.005l0.026,0.005l0.026,0.005l0.026,0.004l0.026,0.004l0.026,0.004l0.026,0.004l0.026,0.003l0.026,0.003l0.027,0.003l0.026,0.002l0.027,0.003l0.027,0.001l0.028,0.002l0.027,0.001l0.028,0.001l0.028,0.001l0.028,0l0.015,0l0.015,-0.001l0.015,0l0.017,-0.001l0.018,-0.002l0.018,-0.001l0.02,-0.002l0.02,-0.003l0.02,-0.002l0.022,-0.003l0.022,-0.004l0.022,-0.003l0.023,-0.004l0.024,-0.004l0.024,-0.005l0.024,-0.004l0.052,-0.011l0.052,-0.011l0.054,-0.012l0.055,-0.013l0.056,-0.013l0.057,-0.014l0.117,-0.028l0.119,-0.029l0.061,-0.015l0.061,-0.014l0.061,-0.014l0.061,-0.014l0.062,-0.013l0.061,-0.012l0.032,-0.006l0.03,-0.006l0.031,-0.006l0.032,-0.005l0.031,-0.005l0.031,-0.004l0.031,-0.005l0.031,-0.004l0.031,-0.003l0.032,-0.004l0.031,-0.003l0.032,-0.002l0.032,-0.002l0.032,-0.001l0.032,-0.001l0.027,0l0.027,0l0.026,0.002l0.026,0.004l0.026,0.004l0.026,0.007l0.025,0.007l0.025,0.01l0.025,0.01l0.023,0.012l0.023,0.013l0.022,0.014l0.022,0.016l0.02,0.016l0.02,0.018l0.019,0.019l0.017,0.02l0.017,0.02l0.015,0.022l0.014,0.022l0.013,0.024l0.011,0.023l0.01,0.025l0.009,0.025l0.007,0.025l0.006,0.026l0.005,0.026l0.003,0.026l0.002,0.027l0,0.026l-0.001,0.027l-0.003,0.026l-0.004,0.026l-0.006,0.026l-0.007,0.025l-0.008,0.026l-0.01,0.024l-0.011,0.024l-0.012,0.023l-0.014,0.023l-0.015,0.022l-0.016,0.021l-0.017,0.02l-0.019,0.019l-0.019,0.018l-0.02,0.017l-0.021,0.016l-0.022,0.015l-0.023,0.013l-0.024,0.012l-0.024,0.011l-0.025,0.009l-0.025,0.009l-0.025,0.006l-0.026,0.005l-0.027,0.004l-0.026,0.003l-0.026,0.001l-0.019,0l-0.014,0l-0.016,0.001l-0.017,0.001l-0.017,0.001l-0.018,0.002l-0.02,0.002l-0.019,0.002l-0.021,0.003l-0.021,0.003l-0.022,0.003l-0.023,0.004l-0.023,0.003l-0.023,0.005l-0.024,0.004l-0.024,0.005l-0.051,0.01l-0.053,0.011l-0.053,0.012l-0.055,0.013l-0.056,0.013l-0.057,0.014l-0.118,0.028l-0.119,0.029l-0.06,0.015l-0.061,0.014l-0.061,0.014l-0.062,0.014l-0.062,0.013l-0.061,0.013l-0.031,0.006l-0.031,0.005l-0.031,0.006l-0.031,0.005l-0.032,0.005l-0.031,0.005l-0.031,0.004l-0.031,0.004l-0.032,0.004l-0.031,0.003l-0.032,0.003l-0.032,0.002l-0.031,0.002l-0.032,0.002l-0.033,0.001l-0.031,0l-0.042,0l-0.04,-0.001l-0.04,-0.001l-0.04,-0.002l-0.039,-0.002l-0.039,-0.003l-0.038,-0.003l-0.037,-0.004l-0.038,-0.004l-0.037,-0.004l-0.036,-0.005l-0.036,-0.005l-0.035,-0.005l-0.036,-0.006l-0.034,-0.005l-0.034,-0.007l-0.034,-0.006l-0.034,-0.006l-0.032,-0.007l-0.033,-0.007l-0.032,-0.007l-0.033,-0.007l-0.061,-0.014l-0.061,-0.015l-0.06,-0.015l-0.115,-0.029l-0.057,-0.015l-0.055,-0.014l-0.054,-0.013l-0.054,-0.013l-0.054,-0.012l-0.026,-0.006l-0.026,-0.006l-0.026,-0.005l-0.026,-0.005l-0.026,-0.005l-0.027,-0.005l-0.026,-0.005l-0.026,-0.004l-0.026,-0.004l-0.026,-0.004l-0.027,-0.004l-0.026,-0.003l-0.026,-0.003l-0.027,-0.003l-0.027,-0.002l-0.027,-0.002l-0.028,-0.002l-0.027,-0.002l-0.028,-0.001l-0.028,-0.001l-0.029,0l-0.032,0l-0.026,-0.001l-0.027,-0.002l-0.026,-0.004l-0.026,-0.005l-0.025,-0.007l-0.026,-0.008l-0.024,-0.009l-0.024,-0.011l-0.024,-0.012l-0.023,-0.014l-0.022,-0.014l-0.021,-0.016l-0.021,-0.017l-0.019,-0.018l-0.018,-0.019l-0.018,-0.02l-0.016,-0.021l-0.015,-0.022l-0.013,-0.022l-0.013,-0.024l-0.011,-0.023l-0.01,-0.025l-0.008,-0.025l-0.007,-0.026l-0.006,-0.025l-0.004,-0.027l-0.003,-0.026l-0.002,-0.026l0.001,-0.027l0.001,-0.026l0.003,-0.026l0.005,-0.026l0.006,-0.026l0.007,-0.026l0.009,-0.025l0.01,-0.024l0.011,-0.024l0.013,-0.023l0.014,-0.023l0.015,-0.021l0.016,-0.021l0.018,-0.02l0.018,-0.019l0.02,-0.018l0.02,-0.016l0.022,-0.016l0.022,-0.014l0.023,-0.014l0.023,-0.011l0.025,-0.011l0.025,-0.009l0.025,-0.008l0.025,-0.006l0.026,-0.005l0.027,-0.004l0.026,-0.002l0.026,0l0.039,0Z" style="fill:#000;"/><path d="M29.178,33.657l0.027,0.002l0.026,0.003l3.674,0.511l0.027,0.004l0.025,0.006l0.026,0.007l0.025,0.009l0.024,0.01l0.024,0.011l0.024,0.013l0.022,0.013l0.022,0.016l0.021,0.016l0.02,0.017l0.019,0.019l0.017,0.019l0.017,0.021l0.016,0.021l0.014,0.022l0.014,0.023l0.012,0.024l0.01,0.024l0.009,0.025l0.008,0.025l0.007,0.025l0.005,0.026l0.003,0.027l0.003,0.026l0,0.026l0,0.027l-0.003,0.026l-0.003,0.026l-0.005,0.026l-0.007,0.026l-0.008,0.025l-0.009,0.025l-0.011,0.024l-0.012,0.024l-0.013,0.023l-0.014,0.022l-0.016,0.021l-0.017,0.021l-0.018,0.019l-0.019,0.018l-0.02,0.018l-0.021,0.016l-0.021,0.015l-0.023,0.014l-0.023,0.013l-0.024,0.011l-0.025,0.01l-0.025,0.008l-0.025,0.008l-0.026,0.005l-0.026,0.005l-0.026,0.003l-0.027,0.001l-0.026,0l-0.027,-0.001l-0.026,-0.003l-3.674,-0.511l-0.026,-0.005l-0.026,-0.006l-0.025,-0.007l-0.025,-0.008l-0.025,-0.01l-0.024,-0.012l-0.023,-0.012l-0.023,-0.014l-0.021,-0.015l-0.021,-0.017l-0.02,-0.017l-0.019,-0.018l-0.018,-0.02l-0.017,-0.02l-0.016,-0.022l-0.014,-0.022l-0.013,-0.023l-0.012,-0.023l-0.011,-0.024l-0.009,-0.025l-0.008,-0.025l-0.006,-0.026l-0.005,-0.026l-0.004,-0.026l-0.002,-0.027l-0.001,-0.026l0.001,-0.027l0.002,-0.026l0.004,-0.026l0.005,-0.026l0.006,-0.026l0.008,-0.025l0.009,-0.025l0.011,-0.024l0.012,-0.024l0.013,-0.022l0.015,-0.023l0.015,-0.021l0.017,-0.02l0.018,-0.02l0.019,-0.018l0.02,-0.018l0.021,-0.016l0.022,-0.015l0.022,-0.014l0.023,-0.012l0.024,-0.012l0.025,-0.009l0.025,-0.009l0.025,-0.007l0.026,-0.006l0.026,-0.004l0.027,-0.003l0.026,-0.002l0.026,0Z" style="fill:#000;"/><path d="M47.993,33.712l0.026,0.002l0.027,0.004l0.026,0.005l0.025,0.006l0.026,0.008l0.024,0.01l0.024,0.01l0.024,0.012l0.023,0.014l0.022,0.014l0.021,0.016l0.021,0.017l0.019,0.018l0.019,0.018l0.017,0.02l0.016,0.021l0.015,0.022l0.014,0.023l0.013,0.023l0.011,0.024l0.01,0.024l0.008,0.025l0.008,0.026l0.005,0.026l0.005,0.026l0.002,0.026l0.002,0.027l0,0.026l-0.002,0.026l-0.003,0.027l-0.004,0.026l-0.006,0.026l-0.007,0.025l-0.009,0.025l-0.01,0.025l-0.011,0.023l-0.013,0.024l-0.013,0.022l-0.016,0.022l-0.016,0.021l-0.017,0.02l-0.019,0.019l-0.019,0.018l-0.021,0.016l-0.021,0.016l-0.022,0.014l-0.023,0.014l-0.024,0.011l-0.024,0.011l-0.025,0.009l-0.025,0.008l-0.026,0.007l-0.026,0.005l-0.026,0.003l-3.688,0.403l-0.026,0.003l-0.026,0l-0.027,-0.001l-0.026,-0.002l-0.026,-0.003l-0.026,-0.006l-0.026,-0.006l-0.025,-0.008l-0.025,-0.009l-0.024,-0.011l-0.024,-0.012l-0.023,-0.013l-0.022,-0.015l-0.021,-0.015l-0.02,-0.017l-0.02,-0.018l-0.018,-0.019l-0.018,-0.02l-0.016,-0.021l-0.015,-0.022l-0.014,-0.022l-0.012,-0.024l-0.012,-0.024l-0.009,-0.024l-0.009,-0.025l-0.007,-0.026l-0.006,-0.025l-0.004,-0.027l-0.003,-0.026l-0.002,-0.026l0.001,-0.027l0.001,-0.026l0.003,-0.026l0.004,-0.026l0.006,-0.026l0.007,-0.026l0.009,-0.025l0.01,-0.024l0.011,-0.024l0.013,-0.023l0.014,-0.023l0.015,-0.022l0.016,-0.02l0.018,-0.02l0.018,-0.019l0.02,-0.018l0.02,-0.017l0.021,-0.016l0.023,-0.014l0.022,-0.013l0.024,-0.012l0.024,-0.011l0.025,-0.009l0.025,-0.008l0.026,-0.006l0.026,-0.005l0.026,-0.004l3.688,-0.403l0.026,-0.002l0.027,-0.001l0.026,0.001Z" style="fill:#000;"/><defs><linearGradient id="_Linear2" x1="0" y1="0" x2="1" y2="0" gradientUnits="userSpaceOnUse" gradientTransform="matrix(77.5828,0,0,77.3972,0.452811,0.600936)"><stop offset="0%" style="stop-color:#f93;stop-opacity:1"/><stop offset="100%" style="stop-color:#f60;stop-opacity:1"/></linearGradient></defs></svg>