<?xml version="1.0" encoding="UTF-8" standalone="no"?><!DOCTYPE svg PUBLIC "-//W3C//DTD SVG 1.1//EN" "http://www.w3.org/Graphics/SVG/1.1/DTD/svg11.dtd"><svg width="100%" height="100%" viewBox="0 0 528 60" version="1.1" xmlns="http://www.w3.org/2000/svg" xmlns:xlink="http://www.w3.org/1999/xlink" xml:space="preserve" xmlns:serif="http://www.serif.com/" style="fill-rule:evenodd;clip-rule:evenodd;stroke-linejoin:round;stroke-miterlimit:1.41421;"><g><g><path d="M173.548,11.603l0,18.385l-4.179,0l0,-12.412l-1.669,12.412l-2.964,0l-1.76,-12.128l0,12.128l-4.179,0l0,-18.385l6.189,0c0.181,1.106 0.374,2.408 0.579,3.907l0.658,4.678l1.09,-8.585l6.235,0Z" style="fill-rule:nonzero;"/><path d="M185.834,14.919l0,15.069l-4.667,0l0.08,-1.249c-0.318,0.507 -0.71,0.888 -1.176,1.141c-0.465,0.254 -1.001,0.381 -1.606,0.381c-0.689,0 -1.261,-0.122 -1.715,-0.364c-0.454,-0.242 -0.789,-0.564 -1.005,-0.965c-0.216,-0.401 -0.35,-0.82 -0.403,-1.255c-0.053,-0.435 -0.08,-1.3 -0.08,-2.595l0,-10.163l4.588,0l0,10.254c0,1.174 0.036,1.87 0.108,2.09c0.072,0.219 0.267,0.329 0.585,0.329c0.34,0 0.543,-0.114 0.607,-0.341c0.064,-0.227 0.097,-0.957 0.097,-2.191l0,-10.141l4.587,0Z" style="fill-rule:nonzero;"/><path d="M196.849,19.734l-4.065,0l0,-0.818c0,-0.696 -0.04,-1.137 -0.119,-1.322c-0.08,-0.186 -0.279,-0.279 -0.597,-0.279c-0.257,0 -0.45,0.085 -0.579,0.256c-0.128,0.17 -0.193,0.426 -0.193,0.766c0,0.462 0.032,0.801 0.097,1.017c0.064,0.215 0.257,0.452 0.579,0.709c0.322,0.258 0.982,0.632 1.981,1.125c1.333,0.651 2.207,1.264 2.624,1.839c0.416,0.575 0.624,1.412 0.624,2.51c0,1.226 -0.159,2.152 -0.477,2.776c-0.318,0.625 -0.85,1.105 -1.595,1.442c-0.746,0.337 -1.645,0.506 -2.697,0.506c-1.166,0 -2.163,-0.182 -2.992,-0.546c-0.829,-0.363 -1.399,-0.855 -1.709,-1.476c-0.311,-0.621 -0.466,-1.559 -0.466,-2.816l0,-0.727l4.065,0l0,0.954c0,0.81 0.051,1.336 0.154,1.579c0.102,0.242 0.304,0.363 0.607,0.363c0.326,0 0.553,-0.081 0.681,-0.244c0.129,-0.163 0.193,-0.505 0.193,-1.028c0,-0.719 -0.083,-1.169 -0.249,-1.351c-0.174,-0.182 -1.064,-0.719 -2.669,-1.613c-1.347,-0.757 -2.169,-1.444 -2.464,-2.061c-0.295,-0.617 -0.443,-1.349 -0.443,-2.197c0,-1.204 0.159,-2.091 0.477,-2.663c0.318,-0.571 0.857,-1.012 1.618,-1.323c0.761,-0.31 1.645,-0.465 2.652,-0.465c0.999,0 1.849,0.127 2.549,0.38c0.7,0.254 1.238,0.589 1.612,1.005c0.375,0.416 0.602,0.803 0.682,1.158c0.079,0.356 0.119,0.913 0.119,1.67l0,0.874Z" style="fill-rule:nonzero;"/><path d="M208.818,22.721l-5.939,0l0,3.259c0,0.681 0.049,1.12 0.147,1.317c0.099,0.197 0.288,0.295 0.568,0.295c0.348,0 0.581,-0.131 0.699,-0.392c0.117,-0.261 0.176,-0.766 0.176,-1.516l0,-1.987l4.349,0l0,1.113c0,0.931 -0.059,1.646 -0.176,2.146c-0.118,0.5 -0.392,1.033 -0.824,1.601c-0.431,0.568 -0.978,0.994 -1.64,1.278c-0.663,0.284 -1.494,0.426 -2.493,0.426c-0.969,0 -1.824,-0.141 -2.566,-0.421c-0.742,-0.28 -1.319,-0.664 -1.732,-1.152c-0.413,-0.488 -0.698,-1.026 -0.857,-1.613c-0.159,-0.586 -0.239,-1.44 -0.239,-2.56l0,-4.395c0,-1.317 0.178,-2.356 0.534,-3.117c0.356,-0.761 0.939,-1.344 1.749,-1.749c0.81,-0.405 1.741,-0.607 2.793,-0.607c1.287,0 2.349,0.244 3.185,0.732c0.837,0.488 1.424,1.136 1.76,1.942c0.337,0.806 0.506,1.94 0.506,3.401l0,1.999Zm-4.599,-2.453l0,-1.102c0,-0.78 -0.042,-1.283 -0.125,-1.51c-0.083,-0.227 -0.254,-0.341 -0.511,-0.341c-0.318,0 -0.515,0.097 -0.591,0.29c-0.075,0.193 -0.113,0.713 -0.113,1.561l0,1.102l1.34,0Z" style="fill-rule:nonzero;"/><path d="M220.696,20.211l0,3.69c0,1.356 -0.069,2.349 -0.205,2.981c-0.136,0.632 -0.428,1.223 -0.874,1.772c-0.447,0.549 -1.02,0.954 -1.721,1.215c-0.7,0.261 -1.504,0.392 -2.413,0.392c-1.014,0 -1.873,-0.112 -2.577,-0.335c-0.704,-0.224 -1.251,-0.561 -1.641,-1.011c-0.39,-0.451 -0.668,-0.996 -0.835,-1.635c-0.166,-0.64 -0.25,-1.6 -0.25,-2.879l0,-3.861c0,-1.4 0.152,-2.494 0.455,-3.281c0.302,-0.788 0.847,-1.42 1.635,-1.897c0.787,-0.477 1.794,-0.715 3.02,-0.715c1.03,0 1.914,0.153 2.652,0.46c0.738,0.306 1.308,0.706 1.709,1.198c0.401,0.492 0.675,0.999 0.823,1.521c0.148,0.523 0.222,1.318 0.222,2.385Zm-4.588,-1.136c0,-0.772 -0.042,-1.258 -0.125,-1.459c-0.083,-0.2 -0.261,-0.301 -0.534,-0.301c-0.272,0 -0.454,0.101 -0.545,0.301c-0.091,0.201 -0.136,0.687 -0.136,1.459l0,6.802c0,0.712 0.045,1.176 0.136,1.391c0.091,0.216 0.269,0.324 0.534,0.324c0.272,0 0.452,-0.098 0.539,-0.295c0.087,-0.197 0.131,-0.621 0.131,-1.272l0,-6.95Z" style="fill-rule:nonzero;"/><path d="M234.697,11.603l2.736,18.385l-4.894,0l-0.238,-3.304l-1.715,0l-0.284,3.304l-4.951,0l2.43,-18.385l6.916,0Zm-2.532,11.822c-0.243,-2.082 -0.485,-4.652 -0.727,-7.711c-0.485,3.513 -0.788,6.083 -0.909,7.711l1.636,0Z" style="fill-rule:nonzero;"/><path d="M242.702,14.919l-0.181,1.976c0.666,-1.416 1.631,-2.165 2.895,-2.248l0,5.303c-0.84,0 -1.457,0.113 -1.851,0.34c-0.393,0.228 -0.635,0.544 -0.726,0.949c-0.091,0.405 -0.137,1.338 -0.137,2.799l0,5.95l-4.587,0l0,-15.069l4.587,0Z" style="fill-rule:nonzero;"/></g><g><path d="M251.696,12.909l0,2.374l1.238,0l0,2.384l-1.238,0l0,8.063c0,0.991 0.051,1.544 0.153,1.658c0.103,0.113 0.528,0.17 1.278,0.17l0,2.43l-1.851,0c-1.045,0 -1.791,-0.044 -2.237,-0.131c-0.447,-0.087 -0.84,-0.287 -1.181,-0.601c-0.341,-0.315 -0.553,-0.674 -0.636,-1.079c-0.083,-0.405 -0.125,-1.357 -0.125,-2.856l0,-7.654l-0.988,0l0,-2.384l0.988,0l0,-2.374l4.599,0Z" style="fill-rule:nonzero;"/><path d="M264.335,22.721l-5.939,0l0,3.259c0,0.681 0.049,1.12 0.147,1.317c0.099,0.197 0.288,0.295 0.568,0.295c0.348,0 0.581,-0.131 0.699,-0.392c0.117,-0.261 0.176,-0.766 0.176,-1.516l0,-1.987l4.349,0l0,1.113c0,0.931 -0.059,1.646 -0.176,2.146c-0.118,0.5 -0.392,1.033 -0.824,1.601c-0.431,0.568 -0.978,0.994 -1.64,1.278c-0.663,0.284 -1.494,0.426 -2.493,0.426c-0.969,0 -1.824,-0.141 -2.566,-0.421c-0.742,-0.28 -1.319,-0.664 -1.732,-1.152c-0.413,-0.488 -0.698,-1.026 -0.857,-1.613c-0.159,-0.586 -0.239,-1.44 -0.239,-2.56l0,-4.395c0,-1.317 0.178,-2.356 0.534,-3.117c0.356,-0.761 0.939,-1.344 1.749,-1.749c0.81,-0.405 1.741,-0.607 2.793,-0.607c1.287,0 2.349,0.244 3.185,0.732c0.837,0.488 1.423,1.136 1.76,1.942c0.337,0.806 0.506,1.94 0.506,3.401l0,1.999Zm-4.599,-2.453l0,-1.102c0,-0.78 -0.042,-1.283 -0.125,-1.51c-0.083,-0.227 -0.254,-0.341 -0.511,-0.341c-0.318,0 -0.515,0.097 -0.591,0.29c-0.075,0.193 -0.113,0.713 -0.113,1.561l0,1.102l1.34,0Z" style="fill-rule:nonzero;"/><path d="M279.54,14.919l-1.318,10.902c-0.204,1.726 -0.376,2.903 -0.516,3.531c-0.14,0.628 -0.373,1.147 -0.699,1.556c-0.325,0.409 -0.777,0.71 -1.357,0.903c-0.579,0.193 -1.504,0.289 -2.776,0.289l-2.782,0l0,-2.407c0.711,0 1.169,-0.036 1.374,-0.108c0.204,-0.072 0.306,-0.233 0.306,-0.483c0,-0.121 -0.094,-0.647 -0.283,-1.578l-2.51,-12.605l4.168,0l1.498,10.163l0.727,-10.163l4.168,0Z" style="fill-rule:nonzero;"/><path d="M295.755,19.62l-4.78,0l0,-3.202c0,-0.931 -0.052,-1.512 -0.154,-1.743c-0.102,-0.231 -0.327,-0.346 -0.675,-0.346c-0.394,0 -0.644,0.14 -0.75,0.42c-0.106,0.28 -0.159,0.886 -0.159,1.817l0,8.539c0,0.893 0.053,1.476 0.159,1.749c0.106,0.272 0.345,0.409 0.716,0.409c0.355,0 0.588,-0.137 0.698,-0.409c0.11,-0.273 0.165,-0.912 0.165,-1.919l0,-2.305l4.78,0l0,0.715c0,1.9 -0.134,3.248 -0.403,4.043c-0.269,0.794 -0.863,1.491 -1.783,2.089c-0.919,0.598 -2.053,0.897 -3.401,0.897c-1.4,0 -2.555,-0.254 -3.463,-0.761c-0.909,-0.507 -1.51,-1.209 -1.806,-2.106c-0.295,-0.897 -0.442,-2.247 -0.442,-4.048l0,-5.372c0,-1.324 0.045,-2.318 0.136,-2.98c0.091,-0.663 0.361,-1.301 0.812,-1.914c0.45,-0.613 1.075,-1.096 1.873,-1.448c0.799,-0.352 1.717,-0.528 2.754,-0.528c1.408,0 2.57,0.273 3.486,0.818c0.916,0.545 1.518,1.225 1.806,2.038c0.287,0.814 0.431,2.08 0.431,3.799l0,1.748Z" style="fill-rule:nonzero;"/><path d="M302.058,11.603l0,2.396l-4.724,0.001l0,-2.397l4.724,0Zm0,3.316l0,15.069l-4.724,0l0,-15.069l4.724,0Z" style="fill-rule:nonzero;"/><path d="M314.208,14.919l0,15.069l-4.667,0l0.079,-1.249c-0.318,0.507 -0.709,0.888 -1.175,1.141c-0.466,0.254 -1.001,0.381 -1.607,0.381c-0.689,0 -1.26,-0.122 -1.714,-0.364c-0.455,-0.242 -0.79,-0.564 -1.005,-0.965c-0.216,-0.401 -0.351,-0.82 -0.404,-1.255c-0.053,-0.435 -0.079,-1.3 -0.079,-2.595l0,-10.163l4.588,0l0,10.254c0,1.174 0.036,1.87 0.107,2.09c0.072,0.219 0.267,0.329 0.585,0.329c0.341,0 0.543,-0.114 0.608,-0.341c0.064,-0.227 0.096,-0.957 0.096,-2.191l0,-10.141l4.588,0Z" style="fill-rule:nonzero;"/><path d="M326.29,11.603l0,18.385l-4.588,0l0,-1.09c-0.439,0.454 -0.9,0.795 -1.385,1.022c-0.484,0.227 -0.992,0.341 -1.522,0.341c-0.711,0 -1.328,-0.188 -1.85,-0.563c-0.523,-0.374 -0.858,-0.808 -1.005,-1.3c-0.148,-0.492 -0.222,-1.294 -0.222,-2.407l0,-7.052c0,-1.158 0.074,-1.98 0.222,-2.464c0.147,-0.485 0.486,-0.91 1.016,-1.277c0.53,-0.368 1.162,-0.551 1.896,-0.551c0.568,0 1.088,0.102 1.562,0.306c0.473,0.205 0.902,0.511 1.288,0.92l0,-4.27l4.588,0Zm-4.588,7.109c0,-0.553 -0.047,-0.924 -0.141,-1.113c-0.095,-0.189 -0.282,-0.284 -0.563,-0.284c-0.272,0 -0.456,0.085 -0.55,0.256c-0.095,0.17 -0.142,0.551 -0.142,1.141l0,7.381c0,0.613 0.045,1.016 0.136,1.209c0.091,0.193 0.265,0.29 0.522,0.29c0.296,0 0.492,-0.108 0.591,-0.324c0.098,-0.215 0.147,-0.743 0.147,-1.584l0,-6.972Z" style="fill-rule:nonzero;"/><path d="M332.036,20.756l-4.304,0l0,-1.011c0,-1.165 0.135,-2.064 0.403,-2.697c0.269,-0.632 0.808,-1.19 1.619,-1.674c0.81,-0.485 1.862,-0.727 3.156,-0.727c1.552,0 2.722,0.274 3.509,0.823c0.787,0.549 1.261,1.223 1.42,2.021c0.159,0.799 0.238,2.444 0.238,4.934l0,7.563l-4.463,0l0,-1.34c-0.28,0.538 -0.641,0.941 -1.084,1.209c-0.443,0.269 -0.971,0.404 -1.584,0.404c-0.803,0 -1.539,-0.226 -2.209,-0.676c-0.67,-0.451 -1.005,-1.437 -1.005,-2.958l0,-1.238c0,-1.128 0.178,-1.896 0.534,-2.305c0.356,-0.409 1.238,-0.886 2.646,-1.431c1.506,-0.59 2.313,-0.988 2.418,-1.192c0.106,-0.205 0.159,-0.621 0.159,-1.249c0,-0.788 -0.058,-1.301 -0.176,-1.539c-0.117,-0.238 -0.312,-0.358 -0.584,-0.358c-0.311,0 -0.504,0.101 -0.579,0.301c-0.076,0.201 -0.114,0.721 -0.114,1.562l0,1.578Zm1.453,2.067c-0.734,0.537 -1.16,0.988 -1.277,1.351c-0.117,0.363 -0.176,0.886 -0.176,1.567c0,0.78 0.051,1.283 0.153,1.51c0.102,0.227 0.305,0.341 0.608,0.341c0.287,0 0.475,-0.089 0.562,-0.267c0.087,-0.178 0.13,-0.645 0.13,-1.402l0,-3.1Z" style="fill-rule:nonzero;"/><path d="M350.091,11.603l0,18.385l-4.587,0l0,-1.09c-0.44,0.454 -0.901,0.795 -1.386,1.022c-0.484,0.227 -0.992,0.341 -1.521,0.341c-0.712,0 -1.329,-0.188 -1.851,-0.563c-0.523,-0.374 -0.858,-0.808 -1.005,-1.3c-0.148,-0.492 -0.222,-1.294 -0.222,-2.407l0,-7.052c0,-1.158 0.074,-1.98 0.222,-2.464c0.147,-0.485 0.486,-0.91 1.016,-1.277c0.53,-0.368 1.162,-0.551 1.896,-0.551c0.568,0 1.089,0.102 1.562,0.306c0.473,0.205 0.902,0.511 1.289,0.92l0,-4.27l4.587,0Zm-4.587,7.109c0,-0.553 -0.048,-0.924 -0.142,-1.113c-0.095,-0.189 -0.282,-0.284 -0.562,-0.284c-0.273,0 -0.457,0.085 -0.551,0.256c-0.095,0.17 -0.142,0.551 -0.142,1.141l0,7.381c0,0.613 0.045,1.016 0.136,1.209c0.091,0.193 0.265,0.29 0.522,0.29c0.296,0 0.493,-0.108 0.591,-0.324c0.098,-0.215 0.148,-0.743 0.148,-1.584l0,-6.972Z" style="fill-rule:nonzero;"/></g></g><g><path d="M177.318,42.379l-4.454,0l0,2.445c0,0.511 0.037,0.84 0.11,0.988c0.074,0.147 0.216,0.221 0.426,0.221c0.261,0 0.436,-0.098 0.524,-0.294c0.088,-0.196 0.132,-0.575 0.132,-1.137l0,-1.49l3.262,0l0,0.834c0,0.699 -0.044,1.235 -0.132,1.61c-0.088,0.375 -0.294,0.775 -0.618,1.201c-0.323,0.426 -0.733,0.745 -1.23,0.958c-0.497,0.213 -1.12,0.319 -1.87,0.319c-0.726,0 -1.368,-0.105 -1.924,-0.315c-0.557,-0.21 -0.99,-0.498 -1.299,-0.864c-0.31,-0.366 -0.524,-0.769 -0.643,-1.21c-0.119,-0.44 -0.179,-1.08 -0.179,-1.92l0,-3.296c0,-0.988 0.133,-1.767 0.4,-2.338c0.267,-0.57 0.704,-1.008 1.312,-1.311c0.607,-0.304 1.306,-0.456 2.095,-0.456c0.965,0 1.761,0.183 2.389,0.549c0.627,0.367 1.067,0.852 1.32,1.457c0.253,0.604 0.379,1.455 0.379,2.55l0,1.499Zm-3.449,-1.839l0,-0.826c0,-0.585 -0.032,-0.963 -0.094,-1.133c-0.062,-0.17 -0.19,-0.256 -0.383,-0.256c-0.239,0 -0.386,0.073 -0.443,0.218c-0.057,0.144 -0.085,0.535 -0.085,1.171l0,0.826l1.005,0Z" style="fill-opacity:0.247059;fill-rule:nonzero;"/><path d="M181.942,36.528l-0.059,1.039c0.25,-0.414 0.555,-0.725 0.915,-0.932c0.361,-0.207 0.777,-0.311 1.248,-0.311c0.59,0 1.073,0.139 1.448,0.417c0.375,0.279 0.616,0.629 0.724,1.052c0.108,0.423 0.162,1.129 0.162,2.117l0,7.92l-3.441,0l0,-7.827c0,-0.778 -0.026,-1.252 -0.077,-1.422c-0.051,-0.17 -0.193,-0.256 -0.426,-0.256c-0.244,0 -0.397,0.098 -0.46,0.294c-0.062,0.196 -0.093,0.72 -0.093,1.572l0,7.639l-3.441,0l0,-11.302l3.5,0Z" style="fill-opacity:0.247059;fill-rule:nonzero;"/><rect x="190.638" y="34.042" width="3.543" height="13.788" style="fill-opacity:0.247059;fill-rule:nonzero;"/><path d="M203.2,40.497l0,2.768c0,1.016 -0.051,1.762 -0.153,2.236c-0.103,0.474 -0.321,0.917 -0.656,1.328c-0.335,0.412 -0.765,0.716 -1.291,0.912c-0.525,0.195 -1.128,0.293 -1.809,0.293c-0.761,0 -1.406,-0.083 -1.934,-0.251c-0.528,-0.167 -0.938,-0.42 -1.23,-0.758c-0.293,-0.338 -0.501,-0.746 -0.626,-1.226c-0.125,-0.48 -0.188,-1.2 -0.188,-2.159l0,-2.896c0,-1.05 0.114,-1.871 0.341,-2.461c0.227,-0.591 0.636,-1.065 1.227,-1.422c0.59,-0.358 1.345,-0.537 2.265,-0.537c0.772,0 1.435,0.115 1.989,0.345c0.553,0.23 0.98,0.529 1.281,0.898c0.301,0.37 0.507,0.75 0.618,1.142c0.11,0.391 0.166,0.988 0.166,1.788Zm-3.441,-0.851c0,-0.58 -0.031,-0.944 -0.094,-1.095c-0.062,-0.15 -0.195,-0.226 -0.4,-0.226c-0.204,0 -0.34,0.076 -0.409,0.226c-0.068,0.151 -0.102,0.515 -0.102,1.095l0,5.101c0,0.534 0.034,0.881 0.102,1.043c0.069,0.162 0.202,0.243 0.401,0.243c0.204,0 0.339,-0.074 0.404,-0.221c0.065,-0.148 0.098,-0.466 0.098,-0.954l0,-5.212Z" style="fill-opacity:0.247059;fill-rule:nonzero;"/><path d="M211.359,40.14l-3.049,0l0,-0.614c0,-0.522 -0.03,-0.853 -0.09,-0.992c-0.059,-0.139 -0.208,-0.209 -0.447,-0.209c-0.193,0 -0.338,0.064 -0.434,0.192c-0.097,0.128 -0.145,0.319 -0.145,0.575c0,0.346 0.024,0.6 0.073,0.762c0.048,0.162 0.193,0.339 0.434,0.532c0.241,0.194 0.737,0.475 1.486,0.844c0.999,0.488 1.655,0.948 1.967,1.379c0.313,0.432 0.469,1.059 0.469,1.882c0,0.92 -0.119,1.614 -0.358,2.083c-0.238,0.468 -0.637,0.829 -1.197,1.081c-0.559,0.253 -1.233,0.379 -2.022,0.379c-0.875,0 -1.623,-0.136 -2.244,-0.408c-0.622,-0.273 -1.049,-0.642 -1.282,-1.108c-0.233,-0.465 -0.349,-1.169 -0.349,-2.112l0,-0.545l3.049,0l0,0.716c0,0.607 0.038,1.002 0.115,1.183c0.076,0.182 0.228,0.273 0.455,0.273c0.244,0 0.415,-0.061 0.511,-0.183c0.097,-0.122 0.145,-0.379 0.145,-0.771c0,-0.539 -0.062,-0.877 -0.187,-1.013c-0.131,-0.137 -0.798,-0.54 -2.002,-1.21c-1.01,-0.567 -1.626,-1.083 -1.848,-1.545c-0.221,-0.463 -0.332,-1.013 -0.332,-1.648c0,-0.903 0.119,-1.569 0.358,-1.998c0.238,-0.428 0.643,-0.759 1.213,-0.992c0.571,-0.233 1.234,-0.349 1.989,-0.349c0.749,0 1.387,0.095 1.912,0.285c0.525,0.191 0.928,0.442 1.209,0.754c0.281,0.312 0.452,0.602 0.511,0.869c0.06,0.267 0.09,0.684 0.09,1.252l0,0.656Z" style="fill-opacity:0.247059;fill-rule:nonzero;"/><path d="M219.015,36.528l-0.059,1.074c0.266,-0.426 0.584,-0.746 0.953,-0.959c0.369,-0.212 0.79,-0.319 1.261,-0.319c0.92,0 1.644,0.426 2.172,1.278c0.289,-0.426 0.616,-0.746 0.979,-0.959c0.363,-0.212 0.767,-0.319 1.209,-0.319c0.585,0 1.069,0.142 1.452,0.426c0.384,0.284 0.629,0.632 0.737,1.043c0.108,0.412 0.162,1.08 0.162,2.006l0,8.031l-3.339,0l0,-7.367c0,-0.965 -0.032,-1.563 -0.097,-1.793c-0.066,-0.23 -0.218,-0.345 -0.456,-0.345c-0.244,0 -0.402,0.114 -0.473,0.341c-0.071,0.227 -0.106,0.826 -0.106,1.797l0,7.367l-3.339,0l0,-7.179c0,-1.108 -0.027,-1.772 -0.081,-1.993c-0.054,-0.222 -0.203,-0.333 -0.447,-0.333c-0.153,0 -0.284,0.059 -0.392,0.175c-0.107,0.116 -0.167,0.258 -0.178,0.426c-0.012,0.167 -0.017,0.524 -0.017,1.069l0,7.835l-3.339,0l0,-11.302l3.398,0Z" style="fill-opacity:0.247059;fill-rule:nonzero;"/><path d="M236.857,42.379l-4.454,0l0,2.445c0,0.511 0.037,0.84 0.111,0.988c0.074,0.147 0.216,0.221 0.426,0.221c0.261,0 0.436,-0.098 0.524,-0.294c0.088,-0.196 0.132,-0.575 0.132,-1.137l0,-1.49l3.261,0l0,0.834c0,0.699 -0.044,1.235 -0.132,1.61c-0.088,0.375 -0.293,0.775 -0.617,1.201c-0.324,0.426 -0.734,0.745 -1.231,0.958c-0.496,0.213 -1.12,0.319 -1.869,0.319c-0.727,0 -1.368,-0.105 -1.925,-0.315c-0.556,-0.21 -0.989,-0.498 -1.299,-0.864c-0.309,-0.366 -0.523,-0.769 -0.643,-1.21c-0.119,-0.44 -0.178,-1.08 -0.178,-1.92l0,-3.296c0,-0.988 0.133,-1.767 0.4,-2.338c0.267,-0.57 0.704,-1.008 1.311,-1.311c0.608,-0.304 1.306,-0.456 2.095,-0.456c0.966,0 1.762,0.183 2.389,0.549c0.628,0.367 1.068,0.852 1.32,1.457c0.253,0.604 0.379,1.455 0.379,2.55l0,1.499Zm-3.449,-1.839l0,-0.826c0,-0.585 -0.031,-0.963 -0.093,-1.133c-0.063,-0.17 -0.191,-0.256 -0.384,-0.256c-0.238,0 -0.386,0.073 -0.443,0.218c-0.056,0.144 -0.085,0.535 -0.085,1.171l0,0.826l1.005,0Z" style="fill-opacity:0.247059;fill-rule:nonzero;"/><path d="M245.808,34.042l0,13.788l-3.44,0l0,-0.818c-0.33,0.341 -0.676,0.597 -1.039,0.767c-0.364,0.17 -0.744,0.255 -1.142,0.255c-0.533,0 -0.996,-0.14 -1.388,-0.421c-0.392,-0.281 -0.643,-0.606 -0.753,-0.975c-0.111,-0.369 -0.167,-0.971 -0.167,-1.806l0,-5.289c0,-0.868 0.056,-1.484 0.167,-1.848c0.11,-0.363 0.364,-0.683 0.762,-0.958c0.397,-0.275 0.871,-0.413 1.422,-0.413c0.426,0 0.816,0.077 1.171,0.23c0.355,0.153 0.677,0.383 0.967,0.69l0,-3.202l3.44,0Zm-3.44,5.331c0,-0.414 -0.036,-0.693 -0.107,-0.835c-0.071,-0.142 -0.211,-0.213 -0.421,-0.213c-0.205,0 -0.342,0.064 -0.413,0.192c-0.071,0.128 -0.107,0.413 -0.107,0.856l0,5.536c0,0.46 0.034,0.762 0.102,0.907c0.068,0.145 0.199,0.217 0.392,0.217c0.222,0 0.369,-0.081 0.443,-0.243c0.074,-0.162 0.111,-0.558 0.111,-1.188l0,-5.229Z" style="fill-opacity:0.247059;fill-rule:nonzero;"/><path d="M250.586,34.042l0,1.797l-3.543,0l0,-1.797l3.543,0Zm0,2.486l0,11.302l-3.543,0l0,-11.302l3.543,0Z" style="fill-opacity:0.247059;fill-rule:nonzero;"/><path d="M259.605,40.497l0,2.768c0,1.016 -0.051,1.762 -0.153,2.236c-0.102,0.474 -0.321,0.917 -0.656,1.328c-0.335,0.412 -0.765,0.716 -1.29,0.912c-0.525,0.195 -1.129,0.293 -1.81,0.293c-0.761,0 -1.405,-0.083 -1.933,-0.251c-0.528,-0.167 -0.938,-0.42 -1.231,-0.758c-0.292,-0.338 -0.501,-0.746 -0.626,-1.226c-0.125,-0.48 -0.187,-1.2 -0.187,-2.159l0,-2.896c0,-1.05 0.113,-1.871 0.341,-2.461c0.227,-0.591 0.635,-1.065 1.226,-1.422c0.59,-0.358 1.346,-0.537 2.265,-0.537c0.773,0 1.435,0.115 1.989,0.345c0.554,0.23 0.981,0.529 1.282,0.898c0.301,0.37 0.507,0.75 0.617,1.142c0.111,0.391 0.166,0.988 0.166,1.788Zm-3.44,-0.851c0,-0.58 -0.032,-0.944 -0.094,-1.095c-0.063,-0.15 -0.196,-0.226 -0.4,-0.226c-0.205,0 -0.341,0.076 -0.409,0.226c-0.068,0.151 -0.102,0.515 -0.102,1.095l0,5.101c0,0.534 0.034,0.881 0.102,1.043c0.068,0.162 0.201,0.243 0.4,0.243c0.205,0 0.339,-0.074 0.405,-0.221c0.065,-0.148 0.098,-0.466 0.098,-0.954l0,-5.212Z" style="fill-opacity:0.247059;fill-rule:nonzero;"/><path d="M267.764,40.14l-3.049,0l0,-0.614c0,-0.522 -0.03,-0.853 -0.089,-0.992c-0.06,-0.139 -0.209,-0.209 -0.447,-0.209c-0.193,0 -0.338,0.064 -0.435,0.192c-0.096,0.128 -0.144,0.319 -0.144,0.575c0,0.346 0.024,0.6 0.072,0.762c0.048,0.162 0.193,0.339 0.434,0.532c0.242,0.194 0.737,0.475 1.486,0.844c1,0.488 1.656,0.948 1.968,1.379c0.312,0.432 0.468,1.059 0.468,1.882c0,0.92 -0.119,1.614 -0.357,2.083c-0.239,0.468 -0.638,0.829 -1.197,1.081c-0.559,0.253 -1.234,0.379 -2.023,0.379c-0.874,0 -1.622,-0.136 -2.244,-0.408c-0.622,-0.273 -1.049,-0.642 -1.282,-1.108c-0.232,-0.465 -0.349,-1.169 -0.349,-2.112l0,-0.545l3.049,0l0,0.716c0,0.607 0.038,1.002 0.115,1.183c0.077,0.182 0.229,0.273 0.456,0.273c0.244,0 0.414,-0.061 0.511,-0.183c0.096,-0.122 0.145,-0.379 0.145,-0.771c0,-0.539 -0.063,-0.877 -0.188,-1.013c-0.13,-0.137 -0.798,-0.54 -2.001,-1.21c-1.011,-0.567 -1.627,-1.083 -1.848,-1.545c-0.222,-0.463 -0.333,-1.013 -0.333,-1.648c0,-0.903 0.12,-1.569 0.358,-1.998c0.239,-0.428 0.643,-0.759 1.214,-0.992c0.57,-0.233 1.233,-0.349 1.988,-0.349c0.75,0 1.387,0.095 1.912,0.285c0.526,0.191 0.929,0.442 1.21,0.754c0.281,0.312 0.451,0.602 0.511,0.869c0.059,0.267 0.089,0.684 0.089,1.252l0,0.656Z" style="fill-opacity:0.247059;fill-rule:nonzero;"/><path d="M275.565,34.042l0,1.797l-3.543,0l0,-1.797l3.543,0Zm0,2.486l0,11.302l-3.543,0l0,-11.302l3.543,0Z" style="fill-opacity:0.247059;fill-rule:nonzero;"/><path d="M280.198,36.528l-0.059,1.074c0.267,-0.426 0.585,-0.746 0.954,-0.959c0.369,-0.212 0.789,-0.319 1.26,-0.319c0.92,0 1.644,0.426 2.172,1.278c0.289,-0.426 0.616,-0.746 0.979,-0.959c0.364,-0.212 0.767,-0.319 1.21,-0.319c0.584,0 1.068,0.142 1.452,0.426c0.383,0.284 0.629,0.632 0.736,1.043c0.108,0.412 0.162,1.08 0.162,2.006l0,8.031l-3.338,0l0,-7.367c0,-0.965 -0.033,-1.563 -0.098,-1.793c-0.066,-0.23 -0.217,-0.345 -0.456,-0.345c-0.244,0 -0.402,0.114 -0.473,0.341c-0.071,0.227 -0.106,0.826 -0.106,1.797l0,7.367l-3.339,0l0,-7.179c0,-1.108 -0.026,-1.772 -0.08,-1.993c-0.054,-0.222 -0.203,-0.333 -0.448,-0.333c-0.153,0 -0.283,0.059 -0.391,0.175c-0.108,0.116 -0.168,0.258 -0.179,0.426c-0.012,0.167 -0.017,0.524 -0.017,1.069l0,7.835l-3.339,0l0,-11.302l3.398,0Z" style="fill-opacity:0.247059;fill-rule:nonzero;"/><path d="M293.748,36.528l-0.059,0.997c0.306,-0.403 0.644,-0.704 1.013,-0.903c0.369,-0.199 0.772,-0.298 1.21,-0.298c0.533,0 0.995,0.143 1.384,0.43c0.388,0.287 0.631,0.618 0.728,0.992c0.096,0.375 0.144,1.011 0.144,1.908l0,4.761c0,1.028 -0.061,1.759 -0.183,2.193c-0.122,0.434 -0.372,0.781 -0.749,1.039c-0.378,0.258 -0.833,0.387 -1.367,0.387c-0.426,0 -0.82,-0.099 -1.184,-0.298c-0.363,-0.198 -0.695,-0.494 -0.996,-0.885l0,2.589l-3.441,0l0,-12.912l3.5,0Zm0.98,3.288c0,-0.698 -0.026,-1.121 -0.077,-1.269c-0.051,-0.148 -0.193,-0.222 -0.426,-0.222c-0.227,0 -0.373,0.086 -0.438,0.256c-0.066,0.17 -0.098,0.582 -0.098,1.235l0,4.684c0,0.681 0.034,1.107 0.102,1.277c0.068,0.171 0.216,0.256 0.443,0.256c0.221,0 0.359,-0.078 0.413,-0.234c0.054,-0.156 0.081,-0.535 0.081,-1.137l0,-4.846Z" style="fill-opacity:0.247059;fill-rule:nonzero;"/><path d="M302.742,36.528l-0.136,1.482c0.499,-1.061 1.223,-1.623 2.171,-1.686l0,3.977c-0.63,0 -1.093,0.085 -1.388,0.256c-0.295,0.17 -0.477,0.407 -0.545,0.711c-0.068,0.304 -0.102,1.003 -0.102,2.099l0,4.463l-3.441,0l0,-11.302l3.441,0Z" style="fill-opacity:0.247059;fill-rule:nonzero;"/><path d="M313.337,42.379l-4.455,0l0,2.445c0,0.511 0.037,0.84 0.111,0.988c0.074,0.147 0.216,0.221 0.426,0.221c0.261,0 0.436,-0.098 0.524,-0.294c0.088,-0.196 0.132,-0.575 0.132,-1.137l0,-1.49l3.262,0l0,0.834c0,0.699 -0.044,1.235 -0.132,1.61c-0.088,0.375 -0.294,0.775 -0.618,1.201c-0.324,0.426 -0.734,0.745 -1.231,0.958c-0.496,0.213 -1.12,0.319 -1.869,0.319c-0.727,0 -1.368,-0.105 -1.925,-0.315c-0.556,-0.21 -0.989,-0.498 -1.299,-0.864c-0.309,-0.366 -0.523,-0.769 -0.643,-1.21c-0.119,-0.44 -0.178,-1.08 -0.178,-1.92l0,-3.296c0,-0.988 0.133,-1.767 0.4,-2.338c0.267,-0.57 0.704,-1.008 1.311,-1.311c0.608,-0.304 1.306,-0.456 2.096,-0.456c0.965,0 1.761,0.183 2.388,0.549c0.628,0.367 1.068,0.852 1.321,1.457c0.252,0.604 0.379,1.455 0.379,2.55l0,1.499Zm-3.45,-1.839l0,-0.826c0,-0.585 -0.031,-0.963 -0.093,-1.133c-0.063,-0.17 -0.191,-0.256 -0.384,-0.256c-0.238,0 -0.386,0.073 -0.442,0.218c-0.057,0.144 -0.086,0.535 -0.086,1.171l0,0.826l1.005,0Z" style="fill-opacity:0.247059;fill-rule:nonzero;"/><path d="M321.487,40.14l-3.049,0l0,-0.614c0,-0.522 -0.03,-0.853 -0.089,-0.992c-0.06,-0.139 -0.209,-0.209 -0.448,-0.209c-0.193,0 -0.337,0.064 -0.434,0.192c-0.096,0.128 -0.145,0.319 -0.145,0.575c0,0.346 0.024,0.6 0.073,0.762c0.048,0.162 0.193,0.339 0.434,0.532c0.241,0.194 0.737,0.475 1.486,0.844c0.999,0.488 1.655,0.948 1.968,1.379c0.312,0.432 0.468,1.059 0.468,1.882c0,0.92 -0.119,1.614 -0.358,2.083c-0.238,0.468 -0.637,0.829 -1.196,1.081c-0.56,0.253 -1.234,0.379 -2.023,0.379c-0.874,0 -1.622,-0.136 -2.244,-0.408c-0.622,-0.273 -1.049,-0.642 -1.282,-1.108c-0.233,-0.465 -0.349,-1.169 -0.349,-2.112l0,-0.545l3.049,0l0,0.716c0,0.607 0.038,1.002 0.115,1.183c0.076,0.182 0.228,0.273 0.455,0.273c0.245,0 0.415,-0.061 0.511,-0.183c0.097,-0.122 0.145,-0.379 0.145,-0.771c0,-0.539 -0.062,-0.877 -0.187,-1.013c-0.131,-0.137 -0.798,-0.54 -2.002,-1.21c-1.01,-0.567 -1.626,-1.083 -1.848,-1.545c-0.221,-0.463 -0.332,-1.013 -0.332,-1.648c0,-0.903 0.119,-1.569 0.358,-1.998c0.238,-0.428 0.643,-0.759 1.214,-0.992c0.57,-0.233 1.233,-0.349 1.988,-0.349c0.75,0 1.387,0.095 1.912,0.285c0.525,0.191 0.928,0.442 1.209,0.754c0.282,0.312 0.452,0.602 0.511,0.869c0.06,0.267 0.09,0.684 0.09,1.252l0,0.656Z" style="fill-opacity:0.247059;fill-rule:nonzero;"/><path d="M330.455,40.497l0,2.768c0,1.016 -0.051,1.762 -0.153,2.236c-0.103,0.474 -0.321,0.917 -0.656,1.328c-0.335,0.412 -0.765,0.716 -1.29,0.912c-0.526,0.195 -1.129,0.293 -1.81,0.293c-0.761,0 -1.405,-0.083 -1.933,-0.251c-0.529,-0.167 -0.939,-0.42 -1.231,-0.758c-0.293,-0.338 -0.501,-0.746 -0.626,-1.226c-0.125,-0.48 -0.187,-1.2 -0.187,-2.159l0,-2.896c0,-1.05 0.113,-1.871 0.34,-2.461c0.227,-0.591 0.636,-1.065 1.227,-1.422c0.59,-0.358 1.345,-0.537 2.265,-0.537c0.772,0 1.435,0.115 1.989,0.345c0.553,0.23 0.98,0.529 1.281,0.898c0.301,0.37 0.507,0.75 0.618,1.142c0.111,0.391 0.166,0.988 0.166,1.788Zm-3.441,-0.851c0,-0.58 -0.031,-0.944 -0.093,-1.095c-0.063,-0.15 -0.196,-0.226 -0.401,-0.226c-0.204,0 -0.34,0.076 -0.409,0.226c-0.068,0.151 -0.102,0.515 -0.102,1.095l0,5.101c0,0.534 0.034,0.881 0.102,1.043c0.069,0.162 0.202,0.243 0.401,0.243c0.204,0 0.339,-0.074 0.404,-0.221c0.066,-0.148 0.098,-0.466 0.098,-0.954l0,-5.212Z" style="fill-opacity:0.247059;fill-rule:nonzero;"/><path d="M338.614,40.14l-3.049,0l0,-0.614c0,-0.522 -0.03,-0.853 -0.09,-0.992c-0.059,-0.139 -0.208,-0.209 -0.447,-0.209c-0.193,0 -0.338,0.064 -0.434,0.192c-0.097,0.128 -0.145,0.319 -0.145,0.575c0,0.346 0.024,0.6 0.073,0.762c0.048,0.162 0.193,0.339 0.434,0.532c0.241,0.194 0.737,0.475 1.486,0.844c0.999,0.488 1.655,0.948 1.967,1.379c0.313,0.432 0.469,1.059 0.469,1.882c0,0.92 -0.119,1.614 -0.358,2.083c-0.238,0.468 -0.637,0.829 -1.196,1.081c-0.56,0.253 -1.234,0.379 -2.023,0.379c-0.875,0 -1.623,-0.136 -2.244,-0.408c-0.622,-0.273 -1.049,-0.642 -1.282,-1.108c-0.233,-0.465 -0.349,-1.169 -0.349,-2.112l0,-0.545l3.049,0l0,0.716c0,0.607 0.038,1.002 0.115,1.183c0.076,0.182 0.228,0.273 0.455,0.273c0.244,0 0.415,-0.061 0.511,-0.183c0.097,-0.122 0.145,-0.379 0.145,-0.771c0,-0.539 -0.062,-0.877 -0.187,-1.013c-0.131,-0.137 -0.798,-0.54 -2.002,-1.21c-1.01,-0.567 -1.626,-1.083 -1.848,-1.545c-0.221,-0.463 -0.332,-1.013 -0.332,-1.648c0,-0.903 0.119,-1.569 0.358,-1.998c0.238,-0.428 0.643,-0.759 1.213,-0.992c0.571,-0.233 1.234,-0.349 1.989,-0.349c0.75,0 1.387,0.095 1.912,0.285c0.525,0.191 0.928,0.442 1.209,0.754c0.281,0.312 0.452,0.602 0.511,0.869c0.06,0.267 0.09,0.684 0.09,1.252l0,0.656Z" style="fill-opacity:0.247059;fill-rule:nonzero;"/></g><path d="M348.008,29.155c5.136,-5.136 12.12,-7.272 18.552,-6.288c2.184,-5.208 2.856,-9.984 2.856,-9.984c0,0 -12.048,1.704 -18.792,8.424c-5.832,5.856 -8.976,12.456 -7.824,15.984c1.08,-2.952 2.808,-5.736 5.208,-8.136" style="fill:#0087d1;fill-rule:nonzero;"/><g><path d="M354.803,19.777c-1.008,1.01 -1.633,2.409 -1.633,3.957c0,1.547 0.625,2.944 1.633,3.955c1.007,1.01 2.39,1.63 3.921,1.63c1.528,0 2.914,-0.62 3.921,-1.63c1.007,-1.011 1.633,-2.408 1.633,-3.955c0,-1.548 -0.626,-2.947 -1.633,-3.957c-1.007,-1.009 -2.393,-1.629 -3.921,-1.631c-1.531,0.002 -2.914,0.622 -3.921,1.631m-2.079,3.957c0.006,-3.302 2.671,-5.998 6,-6.001c3.327,0.003 5.994,2.699 6,6.001c-0.006,3.3 -2.673,5.996 -6,5.999c-3.329,-0.003 -5.994,-2.699 -6,-5.999" style="fill:#0094d6;fill-rule:nonzero;"/><path d="M363.704,23.738c0,2.756 -2.227,4.991 -4.979,4.991c-2.748,0 -4.978,-2.235 -4.978,-4.991c0,-2.758 2.23,-4.995 4.978,-4.995c2.752,0 4.979,2.237 4.979,4.995" style="fill:#0094d6;fill-rule:nonzero;"/><path d="M358.7,18.756l1.116,3.442l3.613,0l-2.922,2.126l1.115,3.443l-2.922,-2.127l-2.919,2.127l1.116,-3.443l-2.923,-2.126l3.613,0l1.113,-3.442Z" style="fill:#fff;fill-rule:nonzero;"/></g><path d="M368.168,18.331c-1.032,1.44 -2.232,2.88 -3.576,4.224c-4.848,4.848 -10.56,7.68 -15.432,8.112c0.672,1.848 1.728,3.552 3.168,4.992c0.552,0.552 1.152,1.056 1.752,1.488c2.256,-1.368 4.632,-3.216 6.888,-5.448c3.792,-3.816 6,-9.312 7.2,-13.368" style="fill:#3578ca;fill-rule:nonzero;"/><path d="M359.48,16.075c3.36,3.36 4.56,8.112 3.768,12.912c4.872,-6.816 6.168,-16.08 6.168,-16.08c0,0 -4.896,0.696 -10.2,2.928c0.096,0.072 0.168,0.144 0.264,0.24" style="fill:#355d9b;fill-rule:nonzero;"/><path d="M341.864,40.939c-0.024,0 -0.024,0 -0.048,-0.024l-0.096,-0.048l-1.248,1.344l-0.048,0.048l-6.096,6l8.856,-5.544c0.96,-0.168 2.064,-0.576 3.216,-1.176c-1.896,0.408 -3.48,0.24 -4.536,-0.6" style="fill:#fe5233;fill-rule:nonzero;"/><path d="M341.144,40.147c-0.504,-0.792 -0.696,-1.848 -0.576,-3.072l-13.128,17.424l13.32,-13.92l0.384,-0.432Z" style="fill:#ffae26;fill-rule:nonzero;"/><path d="M364.592,22.555c-0.432,0.432 -0.864,0.816 -1.296,1.224c0.264,1.68 0.24,3.432 -0.048,5.208c0.048,-0.072 0.12,-0.168 0.168,-0.24c0.072,-0.096 0.12,-0.192 0.192,-0.288c0.12,-0.192 0.264,-0.384 0.384,-0.576c0.048,-0.048 0.072,-0.12 0.12,-0.168c0.144,-0.24 0.312,-0.504 0.456,-0.744c0.048,-0.096 0.12,-0.192 0.168,-0.288c0.096,-0.168 0.192,-0.336 0.288,-0.504c0.048,-0.096 0.12,-0.216 0.168,-0.312c0.096,-0.168 0.192,-0.336 0.264,-0.528c0.048,-0.096 0.096,-0.192 0.144,-0.288c0.12,-0.264 0.24,-0.504 0.36,-0.768c0.024,-0.072 0.072,-0.144 0.096,-0.24c0.096,-0.192 0.168,-0.384 0.264,-0.576c0.048,-0.096 0.096,-0.216 0.144,-0.312c0.072,-0.168 0.144,-0.336 0.216,-0.504c0.048,-0.096 0.072,-0.192 0.12,-0.312c0.072,-0.192 0.144,-0.384 0.24,-0.6c0.024,-0.072 0.048,-0.12 0.072,-0.192c0.096,-0.24 0.192,-0.504 0.264,-0.744c0.024,-0.096 0.072,-0.192 0.096,-0.264c0.048,-0.168 0.12,-0.336 0.168,-0.48c0.024,-0.096 0.072,-0.192 0.096,-0.288c0.048,-0.168 0.096,-0.336 0.168,-0.48c0.024,-0.072 0.048,-0.168 0.072,-0.24c0.072,-0.24 0.144,-0.456 0.216,-0.672l0,-0.024c-1.056,1.416 -2.256,2.832 -3.6,4.2" style="fill:#66c4ec;fill-rule:nonzero;"/><path d="M353.336,37.843c-2.472,2.76 -6.528,6 -9,7.2c2.568,0.312 7.872,-1.056 8.928,-3.192c0.672,-1.392 0.456,-2.928 0.072,-4.008m-5.4,-10.536c-3.648,2.544 -10.344,9.192 -12.12,11.976c0,-3.072 4.632,-11.52 7.344,-12.456c1.728,-0.624 3.528,-0.144 4.776,0.48" style="fill:#355d9b;fill-rule:nonzero;"/></svg>