<?xml version="1.0" encoding="UTF-8" standalone="no"?><!DOCTYPE svg PUBLIC "-//W3C//DTD SVG 1.1//EN" "http://www.w3.org/Graphics/SVG/1.1/DTD/svg11.dtd"><svg width="100%" height="100%" viewBox="0 0 1200 200" version="1.1" xmlns="http://www.w3.org/2000/svg" xmlns:xlink="http://www.w3.org/1999/xlink" xml:space="preserve" xmlns:serif="http://www.serif.com/" style="fill-rule:evenodd;clip-rule:evenodd;stroke-linejoin:round;stroke-miterlimit:1.41421;"><g><path d="M268.217,19.12l0,75.891l-17.25,0l0,-51.235l-6.891,51.235l-12.234,0l-7.266,-50.063l0,50.063l-17.25,0l0,-75.891l25.547,0c0.75,4.562 1.547,9.937 2.391,16.125l2.719,19.312l4.5,-35.437l25.734,0Z" style="fill:url(#_Linear1);fill-rule:nonzero;"/><path d="M318.936,32.807l0,62.204l-19.266,0l0.328,-5.157c-1.312,2.094 -2.929,3.664 -4.851,4.711c-1.922,1.047 -4.133,1.571 -6.633,1.571c-2.844,0 -5.203,-0.5 -7.078,-1.5c-1.875,-1 -3.258,-2.329 -4.149,-3.985c-0.89,-1.656 -1.445,-3.383 -1.664,-5.18c-0.218,-1.796 -0.328,-5.367 -0.328,-10.71l0,-41.954l18.938,0l0,42.329c0,4.843 0.148,7.718 0.445,8.625c0.297,0.906 1.102,1.359 2.414,1.359c1.406,0 2.242,-0.469 2.508,-1.406c0.265,-0.938 0.398,-3.953 0.398,-9.047l0,-41.86l18.938,0Z" style="fill:url(#_Linear2);fill-rule:nonzero;"/><path d="M364.405,52.682l-16.782,0l0,-3.375c0,-2.875 -0.164,-4.695 -0.492,-5.461c-0.328,-0.765 -1.148,-1.148 -2.461,-1.148c-1.062,0 -1.859,0.352 -2.39,1.055c-0.532,0.703 -0.797,1.758 -0.797,3.164c0,1.906 0.132,3.304 0.398,4.195c0.266,0.891 1.063,1.867 2.391,2.93c1.328,1.062 4.054,2.609 8.179,4.64c5.5,2.688 9.11,5.219 10.829,7.594c1.718,2.375 2.578,5.828 2.578,10.36c0,5.062 -0.657,8.882 -1.969,11.46c-1.313,2.579 -3.508,4.563 -6.586,5.954c-3.078,1.39 -6.789,2.086 -11.133,2.086c-4.812,0 -8.93,-0.75 -12.351,-2.25c-3.422,-1.5 -5.774,-3.532 -7.055,-6.094c-1.281,-2.563 -1.922,-6.438 -1.922,-11.625l0,-3l16.781,0l0,3.937c0,3.344 0.211,5.516 0.633,6.516c0.422,1 1.258,1.5 2.508,1.5c1.344,0 2.281,-0.336 2.812,-1.008c0.532,-0.672 0.797,-2.086 0.797,-4.242c0,-2.969 -0.343,-4.828 -1.031,-5.578c-0.719,-0.75 -4.391,-2.969 -11.016,-6.656c-5.562,-3.125 -8.953,-5.961 -10.171,-8.508c-1.219,-2.547 -1.829,-5.571 -1.829,-9.071c0,-4.968 0.657,-8.632 1.969,-10.992c1.313,-2.359 3.539,-4.179 6.68,-5.461c3.14,-1.281 6.789,-1.922 10.945,-1.922c4.125,0 7.633,0.524 10.524,1.571c2.89,1.047 5.109,2.429 6.656,4.148c1.547,1.719 2.484,3.313 2.812,4.781c0.328,1.469 0.493,3.766 0.493,6.891l0,3.609Z" style="fill:url(#_Linear3);fill-rule:nonzero;"/><path d="M413.811,65.011l-24.516,0l0,13.453c0,2.812 0.203,4.625 0.61,5.437c0.406,0.813 1.187,1.219 2.343,1.219c1.438,0 2.399,-0.539 2.883,-1.617c0.484,-1.078 0.727,-3.164 0.727,-6.258l0,-8.203l17.953,0l0,4.594c0,3.843 -0.242,6.796 -0.727,8.859c-0.484,2.062 -1.617,4.266 -3.398,6.609c-1.781,2.344 -4.039,4.102 -6.774,5.274c-2.734,1.172 -6.164,1.758 -10.289,1.758c-4,0 -7.531,-0.579 -10.593,-1.735c-3.063,-1.156 -5.446,-2.742 -7.149,-4.758c-1.703,-2.015 -2.883,-4.234 -3.539,-6.656c-0.656,-2.422 -0.984,-5.945 -0.984,-10.57l0,-18.141c0,-5.437 0.734,-9.726 2.203,-12.867c1.469,-3.141 3.875,-5.547 7.219,-7.219c3.343,-1.672 7.187,-2.508 11.531,-2.508c5.312,0 9.695,1.008 13.148,3.024c3.453,2.015 5.875,4.687 7.266,8.015c1.39,3.329 2.086,8.008 2.086,14.04l0,8.25Zm-18.985,-10.125l0,-4.547c0,-3.219 -0.171,-5.297 -0.515,-6.235c-0.344,-0.937 -1.047,-1.406 -2.11,-1.406c-1.312,0 -2.125,0.398 -2.437,1.195c-0.313,0.797 -0.469,2.946 -0.469,6.446l0,4.547l5.531,0Z" style="fill:url(#_Linear4);fill-rule:nonzero;"/><path d="M462.842,54.651l0,15.235c0,5.593 -0.281,9.695 -0.844,12.304c-0.562,2.61 -1.765,5.047 -3.609,7.313c-1.844,2.265 -4.211,3.937 -7.102,5.015c-2.89,1.078 -6.211,1.618 -9.961,1.618c-4.187,0 -7.734,-0.461 -10.64,-1.383c-2.906,-0.922 -5.164,-2.313 -6.774,-4.172c-1.609,-1.86 -2.757,-4.11 -3.445,-6.75c-0.687,-2.641 -1.031,-6.602 -1.031,-11.883l0,-15.937c0,-5.782 0.625,-10.297 1.875,-13.547c1.25,-3.25 3.5,-5.86 6.75,-7.828c3.25,-1.969 7.406,-2.954 12.469,-2.954c4.25,0 7.898,0.633 10.945,1.899c3.047,1.265 5.398,2.914 7.055,4.945c1.656,2.031 2.789,4.125 3.398,6.281c0.609,2.157 0.914,5.438 0.914,9.844Zm-18.937,-4.687c0,-3.188 -0.172,-5.196 -0.516,-6.024c-0.344,-0.828 -1.078,-1.242 -2.203,-1.242c-1.125,0 -1.875,0.414 -2.25,1.242c-0.375,0.828 -0.563,2.836 -0.563,6.024l0,28.078c0,2.937 0.188,4.851 0.563,5.742c0.375,0.891 1.109,1.336 2.203,1.336c1.125,0 1.867,-0.406 2.226,-1.219c0.36,-0.812 0.54,-2.562 0.54,-5.25l0,-28.687Z" style="fill:url(#_Linear5);fill-rule:nonzero;"/><path d="M520.639,19.12l11.297,75.891l-20.203,0l-0.985,-13.641l-7.078,0l-1.172,13.641l-20.437,0l10.031,-75.891l28.547,0Zm-10.453,48.797c-1,-8.594 -2,-19.203 -3,-31.828c-2,14.5 -3.25,25.109 -3.75,31.828l6.75,0Z" style="fill:url(#_Linear6);fill-rule:nonzero;"/><path d="M553.686,32.807l-0.75,8.157c2.75,-5.844 6.734,-8.938 11.953,-9.282l0,21.891c-3.469,0 -6.016,0.469 -7.641,1.406c-1.625,0.938 -2.625,2.242 -3,3.914c-0.375,1.672 -0.562,5.524 -0.562,11.555l0,24.563l-18.938,0l0,-62.204l18.938,0Z" style="fill:url(#_Linear7);fill-rule:nonzero;"/><path d="M590.811,24.511l0,9.796l5.109,0l0,9.844l-5.109,0l0,33.281c0,4.094 0.211,6.375 0.633,6.844c0.421,0.469 2.179,0.703 5.273,0.703l0,10.032l-7.641,0c-4.312,0 -7.39,-0.18 -9.234,-0.54c-1.844,-0.359 -3.469,-1.187 -4.875,-2.484c-1.406,-1.297 -2.281,-2.781 -2.625,-4.453c-0.344,-1.672 -0.516,-5.602 -0.516,-11.789l0,-31.594l-4.078,0l0,-9.844l4.078,0l0,-9.796l18.985,0Z" style="fill:url(#_Linear8);fill-rule:nonzero;"/><path d="M642.983,65.011l-24.516,0l0,13.453c0,2.812 0.203,4.625 0.609,5.437c0.407,0.813 1.188,1.219 2.344,1.219c1.438,0 2.399,-0.539 2.883,-1.617c0.484,-1.078 0.727,-3.164 0.727,-6.258l0,-8.203l17.953,0l0,4.594c0,3.843 -0.243,6.796 -0.727,8.859c-0.484,2.062 -1.617,4.266 -3.398,6.609c-1.782,2.344 -4.039,4.102 -6.774,5.274c-2.734,1.172 -6.164,1.758 -10.289,1.758c-4,0 -7.531,-0.579 -10.594,-1.735c-3.062,-1.156 -5.445,-2.742 -7.148,-4.758c-1.703,-2.015 -2.883,-4.234 -3.539,-6.656c-0.656,-2.422 -0.984,-5.945 -0.984,-10.57l0,-18.141c0,-5.437 0.734,-9.726 2.203,-12.867c1.468,-3.141 3.875,-5.547 7.218,-7.219c3.344,-1.672 7.188,-2.508 11.532,-2.508c5.312,0 9.695,1.008 13.148,3.024c3.453,2.015 5.875,4.687 7.266,8.015c1.39,3.329 2.086,8.008 2.086,14.04l0,8.25Zm-18.985,-10.125l0,-4.547c0,-3.219 -0.172,-5.297 -0.515,-6.235c-0.344,-0.937 -1.047,-1.406 -2.11,-1.406c-1.312,0 -2.125,0.398 -2.437,1.195c-0.313,0.797 -0.469,2.946 -0.469,6.446l0,4.547l5.531,0Z" style="fill:url(#_Linear9);fill-rule:nonzero;"/><path d="M705.748,32.807l-5.437,45c-0.844,7.125 -1.555,11.985 -2.133,14.579c-0.578,2.593 -1.539,4.734 -2.883,6.421c-1.344,1.688 -3.211,2.93 -5.601,3.727c-2.391,0.797 -6.211,1.195 -11.461,1.195l-11.485,0l0,-9.937c2.938,0 4.828,-0.149 5.672,-0.446c0.844,-0.296 1.266,-0.96 1.266,-1.992c0,-0.5 -0.391,-2.672 -1.172,-6.515l-10.359,-52.032l17.203,0l6.187,41.954l3,-41.954l17.203,0Z" style="fill:url(#_Linear10);fill-rule:nonzero;"/><path d="M767.905,56.292l-17.86,0l0,-7.172c0,-2.5 -0.203,-4.195 -0.609,-5.086c-0.406,-0.891 -1.156,-1.336 -2.25,-1.336c-1.094,0 -1.828,0.391 -2.203,1.172c-0.375,0.781 -0.563,2.531 -0.563,5.25l0,29.344c0,2.218 0.281,3.882 0.844,4.992c0.562,1.109 1.391,1.664 2.484,1.664c1.282,0 2.149,-0.578 2.602,-1.734c0.453,-1.157 0.68,-3.344 0.68,-6.563l0,-7.406l16.875,0c-0.032,4.969 -0.211,8.695 -0.54,11.179c-0.328,2.485 -1.375,5.032 -3.14,7.641c-1.766,2.609 -4.07,4.578 -6.914,5.906c-2.844,1.328 -6.36,1.993 -10.547,1.993c-5.344,0 -9.578,-0.915 -12.703,-2.743c-3.125,-1.828 -5.336,-4.39 -6.633,-7.687c-1.297,-3.297 -1.945,-7.977 -1.945,-14.039l0,-17.672c0,-5.281 0.531,-9.266 1.593,-11.953c1.063,-2.688 3.329,-5.086 6.797,-7.196c3.469,-2.109 7.688,-3.164 12.657,-3.164c4.937,0 9.156,1.047 12.656,3.141c3.5,2.094 5.828,4.734 6.984,7.922c1.156,3.187 1.735,7.703 1.735,13.547Z" style="fill:url(#_Linear11);fill-rule:nonzero;"/><path d="M793.03,19.12l0,9.891l-19.5,0l0,-9.891l19.5,0Zm0,13.687l0,62.204l-19.5,0l0,-62.204l19.5,0Z" style="fill:url(#_Linear12);fill-rule:nonzero;"/><path d="M843.186,32.807l0,62.204l-19.266,0l0.328,-5.157c-1.312,2.094 -2.929,3.664 -4.851,4.711c-1.922,1.047 -4.133,1.571 -6.633,1.571c-2.844,0 -5.203,-0.5 -7.078,-1.5c-1.875,-1 -3.258,-2.329 -4.149,-3.985c-0.89,-1.656 -1.445,-3.383 -1.664,-5.18c-0.218,-1.796 -0.328,-5.367 -0.328,-10.71l0,-41.954l18.938,0l0,42.329c0,4.843 0.148,7.718 0.445,8.625c0.297,0.906 1.102,1.359 2.414,1.359c1.406,0 2.242,-0.469 2.508,-1.406c0.265,-0.938 0.398,-3.953 0.398,-9.047l0,-41.86l18.938,0Z" style="fill:url(#_Linear13);fill-rule:nonzero;"/><path d="M893.061,19.12l0,75.891l-18.938,0l0,-4.5c-1.812,1.875 -3.718,3.281 -5.718,4.218c-2,0.938 -4.094,1.407 -6.282,1.407c-2.937,0 -5.484,-0.774 -7.64,-2.321c-2.157,-1.547 -3.539,-3.336 -4.149,-5.367c-0.609,-2.031 -0.914,-5.344 -0.914,-9.937l0,-29.11c0,-4.781 0.305,-8.172 0.914,-10.172c0.61,-2 2.008,-3.758 4.196,-5.273c2.187,-1.516 4.796,-2.274 7.828,-2.274c2.343,0 4.492,0.422 6.445,1.266c1.953,0.844 3.727,2.109 5.32,3.797l0,-17.625l18.938,0Zm-18.938,29.344c0,-2.282 -0.195,-3.813 -0.586,-4.594c-0.39,-0.781 -1.164,-1.172 -2.32,-1.172c-1.125,0 -1.883,0.352 -2.273,1.055c-0.391,0.703 -0.586,2.273 -0.586,4.711l0,30.468c0,2.532 0.187,4.196 0.562,4.993c0.375,0.796 1.094,1.195 2.156,1.195c1.219,0 2.032,-0.445 2.438,-1.336c0.406,-0.891 0.609,-3.07 0.609,-6.539l0,-28.781Z" style="fill:url(#_Linear14);fill-rule:nonzero;"/><path d="M916.78,56.901l-17.766,0l0,-4.172c0,-4.812 0.555,-8.523 1.664,-11.133c1.109,-2.609 3.336,-4.914 6.68,-6.914c3.343,-2 7.687,-3 13.031,-3c6.406,0 11.234,1.133 14.484,3.399c3.25,2.265 5.203,5.047 5.86,8.344c0.656,3.296 0.984,10.086 0.984,20.367l0,31.219l-18.422,0l0,-5.532c-1.156,2.219 -2.648,3.883 -4.476,4.992c-1.829,1.11 -4.008,1.665 -6.539,1.665c-3.313,0 -6.352,-0.93 -9.118,-2.79c-2.765,-1.859 -4.148,-5.929 -4.148,-12.21l0,-5.11c0,-4.656 0.734,-7.828 2.203,-9.515c1.469,-1.688 5.109,-3.657 10.922,-5.907c6.219,-2.437 9.547,-4.078 9.984,-4.922c0.438,-0.843 0.657,-2.562 0.657,-5.156c0,-3.25 -0.243,-5.367 -0.727,-6.351c-0.484,-0.985 -1.289,-1.477 -2.414,-1.477c-1.281,0 -2.078,0.414 -2.391,1.242c-0.312,0.828 -0.468,2.977 -0.468,6.446l0,6.515Zm6,8.531c-3.032,2.219 -4.79,4.079 -5.274,5.579c-0.484,1.5 -0.726,3.656 -0.726,6.468c0,3.219 0.21,5.297 0.632,6.235c0.422,0.937 1.258,1.406 2.508,1.406c1.188,0 1.961,-0.367 2.32,-1.102c0.36,-0.734 0.54,-2.664 0.54,-5.789l0,-12.797Z" style="fill:url(#_Linear15);fill-rule:nonzero;"/><path d="M991.311,19.12l0,75.891l-18.938,0l0,-4.5c-1.812,1.875 -3.718,3.281 -5.718,4.218c-2,0.938 -4.094,1.407 -6.282,1.407c-2.937,0 -5.484,-0.774 -7.64,-2.321c-2.157,-1.547 -3.539,-3.336 -4.149,-5.367c-0.609,-2.031 -0.914,-5.344 -0.914,-9.937l0,-29.11c0,-4.781 0.305,-8.172 0.914,-10.172c0.61,-2 2.008,-3.758 4.196,-5.273c2.187,-1.516 4.796,-2.274 7.828,-2.274c2.343,0 4.492,0.422 6.445,1.266c1.953,0.844 3.727,2.109 5.32,3.797l0,-17.625l18.938,0Zm-18.938,29.344c0,-2.282 -0.195,-3.813 -0.586,-4.594c-0.39,-0.781 -1.164,-1.172 -2.32,-1.172c-1.125,0 -1.883,0.352 -2.273,1.055c-0.391,0.703 -0.586,2.273 -0.586,4.711l0,30.468c0,2.532 0.187,4.196 0.562,4.993c0.375,0.796 1.094,1.195 2.156,1.195c1.219,0 2.032,-0.445 2.438,-1.336c0.406,-0.891 0.609,-3.07 0.609,-6.539l0,-28.781Z" style="fill:url(#_Linear16);fill-rule:nonzero;"/></g><g><path d="M547.961,118.275c-0.256,1.664 -1.152,2.24 -1.856,2.816c-7.936,6.72 -8.768,8.064 -13.376,11.52c-3.072,2.496 -6.4,4.672 -9.728,6.848c-2.496,1.664 -5.248,2.432 -8.256,2.56c-1.024,-0.064 -2.112,-0.192 -3.2,-0.512c-1.536,-0.448 -2.56,-1.6 -2.56,-3.2c0,-1.536 0.128,-3.072 0.512,-4.48c2.176,-6.592 6.208,-11.968 11.584,-16.384c1.536,-1.28 3.328,-2.112 5.504,-1.984c2.88,0.128 3.776,1.408 2.496,4.032c-1.28,2.816 -2.944,5.248 -5.376,7.104c-1.536,1.216 -3.264,2.304 -4.992,3.264c-1.088,0.576 -1.664,1.28 -1.984,2.432c-0.512,1.792 -1.024,3.584 -0.256,5.376c1.28,0.448 2.176,-0.128 2.944,-0.64c2.432,-1.408 4.8,-2.816 7.104,-4.48c7.488,-5.504 4.544,-2.624 12.096,-8.192c2.176,-1.6 4.416,-3.072 6.592,-4.608c0.704,-0.512 1.536,-0.832 2.752,-1.472Zm-21.248,-1.152c-2.112,0.704 -3.072,2.496 -4.16,3.968c-2.304,2.944 -2.496,3.392 -2.816,5.312c2.88,-1.408 5.056,-3.52 6.528,-6.208c0.512,-0.832 1.088,-1.728 0.448,-3.072Z" style="fill:#c3cfe2;fill-rule:nonzero;"/><path d="M547.193,126.979c0.96,-0.704 1.856,-1.408 2.88,-2.048c3.008,-1.984 5.952,-3.968 9.024,-5.888c1.408,-0.832 3.072,-1.344 4.8,-1.408c3.456,0 5.184,1.792 4.864,5.248c-0.128,1.728 -0.448,3.392 -0.64,5.056c-0.064,0.448 0,0.96 0,1.472c1.216,0.576 1.984,-0.256 2.752,-0.704c6.4,-3.648 12.736,-7.424 19.136,-11.136c0.768,-0.448 1.536,-0.96 2.304,-1.28c0.512,-0.192 1.216,-0.192 1.728,-0.064c0.768,0.128 1.088,1.088 0.64,1.6c-0.448,0.64 -1.024,1.216 -1.664,1.664c-4.48,3.2 -8.896,6.4 -13.44,9.472c-2.24,1.472 -4.672,2.752 -7.04,3.904c-2.24,1.024 -4.608,1.408 -7.04,0.896c-2.624,-0.512 -3.584,-1.664 -3.328,-4.352c0.128,-1.792 0.576,-3.52 0.896,-5.312l0.448,-3.968c-1.088,0.512 -1.792,0.704 -2.432,1.088c-5.504,3.776 -10.944,7.68 -15.68,12.416c-0.448,0.384 -0.832,0.832 -1.28,1.216c-1.152,1.024 -2.56,1.152 -3.968,0.832c-1.6,-0.32 -2.176,-1.28 -1.536,-2.816c1.536,-3.392 3.136,-6.72 4.8,-9.984c0.96,-1.856 2.112,-3.584 3.264,-5.376c0.32,-0.576 0.832,-1.088 1.408,-1.472c0.96,-0.576 2.176,0.192 1.984,1.28c-0.256,1.28 -0.64,2.56 -1.088,3.712c-0.704,1.856 -1.472,3.712 -2.24,5.504c0.128,0.192 0.32,0.32 0.448,0.448Z" style="fill:#c3cfe2;fill-rule:nonzero;"/><path d="M627.961,136.899c1.728,0 3.136,-0.768 4.416,-1.6c2.496,-1.728 9.024,-7.616 11.328,-9.472c2.368,-1.856 4.48,-3.968 6.72,-5.952c0.832,-0.64 1.6,-1.536 3.136,-0.96c-0.384,0.704 -0.576,1.408 -1.024,1.792c-3.776,3.84 -11.584,11.904 -15.552,15.552c-3.072,2.88 -6.912,4.288 -11.2,4.032c-3.648,-0.256 -5.504,-2.048 -5.696,-5.632c-0.128,-2.176 0.256,-4.352 0.96,-6.464c1.728,-5.632 4.48,-10.816 7.616,-15.808c3.2,-5.056 6.72,-9.856 10.56,-14.464c3.072,-3.584 6.4,-6.848 10.112,-9.728c1.984,-1.536 4.096,-2.816 6.592,-3.328c4.608,-0.832 6.784,1.28 5.888,5.824c-0.256,1.344 -0.768,2.752 -1.536,3.84c-5.184,8.064 -12.352,13.696 -21.376,16.896c-1.92,0.64 -3.2,1.6 -4.224,3.392c-2.496,4.416 -4.928,8.832 -6.528,13.696c-0.448,1.408 -0.704,2.88 -1.024,4.352c-0.256,1.408 0.064,2.752 0.832,4.032Zm10.944,-28.224c5.76,-2.24 13.632,-8.256 16.832,-12.608c1.28,-1.728 2.176,-3.584 2.496,-5.696c0.128,-1.024 0.384,-2.176 -0.448,-3.072c-4.544,1.728 -13.632,11.968 -18.88,21.376Z" style="fill:#c3cfe2;fill-rule:nonzero;"/><path d="M662.009,124.547c1.152,-0.448 2.048,-0.704 2.944,-1.088c4.992,-2.176 4.608,-1.024 8.96,-4.288c0.64,-0.512 1.536,-0.832 2.304,-1.216c0.96,0.896 0.896,1.792 0.192,2.496c-0.896,1.024 -1.92,1.984 -3.072,2.752c-5.12,3.52 -5.184,3.2 -11.328,4.992c-0.128,1.216 -0.192,2.496 -0.512,3.776c-0.832,3.712 -2.432,7.168 -4.608,10.304c-1.856,2.688 -4.48,3.84 -7.744,3.392c-3.328,-0.384 -5.76,-2.432 -6.208,-5.824c-0.192,-1.664 -0.192,-3.392 0.192,-4.992c0.576,-2.752 1.344,-5.44 2.368,-8c1.6,-4.032 4.224,-7.232 8,-9.408c1.408,-0.768 2.88,-1.344 4.544,-1.344c2.432,0.064 3.712,1.024 4.032,3.456c0.128,1.088 -0.128,2.176 -0.128,3.264c-0.064,0.512 0.064,0.96 0.064,1.728Zm-11.392,17.344c0.64,-0.768 1.344,-1.344 1.792,-2.048c1.344,-2.432 2.624,-4.928 3.776,-7.424c0.96,-2.112 1.6,-4.288 0.32,-6.464c2.432,-2.368 2.752,-3.84 1.344,-6.72c-1.472,0.96 -2.496,2.304 -3.392,3.648c-2.88,4.352 -4.288,9.216 -5.12,14.208c-0.256,1.6 0.128,3.136 1.28,4.8Z" style="fill:#c3cfe2;fill-rule:nonzero;"/><path d="M698.745,117.251c-0.256,1.664 -1.216,2.432 -2.112,3.136c-2.432,2.048 -4.864,4.096 -7.36,6.08c-3.392,2.752 -6.848,5.504 -10.368,8.128c-1.536,1.216 -2.24,2.496 -2.112,4.544c0.384,6.4 -0.896,12.48 -3.456,18.304c-1.088,2.432 -2.304,4.672 -4.032,6.656c-1.792,1.984 -3.84,3.456 -6.528,3.968c-0.64,0.128 -1.344,0.256 -2.048,0.256c-3.136,0 -4.736,-1.6 -4.992,-4.736c-0.192,-2.688 0.256,-5.376 1.024,-7.936c1.088,-3.392 2.88,-6.4 5.056,-9.088c1.792,-2.304 3.648,-4.544 5.76,-6.464c1.664,-1.536 2.24,-3.136 2.112,-5.248c-0.192,-2.368 -0.128,-4.8 0,-7.168c0.128,-4.928 1.984,-9.088 5.568,-12.48c0.896,-0.896 2.048,-1.6 3.136,-2.176c0.896,-0.512 1.92,-0.704 3.072,0.064c-2.688,3.264 -4.992,6.656 -5.44,11.008c-0.256,2.688 0.064,5.312 0.512,8.192c1.856,-0.704 3.2,-1.856 4.672,-2.816c1.472,-0.96 2.944,-1.984 4.416,-3.008l4.224,-2.88c1.472,-1.088 2.88,-2.176 4.352,-3.2c1.408,-0.96 2.496,-2.496 4.544,-3.136Zm-29.568,27.2c-3.136,2.816 -5.44,6.272 -7.104,10.112c-1.088,2.56 -1.92,5.184 -2.048,8.064c0,1.024 -0.128,2.176 0.704,3.2c2.048,-0.512 3.008,-1.984 3.776,-3.584c2.752,-5.568 4.416,-11.456 4.672,-17.792Z" style="fill:#c3cfe2;fill-rule:nonzero;"/><path d="M793.081,116.675c-0.192,-0.256 -0.704,-0.512 -1.024,-0.448c-0.704,0.192 -1.472,0.512 -2.112,0.96c-1.728,1.216 -3.264,2.624 -5.056,3.712c-4.16,2.56 -1.216,0.64 -7.936,4.224c-0.896,0.448 -1.792,1.28 -3.2,0.896c-0.064,-1.28 -0.064,-2.56 -0.256,-3.84c-0.256,-2.176 -1.344,-3.2 -3.52,-3.264c-1.152,0 -2.432,0.256 -3.456,0.768c-2.56,1.344 -4.992,2.88 -7.424,4.416c-1.216,0.832 -2.368,1.728 -3.584,2.624c-0.192,-0.192 -0.32,-0.32 -0.512,-0.448l0.384,-1.728c0.128,-1.152 0.384,-2.368 0.32,-3.52c0,-1.792 -0.896,-2.816 -2.688,-2.88c-1.152,-0.064 -2.496,0.128 -3.456,0.704c-2.432,1.344 -4.8,2.816 -6.976,4.544c-2.688,2.112 -5.056,4.544 -7.552,6.784c-0.448,0.448 -0.96,0.768 -1.984,1.6c0.448,-1.216 0.576,-1.792 0.832,-2.304c0.96,-2.304 1.984,-4.544 2.944,-6.848c0.64,-1.536 1.408,-3.072 1.984,-4.672c0.128,-0.512 0.192,-1.408 -0.128,-1.664c-0.448,-0.384 -1.28,-0.512 -1.92,-0.448c-1.152,0.128 -1.792,1.152 -2.432,2.048c-3.264,4.672 -5.888,9.728 -7.552,15.232c-0.128,0.448 -0.256,0.96 -0.32,1.408c-0.256,1.6 0.256,2.432 1.792,2.944c1.856,0.64 3.584,0.192 5.056,-0.96c1.152,-0.96 2.24,-1.984 3.328,-3.072c2.944,-2.944 5.824,-5.952 8.768,-8.96c1.6,-1.6 3.392,-3.008 5.952,-4.16c-0.192,1.152 -0.256,1.92 -0.448,2.688c-0.384,1.408 -0.96,2.816 -1.28,4.288c-0.64,2.752 0.384,4.032 3.136,3.968c1.024,-0.064 2.048,-0.32 2.88,-0.704c1.28,-0.64 2.368,-1.472 3.52,-2.24c2.304,-1.6 4.544,-3.264 6.848,-4.8c0.576,-0.384 1.216,-0.576 2.048,-0.96c0,1.472 -0.064,2.624 0,3.84c0.128,2.112 1.088,3.136 3.2,3.776c2.048,0.576 4.032,0.256 5.824,-0.576l14.08,-9.856c0.704,-0.576 1.28,-1.28 1.856,-1.984c0.192,-0.256 0.192,-0.832 0.064,-1.088Z" style="fill:#c3cfe2;fill-rule:nonzero;"/><path d="M816.761,118.275c-0.256,1.664 -1.152,2.24 -1.856,2.816c-7.936,6.72 -8.768,8.064 -13.376,11.52c-3.072,2.496 -6.4,4.672 -9.728,6.848c-2.496,1.664 -5.248,2.432 -8.256,2.56c-1.024,-0.064 -2.112,-0.192 -3.2,-0.512c-1.536,-0.448 -2.56,-1.6 -2.56,-3.2c0,-1.536 0.128,-3.072 0.512,-4.48c2.176,-6.592 6.208,-11.968 11.584,-16.384c1.536,-1.28 3.328,-2.112 5.504,-1.984c2.88,0.128 3.776,1.408 2.496,4.032c-1.28,2.816 -2.944,5.248 -5.376,7.104c-1.536,1.216 -3.264,2.304 -4.992,3.264c-1.088,0.576 -1.664,1.28 -1.984,2.432c-0.512,1.792 -1.024,3.584 -0.256,5.376c1.28,0.448 2.176,-0.128 2.944,-0.64c2.432,-1.408 4.8,-2.816 7.104,-4.48c7.488,-5.504 4.544,-2.624 12.096,-8.192c2.176,-1.6 4.416,-3.072 6.592,-4.608c0.704,-0.512 1.536,-0.832 2.752,-1.472Zm-21.248,-1.152c-2.112,0.704 -3.072,2.496 -4.16,3.968c-2.304,2.944 -2.496,3.392 -2.816,5.312c2.88,-1.408 5.056,-3.52 6.528,-6.208c0.512,-0.832 1.088,-1.728 0.448,-3.072Z" style="fill:#c3cfe2;fill-rule:nonzero;"/><path d="M863.609,118.595c-0.576,0.64 -1.088,1.344 -1.728,1.92c-6.144,5.696 -6.336,6.912 -12.608,12.48c-2.432,2.24 -5.056,4.224 -7.808,5.952c-2.944,1.856 -6.272,2.624 -9.728,1.728c-3.392,-0.832 -4.864,-2.688 -4.928,-6.144l0,-3.52c-0.512,0.256 -1.024,0.448 -1.408,0.768c-2.112,1.792 -4.16,3.712 -6.4,5.376c-2.496,1.792 -5.376,2.56 -8.512,2.304c-3.456,-0.32 -4.992,-2.112 -4.544,-5.568c0.064,-0.32 0.064,-0.64 0.192,-0.896c1.472,-4.928 3.712,-9.472 7.36,-13.184c2.24,-2.368 4.992,-3.584 8.32,-3.328c2.752,0.128 3.84,1.216 3.52,3.968c-0.32,3.008 -1.344,5.824 -3.2,8.256c-0.256,0.384 -0.704,0.576 -1.408,1.152c-0.064,-0.96 -0.192,-1.536 -0.064,-1.984c0.576,-1.92 1.28,-3.776 1.856,-5.696c0.512,-1.792 0.512,-1.792 -0.064,-3.712c-0.96,-0.448 -1.792,0 -2.496,0.512c-0.896,0.704 -1.856,1.536 -2.56,2.432c-2.752,3.52 -4.608,7.488 -5.504,11.84c-0.256,1.216 -0.256,1.216 0.448,2.88c1.088,0.128 1.984,-0.512 2.944,-1.088c4.8,-3.008 9.088,-6.784 13.44,-10.496c0.576,-0.512 0.96,-1.216 1.344,-1.92c4.288,-7.36 9.536,-14.016 15.104,-20.416c2.304,-2.624 4.8,-5.056 7.296,-7.488c1.472,-1.472 3.264,-2.624 5.376,-2.944l0.896,-0.192c3.968,-0.384 5.696,1.728 4.352,5.44c-0.384,1.152 -0.896,2.176 -1.472,3.264c-3.584,6.592 -8,12.608 -12.992,18.176c-1.408,1.6 -3.008,3.008 -4.608,4.352c-0.704,0.576 -1.664,1.024 -2.624,1.344c-0.512,0.128 -1.216,-0.256 -1.792,-0.384c0.064,-1.408 0.96,-1.92 1.6,-2.688c3.2,-3.52 6.528,-6.976 9.6,-10.688c2.368,-2.88 4.544,-6.016 6.72,-9.152c0.832,-1.216 1.408,-2.624 2.048,-3.968c0.384,-0.96 0.704,-2.048 0,-3.2c-1.472,0.576 -2.368,1.664 -3.2,2.752c-4.032,5.312 -8.128,10.56 -11.968,16c-2.304,3.328 -4.352,6.912 -6.336,10.496c-1.728,3.264 -2.944,6.784 -3.456,10.432c-0.192,1.216 -0.192,2.368 0.64,3.52c2.56,-0.704 4.736,-2.176 6.784,-3.776c4.736,-3.712 9.472,-7.552 14.272,-11.328c2.944,-2.304 0.128,-0.064 3.136,-2.368c1.088,-0.832 2.24,-1.6 3.648,-1.792l0.512,0.576Z" style="fill:#c3cfe2;fill-rule:nonzero;"/><path d="M871.097,100.483l-1.728,2.368c-1.152,1.6 -2.304,3.136 -3.52,4.736c-0.128,0.256 -0.256,0.576 -0.512,0.704c-0.448,0.256 -1.088,0.704 -1.536,0.512c-0.32,-0.128 -0.576,-0.896 -0.704,-1.408c-0.064,-0.32 0.128,-0.768 0.32,-1.088c1.024,-1.728 1.984,-3.456 3.136,-4.992c1.024,-1.28 2.368,-1.728 4.544,-0.832Zm-11.904,35.456c1.984,-1.024 3.392,-2.112 4.736,-3.328c6.016,-5.312 7.296,-5.056 13.312,-10.432c1.152,-1.024 2.24,-1.984 3.392,-2.944c0.448,-0.384 0.96,-0.512 1.984,-1.024c-0.32,1.024 -0.384,1.6 -0.704,1.984c-1.024,1.344 -2.24,2.56 -3.328,3.776c-3.136,3.52 -0.576,0.832 -3.776,4.288c-2.368,2.56 -5.632,5.696 -8.192,8.064c-1.344,1.216 -3.072,2.176 -4.736,3.072c-1.728,0.96 -3.648,0.896 -5.504,0.64c-2.432,-0.384 -3.712,-1.792 -3.648,-4.352c0.064,-1.536 0.32,-3.136 0.64,-4.672c0.96,-4.48 3.008,-8.448 5.504,-12.224c0.576,-0.768 1.28,-1.536 2.112,-2.048c0.704,-0.576 1.664,-0.704 2.496,-0.064c0.896,0.576 0.448,1.408 0.192,2.176c-0.832,2.304 -1.856,4.608 -2.56,6.976c-0.768,2.752 -1.344,5.632 -2.048,8.448c-0.064,0.32 0.064,0.768 0.128,1.664Z" style="fill:#c3cfe2;fill-rule:nonzero;"/><path d="M891.577,124.547c1.152,-0.448 2.048,-0.704 2.944,-1.088c4.992,-2.176 4.608,-1.024 8.96,-4.288c0.64,-0.512 1.536,-0.832 2.304,-1.216c0.96,0.896 0.896,1.792 0.192,2.496c-0.896,1.024 -1.92,1.984 -3.072,2.752c-5.12,3.52 -5.184,3.2 -11.328,4.992c-0.128,1.216 -0.192,2.496 -0.512,3.776c-0.832,3.712 -2.432,7.168 -4.608,10.304c-1.856,2.688 -4.48,3.84 -7.744,3.392c-3.328,-0.384 -5.76,-2.432 -6.208,-5.824c-0.192,-1.664 -0.192,-3.392 0.192,-4.992c0.576,-2.752 1.344,-5.44 2.368,-8c1.6,-4.032 4.224,-7.232 8,-9.408c1.408,-0.768 2.88,-1.344 4.544,-1.344c2.432,0.064 3.712,1.024 4.032,3.456c0.128,1.088 -0.128,2.176 -0.128,3.264c-0.064,0.512 0.064,0.96 0.064,1.728Zm-11.392,17.344c0.64,-0.768 1.344,-1.344 1.792,-2.048c1.344,-2.432 2.624,-4.928 3.776,-7.424c0.96,-2.112 1.6,-4.288 0.32,-6.464c2.432,-2.368 2.752,-3.84 1.344,-6.72c-1.472,0.96 -2.496,2.304 -3.392,3.648c-2.88,4.352 -4.288,9.216 -5.12,14.208c-0.256,1.6 0.128,3.136 1.28,4.8Z" style="fill:#c3cfe2;fill-rule:nonzero;"/><path d="M928.313,117.251c-0.256,1.664 -1.216,2.432 -2.112,3.136c-2.432,2.048 -4.864,4.096 -7.36,6.08c-3.392,2.752 -6.848,5.504 -10.368,8.128c-1.536,1.216 -2.24,2.496 -2.112,4.544c0.384,6.4 -0.896,12.48 -3.456,18.304c-1.088,2.432 -2.304,4.672 -4.032,6.656c-1.792,1.984 -3.84,3.456 -6.528,3.968c-0.64,0.128 -1.344,0.256 -2.048,0.256c-3.136,0 -4.736,-1.6 -4.992,-4.736c-0.192,-2.688 0.256,-5.376 1.024,-7.936c1.088,-3.392 2.88,-6.4 5.056,-9.088c1.792,-2.304 3.648,-4.544 5.76,-6.464c1.664,-1.536 2.24,-3.136 2.112,-5.248c-0.192,-2.368 -0.128,-4.8 0,-7.168c0.128,-4.928 1.984,-9.088 5.568,-12.48c0.896,-0.896 2.048,-1.6 3.136,-2.176c0.896,-0.512 1.92,-0.704 3.072,0.064c-2.688,3.264 -4.992,6.656 -5.44,11.008c-0.256,2.688 0.064,5.312 0.512,8.192c1.856,-0.704 3.2,-1.856 4.672,-2.816c1.472,-0.96 2.944,-1.984 4.416,-3.008l4.224,-2.88c1.472,-1.088 2.88,-2.176 4.352,-3.2c1.408,-0.96 2.496,-2.496 4.544,-3.136Zm-29.568,27.2c-3.136,2.816 -5.44,6.272 -7.104,10.112c-1.088,2.56 -1.92,5.184 -2.048,8.064c0,1.024 -0.128,2.176 0.704,3.2c2.048,-0.512 3.008,-1.984 3.776,-3.584c2.752,-5.568 4.416,-11.456 4.672,-17.792Z" style="fill:#c3cfe2;fill-rule:nonzero;"/><path d="M1012.41,118.595c-0.576,0.64 -1.088,1.344 -1.728,1.92c-6.144,5.696 -6.336,6.912 -12.608,12.48c-2.432,2.24 -5.056,4.224 -7.808,5.952c-2.944,1.856 -6.272,2.624 -9.728,1.728c-3.392,-0.832 -4.864,-2.688 -4.928,-6.144l0,-3.52c-0.512,0.256 -1.024,0.448 -1.408,0.768c-2.112,1.792 -4.16,3.712 -6.4,5.376c-2.496,1.792 -5.376,2.56 -8.512,2.304c-3.456,-0.32 -4.992,-2.112 -4.544,-5.568c0.064,-0.32 0.064,-0.64 0.192,-0.896c1.472,-4.928 3.712,-9.472 7.36,-13.184c2.24,-2.368 4.992,-3.584 8.32,-3.328c2.752,0.128 3.84,1.216 3.52,3.968c-0.32,3.008 -1.344,5.824 -3.2,8.256c-0.256,0.384 -0.704,0.576 -1.408,1.152c-0.064,-0.96 -0.192,-1.536 -0.064,-1.984c0.576,-1.92 1.28,-3.776 1.856,-5.696c0.512,-1.792 0.512,-1.792 -0.064,-3.712c-0.96,-0.448 -1.792,0 -2.496,0.512c-0.896,0.704 -1.856,1.536 -2.56,2.432c-2.752,3.52 -4.608,7.488 -5.504,11.84c-0.256,1.216 -0.256,1.216 0.448,2.88c1.088,0.128 1.984,-0.512 2.944,-1.088c4.8,-3.008 9.088,-6.784 13.44,-10.496c0.576,-0.512 0.96,-1.216 1.344,-1.92c4.288,-7.36 9.536,-14.016 15.104,-20.416c2.304,-2.624 4.8,-5.056 7.296,-7.488c1.472,-1.472 3.264,-2.624 5.376,-2.944l0.896,-0.192c3.968,-0.384 5.696,1.728 4.352,5.44c-0.384,1.152 -0.896,2.176 -1.472,3.264c-3.584,6.592 -8,12.608 -12.992,18.176c-1.408,1.6 -3.008,3.008 -4.608,4.352c-0.704,0.576 -1.664,1.024 -2.624,1.344c-0.512,0.128 -1.216,-0.256 -1.792,-0.384c0.064,-1.408 0.96,-1.92 1.6,-2.688c3.2,-3.52 6.528,-6.976 9.6,-10.688c2.368,-2.88 4.544,-6.016 6.72,-9.152c0.832,-1.216 1.408,-2.624 2.048,-3.968c0.384,-0.96 0.704,-2.048 0,-3.2c-1.472,0.576 -2.368,1.664 -3.2,2.752c-4.032,5.312 -8.128,10.56 -11.968,16c-2.304,3.328 -4.352,6.912 -6.336,10.496c-1.728,3.264 -2.944,6.784 -3.456,10.432c-0.192,1.216 -0.192,2.368 0.64,3.52c2.56,-0.704 4.736,-2.176 6.784,-3.776c4.736,-3.712 9.472,-7.552 14.272,-11.328c2.944,-2.304 0.128,-0.064 3.136,-2.368c1.088,-0.832 2.24,-1.6 3.648,-1.792l0.512,0.576Z" style="fill:#c3cfe2;fill-rule:nonzero;"/><path d="M1019.9,100.483l-1.728,2.368c-1.152,1.6 -2.304,3.136 -3.52,4.736c-0.128,0.256 -0.256,0.576 -0.512,0.704c-0.448,0.256 -1.088,0.704 -1.536,0.512c-0.32,-0.128 -0.576,-0.896 -0.704,-1.408c-0.064,-0.32 0.128,-0.768 0.32,-1.088c1.024,-1.728 1.984,-3.456 3.136,-4.992c1.024,-1.28 2.368,-1.728 4.544,-0.832Zm-11.904,35.456c1.984,-1.024 3.392,-2.112 4.736,-3.328c6.016,-5.312 7.296,-5.056 13.312,-10.432c1.152,-1.024 2.24,-1.984 3.392,-2.944c0.448,-0.384 0.96,-0.512 1.984,-1.024c-0.32,1.024 -0.384,1.6 -0.704,1.984c-1.024,1.344 -2.24,2.56 -3.328,3.776c-3.136,3.52 -0.576,0.832 -3.776,4.288c-2.368,2.56 -5.632,5.696 -8.192,8.064c-1.344,1.216 -3.072,2.176 -4.736,3.072c-1.728,0.96 -3.648,0.896 -5.504,0.64c-2.432,-0.384 -3.712,-1.792 -3.648,-4.352c0.064,-1.536 0.32,-3.136 0.64,-4.672c0.96,-4.48 3.008,-8.448 5.504,-12.224c0.576,-0.768 1.28,-1.536 2.112,-2.048c0.704,-0.576 1.664,-0.704 2.496,-0.064c0.896,0.576 0.448,1.408 0.192,2.176c-0.832,2.304 -1.856,4.608 -2.56,6.976c-0.768,2.752 -1.344,5.632 -2.048,8.448c-0.064,0.32 0.064,0.768 0.128,1.664Z" style="fill:#c3cfe2;fill-rule:nonzero;"/><path d="M1040.95,124.035c-1.984,1.152 -3.52,2.048 -5.056,2.88c-2.24,1.216 -4.608,1.856 -7.168,1.536c-0.896,-0.128 -1.792,-0.32 -2.56,-0.704c-1.536,-0.768 -2.112,-2.176 -1.664,-3.776c0.192,-0.704 0.512,-1.344 0.832,-1.92c1.664,-2.688 3.776,-4.928 6.528,-6.464c1.6,-0.896 3.328,-1.344 5.184,-1.216c1.856,0.192 2.88,1.408 2.56,3.264c-0.192,1.344 -0.704,2.624 -1.216,4.288c3.648,-2.496 6.72,-5.184 9.536,-8.128c0.576,-0.576 1.088,-1.216 1.728,-1.664c0.96,-0.704 2.304,-0.64 3.072,0.064c0.768,0.704 0.512,1.664 0.128,2.432c-1.344,3.008 -2.688,6.016 -4.096,9.024c-0.576,1.216 -1.28,2.432 -2.112,4.096c0.832,-0.256 1.344,-0.384 1.792,-0.64c5.12,-2.432 10.176,-4.992 15.36,-7.424c0.96,-0.512 2.048,-1.216 3.456,-0.576c-0.384,1.28 -1.536,1.536 -2.432,1.984c-5.056,2.688 -10.048,5.376 -15.104,7.936c-3.648,1.792 -6.208,4.224 -8.064,7.936c-3.328,6.464 -7.168,12.672 -10.944,18.88c-2.56,4.288 -5.632,8.256 -9.216,11.712c-1.536,1.408 -3.2,2.752 -4.928,3.904c-2.112,1.344 -4.48,1.664 -6.912,1.216c-2.368,-0.384 -3.52,-1.792 -3.328,-4.16c0.128,-1.536 0.512,-3.2 1.152,-4.608c1.088,-2.432 2.304,-4.864 3.84,-7.04c4.992,-7.36 11.328,-13.44 18.56,-18.432c3.84,-2.624 6.848,-5.696 8.768,-9.856c0.576,-1.152 1.344,-2.24 1.984,-3.328c0.064,-0.192 0.064,-0.384 0.32,-1.216Zm-4.096,-1.152c-0.448,-1.472 -0.448,-1.472 0.064,-3.008c0.448,-1.28 1.088,-2.56 0.128,-3.84c-2.624,0.32 -5.12,2.24 -6.848,5.12c-0.896,1.472 -1.536,3.008 -0.64,4.672c2.56,-0.064 4.032,-0.704 7.296,-2.944Zm-25.216,46.912c0.96,-0.64 1.664,-0.96 2.176,-1.472c1.408,-1.536 2.88,-3.072 4.096,-4.736c4.928,-6.656 8.832,-13.952 12.928,-21.12c0.064,-0.128 -0.064,-0.32 -0.192,-0.704c-5.76,4.928 -11.008,10.176 -14.976,16.576c-1.344,2.176 -2.432,4.544 -3.456,6.912c-0.576,1.216 -1.088,2.56 -0.576,4.544Z" style="fill:#c3cfe2;fill-rule:nonzero;"/><path d="M1075.26,100.483l-1.728,2.368c-1.152,1.6 -2.304,3.136 -3.52,4.736c-0.128,0.256 -0.256,0.576 -0.512,0.704c-0.448,0.256 -1.088,0.704 -1.536,0.512c-0.32,-0.128 -0.576,-0.896 -0.704,-1.408c-0.064,-0.32 0.128,-0.768 0.32,-1.088c1.024,-1.728 1.984,-3.456 3.136,-4.992c1.024,-1.28 2.368,-1.728 4.544,-0.832Zm-11.904,35.456c1.984,-1.024 3.392,-2.112 4.736,-3.328c6.016,-5.312 7.296,-5.056 13.312,-10.432c1.152,-1.024 2.24,-1.984 3.392,-2.944c0.448,-0.384 0.96,-0.512 1.984,-1.024c-0.32,1.024 -0.384,1.6 -0.704,1.984c-1.024,1.344 -2.24,2.56 -3.328,3.776c-3.136,3.52 -0.576,0.832 -3.776,4.288c-2.368,2.56 -5.632,5.696 -8.192,8.064c-1.344,1.216 -3.072,2.176 -4.736,3.072c-1.728,0.96 -3.648,0.896 -5.504,0.64c-2.432,-0.384 -3.712,-1.792 -3.648,-4.352c0.064,-1.536 0.32,-3.136 0.64,-4.672c0.96,-4.48 3.008,-8.448 5.504,-12.224c0.576,-0.768 1.28,-1.536 2.112,-2.048c0.704,-0.576 1.664,-0.704 2.496,-0.064c0.896,0.576 0.448,1.408 0.192,2.176c-0.832,2.304 -1.856,4.608 -2.56,6.976c-0.768,2.752 -1.344,5.632 -2.048,8.448c-0.064,0.32 0.064,0.768 0.128,1.664Z" style="fill:#c3cfe2;fill-rule:nonzero;"/><path d="M1084.79,136.707c0.768,-0.384 1.536,-0.576 2.112,-1.024c1.856,-1.472 3.776,-2.944 5.504,-4.608c4.224,-4.032 8.384,-8.256 12.544,-12.352c0.576,-0.576 1.216,-1.088 1.856,-1.536c0.192,-0.128 0.768,0.128 1.024,0.32c0.192,0.128 0.256,0.64 0.128,0.832c-0.32,0.576 -0.768,1.152 -1.216,1.728c-4.288,5.056 -8.576,10.176 -12.992,15.168c-1.344,1.472 -2.944,2.688 -4.608,3.84c-1.984,1.344 -4.288,1.6 -6.592,1.28c-2.304,-0.32 -3.52,-1.536 -3.904,-3.84c-0.384,-2.304 -0.064,-4.608 0.576,-6.784c1.536,-5.312 3.904,-10.24 6.4,-15.104l1.344,-2.816c-2.944,-0.256 -5.632,2.176 -8.192,-0.064c0.192,-1.472 1.28,-1.728 2.176,-2.048c1.984,-0.576 3.968,-1.216 6.016,-1.536c1.856,-0.256 3.008,-1.152 3.904,-2.752c1.792,-3.008 3.712,-5.952 5.632,-8.832c0.64,-1.024 1.408,-1.92 2.24,-2.816c0.96,-1.024 1.28,-0.96 3.264,-0.512c0.32,1.152 -0.448,2.048 -0.896,3.008c-1.28,2.432 -2.688,4.928 -3.968,7.36c-0.384,0.704 -0.704,1.408 -1.024,2.176c1.28,0.768 3.136,-0.448 4.096,1.28c-0.768,1.28 -2.048,1.408 -3.136,1.6c-2.176,0.32 -3.52,1.408 -4.48,3.456c-2.112,4.672 -4.416,9.344 -6.592,14.016c-1.088,2.368 -1.792,4.864 -1.856,7.552c0,0.96 -0.064,1.92 0.64,3.008Z" style="fill:#c3cfe2;fill-rule:nonzero;"/><path d="M1114.36,126.147c1.28,-0.64 1.664,-1.536 2.176,-2.24c1.088,-1.6 2.112,-3.264 3.328,-4.672c1.408,-1.728 3.2,-1.664 5.056,0c-0.448,0.896 -0.896,1.92 -1.408,2.944c-1.92,3.648 -3.84,7.424 -4.928,11.392c-0.384,1.28 -0.704,2.496 -0.448,4.096c0.576,-0.32 1.024,-0.384 1.408,-0.64c0.448,-0.256 0.896,-0.576 1.28,-0.96c7.424,-6.208 13.44,-11.008 20.864,-17.28c0.704,-0.512 1.344,-1.024 2.496,-1.92c-0.192,0.96 -0.192,1.408 -0.384,1.6c-0.64,0.832 -1.344,1.6 -2.112,2.368c-2.176,2.112 -3.008,2.624 -5.184,4.8c-2.24,2.24 -4.416,4.608 -6.592,6.976c-2.176,2.304 -4.544,4.544 -7.168,6.4c-1.792,1.216 -3.712,1.792 -5.888,1.728c-2.944,-0.192 -4.608,-1.664 -4.736,-4.672c-0.064,-0.448 0,-0.832 0,-1.664c-0.832,0.832 -1.216,1.344 -1.728,1.792c-1.664,1.536 -3.328,3.136 -5.12,4.48c-2.752,1.984 -5.952,2.752 -9.408,2.048c-3.072,-0.576 -4.352,-2.176 -3.968,-5.248c0.064,-1.088 0.32,-2.24 0.768,-3.264c2.176,-5.184 5.184,-9.792 9.216,-13.696c2.304,-2.176 4.864,-3.712 7.936,-4.288c1.088,-0.192 2.304,-0.192 3.328,0c1.92,0.32 2.944,1.472 2.944,3.456c-0.064,1.28 -0.448,2.56 -0.704,3.776c-0.192,0.832 -0.576,1.6 -1.024,2.688Zm-15.36,13.12c0.64,-0.256 1.152,-0.512 1.728,-0.768c6.336,-3.584 10.24,-9.088 12.288,-16.064c0.192,-0.896 0.256,-1.856 0.192,-2.752c-0.064,-0.832 -0.384,-1.536 -1.344,-1.856c-1.536,0.384 -3.008,1.152 -4.16,2.368c-4.48,4.544 -7.616,9.856 -9.088,16c-0.256,0.96 -0.384,1.92 0.384,3.072Z" style="fill:#c3cfe2;fill-rule:nonzero;"/><path d="M1140.41,136.899c1.728,0 3.136,-0.768 4.416,-1.6c2.496,-1.728 9.024,-7.616 11.328,-9.472c2.368,-1.856 4.48,-3.968 6.72,-5.952c0.832,-0.64 1.6,-1.536 3.136,-0.96c-0.384,0.704 -0.576,1.408 -1.024,1.792c-3.776,3.84 -11.584,11.904 -15.552,15.552c-3.072,2.88 -6.912,4.288 -11.2,4.032c-3.648,-0.256 -5.504,-2.048 -5.696,-5.632c-0.128,-2.176 0.256,-4.352 0.96,-6.464c1.728,-5.632 4.48,-10.816 7.616,-15.808c3.2,-5.056 6.72,-9.856 10.56,-14.464c3.072,-3.584 6.4,-6.848 10.112,-9.728c1.984,-1.536 4.096,-2.816 6.592,-3.328c4.608,-0.832 6.784,1.28 5.888,5.824c-0.256,1.344 -0.768,2.752 -1.536,3.84c-5.184,8.064 -12.352,13.696 -21.376,16.896c-1.92,0.64 -3.2,1.6 -4.224,3.392c-2.496,4.416 -4.928,8.832 -6.528,13.696c-0.448,1.408 -0.704,2.88 -1.024,4.352c-0.256,1.408 0.064,2.752 0.832,4.032Zm10.944,-28.224c5.76,-2.24 13.632,-8.256 16.832,-12.608c1.28,-1.728 2.176,-3.584 2.496,-5.696c0.128,-1.024 0.384,-2.176 -0.448,-3.072c-4.544,1.728 -13.632,11.968 -18.88,21.376Z" style="fill:#c3cfe2;fill-rule:nonzero;"/><path d="M1191.67,118.275c-0.256,1.664 -1.152,2.24 -1.856,2.816c-7.936,6.72 -8.768,8.064 -13.376,11.52c-3.072,2.496 -6.4,4.672 -9.728,6.848c-2.496,1.664 -5.248,2.432 -8.256,2.56c-1.024,-0.064 -2.112,-0.192 -3.2,-0.512c-1.536,-0.448 -2.56,-1.6 -2.56,-3.2c0,-1.536 0.128,-3.072 0.512,-4.48c2.176,-6.592 6.208,-11.968 11.584,-16.384c1.536,-1.28 3.328,-2.112 5.504,-1.984c2.88,0.128 3.776,1.408 2.496,4.032c-1.28,2.816 -2.944,5.248 -5.376,7.104c-1.536,1.216 -3.264,2.304 -4.992,3.264c-1.088,0.576 -1.664,1.28 -1.984,2.432c-0.512,1.792 -1.024,3.584 -0.256,5.376c1.28,0.448 2.176,-0.128 2.944,-0.64c2.432,-1.408 4.8,-2.816 7.104,-4.48c7.488,-5.504 4.544,-2.624 12.096,-8.192c2.176,-1.6 4.416,-3.072 6.592,-4.608c0.704,-0.512 1.536,-0.832 2.752,-1.472Zm-21.248,-1.152c-2.112,0.704 -3.072,2.496 -4.16,3.968c-2.304,2.944 -2.496,3.392 -2.816,5.312c2.88,-1.408 5.056,-3.52 6.528,-6.208c0.512,-0.832 1.088,-1.728 0.448,-3.072Z" style="fill:#c3cfe2;fill-rule:nonzero;"/><path d="M1213.5,117.251c-0.256,1.664 -1.216,2.432 -2.112,3.136c-2.432,2.048 -4.864,4.096 -7.36,6.08c-3.392,2.752 -6.848,5.504 -10.368,8.128c-1.536,1.216 -2.24,2.496 -2.112,4.544c0.384,6.4 -0.896,12.48 -3.456,18.304c-1.088,2.432 -2.304,4.672 -4.032,6.656c-1.792,1.984 -3.84,3.456 -6.528,3.968c-0.64,0.128 -1.344,0.256 -2.048,0.256c-3.136,0 -4.736,-1.6 -4.992,-4.736c-0.192,-2.688 0.256,-5.376 1.024,-7.936c1.088,-3.392 2.88,-6.4 5.056,-9.088c1.792,-2.304 3.648,-4.544 5.76,-6.464c1.664,-1.536 2.24,-3.136 2.112,-5.248c-0.192,-2.368 -0.128,-4.8 0,-7.168c0.128,-4.928 1.984,-9.088 5.568,-12.48c0.896,-0.896 2.048,-1.6 3.136,-2.176c0.896,-0.512 1.92,-0.704 3.072,0.064c-2.688,3.264 -4.992,6.656 -5.44,11.008c-0.256,2.688 0.064,5.312 0.512,8.192c1.856,-0.704 3.2,-1.856 4.672,-2.816c1.472,-0.96 2.944,-1.984 4.416,-3.008l4.224,-2.88c1.472,-1.088 2.88,-2.176 4.352,-3.2c1.408,-0.96 2.496,-2.496 4.544,-3.136Zm-29.568,27.2c-3.136,2.816 -5.44,6.272 -7.104,10.112c-1.088,2.56 -1.92,5.184 -2.048,8.064c0,1.024 -0.128,2.176 0.704,3.2c2.048,-0.512 3.008,-1.984 3.776,-3.584c2.752,-5.568 4.416,-11.456 4.672,-17.792Z" style="fill:#c3cfe2;fill-rule:nonzero;"/></g><defs><linearGradient id="_Linear1" x1="0" y1="0" x2="1" y2="0" gradientUnits="userSpaceOnUse" gradientTransform="matrix(787.131,0,0,84.6094,208.162,61.4246)"><stop offset="0" style="stop-color:#3980b4;stop-opacity:1"/><stop offset="0.56" style="stop-color:#9ab8d4;stop-opacity:1"/><stop offset="1" style="stop-color:#c3cfe2;stop-opacity:1"/></linearGradient><linearGradient id="_Linear2" x1="0" y1="0" x2="1" y2="0" gradientUnits="userSpaceOnUse" gradientTransform="matrix(787.131,0,0,84.6094,208.162,61.4246)"><stop offset="0" style="stop-color:#3980b4;stop-opacity:1"/><stop offset="0.56" style="stop-color:#9ab8d4;stop-opacity:1"/><stop offset="1" style="stop-color:#c3cfe2;stop-opacity:1"/></linearGradient><linearGradient id="_Linear3" x1="0" y1="0" x2="1" y2="0" gradientUnits="userSpaceOnUse" gradientTransform="matrix(787.131,0,0,84.6094,208.162,61.4246)"><stop offset="0" style="stop-color:#3980b4;stop-opacity:1"/><stop offset="0.56" style="stop-color:#9ab8d4;stop-opacity:1"/><stop offset="1" style="stop-color:#c3cfe2;stop-opacity:1"/></linearGradient><linearGradient id="_Linear4" x1="0" y1="0" x2="1" y2="0" gradientUnits="userSpaceOnUse" gradientTransform="matrix(787.131,0,0,84.6094,208.162,61.4246)"><stop offset="0" style="stop-color:#3980b4;stop-opacity:1"/><stop offset="0.56" style="stop-color:#9ab8d4;stop-opacity:1"/><stop offset="1" style="stop-color:#c3cfe2;stop-opacity:1"/></linearGradient><linearGradient id="_Linear5" x1="0" y1="0" x2="1" y2="0" gradientUnits="userSpaceOnUse" gradientTransform="matrix(787.131,0,0,84.6094,208.162,61.4246)"><stop offset="0" style="stop-color:#3980b4;stop-opacity:1"/><stop offset="0.56" style="stop-color:#9ab8d4;stop-opacity:1"/><stop offset="1" style="stop-color:#c3cfe2;stop-opacity:1"/></linearGradient><linearGradient id="_Linear6" x1="0" y1="0" x2="1" y2="0" gradientUnits="userSpaceOnUse" gradientTransform="matrix(787.131,0,0,84.6094,208.162,61.4246)"><stop offset="0" style="stop-color:#3980b4;stop-opacity:1"/><stop offset="0.56" style="stop-color:#9ab8d4;stop-opacity:1"/><stop offset="1" style="stop-color:#c3cfe2;stop-opacity:1"/></linearGradient><linearGradient id="_Linear7" x1="0" y1="0" x2="1" y2="0" gradientUnits="userSpaceOnUse" gradientTransform="matrix(787.131,0,0,84.6094,208.162,61.4246)"><stop offset="0" style="stop-color:#3980b4;stop-opacity:1"/><stop offset="0.56" style="stop-color:#9ab8d4;stop-opacity:1"/><stop offset="1" style="stop-color:#c3cfe2;stop-opacity:1"/></linearGradient><linearGradient id="_Linear8" x1="0" y1="0" x2="1" y2="0" gradientUnits="userSpaceOnUse" gradientTransform="matrix(787.131,0,0,84.6094,208.162,61.4246)"><stop offset="0" style="stop-color:#3980b4;stop-opacity:1"/><stop offset="0.56" style="stop-color:#9ab8d4;stop-opacity:1"/><stop offset="1" style="stop-color:#c3cfe2;stop-opacity:1"/></linearGradient><linearGradient id="_Linear9" x1="0" y1="0" x2="1" y2="0" gradientUnits="userSpaceOnUse" gradientTransform="matrix(787.131,0,0,84.6094,208.162,61.4246)"><stop offset="0" style="stop-color:#3980b4;stop-opacity:1"/><stop offset="0.56" style="stop-color:#9ab8d4;stop-opacity:1"/><stop offset="1" style="stop-color:#c3cfe2;stop-opacity:1"/></linearGradient><linearGradient id="_Linear10" x1="0" y1="0" x2="1" y2="0" gradientUnits="userSpaceOnUse" gradientTransform="matrix(787.131,0,0,84.6094,208.162,61.4246)"><stop offset="0" style="stop-color:#3980b4;stop-opacity:1"/><stop offset="0.56" style="stop-color:#9ab8d4;stop-opacity:1"/><stop offset="1" style="stop-color:#c3cfe2;stop-opacity:1"/></linearGradient><linearGradient id="_Linear11" x1="0" y1="0" x2="1" y2="0" gradientUnits="userSpaceOnUse" gradientTransform="matrix(787.131,0,0,84.6094,208.162,61.4246)"><stop offset="0" style="stop-color:#3980b4;stop-opacity:1"/><stop offset="0.56" style="stop-color:#9ab8d4;stop-opacity:1"/><stop offset="1" style="stop-color:#c3cfe2;stop-opacity:1"/></linearGradient><linearGradient id="_Linear12" x1="0" y1="0" x2="1" y2="0" gradientUnits="userSpaceOnUse" gradientTransform="matrix(787.131,0,0,84.6094,208.162,61.4246)"><stop offset="0" style="stop-color:#3980b4;stop-opacity:1"/><stop offset="0.56" style="stop-color:#9ab8d4;stop-opacity:1"/><stop offset="1" style="stop-color:#c3cfe2;stop-opacity:1"/></linearGradient><linearGradient id="_Linear13" x1="0" y1="0" x2="1" y2="0" gradientUnits="userSpaceOnUse" gradientTransform="matrix(787.131,0,0,84.6094,208.162,61.4246)"><stop offset="0" style="stop-color:#3980b4;stop-opacity:1"/><stop offset="0.56" style="stop-color:#9ab8d4;stop-opacity:1"/><stop offset="1" style="stop-color:#c3cfe2;stop-opacity:1"/></linearGradient><linearGradient id="_Linear14" x1="0" y1="0" x2="1" y2="0" gradientUnits="userSpaceOnUse" gradientTransform="matrix(787.131,0,0,84.6094,208.162,61.4246)"><stop offset="0" style="stop-color:#3980b4;stop-opacity:1"/><stop offset="0.56" style="stop-color:#9ab8d4;stop-opacity:1"/><stop offset="1" style="stop-color:#c3cfe2;stop-opacity:1"/></linearGradient><linearGradient id="_Linear15" x1="0" y1="0" x2="1" y2="0" gradientUnits="userSpaceOnUse" gradientTransform="matrix(787.131,0,0,84.6094,208.162,61.4246)"><stop offset="0" style="stop-color:#3980b4;stop-opacity:1"/><stop offset="0.56" style="stop-color:#9ab8d4;stop-opacity:1"/><stop offset="1" style="stop-color:#c3cfe2;stop-opacity:1"/></linearGradient><linearGradient id="_Linear16" x1="0" y1="0" x2="1" y2="0" gradientUnits="userSpaceOnUse" gradientTransform="matrix(787.131,0,0,84.6094,208.162,61.4246)"><stop offset="0" style="stop-color:#3980b4;stop-opacity:1"/><stop offset="0.56" style="stop-color:#9ab8d4;stop-opacity:1"/><stop offset="1" style="stop-color:#c3cfe2;stop-opacity:1"/></linearGradient></defs></svg>