<?xml version="1.0" encoding="UTF-8" standalone="no"?><!DOCTYPE svg PUBLIC "-//W3C//DTD SVG 1.1//EN" "http://www.w3.org/Graphics/SVG/1.1/DTD/svg11.dtd"><svg width="100%" height="100%" viewBox="0 0 600 55" version="1.1" xmlns="http://www.w3.org/2000/svg" xmlns:xlink="http://www.w3.org/1999/xlink" xml:space="preserve" xmlns:serif="http://www.serif.com/" style="fill-rule:evenodd;clip-rule:evenodd;stroke-linejoin:round;stroke-miterlimit:1.41421;"><g><path d="M174.358,2.952l0,28.459l-6.468,0l0,-19.213l-2.584,19.213l-4.588,0l-2.725,-18.773l0,18.773l-6.469,0l0,-28.459l9.581,0c0.281,1.711 0.58,3.727 0.896,6.047l1.02,7.242l1.687,-13.289l9.65,0Z" style="fill-rule:nonzero;"/><path d="M193.378,8.085l0,23.326l-7.225,0l0.123,-1.934c-0.492,0.786 -1.098,1.374 -1.819,1.767c-0.721,0.393 -1.55,0.589 -2.487,0.589c-1.067,0 -1.951,-0.188 -2.655,-0.563c-0.703,-0.375 -1.221,-0.873 -1.555,-1.494c-0.334,-0.621 -0.542,-1.268 -0.624,-1.942c-0.082,-0.674 -0.123,-2.013 -0.123,-4.017l0,-15.732l7.101,0l0,15.873c0,1.816 0.056,2.894 0.167,3.234c0.112,0.34 0.413,0.51 0.906,0.51c0.527,0 0.84,-0.176 0.94,-0.527c0.1,-0.352 0.149,-1.483 0.149,-3.393l0,-15.697l7.102,0Z" style="fill-rule:nonzero;"/><path d="M210.429,15.538l-6.293,0l0,-1.266c0,-1.078 -0.062,-1.76 -0.185,-2.048c-0.123,-0.287 -0.43,-0.43 -0.923,-0.43c-0.398,0 -0.697,0.132 -0.896,0.395c-0.199,0.264 -0.299,0.659 -0.299,1.187c0,0.715 0.05,1.239 0.149,1.573c0.1,0.334 0.399,0.7 0.897,1.099c0.498,0.398 1.52,0.978 3.067,1.74c2.063,1.008 3.416,1.957 4.061,2.848c0.644,0.89 0.967,2.185 0.967,3.884c0,1.899 -0.246,3.331 -0.739,4.298c-0.492,0.967 -1.315,1.711 -2.469,2.233c-1.155,0.521 -2.546,0.782 -4.175,0.782c-1.805,0 -3.349,-0.281 -4.632,-0.844c-1.283,-0.562 -2.165,-1.324 -2.645,-2.285c-0.481,-0.961 -0.721,-2.414 -0.721,-4.359l0,-1.125l6.293,0l0,1.476c0,1.254 0.079,2.068 0.237,2.443c0.158,0.375 0.472,0.563 0.941,0.563c0.503,0 0.855,-0.126 1.054,-0.378c0.199,-0.252 0.299,-0.782 0.299,-1.591c0,-1.113 -0.129,-1.81 -0.387,-2.092c-0.269,-0.281 -1.646,-1.113 -4.131,-2.496c-2.085,-1.172 -3.357,-2.235 -3.814,-3.19c-0.457,-0.955 -0.686,-2.089 -0.686,-3.401c0,-1.864 0.247,-3.238 0.739,-4.123c0.492,-0.884 1.327,-1.567 2.505,-2.047c1.177,-0.481 2.546,-0.721 4.104,-0.721c1.547,0 2.862,0.196 3.946,0.589c1.084,0.392 1.916,0.911 2.497,1.555c0.58,0.645 0.931,1.243 1.054,1.793c0.123,0.551 0.185,1.413 0.185,2.584l0,1.354Z" style="fill-rule:nonzero;"/><path d="M228.956,20.161l-9.193,0l0,5.045c0,1.055 0.076,1.734 0.228,2.039c0.153,0.305 0.446,0.457 0.879,0.457c0.539,0 0.9,-0.202 1.081,-0.606c0.182,-0.405 0.273,-1.187 0.273,-2.347l0,-3.076l6.732,0l0,1.722c0,1.442 -0.091,2.549 -0.272,3.323c-0.182,0.773 -0.607,1.599 -1.275,2.478c-0.668,0.879 -1.514,1.538 -2.54,1.978c-1.025,0.439 -2.311,0.659 -3.858,0.659c-1.5,0 -2.824,-0.217 -3.973,-0.651c-1.148,-0.433 -2.042,-1.028 -2.681,-1.784c-0.638,-0.756 -1.081,-1.588 -1.327,-2.496c-0.246,-0.908 -0.369,-2.229 -0.369,-3.964l0,-6.802c0,-2.039 0.276,-3.648 0.826,-4.826c0.551,-1.177 1.453,-2.08 2.707,-2.707c1.254,-0.627 2.696,-0.94 4.325,-0.94c1.992,0 3.635,0.378 4.93,1.134c1.295,0.756 2.203,1.758 2.725,3.006c0.521,1.248 0.782,3.002 0.782,5.264l0,3.094Zm-7.119,-3.797l0,-1.705c0,-1.207 -0.064,-1.986 -0.193,-2.338c-0.129,-0.351 -0.393,-0.527 -0.791,-0.527c-0.493,0 -0.797,0.149 -0.914,0.448c-0.118,0.299 -0.176,1.105 -0.176,2.417l0,1.705l2.074,0Z" style="fill-rule:nonzero;"/><path d="M247.343,16.276l0,5.713c0,2.098 -0.106,3.636 -0.317,4.614c-0.211,0.979 -0.662,1.893 -1.353,2.743c-0.691,0.849 -1.579,1.476 -2.663,1.88c-1.084,0.405 -2.329,0.607 -3.736,0.607c-1.57,0 -2.9,-0.173 -3.99,-0.519c-1.09,-0.345 -1.936,-0.867 -2.54,-1.564c-0.603,-0.697 -1.034,-1.541 -1.292,-2.531c-0.258,-0.991 -0.387,-2.476 -0.387,-4.456l0,-5.977c0,-2.168 0.235,-3.861 0.704,-5.08c0.468,-1.219 1.312,-2.197 2.531,-2.936c1.219,-0.738 2.777,-1.107 4.676,-1.107c1.593,0 2.962,0.237 4.104,0.712c1.143,0.474 2.025,1.093 2.646,1.854c0.621,0.762 1.046,1.547 1.274,2.356c0.229,0.808 0.343,2.039 0.343,3.691Zm-7.102,-1.758c0,-1.195 -0.064,-1.948 -0.193,-2.258c-0.129,-0.311 -0.404,-0.466 -0.826,-0.466c-0.422,0 -0.703,0.155 -0.844,0.466c-0.141,0.31 -0.211,1.063 -0.211,2.258l0,10.53c0,1.101 0.07,1.819 0.211,2.153c0.141,0.334 0.416,0.501 0.826,0.501c0.422,0 0.7,-0.152 0.835,-0.457c0.135,-0.305 0.202,-0.961 0.202,-1.969l0,-10.758Z" style="fill-rule:nonzero;"/><path d="M269.017,2.952l4.236,28.459l-7.576,0l-0.369,-5.115l-2.655,0l-0.439,5.115l-7.664,0l3.762,-28.459l10.705,0Zm-3.92,18.299c-0.375,-3.223 -0.75,-7.201 -1.125,-11.936c-0.75,5.438 -1.219,9.416 -1.407,11.936l2.532,0Z" style="fill-rule:nonzero;"/><path d="M281.409,8.085l-0.281,3.058c1.031,-2.191 2.525,-3.351 4.482,-3.48l0,8.209c-1.3,0 -2.255,0.176 -2.865,0.527c-0.609,0.352 -0.984,0.841 -1.125,1.468c-0.14,0.627 -0.211,2.071 -0.211,4.333l0,9.211l-7.101,0l0,-23.326l7.101,0Z" style="fill-rule:nonzero;"/><path d="M295.331,4.973l0,3.674l1.916,0l0,3.692l-1.916,0l0,12.48c0,1.535 0.079,2.391 0.237,2.567c0.159,0.175 0.818,0.263 1.978,0.263l0,3.762l-2.865,0c-1.617,0 -2.772,-0.067 -3.463,-0.202c-0.692,-0.135 -1.301,-0.445 -1.828,-0.932c-0.528,-0.486 -0.856,-1.043 -0.985,-1.67c-0.129,-0.627 -0.193,-2.1 -0.193,-4.421l0,-11.847l-1.529,0l0,-3.692l1.529,0l0,-3.674l7.119,0Z" style="fill-rule:nonzero;"/><path d="M314.896,20.161l-9.194,0l0,5.045c0,1.055 0.076,1.734 0.229,2.039c0.152,0.305 0.445,0.457 0.879,0.457c0.539,0 0.899,-0.202 1.081,-0.606c0.181,-0.405 0.272,-1.187 0.272,-2.347l0,-3.076l6.733,0l0,1.722c0,1.442 -0.091,2.549 -0.273,3.323c-0.182,0.773 -0.606,1.599 -1.274,2.478c-0.668,0.879 -1.515,1.538 -2.54,1.978c-1.026,0.439 -2.312,0.659 -3.859,0.659c-1.5,0 -2.824,-0.217 -3.972,-0.651c-1.149,-0.433 -2.042,-1.028 -2.681,-1.784c-0.639,-0.756 -1.081,-1.588 -1.327,-2.496c-0.246,-0.908 -0.369,-2.229 -0.369,-3.964l0,-6.802c0,-2.039 0.275,-3.648 0.826,-4.826c0.551,-1.177 1.453,-2.08 2.707,-2.707c1.254,-0.627 2.695,-0.94 4.324,-0.94c1.992,0 3.636,0.378 4.931,1.134c1.295,0.756 2.203,1.758 2.724,3.006c0.522,1.248 0.783,3.002 0.783,5.264l0,3.094Zm-7.12,-3.797l0,-1.705c0,-1.207 -0.064,-1.986 -0.193,-2.338c-0.129,-0.351 -0.393,-0.527 -0.791,-0.527c-0.492,0 -0.797,0.149 -0.914,0.448c-0.117,0.299 -0.176,1.105 -0.176,2.417l0,1.705l2.074,0Z" style="fill-rule:nonzero;"/><path d="M338.433,8.085l-2.039,16.875c-0.317,2.672 -0.583,4.494 -0.8,5.467c-0.217,0.972 -0.577,1.775 -1.081,2.408c-0.504,0.633 -1.204,1.098 -2.101,1.397c-0.896,0.299 -2.329,0.448 -4.298,0.448l-4.306,0l0,-3.726c1.101,0 1.81,-0.056 2.127,-0.167c0.316,-0.111 0.474,-0.36 0.474,-0.747c0,-0.188 -0.146,-1.002 -0.439,-2.443l-3.885,-19.512l6.451,0l2.321,15.732l1.125,-15.732l6.451,0Z" style="fill-rule:nonzero;"/><path d="M363.534,15.362l-7.4,0l0,-4.957c0,-1.441 -0.079,-2.341 -0.237,-2.698c-0.159,-0.358 -0.507,-0.536 -1.046,-0.536c-0.61,0 -0.996,0.217 -1.161,0.65c-0.164,0.434 -0.246,1.371 -0.246,2.813l0,13.218c0,1.383 0.082,2.286 0.246,2.707c0.165,0.422 0.534,0.633 1.108,0.633c0.551,0 0.911,-0.211 1.081,-0.633c0.17,-0.421 0.255,-1.412 0.255,-2.97l0,-3.569l7.4,0l0,1.108c0,2.941 -0.208,5.027 -0.624,6.258c-0.416,1.23 -1.336,2.308 -2.76,3.234c-1.423,0.926 -3.178,1.389 -5.264,1.389c-2.168,0 -3.955,-0.393 -5.362,-1.178c-1.406,-0.785 -2.337,-1.872 -2.794,-3.261c-0.457,-1.389 -0.686,-3.477 -0.686,-6.266l0,-8.315c0,-2.051 0.07,-3.589 0.211,-4.614c0.141,-1.026 0.56,-2.013 1.257,-2.962c0.697,-0.949 1.664,-1.696 2.9,-2.241c1.236,-0.545 2.657,-0.818 4.263,-0.818c2.18,0 3.978,0.422 5.396,1.266c1.418,0.844 2.35,1.895 2.795,3.155c0.446,1.26 0.668,3.22 0.668,5.88l0,2.707Z" style="fill-rule:nonzero;"/><path d="M373.29,2.952l0,3.709l-7.312,0l0,-3.709l7.312,0Zm0,5.133l0,23.326l-7.312,0l0,-23.326l7.312,0Z" style="fill-rule:nonzero;"/><path d="M392.099,8.085l0,23.326l-7.225,0l0.123,-1.934c-0.492,0.786 -1.099,1.374 -1.819,1.767c-0.721,0.393 -1.55,0.589 -2.488,0.589c-1.066,0 -1.951,-0.188 -2.654,-0.563c-0.703,-0.375 -1.221,-0.873 -1.555,-1.494c-0.334,-0.621 -0.542,-1.268 -0.624,-1.942c-0.083,-0.674 -0.124,-2.013 -0.124,-4.017l0,-15.732l7.102,0l0,15.873c0,1.816 0.056,2.894 0.167,3.234c0.111,0.34 0.413,0.51 0.905,0.51c0.528,0 0.841,-0.176 0.941,-0.527c0.099,-0.352 0.149,-1.483 0.149,-3.393l0,-15.697l7.102,0Z" style="fill-rule:nonzero;"/><path d="M410.802,2.952l0,28.459l-7.102,0l0,-1.688c-0.679,0.704 -1.394,1.231 -2.144,1.582c-0.75,0.352 -1.535,0.528 -2.356,0.528c-1.101,0 -2.056,-0.29 -2.865,-0.87c-0.809,-0.58 -1.327,-1.251 -1.556,-2.013c-0.228,-0.762 -0.342,-2.004 -0.342,-3.727l0,-10.916c0,-1.793 0.114,-3.064 0.342,-3.814c0.229,-0.75 0.753,-1.409 1.574,-1.978c0.82,-0.568 1.798,-0.852 2.935,-0.852c0.879,0 1.685,0.158 2.417,0.475c0.733,0.316 1.398,0.791 1.995,1.423l0,-6.609l7.102,0Zm-7.102,11.004c0,-0.856 -0.073,-1.43 -0.219,-1.723c-0.147,-0.293 -0.437,-0.439 -0.871,-0.439c-0.421,0 -0.706,0.132 -0.852,0.395c-0.147,0.264 -0.22,0.853 -0.22,1.767l0,11.426c0,0.949 0.07,1.573 0.211,1.872c0.141,0.299 0.41,0.448 0.809,0.448c0.457,0 0.761,-0.167 0.914,-0.501c0.152,-0.334 0.228,-1.151 0.228,-2.452l0,-10.793Z" style="fill-rule:nonzero;"/><path d="M419.696,17.12l-6.662,0l0,-1.565c0,-1.804 0.208,-3.196 0.624,-4.174c0.416,-0.979 1.251,-1.843 2.505,-2.593c1.254,-0.75 2.883,-1.125 4.887,-1.125c2.402,0 4.213,0.425 5.432,1.274c1.218,0.85 1.951,1.893 2.197,3.129c0.246,1.237 0.369,3.782 0.369,7.638l0,11.707l-6.908,0l0,-2.074c-0.434,0.832 -0.993,1.456 -1.679,1.872c-0.686,0.416 -1.503,0.624 -2.452,0.624c-1.242,0 -2.382,-0.349 -3.419,-1.046c-1.037,-0.697 -1.556,-2.224 -1.556,-4.579l0,-1.916c0,-1.746 0.276,-2.936 0.826,-3.569c0.551,-0.632 1.916,-1.371 4.096,-2.214c2.332,-0.914 3.58,-1.53 3.744,-1.846c0.164,-0.316 0.246,-0.961 0.246,-1.934c0,-1.218 -0.09,-2.012 -0.272,-2.382c-0.182,-0.369 -0.484,-0.553 -0.905,-0.553c-0.481,0 -0.78,0.155 -0.897,0.466c-0.117,0.31 -0.176,1.116 -0.176,2.417l0,2.443Zm2.25,3.199c-1.136,0.832 -1.796,1.529 -1.977,2.092c-0.182,0.562 -0.273,1.371 -0.273,2.426c0,1.207 0.079,1.986 0.238,2.338c0.158,0.351 0.471,0.527 0.94,0.527c0.445,0 0.735,-0.138 0.87,-0.413c0.135,-0.275 0.202,-0.999 0.202,-2.171l0,-4.799Z" style="fill-rule:nonzero;"/><path d="M447.646,2.952l0,28.459l-7.102,0l0,-1.688c-0.68,0.704 -1.395,1.231 -2.145,1.582c-0.75,0.352 -1.535,0.528 -2.355,0.528c-1.102,0 -2.057,-0.29 -2.865,-0.87c-0.809,-0.58 -1.327,-1.251 -1.556,-2.013c-0.228,-0.762 -0.343,-2.004 -0.343,-3.727l0,-10.916c0,-1.793 0.115,-3.064 0.343,-3.814c0.229,-0.75 0.753,-1.409 1.573,-1.978c0.821,-0.568 1.799,-0.852 2.936,-0.852c0.879,0 1.684,0.158 2.417,0.475c0.732,0.316 1.397,0.791 1.995,1.423l0,-6.609l7.102,0Zm-7.102,11.004c0,-0.856 -0.073,-1.43 -0.22,-1.723c-0.146,-0.293 -0.436,-0.439 -0.87,-0.439c-0.422,0 -0.706,0.132 -0.852,0.395c-0.147,0.264 -0.22,0.853 -0.22,1.767l0,11.426c0,0.949 0.07,1.573 0.211,1.872c0.14,0.299 0.41,0.448 0.808,0.448c0.457,0 0.762,-0.167 0.914,-0.501c0.153,-0.334 0.229,-1.151 0.229,-2.452l0,-10.793Z" style="fill-rule:nonzero;"/></g><g><path d="M295.897,50.35c-0.384,0.352 -0.872,0.624 -1.464,0.816c-0.592,0.192 -1.216,0.288 -1.872,0.288c-0.752,0 -1.404,-0.148 -1.956,-0.444c-0.552,-0.296 -1.008,-0.72 -1.368,-1.272c-0.36,-0.552 -0.624,-1.212 -0.792,-1.98c-0.168,-0.768 -0.252,-1.632 -0.252,-2.592c0,-2.048 0.376,-3.608 1.128,-4.68c0.752,-1.072 1.816,-1.608 3.192,-1.608c0.448,0 0.892,0.056 1.332,0.168c0.44,0.112 0.836,0.336 1.188,0.672c0.352,0.336 0.636,0.808 0.852,1.416c0.216,0.608 0.324,1.4 0.324,2.376c0,0.272 -0.012,0.564 -0.036,0.876c-0.024,0.312 -0.052,0.636 -0.084,0.972l-6.096,0c0,0.688 0.056,1.312 0.168,1.872c0.112,0.56 0.288,1.036 0.528,1.428c0.24,0.392 0.548,0.696 0.924,0.912c0.376,0.216 0.844,0.324 1.404,0.324c0.432,0 0.86,-0.08 1.284,-0.24c0.424,-0.16 0.748,-0.352 0.972,-0.576l0.624,1.272Zm-1.344,-6.432c0.032,-1.2 -0.136,-2.08 -0.504,-2.64c-0.368,-0.56 -0.872,-0.84 -1.512,-0.84c-0.736,0 -1.32,0.28 -1.752,0.84c-0.432,0.56 -0.688,1.44 -0.768,2.64l4.536,0Z" style="fill-rule:nonzero;"/><path d="M304.777,51.166l0,-7.32c0,-1.2 -0.14,-2.068 -0.42,-2.604c-0.28,-0.536 -0.78,-0.804 -1.5,-0.804c-0.64,0 -1.168,0.192 -1.584,0.576c-0.416,0.384 -0.72,0.856 -0.912,1.416l0,8.736l-1.728,0l0,-12l1.248,0l0.312,1.272l0.072,0c0.304,-0.432 0.716,-0.8 1.236,-1.104c0.52,-0.304 1.14,-0.456 1.86,-0.456c0.512,0 0.964,0.072 1.356,0.216c0.392,0.144 0.72,0.388 0.984,0.732c0.264,0.344 0.464,0.804 0.6,1.38c0.136,0.576 0.204,1.304 0.204,2.184l0,7.776l-1.728,0Z" style="fill-rule:nonzero;"/><path d="M316.105,48.31c0,0.56 0.076,0.96 0.228,1.2c0.152,0.24 0.364,0.36 0.636,0.36c0.336,0 0.728,-0.088 1.176,-0.264l0.168,1.392c-0.208,0.128 -0.5,0.232 -0.876,0.312c-0.376,0.08 -0.716,0.12 -1.02,0.12c-0.608,0 -1.1,-0.188 -1.476,-0.564c-0.376,-0.376 -0.564,-1.036 -0.564,-1.98l0,-14.52l1.728,0l0,13.944Z" style="fill-rule:nonzero;"/><path d="M319.321,45.166c0,-2.16 0.372,-3.748 1.116,-4.764c0.744,-1.016 1.804,-1.524 3.18,-1.524c1.472,0 2.556,0.52 3.252,1.56c0.696,1.04 1.044,2.616 1.044,4.728c0,2.176 -0.376,3.768 -1.128,4.776c-0.752,1.008 -1.808,1.512 -3.168,1.512c-1.472,0 -2.556,-0.52 -3.252,-1.56c-0.696,-1.04 -1.044,-2.616 -1.044,-4.728Zm1.8,0c0,0.704 0.044,1.344 0.132,1.92c0.088,0.576 0.232,1.072 0.432,1.488c0.2,0.416 0.46,0.74 0.78,0.972c0.32,0.232 0.704,0.348 1.152,0.348c0.832,0 1.456,-0.372 1.872,-1.116c0.416,-0.744 0.624,-1.948 0.624,-3.612c0,-0.688 -0.044,-1.324 -0.132,-1.908c-0.088,-0.584 -0.232,-1.084 -0.432,-1.5c-0.2,-0.416 -0.46,-0.74 -0.78,-0.972c-0.32,-0.232 -0.704,-0.348 -1.152,-0.348c-0.816,0 -1.436,0.376 -1.86,1.128c-0.424,0.752 -0.636,1.952 -0.636,3.6Z" style="fill-rule:nonzero;"/><path d="M330.025,49.198c0.32,0.192 0.7,0.356 1.14,0.492c0.44,0.136 0.892,0.204 1.356,0.204c0.528,0 0.976,-0.132 1.344,-0.396c0.368,-0.264 0.552,-0.692 0.552,-1.284c0,-0.496 -0.112,-0.904 -0.336,-1.224c-0.224,-0.32 -0.508,-0.608 -0.852,-0.864c-0.344,-0.256 -0.716,-0.492 -1.116,-0.708c-0.4,-0.216 -0.772,-0.476 -1.116,-0.78c-0.344,-0.304 -0.628,-0.664 -0.852,-1.08c-0.224,-0.416 -0.336,-0.944 -0.336,-1.584c0,-1.024 0.276,-1.796 0.828,-2.316c0.552,-0.52 1.332,-0.78 2.34,-0.78c0.656,0 1.224,0.06 1.704,0.18c0.48,0.12 0.896,0.284 1.248,0.492l-0.456,1.44c-0.304,-0.16 -0.656,-0.292 -1.056,-0.396c-0.4,-0.104 -0.808,-0.156 -1.224,-0.156c-0.576,0 -0.996,0.12 -1.26,0.36c-0.264,0.24 -0.396,0.616 -0.396,1.128c0,0.4 0.112,0.74 0.336,1.02c0.224,0.28 0.508,0.536 0.852,0.768c0.344,0.232 0.716,0.468 1.116,0.708c0.4,0.24 0.772,0.524 1.116,0.852c0.344,0.328 0.628,0.72 0.852,1.176c0.224,0.456 0.336,1.028 0.336,1.716c0,0.448 -0.072,0.872 -0.216,1.272c-0.144,0.4 -0.364,0.748 -0.66,1.044c-0.296,0.296 -0.664,0.532 -1.104,0.708c-0.44,0.176 -0.956,0.264 -1.548,0.264c-0.704,0 -1.312,-0.068 -1.824,-0.204c-0.512,-0.136 -0.944,-0.316 -1.296,-0.54l0.528,-1.512Z" style="fill-rule:nonzero;"/><path d="M349.033,51.166l0,-7.128c0,-0.64 -0.02,-1.188 -0.06,-1.644c-0.04,-0.456 -0.124,-0.828 -0.252,-1.116c-0.128,-0.288 -0.304,-0.5 -0.528,-0.636c-0.224,-0.136 -0.52,-0.204 -0.888,-0.204c-0.544,0 -1.004,0.212 -1.38,0.636c-0.376,0.424 -0.636,0.908 -0.78,1.452l0,8.64l-1.728,0l0,-12l1.224,0l0.312,1.272l0.072,0c0.336,-0.464 0.736,-0.84 1.2,-1.128c0.464,-0.288 1.056,-0.432 1.776,-0.432c0.608,0 1.108,0.132 1.5,0.396c0.392,0.264 0.7,0.732 0.924,1.404c0.288,-0.56 0.7,-1 1.236,-1.32c0.536,-0.32 1.124,-0.48 1.764,-0.48c0.528,0 0.98,0.068 1.356,0.204c0.376,0.136 0.68,0.376 0.912,0.72c0.232,0.344 0.404,0.8 0.516,1.368c0.112,0.568 0.168,1.284 0.168,2.148l0,7.848l-1.728,0l0,-7.632c0,-1.04 -0.1,-1.816 -0.3,-2.328c-0.2,-0.512 -0.66,-0.768 -1.38,-0.768c-0.608,0 -1.092,0.188 -1.452,0.564c-0.36,0.376 -0.612,0.884 -0.756,1.524l0,8.64l-1.728,0Z" style="fill-rule:nonzero;"/><path d="M366.217,50.35c-0.384,0.352 -0.872,0.624 -1.464,0.816c-0.592,0.192 -1.216,0.288 -1.872,0.288c-0.752,0 -1.404,-0.148 -1.956,-0.444c-0.552,-0.296 -1.008,-0.72 -1.368,-1.272c-0.36,-0.552 -0.624,-1.212 -0.792,-1.98c-0.168,-0.768 -0.252,-1.632 -0.252,-2.592c0,-2.048 0.376,-3.608 1.128,-4.68c0.752,-1.072 1.816,-1.608 3.192,-1.608c0.448,0 0.892,0.056 1.332,0.168c0.44,0.112 0.836,0.336 1.188,0.672c0.352,0.336 0.636,0.808 0.852,1.416c0.216,0.608 0.324,1.4 0.324,2.376c0,0.272 -0.012,0.564 -0.036,0.876c-0.024,0.312 -0.052,0.636 -0.084,0.972l-6.096,0c0,0.688 0.056,1.312 0.168,1.872c0.112,0.56 0.288,1.036 0.528,1.428c0.24,0.392 0.548,0.696 0.924,0.912c0.376,0.216 0.844,0.324 1.404,0.324c0.432,0 0.86,-0.08 1.284,-0.24c0.424,-0.16 0.748,-0.352 0.972,-0.576l0.624,1.272Zm-1.344,-6.432c0.032,-1.2 -0.136,-2.08 -0.504,-2.64c-0.368,-0.56 -0.872,-0.84 -1.512,-0.84c-0.736,0 -1.32,0.28 -1.752,0.84c-0.432,0.56 -0.688,1.44 -0.768,2.64l4.536,0Z" style="fill-rule:nonzero;"/><path d="M376.513,47.038c0,0.816 0.008,1.556 0.024,2.22c0.016,0.664 0.072,1.316 0.168,1.956l-1.176,0l-0.384,-1.44l-0.096,0c-0.224,0.48 -0.576,0.88 -1.056,1.2c-0.48,0.32 -1.056,0.48 -1.728,0.48c-1.296,0 -2.26,-0.504 -2.892,-1.512c-0.632,-1.008 -0.948,-2.592 -0.948,-4.752c0,-2.048 0.388,-3.6 1.164,-4.656c0.776,-1.056 1.844,-1.584 3.204,-1.584c0.464,0 0.832,0.028 1.104,0.084c0.272,0.056 0.568,0.148 0.888,0.276l0,-4.944l1.728,0l0,12.672Zm-1.728,-5.976c-0.224,-0.192 -0.476,-0.332 -0.756,-0.42c-0.28,-0.088 -0.652,-0.132 -1.116,-0.132c-0.848,0 -1.508,0.384 -1.98,1.152c-0.472,0.768 -0.708,1.952 -0.708,3.552c0,0.704 0.044,1.34 0.132,1.908c0.088,0.568 0.224,1.06 0.408,1.476c0.184,0.416 0.424,0.736 0.72,0.96c0.296,0.224 0.66,0.336 1.092,0.336c1.152,0 1.888,-0.68 2.208,-2.04l0,-6.792Z" style="fill-rule:nonzero;"/><path d="M379.633,39.166l1.728,0l0,12l-1.728,0l0,-12Zm-0.312,-3.648c0,-0.384 0.108,-0.696 0.324,-0.936c0.216,-0.24 0.5,-0.36 0.852,-0.36c0.352,0 0.644,0.116 0.876,0.348c0.232,0.232 0.348,0.548 0.348,0.948c0,0.384 -0.116,0.684 -0.348,0.9c-0.232,0.216 -0.524,0.324 -0.876,0.324c-0.352,0 -0.636,-0.112 -0.852,-0.336c-0.216,-0.224 -0.324,-0.52 -0.324,-0.888Z" style="fill-rule:nonzero;"/><path d="M384.025,45.166c0,-2.16 0.372,-3.748 1.116,-4.764c0.744,-1.016 1.804,-1.524 3.18,-1.524c1.472,0 2.556,0.52 3.252,1.56c0.696,1.04 1.044,2.616 1.044,4.728c0,2.176 -0.376,3.768 -1.128,4.776c-0.752,1.008 -1.808,1.512 -3.168,1.512c-1.472,0 -2.556,-0.52 -3.252,-1.56c-0.696,-1.04 -1.044,-2.616 -1.044,-4.728Zm1.8,0c0,0.704 0.044,1.344 0.132,1.92c0.088,0.576 0.232,1.072 0.432,1.488c0.2,0.416 0.46,0.74 0.78,0.972c0.32,0.232 0.704,0.348 1.152,0.348c0.832,0 1.456,-0.372 1.872,-1.116c0.416,-0.744 0.624,-1.948 0.624,-3.612c0,-0.688 -0.044,-1.324 -0.132,-1.908c-0.088,-0.584 -0.232,-1.084 -0.432,-1.5c-0.2,-0.416 -0.46,-0.74 -0.78,-0.972c-0.32,-0.232 -0.704,-0.348 -1.152,-0.348c-0.816,0 -1.436,0.376 -1.86,1.128c-0.424,0.752 -0.636,1.952 -0.636,3.6Z" style="fill-rule:nonzero;"/><path d="M394.729,49.198c0.32,0.192 0.7,0.356 1.14,0.492c0.44,0.136 0.892,0.204 1.356,0.204c0.528,0 0.976,-0.132 1.344,-0.396c0.368,-0.264 0.552,-0.692 0.552,-1.284c0,-0.496 -0.112,-0.904 -0.336,-1.224c-0.224,-0.32 -0.508,-0.608 -0.852,-0.864c-0.344,-0.256 -0.716,-0.492 -1.116,-0.708c-0.4,-0.216 -0.772,-0.476 -1.116,-0.78c-0.344,-0.304 -0.628,-0.664 -0.852,-1.08c-0.224,-0.416 -0.336,-0.944 -0.336,-1.584c0,-1.024 0.276,-1.796 0.828,-2.316c0.552,-0.52 1.332,-0.78 2.34,-0.78c0.656,0 1.224,0.06 1.704,0.18c0.48,0.12 0.896,0.284 1.248,0.492l-0.456,1.44c-0.304,-0.16 -0.656,-0.292 -1.056,-0.396c-0.4,-0.104 -0.808,-0.156 -1.224,-0.156c-0.576,0 -0.996,0.12 -1.26,0.36c-0.264,0.24 -0.396,0.616 -0.396,1.128c0,0.4 0.112,0.74 0.336,1.02c0.224,0.28 0.508,0.536 0.852,0.768c0.344,0.232 0.716,0.468 1.116,0.708c0.4,0.24 0.772,0.524 1.116,0.852c0.344,0.328 0.628,0.72 0.852,1.176c0.224,0.456 0.336,1.028 0.336,1.716c0,0.448 -0.072,0.872 -0.216,1.272c-0.144,0.4 -0.364,0.748 -0.66,1.044c-0.296,0.296 -0.664,0.532 -1.104,0.708c-0.44,0.176 -0.956,0.264 -1.548,0.264c-0.704,0 -1.312,-0.068 -1.824,-0.204c-0.512,-0.136 -0.944,-0.316 -1.296,-0.54l0.528,-1.512Z" style="fill-rule:nonzero;"/><path d="M415.681,47.038c0,0.816 0.008,1.556 0.024,2.22c0.016,0.664 0.072,1.316 0.168,1.956l-1.176,0l-0.384,-1.44l-0.096,0c-0.224,0.48 -0.576,0.88 -1.056,1.2c-0.48,0.32 -1.056,0.48 -1.728,0.48c-1.296,0 -2.26,-0.504 -2.892,-1.512c-0.632,-1.008 -0.948,-2.592 -0.948,-4.752c0,-2.048 0.388,-3.6 1.164,-4.656c0.776,-1.056 1.844,-1.584 3.204,-1.584c0.464,0 0.832,0.028 1.104,0.084c0.272,0.056 0.568,0.148 0.888,0.276l0,-4.944l1.728,0l0,12.672Zm-1.728,-5.976c-0.224,-0.192 -0.476,-0.332 -0.756,-0.42c-0.28,-0.088 -0.652,-0.132 -1.116,-0.132c-0.848,0 -1.508,0.384 -1.98,1.152c-0.472,0.768 -0.708,1.952 -0.708,3.552c0,0.704 0.044,1.34 0.132,1.908c0.088,0.568 0.224,1.06 0.408,1.476c0.184,0.416 0.424,0.736 0.72,0.96c0.296,0.224 0.66,0.336 1.092,0.336c1.152,0 1.888,-0.68 2.208,-2.04l0,-6.792Z" style="fill-rule:nonzero;"/><path d="M418.801,39.166l1.728,0l0,12l-1.728,0l0,-12Zm-0.312,-3.648c0,-0.384 0.108,-0.696 0.324,-0.936c0.216,-0.24 0.5,-0.36 0.852,-0.36c0.352,0 0.644,0.116 0.876,0.348c0.232,0.232 0.348,0.548 0.348,0.948c0,0.384 -0.116,0.684 -0.348,0.9c-0.232,0.216 -0.524,0.324 -0.876,0.324c-0.352,0 -0.636,-0.112 -0.852,-0.336c-0.216,-0.224 -0.324,-0.52 -0.324,-0.888Z" style="fill-rule:nonzero;"/><path d="M431.281,51.718c0,1.552 -0.344,2.696 -1.032,3.432c-0.688,0.736 -1.688,1.104 -3,1.104c-0.8,0 -1.456,-0.068 -1.968,-0.204c-0.512,-0.136 -0.928,-0.292 -1.248,-0.468l0.504,-1.488c0.32,0.144 0.672,0.28 1.056,0.408c0.384,0.128 0.856,0.192 1.416,0.192c0.976,0 1.644,-0.272 2.004,-0.816c0.36,-0.544 0.54,-1.456 0.54,-2.736l0,-0.888l-0.072,0c-0.256,0.368 -0.584,0.656 -0.984,0.864c-0.4,0.208 -0.912,0.312 -1.536,0.312c-1.296,0 -2.248,-0.5 -2.856,-1.5c-0.608,-1 -0.912,-2.572 -0.912,-4.716c0,-2.064 0.396,-3.624 1.188,-4.68c0.792,-1.056 1.964,-1.584 3.516,-1.584c0.752,0 1.4,0.072 1.944,0.216c0.544,0.144 1.024,0.312 1.44,0.504l0,12.048Zm-1.728,-10.824c-0.48,-0.256 -1.096,-0.384 -1.848,-0.384c-0.816,0 -1.472,0.372 -1.968,1.116c-0.496,0.744 -0.744,1.932 -0.744,3.564c0,0.672 0.04,1.292 0.12,1.86c0.08,0.568 0.216,1.064 0.408,1.488c0.192,0.424 0.436,0.752 0.732,0.984c0.296,0.232 0.66,0.348 1.092,0.348c0.608,0 1.088,-0.16 1.44,-0.48c0.352,-0.32 0.608,-0.8 0.768,-1.44l0,-7.056Z" style="fill-rule:nonzero;"/><path d="M434.377,39.166l1.728,0l0,12l-1.728,0l0,-12Zm-0.312,-3.648c0,-0.384 0.108,-0.696 0.324,-0.936c0.216,-0.24 0.5,-0.36 0.852,-0.36c0.352,0 0.644,0.116 0.876,0.348c0.232,0.232 0.348,0.548 0.348,0.948c0,0.384 -0.116,0.684 -0.348,0.9c-0.232,0.216 -0.524,0.324 -0.876,0.324c-0.352,0 -0.636,-0.112 -0.852,-0.336c-0.216,-0.224 -0.324,-0.52 -0.324,-0.888Z" style="fill-rule:nonzero;"/><path d="M438.097,39.166l1.464,0l0,-2.376l1.728,-0.552l0,2.928l2.592,0l0,1.56l-2.592,0l0,7.152c0,0.704 0.084,1.212 0.252,1.524c0.168,0.312 0.444,0.468 0.828,0.468c0.32,0 0.596,-0.036 0.828,-0.108c0.232,-0.072 0.484,-0.164 0.756,-0.276l0.336,1.368c-0.352,0.176 -0.74,0.316 -1.164,0.42c-0.424,0.104 -0.868,0.156 -1.332,0.156c-0.8,0 -1.372,-0.26 -1.716,-0.78c-0.344,-0.52 -0.516,-1.364 -0.516,-2.532l0,-7.392l-1.464,0l0,-1.56Z" style="fill-rule:nonzero;"/><path d="M445.777,39.886c0.464,-0.288 1.028,-0.512 1.692,-0.672c0.664,-0.16 1.364,-0.24 2.1,-0.24c0.672,0 1.212,0.1 1.62,0.3c0.408,0.2 0.728,0.472 0.96,0.816c0.232,0.344 0.384,0.736 0.456,1.176c0.072,0.44 0.108,0.9 0.108,1.38c0,0.96 -0.02,1.896 -0.06,2.808c-0.04,0.912 -0.06,1.776 -0.06,2.592c0,0.608 0.02,1.172 0.06,1.692c0.04,0.52 0.116,1.012 0.228,1.476l-1.32,0l-0.408,-1.416l-0.096,0c-0.24,0.416 -0.592,0.776 -1.056,1.08c-0.464,0.304 -1.088,0.456 -1.872,0.456c-0.864,0 -1.572,-0.3 -2.124,-0.9c-0.552,-0.6 -0.828,-1.428 -0.828,-2.484c0,-0.688 0.116,-1.264 0.348,-1.728c0.232,-0.464 0.56,-0.84 0.984,-1.128c0.424,-0.288 0.928,-0.492 1.512,-0.612c0.584,-0.12 1.236,-0.18 1.956,-0.18c0.16,0 0.32,0 0.48,0c0.16,0 0.328,0.008 0.504,0.024c0.048,-0.496 0.072,-0.936 0.072,-1.32c0,-0.912 -0.136,-1.552 -0.408,-1.92c-0.272,-0.368 -0.768,-0.552 -1.488,-0.552c-0.448,0 -0.936,0.068 -1.464,0.204c-0.528,0.136 -0.968,0.308 -1.32,0.516l-0.576,-1.368Zm5.208,5.808c-0.16,-0.016 -0.32,-0.028 -0.48,-0.036c-0.16,-0.008 -0.32,-0.012 -0.48,-0.012c-0.384,0 -0.76,0.032 -1.128,0.096c-0.368,0.064 -0.696,0.176 -0.984,0.336c-0.288,0.16 -0.516,0.376 -0.684,0.648c-0.168,0.272 -0.252,0.616 -0.252,1.032c0,0.64 0.156,1.136 0.468,1.488c0.312,0.352 0.716,0.528 1.212,0.528c0.672,0 1.192,-0.16 1.56,-0.48c0.368,-0.32 0.624,-0.672 0.768,-1.056l0,-2.544Z" style="fill-rule:nonzero;"/><path d="M457.345,48.31c0,0.56 0.076,0.96 0.228,1.2c0.152,0.24 0.364,0.36 0.636,0.36c0.336,0 0.728,-0.088 1.176,-0.264l0.168,1.392c-0.208,0.128 -0.5,0.232 -0.876,0.312c-0.376,0.08 -0.716,0.12 -1.02,0.12c-0.608,0 -1.1,-0.188 -1.476,-0.564c-0.376,-0.376 -0.564,-1.036 -0.564,-1.98l0,-14.52l1.728,0l0,13.944Z" style="fill-rule:nonzero;"/><path d="M468.265,50.35c-0.384,0.352 -0.872,0.624 -1.464,0.816c-0.592,0.192 -1.216,0.288 -1.872,0.288c-0.752,0 -1.404,-0.148 -1.956,-0.444c-0.552,-0.296 -1.008,-0.72 -1.368,-1.272c-0.36,-0.552 -0.624,-1.212 -0.792,-1.98c-0.168,-0.768 -0.252,-1.632 -0.252,-2.592c0,-2.048 0.376,-3.608 1.128,-4.68c0.752,-1.072 1.816,-1.608 3.192,-1.608c0.448,0 0.892,0.056 1.332,0.168c0.44,0.112 0.836,0.336 1.188,0.672c0.352,0.336 0.636,0.808 0.852,1.416c0.216,0.608 0.324,1.4 0.324,2.376c0,0.272 -0.012,0.564 -0.036,0.876c-0.024,0.312 -0.052,0.636 -0.084,0.972l-6.096,0c0,0.688 0.056,1.312 0.168,1.872c0.112,0.56 0.288,1.036 0.528,1.428c0.24,0.392 0.548,0.696 0.924,0.912c0.376,0.216 0.844,0.324 1.404,0.324c0.432,0 0.86,-0.08 1.284,-0.24c0.424,-0.16 0.748,-0.352 0.972,-0.576l0.624,1.272Zm-1.344,-6.432c0.032,-1.2 -0.136,-2.08 -0.504,-2.64c-0.368,-0.56 -0.872,-0.84 -1.512,-0.84c-0.736,0 -1.32,0.28 -1.752,0.84c-0.432,0.56 -0.688,1.44 -0.768,2.64l4.536,0Z" style="fill-rule:nonzero;"/><path d="M470.809,49.198c0.32,0.192 0.7,0.356 1.14,0.492c0.44,0.136 0.892,0.204 1.356,0.204c0.528,0 0.976,-0.132 1.344,-0.396c0.368,-0.264 0.552,-0.692 0.552,-1.284c0,-0.496 -0.112,-0.904 -0.336,-1.224c-0.224,-0.32 -0.508,-0.608 -0.852,-0.864c-0.344,-0.256 -0.716,-0.492 -1.116,-0.708c-0.4,-0.216 -0.772,-0.476 -1.116,-0.78c-0.344,-0.304 -0.628,-0.664 -0.852,-1.08c-0.224,-0.416 -0.336,-0.944 -0.336,-1.584c0,-1.024 0.276,-1.796 0.828,-2.316c0.552,-0.52 1.332,-0.78 2.34,-0.78c0.656,0 1.224,0.06 1.704,0.18c0.48,0.12 0.896,0.284 1.248,0.492l-0.456,1.44c-0.304,-0.16 -0.656,-0.292 -1.056,-0.396c-0.4,-0.104 -0.808,-0.156 -1.224,-0.156c-0.576,0 -0.996,0.12 -1.26,0.36c-0.264,0.24 -0.396,0.616 -0.396,1.128c0,0.4 0.112,0.74 0.336,1.02c0.224,0.28 0.508,0.536 0.852,0.768c0.344,0.232 0.716,0.468 1.116,0.708c0.4,0.24 0.772,0.524 1.116,0.852c0.344,0.328 0.628,0.72 0.852,1.176c0.224,0.456 0.336,1.028 0.336,1.716c0,0.448 -0.072,0.872 -0.216,1.272c-0.144,0.4 -0.364,0.748 -0.66,1.044c-0.296,0.296 -0.664,0.532 -1.104,0.708c-0.44,0.176 -0.956,0.264 -1.548,0.264c-0.704,0 -1.312,-0.068 -1.824,-0.204c-0.512,-0.136 -0.944,-0.316 -1.296,-0.54l0.528,-1.512Z" style="fill-rule:nonzero;"/></g></svg>