<?xml version="1.0" encoding="UTF-8" standalone="no"?>
<!DOCTYPE svg PUBLIC "-//W3C//DTD SVG 1.1//EN" "http://www.w3.org/Graphics/SVG/1.1/DTD/svg11.dtd">
<svg width="100%" height="100%" viewBox="0 0 2600 275" version="1.1" xmlns="http://www.w3.org/2000/svg" xmlns:xlink="http://www.w3.org/1999/xlink" xml:space="preserve" xmlns:serif="http://www.serif.com/" style="fill-rule:evenodd;clip-rule:evenodd;stroke-linejoin:round;stroke-miterlimit:1.41421;"><g><path d="M264.104,-31.383l0,280.637l-63.789,0l0,-189.461l-25.481,189.461l-45.242,0l-26.867,-185.127l0,185.127l-63.789,0l0,-280.637l94.47,0c2.773,16.871 5.72,36.748 8.84,59.629l10.054,71.416l16.64,-131.045l95.164,0Z" style="fill:rgba(254,255,249,0.1);fill-rule:nonzero;"/><path d="M459.285,-31.383l0,187.553c0,21.263 -0.694,36.2 -2.08,44.809c-1.387,8.609 -5.49,17.449 -12.308,26.521c-6.818,9.071 -15.802,15.947 -26.954,20.627c-11.151,4.68 -24.296,7.02 -39.435,7.02c-16.756,0 -31.548,-2.773 -44.375,-8.32c-12.827,-5.547 -22.418,-12.769 -28.774,-21.667c-6.356,-8.898 -10.112,-18.288 -11.267,-28.168c-1.156,-9.88 -1.734,-30.652 -1.734,-62.316l0,-166.059l72.976,0l0,210.434c0,12.25 0.665,20.079 1.994,23.488c1.329,3.409 4.016,5.113 8.06,5.113c4.623,0 7.598,-1.878 8.927,-5.633c1.329,-3.756 1.994,-12.625 1.994,-26.608l0,-206.794l72.976,0Z" style="fill:rgba(254,255,249,0.1);fill-rule:nonzero;"/><path d="M642.158,53.553l-67.776,0l0,-20.801c0,-9.707 -0.866,-15.889 -2.6,-18.547c-1.733,-2.658 -4.622,-3.987 -8.667,-3.987c-4.391,0 -7.713,1.791 -9.967,5.374c-2.253,3.582 -3.38,9.013 -3.38,16.294c0,9.36 1.271,16.409 3.814,21.147c2.426,4.738 9.302,10.458 20.627,17.161c32.472,19.298 52.926,35.13 61.362,47.495c8.436,12.365 12.654,32.299 12.654,59.802c0,19.992 -2.34,34.726 -7.02,44.202c-4.68,9.476 -13.723,17.421 -27.128,23.834c-13.405,6.414 -29.005,9.62 -46.802,9.62c-19.529,0 -36.199,-3.697 -50.008,-11.093c-13.81,-7.396 -22.852,-16.814 -27.128,-28.255c-4.276,-11.44 -6.413,-27.676 -6.413,-48.708l0,-18.374l67.775,0l0,34.148c0,10.516 0.954,17.276 2.861,20.281c1.906,3.004 5.286,4.506 10.14,4.506c4.853,0 8.465,-1.906 10.834,-5.72c2.369,-3.813 3.553,-9.476 3.553,-16.987c0,-16.525 -2.253,-27.33 -6.76,-32.415c-4.623,-5.084 -16.005,-13.578 -34.148,-25.481c-18.143,-12.018 -30.161,-20.743 -36.055,-26.174c-5.893,-5.431 -10.776,-12.943 -14.647,-22.534c-3.871,-9.592 -5.807,-21.841 -5.807,-36.748c0,-21.494 2.745,-37.211 8.234,-47.149c5.489,-9.938 14.358,-17.709 26.607,-23.314c12.25,-5.605 27.041,-8.407 44.375,-8.407c18.952,0 35.102,3.062 48.449,9.187c13.347,6.125 22.187,13.838 26.521,23.141c4.333,9.303 6.5,25.105 6.5,47.408l0,11.094Z" style="fill:rgba(254,255,249,0.1);fill-rule:nonzero;"/><path d="M671.106,-31.383l121.685,0l0,56.162l-48.709,0l0,53.215l45.588,0l0,53.389l-45.588,0l0,61.709l53.562,0l0,56.162l-126.538,0l0,-280.637Z" style="fill:rgba(254,255,249,0.1);fill-rule:nonzero;"/><path d="M985.371,132.943c0,28.196 -0.664,48.159 -1.993,59.889c-1.329,11.729 -5.489,22.447 -12.481,32.154c-6.991,9.707 -16.438,17.161 -28.341,22.361c-11.903,5.2 -25.77,7.8 -41.601,7.8c-15.023,0 -28.515,-2.455 -40.475,-7.366c-11.961,-4.912 -21.581,-12.279 -28.861,-22.101c-7.281,-9.823 -11.614,-20.512 -13.001,-32.068c-1.387,-11.556 -2.08,-31.779 -2.08,-60.669l0,-48.015c0,-28.197 0.665,-48.16 1.993,-59.889c1.329,-11.73 5.49,-22.448 12.481,-32.155c6.991,-9.707 16.438,-17.16 28.341,-22.361c11.903,-5.2 25.77,-7.8 41.602,-7.8c15.022,0 28.514,2.456 40.474,7.367c11.961,4.911 21.581,12.278 28.862,22.101c7.28,9.823 11.613,20.512 13,32.068c1.387,11.556 2.08,31.779 2.08,60.669l0,48.015Zm-72.976,-92.217c0,-13.058 -0.722,-21.407 -2.167,-25.048c-1.444,-3.64 -4.42,-5.46 -8.927,-5.46c-3.813,0 -6.731,1.474 -8.753,4.42c-2.023,2.947 -3.034,11.643 -3.034,26.088l0,131.045c0,16.294 0.665,26.348 1.994,30.161c1.328,3.814 4.42,5.72 9.273,5.72c4.969,0 8.147,-2.195 9.534,-6.587c1.387,-4.391 2.08,-14.849 2.08,-31.374l0,-128.965Z" style="fill:rgba(254,255,249,0.1);fill-rule:nonzero;"/><path d="M1300.33,-31.383l0,280.637l-63.789,0l0,-189.461l-25.481,189.461l-45.242,0l-26.868,-185.127l0,185.127l-63.789,0l0,-280.637l94.47,0c2.774,16.871 5.721,36.748 8.841,59.629l10.053,71.416l16.641,-131.045l95.164,0Z" style="fill:rgba(254,255,249,0.1);fill-rule:nonzero;"/><path d="M1495.51,-31.383l0,187.553c0,21.263 -0.693,36.2 -2.08,44.809c-1.387,8.609 -5.489,17.449 -12.307,26.521c-6.818,9.071 -15.803,15.947 -26.954,20.627c-11.152,4.68 -24.297,7.02 -39.435,7.02c-16.756,0 -31.548,-2.773 -44.375,-8.32c-12.827,-5.547 -22.419,-12.769 -28.775,-21.667c-6.355,-8.898 -10.111,-18.288 -11.267,-28.168c-1.155,-9.88 -1.733,-30.652 -1.733,-62.316l0,-166.059l72.976,0l0,210.434c0,12.25 0.665,20.079 1.993,23.488c1.329,3.409 4.016,5.113 8.061,5.113c4.622,0 7.598,-1.878 8.927,-5.633c1.329,-3.756 1.993,-12.625 1.993,-26.608l0,-206.794l72.976,0Z" style="fill:rgba(254,255,249,0.1);fill-rule:nonzero;"/><path d="M1686.7,-31.383l0,280.637l-63.962,0l-37.962,-127.578l0,127.578l-61.015,0l0,-280.637l61.015,0l40.908,126.364l0,-126.364l61.016,0Z" style="fill:rgba(254,255,249,0.1);fill-rule:nonzero;"/><rect x="1716" y="-31.383" width="72.976" height="280.637" style="fill:rgba(254,255,249,0.1);"/><path d="M1988.66,90.995l-72.976,0l0,-48.882c0,-14.214 -0.78,-23.083 -2.34,-26.608c-1.56,-3.524 -4.998,-5.287 -10.314,-5.287c-6.009,0 -9.822,2.138 -11.44,6.414c-1.618,4.276 -2.427,13.52 -2.427,27.734l0,130.352c0,13.636 0.809,22.534 2.427,26.694c1.618,4.16 5.258,6.24 10.92,6.24c5.432,0 8.985,-2.08 10.661,-6.24c1.675,-4.16 2.513,-13.925 2.513,-29.294l0,-35.188l72.976,0l0,10.92c0,29.006 -2.051,49.575 -6.153,61.709c-4.103,12.134 -13.174,22.765 -27.215,31.895c-14.04,9.129 -31.345,13.693 -51.915,13.693c-21.379,0 -39.002,-3.871 -52.869,-11.613c-13.867,-7.743 -23.054,-18.461 -27.561,-32.155c-4.507,-13.694 -6.76,-34.292 -6.76,-61.796l0,-81.989c0,-20.223 0.693,-35.39 2.08,-45.502c1.387,-10.111 5.518,-19.847 12.394,-29.208c6.876,-9.36 16.409,-16.727 28.601,-22.101c12.191,-5.373 26.203,-8.06 42.035,-8.06c21.494,0 39.232,4.16 53.215,12.481c13.983,8.32 23.17,18.691 27.561,31.114c4.391,12.423 6.587,31.75 6.587,57.982l0,26.695Z" style="fill:rgba(254,255,249,0.1);fill-rule:nonzero;"/><rect x="2014.84" y="-31.383" width="72.976" height="280.637" style="fill:rgba(254,255,249,0.1);"/><path d="M2117.11,-31.383l73.496,0c19.876,0 35.159,1.56 45.848,4.68c10.69,3.12 18.721,7.627 24.095,13.52c5.373,5.894 9.013,13.03 10.92,21.408c1.907,8.378 2.86,21.35 2.86,38.915l0,24.441c0,17.911 -1.849,30.97 -5.547,39.174c-3.698,8.205 -10.487,14.503 -20.367,18.894c-9.881,4.392 -22.794,6.587 -38.742,6.587l-19.587,0l0,113.018l-72.976,0l0,-280.637Zm72.976,48.015l0,71.416c2.08,0.115 3.871,0.173 5.374,0.173c6.702,0 11.353,-1.647 13.953,-4.94c2.6,-3.293 3.901,-10.14 3.901,-20.541l0,-23.054c0,-9.591 -1.503,-15.832 -4.507,-18.721c-3.005,-2.889 -9.245,-4.333 -18.721,-4.333Z" style="fill:rgba(254,255,249,0.1);fill-rule:nonzero;"/><path d="M2412.48,-31.383l41.775,280.637l-74.71,0l-3.64,-50.442l-26.174,0l-4.334,50.442l-75.576,0l37.095,-280.637l105.564,0Zm-38.655,180.446c-3.698,-31.778 -7.396,-71.011 -11.094,-117.697c-7.395,53.62 -12.018,92.852 -13.867,117.697l24.961,0Z" style="fill:rgba(254,255,249,0.1);fill-rule:nonzero;"/><path d="M2539.71,-31.383l0,224.475l44.375,0l0,56.162l-117.351,0l0,-280.637l72.976,0Z" style="fill:rgba(254,255,249,0.1);fill-rule:nonzero;"/></g></svg>
