<?xml version="1.0" encoding="UTF-8" standalone="no"?><!DOCTYPE svg PUBLIC "-//W3C//DTD SVG 1.1//EN" "http://www.w3.org/Graphics/SVG/1.1/DTD/svg11.dtd"><svg width="100%" height="100%" viewBox="0 0 300 300" version="1.1" xmlns="http://www.w3.org/2000/svg" xmlns:xlink="http://www.w3.org/1999/xlink" xml:space="preserve" style="fill-rule:evenodd;clip-rule:evenodd;stroke-linejoin:round;stroke-miterlimit:1.41421;"><rect x="-14.237" y="-12.398" width="324.615" height="327.115" style="fill:#edeed3;"/><clipPath id="_clip1"><rect x="25.202" y="1.681" width="254.266" height="254.331"/></clipPath><g clip-path="url(#_clip1)"><path d="M125.323,173.927l0,-16.683l-46.464,13.108c0,0 3.376,-19.861 27.601,-26.812c7.346,-1.986 13.7,-1.986 18.863,-0.993l0,-68.721l23.232,0c-2.582,-7.746 -4.964,-13.903 -6.95,-18.074c-3.376,-6.951 -6.95,-2.383 -14.694,4.37c-5.56,4.568 -19.658,14.697 -40.904,20.258c-21.246,5.76 -38.322,4.171 -45.471,2.98c-10.126,-1.788 -15.487,-3.973 -14.892,3.773c0.398,6.753 1.986,17.28 5.759,31.381c7.943,30.19 34.351,88.383 84.389,74.877c13.105,-3.575 22.438,-10.526 28.792,-19.464l-19.261,0l0,0Zm-74.858,-55.016l35.542,-9.335c0,0 -0.992,13.704 -14.296,17.28c-13.304,3.376 -21.246,-7.945 -21.246,-7.945Z" style="fill:#e2574c;fill-rule:nonzero;"/><path d="M259.75,75.216c-9.531,1.589 -32.167,3.774 -60.164,-3.773c-27.998,-7.548 -46.663,-20.656 -54.009,-26.813c-10.524,-8.739 -15.091,-14.697 -19.46,-5.561c-3.971,8.143 -9.133,21.252 -14.097,39.722c-10.723,39.921 -18.666,124.133 47.456,141.81c66.32,17.676 101.465,-59.187 112.188,-99.108c4.964,-18.471 7.148,-32.374 7.744,-41.311c0.794,-10.328 -6.156,-7.349 -19.658,-4.966Zm-133.037,33.168c0,0 10.524,-16.484 28.394,-11.32c17.871,5.164 19.261,24.826 19.261,24.826l-47.655,-13.506Zm43.287,72.494c-31.175,-9.136 -35.94,-33.963 -35.94,-33.963l83.595,23.238c0,0.199 -16.878,19.663 -47.655,10.725Zm30.181,-50.646c0,0 10.127,-16.286 27.203,-11.321c17.077,5.164 18.467,24.827 18.467,24.827l-45.67,-13.506Z" style="fill:#efc75e;fill-rule:nonzero;"/><path d="M172.382,181.474l-2.382,-0.596c-31.175,-9.136 -35.94,-33.963 -35.94,-33.963l44.081,12.314l22.636,-87.588c-0.397,-0.199 -0.794,-0.199 -1.191,-0.199c-27.998,-7.547 -46.663,-20.656 -54.009,-26.812c-10.524,-8.739 -15.091,-14.698 -19.46,-5.562c-3.971,8.144 -9.133,21.252 -14.097,39.723c-10.326,38.332 -18.07,117.38 40.109,139.426l9.928,2.979l10.325,-39.722Zm-45.669,-73.09c0,0 10.524,-16.484 28.394,-11.32c17.871,5.164 19.261,24.826 19.261,24.826l-47.655,-13.506Z" style="fill:#dcb757;fill-rule:nonzero;"/><path d="M108.842,162.01l-29.983,8.54c0,0 3.178,-18.669 25.217,-26.018l-17.076,-64.152c-0.397,0.199 -0.794,0.199 -1.39,0.398c-21.246,5.76 -38.322,4.171 -45.471,2.979c-10.126,-1.788 -15.488,-3.972 -14.892,3.774c0.397,6.753 1.986,17.279 5.759,31.381c8.34,29.792 34.748,87.985 84.786,74.479l1.191,-0.397c0.001,0 -8.141,-30.984 -8.141,-30.984Zm-58.377,-43.099l35.542,-9.335c0,0 -0.992,13.704 -14.296,17.28c-13.304,3.376 -21.246,-7.945 -21.246,-7.945Z" style="fill:#d05046;fill-rule:nonzero;"/></g><clipPath id="_clip2"><polygon points="98.88,67.657 276.867,127.659 216.881,305.691 38.893,245.69 98.88,67.657 "/></clipPath><g clip-path="url(#_clip2)"><g><g><path d="M124.799,228.399c4.276,-0.195 9.309,-1.053 15.153,-2.669c0.237,-5.754 -0.922,-11.642 -3.655,-17.154c-3.555,-7.171 -9.294,-12.8 -16.4,-16.201c-5.175,4.879 -8.806,9.343 -11.088,13.382c8.379,5.018 14.094,13.34 15.99,22.642Z" style="fill:#ed2c5d;fill-rule:nonzero;"/><path d="M82.847,260.502c13.894,4.579 28.899,-2.907 33.578,-16.795c4.699,-13.946 -2.794,-29.062 -16.737,-33.762c-13.88,-4.679 -28.946,2.788 -33.716,16.615c0.002,-0.008 0.004,-0.014 0.004,-0.014c0,0 -0.001,0.005 -0.005,0.017c-1.939,5.753 -16.144,22.813 -27.078,19.127l43.952,14.816l0.002,-0.004Z" style="fill:#ed2c5d;fill-rule:nonzero;"/></g><path d="M275.863,128.036l0,0.001l-0.049,-0.089l0.001,0c-3.881,-7.005 -61.526,6.321 -111.16,33.675c-16.667,9.288 -29.335,17.746 -38.573,25.331c7.324,4.205 13.247,10.476 17.083,18.215c2.896,5.842 4.338,12.031 4.472,18.156c11.107,-3.845 24.608,-9.986 40.739,-18.876c49.505,-27.588 91.368,-69.407 87.487,-76.413Z" style="fill:#8d2964;fill-rule:nonzero;"/></g></g></svg>