<?xml version="1.0" encoding="UTF-8" standalone="no"?><!DOCTYPE svg PUBLIC "-//W3C//DTD SVG 1.1//EN" "http://www.w3.org/Graphics/SVG/1.1/DTD/svg11.dtd"><svg width="100%" height="100%" viewBox="0 0 700 315" version="1.1" xmlns="http://www.w3.org/2000/svg" xmlns:xlink="http://www.w3.org/1999/xlink" xml:space="preserve" style="fill-rule:evenodd;clip-rule:evenodd;stroke-linejoin:round;stroke-miterlimit:1.41421;"><path d="M92.743,243.704l-0.354,-7.541c-0.086,-1.851 -0.031,-3.938 0,-5.71l-0.086,0c-0.931,1.772 -1.973,3.911 -3.008,5.71l-4.407,7.541l7.855,0Zm-9.901,4.222l-4.976,8.656l-5.76,0l18.08,-30.575l7.118,0l1.664,30.575l-6.003,0l-0.413,-8.656l-9.71,0Z" style="fill:#fff;fill-rule:nonzero;"/><path d="M110.588,224.384l5.609,0l-8.721,32.199l-5.627,0l8.739,-32.199Z" style="fill:#fff;fill-rule:nonzero;"/><path d="M129.029,255.911c-1.331,0.536 -3.809,1.168 -6.585,1.168c-6.89,0 -10.175,-4.437 -8.317,-11.287c1.793,-6.619 7.728,-11.796 15.485,-11.796c2.043,0 4.002,0.465 5.112,1.047l-2.12,4.163c-0.808,-0.4 -1.997,-0.859 -3.997,-0.859c-4.249,0 -7.648,3.137 -8.702,7.173c-1.214,4.533 1.029,7.122 4.838,7.122c1.95,0 3.408,-0.401 4.628,-0.86l-0.342,4.129Z" style="fill:#fff;fill-rule:nonzero;"/><path d="M146.688,245.791c-3.917,-0.083 -7.92,0.77 -8.823,4.126c-0.597,2.185 0.537,3.165 2.311,3.165c2.219,0 4.256,-1.445 5.174,-3.029c0.244,-0.404 0.404,-0.863 0.518,-1.221l0.82,-3.041Zm3.953,5.485c-0.542,2 -0.967,3.954 -1.125,5.306l-5.038,0l0.308,-2.446l-0.126,0c-1.843,1.719 -4.484,2.943 -7.337,2.943c-4.453,0 -6.061,-3.202 -5.165,-6.573c1.516,-5.572 7.217,-8.388 15.377,-8.354l0.105,-0.342c0.391,-1.467 0.45,-3.871 -3.445,-3.871c-2.185,0 -4.638,0.688 -6.397,1.64l-0.096,-3.627c1.907,-1.002 5.032,-1.957 8.511,-1.957c7.085,0 7.901,4.502 6.601,9.3l-2.173,7.981Z" style="fill:#fff;fill-rule:nonzero;"/><path d="M162.92,224.384l5.62,0l-8.726,32.199l-5.627,0l8.733,-32.199Z" style="fill:#fff;fill-rule:nonzero;"/><path d="M183.214,243.704c0.133,-0.456 0.228,-0.995 0.265,-1.451c0.077,-2.185 -1.198,-3.942 -3.75,-3.942c-3.587,0 -6.428,3.171 -7.559,7.303c-1.091,4.034 0.114,6.98 3.649,6.98c2.274,0 4.68,-1.547 5.873,-3.941c0.277,-0.506 0.468,-1.054 0.638,-1.627l0.884,-3.322Zm10.816,-19.321l-7.041,25.986c-0.616,2.274 -1.192,4.712 -1.507,6.213l-4.983,0l0.718,-3.501l-0.092,0c-1.972,2.456 -5.066,3.997 -8.292,3.997c-5.254,0 -8.216,-4.484 -6.379,-11.288c1.966,-7.396 7.787,-11.793 13.096,-11.793c3.039,0 4.863,1.276 5.415,2.9l0.098,0l3.393,-12.514l5.574,0Z" style="fill:#fff;fill-rule:nonzero;"/><path d="M208.582,224.92l-7.401,6.712l-3.858,0l5.771,-6.712l5.488,0Zm-18.199,31.662l5.987,-22.088l5.627,0l-5.987,22.088l-5.627,0Z" style="fill:#fff;fill-rule:nonzero;"/><path d="M215.72,245.791c-3.916,-0.083 -7.931,0.77 -8.828,4.126c-0.61,2.185 0.542,3.165 2.305,3.165c2.225,0 4.255,-1.445 5.18,-3.029c0.253,-0.404 0.416,-0.863 0.508,-1.221l0.835,-3.041Zm3.954,5.485c-0.536,2 -0.98,3.954 -1.125,5.306l-5.044,0l0.296,-2.446l-0.114,0c-1.831,1.719 -4.49,2.943 -7.331,2.943c-4.459,0 -6.074,-3.202 -5.165,-6.573c1.51,-5.572 7.211,-8.388 15.371,-8.354l0.098,-0.342c0.398,-1.467 0.456,-3.871 -3.442,-3.871c-2.185,0 -4.634,0.688 -6.388,1.64l-0.114,-3.627c1.902,-1.002 5.02,-1.957 8.518,-1.957c7.072,0 7.907,4.502 6.594,9.3l-2.154,7.981Z" style="fill:#fff;fill-rule:nonzero;"/><path d="M249.978,243.704c0.126,-0.456 0.216,-0.995 0.265,-1.451c0.077,-2.185 -1.205,-3.942 -3.744,-3.942c-3.587,0 -6.434,3.171 -7.565,7.303c-1.1,4.034 0.108,6.98 3.649,6.98c2.268,0 4.674,-1.547 5.867,-3.941c0.265,-0.506 0.474,-1.054 0.631,-1.627l0.897,-3.322Zm10.816,-19.321l-7.035,25.986c-0.616,2.274 -1.199,4.712 -1.507,6.213l-4.995,0l0.712,-3.501l-0.08,0c-1.985,2.456 -5.085,3.997 -8.292,3.997c-5.267,0 -8.216,-4.484 -6.385,-11.288c1.972,-7.396 7.793,-11.793 13.084,-11.793c3.05,0 4.881,1.276 5.432,2.9l0.093,0l3.38,-12.514l5.593,0Z" style="fill:#fff;fill-rule:nonzero;"/><path d="M274.419,243.203c0.601,-2.037 0.601,-5.402 -3.118,-5.402c-3.442,0 -5.741,3.137 -6.582,5.402l9.7,0Zm-10.766,3.898c-0.946,3.997 1.725,5.713 5.266,5.713c2.582,0 4.539,-0.357 6.385,-0.983l-0.228,3.852c-2.12,0.764 -4.912,1.396 -8.083,1.396c-7.18,0 -10.191,-4.437 -8.354,-11.207c1.667,-6.111 6.94,-11.876 13.999,-11.876c7.229,0 7.938,5.898 6.626,10.754c-0.287,1.042 -0.601,1.852 -0.817,2.351l-14.794,0Z" style="fill:#fff;fill-rule:nonzero;"/><path d="M313.221,255.18c-2.16,0.73 -6.234,1.726 -10.317,1.726c-5.174,0 -8.714,-1.316 -10.862,-4.093c-2.022,-2.576 -2.515,-6.619 -1.217,-11.247c2.613,-9.639 11.207,-15.861 21.324,-15.861c3.756,0 6.496,0.759 7.716,1.446l-2.45,4.48c-1.473,-0.718 -3.359,-1.313 -6.57,-1.313c-6.539,0 -12.166,3.871 -14.104,10.986c-1.876,6.933 1.276,11.066 7.621,11.066c1.997,0 3.562,-0.268 4.375,-0.641l2.09,-7.612l-5.405,0l1.189,-4.406l10.804,0l-4.194,15.469Z" style="fill:#fff;fill-rule:nonzero;"/><path d="M339.119,249.965c-0.706,2.632 -1.211,4.81 -1.612,6.616l-4.905,0l0.644,-3.359l-0.087,0c-1.389,1.593 -4.187,3.858 -8.123,3.858c-4.058,0 -7.053,-2.391 -5.115,-9.611l3.525,-12.973l5.587,0l-3.263,12.021c-1.005,3.67 -0.462,6.039 2.487,6.039c2.218,0 4.117,-1.59 5.066,-2.995c0.326,-0.499 0.613,-1.088 0.795,-1.725l3.611,-13.34l5.584,0l-4.194,15.469Z" style="fill:#fff;fill-rule:nonzero;"/><path d="M357.079,245.791c-3.923,-0.083 -7.914,0.77 -8.835,4.126c-0.598,2.185 0.542,3.165 2.323,3.165c2.213,0 4.25,-1.445 5.168,-3.029c0.253,-0.404 0.416,-0.863 0.518,-1.221l0.826,-3.041Zm3.947,5.485c-0.524,2 -0.98,3.954 -1.112,5.306l-5.026,0l0.295,-2.446l-0.138,0c-1.824,1.719 -4.478,2.943 -7.337,2.943c-4.435,0 -6.049,-3.202 -5.146,-6.573c1.503,-5.572 7.21,-8.388 15.358,-8.354l0.111,-0.342c0.385,-1.467 0.45,-3.871 -3.452,-3.871c-2.187,0 -4.631,0.688 -6.391,1.64l-0.107,-3.627c1.913,-1.002 5.032,-1.957 8.523,-1.957c7.084,0 7.901,4.502 6.601,9.3l-2.179,7.981Z" style="fill:#fff;fill-rule:nonzero;"/><path d="M373.611,234.496l0.765,11.833c0.108,1.365 0.108,3.047 0.067,4.317l0.142,0c0.694,-1.27 1.566,-2.903 2.342,-4.348l6.65,-11.802l5.997,0l-9.612,15.065c-5.278,8.256 -8.32,11.916 -11.568,14.187c-2.702,1.951 -5.176,2.678 -6.622,2.851l0.013,-4.718c1.01,-0.203 2.342,-0.709 3.682,-1.534c1.217,-0.675 2.801,-1.985 3.978,-3.483c0.339,-0.416 0.561,-0.73 0.638,-1.01c0.068,-0.225 0.111,-0.54 -0.009,-1.079l-2.589,-20.279l6.126,0Z" style="fill:#fff;fill-rule:nonzero;"/><path d="M400.244,245.791c-3.914,-0.083 -7.914,0.77 -8.817,4.126c-0.585,2.185 0.546,3.165 2.324,3.165c2.2,0 4.237,-1.445 5.174,-3.029c0.234,-0.404 0.41,-0.863 0.499,-1.221l0.82,-3.041Zm3.966,5.485c-0.543,2 -0.993,3.954 -1.125,5.306l-5.02,0l0.284,-2.446l-0.127,0c-1.843,1.719 -4.471,2.943 -7.337,2.943c-4.443,0 -6.074,-3.202 -5.158,-6.573c1.51,-5.572 7.21,-8.388 15.37,-8.354l0.105,-0.342c0.407,-1.467 0.462,-3.871 -3.451,-3.871c-2.173,0 -4.623,0.688 -6.385,1.64l-0.102,-3.627c1.908,-1.002 5.026,-1.957 8.505,-1.957c7.088,0 7.907,4.502 6.595,9.3l-2.154,7.981Z" style="fill:#fff;fill-rule:nonzero;"/><path d="M426.066,243.608c0.108,-0.453 0.204,-0.94 0.228,-1.353c0.074,-2.089 -1.226,-3.858 -3.707,-3.858c-3.593,0 -6.465,3.038 -7.583,7.217c-1.1,4.034 0.024,7.06 3.547,7.06c2.274,0 4.529,-1.439 5.771,-3.661c0.324,-0.54 0.595,-1.177 0.746,-1.726l0.998,-3.679Zm-2.696,9.925l-0.089,0c-1.908,2.148 -4.589,3.547 -7.812,3.547c-4.946,0 -8.086,-4.305 -6.215,-11.21c2.184,-8.068 8.394,-11.873 13.111,-11.873c3.088,0 4.906,1.322 5.519,3.395l0.071,0.056l0.946,-2.952l5.393,0c-0.638,1.997 -1.294,4.07 -1.926,6.4l-6.681,24.667l-5.586,0l3.269,-12.03Z" style="fill:#fff;fill-rule:nonzero;"/><path d="M454.763,249.965c-0.706,2.632 -1.205,4.81 -1.606,6.616l-4.893,0l0.632,-3.359l-0.099,0c-1.377,1.593 -4.182,3.858 -8.11,3.858c-4.046,0 -7.054,-2.391 -5.113,-9.611l3.51,-12.973l5.599,0l-3.263,12.021c-1.005,3.67 -0.459,6.039 2.493,6.039c2.219,0 4.104,-1.59 5.072,-2.995c0.314,-0.499 0.613,-1.088 0.783,-1.725l3.63,-13.34l5.571,0l-4.206,15.469Z" style="fill:#fff;fill-rule:nonzero;"/><path d="M471.699,228.331c-0.45,1.677 -2.046,2.992 -3.984,2.992c-1.855,0 -2.727,-1.315 -2.287,-2.992c0.475,-1.732 2.105,-3.038 3.978,-3.038c1.896,0 2.715,1.306 2.293,3.038m-13.595,28.251l5.987,-22.088l5.617,0l-5.984,22.088l-5.62,0Z" style="fill:#fff;fill-rule:nonzero;"/><path d="M477.537,224.384l5.621,0l-8.727,32.199l-5.627,0l8.733,-32.199Z" style="fill:#fff;fill-rule:nonzero;"/><path d="M599.106,211.043c-15.888,-2.425 -16.347,-3.482 -23.647,-3.279c-10.333,0.268 -26.769,4.866 -35.684,7.195l-1.479,0.259l-6.351,-23.046l-14.422,26.92l-24.982,5.312l16.003,11.392l-20.973,39.071l36.43,-27.398l29.653,22.35l-2.268,-8.064l-0.863,-3.377c0,0 -2.419,-6.157 3.294,-8.191c5.686,-2.028 14.539,0.536 23.531,-0.139c5.392,-0.412 13.644,-3.195 23.444,-10.31c-2.253,0.776 -4.703,1.54 -7.374,2.243c-12.782,3.353 -23.768,-3.732 -33.777,-3.587c-16.178,0.253 -16.76,11.18 -16.575,13.503c-0.028,-0.049 0.573,2.444 0.573,2.444l-18.603,-13.303l-23.478,17.509l12.958,-25.012l-11.676,-7.618l17.675,-3.993l10.04,-19.349l4.182,16.942l27.265,-6.015l-4.647,3.411l-8.93,6.681c2.298,-1.122 4.921,-2.154 7.882,-2.943c0.176,-0.046 0.321,-0.086 0.493,-0.117c0.244,-0.071 0.509,-0.123 0.761,-0.188c0.204,-0.053 0.413,-0.102 0.632,-0.145c0.24,-0.049 0.456,-0.105 0.696,-0.151c0.278,-0.055 0.586,-0.111 0.866,-0.157c0.244,-0.037 0.478,-0.093 0.731,-0.13c0.391,-0.055 0.788,-0.117 1.186,-0.172c0.185,-0.028 0.373,-0.037 0.564,-0.074c0.333,-0.028 0.644,-0.062 0.964,-0.096c0.204,-0.012 0.407,-0.034 0.595,-0.061c0.348,-0.016 0.681,-0.046 1.048,-0.065c0.157,-0.012 0.348,-0.028 0.53,-0.034c0.524,-0.028 1.054,-0.037 1.599,-0.046c15.981,-0.16 23.623,2.142 34.994,0.404c13.173,-2.028 27.179,-12.286 32.016,-16.782l0.025,-0.013c0,0 -17.139,10.955 -34.901,8.219" style="fill:#fff;fill-rule:nonzero;"/><path d="M581.249,234.438l-2.034,-1.725l-3.377,1.386l2.342,-2.409l-1.427,-1.643l2.733,0.222l2.052,-2.459l-0.391,2.561l2.863,0.135l-2.931,1.378l0.17,2.554Zm-10.135,-1.312l-2.324,-1.794l-3.516,1.76l2.348,-2.795l-1.654,-1.747l2.961,0.077l2.009,-2.854l-0.222,2.863l3.075,-0.025l-3.044,1.707l0.367,2.808Zm-11.624,-2.737l0.946,2.524l-2.647,-1.14l-3.1,2.413l1.72,-3.128l-1.991,-1.245l2.924,-0.588l1.409,-3.1l0.366,2.717l3.023,-0.721l-2.65,2.268Zm-0.727,-5.876c-0.21,0.015 -0.431,0.04 -0.638,0.068c-0.052,0 -0.071,0 -0.095,0.015c-0.195,0.022 -0.392,0.043 -0.592,0.068c-0.04,0 -0.083,0.025 -0.133,0.034c-0.184,0.028 -0.379,0.061 -0.57,0.095c-0.043,0 -0.107,0.016 -0.157,0.016c-0.191,0.052 -0.366,0.08 -0.561,0.111c-0.064,0.021 -0.129,0.043 -0.185,0.058c-0.175,0.034 -0.372,0.074 -0.554,0.124c-0.059,0.018 -0.127,0.043 -0.197,0.058c-0.182,0.04 -0.361,0.092 -0.549,0.139c-0.089,0.027 -0.151,0.052 -0.234,0.055c-0.182,0.053 -0.348,0.108 -0.536,0.17c-0.077,0.021 -0.157,0.049 -0.241,0.074c-0.181,0.043 -0.354,0.107 -0.524,0.172c-0.101,0.025 -0.169,0.056 -0.265,0.083c-0.175,0.062 -0.36,0.114 -0.517,0.179c-0.077,0.04 -0.191,0.071 -0.278,0.111c-0.166,0.049 -0.329,0.111 -0.499,0.182c-0.089,0.034 -0.203,0.077 -0.299,0.117c-0.151,0.068 -0.314,0.136 -0.459,0.206c-0.126,0.044 -0.228,0.087 -0.342,0.139c-0.145,0.056 -0.296,0.123 -0.428,0.188c-0.12,0.068 -0.241,0.114 -0.361,0.166c-0.138,0.065 -0.271,0.127 -0.403,0.195c-0.133,0.055 -0.253,0.117 -0.386,0.181c-0.126,0.056 -0.252,0.124 -0.348,0.188c-0.145,0.065 -0.289,0.136 -0.416,0.225c-0.108,0.053 -0.222,0.114 -0.323,0.17c-0.145,0.077 -0.29,0.157 -0.441,0.252c-0.083,0.041 -0.182,0.108 -0.265,0.164c-0.157,0.095 -0.314,0.179 -0.481,0.283c-0.068,0.043 -0.12,0.087 -0.2,0.127c-0.166,0.114 -0.348,0.218 -0.53,0.326c-0.015,0.028 -0.046,0.065 -0.083,0.068c-2.022,1.396 -3.79,3.038 -4.952,4.909l-0.019,0c-0.132,0.209 -0.265,0.428 -0.373,0.641c0,0.006 -0.006,0.012 -0.006,0.018c-0.114,0.207 -0.225,0.423 -0.326,0.638l0,0.034c-0.114,0.204 -0.185,0.422 -0.265,0.638c0,0.012 -0.022,0.022 -0.028,0.04c-0.074,0.21 -0.145,0.438 -0.213,0.656c0,0 -0.018,0.013 -0.018,0.028c-0.053,0.225 -0.114,0.453 -0.154,0.697l0.114,0.449l0.644,2.555l0.98,3.892c0.006,-0.022 0.012,-0.049 0.03,-0.059c0.121,-0.289 0.278,-0.579 0.444,-0.899c0.031,-0.016 0.05,-0.062 0.062,-0.09c0.065,-0.095 0.132,-0.212 0.179,-0.314c0.018,-0.009 0.03,-0.031 0.037,-0.049c0.12,-0.198 0.265,-0.395 0.403,-0.598c0.031,-0.049 0.062,-0.096 0.102,-0.13c0.068,-0.104 0.139,-0.197 0.213,-0.298c0.058,-0.059 0.089,-0.102 0.138,-0.161c0.136,-0.178 0.281,-0.351 0.45,-0.533c0.037,-0.043 0.083,-0.089 0.139,-0.151c0.089,-0.086 0.182,-0.194 0.283,-0.286l0.197,-0.198c0.081,-0.083 0.176,-0.172 0.278,-0.277c0.108,-0.086 0.197,-0.188 0.32,-0.277c0.142,-0.124 0.275,-0.256 0.432,-0.358c0.095,-0.083 0.188,-0.163 0.289,-0.237c0.102,-0.077 0.21,-0.17 0.33,-0.253c0.108,-0.074 0.231,-0.154 0.358,-0.249c0.16,-0.124 0.348,-0.241 0.533,-0.358c0.132,-0.095 0.252,-0.172 0.397,-0.252c0.127,-0.074 0.253,-0.155 0.379,-0.241c0.151,-0.071 0.271,-0.138 0.416,-0.219l0.398,-0.228c0.252,-0.123 0.505,-0.252 0.764,-0.36c0.132,-0.074 0.283,-0.142 0.428,-0.207c0.167,-0.074 0.342,-0.144 0.506,-0.221c0.157,-0.062 0.317,-0.127 0.474,-0.201c0.241,-0.086 0.487,-0.185 0.758,-0.277c0.194,-0.068 0.398,-0.151 0.592,-0.213c0.222,-0.061 0.431,-0.151 0.665,-0.215c0.164,-0.053 0.358,-0.105 0.524,-0.173c0.253,-0.062 0.493,-0.12 0.737,-0.191c0.191,-0.056 0.373,-0.102 0.564,-0.154c0.354,-0.077 0.712,-0.163 1.078,-0.25c0.179,-0.04 0.361,-0.064 0.552,-0.117c0.283,-0.049 0.579,-0.108 0.875,-0.157c0.179,-0.037 0.342,-0.068 0.536,-0.108c0.444,-0.068 0.918,-0.142 1.39,-0.203c0.151,-0.019 0.311,-0.034 0.468,-0.059c0.386,-0.046 0.765,-0.095 1.15,-0.129c0.182,-0.019 0.354,-0.046 0.542,-0.068c0.542,-0.037 1.1,-0.089 1.673,-0.111c10.881,-0.696 19.349,3.596 31.068,1.183c14.674,-3.016 27.191,-14.347 28.84,-16.418l-0.096,0.16c0.247,-0.28 0.469,-0.557 0.709,-0.856c-5.534,3.285 -15.05,8.055 -24.646,8.797c-16.911,1.298 -25.29,-3.808 -39.252,-2.739" style="fill:#fff;fill-rule:nonzero;"/><path d="M668.488,47.318c1.066,0.404 1.975,-0.194 2.046,-1.328l1.054,-20.242c0.065,-1.131 -0.416,-1.297 -1.072,-0.37l-11.399,16.255c-0.65,0.931 -0.323,2.018 0.746,2.422l8.625,3.263Z" style="fill:#00b6ed;fill-rule:nonzero;"/><path d="M675.295,53.858c-1.079,-0.352 -2.015,0.286 -2.114,1.417l-0.336,4.582c-0.083,1.131 0.764,1.929 1.883,1.769l14.874,-2.123c1.125,-0.16 1.162,-0.579 0.077,-0.934l-14.384,-4.711Z" style="fill:#7acaf1;fill-rule:nonzero;"/><path d="M648.699,46.903c0.397,-1.063 -0.139,-2.277 -1.193,-2.699l-19.185,-7.655c-1.054,-0.422 -1.254,-0.123 -0.422,0.66l16.501,15.755c0.82,0.777 1.818,0.552 2.222,-0.514l2.077,-5.547Z" style="fill:#7acaf1;fill-rule:nonzero;"/><path d="M644.853,64.522c-0.706,-0.896 -1.901,-0.939 -2.678,-0.11l-18.942,20.495c-0.77,0.832 -0.564,1.106 0.459,0.61l25.411,-12.36c1.023,-0.493 1.281,-1.627 0.582,-2.521l-4.832,-6.114Z" style="fill:#fff;fill-rule:nonzero;"/><path d="M662.162,73.391c-0.998,0.545 -1.47,1.855 -1.054,2.912l8.259,20.976c0.416,1.063 0.746,0.995 0.739,-0.142l-0.258,-25.872c-0.007,-1.138 -0.836,-1.621 -1.837,-1.076l-5.849,3.202Z" style="fill:#00b6ed;fill-rule:nonzero;"/><path d="M545.216,176.143c-0.083,-5.1 0.323,-9.84 1.232,-14.209c0.669,-3.279 1.905,-7.427 3.68,-12.462c6.163,-18.523 14.643,-39.311 25.41,-62.373l1.198,-2.61c0.136,-0.154 0.127,-0.302 -0.036,-0.459c-0.17,-0.141 -0.266,-0.37 -0.284,-0.684l-5.96,1.19c-0.462,0.021 -1.297,0.212 -2.514,0.573c-0.928,0.04 -1.794,-0.191 -2.607,-0.697c-0.817,-0.505 -1.328,-1.14 -1.553,-1.907l-0.293,-0.912c-0.114,-1.541 0.558,-2.73 2.046,-3.572c1.029,-0.662 2.854,-1.205 5.458,-1.63c1.66,-0.533 4.332,-1.038 8.011,-1.51c2.13,-0.557 3.532,-1.547 4.201,-2.967c1.679,-4.253 3.66,-7.818 5.91,-10.705c1.408,-1.917 2.323,-3.033 2.764,-3.365c1.322,-0.986 2.592,-1.51 3.833,-1.563c1.076,-0.043 1.951,0.148 2.604,0.586c2.247,0.986 3.473,2.866 3.692,5.642c-0.17,1.864 -0.367,3.263 -0.604,4.203c-0.512,1.415 -0.937,2.98 -1.264,4.7c0.481,0.286 0.999,0.412 1.541,0.394c0.543,-0.025 0.885,-0.04 1.042,-0.046c4.305,-0.496 7.673,-0.956 10.123,-1.372c1.389,-0.061 2.409,0.05 3.047,0.333c1.871,0.071 2.888,1.113 3.032,3.113l0.037,0.465c0.096,1.236 -0.675,2.271 -2.317,3.118c-0.592,0.336 -1.667,0.537 -3.208,0.604c-4.742,0.826 -9.497,1.501 -14.264,2.016c-1.68,0.382 -2.783,1.127 -3.31,2.231c-4.443,10.717 -7.854,18.754 -10.233,24.115c-1.048,2.527 -3.208,7.68 -6.475,15.485c-3.275,7.802 -6.122,15.084 -8.541,21.839c-1.289,3.46 -3.045,8.794 -5.273,16.005l-3.316,8.277c-2.342,5.815 -4.16,9.845 -5.457,12.067c-1.307,2.222 -2.884,3.374 -4.739,3.454c-0.614,0.028 -1.409,-0.169 -2.37,-0.591c-2.897,-1.424 -4.308,-3.676 -4.243,-6.776" style="fill:#fff;fill-rule:nonzero;"/><path d="M614.911,163.591l-0.071,-0.928c-0.12,-1.54 0.021,-3.713 0.425,-6.517c1.775,-9.201 4.715,-19.232 8.835,-30.088l1.128,-3.531c-0.752,0.345 -1.464,1.149 -2.145,2.416c-4.213,5.596 -8.601,11.978 -13.167,19.139c-2.361,3.664 -4.61,6.545 -6.77,8.65c-1.862,2.092 -3.6,3.636 -5.227,4.631c-1.787,1.014 -3.448,1.547 -4.995,1.615c-2.317,0.102 -4.382,-0.582 -6.203,-2.052c-1.812,-1.467 -3.06,-3.501 -3.725,-6.102c-0.453,-1.836 -0.725,-3.294 -0.802,-4.372c-0.157,-2.003 -0.08,-3.945 0.247,-5.812c1.408,-13.833 5.987,-26.797 13.74,-38.892c1.939,-3.02 4.142,-5.439 6.65,-7.25c1.596,-1.31 3.322,-2.007 5.19,-2.087c2.178,0.222 3.802,1.15 4.856,2.808c0.518,0.597 0.807,1.352 0.878,2.28c0.071,0.931 -0.24,1.95 -0.921,3.06c-4.188,6.064 -7.522,12.591 -10.003,19.58c-2.48,6.995 -4.622,14.939 -6.409,23.832c-0.373,1.26 -0.385,2.108 -0.043,2.558c0.909,-0.349 1.919,-1.319 3.035,-2.918c5.685,-6.592 12.326,-15.078 19.891,-25.466c3.633,-5.106 6.44,-8.869 8.425,-11.275l14.048,-19.873c1.516,-2.391 3.393,-3.168 5.633,-2.336c2.376,0.672 3.519,2.478 3.442,5.421c-0.077,1.087 -0.456,3.112 -1.155,6.08c-3.461,13.46 -6.983,25.989 -10.585,37.597c-2.746,8.628 -5.051,16.927 -6.906,24.899l-1.667,5.642c-0.505,1.411 -1.34,2.61 -2.508,3.59c-1.439,1.454 -3.082,2.225 -4.937,2.308c-1.239,0.052 -2.178,-0.065 -2.816,-0.345c-2.875,-1.113 -4.669,-3.202 -5.368,-6.262" style="fill:#fff;fill-rule:nonzero;"/><path d="M386.539,102.576l0.006,5.84l20.338,0c0.771,0 1.455,0.302 2.059,0.903c0.601,0.597 0.9,1.355 0.9,2.268l0,6.277c0,0.816 -0.299,1.55 -0.9,2.197c-0.598,0.653 -1.288,0.98 -2.059,0.98l-20.338,0l0,6.422l21.349,-0.007c0.817,0 1.522,0.305 2.129,0.903c0.601,0.604 0.903,1.384 0.903,2.345l0,6.203c0,0.866 -0.302,1.621 -0.903,2.271c-0.607,0.651 -1.312,0.974 -2.129,0.974l-34.041,0.006c-0.826,0 -1.529,-0.329 -2.133,-0.973c-0.601,-0.651 -0.903,-1.409 -0.903,-2.272l0,-0.215l0,-5.991l0,-31.308l0,-6.271c0,-0.915 0.296,-1.673 0.897,-2.274c0.61,-0.601 1.313,-0.9 2.133,-0.9l34.047,-0.003c0.817,0 1.522,0.299 2.123,0.9c0.601,0.601 0.903,1.359 0.903,2.271l0,6.274c0,0.82 -0.311,1.55 -0.934,2.203c-0.631,0.651 -1.322,0.974 -2.092,0.974l-21.355,0.003Z" style="fill:#00b6ed;fill-rule:nonzero;"/><path d="M434.444,113.246c2.216,0 4.243,-0.398 6.101,-1.19c1.843,-0.795 2.771,-2.634 2.771,-5.519c0,-2.021 -0.607,-3.559 -1.837,-4.619c-1.232,-1.057 -2.995,-1.587 -5.303,-1.587l-5.92,0.003l0,0.721l0.006,12.191l4.182,0Zm10.754,22.578c-0.536,-3.27 -1.623,-5.547 -3.284,-6.819c-1.661,-1.276 -3.714,-2.028 -6.17,-2.272c-0.339,-0.049 -0.745,-0.07 -1.229,-0.07c-0.481,0 -0.884,0.046 -1.22,0.141l-0.077,0.077l0,9.229c0,0.916 -0.081,1.649 -0.25,2.201c-0.166,0.554 -0.626,1.013 -1.371,1.371c-0.74,0.357 -1.914,0.542 -3.498,0.545l-6.708,0c-1.489,0.043 -2.669,-0.231 -3.535,-0.835c-0.866,-0.598 -1.294,-1.43 -1.294,-2.483l0.068,-19.482l0,-25.099c0,-0.718 0.354,-1.358 1.069,-1.91c0.73,-0.555 1.59,-0.832 2.601,-0.832l16.378,0c7.214,-0.046 12.548,1.165 16.015,3.642c3.46,2.478 5.343,6.357 5.627,11.645c0.049,0.484 0.061,0.86 0.043,1.122c-0.031,0.262 -0.043,0.493 -0.043,0.684l0,1.516c-0.241,2.789 -0.974,4.998 -2.198,6.632c-1.226,1.639 -2.853,3.155 -4.868,4.548l0.074,0.074c2.357,1.152 4.231,2.813 5.62,4.976c1.396,2.164 2.345,4.425 2.854,6.78c0.505,2.357 0.708,4.471 0.613,6.345c0,0.822 -0.29,1.466 -0.869,1.95c-0.57,0.481 -1.396,0.721 -2.447,0.721l-8.801,0c-1.251,0 -2.058,-0.314 -2.412,-0.937c-0.361,-0.625 -0.561,-1.285 -0.586,-1.984c-0.015,-0.697 -0.052,-1.19 -0.102,-1.476" style="fill:#00b6ed;fill-rule:nonzero;"/><path d="M480.576,102.566l0.006,5.842l20.345,-0.003c0.764,0 1.448,0.299 2.052,0.903c0.595,0.601 0.9,1.362 0.9,2.274l0,6.274c0,0.817 -0.305,1.553 -0.9,2.2c-0.604,0.648 -1.288,0.974 -2.052,0.974l-20.345,0l0,6.419l21.349,0c0.817,0 1.529,0.299 2.136,0.906c0.588,0.598 0.896,1.374 0.896,2.336l0,6.206c0,0.866 -0.302,1.627 -0.896,2.271c-0.601,0.653 -1.313,0.974 -2.136,0.974l-34.041,0.003c-0.826,0.003 -1.535,-0.321 -2.133,-0.977c-0.601,-0.641 -0.903,-1.402 -0.903,-2.265l0,-0.216l0,-5.987l0,-31.305l0,-6.277c0,-0.912 0.302,-1.667 0.897,-2.271c0.604,-0.601 1.313,-0.903 2.133,-0.903l34.041,-0.003c0.823,0 1.528,0.302 2.129,0.9c0.601,0.607 0.903,1.359 0.903,2.274l0,6.277c0,0.816 -0.311,1.547 -0.934,2.197c-0.631,0.65 -1.321,0.974 -2.092,0.974l-21.355,0.003Z" style="fill:#00b6ed;fill-rule:nonzero;"/><path d="M507.931,131.124c0,-0.863 0.44,-1.871 1.306,-3.026l2.666,-3.461c0.764,-1.106 1.383,-1.889 1.836,-2.348c0.457,-0.456 0.95,-0.681 1.48,-0.681c0.428,0 0.958,0.139 1.583,0.432c0.626,0.289 1.492,0.764 2.601,1.442c0.145,0.095 1.372,0.934 3.676,2.524c2.312,1.583 5.196,2.28 8.656,2.092c1.15,-0.046 2.053,-0.376 2.703,-0.977c0.653,-0.598 0.98,-1.334 0.98,-2.2c0,-1.156 -0.586,-2.21 -1.735,-3.174c-1.156,-0.958 -2.792,-1.51 -4.903,-1.658l0.071,0c-4.237,-0.866 -7.528,-1.96 -9.882,-3.282c-2.355,-1.319 -4.04,-2.893 -5.051,-4.724c-1.011,-1.827 -1.611,-4.086 -1.806,-6.776c-0.191,-3.174 0.484,-6.077 2.031,-8.696c1.529,-2.622 3.741,-4.69 6.625,-6.203c2.891,-1.516 6.2,-2.271 9.954,-2.271c2.795,0 5.574,0.404 8.366,1.223c2.305,0.626 4.413,1.455 6.32,2.484c1.889,1.039 3.396,2.228 4.508,3.571c0.669,0.682 0.999,1.301 0.999,1.877c0,0.478 -0.173,1.002 -0.536,1.553c-0.361,0.552 -0.974,1.31 -1.834,2.271l-2.095,2.231c-0.681,0.724 -1.199,1.221 -1.553,1.486c-0.355,0.261 -0.709,0.397 -1.048,0.397c-0.336,0 -0.764,-0.151 -1.294,-0.434c-0.53,-0.287 -1.048,-0.589 -1.553,-0.9c-0.5,-0.315 -0.95,-0.592 -1.335,-0.832c-3.315,-2.117 -6.231,-3.171 -8.727,-3.171c-1.534,0 -2.758,0.37 -3.642,1.119c-0.89,0.745 -1.334,1.645 -1.334,2.702c0,1.057 0.431,2.012 1.303,2.847c0.863,0.848 2.09,1.387 3.673,1.627c6.884,1.054 12.006,3.1 15.402,6.129c3.392,3.026 5.084,6.49 5.084,10.385c0,2.887 -0.903,5.667 -2.702,8.329c-1.806,2.672 -4.302,4.835 -7.498,6.496c-3.201,1.661 -6.773,2.487 -10.714,2.487c-6.446,0 -12.908,-2.256 -19.398,-6.776c-2.123,-1.442 -3.177,-2.814 -3.183,-4.114" style="fill:#00b6ed;fill-rule:nonzero;"/><path d="M87.579,154.757l-0.055,-0.619c-0.071,-1.023 0.006,-2.456 0.252,-4.302c1.06,-6.065 2.866,-12.641 5.378,-19.744l0.69,-2.321c-0.468,0.219 -0.909,0.731 -1.319,1.56c-2.604,3.618 -5.3,7.763 -8.104,12.407c-1.452,2.376 -2.835,4.238 -4.167,5.597c-1.149,1.344 -2.221,2.336 -3.226,2.968c-1.094,0.626 -2.129,0.944 -3.081,0.962c-1.446,0.016 -2.728,-0.477 -3.858,-1.484c-1.137,-1.011 -1.902,-2.376 -2.33,-4.108c-0.287,-1.235 -0.462,-2.203 -0.512,-2.918c-0.101,-1.331 -0.058,-2.613 0.133,-3.848c0.832,-9.125 3.63,-17.621 8.385,-25.471c1.198,-1.966 2.564,-3.525 4.104,-4.675c0.98,-0.832 2.053,-1.255 3.208,-1.27c1.35,0.194 2.367,0.838 3.026,1.95c0.308,0.416 0.502,0.918 0.543,1.528c0.055,0.626 -0.139,1.288 -0.558,2.009c-2.57,3.927 -4.616,8.189 -6.136,12.771c-1.509,4.57 -2.816,9.8 -3.898,15.646c-0.218,0.835 -0.225,1.383 -0.012,1.695c0.558,-0.21 1.18,-0.842 1.864,-1.874c3.51,-4.247 7.59,-9.736 12.243,-16.464c2.24,-3.31 3.978,-5.741 5.199,-7.298l8.637,-12.882c0.934,-1.547 2.089,-2.022 3.479,-1.434c1.482,0.496 2.197,1.719 2.148,3.661c-0.04,0.718 -0.265,2.061 -0.696,4.009c-2.096,8.841 -4.238,17.063 -6.428,24.681c-1.674,5.658 -3.082,11.103 -4.207,16.339l-1.007,3.707c-0.312,0.928 -0.829,1.704 -1.544,2.33c-0.888,0.934 -1.911,1.418 -3.06,1.421c-0.764,0.022 -1.347,-0.08 -1.744,-0.277c-1.781,-0.792 -2.9,-2.212 -3.347,-4.252" style="fill:#fff;fill-rule:nonzero;"/><path d="M114.886,140.374c2.884,-2.287 5.562,-4.885 8.024,-7.789c2.453,-2.909 5.242,-6.49 8.369,-10.734c0.265,-0.302 0.327,-0.663 0.207,-1.063c-0.345,-0.82 -0.555,-1.864 -0.604,-3.152c-0.053,-1.276 -0.108,-2.272 -0.161,-2.996c-0.132,-1.738 -0.44,-3.118 -0.896,-4.126c-1.529,1.246 -4.45,6.022 -8.739,14.331c-4.293,8.305 -6.542,13.597 -6.755,15.849l0.555,-0.32Zm12.249,13.427c-0.549,-0.755 -0.851,-1.698 -0.94,-2.826c-0.241,-3.174 0.058,-6.049 0.921,-8.622l3.31,-9.11l0.841,-2.172c-0.185,0.015 -0.293,-0.083 -0.305,-0.293l-1.831,2.327c-4.357,5.803 -9.358,11.098 -15.022,15.9c-1.895,1.566 -3.263,2.5 -4.098,2.811c-0.734,0.426 -1.584,0.642 -2.539,0.657c-1.248,0.013 -2.324,-0.406 -3.264,-1.26c-0.927,-0.859 -1.541,-2.048 -1.852,-3.583c-0.12,-0.311 -0.2,-0.77 -0.246,-1.384c-0.043,-0.505 -0.025,-1.118 0.071,-1.839c0.089,-0.718 0.12,-1.236 0.089,-1.541c0.308,-2.256 1.023,-4.829 2.139,-7.71c2.93,-8.041 7.192,-16.087 12.812,-24.168c1.455,-2.163 3.221,-4.133 5.279,-5.908c1.18,-1.039 2.647,-1.834 4.428,-2.367c0.373,-0.108 0.851,-0.167 1.427,-0.173c2.672,-0.041 4.69,1.21 6.037,3.758c0.788,1.519 1.251,3.208 1.395,5.044c0.074,0.922 0.081,1.643 0.019,2.154c0.018,0.21 0.018,0.487 0,0.838c-0.025,0.367 0.031,0.805 0.169,1.304c0.278,-0.204 0.937,-0.9 1.991,-2.096c1.06,-1.193 1.926,-2.41 2.601,-3.649c1.337,-2.472 2.4,-4.284 3.171,-5.424c0.856,-1.245 1.747,-2.173 2.662,-2.808c0.632,-0.419 1.334,-0.635 2.105,-0.641c0.669,-0.013 1.362,0.185 2.052,0.579c1.319,0.915 1.951,2.227 1.889,3.968c0.099,1.23 -0.136,2.57 -0.696,4.013c-1.276,3.3 -2.287,5.769 -3.023,7.414c-4.832,11.853 -8.551,21.443 -11.158,28.75c-0.54,1.645 -1.27,3.269 -2.204,4.872c-0.93,1.6 -1.534,2.604 -1.787,3.017c-0.518,0.727 -1.171,1.245 -1.954,1.563c-0.795,0.314 -1.584,0.382 -2.36,0.188c-0.884,-0.295 -1.602,-0.816 -2.129,-1.583" style="fill:#fff;fill-rule:nonzero;"/><path d="M156.456,181.774c2.034,-2.173 3.978,-4.971 5.827,-8.377c3.032,-5.267 6.018,-11.969 8.942,-20.108c-0.012,-0.096 0.05,-0.274 0.176,-0.543c0.133,-0.249 0.133,-0.487 0.015,-0.684l-0.588,-0.148c-0.284,0.004 -0.703,0.108 -1.264,0.33c-3.472,0.972 -6.465,2.556 -8.985,4.735c-5.935,4.997 -10.678,11.321 -14.203,18.948c-1.001,1.966 -1.488,4.382 -1.451,7.248c0.108,1.436 0.323,2.397 0.656,2.912c0.318,0.511 0.866,0.758 1.636,0.751c0.765,-0.015 1.427,-0.132 1.982,-0.339c2.628,-0.755 5.041,-2.334 7.257,-4.725m-13.759,9.808c-1.566,-1.565 -2.496,-3.725 -2.804,-6.496c-0.386,-3.777 0.151,-7.318 1.624,-10.625c4.286,-8.971 9.589,-16.066 15.897,-21.274c4.416,-3.653 9.285,-5.725 14.613,-6.203c0.961,-0.013 1.587,-0.484 1.913,-1.415c2.274,-6.487 4.604,-14.145 6.986,-22.995c0.099,-0.099 0.126,-0.358 0.092,-0.765l-1.59,1.72c-2.261,2.999 -3.352,4.441 -3.263,4.336c-5.242,6.636 -9.177,11.462 -11.824,14.461c-1.242,1.353 -3.1,3.276 -5.599,5.77c-1.162,1.035 -2.299,1.821 -3.405,2.351c-0.838,0.318 -1.639,0.481 -2.41,0.5c-1.913,0.025 -3.568,-0.927 -4.958,-2.856c-1.186,-1.614 -1.978,-3.762 -2.363,-6.409c-0.382,-2.465 -0.201,-5.639 0.558,-9.54c2.039,-8.228 5.315,-16.154 9.805,-23.806c0.518,-0.722 0.866,-1.187 1.041,-1.397c0.259,-0.517 0.564,-0.826 0.937,-0.943c0.909,-0.628 1.655,-0.943 2.228,-0.943c0.669,-0.006 1.257,0.185 1.763,0.588c1.3,0.696 2.012,1.917 2.157,3.651c0.064,0.823 -0.056,1.846 -0.333,3.082c-0.663,2.672 -1.559,5.39 -2.678,8.182c-2.678,7.615 -4.477,13.387 -5.429,17.285c-0.432,1.855 -0.657,3.337 -0.663,4.468c0.478,-0.009 0.875,-0.163 1.186,-0.471c0.309,-0.318 0.512,-0.521 0.601,-0.629c2.697,-2.29 5.14,-4.737 7.337,-7.332c3.985,-4.257 9.559,-10.935 16.714,-20.061l3.68,-4.512c1.245,-1.338 2.2,-2.583 2.875,-3.729l0.373,-0.771c1.294,-1.861 2.677,-2.499 4.166,-1.899c0.884,0.287 1.574,0.869 2.071,1.735c0.505,0.857 0.745,1.858 0.733,2.983c0.083,1.023 -0.108,2.973 -0.555,5.845c-0.656,2.777 -2.04,8.339 -4.175,16.66c-1.633,6.169 -3.226,11.63 -4.78,16.363c-0.234,0.614 -0.354,1.03 -0.329,1.233c0.015,0.308 0.474,0.601 1.365,0.903c1.963,0.68 3.55,1.423 4.761,2.233c2.317,1.402 3.882,3.626 4.693,6.686c0.231,0.515 0.277,1.075 0.132,1.689c0.068,0.924 -0.366,1.494 -1.315,1.722l-0.284,0c-0.579,0.007 -1.131,-0.348 -1.661,-1.059l-0.536,-1.371c-0.561,-2.25 -1.981,-3.864 -4.256,-4.847l-0.453,-0.16c-1.781,-0.795 -2.816,-1.186 -3.103,-1.186c-0.477,0.016 -0.884,0.321 -1.223,0.943c-0.33,0.62 -0.65,1.446 -0.949,2.478c-2.216,6.173 -4.293,11.526 -6.243,16.065c-2.401,4.956 -5.14,9.19 -8.215,12.722c-3.1,3.43 -6.259,5.921 -9.485,7.515c-3.153,1.479 -6.213,2.182 -9.189,2.121c-2.595,-0.163 -4.678,-1.034 -6.231,-2.596" style="fill:#fff;fill-rule:nonzero;"/><path d="M203.328,137.327c2.888,-2.299 5.568,-4.897 8.024,-7.804c2.459,-2.903 5.254,-6.469 8.376,-10.722c0.265,-0.308 0.327,-0.669 0.2,-1.078c-0.345,-0.814 -0.548,-1.865 -0.598,-3.153c-0.04,-1.269 -0.107,-2.265 -0.16,-2.989c-0.132,-1.735 -0.434,-3.109 -0.897,-4.129c-1.534,1.245 -4.443,6.032 -8.739,14.34c-4.292,8.306 -6.542,13.588 -6.754,15.853l0.548,-0.318Zm12.249,13.421c-0.542,-0.758 -0.844,-1.707 -0.934,-2.829c-0.252,-3.174 0.053,-6.043 0.916,-8.613l3.328,-9.119l0.841,-2.163c-0.191,0 -0.299,-0.095 -0.324,-0.308l-1.824,2.333c-4.345,5.8 -9.352,11.092 -15.022,15.885c-1.895,1.569 -3.264,2.509 -4.092,2.836c-0.74,0.41 -1.59,0.625 -2.546,0.647c-1.248,0.013 -2.317,-0.406 -3.269,-1.259c-0.922,-0.857 -1.529,-2.056 -1.846,-3.584c-0.117,-0.314 -0.2,-0.77 -0.253,-1.38c-0.037,-0.515 -0.012,-1.131 0.077,-1.846c0.084,-0.718 0.12,-1.227 0.102,-1.535c0.302,-2.268 1.011,-4.832 2.132,-7.722c2.931,-8.025 7.193,-16.087 12.807,-24.153c1.448,-2.172 3.226,-4.145 5.291,-5.917c1.162,-1.033 2.629,-1.828 4.416,-2.364c0.373,-0.108 0.85,-0.164 1.427,-0.176c2.677,-0.038 4.693,1.213 6.036,3.758c0.789,1.522 1.258,3.205 1.39,5.05c0.074,0.922 0.08,1.64 0.037,2.154c0.012,0.201 0.006,0.487 -0.018,0.848c-0.019,0.357 0.036,0.792 0.175,1.3c0.271,-0.216 0.937,-0.909 1.997,-2.102c1.06,-1.199 1.92,-2.413 2.595,-3.655c1.337,-2.478 2.394,-4.284 3.17,-5.424c0.863,-1.242 1.748,-2.173 2.666,-2.802c0.641,-0.419 1.337,-0.632 2.102,-0.644c0.674,-0.009 1.365,0.188 2.064,0.585c1.307,0.9 1.938,2.218 1.883,3.975c0.099,1.22 -0.139,2.561 -0.696,3.997c-1.282,3.303 -2.281,5.769 -3.017,7.417c-4.844,11.859 -8.564,21.437 -11.165,28.744c-0.542,1.648 -1.281,3.282 -2.209,4.872c-0.931,1.609 -1.528,2.601 -1.787,3.02c-0.512,0.727 -1.174,1.245 -1.948,1.572c-0.789,0.311 -1.59,0.379 -2.366,0.185c-0.885,-0.295 -1.597,-0.825 -2.136,-1.583" style="fill:#fff;fill-rule:nonzero;"/><path d="M281.022,100.485c-0.102,-1.34 -0.746,-2.302 -1.945,-2.899c-0.588,-0.197 -1.081,-0.287 -1.457,-0.287c-0.678,0.007 -1.233,0.229 -1.67,0.636l-0.928,1.097c-0.863,1.334 -2.246,3.257 -4.166,5.741c-2.425,3.31 -4.188,5.905 -5.291,7.77c-3.753,5.985 -8.191,11.837 -13.306,17.545c-1.87,1.967 -3.346,3.381 -4.419,4.213c-0.101,0.001 -0.259,0.136 -0.474,0.398c-0.228,0.253 -0.475,0.281 -0.789,0.083l-0.034,-0.456c-0.025,-0.311 0.015,-0.98 0.132,-2.009c1.48,-8.114 3.747,-15.473 6.783,-22.065c0.462,-1.445 1.137,-2.684 2.015,-3.716c0.145,-0.62 0.512,-0.832 1.094,-0.629l-0.108,4.145c0.12,1.534 0.296,2.662 0.549,3.368c0.588,1.331 1.3,1.987 2.166,1.971l0.29,0c1.047,-0.022 1.667,-0.795 1.83,-2.336c0.034,-0.715 0.139,-1.562 0.317,-2.548c0.151,-0.965 0.253,-1.818 0.302,-2.53c0.272,-1.443 0.355,-2.672 0.284,-3.692l-0.049,-0.764c-0.259,-1.948 -0.968,-3.445 -2.148,-4.505c-1.18,-1.06 -2.589,-1.574 -4.225,-1.552c-0.669,0.009 -1.192,0.068 -1.565,0.173c-1.131,0.323 -2.179,0.9 -3.171,1.738c-1.085,0.829 -2.157,1.874 -3.214,3.119c-5.889,8.183 -9.445,17.295 -10.684,27.344c-0.188,1.344 -0.219,2.728 -0.108,4.164c0.04,0.607 0.222,1.63 0.518,3.053c0.533,1.945 1.421,3.473 2.659,4.579c1.233,1.109 2.666,1.654 4.29,1.629c1.343,-0.022 2.607,-0.398 3.806,-1.128c1.269,-0.836 2.341,-1.785 3.22,-2.814l3.55,-4.355c2.089,-2.799 3.17,-4.238 3.257,-4.352c1.035,-1.55 1.593,-2.376 1.679,-2.481c0.083,-0.098 0.197,-0.249 0.324,-0.459c0.132,-0.219 0.326,-0.379 0.613,-0.478c0.012,0.302 -0.006,0.592 -0.077,0.848c-0.071,0.252 -0.17,0.44 -0.247,0.542c-2.973,7.418 -5.472,15.171 -7.482,23.23c-2.317,9.306 -5.164,18.727 -5.802,28.397c-0.234,3.504 -0.413,7.879 1.8,10.914c6.061,8.273 8.757,-8.596 9.33,-11.714c2.185,-11.889 2.654,-16.25 6.077,-27.837c1.205,-4.317 2.619,-8.918 4.262,-13.815c1.63,-4.881 2.684,-8.049 3.155,-9.488l2.804,-8.185l5.68,-15.911c0.459,-1.442 0.668,-2.521 0.61,-3.236l-0.037,-0.456Z" style="fill:#fff;fill-rule:nonzero;"/><path d="M297.356,145.555l-0.043,-0.613c-0.077,-1.029 0,-2.462 0.24,-4.308c1.067,-6.058 2.86,-12.647 5.387,-19.747l0.675,-2.321c-0.45,0.219 -0.897,0.734 -1.322,1.557c-2.589,3.63 -5.279,7.772 -8.095,12.413c-1.452,2.386 -2.835,4.244 -4.16,5.6c-1.144,1.341 -2.234,2.33 -3.233,2.962c-1.094,0.632 -2.123,0.947 -3.075,0.962c-1.445,0.022 -2.733,-0.468 -3.864,-1.478c-1.131,-1.017 -1.908,-2.382 -2.324,-4.117c-0.286,-1.223 -0.462,-2.197 -0.511,-2.905c-0.102,-1.335 -0.065,-2.623 0.126,-3.855c0.832,-9.125 3.63,-17.618 8.391,-25.474c1.199,-1.957 2.558,-3.525 4.105,-4.678c0.986,-0.826 2.052,-1.252 3.207,-1.261c1.35,0.185 2.373,0.835 3.017,1.95c0.324,0.407 0.506,0.912 0.552,1.522c0.049,0.626 -0.145,1.298 -0.564,2.012c-2.576,3.93 -4.616,8.192 -6.129,12.765c-1.516,4.586 -2.823,9.797 -3.905,15.655c-0.206,0.823 -0.234,1.381 -0.006,1.689c0.549,-0.213 1.187,-0.833 1.871,-1.874c3.503,-4.247 7.583,-9.73 12.243,-16.461c2.237,-3.31 3.959,-5.738 5.176,-7.295l8.647,-12.885c0.934,-1.541 2.096,-2.019 3.479,-1.427c1.489,0.498 2.197,1.709 2.154,3.657c-0.04,0.724 -0.271,2.049 -0.696,4.009c-2.102,8.835 -4.243,17.063 -6.434,24.672c-1.674,5.664 -3.076,11.109 -4.207,16.351l-1.001,3.707c-0.324,0.925 -0.835,1.701 -1.55,2.324c-0.888,0.94 -1.898,1.412 -3.048,1.427c-0.77,0.016 -1.346,-0.089 -1.75,-0.277c-1.787,-0.798 -2.903,-2.221 -3.353,-4.258" style="fill:#fff;fill-rule:nonzero;"/><path d="M332.456,87.228l-0.234,-1.073c-0.043,-0.619 0,-1.269 0.133,-2.006c0.145,-0.709 0.252,-1.223 0.323,-1.537c0.284,-1.23 0.783,-2.136 1.507,-2.706c0.727,-0.573 1.575,-0.764 2.552,-0.582c0.955,0.086 1.768,0.573 2.412,1.429c0.638,0.869 1.011,1.954 1.107,3.295c-0.034,1.947 -0.432,3.589 -1.196,4.933c-1.035,1.451 -2.24,1.981 -3.611,1.581c-1.572,-0.388 -2.564,-1.498 -2.993,-3.334m-13.811,44.611l-0.243,-1.236c-0.065,-3.377 0.206,-5.984 0.838,-7.843c1.981,-6.579 3.624,-11.423 4.918,-14.517c1.288,-3.1 2.591,-5.617 3.87,-7.586c0.684,-1.039 1.31,-1.704 1.858,-2.022c0.441,-0.413 1.048,-0.631 1.819,-0.634c0.764,-0.019 1.457,0.283 2.083,0.887c0.619,0.607 1.023,1.362 1.177,2.287l0.061,0.77c0.077,1.02 0.084,1.744 0.025,2.148c-0.132,0.826 -0.29,1.842 -0.487,3.084c-0.194,1.227 -0.397,2.204 -0.632,2.925l-4.797,18.045c-0.453,1.547 -1.637,3.562 -3.55,6.04c-0.706,0.835 -1.59,1.254 -2.638,1.269c-0.379,0 -0.866,-0.08 -1.464,-0.283c-1.467,-0.49 -2.419,-1.606 -2.838,-3.334" style="fill:#fff;fill-rule:nonzero;"/><path d="M334.304,153.928c-0.847,-1.004 -1.479,-2.098 -1.914,-3.266c-0.422,-1.171 -0.662,-2.216 -0.733,-3.146c-0.231,-2.968 -0.043,-6.096 0.558,-9.38c0.807,-3.291 1.704,-6.524 2.702,-9.716c4.237,-13.485 9.692,-29.077 16.379,-46.799l3.1,-8.342c4.908,-13.278 8.501,-22.553 10.779,-27.813c0.323,-0.826 0.896,-2.056 1.731,-3.707c0.595,-1.033 1.252,-1.763 1.988,-2.182c0.558,-0.321 1.119,-0.481 1.689,-0.49c0.668,0 1.282,0.222 1.855,0.665c0.567,0.457 0.967,1.097 1.22,1.905c0.123,0.308 0.219,0.77 0.259,1.39c0.043,0.616 0.031,1.075 -0.04,1.368c-0.08,2.671 -0.681,6.067 -1.812,10.181c-0.573,2.459 -1.63,6.068 -3.196,10.804l-1.041,3.081c-6.826,18.542 -11.882,32.436 -15.192,41.708c-4.699,13.584 -8.101,24.289 -10.172,32.1l-1.341,5.1c-0.209,0.925 -0.283,1.843 -0.215,2.768c0.052,0.607 0.138,1.121 0.259,1.528c0.391,1.328 0.166,2.434 -0.675,3.313c-0.845,0.884 -1.908,1.177 -3.168,0.887c-0.884,-0.191 -1.877,-0.844 -3.02,-1.957" style="fill:#fff;fill-rule:nonzero;"/><path d="M71.853,70.273c-0.367,-3.51 -1.559,-6.15 -3.51,-7.848c-1.618,-1.411 -3.701,-2.166 -6.209,-2.239c-0.543,-0.019 -1.11,0.009 -1.766,0.053l-1.707,0.339c-1.541,0.33 -3.649,1.156 -6.283,2.451c-7.122,3.908 -12.977,9.114 -17.408,15.475c-10.831,16.023 -17.638,33.105 -20.202,50.763c-1.143,8.723 -1.393,16.369 -0.706,22.75c0.838,6.32 3.011,13.318 8.752,16.959c9.586,6.082 21.906,0.72 28.972,-6.162c2.012,-1.951 3.852,-4.201 5.365,-6.555c1.498,-2.345 2.773,-5.014 3.621,-7.683c1.793,-5.643 2.246,-12.635 0.061,-18.341c-0.194,-0.462 -1.306,-4.899 -1.482,-4.899c0.536,-0.022 1.867,-0.303 2.45,-0.374c1.017,-0.095 1.855,-0.57 2.41,-1.393c0.653,-0.955 0.841,-2.305 0.499,-3.59c-0.946,-3.473 -4.589,-3.592 -5.846,-3.626c-0.416,-0.009 -0.829,0 -1.232,0.006c-0.681,0.022 -1.584,0.022 -2.601,0.029c-3.79,0.013 -8.974,0.023 -11.334,1.083c-1.907,0.857 -3.1,2.839 -2.749,4.602c0.145,0.751 0.798,2.511 3.76,2.785c6.952,0.642 10.082,9.529 9.981,14.539c-0.12,6.327 -2.928,13.408 -7.716,17.465c-3.359,2.844 -8.764,6.063 -13.423,5.595c-10.003,-1.027 -8.481,-15.264 -7.957,-21.948l0.102,-1.245c0.894,-11.775 3.467,-22.724 7.651,-32.524c4.237,-10.305 8.776,-18.922 13.494,-25.594c3.039,-4.469 6.675,-8.096 10.792,-10.766c2.329,-1.51 6.788,-4.213 7.811,0.122c0.133,0.586 0.234,1.442 0.33,2.53c0.145,1.969 -0.028,3.873 -0.539,5.655c-0.737,2.647 -5.399,8.632 -1.874,10.949c0.157,0.08 3.239,1.518 5.146,-2.334c0.435,-0.786 0.848,-1.584 1.239,-2.416c2.089,-4.512 2.801,-9.433 2.108,-14.613" style="fill:#fff;fill-rule:nonzero;"/><path d="M95.157,83.553c-0.278,0 -0.512,-0.098 -0.706,-0.299c-0.21,-0.2 -0.305,-0.45 -0.305,-0.752l0,-14.646c0,-0.299 0.095,-0.555 0.305,-0.764c0.194,-0.21 0.428,-0.308 0.706,-0.308l3.226,0c0.271,0 0.505,0.098 0.703,0.308c0.206,0.209 0.302,0.465 0.302,0.764l0,10.721l6.579,0c0.305,0 0.557,0.095 0.782,0.289c0.21,0.191 0.318,0.429 0.318,0.715l0,3.011c0,0.274 -0.108,0.511 -0.318,0.696c-0.225,0.197 -0.477,0.29 -0.782,0.29l-10.197,0l-0.613,-0.025Z" style="fill:#00b6ed;fill-rule:nonzero;"/><path d="M125.815,75.082c0,-0.684 -0.182,-1.316 -0.53,-1.886c-0.348,-0.576 -0.817,-1.035 -1.396,-1.381c-0.588,-0.338 -1.211,-0.514 -1.883,-0.514c-0.699,0 -1.343,0.176 -1.932,0.514c-0.579,0.346 -1.029,0.805 -1.368,1.381c-0.336,0.57 -0.511,1.202 -0.511,1.886c0,0.687 0.175,1.322 0.511,1.904c0.339,0.583 0.789,1.042 1.368,1.384c0.589,0.351 1.233,0.518 1.932,0.518c0.672,0 1.295,-0.167 1.883,-0.518c0.579,-0.342 1.048,-0.801 1.396,-1.384c0.348,-0.582 0.53,-1.217 0.53,-1.904m-12.495,0.216c0,-1.578 0.397,-3.039 1.186,-4.379c0.795,-1.341 1.855,-2.407 3.189,-3.199c1.35,-0.786 2.805,-1.18 4.382,-1.18c1.578,0 3.045,0.394 4.394,1.18c1.341,0.792 2.413,1.858 3.202,3.199c0.795,1.34 1.193,2.801 1.193,4.379c0,1.577 -0.398,3.041 -1.193,4.381c-0.789,1.341 -1.861,2.401 -3.202,3.193c-1.349,0.789 -2.816,1.183 -4.394,1.183c-1.577,0 -3.032,-0.394 -4.382,-1.183c-1.334,-0.792 -2.394,-1.852 -3.189,-3.193c-0.789,-1.34 -1.186,-2.804 -1.186,-4.381" style="fill:#00b6ed;fill-rule:nonzero;"/><path d="M150.004,82.717l0,-15.054c0,-0.221 0.083,-0.416 0.252,-0.585c0.17,-0.169 0.367,-0.25 0.607,-0.25l3.707,0c0.164,0 0.333,0.034 0.506,0.108c0.175,0.068 0.29,0.148 0.363,0.228l4.441,4.878l4.671,-4.856c0.192,-0.176 0.404,-0.277 0.638,-0.311c0.235,-0.028 0.506,-0.047 0.823,-0.047l3.226,0c0.228,0 0.423,0.081 0.592,0.25c0.166,0.169 0.247,0.364 0.247,0.585l0,15.054c0,0.24 -0.081,0.446 -0.238,0.607c-0.16,0.172 -0.36,0.252 -0.601,0.252l-3.201,0c-0.234,0 -0.45,-0.08 -0.638,-0.252c-0.182,-0.161 -0.277,-0.367 -0.277,-0.607l0,-8.804l-3.84,4.884c-0.33,0.425 -0.733,0.644 -1.226,0.644c-0.241,0 -0.472,-0.052 -0.681,-0.154c-0.222,-0.108 -0.392,-0.244 -0.518,-0.422l-3.948,-4.952l0.025,8.804c0,0.24 -0.086,0.446 -0.237,0.607c-0.167,0.172 -0.367,0.252 -0.595,0.252l-3.239,0c-0.24,0 -0.437,-0.086 -0.607,-0.262c-0.169,-0.172 -0.252,-0.376 -0.252,-0.597" style="fill:#00b6ed;fill-rule:nonzero;"/><path d="M183.479,71.113l0,1.938l6.742,0c0.256,0 0.487,0.099 0.684,0.296c0.195,0.203 0.302,0.45 0.302,0.755l0,2.083c0,0.268 -0.107,0.518 -0.302,0.73c-0.197,0.216 -0.428,0.321 -0.684,0.321l-6.742,0l0,2.129l7.078,0c0.278,0 0.506,0.099 0.703,0.299c0.206,0.2 0.308,0.462 0.308,0.777l0,2.061c0,0.287 -0.102,0.536 -0.308,0.752c-0.197,0.219 -0.425,0.324 -0.703,0.324l-11.29,0c-0.278,0 -0.512,-0.105 -0.706,-0.324c-0.203,-0.216 -0.299,-0.465 -0.299,-0.752l0,-0.071l0,-1.99l0,-10.382l0,-2.083c0,-0.302 0.096,-0.552 0.299,-0.755c0.194,-0.2 0.428,-0.296 0.706,-0.296l11.29,0c0.278,0 0.506,0.096 0.703,0.296c0.206,0.203 0.308,0.453 0.308,0.755l0,2.083c0,0.268 -0.108,0.512 -0.321,0.727c-0.203,0.219 -0.431,0.327 -0.69,0.327l-7.078,0Z" style="fill:#00b6ed;fill-rule:nonzero;"/><path d="M194.975,88.606l0,-1.677c0,-0.351 0.12,-0.715 0.348,-1.087c0.228,-0.379 0.542,-0.564 0.946,-0.564c1.1,0 1.92,-0.244 2.462,-0.731c0.545,-0.487 0.878,-1.035 1.004,-1.651c0.133,-0.617 0.198,-1.338 0.216,-2.167l0.031,-0.573l0,-12.298c0,-0.339 0.077,-0.589 0.234,-0.758c0.157,-0.163 0.342,-0.247 0.549,-0.247l3.802,0c0.194,0 0.367,0.09 0.53,0.272c0.164,0.184 0.241,0.437 0.241,0.754l-0.096,13.685c0,0.022 -0.012,0.031 -0.012,0.031c0,3.122 -0.795,5.322 -2.407,6.589c-1.615,1.266 -3.504,1.925 -5.67,1.975c-0.687,0.015 -1.217,-0.111 -1.596,-0.385c-0.373,-0.269 -0.564,-0.66 -0.582,-1.168" style="fill:#00b6ed;fill-rule:nonzero;"/><path d="M225.555,75.082c0,-0.684 -0.176,-1.316 -0.524,-1.886c-0.348,-0.576 -0.82,-1.035 -1.402,-1.381c-0.583,-0.338 -1.211,-0.514 -1.871,-0.514c-0.711,0 -1.356,0.176 -1.926,0.514c-0.585,0.346 -1.047,0.805 -1.38,1.381c-0.336,0.57 -0.505,1.202 -0.505,1.886c0,0.687 0.169,1.322 0.505,1.904c0.333,0.583 0.795,1.042 1.38,1.384c0.57,0.351 1.215,0.518 1.926,0.518c0.66,0 1.288,-0.167 1.871,-0.518c0.582,-0.342 1.054,-0.801 1.402,-1.384c0.348,-0.582 0.524,-1.217 0.524,-1.904m-12.49,0.216c0,-1.578 0.392,-3.039 1.187,-4.379c0.789,-1.341 1.855,-2.407 3.189,-3.199c1.344,-0.786 2.804,-1.18 4.382,-1.18c1.584,0 3.045,0.394 4.388,1.18c1.353,0.792 2.425,1.858 3.208,3.199c0.795,1.34 1.186,2.801 1.186,4.379c0,1.577 -0.391,3.041 -1.186,4.381c-0.783,1.341 -1.855,2.401 -3.208,3.193c-1.343,0.789 -2.804,1.183 -4.388,1.183c-1.578,0 -3.038,-0.394 -4.382,-1.183c-1.334,-0.792 -2.4,-1.852 -3.189,-3.193c-0.795,-1.34 -1.187,-2.804 -1.187,-4.381" style="fill:#00b6ed;fill-rule:nonzero;"/><path d="M244.014,74.652c0.727,0 1.402,-0.13 2.015,-0.395c0.616,-0.262 0.922,-0.875 0.922,-1.83c0,-0.666 -0.198,-1.177 -0.607,-1.532c-0.41,-0.351 -0.999,-0.527 -1.763,-0.527l-1.963,0l0,4.284l1.396,0Zm3.556,7.491c-0.166,-1.088 -0.53,-1.837 -1.082,-2.259c-0.554,-0.425 -1.235,-0.678 -2.052,-0.761c-0.108,-0.012 -0.246,-0.025 -0.404,-0.025c-0.157,0 -0.295,0.022 -0.403,0.053l-0.031,0.024l0,3.063c0,0.302 -0.025,0.549 -0.077,0.731c-0.062,0.185 -0.213,0.332 -0.459,0.456c-0.247,0.12 -0.632,0.175 -1.162,0.175l-2.219,0c-0.493,0.019 -0.89,-0.074 -1.18,-0.277c-0.283,-0.194 -0.428,-0.471 -0.428,-0.823l0.024,-6.462l0,-8.326c0,-0.237 0.121,-0.45 0.367,-0.635c0.228,-0.181 0.518,-0.274 0.857,-0.274l5.426,0c2.398,-0.015 4.16,0.385 5.316,1.211c1.149,0.817 1.769,2.108 1.864,3.867c0.019,0.151 0.025,0.278 0.019,0.364c-0.013,0.089 -0.019,0.166 -0.019,0.231l0,0.499c-0.077,0.931 -0.317,1.658 -0.733,2.201c-0.404,0.542 -0.934,1.047 -1.606,1.51l0.022,0.024c0.776,0.382 1.402,0.934 1.861,1.652c0.462,0.718 0.783,1.47 0.946,2.249c0.173,0.783 0.234,1.483 0.21,2.105c0,0.271 -0.102,0.487 -0.296,0.647c-0.179,0.157 -0.456,0.237 -0.811,0.237l-2.921,0c-0.41,0 -0.678,-0.104 -0.798,-0.311c-0.117,-0.206 -0.188,-0.428 -0.194,-0.656c-0.006,-0.231 -0.019,-0.395 -0.037,-0.49" style="fill:#00b6ed;fill-rule:nonzero;"/><path d="M279.638,78.436c0.53,0 1.017,-0.154 1.476,-0.459c0.45,-0.302 0.816,-0.721 1.1,-1.255c0.277,-0.536 0.41,-1.121 0.41,-1.756c0,-0.626 -0.127,-1.199 -0.404,-1.723c-0.271,-0.526 -0.638,-0.949 -1.091,-1.257c-0.45,-0.311 -0.943,-0.471 -1.461,-0.471l-2.227,0c-0.115,0 -0.21,0.043 -0.284,0.117c-0.071,0.089 -0.102,0.191 -0.102,0.317l0,6.052c0,0.13 0.031,0.228 0.102,0.308c0.074,0.09 0.169,0.127 0.284,0.127l2.197,0Zm-7.553,4.092l0,-14.646c0,-0.29 0.095,-0.537 0.299,-0.743c0.206,-0.21 0.459,-0.311 0.749,-0.311l6.455,0c1.519,0 2.943,0.376 4.268,1.137c1.338,0.758 2.401,1.778 3.19,3.063c0.782,1.285 1.18,2.675 1.18,4.175c0,1.501 -0.398,2.891 -1.199,4.179c-0.792,1.279 -1.864,2.302 -3.202,3.057c-1.34,0.758 -2.767,1.137 -4.283,1.137l-6.409,0c-0.29,0 -0.543,-0.102 -0.749,-0.311c-0.204,-0.207 -0.299,-0.453 -0.299,-0.737" style="fill:#00b6ed;fill-rule:nonzero;"/><path d="M300.709,71.113l0,1.938l6.745,0c0.259,0 0.484,0.099 0.687,0.296c0.194,0.203 0.296,0.45 0.296,0.755l0,2.083c0,0.268 -0.102,0.518 -0.296,0.73c-0.203,0.216 -0.428,0.321 -0.687,0.321l-6.745,0l0,2.129l7.084,0c0.271,0 0.505,0.099 0.703,0.299c0.2,0.2 0.302,0.462 0.302,0.777l0,2.061c0,0.287 -0.102,0.536 -0.302,0.752c-0.198,0.219 -0.432,0.324 -0.703,0.324l-11.297,0c-0.271,0 -0.505,-0.105 -0.699,-0.324c-0.204,-0.216 -0.299,-0.465 -0.299,-0.752l0,-0.071l0,-1.99l0,-10.382l0,-2.083c0,-0.302 0.095,-0.552 0.299,-0.755c0.194,-0.2 0.428,-0.296 0.699,-0.296l11.297,0c0.271,0 0.505,0.096 0.703,0.296c0.2,0.203 0.302,0.453 0.302,0.755l0,2.083c0,0.268 -0.102,0.512 -0.315,0.727c-0.203,0.219 -0.431,0.327 -0.69,0.327l-7.084,0Z" style="fill:#00b6ed;fill-rule:nonzero;"/></svg>